<svg xmlns="http://www.w3.org/2000/svg" width="170" height="170" viewBox="0 0 170 170">
  <g id="Camada_2" data-name="Camada 2">
    <g id="Camada_1-2" data-name="Camada 1">
      <g id="_1" data-name="1">
        <polygon points="170 170 0 170 0 82.27 0 40.48 0 0 41.51 0 170 0 170 170" fill="#231f20"/>
      </g>
      <g id="_2" data-name="2">
        <rect y="46.01" width="170" height="10.03" fill="#939598"/>
        <rect y="113.96" width="170" height="10.03" fill="#939598"/>
      </g>
      <g id="_3" data-name="3">
        <rect width="170" height="25.95" fill="#6d6e71"/>
        <rect y="144.05" width="170" height="25.95" fill="#6d6e71"/>
      </g>
      <g id="_4" data-name="4">
        <rect y="25.95" width="170" height="20.07" fill="#fff"/>
        <rect y="123.99" width="170" height="20.07" fill="#fff"/>
        <path d="M28.74,112.68C26.47,98.48,14.79,87.25,0,85c14.8-2.24,26.47-13.47,28.74-27.68C31,71.52,42.69,82.75,57.48,85,42.68,87.24,31,98.47,28.74,112.68Z" fill="#fff"/>
        <path d="M141.26,112.68C139,98.48,127.31,87.25,112.52,85c14.8-2.24,26.47-13.47,28.74-27.68,2.27,14.2,14,25.43,28.74,27.68C155.2,87.24,143.53,98.47,141.26,112.68Z" fill="#fff"/>
        <path d="M85,112.68c-2.27-14.2-14-25.43-28.74-27.68C71.06,82.76,82.73,71.53,85,57.32,87.27,71.52,99,82.75,113.74,85,98.94,87.24,87.27,98.47,85,112.68Z" fill="#fff"/>
      </g>
    </g>
  </g>
</svg>
