<svg xmlns="http://www.w3.org/2000/svg" width="170" height="170" viewBox="0 0 170 170">
  <g id="Camada_2" data-name="Camada 2">
    <g id="Camada_1-2" data-name="Camada 1">
      <g id="_1" data-name="1">
        <polygon points="170 170 0 170 0 82.27 0 40.48 0 0 41.51 0 170 0 170 170" fill="#231f20"/>
      </g>
      <g id="_2" data-name="2">
        <g>
          <path d="M81.07,72.68c-16.31-20.52-65.9-28.33-65.9-28.33-2.54,5.06,0,20.64,0,20.64,9.4-3.11,17.47-.2,18.6,0C37,65.58,35,63.24,35,63.24a12.8,12.8,0,0,1-4.94-8.31.29.29,0,0,1,.39-.29C61.2,65.32,70.56,73.38,73.42,77.18a13.38,13.38,0,0,1,7.66-4.49Zm-58.22-16a3.32,3.32,0,1,1,2.89-3.55A3.25,3.25,0,0,1,22.85,56.65Z" fill="#939598"/>
          <path d="M94.79,78.43C98.2,74.14,107.92,66,135.72,54.6a.29.29,0,0,1,.41.27,12.85,12.85,0,0,1-4.48,8.57s-1.83,2.44,1.37,1.68c1.11-.26,9-3.6,18.57-1,0,0,1.7-15.69-1.12-20.62,0,0-45.73,9.75-62.57,29.64a13.45,13.45,0,0,1,6.9,5.29Zm48.83-28.85a3.32,3.32,0,1,1-3.25,3.24A3.24,3.24,0,0,1,143.62,49.58Z" fill="#939598"/>
          <path d="M152.71,103.72c-9.25,3.52-17.45,1-18.58.82-3.25-.44-1.19,1.81-1.19,1.81a12.85,12.85,0,0,1,5.31,8.1.29.29,0,0,1-.38.31C106.75,105.43,97,97.79,94,94.12a13.37,13.37,0,0,1-7.6,4.63c17.06,19.94,67.24,25.61,67.24,25.61,2.32-5.18-.91-20.63-.91-20.63ZM146.22,119a3.31,3.31,0,1,1,2.73-3.67A3.25,3.25,0,0,1,146.22,119Z" fill="#939598"/>
          <path d="M73.1,93.89c-3.45,4-13.5,11.58-42.76,21.27a.29.29,0,0,1-.39-.29A12.82,12.82,0,0,1,35,106.62s2-2.31-1.25-1.77c-1.13.19-9.25,3-18.59-.28,0,0-2.78,15.54-.32,20.64,0,0,48.43-6.87,65.67-26.55a13.39,13.39,0,0,1-7.44-4.76Zm-51,25.72a3.31,3.31,0,1,1,3.47-3A3.24,3.24,0,0,1,22.12,119.61Z" fill="#939598"/>
        </g>
        <g>
          <path d="M7.66,53.35A7.65,7.65,0,0,0,0,45.73V61a7.64,7.64,0,0,0,7.66-7.62Z" fill="#939598"/>
          <path d="M7.66,120.65A7.65,7.65,0,0,0,0,113v15.24a7.65,7.65,0,0,0,7.66-7.62Z" fill="#939598"/>
          <path d="M162.63,116.07a7.63,7.63,0,0,0,7.37,7.59V108.48A7.62,7.62,0,0,0,162.63,116.07Z" fill="#939598"/>
          <path d="M162.63,48.78A7.63,7.63,0,0,0,170,56.37V41.19A7.62,7.62,0,0,0,162.63,48.78Z" fill="#939598"/>
        </g>
      </g>
      <g id="_3" data-name="3">
        <path d="M4.07,85A4.06,4.06,0,0,0,0,81v8.11a4.06,4.06,0,0,0,4.07-4Z" fill="#fff"/>
        <path d="M166.21,84.41a4.05,4.05,0,0,0,3.79,4v-8a4,4,0,0,0-3.79,4Z" fill="#fff"/>
        <path d="M82.78,36.68a14.3,14.3,0,0,0-3.41,9.22s-5.09-1.95-6.46-.77c0,0,.42,14.6,10.93,22.29,0,0,14.62-6.14,13.15-21.52a10.36,10.36,0,0,0-5.58.78s-.65-6-2.82-9.58a3.64,3.64,0,0,0-5.81-.43Z" fill="#fff"/>
        <path d="M34.76,86.43A14.43,14.43,0,0,0,44,89.82s-2,5.07-.78,6.43c0,0,14.68-.42,22.41-10.87,0,0-6.17-14.55-21.63-13.08a10.25,10.25,0,0,0,.78,5.55s-6.07.64-9.63,2.8a3.6,3.6,0,0,0-.43,5.78Z" fill="#fff"/>
        <path d="M84.77,134.2A14.35,14.35,0,0,0,88.18,125s5.09,2,6.46.78c0,0-.42-14.61-10.93-22.3,0,0-14.62,6.14-13.15,21.52a10.41,10.41,0,0,0,5.58-.77s.65,6,2.82,9.58a3.64,3.64,0,0,0,5.81.43Z" fill="#fff"/>
        <path d="M132.78,84.44a14.48,14.48,0,0,0-9.27-3.39s2-5.06.78-6.43c0,0-14.68.42-22.41,10.88,0,0,6.17,14.54,21.63,13.08a10.25,10.25,0,0,0-.78-5.55s6.07-.65,9.63-2.81a3.6,3.6,0,0,0,.43-5.78Z" fill="#fff"/>
        <path d="M14.74,68.27a7,7,0,0,0-4.33,2s-1.07-2.4-1.94-2.46c0,0-4.87,5.13-3.92,11.33,0,0,7.1,2.88,11.88-2.88a5,5,0,0,0-2.17-1.64,13.57,13.57,0,0,0,2.32-4.22A1.74,1.74,0,0,0,14.74,68.27Z" fill="#fff"/>
        <path d="M15.42,101.57a7,7,0,0,0-2-4.3s2.41-1.07,2.47-1.93c0,0-5.16-4.85-11.39-3.9,0,0-2.89,7.06,2.9,11.82A5,5,0,0,0,9,101.1a13.65,13.65,0,0,0,4.25,2.3A1.74,1.74,0,0,0,15.42,101.57Z" fill="#fff"/>
        <rect y="20.1" width="170" height="12.08" fill="#fff"/>
        <rect y="137.83" width="170" height="12.08" fill="#fff"/>
        <path d="M155.54,101.15a7,7,0,0,0,4.33-2s1.07,2.39,1.94,2.45c0,0,4.87-5.13,3.92-11.33,0,0-7.1-2.87-11.88,2.89A5,5,0,0,0,156,94.8,13.68,13.68,0,0,0,153.7,99a1.74,1.74,0,0,0,1.84,2.12Z" fill="#fff"/>
        <path d="M154.86,67.84a7,7,0,0,0,2,4.31s-2.41,1.06-2.47,1.93c0,0,5.16,4.84,11.39,3.9,0,0,2.89-7.07-2.9-11.82a4.91,4.91,0,0,0-1.64,2.16A13.81,13.81,0,0,0,157,66,1.74,1.74,0,0,0,154.86,67.84Z" fill="#fff"/>
      </g>
    </g>
  </g>
</svg>
