<svg xmlns="http://www.w3.org/2000/svg" width="100%" viewBox="0 0 170.02 170.08">
  <g id="Camada_2" data-name="Camada 2">
    <g id="Camada_1-2" data-name="Camada 1">
      <g id="Camada_2-2" data-name="Camada 2">
        <g id="Camada_1-2-2" data-name="Camada 1-2">
          <g id="Camada_2-2-2" data-name="Camada 2-2">
            <g id="_1" data-name=" 1">
              <polygon points="157.6 169.99 0.1 169.99 0.1 88.6 0.1 12.27 157.6 12.27 157.6 169.99" fill="#fff"/>
            </g>
            <g id="_2" data-name=" 2">
              <path d="M76.27,99.91s9.21,3.07,19-5.4c0,0,16.59-9.58,26.53-2.76,0,0,3.13-10-16.21-10.69,0,0,4.79-9.58,4.42-15.66a18.94,18.94,0,0,0-16.4,4.23S89.37,55.73,78,57.25c0,0,5,13.81-2.76,23.62,0,0-8.71,8.57-3.6,14.78L50.41,115.42s-5.39-2.08,0-8.3c0,0,9.54-9.26,8.57-20.79,0,0-5.25-20.1-1.66-25.49,0,0-8.29,1.25-8.29,5.81,0,0-9.54-4.29-16.16-3.32,0,0-3,2.77,2.35,11,0,0-6.78,3.59-7.19,7.18,0,0,19.48,1,18.65,22.52,0,0-4.56,8.3-1,16.31l-15.27,14a38.65,38.65,0,0,0-7.45-4.8A42,42,0,0,0,9.4,125.61a49.86,49.86,0,0,0-9.3-.36v11.26c10.68-1.91,21.32,2.41,27,10.92,6.69,10.08,3.18,21.23,2.7,22.65H43.69c-.77-6-1.45-11.15-2-15.63A35.68,35.68,0,0,0,39,144.35,27.3,27.3,0,0,0,34.6,138l14.83-13.29s6.08,2.21,19.89-1.47c0,0,21.74-2.76,23,19.35,0,0,7.37-2.77,9.22-9.4,0,0,7.18,6.82,14,5,0,0,2-6.64-4.24-13.83,0,0,7.73-2.75,7.37-12.52,0,0-7.55,1.48-19.34-.37a55.28,55.28,0,0,0-37.39,10.14s-6.82,2.57-4.24-3.5Z" fill="#231f20"/>
              <rect x="0.1" y="157.69" width="12.17" height="12.3" fill="#231f20"/>
              <path d="M137.12,163.17c1.87-1.52,3.83-3.22,5.81-5.12a93.63,93.63,0,0,0,7.34-7.89l-5-.08c-2.38.64-4.76,1.3-7.15,2q-12.84,3.58-25.3,7.33a85.7,85.7,0,0,0,18.41-16.58c3.71-4.48,12.37-15.17,16.2-30.59,8.56-34.5-14.46-63-16.49-65.48a64.34,64.34,0,0,0-22.74-18.1,73.79,73.79,0,0,0-28.45-5.8C43.3,23,13.19,58.74,10.1,62.51,9.21,49,25,26.07,25,26.07c-12,.09-16.76,7.09-16.76,7.09C7.66,30,.1,25.7.1,25.7q0,43.74-.1,87.48A15.17,15.17,0,0,0,5.44,109a14.69,14.69,0,0,0,2.65-5,14.73,14.73,0,0,0,6.43,3.17,15,15,0,0,0,9-.91A43.17,43.17,0,0,1,13.25,90.68C22.13,55.1,51.08,31.86,79.78,33.14c27,1.2,43.65,23.67,45.69,26.52,1.7,2.38,22.59,32.66,6.6,63.9-9.81,19.16-29.78,31.44-51.92,32.28-2.66-1.4-5.53-2.8-8.6-4.15a135.74,135.74,0,0,0-13.94-5.21,21.85,21.85,0,0,0,7.56,14,29.38,29.38,0,0,0-8.6,9.57h88.7c.13-.1,2.4-1.87,1.94-3.51-.18-.66-.77-1.19-2.62-1.9A23,23,0,0,0,137.12,163.17Z" fill="#231f20"/>
              <g>
                <rect x="0.03" width="157.57" height="12.27" fill="#231f20"/>
                <rect x="157.75" width="12.27" height="169.96" fill="#231f20"/>
              </g>
            </g>
          </g>
        </g>
      </g>
    </g>
  </g>
</svg>
