<svg xmlns="http://www.w3.org/2000/svg" width="100%" viewBox="0 0 170 170">
  <g id="Camada_2" data-name="Camada 2">
    <g id="Camada_1-2" data-name="Camada 1">
      <g id="_1" data-name="1">
        <polygon points="170 170 0 170 0 82.27 0 40.48 0 0 41.51 0 170 0 170 170" fill="#231f20"/>
      </g>
      <g id="_2" data-name="2">
        <rect width="170" height="20.1" fill="#939598"/>
        <rect y="149.9" width="170" height="20.1" fill="#939598"/>
        <path d="M152.39,83.4,170,100.92v-35L152.39,83.39h0Z" fill="#939598"/>
        <path d="M0,101.22,17.91,83.4h0L0,65.57v35.64Z" fill="#939598"/>
        <path d="M64.6,58.13,39.2,83.4h0l25.4,25.27h41.11l25.4-25.27h0l-25.4-25.27Z" fill="#939598"/>
      </g>
      <g id="_3" data-name="3">
        <rect y="20.1" width="170" height="12.08" fill="#fff"/>
        <rect y="137.83" width="170" height="12.08" fill="#fff"/>
        <path d="M152.39,83.4h0L170,65.88V49.7l-.35.35L155,64.65,144.26,75.31l-2.51,2.5-2.51-2.5L113.84,50l-3.37-3.35H59.84L56.47,50,43.77,62.68,31.07,75.31l-2.51,2.5-2.51-2.5L.65,50,0,49.39V65.57L17.91,83.39h0L0,101.22v16.17l.65-.64,8.29-8.25,17.11-17L28.56,89l2.51,2.5,25.4,25.27,3.37,3.35h50.63l3.37-3.35,10.72-10.67,14.67-14.59,2.51-2.5,2.51,2.5,25.4,25.27.35.34V100.93L152.39,83.41Zm-21.29,0-25.4,25.27H64.59L39.19,83.4h0l25.4-25.27H105.7L131.1,83.4Z" fill="#fff"/>
      </g>
    </g>
  </g>
</svg>
