<svg xmlns="http://www.w3.org/2000/svg" width="100%" viewBox="0 0 170 170">
  <g id="Camada_2" data-name="Camada 2">
    <g id="Camada_1-2" data-name="Camada 1">
      <g id="Camada_2-2" data-name="Camada 2">
        <g id="Camada_1-2-2" data-name="Camada 1-2">
          <rect id="_1" data-name=" 1" y="56.04" width="113.96" height="113.96" fill="#231f20"/>
          <g id="_3" data-name=" 3">
            <rect y="144.05" width="25.95" height="25.95" fill="#6d6e71"/>
            <g>
              <rect width="170" height="25.95" fill="#6d6e71"/>
              <rect x="144.06" y="25.95" width="25.94" height="144.05" fill="#6d6e71"/>
            </g>
          </g>
          <g id="_2" data-name=" 2">
            <polygon points="28.74 113.96 0 113.96 0 124.69 45.31 124.69 45.31 170 56.04 170 56.04 113.96 28.74 113.96" fill="#939598"/>
            <g>
              <rect y="46.01" width="123.99" height="10.03" fill="#939598"/>
              <rect x="113.96" y="56.04" width="10.03" height="113.96" fill="#939598"/>
            </g>
          </g>
          <g id="_4" data-name=" 4">
            <g id="camada_3_cinza" data-name="camada 3 cinza">
              <path d="M59.31,85.45C72.44,87.54,82.82,98.32,84.89,112,87,98.31,97.35,87.54,110.47,85.45,97.34,83.35,87,72.58,84.89,58.93,82.82,72.59,72.43,83.35,59.31,85.45Z" fill="#fff"/>
              <path d="M51.16,85.45C38,83.35,27.65,72.58,25.58,58.93,23.51,72.59,13.12,83.35,0,85.45,13.13,87.54,23.51,98.32,25.58,112,27.65,98.31,38,87.54,51.16,85.45Z" fill="#fff"/>
              <path d="M110.48,141.48C97.35,139.39,87,128.61,84.9,115c-2.06,13.66-12.46,24.43-25.58,26.52,13.13,2.1,23.52,12.87,25.58,26.52C87,154.34,97.36,143.58,110.48,141.48Z" fill="#fff"/>
            </g>
            <g>
              <rect y="123.99" width="46.02" height="20.06" fill="#fff"/>
              <rect x="25.69" y="144.05" width="20.33" height="25.95" fill="#fff"/>
            </g>
            <g>
              <rect y="25.95" width="144.05" height="20.06" fill="#fff"/>
              <rect x="123.99" y="46.02" width="20.06" height="123.98" fill="#fff"/>
            </g>
          </g>
        </g>
      </g>
    </g>
  </g>
</svg>
