<svg xmlns="http://www.w3.org/2000/svg" width="170.84" height="171.02" viewBox="0 0 170.84 171.02">
  <g id="Camada_2" data-name="Camada 2">
    <g id="Camada_1-2" data-name="Camada 1">
      <g id="_1" data-name="1">
        <rect x="0.5" y="138.86" width="169.84" height="31.66" fill="#231f20"/>
        <path d="M.5,32.23v23a70.7,70.7,0,0,1,6.86-5.48,35.07,35.07,0,0,1,39.5.05l1,.65A19.14,19.14,0,0,0,56.44,54a19.4,19.4,0,0,0,11.11-2,21.14,21.14,0,0,0,5.73-4.46c4.29-4.52,17.32-15.25,33.55-.16,0,0,11.29,11,27.86-1,0,0,17.9-11.84,35.64,4.42V32.22H.5Z" fill="#231f20"/>
        <path d="M134.7,79.58c-16.57,12-27.86,1-27.86,1-16.23-15.09-29.26-4.36-33.55.16a21,21,0,0,1-5.73,4.46,18.59,18.59,0,0,1-19.74-1.5l-1-.65a35.07,35.07,0,0,0-39.5,0A68.39,68.39,0,0,0,.5,88.48V96a26,26,0,0,0,9.68-3.31c7.89-5.54,17.14-4.73,23.46-3.11a31.76,31.76,0,0,1,10,4.63c14.15,9.51,29.19-2.94,29.19-2.94,12.76-11.3,28.89-2.4,28.89-2.4,15,11.91,27.73,4.13,27.73,4.13,17-12.74,33-2.35,40.92,4.92V84C152.6,67.75,134.7,79.58,134.7,79.58Z" fill="#231f20"/>
      </g>
      <g id="_2" data-name="2">
        <path d="M129.42,68.42s-14.23,13.14-29.18-3.94c0,0-14.67-14.76-27.43,1.46,0,0-15,17.85-29.19,4.21a29.1,29.1,0,0,0-10-6.64C27.33,61.18,18.08,60,10.19,68c0,0-4.73,4.12-9.68,4.74V88.49A70.7,70.7,0,0,1,7.37,83a35.07,35.07,0,0,1,39.5,0l1,.65a19.14,19.14,0,0,0,8.63,3.49,19.4,19.4,0,0,0,11.11-2,21,21,0,0,0,5.73-4.46c4.29-4.51,17.32-15.25,33.55-.16,0,0,11.29,11,27.86-1,0,0,17.9-11.84,35.64,4.42V66.73c-8.53-5.86-24.59-12.79-40.92,1.68Z" fill="#939598"/>
        <rect x="0.5" y="0.5" width="169.84" height="16.82" fill="none" stroke="#231f20" stroke-miterlimit="10"/>
        <rect x="0.5" y="138.68" width="169.84" height="31.84" fill="none" stroke="#231f20" stroke-miterlimit="10"/>
        <path d="M170.34,97.92c-8-7.27-23.89-17.66-40.92-4.92,0,0-12.76,7.79-27.73-4.13,0,0-16.13-8.9-28.89,2.4,0,0-15,12.45-29.19,2.94a32.2,32.2,0,0,0-10-4.63C27.32,88,18.07,87.16,10.18,92.69A26,26,0,0,1,.5,96v29.71H170.34V97.91Z" fill="#939598"/>
        <rect x="170.34" y="17.5" width="0.18" height="14.73" fill="#fff"/>
        <polygon points="170.34 17.5 170.34 0.5 41.97 0.5 0.5 0.5 0.5 17.5 0.68 17.5 170.34 17.5" fill="#939598"/>
        <rect x="0.5" y="17.5" width="0.18" height="14.73" fill="#fff"/>
      </g>
      <g id="_3" data-name="3">
        <path d="M33.64,63.51a28.77,28.77,0,0,1,10,6.64C57.76,83.79,72.8,65.94,72.8,65.94c12.76-16.22,27.43-1.46,27.43-1.46,15,17.09,29.18,3.94,29.18,3.94,16.33-14.47,32.38-7.54,40.92-1.69V50.79c-17.74-16.25-35.64-4.42-35.64-4.42-16.57,12-27.86,1-27.86,1C90.6,32.3,77.57,43,73.28,47.55A21.34,21.34,0,0,1,67.55,52a18.59,18.59,0,0,1-19.74-1.5l-1-.65a35.07,35.07,0,0,0-39.5,0A66.5,66.5,0,0,0,.5,55.27V72.72c5-.62,9.68-4.74,9.68-4.74,7.89-8,17.14-6.8,23.46-4.48Z" fill="#fff"/>
        <rect x="0.68" y="17.5" width="169.84" height="14.73" fill="#fff"/>
        <rect x="0.68" y="17.5" width="169.84" height="14.73" fill="#fff"/>
        <rect x="0.68" y="125.71" width="169.84" height="13.14" fill="#fff"/>
        <ellipse cx="26.72" cy="108.25" rx="7.11" ry="7.08" fill="#fff"/>
        <ellipse cx="85.6" cy="108.25" rx="7.11" ry="7.08" fill="#fff"/>
        <ellipse cx="147.02" cy="108.25" rx="7.11" ry="7.08" fill="#fff"/>
      </g>
    </g>
  </g>
</svg>
