<svg xmlns="http://www.w3.org/2000/svg" width="170" height="170" viewBox="0 0 170 170">
  <g id="Camada_2" data-name="Camada 2">
    <g id="Camada_1-2" data-name="Camada 1">
      <g id="_1" data-name=" 1">
        <path d="M0,112.16c24.24.53,48.48,1.2,72.73,1.56,28.78.44,57.56.67,86.34.9,3.64,0,7.29-.46,10.93-.7V170H0Z"/>
        <path d="M170,56.08c-11.8-.54-23.6-1.54-35.38-1.56q-55.49,0-111,.48C15.78,55,7.89,55.7,0,56.08V0H170Z"/>
      </g>
      <path id="_2" data-name=" 2" d="M170,56.08v57.84c-3.64.24-7.29.72-10.93.7-28.78-.23-57.56-.46-86.34-.9-24.25-.36-48.49-1-72.73-1.56V56.08c7.89-.38,15.78-1,23.66-1.08,37-.28,74-.53,111-.48C146.4,54.54,158.2,55.54,170,56.08Z" fill="#fff"/>
    </g>
  </g>
</svg>
