<svg xmlns="http://www.w3.org/2000/svg" width="100%" viewBox="0 0 170.18 170.13">
  <g id="Camada_2" data-name="Camada 2">
    <g id="Camada_1-2" data-name="Camada 1">
      <g id="Camada_2-2" data-name="Camada 2">
        <g id="Camada_1-2-2" data-name="Camada 1-2">
          <g id="Camada_2-2-2" data-name="Camada 2-2">
            <g id="_1" data-name=" 1">
              <rect x="0.18" width="170" height="169.96" fill="#231f20"/>
            </g>
            <g id="_2" data-name=" 2">
              <g>
                <path d="M65.34,146.71c-1.28-.47-2.54-1-3.77-1.54s-2.18-1-3.25-1.58l-.36-.18a59.15,59.15,0,0,1-6.52-4.06,105.5,105.5,0,0,0-21.17,30.58H42.75a43.57,43.57,0,0,1,22.59-23.22Z" fill="#939598"/>
                <path d="M37.47,125.43c1-1,2-2.15,3-3.27a40.21,40.21,0,0,0,2.58-3.38c.37-.53.78-1,1.13-1.56a51.38,51.38,0,0,0,7.07-17.15c.51-1.58.48-9.37.48-11.26a36,36,0,0,1,7.13-21.33A33.07,33.07,0,0,1,85.27,54.19c18.53,0,33.55,15.5,33.55,34.62a34.9,34.9,0,0,1-14.49,28.44,59.28,59.28,0,0,1,15.34,8.13c8.89-9.25,15.11-22.52,15.11-36.57,0-28.22-22.16-51.09-49.51-51.09A48.56,48.56,0,0,0,50.8,52.19a41.18,41.18,0,0,0-6.62,8.2c-8.84,15.24-7.59,26.52-7.59,28.45a35.76,35.76,0,0,1-.47,5.56,34.83,34.83,0,0,1-6.66,15.72A33.1,33.1,0,0,1,3,123.42c-1,0-1.88-.06-2.81-.14v16.47c.94.05,1.86.14,2.81.14A48.6,48.6,0,0,0,37.47,125.43Z" fill="#939598"/>
                <path d="M26.18,96.64a30.09,30.09,0,0,0,1.22-7.83A32.63,32.63,0,0,0,23,72.11c-2-3.79-4.8-8.92-10.87-12.42a25.29,25.29,0,0,0-12-3.31V116.8a22.29,22.29,0,0,0,8.09-.65C21.21,112.57,25.78,98,26.18,96.64Z" fill="#939598"/>
                <path d="M29.41,67.52a61.38,61.38,0,0,1,8.06-15.33A48.56,48.56,0,0,0,3,37.72c-1,0-1.87.09-2.81.14V54.33c.93-.07,1.86-.14,2.81-.14A33.09,33.09,0,0,1,29.41,67.52Z" fill="#939598"/>
                <path d="M85.27,63.6A24.51,24.51,0,0,0,62.06,81a25.3,25.3,0,0,0,0,15.66c3.21,9.47,12.5,17.22,23.21,17.34a24.34,24.34,0,0,0,16-6,25.65,25.65,0,0,0,7.13-27.63C105,71.05,96.11,63.49,85.27,63.6Z" fill="#939598"/>
                <path d="M112,132.16a54.26,54.26,0,0,0-26.71-8.74,57.43,57.43,0,0,1-9.64-1.79c-.29-.08-1.48-.48-1.79-.6a31.7,31.7,0,0,1-7-3.76,47.11,47.11,0,0,1-5.7-4.66c-.3-.33-.63-.64-.93-1a80.58,80.58,0,0,1-9.11,13.46l-.28.33a50.35,50.35,0,0,0,8.36,6.77,48,48,0,0,0,26.09,7.73,32.74,32.74,0,0,1,19.91,6.82A34.85,34.85,0,0,1,118.49,170h16.57A50.93,50.93,0,0,0,112,132.16Z" fill="#939598"/>
                <path d="M96.71,149.76c-3.39-1-6.22-.83-11.38-.47-6.69.46-14.83.9-22.34,6.32a34.52,34.52,0,0,0-11.58,14.52l62.59-.2C112.88,166.52,108.11,153.19,96.71,149.76Z" fill="#939598"/>
              </g>
            </g>
            <g id="_3" data-name=" 3">
              <path d="M82.72,77.21a10.34,10.34,0,0,0-2.74,7s-4.1-1.47-5.2-.58c0,0,.34,11,8.79,16.8,0,0,11.76-4.62,10.58-16.25a8.73,8.73,0,0,0-4.49.59s-.48-4.46-2.27-7.17a3,3,0,0,0-4.17-.77,2.92,2.92,0,0,0-.5.43Z" fill="#6d6e71"/>
              <g>
                <path d="M93.91,170a3,3,0,0,0-.87-2,10.16,10.16,0,0,0-6.86-2.82s1.44-4.15.57-5.27c0,0-10.83.34-16.54,8.93,0,0,.18.47.55,1.19Z" fill="#6d6e71"/>
                <path d="M.18,100.3c1.62-.74,11.42-5.47,10.33-16.11A8.69,8.69,0,0,0,6,84.78s-.52-4.52-2.27-7.23a3,3,0,0,0-3.57-1Z" fill="#6d6e71"/>
              </g>
            </g>
            <g id="_4" data-name=" 4">
              <path d="M128,132.07a64.89,64.89,0,0,0,16.86-43.26c0-33.95-26.7-61.51-59.61-61.51A58.36,58.36,0,0,0,44.18,44.37,58.41,58.41,0,0,0,3,27.3c-1,0-1.87.13-2.81.13V37.86c1.08-.09,2.18-.13,3.3-.13,14.65,0,26.48,7.86,34,14.46a61.38,61.38,0,0,0-8.06,15.33,28.77,28.77,0,0,0-7.45-13c-6.46-6.4-14.31-7.78-17.4-8.28A32.15,32.15,0,0,0,.2,45.82V56.38a19,19,0,0,1,5.1.37C19.82,59.81,25.67,79.28,26.18,81a27,27,0,0,1,1.22,7.83,26.3,26.3,0,0,1-1.22,7.83c-2.23,7.25-9.07,18-19.94,20a20.19,20.19,0,0,1-6.06.17v10.58a26.35,26.35,0,0,0,4.26,0c14.66-1,23.88-14.39,25.32-16.56a45.82,45.82,0,0,0,6.31-16.5,49.24,49.24,0,0,0,.47-5.56c0-1.9-1.25-13.21,7.59-28.45a41.43,41.43,0,0,1,6.67-8.2A48.46,48.46,0,0,1,85.27,37.72c27.35,0,49.51,22.87,49.51,51.09,0,14-6.22,27.29-15.11,36.57a59.28,59.28,0,0,0-15.34-8.13,34.9,34.9,0,0,0,14.49-28.44c0-19.12-15-34.62-33.55-34.62A33.09,33.09,0,0,0,58.86,67.52a36,36,0,0,0-7.13,21.33c0,1.89,0,9.68-.48,11.26a51.47,51.47,0,0,1-7.07,17.11c-.35.54-.76,1-1.13,1.56-.83,1.16-1.67,2.29-2.58,3.38,0,0-1.33,1.62-3,3.27-2.95,2.91-14.4,9.52-32.19,9.68-2.23,0-4-.07-5.1-.13v10.89c1.81,0,3.68,0,5.59-.08a89,89,0,0,0,30.64-7.1l5-.9a73.15,73.15,0,0,0-7,8.1c-2.75,3.67-5.66,7.56-7.74,13.32a40.26,40.26,0,0,0-2.28,10.72H35.18a34.69,34.69,0,0,1,1.53-9.13c1.92-6.17,5.14-10.32,8-14a65.43,65.43,0,0,1,6.71-7.4c1,.7,2.07,1.41,3.23,2.11s2.22,1.3,3.36,1.9l.36.18c1.07.56,2.14,1.09,3.25,1.58s2.49,1,3.77,1.54a29.58,29.58,0,0,0-8.55,3.51c-9.92,6.08-13.17,16.35-14.08,19.7l10.43.07A36.11,36.11,0,0,1,62,158.42,44.93,44.93,0,0,1,79.6,150c.36-.08.77-.17,1.22-.25a32.7,32.7,0,0,1,4.46-.46A33.07,33.07,0,0,1,101,153.21c9.22,5.36,12.33,14.45,13,16.72h10.41A63.08,63.08,0,0,0,117,156.06c-3.34-4.71-6.48-9.13-12.36-12.24a32.75,32.75,0,0,0-8.52-3,46.29,46.29,0,0,0-10.87-.93c-1.56,0-14.54-.36-26.06-7.73a49.85,49.85,0,0,1-8.38-6.73h.06v.06l.28-.33a79.86,79.86,0,0,0,9-13.52c.3.35.63.66.93,1a48.15,48.15,0,0,0,5.7,4.67,32.52,32.52,0,0,0,7,3.75c.31.12,1.5.52,1.79.6a57.43,57.43,0,0,0,9.64,1.79A54.19,54.19,0,0,1,112,132.2a51.53,51.53,0,0,1,8.39,6.74c10,10.54,11.43,24.52,11.6,31h10.82A61.11,61.11,0,0,0,128,132.07ZM85.27,114A24.51,24.51,0,0,1,62.06,96.64a26,26,0,0,1,0-15.66A24.4,24.4,0,0,1,92.9,65.5l.33.11a25,25,0,0,1,15.13,31.66A24.52,24.52,0,0,1,85.27,114Z" fill="#fff"/>
              <g>
                <rect x="0.18" y="155.07" width="11.37" height="3.92" fill="#fff"/>
                <rect x="11.17" y="155.07" width="3.92" height="14.93" fill="#fff"/>
              </g>
              <g>
                <rect y="14.61" width="151.92" height="6.38" fill="#fff"/>
                <rect x="148.99" y="14.61" width="6.56" height="155.39" fill="#fff"/>
              </g>
            </g>
          </g>
        </g>
      </g>
    </g>
  </g>
</svg>
