<svg xmlns="http://www.w3.org/2000/svg" width="170.02" height="170.02" viewBox="0 0 170.02 170.02">
  <g id="Camada_2" data-name="Camada 2">
    <g id="Camada_1-2" data-name="Camada 1">
      <g id="_1" data-name="1">
        <rect x="0.01" y="22.79" width="170" height="11.78" fill="#231f20"/>
        <rect x="0.01" y="135.45" width="170" height="11.78" fill="#231f20"/>
        <path d="M55.45,65.71A21.29,21.29,0,0,1,53.13,70a25.66,25.66,0,0,1,.2,3.51c-.32.37-2.88.51-3.33.7a22.5,22.5,0,0,1-4.18,1.34l-.54.24a17.72,17.72,0,0,1-2.34,1.41h0c-.46,0-1.89-1.24-2.31-1.35-.18,0-.33-.12-.5-.17a29.68,29.68,0,0,1-4.46-1.52A17.11,17.11,0,0,1,33,73.54c-.33-.29-.47-2.23-.69-2.61s-.36-.72-.54-1.07a9.91,9.91,0,0,1-2.1-3.15c-.19-.4-2.14-3-2.14-3.47,0-.6,2.22-2.64,2.47-3.19l.4-.86a11.41,11.41,0,0,1,.66-2.48c.15-.41.63-3.66.93-4s3.44-.3,4-.51a18.72,18.72,0,0,1,3.48-1,14.35,14.35,0,0,1,2.89-1.65h0c.42,0,1.69,1.45,2.19,1.68a11.88,11.88,0,0,1,3.86,1.29c.5.27,3.37.64,3.75,1s.15,2.47.4,2.84a8.41,8.41,0,0,1,1.06,2.42c.26.42.52.89.8,1.43.13.26,2.86,2.32,2.88,2.6,0,.49-1.67,2.41-1.86,2.86Z"/>
        <path d="M143.11,65.71A21.29,21.29,0,0,1,140.79,70a25.66,25.66,0,0,1,.2,3.51c-.32.37-2.88.51-3.33.7a22.5,22.5,0,0,1-4.18,1.34l-.54.24a17.72,17.72,0,0,1-2.34,1.41h0c-.46,0-1.89-1.24-2.31-1.35-.18,0-.33-.12-.5-.17a29.68,29.68,0,0,1-4.46-1.52,17.11,17.11,0,0,1-2.65-.66c-.33-.29-.47-2.23-.69-2.61s-.36-.72-.54-1.07a9.91,9.91,0,0,1-2.1-3.15c-.19-.4-2.14-3-2.14-3.47,0-.6,2.22-2.64,2.47-3.19l.4-.86a11.41,11.41,0,0,1,.66-2.48c.15-.41.63-3.66.93-4s3.44-.3,4-.51a18.72,18.72,0,0,1,3.48-1A14.35,14.35,0,0,1,130,49.53h0c.42,0,1.69,1.45,2.19,1.68a11.88,11.88,0,0,1,3.86,1.29c.5.27,3.37.64,3.75,1s.15,2.47.4,2.84a8.41,8.41,0,0,1,1.06,2.42c.26.42.52.89.8,1.43.13.26,2.86,2.32,2.88,2.6,0,.49-1.67,2.41-1.86,2.86Z"/>
        <path d="M55.45,109.88a21.29,21.29,0,0,1-2.32,4.33,25.73,25.73,0,0,1,.2,3.51c-.32.37-2.88.51-3.33.7a22.5,22.5,0,0,1-4.18,1.34l-.54.24a17.72,17.72,0,0,1-2.34,1.41h0c-.46,0-1.89-1.24-2.31-1.35-.18,0-.33-.12-.5-.17a29.68,29.68,0,0,1-4.46-1.52,17.11,17.11,0,0,1-2.65-.66c-.33-.29-.47-2.22-.69-2.6s-.36-.73-.54-1.08a9.91,9.91,0,0,1-2.1-3.15c-.19-.4-2.14-3-2.14-3.46,0-.6,2.22-2.65,2.47-3.2l.4-.86a11.41,11.41,0,0,1,.66-2.48c.15-.41.63-3.66.93-4s3.44-.3,4-.51a18.72,18.72,0,0,1,3.48-1.05,14.35,14.35,0,0,1,2.89-1.65h0c.42,0,1.69,1.45,2.19,1.68a11.88,11.88,0,0,1,3.86,1.29c.5.27,3.37.64,3.75,1s.15,2.47.4,2.84A8.41,8.41,0,0,1,53.63,103c.26.42.52.89.8,1.43.13.26,2.86,2.33,2.88,2.61,0,.49-1.67,2.4-1.86,2.85Z"/>
        <g>
          <path d="M.52,98.87a17.81,17.81,0,0,0,2.34-1.42l.54-.24a23,23,0,0,0,4.18-1.34c.45-.19,3-.33,3.33-.7a24.06,24.06,0,0,0-.2-3.5A21.87,21.87,0,0,0,13,87.33c.19-.45,1.9-2.37,1.86-2.85,0-.29-2.75-2.35-2.88-2.6-.28-.55-.54-1-.8-1.44A8.53,8.53,0,0,0,10.15,78c-.24-.37-.1-2.51-.4-2.83S6.5,74.4,6,74.14a11.71,11.71,0,0,0-3.86-1.29C1.65,72.63.45,71.28,0,71.18v27.5a1.24,1.24,0,0,0,.49.2h0Z"/>
          <path d="M170,71.15h0a14.22,14.22,0,0,0-2.89,1.66,20.38,20.38,0,0,0-3.48,1c-.56.21-3.57.09-4,.51s-.79,3.55-.93,4a11.33,11.33,0,0,0-.66,2.49l-.4.86c-.25.55-2.46,2.59-2.47,3.19,0,.44,1.95,3.07,2.14,3.46a9.81,9.81,0,0,0,2.1,3.16c.18.36.33.72.54,1.07s.36,2.31.69,2.6a17.4,17.4,0,0,0,2.65.66,28.93,28.93,0,0,0,4.46,1.52c.17,0,.32.12.5.17s1.2.81,1.81,1.16V71.17l0,0Z"/>
        </g>
        <path d="M143.11,109.88a21.29,21.29,0,0,1-2.32,4.33,25.73,25.73,0,0,1,.2,3.51c-.32.37-2.88.51-3.33.7a22.5,22.5,0,0,1-4.18,1.34l-.54.24a17.72,17.72,0,0,1-2.34,1.41h0c-.46,0-1.89-1.24-2.31-1.35-.18,0-.33-.12-.5-.17a29.68,29.68,0,0,1-4.46-1.52,17.11,17.11,0,0,1-2.65-.66c-.33-.29-.47-2.22-.69-2.6s-.36-.73-.54-1.08a9.91,9.91,0,0,1-2.1-3.15c-.19-.4-2.14-3-2.14-3.46,0-.6,2.22-2.65,2.47-3.2l.4-.86a11.41,11.41,0,0,1,.66-2.48c.15-.41.63-3.66.93-4s3.44-.3,4-.51a18.72,18.72,0,0,1,3.48-1.05A14.35,14.35,0,0,1,130,93.7h0c.42,0,1.69,1.45,2.19,1.68a11.88,11.88,0,0,1,3.86,1.29c.5.27,3.37.64,3.75,1s.15,2.47.4,2.84a8.41,8.41,0,0,1,1.06,2.42c.26.42.52.89.8,1.43.13.26,2.86,2.33,2.88,2.61,0,.49-1.67,2.4-1.86,2.85Z"/>
        <path d="M98,87.33a21.37,21.37,0,0,1-2.32,4.34,25.53,25.53,0,0,1,.2,3.5c-.32.37-2.88.51-3.33.7a22.5,22.5,0,0,1-4.18,1.34l-.54.24a17.81,17.81,0,0,1-2.34,1.42h0c-.46,0-1.89-1.25-2.31-1.36-.18-.05-.33-.12-.5-.17a29.68,29.68,0,0,1-4.46-1.52,17.11,17.11,0,0,1-2.65-.66c-.33-.29-.47-2.22-.69-2.6s-.36-.72-.54-1.07a9.85,9.85,0,0,1-2.1-3.16c-.19-.4-2.14-3-2.14-3.46,0-.6,2.22-2.64,2.47-3.19l.4-.86a11.33,11.33,0,0,1,.66-2.49c.15-.41.63-3.65.93-4s3.44-.3,4-.51a18.72,18.72,0,0,1,3.48-1c.87-.52,2.42-1.66,2.89-1.66h0c.42,0,1.69,1.46,2.19,1.69A11.88,11.88,0,0,1,91,74.13c.5.27,3.37.64,3.75,1.05s.15,2.46.4,2.83a8.41,8.41,0,0,1,1.06,2.42c.26.43.52.9.8,1.44.13.26,2.86,2.32,2.88,2.6,0,.49-1.67,2.4-1.86,2.85Z"/>
      </g>
      <g id="_2" data-name="2">
        <path d="M167.69,97.34a29.68,29.68,0,0,1-4.46-1.52,17.11,17.11,0,0,1-2.65-.66c-.33-.29-.47-2.22-.69-2.6s-.36-.72-.54-1.07a9.85,9.85,0,0,1-2.1-3.16c-.19-.4-2.14-3-2.14-3.46,0-.6,2.22-2.64,2.47-3.19l.4-.86a11.33,11.33,0,0,1,.66-2.49c.15-.41.63-3.65.93-4s3.44-.3,4-.51a18.72,18.72,0,0,1,3.48-1c.87-.52,2.42-1.66,2.89-1.66h0l.05,0V42.67H0v28.5c.45.1,1.66,1.45,2.14,1.67A11.88,11.88,0,0,1,6,74.13c.5.27,3.37.64,3.75,1.05s.15,2.46.4,2.83a8.41,8.41,0,0,1,1.06,2.42c.26.43.52.9.8,1.44.13.26,2.86,2.32,2.88,2.6,0,.49-1.67,2.4-1.86,2.85a21.37,21.37,0,0,1-2.32,4.34,25.53,25.53,0,0,1,.2,3.5c-.32.37-2.88.52-3.33.7A22.5,22.5,0,0,1,3.41,97.2l-.54.24A17.81,17.81,0,0,1,.53,98.86h0a1.19,1.19,0,0,1-.49-.2v28.67H170V98.66c-.62-.35-1.5-1.08-1.81-1.16s-.33-.12-.5-.17ZM55.44,109.87a21.29,21.29,0,0,1-2.32,4.33,25.73,25.73,0,0,1,.2,3.51c-.32.37-2.88.52-3.33.7a22.5,22.5,0,0,1-4.18,1.34l-.54.24a17.72,17.72,0,0,1-2.34,1.41h0c-.46,0-1.89-1.24-2.31-1.35-.18,0-.33-.12-.5-.17a29.68,29.68,0,0,1-4.46-1.52A17.11,17.11,0,0,1,33,117.7c-.33-.29-.47-2.22-.69-2.6s-.36-.73-.54-1.08a9.91,9.91,0,0,1-2.1-3.15c-.19-.4-2.14-3-2.14-3.46,0-.6,2.22-2.65,2.47-3.2l.4-.86a11.41,11.41,0,0,1,.66-2.48c.15-.41.63-3.66.93-4s3.44-.3,4-.51a18.72,18.72,0,0,1,3.48-1,14.35,14.35,0,0,1,2.89-1.65h0c.42,0,1.69,1.45,2.19,1.68a11.88,11.88,0,0,1,3.86,1.29c.5.27,3.37.64,3.75,1s.15,2.47.4,2.84A8.41,8.41,0,0,1,53.62,103c.26.42.52.89.8,1.43.13.26,2.86,2.33,2.88,2.61,0,.49-1.67,2.4-1.86,2.85Zm0-44.17A21.29,21.29,0,0,1,53.12,70a25.66,25.66,0,0,1,.2,3.51c-.32.37-2.88.52-3.33.7a22.5,22.5,0,0,1-4.18,1.34l-.54.24a17.72,17.72,0,0,1-2.34,1.41h0c-.46,0-1.89-1.24-2.31-1.35-.18,0-.33-.12-.5-.17a29.68,29.68,0,0,1-4.46-1.52A17.11,17.11,0,0,1,33,73.53c-.33-.29-.47-2.23-.69-2.61s-.36-.72-.54-1.07a9.91,9.91,0,0,1-2.1-3.15c-.19-.4-2.14-3-2.14-3.47,0-.6,2.22-2.64,2.47-3.19l.4-.86a11.41,11.41,0,0,1,.66-2.48c.15-.41.63-3.66.93-4s3.44-.3,4-.51a18.72,18.72,0,0,1,3.48-1,14.35,14.35,0,0,1,2.89-1.65h0c.42,0,1.69,1.45,2.19,1.68a11.88,11.88,0,0,1,3.86,1.29c.5.27,3.37.64,3.75,1s.15,2.47.4,2.84a8.41,8.41,0,0,1,1.06,2.42c.26.42.52.89.8,1.43.13.26,2.86,2.32,2.88,2.6,0,.49-1.67,2.41-1.86,2.86ZM98,87.32a21.37,21.37,0,0,1-2.32,4.34,25.53,25.53,0,0,1,.2,3.5c-.32.37-2.88.52-3.33.7A22.5,22.5,0,0,1,88.4,97.2l-.54.24a17.81,17.81,0,0,1-2.34,1.42h0c-.46,0-1.89-1.25-2.31-1.36-.18,0-.33-.12-.5-.17a29.68,29.68,0,0,1-4.46-1.52,17.11,17.11,0,0,1-2.65-.66c-.33-.29-.47-2.22-.69-2.6s-.36-.72-.54-1.07a9.85,9.85,0,0,1-2.1-3.16c-.19-.4-2.14-3-2.14-3.46,0-.6,2.22-2.64,2.47-3.19l.4-.86a11.33,11.33,0,0,1,.66-2.49c.15-.41.63-3.65.93-4s3.44-.3,4-.51a18.72,18.72,0,0,1,3.48-1c.87-.52,2.42-1.66,2.89-1.66h0c.42,0,1.69,1.46,2.19,1.69A11.88,11.88,0,0,1,91,74.12c.5.27,3.37.64,3.75,1s.15,2.46.4,2.83a8.41,8.41,0,0,1,1.06,2.42c.26.43.52.9.8,1.44.13.26,2.86,2.32,2.88,2.6,0,.49-1.67,2.4-1.86,2.85Zm45.07,22.55a21.29,21.29,0,0,1-2.32,4.33,25.73,25.73,0,0,1,.2,3.51c-.32.37-2.88.52-3.33.7a22.5,22.5,0,0,1-4.18,1.34l-.54.24a17.72,17.72,0,0,1-2.34,1.41h0c-.46,0-1.89-1.24-2.31-1.35-.18,0-.33-.12-.5-.17a29.68,29.68,0,0,1-4.46-1.52,17.11,17.11,0,0,1-2.65-.66c-.33-.29-.47-2.22-.69-2.6s-.36-.73-.54-1.08a9.91,9.91,0,0,1-2.1-3.15c-.19-.4-2.14-3-2.14-3.46,0-.6,2.22-2.65,2.47-3.2l.4-.86a11.41,11.41,0,0,1,.66-2.48c.15-.41.63-3.66.93-4s3.44-.3,4-.51a18.72,18.72,0,0,1,3.48-1A14.35,14.35,0,0,1,130,93.69h0c.42,0,1.69,1.45,2.19,1.68a11.88,11.88,0,0,1,3.86,1.29c.5.27,3.37.64,3.75,1s.15,2.47.4,2.84a8.41,8.41,0,0,1,1.06,2.42c.26.42.52.89.8,1.43.13.26,2.86,2.33,2.88,2.61,0,.49-1.67,2.4-1.86,2.85Zm0-44.17A21.29,21.29,0,0,1,140.78,70a25.66,25.66,0,0,1,.2,3.51c-.32.37-2.88.52-3.33.7a22.5,22.5,0,0,1-4.18,1.34l-.54.24a17.72,17.72,0,0,1-2.34,1.41h0c-.46,0-1.89-1.24-2.31-1.35-.18,0-.33-.12-.5-.17a29.68,29.68,0,0,1-4.46-1.52,17.11,17.11,0,0,1-2.65-.66c-.33-.29-.47-2.23-.69-2.61s-.36-.72-.54-1.07a9.91,9.91,0,0,1-2.1-3.15c-.19-.4-2.14-3-2.14-3.47,0-.6,2.22-2.64,2.47-3.19l.4-.86a11.41,11.41,0,0,1,.66-2.48c.15-.41.63-3.66.93-4s3.44-.3,4-.51a18.72,18.72,0,0,1,3.48-1A14.35,14.35,0,0,1,130,49.52h0c.42,0,1.69,1.45,2.19,1.68a11.88,11.88,0,0,1,3.86,1.29c.5.27,3.37.64,3.75,1s.15,2.47.4,2.84a8.41,8.41,0,0,1,1.06,2.42c.26.42.52.89.8,1.43.13.26,2.86,2.32,2.88,2.6,0,.49-1.67,2.41-1.86,2.86Z" fill="#939598"/>
        <path d="M147.86,105.27a10.56,10.56,0,0,0-2.43-2.44l-.59-.49c-.14-.26-.27-.5-.42-.74a11.64,11.64,0,0,0-1-2.26,2.44,2.44,0,0,0,0-.27,5.33,5.33,0,0,0-1.12-3.65c-1-1-2.27-1.32-4.08-1.7-.31-.06-.6-.12-.82-.18a14.65,14.65,0,0,0-3.79-1.35.69.69,0,0,0-.13-.11,5.28,5.28,0,0,0-3.35-1.77H130c-1.35,0-2.43.7-3.93,1.68l-.25.17a24.43,24.43,0,0,0-3.1,1l-.8,0c-2,.1-3.51.17-4.69,1.35-.91.91-1.14,2-1.62,4.54-.06.34-.12.63-.16.82a14.89,14.89,0,0,0-.69,2.49l-.08.18c-.14.17-.33.38-.53.6a17.06,17.06,0,0,0-1.54,1.88A65.2,65.2,0,0,1,99.33,94c0-.44-.07-.91-.12-1.46a25.24,25.24,0,0,0,1.87-3.68c.1-.14.23-.3.37-.48,1.06-1.39,2-2.59,1.84-4.19s-1.06-2.36-2.92-3.91l-.59-.49c-.14-.26-.27-.5-.42-.74a11.64,11.64,0,0,0-1-2.26,2.44,2.44,0,0,0,0-.27,9.17,9.17,0,0,0-.26-2c4.78-1.81,11.57-4.8,14.94-8.09.23.36.49.74.8,1.19.19.28.37.53.47.69a12.9,12.9,0,0,0,2.27,3.5l.23.47.06.36a5.42,5.42,0,0,0,1.55,3.48,6.61,6.61,0,0,0,3.37,1.24l.48.09,1,.38A22.4,22.4,0,0,0,126.91,79l.07,0,.33.23a5.74,5.74,0,0,0,3.31,1.38h.26a6.83,6.83,0,0,0,3.26-1.51l.39-.27,0,0a26.49,26.49,0,0,0,4.19-1.35l.6-.08c1.73-.23,3.23-.44,4.27-1.66s.92-2.41.7-4.82a25.62,25.62,0,0,0,1.87-3.67c.1-.14.23-.3.37-.48a16,16,0,0,0,1.11-1.6,69.81,69.81,0,0,0,8.91,7.69,13.32,13.32,0,0,0-1,3.64c-.06.34-.12.63-.16.82a16.06,16.06,0,0,0-.7,2.49l-.08.18c-.14.17-.33.38-.54.6-1.32,1.46-2.36,2.61-2.36,4.28,0,1.29.59,2.21,2.06,4.36l.47.69a12.9,12.9,0,0,0,2.27,3.5c.07.15.15.31.23.46s0,.23.06.36a5.9,5.9,0,0,0,1.31,3.21,57.79,57.79,0,0,1-10.26,7.82Z" fill="#939598"/>
        <path d="M59,103.86c-.35-.31-.75-.64-1.21-1l-.59-.49c-.14-.26-.27-.5-.42-.74a11.64,11.64,0,0,0-1-2.26,2.44,2.44,0,0,0,0-.27,5.33,5.33,0,0,0-1.12-3.65c-1-1-2.27-1.32-4.08-1.7-.31-.06-.6-.12-.82-.18A14.65,14.65,0,0,0,46,92.19a.69.69,0,0,0-.13-.11,5.28,5.28,0,0,0-3.35-1.77h-.15c-1.35,0-2.43.7-3.93,1.68l-.25.17a24.43,24.43,0,0,0-3.1,1l-.8,0c-2,.1-3.51.17-4.69,1.35-.91.91-1.14,2-1.62,4.54-.06.34-.12.63-.16.82a16.06,16.06,0,0,0-.7,2.49l-.08.18c-.14.17-.33.38-.53.6s-.45.5-.66.75c-3.57-2.6-8-6-11.51-9.07,0-.63,0-1.34-.13-2.25a25.24,25.24,0,0,0,1.87-3.68c.1-.14.23-.3.37-.48,1.06-1.39,2-2.59,1.84-4.19s-1.06-2.36-2.92-3.91l-.59-.49c-.14-.26-.27-.5-.42-.74a11.64,11.64,0,0,0-1-2.26,2.44,2.44,0,0,0,0-.27A8.41,8.41,0,0,0,13,74.22a147,147,0,0,0,13.1-6.71l.09.13.47.69a12.9,12.9,0,0,0,2.27,3.5l.23.47q0,.17.06.36a5.42,5.42,0,0,0,1.55,3.48,6.61,6.61,0,0,0,3.37,1.24l.48.09,1,.38A22.4,22.4,0,0,0,39.23,79l.07,0,.33.23a5.74,5.74,0,0,0,3.31,1.38h.26a6.83,6.83,0,0,0,3.26-1.51l.39-.27,0,0a26.49,26.49,0,0,0,4.19-1.35l.6-.08c1.73-.23,3.23-.44,4.27-1.66s.92-2.41.7-4.82a25.62,25.62,0,0,0,1.87-3.67c.1-.14.23-.3.37-.48.27-.36.53-.7.77-1,3,2.46,7.19,5.67,11.42,8.46-.16.61-.31,1.36-.49,2.33-.06.34-.12.63-.16.82a16.06,16.06,0,0,0-.7,2.49l-.08.18c-.14.17-.33.38-.53.6-1.32,1.46-2.36,2.61-2.36,4.28,0,1.29.59,2.21,2.06,4.36l.47.69a12.9,12.9,0,0,0,2.27,3.5c.07.15.15.31.23.46s0,.23.06.36a8.48,8.48,0,0,0,.65,2.26A102,102,0,0,1,59,103.9Z" fill="#939598"/>
      </g>
      <g id="_3" data-name="3">
        <rect x="0.01" width="170" height="22.79" fill="#6d6e71"/>
        <rect x="0.01" y="147.23" width="170" height="22.79" fill="#6d6e71"/>
      </g>
      <g id="_4" data-name="4">
        <path d="M57.77,58.66l-.59-.49c-.14-.26-.27-.5-.42-.74a12,12,0,0,0-1-2.27,2.44,2.44,0,0,0,0-.27,5.31,5.31,0,0,0-1.12-3.64c-1-1-2.27-1.32-4.08-1.7-.31-.06-.6-.12-.82-.18A14.65,14.65,0,0,0,46,48a.69.69,0,0,0-.13-.11,5.29,5.29,0,0,0-3.35-1.78h-.15c-1.35,0-2.43.71-3.93,1.69l-.25.17a24.43,24.43,0,0,0-3.1,1l-.8,0c-2,.1-3.51.17-4.69,1.35-.91.91-1.14,2-1.62,4.53-.06.34-.12.64-.16.83a16.06,16.06,0,0,0-.7,2.49l-.08.18c-.14.17-.33.37-.53.6-1.32,1.45-2.36,2.6-2.36,4.27,0,1.3.59,2.22,2.06,4.36l.47.69a12.9,12.9,0,0,0,2.27,3.5l.23.47q0,.17.06.36a5.42,5.42,0,0,0,1.55,3.48,6.61,6.61,0,0,0,3.37,1.24l.48.09,1,.38A21.48,21.48,0,0,0,39.23,79l.07,0,.33.23a5.74,5.74,0,0,0,3.31,1.38h.26a6.83,6.83,0,0,0,3.26-1.51l.39-.27,0,0a26.49,26.49,0,0,0,4.19-1.35l.6-.08c1.73-.23,3.23-.44,4.27-1.66s.92-2.41.7-4.82a25.62,25.62,0,0,0,1.87-3.67c.1-.14.23-.3.37-.48,1.06-1.39,2-2.59,1.84-4.2s-1.06-2.36-2.92-3.9Zm-2.32,7A21.29,21.29,0,0,1,53.13,70a25.66,25.66,0,0,1,.2,3.51c-.32.37-2.88.51-3.33.7a22.5,22.5,0,0,1-4.18,1.34l-.54.24a17.72,17.72,0,0,1-2.34,1.41h0c-.46,0-1.89-1.24-2.31-1.35-.18,0-.33-.12-.5-.17a29.68,29.68,0,0,1-4.46-1.52A17.11,17.11,0,0,1,33,73.54c-.33-.29-.47-2.23-.69-2.61s-.36-.72-.54-1.07a9.91,9.91,0,0,1-2.1-3.15c-.19-.4-2.14-3-2.14-3.47,0-.6,2.22-2.64,2.47-3.19l.4-.86a11.41,11.41,0,0,1,.66-2.48c.15-.41.63-3.66.93-4s3.44-.3,4-.51a18.72,18.72,0,0,1,3.48-1,14.35,14.35,0,0,1,2.89-1.65h0c.42,0,1.69,1.45,2.19,1.68a11.88,11.88,0,0,1,3.86,1.29c.5.27,3.37.64,3.75,1s.15,2.47.4,2.84a8.41,8.41,0,0,1,1.06,2.42c.26.42.52.89.8,1.43.13.26,2.86,2.32,2.88,2.6,0,.49-1.67,2.41-1.86,2.86Z" fill="#fff"/>
        <path d="M145.43,58.66l-.59-.49c-.14-.26-.27-.5-.42-.74a12,12,0,0,0-1-2.27,2.44,2.44,0,0,0,0-.27,5.31,5.31,0,0,0-1.12-3.64c-1-1-2.27-1.32-4.08-1.7-.31-.06-.6-.12-.82-.18A14.65,14.65,0,0,0,133.64,48a.69.69,0,0,0-.13-.11,5.29,5.29,0,0,0-3.35-1.78H130c-1.35,0-2.43.71-3.93,1.69l-.25.17a24.43,24.43,0,0,0-3.1,1l-.8,0c-2,.1-3.51.17-4.69,1.35-.91.91-1.14,2-1.62,4.53-.06.34-.12.64-.16.83a14.89,14.89,0,0,0-.69,2.49l-.08.18c-.14.17-.33.37-.53.6-1.32,1.45-2.36,2.6-2.36,4.27,0,1.3.59,2.22,2.06,4.36.19.28.37.53.47.69a12.9,12.9,0,0,0,2.27,3.5l.23.47q0,.17.06.36a5.42,5.42,0,0,0,1.55,3.48,6.61,6.61,0,0,0,3.37,1.24l.48.09,1,.38A21.48,21.48,0,0,0,126.9,79l.07,0,.33.23a5.74,5.74,0,0,0,3.31,1.38h.26a6.83,6.83,0,0,0,3.26-1.51l.39-.27,0,0a26.49,26.49,0,0,0,4.19-1.35l.6-.08c1.73-.23,3.23-.44,4.27-1.66s.92-2.41.7-4.82a25.62,25.62,0,0,0,1.87-3.67c.1-.14.23-.3.37-.48,1.06-1.39,2-2.59,1.84-4.2s-1.06-2.36-2.92-3.9Zm-2.32,7A21.29,21.29,0,0,1,140.79,70a25.66,25.66,0,0,1,.2,3.51c-.32.37-2.88.51-3.33.7a22.5,22.5,0,0,1-4.18,1.34l-.54.24a17.72,17.72,0,0,1-2.34,1.41h0c-.46,0-1.89-1.24-2.31-1.35-.18,0-.33-.12-.5-.17a29.68,29.68,0,0,1-4.46-1.52,17.11,17.11,0,0,1-2.65-.66c-.33-.29-.47-2.23-.69-2.61s-.36-.72-.54-1.07a9.91,9.91,0,0,1-2.1-3.15c-.19-.4-2.14-3-2.14-3.47,0-.6,2.22-2.64,2.47-3.19l.4-.86a11.41,11.41,0,0,1,.66-2.48c.15-.41.63-3.66.93-4s3.44-.3,4-.51a18.72,18.72,0,0,1,3.48-1A14.35,14.35,0,0,1,130,49.53h0c.42,0,1.69,1.45,2.19,1.68a11.88,11.88,0,0,1,3.86,1.29c.5.27,3.37.64,3.75,1s.15,2.47.4,2.84a8.41,8.41,0,0,1,1.06,2.42c.26.42.52.89.8,1.43.13.26,2.86,2.32,2.88,2.6,0,.49-1.67,2.41-1.86,2.86Z" fill="#fff"/>
        <path d="M57.77,102.83l-.59-.49c-.14-.26-.27-.5-.42-.74a11.64,11.64,0,0,0-1-2.26,2.44,2.44,0,0,0,0-.27,5.33,5.33,0,0,0-1.12-3.65c-1-1-2.27-1.32-4.08-1.7-.31-.06-.6-.12-.82-.18A14.65,14.65,0,0,0,46,92.19a.69.69,0,0,0-.13-.11,5.28,5.28,0,0,0-3.35-1.77h-.15c-1.35,0-2.43.7-3.93,1.68l-.25.17a24.43,24.43,0,0,0-3.1,1l-.8,0c-2,.1-3.51.17-4.69,1.35-.91.91-1.14,2-1.62,4.54-.06.34-.12.63-.16.82a16.06,16.06,0,0,0-.7,2.49l-.08.18c-.14.17-.33.37-.53.6-1.32,1.45-2.36,2.6-2.36,4.28,0,1.29.59,2.21,2.06,4.35l.47.69A13,13,0,0,0,28.93,116c.07.15.15.31.23.46s0,.23.06.36a5.42,5.42,0,0,0,1.55,3.48,6.61,6.61,0,0,0,3.37,1.24l.48.09,1,.38a21.48,21.48,0,0,0,3.63,1.18l.07,0,.33.24a5.74,5.74,0,0,0,3.31,1.38h.26a6.83,6.83,0,0,0,3.26-1.51l.39-.28,0,0a26.49,26.49,0,0,0,4.19-1.35l.6-.08c1.73-.23,3.23-.44,4.27-1.66s.92-2.41.7-4.81a26.3,26.3,0,0,0,1.87-3.68c.1-.14.23-.3.37-.48,1.06-1.39,2-2.59,1.84-4.19s-1.06-2.37-2.92-3.91Zm-2.32,7a21.29,21.29,0,0,1-2.32,4.33,25.73,25.73,0,0,1,.2,3.51c-.32.37-2.88.51-3.33.7a22.5,22.5,0,0,1-4.18,1.34l-.54.24a17.72,17.72,0,0,1-2.34,1.41h0c-.46,0-1.89-1.24-2.31-1.35-.18,0-.33-.12-.5-.17a29.68,29.68,0,0,1-4.46-1.52,17.11,17.11,0,0,1-2.65-.66c-.33-.29-.47-2.22-.69-2.6s-.36-.73-.54-1.08a9.91,9.91,0,0,1-2.1-3.15c-.19-.4-2.14-3-2.14-3.46,0-.6,2.22-2.65,2.47-3.2l.4-.86a11.41,11.41,0,0,1,.66-2.48c.15-.41.63-3.66.93-4s3.44-.3,4-.51a18.72,18.72,0,0,1,3.48-1.05,14.35,14.35,0,0,1,2.89-1.65h0c.42,0,1.69,1.45,2.19,1.68a11.88,11.88,0,0,1,3.86,1.29c.5.27,3.37.64,3.75,1s.15,2.47.4,2.84A8.41,8.41,0,0,1,53.63,103c.26.42.52.89.8,1.43.13.26,2.86,2.33,2.88,2.61,0,.49-1.67,2.4-1.86,2.85Z" fill="#fff"/>
        <path d="M145.43,102.83l-.59-.49c-.14-.26-.27-.5-.42-.74a11.64,11.64,0,0,0-1-2.26,2.44,2.44,0,0,0,0-.27,5.33,5.33,0,0,0-1.12-3.65c-1-1-2.27-1.32-4.08-1.7-.31-.06-.6-.12-.82-.18a14.65,14.65,0,0,0-3.79-1.35.69.69,0,0,0-.13-.11,5.28,5.28,0,0,0-3.35-1.77H130c-1.35,0-2.43.7-3.93,1.68l-.25.17a24.43,24.43,0,0,0-3.1,1l-.8,0c-2,.1-3.51.17-4.69,1.35-.91.91-1.14,2-1.62,4.54-.06.34-.12.63-.16.82a14.89,14.89,0,0,0-.69,2.49l-.08.18c-.14.17-.33.37-.53.6-1.32,1.45-2.36,2.6-2.36,4.28,0,1.29.59,2.21,2.06,4.35.19.28.37.53.47.69A13,13,0,0,0,116.6,116c.07.15.15.31.23.46s0,.23.06.36a5.42,5.42,0,0,0,1.55,3.48,6.61,6.61,0,0,0,3.37,1.24l.48.09,1,.38a21.48,21.48,0,0,0,3.63,1.18l.07,0,.33.24a5.74,5.74,0,0,0,3.31,1.38h.26a6.83,6.83,0,0,0,3.26-1.51l.39-.28,0,0a26.49,26.49,0,0,0,4.19-1.35l.6-.08c1.73-.23,3.23-.44,4.27-1.66s.92-2.41.7-4.81a26.3,26.3,0,0,0,1.87-3.68c.1-.14.23-.3.37-.48,1.06-1.39,2-2.59,1.84-4.19s-1.06-2.37-2.92-3.91Zm-2.32,7a21.29,21.29,0,0,1-2.32,4.33,25.73,25.73,0,0,1,.2,3.51c-.32.37-2.88.51-3.33.7a22.5,22.5,0,0,1-4.18,1.34l-.54.24a17.72,17.72,0,0,1-2.34,1.41h0c-.46,0-1.89-1.24-2.31-1.35-.18,0-.33-.12-.5-.17a29.68,29.68,0,0,1-4.46-1.52,17.11,17.11,0,0,1-2.65-.66c-.33-.29-.47-2.22-.69-2.6s-.36-.73-.54-1.08a9.91,9.91,0,0,1-2.1-3.15c-.19-.4-2.14-3-2.14-3.46,0-.6,2.22-2.65,2.47-3.2l.4-.86a11.41,11.41,0,0,1,.66-2.48c.15-.41.63-3.66.93-4s3.44-.3,4-.51a18.72,18.72,0,0,1,3.48-1.05A14.35,14.35,0,0,1,130,93.7h0c.42,0,1.69,1.45,2.19,1.68a11.88,11.88,0,0,1,3.86,1.29c.5.27,3.37.64,3.75,1s.15,2.47.4,2.84a8.41,8.41,0,0,1,1.06,2.42c.26.42.52.89.8,1.43.13.26,2.86,2.33,2.88,2.61,0,.49-1.67,2.4-1.86,2.85Z" fill="#fff"/>
        <path d="M4.41,100.49l0,0a26.49,26.49,0,0,0,4.19-1.35l.6-.08c1.73-.23,3.23-.44,4.27-1.67s.92-2.41.7-4.81a25.24,25.24,0,0,0,1.87-3.68c.1-.14.23-.3.37-.48,1.06-1.39,2-2.59,1.84-4.19s-1.06-2.36-2.92-3.91l-.59-.49c-.14-.26-.27-.5-.42-.74a11.64,11.64,0,0,0-1-2.26,2.44,2.44,0,0,0,0-.27,5.31,5.31,0,0,0-1.12-3.64c-1-1.06-2.27-1.33-4.08-1.71-.31-.06-.6-.12-.82-.18a14.65,14.65,0,0,0-3.79-1.35.69.69,0,0,0-.13-.11A6.91,6.91,0,0,0,1.14,68V72a5.06,5.06,0,0,0,1,.82A11.88,11.88,0,0,1,6,74.15c.5.27,3.37.64,3.75,1s.15,2.46.4,2.83a8.41,8.41,0,0,1,1.06,2.42c.26.43.52.9.8,1.44.13.26,2.86,2.32,2.88,2.6,0,.49-1.67,2.4-1.86,2.85a21.37,21.37,0,0,1-2.32,4.34,25.53,25.53,0,0,1,.2,3.5c-.32.37-2.88.51-3.33.7a22.5,22.5,0,0,1-4.18,1.34l-.54.24c-.26.12-1.1.75-1.72,1.13v3.61A7.64,7.64,0,0,0,4,100.77l.39-.27Z" fill="#fff"/>
        <path d="M167.69,97.34a29.68,29.68,0,0,1-4.46-1.52,17.11,17.11,0,0,1-2.65-.66c-.33-.29-.47-2.22-.69-2.6s-.36-.72-.54-1.07a9.85,9.85,0,0,1-2.1-3.16c-.19-.4-2.14-3-2.14-3.46,0-.6,2.22-2.64,2.47-3.19l.4-.86a11.33,11.33,0,0,1,.66-2.49c.15-.41.63-3.65.93-4s3.44-.3,4-.51a18.72,18.72,0,0,1,3.48-1c.5-.3,1.21-.79,1.82-1.16V67.91A11.2,11.2,0,0,0,166,69.42l-.25.17a24.43,24.43,0,0,0-3.1,1l-.8,0c-2,.1-3.51.17-4.69,1.35-.91.92-1.14,2-1.62,4.54-.06.34-.12.63-.16.82a16.06,16.06,0,0,0-.7,2.49l-.08.18c-.14.17-.33.37-.54.6-1.32,1.46-2.36,2.61-2.36,4.28,0,1.29.59,2.21,2.06,4.35l.47.7a12.9,12.9,0,0,0,2.27,3.5c.07.15.15.31.23.46s0,.23.06.36a5.42,5.42,0,0,0,1.55,3.48A6.56,6.56,0,0,0,161.73,99l.48.09,1,.38a21.48,21.48,0,0,0,3.63,1.18l.07,0,.33.23a9.8,9.8,0,0,0,1.68,1v-4a3,3,0,0,0-.68-.41c-.18,0-.33-.12-.5-.17Z" fill="#fff"/>
        <path d="M100.36,80.28l-.59-.49c-.14-.26-.27-.5-.42-.74a11.64,11.64,0,0,0-1-2.26,2.44,2.44,0,0,0,0-.27,5.31,5.31,0,0,0-1.12-3.64c-1-1.06-2.27-1.33-4.08-1.71-.31-.06-.6-.12-.82-.18a14.65,14.65,0,0,0-3.79-1.35.69.69,0,0,0-.13-.11,5.28,5.28,0,0,0-3.35-1.77h-.15c-1.35,0-2.43.7-3.93,1.68l-.25.17a24.43,24.43,0,0,0-3.1,1l-.8,0c-2,.1-3.51.17-4.69,1.35-.91.92-1.14,2-1.62,4.54-.06.34-.12.63-.16.82a16.06,16.06,0,0,0-.7,2.49l-.08.18c-.14.17-.33.37-.53.6-1.32,1.46-2.36,2.61-2.36,4.28,0,1.29.59,2.21,2.06,4.36l.47.69a12.9,12.9,0,0,0,2.27,3.5l.23.46q0,.17.06.36a5.47,5.47,0,0,0,1.55,3.49A6.61,6.61,0,0,0,76.73,99l.48.09,1,.38a21.48,21.48,0,0,0,3.63,1.18l.07,0,.33.23a5.74,5.74,0,0,0,3.31,1.38h.26a6.83,6.83,0,0,0,3.26-1.51l.39-.27,0,0a26.49,26.49,0,0,0,4.19-1.35l.6-.08c1.73-.23,3.23-.44,4.27-1.67s.92-2.41.7-4.81a25.24,25.24,0,0,0,1.87-3.68c.1-.14.23-.3.37-.48,1.06-1.39,2-2.59,1.84-4.19s-1.06-2.36-2.92-3.91Zm-2.32,7a21.37,21.37,0,0,1-2.32,4.34,25.53,25.53,0,0,1,.2,3.5c-.32.37-2.88.51-3.33.7a22.5,22.5,0,0,1-4.18,1.34l-.54.24a17.81,17.81,0,0,1-2.34,1.42h0c-.46,0-1.89-1.25-2.31-1.36-.18-.05-.33-.12-.5-.17a29.68,29.68,0,0,1-4.46-1.52,17.11,17.11,0,0,1-2.65-.66c-.33-.29-.47-2.22-.69-2.6s-.36-.72-.54-1.07a9.85,9.85,0,0,1-2.1-3.16c-.19-.4-2.14-3-2.14-3.46,0-.6,2.22-2.64,2.47-3.19l.4-.86a11.33,11.33,0,0,1,.66-2.49c.15-.41.63-3.65.93-4s3.44-.3,4-.51a18.72,18.72,0,0,1,3.48-1c.87-.52,2.42-1.66,2.89-1.66h0c.42,0,1.69,1.46,2.19,1.69A11.88,11.88,0,0,1,91,74.13c.5.27,3.37.64,3.75,1.05s.15,2.46.4,2.83a8.41,8.41,0,0,1,1.06,2.42c.26.43.52.9.8,1.44.13.26,2.86,2.32,2.88,2.6,0,.49-1.67,2.4-1.86,2.85Z" fill="#fff"/>
        <g>
          <path d="M156.74,93.89c-.08-.15-.15-.31-.23-.46a13.31,13.31,0,0,1-2.27-3.5l-.47-.69c-1.47-2.15-2.06-3.08-2.06-4.36,0-1.66,1-2.81,2.36-4.28l.54-.6.08-.18a16.37,16.37,0,0,1,.7-2.49c0-.19.1-.49.16-.82a13.86,13.86,0,0,1,1-3.64,69.81,69.81,0,0,1-8.91-7.69,17.86,17.86,0,0,1-1.11,1.6l-.37.48a25.1,25.1,0,0,1-1.87,3.67c.22,2.4.34,3.61-.7,4.82s-2.54,1.43-4.27,1.66l-.6.08a25.49,25.49,0,0,1-4.19,1.35l0,0-.39.27a6.67,6.67,0,0,1-3.26,1.5h-.26a5.77,5.77,0,0,1-3.31-1.38l-.33-.23-.07,0a21.77,21.77,0,0,1-3.63-1.19l-1-.38-.48-.09a6.64,6.64,0,0,1-3.37-1.24,5.52,5.52,0,0,1-1.55-3.48q0-.2-.06-.36c-.08-.16-.15-.32-.23-.47a13.31,13.31,0,0,1-2.27-3.5c-.1-.16-.28-.41-.47-.69-.31-.45-.56-.83-.8-1.19-3.37,3.29-10.16,6.27-14.94,8.09a9.24,9.24,0,0,1,.26,2,2.44,2.44,0,0,0,0,.27,12.29,12.29,0,0,1,1,2.26l.42.74.59.49c1.86,1.55,2.8,2.32,2.92,3.91s-.78,2.8-1.84,4.19l-.37.48a24.74,24.74,0,0,1-1.87,3.68c0,.55.09,1,.12,1.46a65.2,65.2,0,0,0,13.29,11,16.17,16.17,0,0,1,1.54-1.88c.2-.22.39-.43.53-.6a1.42,1.42,0,0,0,.08-.18,17.45,17.45,0,0,1,.69-2.49c0-.19.1-.49.16-.82.48-2.56.71-3.64,1.62-4.54,1.18-1.18,2.73-1.25,4.69-1.35l.8,0a24.43,24.43,0,0,1,3.1-1L126,92c1.49-1,2.58-1.68,3.93-1.68h.15a5.28,5.28,0,0,1,3.35,1.77.69.69,0,0,0,.13.11,15.17,15.17,0,0,1,3.79,1.35c.22.06.51.11.82.18,1.81.38,3.12.66,4.08,1.7A5.33,5.33,0,0,1,143.38,99a2.44,2.44,0,0,0,0,.27,12.29,12.29,0,0,1,1,2.26l.42.74.59.49a10.76,10.76,0,0,1,2.43,2.44,57.79,57.79,0,0,0,10.26-7.82,5.93,5.93,0,0,1-1.31-3.21l-.06-.36Z" fill="none"/>
          <path d="M71.74,93.89c-.08-.15-.15-.31-.23-.46a13.31,13.31,0,0,1-2.27-3.5c-.1-.16-.28-.41-.47-.69-1.47-2.15-2.06-3.08-2.06-4.36,0-1.66,1-2.81,2.36-4.28.2-.22.39-.43.53-.6a1.42,1.42,0,0,0,.08-.18,16.37,16.37,0,0,1,.7-2.49c0-.19.1-.49.16-.82.18-1,.33-1.71.49-2.33-4.23-2.78-8.39-6-11.42-8.46-.24.34-.5.69-.77,1l-.37.48a25.1,25.1,0,0,1-1.87,3.67c.22,2.4.34,3.61-.7,4.82s-2.54,1.43-4.27,1.66l-.6.08a25.49,25.49,0,0,1-4.19,1.35l0,0-.39.27a6.67,6.67,0,0,1-3.26,1.5h-.26a5.77,5.77,0,0,1-3.31-1.38L39.25,79l-.07,0a21.77,21.77,0,0,1-3.63-1.19l-1-.38-.48-.09a6.64,6.64,0,0,1-3.37-1.24,5.52,5.52,0,0,1-1.55-3.48l-.06-.36c-.08-.16-.15-.32-.23-.47a13.31,13.31,0,0,1-2.27-3.5c-.1-.16-.28-.41-.47-.69l-.09-.13A147,147,0,0,1,13,74.17a8.11,8.11,0,0,1,.37,2.34,2.44,2.44,0,0,0,0,.27,12.29,12.29,0,0,1,1,2.26l.42.74.59.49c1.86,1.55,2.8,2.32,2.92,3.91s-.78,2.8-1.84,4.19l-.37.48a24.74,24.74,0,0,1-1.87,3.68c.09.91.13,1.62.13,2.25,3.54,3.13,7.94,6.47,11.51,9.07.21-.24.42-.49.66-.75s.39-.43.53-.6a1.42,1.42,0,0,0,.08-.18,16.37,16.37,0,0,1,.7-2.49c0-.19.1-.49.16-.82.48-2.56.71-3.64,1.62-4.54,1.18-1.18,2.73-1.25,4.69-1.35l.8,0a24.43,24.43,0,0,1,3.1-1l.25-.17c1.49-1,2.57-1.68,3.93-1.68h.15A5.28,5.28,0,0,1,45.8,92a.69.69,0,0,0,.13.11,15.17,15.17,0,0,1,3.79,1.35c.22.06.51.11.82.18,1.81.38,3.12.66,4.08,1.7A5.38,5.38,0,0,1,55.74,99a2.44,2.44,0,0,0,0,.27,12.29,12.29,0,0,1,1,2.26l.42.74.59.49c.46.38.86.71,1.21,1a101.48,101.48,0,0,0,13.48-7.35,8.48,8.48,0,0,1-.65-2.26l-.06-.36Z" fill="none"/>
          <path d="M75.16,95.2a6.14,6.14,0,0,1-.4-1.48l0-.11,0-.28-.08-.43-.2-.39-.18-.37-.19-.4-.3-.33A10,10,0,0,1,72,88.62l-.08-.17-.1-.16-.41-.6-.11-.17c-1-1.53-1.53-2.29-1.53-2.65s.57-1.15,1.58-2.26l.15-.16.46-.52.26-.31.17-.37.08-.17.16-.36.07-.38a12.85,12.85,0,0,1,.57-2l.06-.18,0-.18c0-.17.09-.42.14-.71l0-.21c.16-.85.3-1.59.44-2.12l.55-2.09-1.8-1.19c-4.25-2.79-8.42-6-11.18-8.28l-2.51-2L57.17,64c-.21.31-.45.62-.7.94l-.11.14-.31.41-.2.27-.13.31a22,22,0,0,1-1.66,3.26l-.53.86.09,1c.18,2,.18,2.39,0,2.59s-1.09.46-2.39.64l-.17,0-.51.07-.34.05-.31.13a23.19,23.19,0,0,1-3.71,1.2l-.29.06-.27.12-.22.1-.24.15-.35.23-.1.07a5.66,5.66,0,0,1-1.76,1h-.05a3.71,3.71,0,0,1-1.59-.84l-.1-.07A2.11,2.11,0,0,0,41,76.5l-.31-.21-.35-.13-.2-.07L39.84,76a19.38,19.38,0,0,1-3.15-1l-.06,0-1-.38-.21-.08-.22-.05-.43-.08-.13,0a5.59,5.59,0,0,1-2-.55c-.28-.25-.4-.83-.57-1.76l0-.11-.05-.28L32,71.23l-.2-.39-.18-.36-.19-.4-.3-.33A10,10,0,0,1,29.35,67l-.08-.17-.1-.16-.4-.6-.12-.17-.09-.13L27,63.41l-2.42,1.44c-4.38,2.58-9.39,5-12.82,6.55l-2.5,1.15.91,2.59a6.08,6.08,0,0,1,.21,1.49v.27l0,.7.35.62a8.26,8.26,0,0,1,.71,1.69l.1.32.17.29.36.66.27.5.44.37c.12.1.26.21.4.34l.21.17c1.52,1.26,1.83,1.56,1.85,1.84s-.45,1.09-1.24,2.13l-.1.13-.31.41-.2.28-.13.31a22.12,22.12,0,0,1-1.66,3.27l-.53.86.09,1a18.44,18.44,0,0,1,.11,1.95v1.37l1,.9c3,2.67,7,5.78,11.73,9.26l2.22,1.62,1.81-2.08.62-.7.15-.16.46-.52.26-.31.17-.37.08-.16.16-.35.07-.39a12.85,12.85,0,0,1,.57-2l.06-.18,0-.18c0-.17.09-.42.14-.71l0-.21c.34-1.83.53-2.71.79-3s1.22-.41,2.72-.48h.22l.69,0,.4,0,.38-.14A22.44,22.44,0,0,1,38.82,95l.52-.12.45-.29.21-.14,0,0a6.09,6.09,0,0,1,2.29-1.19h0c.34,0,.73.33,1.47,1l.06.05.07.06.6.54.79.17a11.88,11.88,0,0,1,3,1.09l.3.16.33.08.72.16.21,0a5.75,5.75,0,0,1,2.48.79c.23.25.28.76.33,1.77v.28l0,.7.35.62a8.5,8.5,0,0,1,.71,1.69l.1.32.17.29.36.65.27.51.44.37c.13.11.27.23.43.35l.19.16c.43.35.8.66,1.13,1l1.45,1.3,1.77-.8A108.53,108.53,0,0,0,74.07,99l2.23-1.45-1.16-2.39ZM59,103.86c-.35-.31-.75-.64-1.21-1l-.59-.49c-.14-.26-.27-.5-.42-.74a11.64,11.64,0,0,0-1-2.26,2.44,2.44,0,0,0,0-.27,5.33,5.33,0,0,0-1.12-3.65c-1-1-2.27-1.32-4.08-1.7-.31-.06-.6-.12-.82-.18A14.65,14.65,0,0,0,46,92.19a.69.69,0,0,0-.13-.11,5.28,5.28,0,0,0-3.35-1.77h-.15c-1.35,0-2.43.7-3.93,1.68l-.25.17a24.43,24.43,0,0,0-3.1,1l-.8,0c-2,.1-3.51.17-4.69,1.35-.91.91-1.14,2-1.62,4.54-.06.34-.12.63-.16.82a16.06,16.06,0,0,0-.7,2.49l-.08.18c-.14.17-.33.38-.53.6s-.45.5-.66.75c-3.57-2.6-8-6-11.51-9.07,0-.63,0-1.34-.13-2.25a25.24,25.24,0,0,0,1.87-3.68c.1-.14.23-.3.37-.48,1.06-1.39,2-2.59,1.84-4.19s-1.06-2.36-2.92-3.91l-.59-.49c-.14-.26-.27-.5-.42-.74a11.64,11.64,0,0,0-1-2.26,2.44,2.44,0,0,0,0-.27A8.41,8.41,0,0,0,13,74.22a147,147,0,0,0,13.1-6.71l.09.13.47.69a12.9,12.9,0,0,0,2.27,3.5l.23.47q0,.17.06.36a5.42,5.42,0,0,0,1.55,3.48,6.61,6.61,0,0,0,3.37,1.24l.48.09,1,.38A22.4,22.4,0,0,0,39.24,79l.07,0,.33.23A5.74,5.74,0,0,0,43,80.67h.26a6.83,6.83,0,0,0,3.26-1.51l.39-.27,0,0a26.49,26.49,0,0,0,4.19-1.35l.6-.08c1.73-.23,3.23-.44,4.27-1.66s.92-2.41.7-4.82a25.62,25.62,0,0,0,1.87-3.67c.1-.14.23-.3.37-.48.27-.36.53-.7.77-1,3,2.46,7.19,5.67,11.42,8.46-.16.61-.31,1.36-.49,2.33-.06.34-.12.63-.16.82a16.06,16.06,0,0,0-.7,2.49l-.08.18c-.14.17-.33.38-.53.6-1.32,1.46-2.36,2.61-2.36,4.28,0,1.29.59,2.21,2.06,4.36l.47.69a12.9,12.9,0,0,0,2.27,3.5l.23.46q0,.16.06.36a8.48,8.48,0,0,0,.65,2.26A102,102,0,0,1,59,103.9Z" fill="#fff"/>
          <path d="M160.3,95.4a3.77,3.77,0,0,1-.54-1.69v-.08l-.07-.3-.08-.44-.21-.4-.18-.36-.19-.4-.3-.33A10,10,0,0,1,157,88.61l-.08-.17-.1-.16-.41-.61-.11-.16c-1-1.53-1.53-2.29-1.53-2.65s.57-1.15,1.58-2.26l.14-.16c.18-.19.34-.37.47-.53l.26-.31.17-.37,0-.07,0-.11.16-.36.07-.38a12.85,12.85,0,0,1,.57-2l.06-.18,0-.18c0-.17.08-.41.14-.7l0-.22a14.8,14.8,0,0,1,.68-2.8l1.25-2.38-2.22-1.51A63.43,63.43,0,0,1,149.74,63L147,60.28l-2,3.28a13,13,0,0,1-.93,1.34L144,65l-.31.41-.2.28-.13.31a23,23,0,0,1-1.66,3.26l-.53.86.09,1c.18,2,.18,2.38,0,2.59s-1.09.46-2.39.64l-.17,0-.51.07-.34,0-.32.13a23.19,23.19,0,0,1-3.71,1.2l-.29.06-.27.12-.22.1-.24.15-.35.23-.1.07a5.66,5.66,0,0,1-1.76,1h0a3.71,3.71,0,0,1-1.59-.84l-.1-.07-.27-.19-.31-.21-.35-.13-.2-.08-.24-.06a19.38,19.38,0,0,1-3.15-1l-.07,0-1-.37-.21-.08-.21,0-.42-.08-.13,0a5.59,5.59,0,0,1-2-.55c-.27-.24-.38-.74-.57-1.76l0-.12,0-.27-.08-.43-.2-.39-.18-.37-.19-.4-.3-.33A10,10,0,0,1,117,66.93l-.08-.17-.1-.16c-.09-.15-.24-.36-.4-.6l-.12-.18c-.3-.43-.54-.79-.76-1.14l-2-3.07L111,64.17c-2.31,2.26-7.25,4.89-13.91,7.42l-2.54,1,.71,2.62a7.83,7.83,0,0,1,.16,1.39v.28l0,.7.35.61a8.5,8.5,0,0,1,.71,1.69l.1.32.17.29c.12.21.24.44.36.66l.27.51.44.37.41.34.2.16c1.52,1.25,1.83,1.56,1.85,1.84s-.45,1.09-1.24,2.13l-.1.14-.31.41-.2.27-.13.31a22.12,22.12,0,0,1-1.66,3.27l-.53.86.09,1c0,.51.09,1,.11,1.36l.06,1,.7.78A68.47,68.47,0,0,0,111,107.45l2.47,1.57,1.63-2.43a12.41,12.41,0,0,1,1.28-1.55l.16-.17.46-.51.26-.31.17-.36,0-.1,0-.08.16-.35.07-.38a12.85,12.85,0,0,1,.57-2l.06-.17,0-.18c0-.18.09-.43.14-.73l0-.19c.34-1.83.53-2.71.79-3s1.22-.41,2.72-.48h.22L123,96l.4,0,.38-.14A22.44,22.44,0,0,1,126.5,95l.52-.12.45-.29,0,0,.21-.14A6.09,6.09,0,0,1,130,93.18h0c.34,0,.73.33,1.47,1l.08.07,0,0,.6.54L133,95a11.88,11.88,0,0,1,3,1.09l.3.16.33.08.73.16.21,0a5.75,5.75,0,0,1,2.48.79c.23.25.28.76.33,1.77v.28l0,.7.35.62a8.26,8.26,0,0,1,.71,1.69l.1.32.17.29.36.65.27.5.44.37.42.35.2.16a9.77,9.77,0,0,1,1.77,1.69l1.49,2.49,2.54-1.4a62.2,62.2,0,0,0,10.84-8.23l2.23-2.06L160.3,95.3Zm-12.44,9.87a10.56,10.56,0,0,0-2.43-2.44l-.59-.49c-.14-.26-.27-.5-.42-.74a11.64,11.64,0,0,0-1-2.26,2.44,2.44,0,0,0,0-.27,5.33,5.33,0,0,0-1.12-3.65c-1-1-2.27-1.32-4.08-1.7-.31-.06-.6-.12-.82-.18a14.65,14.65,0,0,0-3.79-1.35.69.69,0,0,0-.13-.11,5.28,5.28,0,0,0-3.35-1.77H130c-1.35,0-2.43.7-3.93,1.68l-.25.17a24.43,24.43,0,0,0-3.1,1l-.8,0c-2,.1-3.51.17-4.69,1.35-.91.91-1.14,2-1.62,4.54-.06.34-.12.63-.16.82a14.89,14.89,0,0,0-.69,2.49l-.08.18c-.14.17-.33.38-.53.6a17.06,17.06,0,0,0-1.54,1.88A65.2,65.2,0,0,1,99.33,94c0-.44-.07-.91-.12-1.46a25.24,25.24,0,0,0,1.87-3.68c.1-.14.23-.3.37-.48,1.06-1.39,2-2.59,1.84-4.19s-1.06-2.36-2.92-3.91l-.59-.49c-.14-.26-.27-.5-.42-.74a11.64,11.64,0,0,0-1-2.26,2.44,2.44,0,0,0,0-.27,9.17,9.17,0,0,0-.26-2c4.78-1.81,11.57-4.8,14.94-8.09.23.36.49.74.8,1.19.19.28.37.53.47.69a12.9,12.9,0,0,0,2.27,3.5l.23.47.06.36a5.42,5.42,0,0,0,1.55,3.48,6.61,6.61,0,0,0,3.37,1.24l.48.09,1,.38A22.4,22.4,0,0,0,126.91,79l.07,0,.33.23a5.74,5.74,0,0,0,3.31,1.38h.26a6.83,6.83,0,0,0,3.26-1.51l.39-.27,0,0a26.49,26.49,0,0,0,4.19-1.35l.6-.08c1.73-.23,3.23-.44,4.27-1.66s.92-2.41.7-4.82a25.62,25.62,0,0,0,1.87-3.67c.1-.14.23-.3.37-.48a16,16,0,0,0,1.11-1.6,69.81,69.81,0,0,0,8.91,7.69,13.32,13.32,0,0,0-1,3.64c-.06.34-.12.63-.16.82a16.06,16.06,0,0,0-.7,2.49l-.08.18c-.14.17-.33.38-.54.6-1.32,1.46-2.36,2.61-2.36,4.28,0,1.29.59,2.21,2.06,4.36l.47.69a12.9,12.9,0,0,0,2.27,3.5c.07.15.15.31.23.46s0,.23.06.36a5.9,5.9,0,0,0,1.31,3.21,57.79,57.79,0,0,1-10.26,7.82Z" fill="#fff"/>
        </g>
        <rect x="0.01" y="34.56" width="170" height="8.11" fill="#fff"/>
        <rect x="0.01" y="127.34" width="170" height="8.11" fill="#fff"/>
      </g>
    </g>
  </g>
</svg>
