<svg xmlns="http://www.w3.org/2000/svg" width="170.02" height="170.02" viewBox="0 0 170.02 170.02">
  <g id="Camada_2" data-name="Camada 2">
    <g id="Camada_1-2" data-name="Camada 1">
      <g id="Camada_2-2" data-name="Camada 2">
        <g id="_1" data-name="1">
          <polygon points="157.6 169.99 0.1 169.99 0.1 88.6 0.1 12.27 157.6 12.27 157.6 169.99" fill="#fff"/>
        </g>
        <g id="_2" data-name="2">
          <path d="M76.27,99.91s9.21,3.07,19-5.4c0,0,16.59-9.58,26.53-2.76,0,0,3.13-10-16.21-10.69,0,0,4.79-9.58,4.42-15.66a18.94,18.94,0,0,0-16.4,4.23S89.37,55.73,78,57.25c0,0,5,13.81-2.76,23.62,0,0-8.71,8.57-3.6,14.78L50.41,115.42s-5.39-2.08,0-8.3c0,0,9.54-9.26,8.57-20.79,0,0-5.25-20.1-1.66-25.49,0,0-8.29,1.25-8.29,5.81,0,0-9.54-4.29-16.16-3.32,0,0-3,2.77,2.35,11,0,0-6.78,3.59-7.19,7.18,0,0,19.48,1,18.65,22.52,0,0-4.56,8.3-1,16.31L30.41,134.32a39.05,39.05,0,0,0-7.45-4.8A41.8,41.8,0,0,0,9.4,125.61a49.17,49.17,0,0,0-9.3-.36c0,3.76,0,7.51,0,11.26,10.35-2,20.6,2.67,25.33,11.22,5.84,10.58.14,21.53-.27,22.29l13.92,0a31.63,31.63,0,0,0,2.64-15.57A29.39,29.39,0,0,0,39,144.35a27.12,27.12,0,0,0-4.4-6.35l14.83-13.29s6.08,2.21,19.89-1.47c0,0,21.74-2.76,23,19.35,0,0,7.37-2.77,9.22-9.4,0,0,7.18,6.82,14,5,0,0,2-6.64-4.24-13.83,0,0,7.73-2.75,7.37-12.52,0,0-7.55,1.48-19.34-.37a55.28,55.28,0,0,0-37.39,10.14s-6.82,2.57-4.24-3.5Z" fill="#231f20"/>
          <rect x="0.1" y="157.69" width="8.91" height="12.3" fill="#231f20"/>
          <path d="M137.12,163.17a51.4,51.4,0,0,1,5.81-5.12c1.79-1.35,3-2.07,3.42-3.56a5.66,5.66,0,0,0-1.08-4.41c-2.38.64-4.76,1.3-7.15,2q-12.84,3.59-25.3,7.33a85.8,85.8,0,0,0,18.41-16.58c3.71-4.48,12.37-15.17,16.2-30.59,8.56-34.5-14.46-63-16.49-65.48A64.22,64.22,0,0,0,108.2,28.66a73.88,73.88,0,0,0-28.45-5.8C43.3,23,13.19,58.74,10.1,62.51,9.21,49,25,26.07,25,26.07c-12,.09-16.76,7.09-16.76,7.09C7.66,30,.1,25.7.1,25.7q0,43.74-.1,87.48A15.22,15.22,0,0,0,5.44,109,14.85,14.85,0,0,0,8.09,104a14.73,14.73,0,0,0,6.43,3.17,15,15,0,0,0,9-.91A43.29,43.29,0,0,1,13.25,90.68C22.13,55.1,51.08,31.86,79.78,33.14c27,1.2,43.65,23.67,45.69,26.52,1.7,2.38,22.59,32.66,6.6,63.9-9.81,19.16-29.78,31.44-51.92,32.28-2.66-1.4-5.53-2.8-8.6-4.15a133.56,133.56,0,0,0-13.94-5.21,21.83,21.83,0,0,0,7.56,14A60.22,60.22,0,0,0,50.27,170l88.16-.14a6.82,6.82,0,0,0,5.08-2.29c.35-.44,1.46-1.81,1.08-2.93C144.09,163.18,141.09,162.46,137.12,163.17Z" fill="#231f20"/>
          <g>
            <rect x="0.03" width="157.57" height="12.27" fill="#231f20"/>
            <rect x="153.91" width="16.11" height="169.96" fill="#231f20"/>
          </g>
        </g>
      </g>
    </g>
  </g>
</svg>
