<svg xmlns="http://www.w3.org/2000/svg" width="100%" viewBox="0 0 170 170">
  <g id="Camada_2" data-name="Camada 2">
    <g id="Camada_1-2" data-name="Camada 1">
      <g id="Camada_2-2" data-name="Camada 2">
        <g id="Camada_1-2-2" data-name="Camada 1-2">
          <g id="_1" data-name=" 1">
            <polygon points="170 170 0 170 0 82.27 0 40.48 0 0 41.51 0 170 0 170 170" fill="#231f20"/>
          </g>
          <g id="_2" data-name=" 2">
            <path d="M0,110.56H0A24.54,24.54,0,0,0,23.74,92.18h-.52a6,6,0,0,1,0-12h.52A24.51,24.51,0,0,0,0,61.78H0Z" fill="#939598"/>
            <path d="M146.07,81.05a6.17,6.17,0,0,1,2.35,8.09,5.83,5.83,0,0,1-2.35,2.49A24.53,24.53,0,0,0,170,110.88V61.78A24.53,24.53,0,0,0,146.07,81.05Z" fill="#939598"/>
            <ellipse cx="83.83" cy="86.2" rx="24.52" ry="24.42" fill="#939598"/>
            <rect width="170" height="20.1" fill="#939598"/>
            <rect y="149.9" width="170" height="20.1" fill="#939598"/>
          </g>
          <g id="_3" data-name=" 3">
            <rect y="20.1" width="170" height="17.59" fill="#fff"/>
            <rect y="131.15" width="170" height="18.75" fill="#fff"/>
            <path d="M146.07,91.65a6,6,0,0,0,2.35-8,5.85,5.85,0,0,0-2.35-2.45,24.45,24.45,0,0,1,23.93-19V51.12a35.61,35.61,0,0,0-35.22,29.35H119.05a35.81,35.81,0,0,0-70.44,0H35.23A35.63,35.63,0,0,0,0,51.12H0V62.23H0A24.5,24.5,0,0,1,23.74,80.47h-.52a6,6,0,0,0,0,11.93h.52A24.49,24.49,0,0,1,0,110.64H0v11.11H0A35.61,35.61,0,0,0,35.22,92.4H48.6a35.78,35.78,0,0,0,70.4,0h15.73A35.61,35.61,0,0,0,170,121.75V110.64a24.45,24.45,0,0,1-23.93-19Zm-38.49.64A24.57,24.57,0,0,1,60,92.07a6,6,0,0,0,3.71-7.4A5.75,5.75,0,0,0,60,80.8a24.56,24.56,0,0,1,47.58-.24,5.89,5.89,0,0,0-4.89,6.66,5.81,5.81,0,0,0,4.89,5.09Z" fill="#fff"/>
          </g>
        </g>
      </g>
    </g>
  </g>
</svg>
