<svg xmlns="http://www.w3.org/2000/svg" width="170" height="170" viewBox="0 0 170 170">
  <g id="Camada_2" data-name="Camada 2">
    <g id="Camada_1-2" data-name="Camada 1">
      <g id="_1" data-name="1">
        <polygon points="170 170 0 170 0 82.27 0 40.48 0 0 41.51 0 170 0 170 170" fill="#231f20"/>
      </g>
      <g id="_2" data-name="2">
        <path d="M0,108.22H0c11.45,0,21-7.45,23.74-17.5h-.52a5.72,5.72,0,1,1,0-11.44h.52C21,69.22,11.45,61.78,0,61.78H0Z" fill="#939598"/>
        <path d="M146.07,80a5.66,5.66,0,0,1,0,10c2.43,10.41,12.21,18.2,23.93,18.2V61.78C158.28,61.78,148.5,69.57,146.07,80Z" fill="#939598"/>
        <ellipse cx="83.83" cy="85" rx="24.52" ry="23.22" fill="#939598"/>
        <rect width="170" height="20.1" fill="#939598"/>
        <rect y="149.9" width="170" height="20.1" fill="#939598"/>
      </g>
      <g id="_3" data-name="3">
        <rect y="20.1" width="170" height="17.59" fill="#fff"/>
        <rect y="131.15" width="170" height="18.75" fill="#fff"/>
        <path d="M146.07,90a5.66,5.66,0,0,0,0-10c2.43-10.41,12.21-18.2,23.93-18.2V51.12c-17.69,0-32.35,12.17-35.22,28.16H119.05c-2.88-16-17.53-28.16-35.22-28.16S51.48,63.29,48.61,79.28H35.23C32.35,63.29,17.69,51.12,0,51.12H0V61.78H0c11.45,0,21,7.45,23.74,17.5h-.52a5.72,5.72,0,1,0,0,11.44h.52C21,100.78,11.45,108.22,0,108.22H0v10.66H0c17.69,0,32.35-12.17,35.22-28.16H48.6c2.88,16,17.53,28.16,35.22,28.16S116.17,106.71,119,90.72h15.73c2.88,16,17.53,28.16,35.22,28.16V108.22c-11.72,0-21.5-7.79-23.93-18.2Zm-38.49.62c-2.66,10.1-12.28,17.58-23.76,17.58S62.58,100.62,60,90.41a5.67,5.67,0,0,0,0-10.82c2.58-10.21,12.25-17.81,23.82-17.81s21.09,7.49,23.76,17.58a5.69,5.69,0,0,0,0,11.28Z" fill="#fff"/>
      </g>
    </g>
  </g>
</svg>
