<svg xmlns="http://www.w3.org/2000/svg" width="100%" viewBox="0 0 170.01 170.02">
  <g id="Camada_2" data-name="Camada 2">
    <g id="Camada_1-2" data-name="Camada 1">
      <rect id="_1" data-name="1" y="37.85" width="131.16" height="132.15" fill="#231f20"/>
      <g id="_2" data-name="2">
        <path d="M92.73,136.87v6.33c0,4.17-3,7.55-6.63,7.55s-6.63-3.38-6.63-7.55v-6.33c-12.7,3.55-22.16,17-22.16,33.13H114.9c0-16.11-9.46-29.58-22.16-33.13Z" fill="#939598"/>
        <path d="M33.2,92.41H30.36a6.24,6.24,0,1,1,0-12.44h3.55C31.56,66.72,19.55,56.62,5,56.62a32.13,32.13,0,0,0-5,.43v55.26a30.77,30.77,0,0,0,5,.44c13.38,0,24.66-8.61,28.16-20.35Z" fill="#939598"/>
        <path d="M87,107.33a6.51,6.51,0,0,1,6.43,6.59v1.35c12.33-3.09,21.5-14.83,21.5-28.87,0-16.41-12.51-29.7-27.94-29.7-13.79,0-25.22,10.63-27.5,24.6h1.81a6.59,6.59,0,0,1,0,13.17H60.07c2.74,10.3,10.57,18.32,20.43,20.8v-1.35a6.51,6.51,0,0,1,6.43-6.59Z" fill="#939598"/>
        <rect y="149.91" width="20.11" height="20.09" fill="#939598"/>
        <g>
          <rect x="0.01" width="170" height="20.1" fill="#939598"/>
          <rect x="149.91" y="20.1" width="20.1" height="149.92" fill="#939598"/>
        </g>
      </g>
      <g id="_3" data-name="3">
        <path d="M93.08,135.48V120.77c15.85-2.78,28-17.16,28-34.52,0-19.36-15-35-33.53-35-17.11,0-31.19,13.4-33.25,30.71H37.42C35.4,64.57,21.3,51.12,4.16,51.12a33.8,33.8,0,0,0-4.16.3v9.82a23.75,23.75,0,0,1,4.16-.4c12,0,21.92,9.12,23.86,21.08H25.09a5.61,5.61,0,0,0,0,11.22h2.35c-2.9,10.6-12.21,18.36-23.28,18.36A23.93,23.93,0,0,1,0,111.11v9.82a33.66,33.66,0,0,0,4.16.3c16.23,0,29.77-12.07,32.86-28.09H54.63c2.71,14.18,13.59,25.24,27.28,27.63v14.71C66.06,138.26,54,152.63,54,170h9.29c0-12,8-22,18.65-24.63v4.71a5.58,5.58,0,1,0,11.16,0v-4.71C103.76,148,111.72,158,111.72,170H121c0-17.37-12.09-31.74-27.95-34.52ZM64.2,93.13h1a5.61,5.61,0,0,0,0-11.22H63.65c2-11.92,11.89-21,23.85-21,13.38,0,24.23,11.34,24.23,25.33,0,12-8,22-18.64,24.63v-1.16a5.58,5.58,0,1,0-11.16,0v1.16A24.73,24.73,0,0,1,64.22,93.13Z" fill="#fff"/>
        <g>
          <rect x="0.01" y="131.15" width="37.69" height="18.76" fill="#fff"/>
          <rect x="20.11" y="149.91" width="17.59" height="20.11" fill="#fff"/>
        </g>
        <g>
          <rect x="0.01" y="20.1" width="149.9" height="17.75" fill="#fff"/>
          <rect x="131.16" y="37.85" width="18.75" height="132.17" fill="#fff"/>
        </g>
      </g>
    </g>
  </g>
</svg>
