<svg xmlns="http://www.w3.org/2000/svg" width="170.02" height="170.02" viewBox="0 0 170.02 170.02">
  <g id="Camada_2" data-name="Camada 2">
    <g id="Camada_1-2" data-name="Camada 1">
      <g id="Camada_2-2" data-name="Camada 2">
        <g id="Camada_1-2-2" data-name="Camada 1-2">
          <g id="_1" data-name=" 1">
            <polygon points="169.95 170.02 0 170.02 0 82.28 0 40.48 0 0 41.5 0 169.95 0 169.95 170.02" fill="#fff"/>
          </g>
          <g id="_2" data-name=" 2">
            <g>
              <rect y="157.75" width="169.95" height="12.27" fill="#231f20"/>
              <rect width="169.95" height="12.27" fill="#231f20"/>
              <path d="M6.42,107.65A21.27,21.27,0,0,0,14,111.86c5.23,1.49,8.25-.81,8.25-.81-4.58-4.44-10.25-15.91-10-23.11,2-29.42,40.89-59.64,73.5-59.6,0,0,55.66-1.53,71.55,54.87a21.33,21.33,0,0,1-.06,12.21c-1.9,6.08-5.6,12.54-8.78,15.63,0,0,3,2.3,8.25.81a21.23,21.23,0,0,0,7.59-4.21,10.33,10.33,0,0,0,2.83,4.48,11.44,11.44,0,0,0,2.83,1.09V25.45c-3,2.85-6.77,7-7.54,10.46,0,0-4.42-6.41-15.44-6.48,0,0,14.54,21,13.74,33.37C136.13,12.27,83.16,16.22,83.16,16.22,42,18,21.78,41.29,10,62.81c-.8-12.4,13.74-33.37,13.74-33.37-11,.07-15.44,6.48-15.44,6.48C7.47,32.14,3.1,27.58,0,24.75v88.7a14.71,14.71,0,0,0,3.59-1.31,10.28,10.28,0,0,0,2.83-4.48Z" fill="#231f20"/>
              <path d="M128.27,125.05l-1-.54a23.87,23.87,0,0,0-9.18-2.92,25.82,25.82,0,0,0-11.83,1.67,22.19,22.19,0,0,0-6.1,3.72,29.44,29.44,0,0,1-13.41,6.25l.07-11.9s5.84-2.49,12.55-14.7c0,0,12.84-16.92,30.41-1.19,0,0,3-7.12-.77-13.36,0,0,10.08.22,13.37-5.83,0,0-3.62-6.36-13.35-7.49,0,0,3.23-7.36-4.4-14.45,0,0-4.07,6.27-13.55,12.94,0,0-15.26,10.74-18,33.16,0,0-2.73,6.6-5.55.27L86.4,90.92s8.64-4,8.94-17c0,0,4.15-18.53,16.13-20.2,0,0-5.36-9.61-19.2,3,0,0-4-10.46-8.78-14.78a17,17,0,0,0-8.06,14.39S62,48.77,55.38,57.66c0,0,13.85,7,15.95,19.64,0,0,.49,12.39,8.7,13.56l.46,22.79s-5.27,2.11-6.26-6.23c0,0-.45-13.48-9.82-21.48,0,0-18.78-11.53-20.38-18,0,0-4.75,6.59-1.31,10,0,0-9.78,3.29-13.6,8.55,0,0,0,4.15,10,6.71,0,0-1.94,7.32.49,10.31,0,0,14.1-12.59,29.81,4.18,0,0,3.13,9.34,11.65,12.91v12.94c-4.95-.27-10.56-2-16.6-6.41,0,0-12-9.16-29.65.85,0,0-17,8.81-34.79-1.65v13.93c9.56,4.36,24.85,7.86,40.41-2.95,0,0,15.13-11,31.06,3.29,0,0,15.6,12.32,29.19-1.22,0,0,16-14.91,31.07-3.52a32.49,32.49,0,0,0,10.62,5.54c6.72,1.94,16.56,2.91,25-3.73a30.14,30.14,0,0,1,2.65-1.51V125.3c-12.53,6.66-29.1,6.42-41.68-.22Z" fill="#231f20"/>
            </g>
          </g>
        </g>
      </g>
    </g>
  </g>
</svg>
