<svg xmlns="http://www.w3.org/2000/svg" width="170.02" height="170.02" viewBox="0 0 170.02 170.02">
  <g id="Camada_2" data-name="Camada 2">
    <g id="Camada_1-2" data-name="Camada 1">
      <g id="Camada_2-2" data-name="Camada 2">
        <g id="Camada_1-2-2" data-name="Camada 1-2">
          <g id="Camada_2-2-2" data-name="Camada 2-2">
            <g id="Camada_1-2-2-2" data-name="Camada 1-2-2">
              <g id="Camada_2-2-2-2" data-name="Camada 2-2-2">
                <g id="Camada_1-2-2-2-2" data-name="Camada 1-2-2-2">
                  <g id="_1" data-name=" 1" fill="#231f20">
                    <rect x="0.02" y="135.45" width="169.89" height="11.78" />
                    <rect x="0.02" y="22.79" width="169.89" height="11.78" />
                    <path d="M114.51,104.31a22.45,22.45,0,0,1,2.31-4.29,27.44,27.44,0,0,1-.2-3.51c.32-.37,2.88-.51,3.33-.7a22.87,22.87,0,0,1,4.18-1.34l.54-.24A17.3,17.3,0,0,1,127,92.82h0c.46,0,1.89,1.24,2.31,1.35a1.85,1.85,0,0,1,.5.17,30.32,30.32,0,0,1,4.45,1.52,16.17,16.17,0,0,1,2.67.62c.33.29.47,2.23.69,2.61s.36.72.54,1.07a9.72,9.72,0,0,1,2.1,3.15c.19.4,2.14,3,2.14,3.47s-2.22,2.64-2.47,3.19l-.4.86a11.79,11.79,0,0,1-.66,2.48,34.12,34.12,0,0,1-.93,4c-.3.34-3.44.3-4,.51a19.11,19.11,0,0,1-3.47,1,14.78,14.78,0,0,1-2.89,1.65h0c-.42,0-1.69-1.45-2.19-1.68a11.73,11.73,0,0,1-3.86-1.29c-.5-.27-3.37-.64-3.75-1s-.15-2.47-.4-2.84a8.18,8.18,0,0,1-1.06-2.42c-.26-.42-.51-.89-.79-1.43-.13-.26-2.86-2.32-2.88-2.6,0-.49,1.67-2.41,1.86-2.86Z"/>
                    <path d="M27,104.31A21.69,21.69,0,0,1,29.22,100a25.73,25.73,0,0,1-.2-3.51c.32-.37,2.88-.51,3.33-.7a22.62,22.62,0,0,1,4.18-1.34l.54-.24A17.82,17.82,0,0,1,39.4,92.8h0c.46,0,1.89,1.24,2.31,1.35a1.64,1.64,0,0,1,.5.17,30.44,30.44,0,0,1,4.46,1.52,17.4,17.4,0,0,1,2.65.66c.33.29.47,2.23.69,2.61s.36.72.54,1.07a9.72,9.72,0,0,1,2.1,3.15c.19.4,2.13,3,2.13,3.47s-2.21,2.64-2.46,3.2l-.4.86a11.79,11.79,0,0,1-.66,2.48,34.12,34.12,0,0,1-.93,4c-.3.34-3.44.3-4,.51a19.21,19.21,0,0,1-3.48,1A14,14,0,0,1,40,120.5h0c-.42,0-1.68-1.45-2.18-1.68a11.5,11.5,0,0,1-3.87-1.3c-.5-.27-3.37-.64-3.75-1s-.15-2.47-.4-2.84a8.18,8.18,0,0,1-1.06-2.42c-.26-.42-.52-.89-.8-1.43-.13-.26-2.86-2.32-2.88-2.6,0-.49,1.67-2.41,1.86-2.86Z"/>
                    <path d="M114.51,60.14a21.43,21.43,0,0,1,2.31-4.33,27.44,27.44,0,0,1-.2-3.51c.32-.37,2.88-.51,3.33-.7a22.87,22.87,0,0,1,4.18-1.34l.54-.24A17.3,17.3,0,0,1,127,48.61h0c.46,0,1.89,1.24,2.31,1.35a1.85,1.85,0,0,1,.5.17,30.32,30.32,0,0,1,4.45,1.52,17.11,17.11,0,0,1,2.65.66c.33.29.47,2.22.69,2.6s.36.73.54,1.08a9.72,9.72,0,0,1,2.1,3.15c.19.4,2.14,3,2.14,3.46s-2.22,2.65-2.47,3.2l-.4.86a11.79,11.79,0,0,1-.66,2.48,34.12,34.12,0,0,1-.93,4c-.3.34-3.44.3-4,.51a19.11,19.11,0,0,1-3.47,1,14.78,14.78,0,0,1-2.89,1.65h0c-.42,0-1.69-1.45-2.19-1.68a11.73,11.73,0,0,1-3.86-1.29c-.5-.27-3.37-.64-3.75-1s-.15-2.47-.4-2.84a8.73,8.73,0,0,1-1-2.52c-.26-.42-.51-.89-.79-1.43-.13-.26-2.86-2.33-2.88-2.61,0-.49,1.67-2.4,1.86-2.85Z"/>
                    <path d="M169.4,71.15a17.36,17.36,0,0,0-2.34,1.42l-.54.24a22.52,22.52,0,0,0-4.17,1.34c-.45.19-3,.33-3.33.7a24.09,24.09,0,0,0,.2,3.5,21.73,21.73,0,0,0-2.3,4.34c-.19.45-1.9,2.37-1.86,2.85,0,.29,2.75,2.35,2.88,2.6.28.55.54,1,.8,1.44a8.37,8.37,0,0,0,1,2.44c.24.37.1,2.51.4,2.83s3.24.77,3.74,1a11.73,11.73,0,0,0,3.86,1.29c.49.22,1.69,1.57,2.14,1.67V71.31a1.24,1.24,0,0,0-.49-.2h0Z"/>
                    <path d="M0,98.87H0a14.41,14.41,0,0,0,3-1.66,20.05,20.05,0,0,0,3.48-1c.56-.21,3.56-.09,4-.51s.79-3.55.93-4A11.15,11.15,0,0,0,12,89.21l.4-.86c.25-.55,2.46-2.59,2.47-3.19,0-.44-2-3.07-2.14-3.46a9.87,9.87,0,0,0-2.1-3.16c-.18-.36-.33-.72-.54-1.07s-.36-2.31-.69-2.6a17.28,17.28,0,0,0-2.64-.66,28.25,28.25,0,0,0-4.46-1.52,2.27,2.27,0,0,1-.5-.17c-.18,0-1.2-.81-1.81-1.16V98.87Z"/>
                    <path d="M27,60.14a21,21,0,0,1,2.32-4.33,25.73,25.73,0,0,1-.2-3.51c.32-.37,2.88-.51,3.33-.7a22.62,22.62,0,0,1,4.18-1.34l.54-.24a17.82,17.82,0,0,1,2.33-1.41h0c.46,0,1.89,1.24,2.31,1.35a1.64,1.64,0,0,1,.5.17,30.84,30.84,0,0,1,4.46,1.52,17.4,17.4,0,0,1,2.65.66c.33.29.47,2.22.69,2.6s.36.73.54,1.08a9.72,9.72,0,0,1,2.1,3.15c.19.4,2.13,3,2.13,3.46s-2.21,2.65-2.46,3.2l-.4.86a11.79,11.79,0,0,1-.66,2.48,34.12,34.12,0,0,1-.93,4c-.3.34-3.44.3-4,.51a19.21,19.21,0,0,1-3.48,1,14.07,14.07,0,0,1-2.85,1.62h0c-.42,0-1.68-1.45-2.18-1.68A11.74,11.74,0,0,1,34,73.35c-.5-.27-3.37-.64-3.75-1s-.15-2.47-.4-2.84a8.18,8.18,0,0,1-1.06-2.42c-.26-.42-.52-.89-.8-1.43-.13-.26-2.86-2.33-2.88-2.61,0-.49,1.67-2.4,1.86-2.85Z"/>
                    <path d="M72,82.69a21.06,21.06,0,0,1,2.32-4.34,27.28,27.28,0,0,1-.2-3.5c.32-.37,2.88-.51,3.33-.7a22.87,22.87,0,0,1,4.18-1.34l.54-.24a17.36,17.36,0,0,1,2.34-1.42h0c.46,0,1.88,1.25,2.3,1.36a1.85,1.85,0,0,1,.5.17,30,30,0,0,1,4.46,1.52,17.11,17.11,0,0,1,2.65.66c.33.29.47,2.22.69,2.6s.36.72.54,1.07a9.87,9.87,0,0,1,2.1,3.16c.19.4,2.14,3,2.14,3.46s-2.22,2.64-2.47,3.19l-.4.86a11.88,11.88,0,0,1-.66,2.49,34.12,34.12,0,0,1-.93,4c-.3.35-3.44.3-4,.51a18.22,18.22,0,0,1-3.48,1A14.75,14.75,0,0,1,85,98.86h0c-.42,0-1.69-1.46-2.19-1.69A11.82,11.82,0,0,1,79,95.89c-.5-.27-3.37-.64-3.75-1s-.15-2.46-.4-2.83a8.18,8.18,0,0,1-1.06-2.42c-.26-.43-.52-.9-.8-1.44-.13-.26-2.86-2.32-2.88-2.6,0-.49,1.67-2.4,1.86-2.85Z"/>
                  </g>
                  <g id="_2" data-name=" 2">
                    <path d="M2.34,72.68A30.84,30.84,0,0,1,6.8,74.2a17.28,17.28,0,0,1,2.64.66c.33.29.47,2.22.69,2.6s.36.72.54,1.07a9.87,9.87,0,0,1,2.1,3.16c.19.4,2.14,3,2.14,3.46s-2.22,2.64-2.47,3.19l-.4.86a10.77,10.77,0,0,1-.66,2.49,34.12,34.12,0,0,1-.93,4c-.3.35-3.43.3-4,.51A18,18,0,0,1,3,97.2C2.15,97.72.6,98.86.13,98.86h0v28.49H170V98.85c-.45-.1-1.66-1.45-2.14-1.67A11.73,11.73,0,0,1,164,95.89c-.5-.27-3.36-.64-3.74-1s-.15-2.46-.4-2.83a7.93,7.93,0,0,1-1.06-2.42c-.26-.43-.52-.9-.8-1.44-.13-.26-2.86-2.32-2.88-2.6,0-.49,1.67-2.4,1.86-2.85a21.06,21.06,0,0,1,2.32-4.34,24.09,24.09,0,0,1-.2-3.5c.32-.37,2.88-.52,3.32-.7a22.77,22.77,0,0,1,4.17-1.34l.54-.24a17.36,17.36,0,0,1,2.34-1.42h0a1.24,1.24,0,0,1,.49.2V42.69H0V71.36c.62.35,1.5,1.08,1.81,1.16s.33.12.5.17ZM114.52,60.15a20.94,20.94,0,0,1,2.31-4.33,27.44,27.44,0,0,1-.2-3.51c.32-.37,2.88-.52,3.33-.7a22.87,22.87,0,0,1,4.18-1.34l.54-.24A17.3,17.3,0,0,1,127,48.62h0c.46,0,1.89,1.24,2.31,1.35a1.85,1.85,0,0,1,.5.17,30.32,30.32,0,0,1,4.45,1.52,17.23,17.23,0,0,1,2.66.66c.33.29.47,2.22.69,2.6s.36.73.54,1.08a9.72,9.72,0,0,1,2.1,3.15c.19.4,2.14,3,2.14,3.46s-2.22,2.65-2.47,3.2l-.4.86a11.79,11.79,0,0,1-.66,2.48,34.12,34.12,0,0,1-.93,4c-.3.34-3.44.3-4,.51a18.13,18.13,0,0,1-3.47,1,14.78,14.78,0,0,1-2.89,1.65h0c-.42,0-1.69-1.45-2.19-1.68a11.73,11.73,0,0,1-3.86-1.29c-.5-.27-3.37-.64-3.75-1s-.15-2.47-.4-2.84a8.76,8.76,0,0,1-1.06-2.5c-.26-.42-.51-.89-.79-1.43-.13-.26-2.86-2.33-2.88-2.61,0-.49,1.67-2.4,1.86-2.85Zm0,44.17a21.2,21.2,0,0,1,2.31-4.3,27.44,27.44,0,0,1-.2-3.51c.32-.37,2.88-.52,3.33-.7a22.87,22.87,0,0,1,4.18-1.34l.54-.24A17.3,17.3,0,0,1,127,92.82h0c.46,0,1.89,1.24,2.31,1.35a1.85,1.85,0,0,1,.5.17,30.32,30.32,0,0,1,4.45,1.52,17.43,17.43,0,0,1,2.66.63c.33.29.47,2.23.69,2.61s.36.72.54,1.07a9.72,9.72,0,0,1,2.1,3.15c.19.4,2.14,3,2.14,3.47s-2.22,2.64-2.47,3.19l-.4.86a11.79,11.79,0,0,1-.66,2.48,34.12,34.12,0,0,1-.93,4c-.3.34-3.44.3-4,.51a19.11,19.11,0,0,1-3.47,1,14.78,14.78,0,0,1-2.89,1.65h0c-.42,0-1.69-1.45-2.19-1.68a11.73,11.73,0,0,1-3.86-1.29c-.5-.27-3.37-.64-3.75-1s-.15-2.47-.4-2.84a8.18,8.18,0,0,1-1.06-2.42c-.26-.42-.51-.89-.79-1.43-.13-.26-2.86-2.32-2.88-2.6,0-.49,1.67-2.41,1.86-2.86ZM72,82.7a21.06,21.06,0,0,1,2.32-4.34,27.28,27.28,0,0,1-.2-3.5c.32-.37,2.88-.52,3.33-.7a22.33,22.33,0,0,1,4.15-1.34l.54-.24a17.36,17.36,0,0,1,2.34-1.42h0c.46,0,1.88,1.25,2.3,1.36a1.64,1.64,0,0,1,.5.17,30,30,0,0,1,4.46,1.52,17.11,17.11,0,0,1,2.65.66c.33.29.47,2.22.69,2.6s.36.72.54,1.07a9.87,9.87,0,0,1,2.1,3.16c.19.4,2.14,3,2.14,3.46s-2.22,2.64-2.47,3.19l-.4.86a11.88,11.88,0,0,1-.66,2.49,34.12,34.12,0,0,1-.93,4c-.3.35-3.44.3-4,.51a18.22,18.22,0,0,1-3.48,1A14.75,14.75,0,0,1,85,98.87h0c-.42,0-1.69-1.46-2.19-1.69A11.89,11.89,0,0,1,79,95.9c-.5-.27-3.37-.64-3.75-1s-.15-2.46-.4-2.83a8.18,8.18,0,0,1-1.06-2.42c-.26-.43-.52-.9-.8-1.44-.13-.26-2.86-2.32-2.88-2.6,0-.49,1.67-2.4,1.86-2.85ZM27,60.15a21,21,0,0,1,2.32-4.33,25.73,25.73,0,0,1-.2-3.51c.32-.37,2.88-.52,3.33-.7a22.62,22.62,0,0,1,4.18-1.34l.54-.24a17.82,17.82,0,0,1,2.33-1.41h0c.46,0,1.89,1.24,2.31,1.35a1.64,1.64,0,0,1,.5.17,30.84,30.84,0,0,1,4.46,1.52,17.4,17.4,0,0,1,2.65.66c.33.29.47,2.22.69,2.6s.36.73.54,1.08a9.72,9.72,0,0,1,2.1,3.15c.19.4,2.13,3,2.13,3.46s-2.21,2.65-2.46,3.2l-.4.86a11.79,11.79,0,0,1-.66,2.48,34.12,34.12,0,0,1-.93,4c-.3.34-3.44.3-4,.51a18.22,18.22,0,0,1-3.48,1,13.49,13.49,0,0,1-3,1.67h0c-.42,0-1.68-1.45-2.18-1.68A11.85,11.85,0,0,1,34,73.36c-.5-.27-3.37-.64-3.75-1s-.15-2.47-.4-2.84a8.18,8.18,0,0,1-1.06-2.42c-.26-.42-.52-.89-.8-1.43-.13-.26-2.86-2.33-2.88-2.61,0-.49,1.67-2.4,1.86-2.85Zm0,44.17a21.08,21.08,0,0,1,2.28-4.3,25.73,25.73,0,0,1-.2-3.51c.32-.37,2.88-.52,3.33-.7a22.62,22.62,0,0,1,4.18-1.34l.54-.24a17.82,17.82,0,0,1,2.33-1.41h0c.46,0,1.89,1.24,2.31,1.35a1.64,1.64,0,0,1,.5.17,30.84,30.84,0,0,1,4.46,1.52,17.4,17.4,0,0,1,2.65.66c.33.29.47,2.23.69,2.61s.36.72.54,1.07a9.72,9.72,0,0,1,2.1,3.15c.19.4,2.13,3,2.13,3.47s-2.21,2.64-2.46,3.2l-.4.86a11.79,11.79,0,0,1-.66,2.48,34.12,34.12,0,0,1-.93,4c-.3.34-3.44.3-4,.51a19.21,19.21,0,0,1-3.48,1A15.5,15.5,0,0,1,40,120.51h0c-.42,0-1.68-1.45-2.18-1.68a11.5,11.5,0,0,1-3.87-1.3c-.5-.27-3.37-.64-3.75-1s-.15-2.47-.4-2.84a8.18,8.18,0,0,1-1.06-2.42c-.26-.42-.52-.89-.8-1.43-.13-.26-2.86-2.32-2.88-2.6,0-.49,1.67-2.41,1.86-2.86Z" fill="#939598"/>
                    <path d="M22.16,64.75a10.19,10.19,0,0,0,2.42,2.44l.59.49c.14.26.27.5.42.74a12.33,12.33,0,0,0,1,2.26V71a5.35,5.35,0,0,0,1.12,3.65c1,1,2.27,1.32,4.08,1.7.31.06.6.12.82.18a14.52,14.52,0,0,0,3.79,1.35.69.69,0,0,0,.13.11,5.32,5.32,0,0,0,3.34,1.77H40c1.35,0,2.43-.7,3.93-1.68l.25-.17a23.83,23.83,0,0,0,3.1-1h.8c2-.1,3.51-.17,4.69-1.35.91-.91,1.14-2,1.61-4.54l.16-.82a15.31,15.31,0,0,0,.69-2.49l.08-.18c.14-.17.33-.38.53-.6A15.06,15.06,0,0,0,57.38,65,64.58,64.58,0,0,1,70.65,76c0,.44.07.91.12,1.46A24.26,24.26,0,0,0,69,81.16l-.37.48c-1.06,1.39-2,2.59-1.84,4.19s1.06,2.36,2.91,3.91l.59.49c.14.26.27.5.42.74a12.33,12.33,0,0,0,1,2.26v.27a9.61,9.61,0,0,0,.26,2c-4.77,1.81-11.56,4.8-14.93,8.09-.23-.36-.49-.74-.8-1.19l-.47-.69a13.2,13.2,0,0,0-2.26-3.5l-.23-.47-.06-.36a5.42,5.42,0,0,0-1.55-3.48,6.53,6.53,0,0,0-3.37-1.24l-.48-.09-1-.38A22.9,22.9,0,0,0,43.09,91H43l-.33-.23a5.68,5.68,0,0,0-3.31-1.38h-.26a6.72,6.72,0,0,0-3.25,1.51l-.39.27h0a25.58,25.58,0,0,0-4.19,1.35l-.6.08c-1.73.23-3.23.44-4.27,1.66s-.92,2.41-.7,4.82a26.38,26.38,0,0,0-1.87,3.67l-.37.48a14.63,14.63,0,0,0-1.1,1.6,70.14,70.14,0,0,0-8.91-7.69,13.57,13.57,0,0,0,1-3.64l.16-.82a16.43,16.43,0,0,0,.7-2.49l.11-.19c.14-.17.33-.38.54-.6,1.32-1.46,2.36-2.61,2.36-4.28,0-1.29-.59-2.21-2.06-4.36l-.47-.69a13,13,0,0,0-2.27-3.5l-.23-.46c-.08-.15,0-.23-.06-.36A5.85,5.85,0,0,0,12,72.57a58.2,58.2,0,0,1,10.26-7.82Z" fill="#939598"/>
                    <path d="M111,66.16c.35.31.75.64,1.21,1l.59.49c.14.26.27.5.42.74a11.11,11.11,0,0,0,1,2.26v.27a5.35,5.35,0,0,0,1.12,3.65c1,1,2.26,1.32,4.07,1.7.31.06.6.12.82.18a14.9,14.9,0,0,0,3.76,1.38.69.69,0,0,0,.13.11,5.32,5.32,0,0,0,3.35,1.77h.15c1.35,0,2.43-.7,3.92-1.68l.25-.17a23.83,23.83,0,0,0,3.1-1h.8c2-.1,3.51-.17,4.69-1.35.91-.91,1.14-2,1.62-4.54l.16-.82a16.43,16.43,0,0,0,.7-2.49l.08-.18c.14-.17.33-.38.53-.6l.66-.75c3.56,2.6,8,6,11.5,9.07a15.44,15.44,0,0,0,.13,2.25,23.6,23.6,0,0,0-1.79,3.68l-.37.48c-1.06,1.39-2,2.59-1.84,4.19s1.06,2.36,2.92,3.91l.59.49c.14.26.27.5.42.74a11.69,11.69,0,0,0,1,2.26v.27a8.31,8.31,0,0,0,.28,2.33,136.77,136.77,0,0,0-13.09,6.71l-.09-.13-.47-.69a13.24,13.24,0,0,0-2.27-3.5l-.23-.47a1.13,1.13,0,0,0-.06-.36,5.42,5.42,0,0,0-1.55-3.48,6.5,6.5,0,0,0-3.37-1.24l-.48-.09-1-.38A22.81,22.81,0,0,0,130.72,91h-.07l-.33-.23A5.73,5.73,0,0,0,127,89.39h-.26a6.75,6.75,0,0,0-3.26,1.51l-.39.27h0a26.65,26.65,0,0,0-4.16,1.37l-.6.08c-1.73.23-3.22.44-4.26,1.66s-.92,2.41-.7,4.82a25.33,25.33,0,0,0-1.87,3.67l-.37.48-.77,1c-3-2.46-7.19-5.67-11.41-8.46.16-.61.31-1.36.49-2.33l.16-.82a17.67,17.67,0,0,0,.7-2.49l.08-.18c.14-.17.32-.38.52-.6,1.32-1.46,2.36-2.61,2.36-4.28,0-1.29-.59-2.21-2.06-4.36l-.47-.69a13,13,0,0,0-2.26-3.5l-.23-.46c-.08-.15,0-.23-.06-.36a8.48,8.48,0,0,0-.65-2.26A101.93,101.93,0,0,1,111,66.12Z" fill="#939598"/>
                  </g>
                  <g id="_3" data-name=" 3">
                    <rect x="0.02" y="147.23" width="169.89" height="22.79" fill="#6d6e71"/>
                    <rect x="0.02" width="169.89" height="22.79" fill="#6d6e71"/>
                  </g>
                  <g id="_4" data-name="4">
                    <path d="M112.19,111.36l.59.49c.14.26.27.5.42.74a11.19,11.19,0,0,0,1,2.27v.27a5.31,5.31,0,0,0,1.12,3.64c1,1,2.26,1.32,4.07,1.7.31.06.6.12.82.18a15,15,0,0,0,3.73,1.35.69.69,0,0,0,.13.11,5.28,5.28,0,0,0,3.35,1.78h.15c1.35,0,2.43-.71,3.92-1.69l.25-.17a23.83,23.83,0,0,0,3.1-1h.8c2-.1,3.51-.17,4.69-1.35.91-.91,1.14-2,1.62-4.53l.16-.83a16.43,16.43,0,0,0,.7-2.49l.08-.18c.14-.17.33-.37.53-.6,1.32-1.45,2.36-2.6,2.36-4.27,0-1.3-.59-2.22-2.06-4.36l-.47-.69a13.24,13.24,0,0,0-2.27-3.5l-.23-.47a1.13,1.13,0,0,0-.06-.36,5.42,5.42,0,0,0-1.55-3.48,6.5,6.5,0,0,0-3.37-1.24l-.48-.09-1-.38A21.44,21.44,0,0,0,130.72,91h-.07l-.33-.23A5.73,5.73,0,0,0,127,89.39h-.26a6.75,6.75,0,0,0-3.26,1.51l-.39.27h0a26.65,26.65,0,0,0-4.16,1.37l-.6.08c-1.73.23-3.22.44-4.26,1.66s-.92,2.41-.7,4.82a25.33,25.33,0,0,0-1.87,3.67l-.37.48c-1.06,1.39-2,2.59-1.84,4.2s1.06,2.36,2.92,3.9Zm2.32-7a21,21,0,0,1,2.31-4.34,27.44,27.44,0,0,1-.2-3.51c.32-.37,2.88-.51,3.33-.7a22.87,22.87,0,0,1,4.18-1.34l.54-.24A17.3,17.3,0,0,1,127,92.82h0c.46,0,1.89,1.24,2.31,1.35a1.85,1.85,0,0,1,.5.17,30.32,30.32,0,0,1,4.45,1.52,16.17,16.17,0,0,1,2.67.62c.33.29.47,2.23.69,2.61s.36.72.54,1.07a9.72,9.72,0,0,1,2.1,3.15c.19.4,2.14,3,2.14,3.47s-2.22,2.64-2.47,3.19l-.4.86a11.79,11.79,0,0,1-.66,2.48,34.12,34.12,0,0,1-.93,4c-.3.34-3.44.3-4,.51a19.11,19.11,0,0,1-3.47,1,14.78,14.78,0,0,1-2.89,1.65h0c-.42,0-1.69-1.45-2.19-1.68a11.73,11.73,0,0,1-3.86-1.29c-.5-.27-3.37-.64-3.75-1s-.15-2.47-.4-2.84a8.18,8.18,0,0,1-1.06-2.42c-.26-.42-.51-.89-.79-1.43-.13-.26-2.86-2.32-2.88-2.6,0-.49,1.67-2.41,1.86-2.86Z" fill="#fff"/>
                    <path d="M24.58,111.36l.59.49c.14.26.27.5.42.74a12.42,12.42,0,0,0,1,2.27v.27a5.31,5.31,0,0,0,1.12,3.64c1,1,2.27,1.32,4.08,1.7.31.06.6.12.82.18A14.32,14.32,0,0,0,36.37,122a.69.69,0,0,0,.13.11,5.26,5.26,0,0,0,3.34,1.78H40c1.35,0,2.43-.71,3.93-1.69l.25-.17a23.83,23.83,0,0,0,3.1-1h.8c2-.1,3.51-.17,4.69-1.35.91-.91,1.14-2,1.61-4.53l.16-.83a15.31,15.31,0,0,0,.69-2.49l.08-.18c.14-.17.33-.37.53-.6,1.32-1.45,2.36-2.6,2.36-4.27,0-1.3-.59-2.22-2.06-4.36l-.47-.69a13,13,0,0,0-2.26-3.5l-.23-.47a1.13,1.13,0,0,0-.06-.36,5.42,5.42,0,0,0-1.55-3.48,6.53,6.53,0,0,0-3.37-1.24l-.48-.09-1-.38A21.87,21.87,0,0,0,43.1,91H43l-.33-.23a5.68,5.68,0,0,0-3.31-1.38h-.26a6.72,6.72,0,0,0-3.25,1.51l-.39.27h0a25.58,25.58,0,0,0-4.19,1.35l-.6.08c-1.73.23-3.23.44-4.27,1.66s-.92,2.41-.7,4.82a26.38,26.38,0,0,0-1.87,3.67l-.37.48c-1.05,1.39-2,2.59-1.83,4.2s1.06,2.36,2.91,3.9Zm2.32-7A21.21,21.21,0,0,1,29.22,100a25.73,25.73,0,0,1-.2-3.51c.32-.37,2.88-.51,3.33-.7a22.62,22.62,0,0,1,4.18-1.34l.54-.24A17.82,17.82,0,0,1,39.4,92.8h0c.46,0,1.89,1.24,2.31,1.35a1.64,1.64,0,0,1,.5.17,30.44,30.44,0,0,1,4.46,1.52,17.4,17.4,0,0,1,2.65.66c.33.29.47,2.23.69,2.61s.36.72.54,1.07a9.72,9.72,0,0,1,2.1,3.15c.19.4,2.13,3,2.13,3.47s-2.21,2.64-2.46,3.2l-.4.86a11.79,11.79,0,0,1-.66,2.48,34.12,34.12,0,0,1-.93,4c-.3.34-3.44.3-4,.51a19.21,19.21,0,0,1-3.48,1A14,14,0,0,1,40,120.5h0c-.42,0-1.68-1.45-2.18-1.68a11.5,11.5,0,0,1-3.87-1.3c-.5-.27-3.37-.64-3.75-1s-.15-2.47-.4-2.84a8.18,8.18,0,0,1-1.06-2.42c-.26-.42-.52-.89-.8-1.43-.13-.26-2.86-2.32-2.88-2.6,0-.49,1.67-2.41,1.86-2.86Z" fill="#fff"/>
                    <path d="M112.19,67.19l.59.49c.14.26.27.5.42.74a11.11,11.11,0,0,0,1,2.26V71a5.35,5.35,0,0,0,1.12,3.65c1,1,2.26,1.32,4.07,1.7.31.06.6.12.82.18a14.49,14.49,0,0,0,3.73,1.3.69.69,0,0,0,.13.11,5.32,5.32,0,0,0,3.35,1.77h.15c1.35,0,2.43-.7,3.92-1.68l.25-.17a23.83,23.83,0,0,0,3.1-1h.8c2-.1,3.51-.17,4.69-1.35.91-.91,1.14-2,1.62-4.54l.16-.82a16.43,16.43,0,0,0,.7-2.49l.08-.18c.14-.17.33-.37.53-.6,1.32-1.45,2.36-2.6,2.36-4.28,0-1.29-.59-2.21-2.06-4.35l-.47-.69A13.21,13.21,0,0,0,141,54l-.23-.46c-.08-.15,0-.23-.06-.36a5.42,5.42,0,0,0-1.55-3.48,6.5,6.5,0,0,0-3.37-1.24l-.48-.09-1-.38a21,21,0,0,0-3.62-1.18h-.07l-.33-.24A5.73,5.73,0,0,0,127,45.19h-.26a6.75,6.75,0,0,0-3.26,1.51l-.39.28h0a26.42,26.42,0,0,0-4.14,1.37l-.6.08c-1.73.23-3.22.44-4.26,1.66s-.92,2.41-.7,4.81a27.07,27.07,0,0,0-1.87,3.68l-.37.48c-1.06,1.39-2,2.59-1.84,4.19s1.06,2.37,2.92,3.91Zm2.32-7a21.43,21.43,0,0,1,2.31-4.33,27.44,27.44,0,0,1-.2-3.51c.32-.37,2.88-.51,3.33-.7a22.87,22.87,0,0,1,4.18-1.34l.54-.24A17.3,17.3,0,0,1,127,48.66h0c.46,0,1.89,1.24,2.31,1.35a1.85,1.85,0,0,1,.5.17,30.32,30.32,0,0,1,4.45,1.52,17.11,17.11,0,0,1,2.65.66c.33.29.47,2.22.69,2.6s.36.73.54,1.08a9.72,9.72,0,0,1,2.1,3.15c.19.4,2.14,3,2.14,3.46s-2.22,2.65-2.47,3.2l-.4.86a11.79,11.79,0,0,1-.66,2.48,34.12,34.12,0,0,1-.93,4c-.3.34-3.44.3-4,.51a19.11,19.11,0,0,1-3.47,1,14.78,14.78,0,0,1-2.89,1.65h0c-.42,0-1.69-1.45-2.19-1.68a11.73,11.73,0,0,1-3.86-1.29c-.5-.27-3.37-.64-3.75-1s-.15-2.47-.4-2.84a8.75,8.75,0,0,1-1-2.57c-.26-.42-.51-.89-.79-1.43-.13-.26-2.86-2.33-2.88-2.61,0-.49,1.67-2.4,1.86-2.85Z" fill="#fff"/>
                    <path d="M24.58,67.19l.59.49c.14.26.27.5.42.74a12.33,12.33,0,0,0,1,2.26V71a5.35,5.35,0,0,0,1.12,3.65c1,1,2.27,1.32,4.08,1.7.31.06.6.12.82.18a14.52,14.52,0,0,0,3.79,1.35.69.69,0,0,0,.13.11,5.32,5.32,0,0,0,3.34,1.77H40c1.35,0,2.43-.7,3.93-1.68l.25-.17a23.83,23.83,0,0,0,3.1-1h.8c2-.1,3.51-.17,4.69-1.35.91-.91,1.14-2,1.61-4.54l.16-.82a15.31,15.31,0,0,0,.69-2.49l.08-.18c.14-.17.33-.37.53-.6,1.32-1.45,2.36-2.6,2.36-4.28,0-1.29-.59-2.21-2.06-4.35l-.47-.69A12.91,12.91,0,0,0,53.4,54l-.23-.46c-.08-.15,0-.23-.06-.36a5.42,5.42,0,0,0-1.55-3.48,6.53,6.53,0,0,0-3.37-1.24l-.48-.09-1-.38a21.08,21.08,0,0,0-3.63-1.18H43l-.33-.24a5.68,5.68,0,0,0-3.31-1.38h-.26a6.72,6.72,0,0,0-3.25,1.51l-.39.28h0a25.58,25.58,0,0,0-4.19,1.35l-.6.08c-1.73.23-3.23.44-4.27,1.66s-.92,2.41-.7,4.81a28.26,28.26,0,0,0-1.87,3.68l-.37.48c-1.05,1.39-2,2.59-1.83,4.19s1.06,2.37,2.91,3.91Zm2.32-7a21,21,0,0,1,2.32-4.33,25.73,25.73,0,0,1-.2-3.51c.32-.37,2.88-.51,3.33-.7a22.62,22.62,0,0,1,4.18-1.34l.54-.24a17.82,17.82,0,0,1,2.33-1.41h0c.46,0,1.89,1.24,2.31,1.35a1.64,1.64,0,0,1,.5.17,30.44,30.44,0,0,1,4.46,1.52,17.4,17.4,0,0,1,2.65.66c.33.29.47,2.22.69,2.6s.36.73.54,1.08a9.72,9.72,0,0,1,2.1,3.15c.19.4,2.13,3,2.13,3.46s-2.21,2.65-2.46,3.2l-.4.86a11.79,11.79,0,0,1-.66,2.48,34.12,34.12,0,0,1-.93,4c-.3.34-3.44.3-4,.51a19.21,19.21,0,0,1-3.48,1A14.21,14.21,0,0,1,40,76.27h0c-.42,0-1.68-1.45-2.18-1.68A11.6,11.6,0,0,1,34,73.35c-.5-.27-3.37-.64-3.75-1s-.15-2.47-.4-2.84a8.18,8.18,0,0,1-1.06-2.42c-.26-.42-.52-.89-.8-1.43-.13-.26-2.86-2.33-2.88-2.61,0-.49,1.67-2.4,1.86-2.85Z" fill="#fff"/>
                    <path d="M165.51,69.53h0a25.47,25.47,0,0,0-4.18,1.35l-.6.08c-1.73.23-3.23.44-4.27,1.67s-.92,2.41-.7,4.81a24.78,24.78,0,0,0-1.84,3.68l-.37.48c-1.06,1.39-2,2.59-1.84,4.19s1.06,2.36,2.92,3.91l.59.49c.14.26.27.5.42.74a11.69,11.69,0,0,0,1,2.26v.27a5.31,5.31,0,0,0,1.12,3.64c1,1.06,2.27,1.33,4.08,1.71.31.06.59.12.81.18a14.65,14.65,0,0,0,3.79,1.35.69.69,0,0,0,.13.11,7,7,0,0,0,2.26,1.57V98a5.27,5.27,0,0,0-1-.82,12.09,12.09,0,0,1-3.92-1.31c-.5-.27-3.36-.64-3.74-1s-.15-2.46-.4-2.83a7.93,7.93,0,0,1-1.06-2.42c-.26-.43-.52-.9-.8-1.44-.13-.26-2.86-2.32-2.88-2.6,0-.49,1.67-2.4,1.86-2.85a21.06,21.06,0,0,1,2.32-4.34,24.09,24.09,0,0,1-.2-3.5c.32-.37,2.88-.51,3.33-.7a22.52,22.52,0,0,1,4.17-1.34l.54-.24c.26-.12,1.1-.75,1.72-1.13V67.87a7.52,7.52,0,0,0-2.86,1.38l-.39.27Z" fill="#fff"/>
                    <path d="M2.34,72.68A30.84,30.84,0,0,1,6.8,74.2a17.28,17.28,0,0,1,2.64.66c.33.29.47,2.22.69,2.6s.36.72.54,1.07a9.87,9.87,0,0,1,2.1,3.16c.19.4,2.14,3,2.14,3.46s-2.22,2.64-2.47,3.19l-.4.86a10.77,10.77,0,0,1-.66,2.49,34.12,34.12,0,0,1-.93,4c-.3.35-3.43.3-4,.51A18,18,0,0,1,3,97.2c-.5.3-1.21.79-1.82,1.16v3.75A11.61,11.61,0,0,0,4,100.6l.25-.17a24.33,24.33,0,0,0,3.1-1h.79c2-.1,3.51-.17,4.69-1.35.91-.92,1.14-2,1.62-4.54l.16-.82a16.43,16.43,0,0,0,.7-2.49l.08-.18c.14-.17.33-.37.54-.6,1.32-1.46,2.36-2.61,2.36-4.28,0-1.29-.59-2.21-2.06-4.35l-.47-.7a13,13,0,0,0-2.27-3.5l-.23-.46c-.08-.15,0-.23-.06-.36a5.42,5.42,0,0,0-1.55-3.48A6.6,6.6,0,0,0,8.29,71l-.48-.09-1-.38a21.36,21.36,0,0,0-3.63-1.18H3.12l-.33-.23a10.2,10.2,0,0,0-1.68-1v4a3.62,3.62,0,0,0,.68.41,1.85,1.85,0,0,1,.5.17Z" fill="#fff"/>
                    <path d="M69.62,89.74l.59.49c.14.26.27.5.42.74a12.33,12.33,0,0,0,1,2.26v.27a5.31,5.31,0,0,0,1.12,3.64c1,1.06,2.27,1.33,4.08,1.71.31.06.6.12.82.18a14.52,14.52,0,0,0,3.79,1.35.69.69,0,0,0,.13.11,5.32,5.32,0,0,0,3.4,1.77h.14c1.35,0,2.43-.7,3.93-1.68l.25-.17a23.83,23.83,0,0,0,3.1-1h.8c2-.1,3.51-.17,4.69-1.35.91-.92,1.14-2,1.62-4.54l.16-.82a17.67,17.67,0,0,0,.7-2.49l.08-.18c.13-.17.32-.37.52-.6,1.32-1.46,2.36-2.61,2.36-4.28,0-1.29-.59-2.21-2.06-4.36l-.47-.69a13,13,0,0,0-2.26-3.5l-.23-.46a1.13,1.13,0,0,0-.06-.36,5.47,5.47,0,0,0-1.55-3.49A6.66,6.66,0,0,0,93.24,71l-.48-.09-1-.38a20.8,20.8,0,0,0-3.63-1.18h-.07l-.33-.23a5.68,5.68,0,0,0-3.3-1.38h-.26A6.63,6.63,0,0,0,81,69.27l-.39.27h0a25.9,25.9,0,0,0-4.19,1.35l-.6.08c-1.73.23-3.23.44-4.27,1.67s-.92,2.41-.7,4.81A23,23,0,0,0,69,81.13l-.37.48c-1.06,1.39-2,2.59-1.84,4.19s1.06,2.36,2.91,3.91Zm2.32-7a21.06,21.06,0,0,1,2.32-4.34,27.28,27.28,0,0,1-.2-3.5c.32-.37,2.88-.51,3.33-.7a22.87,22.87,0,0,1,4.18-1.34l.54-.24a17.36,17.36,0,0,1,2.34-1.42h0c.46,0,1.88,1.25,2.3,1.36a1.64,1.64,0,0,1,.5.17,30,30,0,0,1,4.46,1.52,17.11,17.11,0,0,1,2.65.66c.33.29.47,2.22.69,2.6s.36.72.54,1.07a9.87,9.87,0,0,1,2.1,3.16c.19.4,2.14,3,2.14,3.46s-2.22,2.64-2.47,3.19l-.4.86a11.88,11.88,0,0,1-.66,2.49,34.12,34.12,0,0,1-.93,4c-.3.35-3.44.3-4,.51a18.22,18.22,0,0,1-3.48,1A14.75,14.75,0,0,1,85,98.91h0c-.42,0-1.69-1.46-2.19-1.69A12,12,0,0,1,79,95.89c-.5-.27-3.37-.64-3.75-1s-.15-2.46-.4-2.83a8.18,8.18,0,0,1-1.06-2.42c-.26-.43-.52-.9-.8-1.44-.13-.26-2.86-2.32-2.88-2.6,0-.49,1.67-2.4,1.86-2.85Z" fill="#fff"/>
                    <path d="M94.81,74.82a6.23,6.23,0,0,1,.4,1.48v.39l.08.43.2.39.18.37.19.4.3.33A10,10,0,0,1,98,81.4l.08.17.1.16.41.6.11.17c1,1.53,1.53,2.29,1.53,2.65s-.57,1.15-1.58,2.26l-.15.16-.46.52-.26.31-.17.37-.08.17-.16.36-.07.38a13.83,13.83,0,0,1-.57,2l-.06.18V92a5.57,5.57,0,0,1-.14.71v.21c-.16.85-.3,1.59-.44,2.12l-.55,2.09,1.8,1.19a136.61,136.61,0,0,1,11.17,8.28l2.51,2,1.8-2.62c.21-.31.45-.62.7-.94l.11-.14.31-.41.2-.27.13-.31a21.06,21.06,0,0,1,1.66-3.24l.52-.86-.09-1c-.18-2-.18-2.39,0-2.59a5.91,5.91,0,0,1,2.39-.64h.23l.51-.07h.34l.31-.13a24,24,0,0,1,3.71-1.2l.29-.06.27-.12.22-.1.24-.15.35-.23.1-.07a5.39,5.39,0,0,1,1.76-1h0a3.76,3.76,0,0,1,1.59.84l.1.07.22.19.31.21.35.13.2.07.3.09a19.12,19.12,0,0,1,3.14,1h.06l1,.38.21.08h.22l.43.08h.13a5.52,5.52,0,0,1,2,.55c.28.25.4.83.57,1.76v.86l.2.39.18.36.19.4.3.33a9.9,9.9,0,0,1,1.85,2.76l.08.17.1.16.4.6.12.17.09.13,1.56,2.36,2.42-1.44a139.07,139.07,0,0,1,12.81-6.55l2.5-1.15-.91-2.59a6.3,6.3,0,0,1-.21-1.49v-1l-.35-.62a7.85,7.85,0,0,1-.71-1.69l-.1-.32-.17-.29-.36-.66-.27-.5-.44-.37c-.12-.1-.26-.21-.4-.34l-.21-.17c-1.52-1.26-1.83-1.56-1.85-1.84a6,6,0,0,1,1.23-2.11l.1-.13.31-.41.2-.28.13-.31a22.31,22.31,0,0,1,1.66-3.27l.53-.86-.09-1a16.64,16.64,0,0,1-.11-2V73.88l-1-.9c-3-2.67-7-5.78-11.72-9.26l-2.22-1.62-1.78,2.11-.62.7-.15.16-.46.52-.26.31-.17.37-.08.16-.16.35-.07.39a13.83,13.83,0,0,1-.57,2l-.06.18v.18a5.57,5.57,0,0,1-.14.71v.21a8.94,8.94,0,0,1-.79,3c-.26.29-1.22.41-2.72.48h-1.31l-.38.14a21.73,21.73,0,0,1-2.84,1l-.52.12-.45.29-.21.14h0a6.05,6.05,0,0,1-2.29,1.19h0c-.34,0-.73-.33-1.47-1h-.06l-.07-.06-.6-.54-.84-.21a12,12,0,0,1-3-1.09l-.3-.16-.33-.08-.72-.16h-.21a5.78,5.78,0,0,1-2.48-.79c-.23-.25-.28-.76-.33-1.77V70l-.35-.62a9.3,9.3,0,0,1-.71-1.69l-.1-.32-.16-.29-.36-.65-.27-.51-.44-.37c-.13-.11-.27-.23-.43-.35l-.19-.16a10.77,10.77,0,0,1-1.13-1l-1.45-1.3-1.77.8A109.82,109.82,0,0,0,96,71l-2.23,1.45,1.16,2.39ZM111,66.16c.35.31.75.64,1.21,1l.59.49c.14.26.27.5.42.74a11.11,11.11,0,0,0,1,2.26v.27a5.35,5.35,0,0,0,1.12,3.65c1,1,2.26,1.32,4.07,1.7.31.06.6.12.82.18a14.9,14.9,0,0,0,3.76,1.38.69.69,0,0,0,.13.11,5.32,5.32,0,0,0,3.35,1.77h.15c1.35,0,2.43-.7,3.92-1.68l.25-.17a23.83,23.83,0,0,0,3.1-1h.8c2-.1,3.51-.17,4.69-1.35.91-.91,1.14-2,1.62-4.54l.16-.82a16.43,16.43,0,0,0,.7-2.49l.08-.18c.14-.17.33-.38.53-.6l.66-.75c3.56,2.6,8,6,11.5,9.07a15.44,15.44,0,0,0,.13,2.25,23.6,23.6,0,0,0-1.79,3.68l-.37.48c-1.06,1.39-2,2.59-1.84,4.19s1.06,2.36,2.92,3.91l.59.49c.14.26.27.5.42.74a11.69,11.69,0,0,0,1,2.26v.27a8.31,8.31,0,0,0,.28,2.33,136.77,136.77,0,0,0-13.09,6.71l-.09-.13-.47-.69a13.24,13.24,0,0,0-2.27-3.5l-.23-.47a1.13,1.13,0,0,0-.06-.36,5.42,5.42,0,0,0-1.55-3.48,6.5,6.5,0,0,0-3.37-1.24l-.48-.09-1-.38a22.59,22.59,0,0,0-3.6-1.17h-.07l-.33-.23a5.71,5.71,0,0,0-3.37-1.42h-.26a6.75,6.75,0,0,0-3.26,1.51l-.39.27h0a24.49,24.49,0,0,0-4.09,1.35l-.6.08c-1.73.23-3.22.44-4.26,1.66s-.92,2.41-.7,4.82a25.33,25.33,0,0,0-1.87,3.67l-.37.48-.77,1c-3-2.46-7.19-5.67-11.41-8.46.16-.61.31-1.36.49-2.33l.16-.82a17.67,17.67,0,0,0,.7-2.49l.08-.18c.14-.17.32-.38.52-.6,1.32-1.46,2.36-2.61,2.36-4.28,0-1.29-.59-2.21-2.06-4.36l-.47-.69a13,13,0,0,0-2.26-3.5L98.2,76a1.13,1.13,0,0,0-.06-.36,8.48,8.48,0,0,0-.65-2.26A101.56,101.56,0,0,1,111,66.1Z" fill="#fff"/>
                    <path d="M9.72,74.62a3.62,3.62,0,0,1,.54,1.69v.08l.07.3.08.44.21.4.18.36.19.4.3.33A9.69,9.69,0,0,1,13,81.41l.08.17.1.16.41.61.11.16c1,1.53,1.53,2.29,1.53,2.65s-.57,1.15-1.58,2.26l-.14.16c-.18.19-.34.37-.47.53l-.26.31-.17.37V89l-.16.36-.07.38a13.83,13.83,0,0,1-.57,2l-.06.18V92a5.42,5.42,0,0,1-.14.7V93a14.3,14.3,0,0,1-.68,2.8L9.7,98.17,12,99.68A62.49,62.49,0,0,1,20.28,107L23,109.74l2-3.28a14,14,0,0,1,.94-1.34L26,105l.31-.41.2-.28.13-.31a23.23,23.23,0,0,1,1.66-3.26l.53-.86-.09-1c-.18-2-.18-2.38,0-2.59a5.87,5.87,0,0,1,2.39-.64h.17l.51-.07h.34l.32-.13a24,24,0,0,1,3.71-1.2l.29-.06.27-.12L37,94l.24-.15.35-.23.1-.07a5.45,5.45,0,0,1,1.75-1h0a3.71,3.71,0,0,1,1.59.84l.1.07.27.19.31.21L42,94l.2.08.24.06a19.23,19.23,0,0,1,3.15,1h.07l1,.37.21.08h.21l.42.08h.13a5.63,5.63,0,0,1,2,.55c.27.24.38.74.57,1.76v.39l.08.43.2.39.18.37.19.4.3.33A10,10,0,0,1,53,103.12l.08.17.1.16.4.6.12.18c.3.43.53.79.75,1.14l2,3.07L59,105.88c2.31-2.26,7.25-4.89,13.9-7.42l2.54-1-.71-2.62a8.11,8.11,0,0,1-.16-1.39v-1l-.35-.61a9.3,9.3,0,0,1-.71-1.69l-.1-.32-.17-.29-.36-.66-.27-.51L72.14,88l-.41-.34-.2-.16c-1.52-1.25-1.83-1.56-1.85-1.84A6.07,6.07,0,0,1,71,83.52l.1-.14.31-.41.2-.27.13-.31a23.34,23.34,0,0,1,1.66-3.27l.53-.86-.09-1c0-.51-.09-1-.11-1.36l-.06-1-.7-.78A68.51,68.51,0,0,0,59,62.57L56.52,61,55,63.43A11.26,11.26,0,0,1,53.62,65l-.16.17L53,65.7l-.26.31-.17.36v.18l-.16.35-.07.38a13.83,13.83,0,0,1-.57,2l-.06.17v.18a5.88,5.88,0,0,1-.14.73v.19a9.19,9.19,0,0,1-.79,3c-.26.29-1.22.41-2.72.48H46.6l-.38.14A23.78,23.78,0,0,1,43.5,75l-.56.12-.45.29h0l-.21.14A5.94,5.94,0,0,1,40,76.84h0c-.34,0-.73-.33-1.46-1l-.08-.07h0l-.6-.54L37,75a11.71,11.71,0,0,1-3-1.09l-.3-.16-.33-.08-.73-.16H32.4a5.52,5.52,0,0,1-2.4-.77c-.23-.25-.28-.76-.33-1.77V70l-.35-.62a7.85,7.85,0,0,1-.71-1.69l-.1-.32-.17-.29L28,66.43l-.27-.5-.44-.37-.42-.35L26.6,65a9.77,9.77,0,0,1-1.77-1.69l-1.49-2.49-2.53,1.4A62.36,62.36,0,0,0,10,70.49L7.75,72.55l2,2.17Zm12.44-9.87a10.19,10.19,0,0,0,2.42,2.44l.59.49c.14.26.27.5.42.74a12.33,12.33,0,0,0,1,2.26V71a5.35,5.35,0,0,0,1.12,3.65c1,1,2.27,1.32,4.08,1.7.31.06.6.12.82.18a14.52,14.52,0,0,0,3.79,1.35.69.69,0,0,0,.13.11,5.32,5.32,0,0,0,3.34,1.77H40c1.35,0,2.43-.7,3.93-1.68l.25-.17a23.83,23.83,0,0,0,3.1-1h.8c2-.1,3.51-.17,4.69-1.35.91-.91,1.14-2,1.61-4.54l.16-.82a15.31,15.31,0,0,0,.69-2.49l.08-.18c.14-.17.33-.38.53-.6A15.06,15.06,0,0,0,57.38,65,64.58,64.58,0,0,1,70.65,76c0,.44.07.91.12,1.46A24.26,24.26,0,0,0,69,81.16l-.37.48c-1.06,1.39-2,2.59-1.84,4.19s1.06,2.36,2.91,3.91l.59.49c.14.26.27.5.42.74a12.33,12.33,0,0,0,1,2.26v.27a9.61,9.61,0,0,0,.26,2c-4.77,1.81-11.56,4.8-14.93,8.09-.23-.36-.49-.74-.8-1.19l-.47-.69a13.2,13.2,0,0,0-2.26-3.5l-.23-.47-.06-.36a5.42,5.42,0,0,0-1.55-3.48,6.53,6.53,0,0,0-3.37-1.24l-.48-.09-1-.38A22.9,22.9,0,0,0,43.09,91H43l-.33-.23a5.68,5.68,0,0,0-3.31-1.38h-.26a6.72,6.72,0,0,0-3.25,1.51l-.39.27h0a25.58,25.58,0,0,0-4.19,1.35l-.6.08c-1.73.23-3.23.44-4.27,1.66s-.92,2.41-.7,4.82a26.38,26.38,0,0,0-1.87,3.67l-.37.48a14.63,14.63,0,0,0-1.1,1.6,70.14,70.14,0,0,0-8.91-7.69,13.57,13.57,0,0,0,1-3.64l.16-.82a16.43,16.43,0,0,0,.7-2.49l.11-.19c.14-.17.33-.38.54-.6,1.32-1.46,2.36-2.61,2.36-4.28,0-1.29-.59-2.21-2.06-4.36l-.47-.69a13,13,0,0,0-2.27-3.5l-.23-.46c-.08-.15,0-.23-.06-.36A5.85,5.85,0,0,0,12,72.57a58.2,58.2,0,0,1,10.26-7.82Z" fill="#fff"/>
                    <rect x="0.02" y="127.35" width="169.89" height="8.11" fill="#fff"/>
                    <rect x="0.02" y="34.57" width="169.89" height="8.11" fill="#fff"/>
                  </g>
                </g>
              </g>
            </g>
          </g>
        </g>
      </g>
    </g>
  </g>
</svg>
