<svg xmlns="http://www.w3.org/2000/svg" width="100%" viewBox="0 0 170.01 170.14">
  <g id="Camada_2" data-name="Camada 2">
    <g id="Camada_1-2" data-name="Camada 1">
      <g id="Camada_2-2" data-name="Camada 2">
        <g id="Camada_1-2-2" data-name="Camada 1-2">
          <rect id="_1" data-name=" 1" y="32.18" width="137.84" height="137.84" fill="#231f20"/>
          <g id="_4" data-name=" 4">
            <path d="M46.61,120.42a51,51,0,0,1-14.73-2.11s3.23,10.34,3.31,13.43c0,0,13.16,2.77,13.57,3.43C48.76,135.17,46,123.93,46.61,120.42Z" fill="#d1d3d4"/>
            <path d="M87.14,161.53A10.11,10.11,0,0,0,78,170.14l19.65-.06A10.13,10.13,0,0,0,87.14,161.53Z" fill="#d1d3d4"/>
            <path d="M8.2,88.37A9.55,9.55,0,0,0,0,78.91V97.76A9.54,9.54,0,0,0,8.2,88.37Z" fill="#d1d3d4"/>
          </g>
          <g id="_3" data-name=" 3">
            <rect x="0.03" y="149.93" width="20.08" height="20.08" fill="#6d6e71"/>
            <g>
              <rect width="149.91" height="20.1" fill="#6d6e71"/>
              <rect x="146.82" width="23.19" height="170.02" fill="#6d6e71"/>
            </g>
          </g>
          <g id="_2" data-name=" 2">
            <path d="M67,141.5a43.44,43.44,0,0,1-13.88-8.86s-2.65-9.85-1.74-17.59c0,0-9.68.08-15.8-1.14,0,0-8.67-7.36-13.43-16.8-1.55-.36-3.24-.83-5-1.4a11.48,11.48,0,0,0-1.52-.44,68.39,68.39,0,0,0,11.53,27.52c2.23,3.18,2.44,12.46,2.44,12.46a61.42,61.42,0,0,1,15.32,3.39,69.06,69.06,0,0,0,22.4,7.41,15.07,15.07,0,0,1-1-4.33l.63-.21Zm-31.83-9.76c-.08-3.09-3.31-13.43-3.31-13.43a51,51,0,0,0,14.73,2.11c-.58,3.51,2.15,14.75,2.15,14.75C48.35,134.52,35.19,131.74,35.19,131.74Z" fill="#939598"/>
            <path d="M96.94,145.42c40-12,24.17-57.29,24.17-57.29-1.73-11.47,3.67-16.09,5.57-17.35a.56.56,0,0,0,.19-.77.61.61,0,0,0-.27-.23c-13-5.76-12,9.79-12,9.79-.52,5.87-4.66,3.19-4.66,3.19-4-3.19-5.7,1.91-5.7,1.91-3,11.35,8.94,16.82,8.94,16.82a4.09,4.09,0,0,1,1.55,5.48c-.78,1.65-3.37.51-3.37.51-4.47-3.22-4.11-6.39-14-4.82a5,5,0,0,0-2.13.81c-4.09,2.89-4,7.51-3.84,9.28a.59.59,0,0,0,.67.5l.14,0a11.09,11.09,0,0,1,8.68.17,9.51,9.51,0,0,1,5.56,8.17c.19,12.56-5.59,17.45-11.19,19.28-.1,1-.33,2.72-.81,5.06,1.6-.27,2.51-.49,2.51-.49Z" fill="#939598"/>
            <path d="M18.2,73.41s.95-.41,2.27-.94c.9-6.25,5-14.6,20.4-14.38a9.65,9.65,0,0,1,8.3,5.47,10.66,10.66,0,0,1,.17,8.54.58.58,0,0,0,.33.76l.14,0c1.8.2,6.48.25,9.43-3.78A4.8,4.8,0,0,0,60.06,67c1.6-9.69-1.63-9.34-4.9-13.73,0,0-1.17-2.55.52-3.32a4.26,4.26,0,0,1,5.57,1.53s5.57,11.75,17.09,8.82c0,0,5.18-1.65,1.94-5.61,0,0-2.72-4.07,3.24-4.58,0,0,15.8.92,10-11.86a.57.57,0,0,0-.77-.27.6.6,0,0,0-.23.19c-1.29,1.87-6,7.18-17.63,5.48,0,0-46-15.54-58.21,23.79a44.36,44.36,0,0,0-1.44,6.85,5.52,5.52,0,0,0,3-.87Z" fill="#939598"/>
            <g>
              <rect y="137.83" width="31.88" height="12.08" fill="#939598"/>
              <rect x="20.04" y="148.71" width="11.84" height="21.31" fill="#939598"/>
            </g>
            <rect y="20.1" width="149.85" height="12.08" fill="#939598"/>
            <rect x="137.77" y="32.18" width="12.08" height="137.87" fill="#939598"/>
          </g>
          <g id="_5" data-name="5">
            <path d="M5.9,117.52c3.86-2.83,5.31-5.64,5.93-7.62,1.46-4.62.39-11,.39-11h0c-.87-3.93,1.66-4,3.42-3.63a11.48,11.48,0,0,1,1.52.44c1.78.58,3.47,1,5,1.4A57.37,57.37,0,0,0,30.5,98.5c.81-1.6-.24-7.26-.24-7.26,7.12-.71,13.11-6.53,13.11-6.53-3.08-3.83-14.09-5.82-14.09-5.82,1.46-3.9-.49-8.84-.49-8.84-1.85,0-5.85,1.38-8.32,2.4-1.32.53-2.27.94-2.27.94a5.52,5.52,0,0,1-3,.87A3.64,3.64,0,0,1,12.13,72l1-8.13a12.76,12.76,0,0,0-1.37-6.42c-.65-1.23-1.81-3.45-4-3.92A4.1,4.1,0,0,0,7,53.44a10.79,10.79,0,0,0-1.17-5.31A11.09,11.09,0,0,0,0,43V78.91A9.55,9.55,0,0,1,8.2,88.37,9.54,9.54,0,0,1,0,97.76q0,16.51,0,33a15.21,15.21,0,0,0,5.85-9.43A13.29,13.29,0,0,0,5.9,117.52Z" fill="#fff"/>
            <path d="M44.21,170.08q17,0,34-.06a9.75,9.75,0,0,1,19,.06h34.26a11.48,11.48,0,0,0-12.84-7.68,13.38,13.38,0,0,0-3.78-4.68c-6.34-4.87-14.9-1.68-15.66-1.38a1.64,1.64,0,0,1-1.14-.29c-.88-.68-.89-2.61.22-4.71a61.4,61.4,0,0,0,2.46-8.06,53.3,53.3,0,0,0,1-5.62l.1-.88c-2-.88-9.32.26-9.32.26-.92-7.77-8.4-14.3-8.4-14.3-4.92,3.36-7.47,15.37-7.47,15.37-4-1.26-8.74-.19-10.57.3l-.79.23a15,15,0,0,0,1.22,4.8c1.28,3.31,3.08,6.76,3.08,6.76,3.37,5-1.85,6.62-1.85,6.62l-10.45-1.06A10.42,10.42,0,0,0,52.7,157a7.75,7.75,0,0,0-2.82,2.34,7.43,7.43,0,0,0-1.26,2.82,7.75,7.75,0,0,0-6.36,7.92Z" fill="#fff"/>
          </g>
        </g>
      </g>
    </g>
  </g>
</svg>
