<svg xmlns="http://www.w3.org/2000/svg" width="100%" viewBox="0 0 170.02 169.25">
  <g id="Camada_2" data-name="Camada 2">
    <g id="Camada_1-2" data-name="Camada 1">
      <g id="Camada_2-2" data-name="Camada 2">
        <g id="Camada_1-2-2" data-name="Camada 1-2">
          <g id="Camada_2-2-2" data-name="Camada 2-2">
            <g id="Camada_1-2-2-2" data-name="Camada 1-2-2">
              <g id="_2" data-name=" 2">
                <rect x="0.39" y="152.76" width="13.08" height="16.28" fill="#939598"/>
                <path d="M43.48,104.27a33.91,33.91,0,0,1,10.74-4c1-.2,2-.35,3-.47h.38a8.94,8.94,0,0,1,9.76,8,8.24,8.24,0,0,1,0,1.72,1,1,0,0,1,0,.25V110c-.18,1.47-.44,2.92-.76,4.36a39.85,39.85,0,0,1-6,13.92l-.76,1.08a20.47,20.47,0,0,0-2,21.76A21.69,21.69,0,0,0,63,157.89,30.54,30.54,0,0,1,71,169l9.23-.2a7.75,7.75,0,0,0-1-11.18c-7.2-7.24-11.3-16.1-9.36-22.66a32.29,32.29,0,0,1,5.77-10.54,43.79,43.79,0,0,0,3.45-4,28.41,28.41,0,0,0,4.27-7.32A34.61,34.61,0,0,0,84.56,109c.09-.4.19-.79.27-1.2a24.3,24.3,0,0,0,0-9.31,22.33,22.33,0,0,0-6.71-11.93s-.41-.48-1-1.24a38,38,0,0,0-17.7-3.41,32.76,32.76,0,0,0-11.19,2.69,41.72,41.72,0,0,0-10.88,7S30.59,97.67,21.16,97c-9.66-.72-15.75-7.71-17.64-9.9a28.79,28.79,0,0,1-3.2-4.54L.38,98.45a36.12,36.12,0,0,1,5.71,3,36.35,36.35,0,0,1,5.08,4A24.49,24.49,0,0,0,21,110.19C32.6,112.75,42,105.48,43.48,104.27Z" fill="#939598"/>
                <path d="M123,45.93v-.74M.39,45.19V60.67a35.6,35.6,0,0,1,10.79,7S24.27,80.1,43.48,66.5h0s23.2-14.65,43.77,3.78L96.68,69l-1.26,9.58a32,32,0,0,1,3.83,5,38.67,38.67,0,0,1-.06,44.63l-.75,1.08a20.56,20.56,0,0,0-1.76,22.32,23.76,23.76,0,0,0,5.19,6.48,30.66,30.66,0,0,1,7.73,11H123V45.93m-13.58,97.83a5.79,5.79,0,1,1,6-5.79,5.87,5.87,0,0,1-6,5.79Zm1.13-70.92a4.77,4.77,0,1,1-.07,0h.07ZM89.32,50.67a4.69,4.69,0,1,1-4.8,4.68,4.69,4.69,0,0,1,4.8-4.68h0ZM25.51,49.56a5.8,5.8,0,1,1-6,5.79,5.88,5.88,0,0,1,6-5.79Z" fill="#939598"/>
                <rect x="0.68" y="45.19" width="126.57" height="123.85" fill="#939598"/>
              </g>
              <g id="_1" data-name=" 1">
                <path d="M26,138.27V168.7" fill="#231f20"/>
                <path d="M50.62,169c-1.3-6.2-2.69-10.65-3.35-11.8a15,15,0,0,0-.84-1.28,13.48,13.48,0,0,0-1.4-1.58c-2.1-2-2.07-10.21-2.07-10.21a67.5,67.5,0,0,1,.71-9.49L46,128.21a35.6,35.6,0,0,0,2.13-5.81,36,36,0,0,0,.8-3.79,6,6,0,0,0-3-2.61,2.5,2.5,0,0,0-1.78-.31,30.31,30.31,0,0,0-11,5.25s-13,7.79-28.17-4.12a27,27,0,0,0-4.24-1.75V134.6a6,6,0,0,0,.79,4.58c4.77,6.35,25.78-4.73,29.44.77,1.5,2.25.3,7.59-1.54,15.77a6.18,6.18,0,0,0,0,4.14c.42.92,1.06,1.39,1.18,2.53a6.91,6.91,0,0,1-.36,2.16c-.12.95.18,2.37,2.24,4.35h3.6" fill="#231f20"/>
                <path d="M97.65,169A120.84,120.84,0,0,1,82.1,147.42q-1.57-2.8-2.92-5.53a11.26,11.26,0,0,1,.08-4.29c.73-3.48,2.89-5.24,5.27-8.24a40.94,40.94,0,0,0,5.45-9.3,40,40,0,0,0,3.4-12.26,31.51,31.51,0,0,0-.18-8,32.7,32.7,0,0,0-1.61-5.91,34.42,34.42,0,0,0-2.86-5.73,27.81,27.81,0,0,0-3.93-5.35c-.6-.62-1.13-1.1-1.52-1.45a18.33,18.33,0,0,0-3.49-2.77,17.33,17.33,0,0,0-5.9-2.24c-4.81-.4-8.83-.52-11.79-.53-7.28,0-9.65.48-10.9.8a28,28,0,0,0-8.32,3.76A62.38,62.38,0,0,1,36,85.25c-4.65,2.88-7,4.37-10.63,4.74a18.43,18.43,0,0,1-9-1.52,28.65,28.65,0,0,1-8.22-5.63,42.05,42.05,0,0,1-7.47-9.1c0,1.79-.08,3.59-.15,5.42,0,1.06-.08,2.12-.12,3.16a31.36,31.36,0,0,0,6.52,8.5,23.63,23.63,0,0,0,8.44,5.54,24.21,24.21,0,0,0,15.55.21A26.94,26.94,0,0,0,43.49,88.5,33.56,33.56,0,0,1,53,84.06a31.52,31.52,0,0,1,4.1-.9L58.79,83l8,.16c3.06.3,9.75,1.44,14.25,6.78A16.72,16.72,0,0,1,82.7,92.3a15.49,15.49,0,0,1,1.19,3c.26.81.59,1.91.92,3.24l.42,5.91a36,36,0,0,1-1,5.15,31.06,31.06,0,0,1-6.31,12.31,41.47,41.47,0,0,0-3.2,3.69,31,31,0,0,0-5.49,13L69,141.82c.23.75.6,1.89,1.16,3.26a35.26,35.26,0,0,0,1.54,3.26,11.2,11.2,0,0,0,.58,1L83.69,169" fill="#231f20"/>
                <polygon points="86.53 71.86 74.74 76.48 86.1 84.53 86.53 71.86" fill="#231f20"/>
                <g>
                  <rect width="137.52" height="32.11" fill="#231f20"/>
                  <rect x="134.07" width="35.95" height="169.25" fill="#231f20"/>
                </g>
              </g>
              <g id="_3" data-name=" 3">
                <path d="M60.75,169l5.65,0c-1.71-3.9-3.12-7-4.13-9.13-.68-1.46-1.16-2.47-1.67-3.49-1.34-2.68-2.26-4.24-2.83-5.49-1.85-4-2.71-10.65,2-21.76l.76-1.08a40,40,0,0,0,6-13.91c.33-1.49.58-3,.76-4.5a9.14,9.14,0,0,0-8.2-10h0a8.53,8.53,0,0,0-1.75,0c-1.08.12-2.12.26-3.11.47a34.16,34.16,0,0,0-10.74,4c-19.16,13.66-32.25,1.21-32.25,1.21a36.11,36.11,0,0,0-10.79-7v14.43c-.32,1-.21,1.9.23,2.16A.78.78,0,0,0,1,115a34.58,34.58,0,0,0,8.7,6.5A25.37,25.37,0,0,0,20.2,125a28.94,28.94,0,0,0,10.27-1.6s1-.42,6.9-3.87A59.89,59.89,0,0,1,43.86,116a2.4,2.4,0,0,1,1-.08,5.33,5.33,0,0,1,3.6,1.53c1.09,1.27.26,3.45-1.8,9-2.91,7.83-3.16,8.57-3.42,9.9a32,32,0,0,0-.18,9.18A53,53,0,0,0,50.62,169Z" fill="#fff"/>
                <ellipse cx="110.5" cy="77.53" rx="4.81" ry="4.68" fill="#fff"/>
                <path d="M89.31,60a4.69,4.69,0,1,0-4.8-4.69A4.75,4.75,0,0,0,89.31,60Z" fill="#fff"/>
                <path d="M25.5,61.14a5.79,5.79,0,1,0-6-5.79,5.87,5.87,0,0,0,5.95,5.79h.05Z" fill="#fff"/>
                <path d="M109.37,132.19a5.8,5.8,0,1,0,6,5.79,5.88,5.88,0,0,0-6-5.79Z" fill="#fff"/>
                <g>
                  <rect x="0.4" y="137.13" width="31.49" height="14.92" fill="#fff"/>
                  <rect x="17.22" y="152.04" width="14.67" height="16.66" fill="#fff"/>
                </g>
                <g>
                  <rect y="30.69" width="138.57" height="13.15" fill="#fff"/>
                  <rect x="125.43" y="32.29" width="13.15" height="136.76" fill="#fff"/>
                </g>
              </g>
            </g>
          </g>
        </g>
      </g>
    </g>
  </g>
</svg>
