<svg xmlns="http://www.w3.org/2000/svg" width="170.02" height="170.01" viewBox="0 0 170.02 170.01">
  <g id="Camada_2" data-name="Camada 2">
    <g id="Camada_1-2" data-name="Camada 1">
      <g id="Camada_2-2" data-name="Camada 2">
        <g id="Camada_1-2-2" data-name="Camada 1-2">
          <g id="Camada_2-2-2" data-name="Camada 2-2">
            <g id="Camada_1-2-2-2" data-name="Camada 1-2-2">
              <g id="Camada_2-2-2-2" data-name="Camada 2-2-2">
                <g id="Camada_1-2-2-2-2" data-name="Camada 1-2-2-2">
                  <g id="_1" data-name=" 1">
                    <rect x="0.18" width="168.98" height="31.66" fill="#231f20"/>
                    <path d="M169.16,138.29v-23a72.16,72.16,0,0,1-6.83,5.48,34.75,34.75,0,0,1-39.3,0l-1-.65a18.11,18.11,0,0,0-19.59-1.55,20.6,20.6,0,0,0-5.7,4.46c-4.27,4.52-17.24,15.25-33.38.16,0,0-11.24-11-27.72,1,0,0-17.81,11.84-35.46-4.42v18.58h169Z" fill="#231f20"/>
                    <path d="M35.68,90.94c16.48-12,27.72-1,27.72-1C79.54,105,92.51,94.3,96.78,89.78a20.6,20.6,0,0,1,5.7-4.46,18.4,18.4,0,0,1,19.64,1.5l1,.65a34.75,34.75,0,0,0,39.3,0A70.83,70.83,0,0,0,169.21,82V74.5a25.62,25.62,0,0,0-9.63,3.31c-7.9,5.55-17.11,4.73-23.4,3.11a31.56,31.56,0,0,1-9.94-4.63c-14.08-9.51-29,2.94-29,2.94-12.69,11.3-28.74,2.4-28.74,2.4C53.58,69.74,40.91,77.5,40.91,77.5,24,90.26,8,79.87.15,72.6V86.5C17.83,102.77,35.68,90.94,35.68,90.94Z" fill="#231f20"/>
                  </g>
                  <g id="_2" data-name=" 2">
                    <path d="M41,102.1S55.18,89,70.08,106c0,0,14.63,14.76,27.36-1.46,0,0,15-17.85,29.1-4.21a29.27,29.27,0,0,0,10,6.64c6.27,2.33,15.49,3.51,23.36-4.49,0,0,4.72-4.12,9.65-4.74V82a72.26,72.26,0,0,1-6.87,5.47,34.89,34.89,0,0,1-39.39,0l-1-.65a18.54,18.54,0,0,0-19.69-1.47,20.79,20.79,0,0,0-5.71,4.46c-4.21,4.54-17.21,15.25-33.44.16,0,0-11.26-11-27.78,1,0,0-17.85,11.84-35.54-4.42v17.21c8.55,5.86,24.55,12.79,40.81-1.68Z" fill="#939598"/>
                    <path d="M.18,72.6C8.18,79.87,24,90.26,41,77.52c0,0,12.72-7.79,27.65,4.13,0,0,16.08,8.9,28.81-2.4,0,0,15-12.45,29.1-2.94a32.43,32.43,0,0,0,10,4.63c6.27,1.58,15.49,2.42,23.36-3.11a25.51,25.51,0,0,1,9.65-3.33V44.81H.18v27.8Z" fill="#939598"/>
                    <polygon points="0.18 153.01 0.18 170.01 128.19 170.01 169.54 170.01 169.54 153.01 169.36 153.01 0.18 153.01" fill="#939598"/>
                  </g>
                  <g id="_3" data-name=" 3">
                    <path d="M136.57,107a28.89,28.89,0,0,1-10-6.64c-14.09-13.64-29.09,4.21-29.09,4.21C84.75,120.8,70.11,106,70.11,106,55.11,89,41,102.1,41,102.1,24.68,116.57,8.68,109.64.19,103.79v15.94c17.7,16.25,35.56,4.42,35.56,4.42,16.53-12,27.8-1,27.8-1C79.74,138.22,92.74,127.52,97,123a21.15,21.15,0,0,1,5.72-4.45,18.48,18.48,0,0,1,19.69,1.5l1,.65a34.92,34.92,0,0,0,39.41,0,66.92,66.92,0,0,0,6.79-5.42V97.8c-5,.62-9.66,4.74-9.66,4.74-7.87,8-17.1,6.8-23.4,4.48Z" fill="#fff"/>
                    <rect y="138.29" width="169.45" height="14.73" fill="#fff"/>
                    <rect y="138.29" width="169.45" height="14.73" fill="#fff"/>
                    <rect y="31.67" width="170.02" height="13.14" fill="#fff"/>
                    <ellipse cx="143.47" cy="62.27" rx="7.09" ry="7.08" fill="#fff"/>
                    <ellipse cx="84.73" cy="62.27" rx="7.09" ry="7.08" fill="#fff"/>
                    <ellipse cx="23.45" cy="62.27" rx="7.09" ry="7.08" fill="#fff"/>
                  </g>
                </g>
              </g>
            </g>
          </g>
        </g>
      </g>
    </g>
  </g>
</svg>
