<svg xmlns="http://www.w3.org/2000/svg" width="169.99" height="169.99" viewBox="0 0 169.99 169.99">
  <g id="Camada_2" data-name="Camada 2">
    <g id="Camada_1-2" data-name="Camada 1">
      <g id="Camada_2-2" data-name="Camada 2">
        <g id="Camada_1-2-2" data-name="Camada 1-2">
          <g id="Camada_2-2-2" data-name="Camada 2-2">
            <g id="Camada_1-2-2-2" data-name="Camada 1-2-2">
              <rect id="_2" data-name=" 2" y="42.43" width="127.32" height="127.56" fill="#939598"/>
              <g id="_1" data-name=" 1" fill="#231f20">
                <path d="M51.2,112.66a11,11,0,0,0,.68-2.45c.12-.27.25-.55.4-.84.26-.54,2.51-2.56,2.51-3.16a3.15,3.15,0,0,0-.55-1l-.17-.25-.77-1.11h0l-.11-.16h0c-.13-.18-.24-.34-.32-.47l-.06-.08-.12-.17v-.06h0c-.2-.41-.37-.75-.55-1l-.08-.13c-.13-.24-.27-.44-.39-.62l-.16-.21c-.1-.14-.21-.27-.32-.4l-.2-.24c-.14-.15-.28-.31-.44-.47-.18-.34-.33-.71-.55-1.06h0l-.07-.14-.1-.48v-.42l-.06-.26v-.19L49.71,97v-.15a.38.38,0,0,0-.08-.27c-.08-.08,0,0,0-.07a.57.57,0,0,0-.13-.21h0l-.21-.1h-.16l-.21-.06h-.21l-.31,0h-.17l-.5-.09h-.58l-.25-.06-.24-.09-1.07-.4L44.46,95a16.78,16.78,0,0,0-2.2-.64H42.1l-.34-.1h0l-.18-.06L41.22,94l-.29-.19-.1-.07-.23-.24c-.21-.14-.42-.28-.62-.39H39.9a1.28,1.28,0,0,0-.47-.18h0a1.86,1.86,0,0,0-.46.19h-.08l-.65.39-.33.23-.1.07-.08.06-.11.06-.11.07-.16.1-.27.16-.25.11-.31.12h0c-.72.15-1.42.34-2.12.56l-.22.08c-.63.21-1.27.43-1.93.7h-.12l-.4.06-.52.08H31l-.58.08H30.2l-.38,0h-.49l-.25.07H29a.59.59,0,0,0-.17.1v.33h0a8.05,8.05,0,0,0,.07,1.2v.87l.09,1h0v.07a17.55,17.55,0,0,0-1.1,1.74c-.09.15-.18.3-.26.46-.35.66-.69,1.34-1,2.08h0l-.05.12-.23.32c-.09.12-.19.25-.32.4l-.1.13a13.1,13.1,0,0,0-.92,1.29l-.2.31a1.05,1.05,0,0,0-.06.24c0,.28,2.82,2.32,2.94,2.58.28.53.55,1,.81,1.41a8.36,8.36,0,0,0,1.07,2.38c.25.36.11,2.48.41,2.8s3.32.77,3.83,1a11.84,11.84,0,0,0,3.93,1.27c.51.23,1.81,1.64,2.23,1.67h0a13.83,13.83,0,0,0,3-1.57,19.9,19.9,0,0,0,3.55-1c.58-.21,3.65-.09,4.08-.51s.81-3.51,1-3.91Z"/>
                <path d="M5.43,95.73c.58-.21,3.64-.09,4.08-.52a.31.31,0,0,0,.06-.13,1.48,1.48,0,0,1,.13-.35v-.06a2.91,2.91,0,0,0,.15-.58V94L10,93.3a3.21,3.21,0,0,1,.11-.52.34.34,0,0,0,0-.2V92.2a1.8,1.8,0,0,1,.09-.45.31.31,0,0,0,0-.19v-.27h0l.08-.23.27-.79a.26.26,0,0,1,.07-.22c.08-.27.14-.52.19-.77s0-.29.07-.43l.41-.85h0l.07-.15.3-.33.11-.13.15-.16.21-.24.1-.11.12-.14.34-.37.23-.25a3.33,3.33,0,0,0,.25-.28l.2-.24.19-.26.12-.17a1,1,0,0,0,.12-.32h0a.94.94,0,0,0,.2-.35l-.09-.15c-.08-.14-.16-.26-.25-.39l-.1-.17-.92-1.34-.11-.16-.07-.09-.22-.34-.14-.19-.1-.15v-.07h0c-.2-.41-.38-.75-.55-1,0-.06-.06-.1-.09-.15-.14-.22-.26-.42-.39-.61s-.11-.15-.16-.22L10.5,79l-.21-.23c-.14-.15-.28-.31-.44-.47h0a10.31,10.31,0,0,0-.51-1h0l-.09-.15L9,76.55,9,76.26v-.12a.62.62,0,0,0-.08-.37h0a2.54,2.54,0,0,0-.37-1.06l-.08-.08A23.64,23.64,0,0,0,5.8,74a31.19,31.19,0,0,0-4.54-1.46,1.73,1.73,0,0,1-.51-.18A3.29,3.29,0,0,1,.06,72V97.93c.63-.37,1.34-.84,1.85-1.13a21.73,21.73,0,0,0,3.55-1Z"/>
                <path d="M96.36,163.66c-.22-.57-.1-3.53-.53-4a.31.31,0,0,0-.13-.06l-.37-.13h-.06c-.2-.06-.4-.1-.6-.14H94.6l-.75-.15-.52-.1h-.22l-.11,0h-.24l-.45-.09h-.48l-.24-.07-.81-.27-.23-.07-.79-.18-.45-.07-.87-.39h0l-.16-.07-.36-.29-.13-.12-.17-.14-.25-.2-.1-.09-.15-.12-.38-.33-.26-.22a1.81,1.81,0,0,0-.3-.25l-.24-.19-.26-.19-.18-.11a.76.76,0,0,0-.33-.11h0a1.21,1.21,0,0,0-.32.11l-.16.08c-.12.07-.26.14-.41.24l-.18.1-1.39.9-.16.11-.09.06H82l-.19.13-.19.11h-.07c-.43.19-.78.36-1.09.53l-.15.09c-.23.13-.44.25-.62.37l-.23.17-.41.3-.23.19-.48.42h0a9.4,9.4,0,0,0-1,.51h0l-.15.08-.51.09h-.42l-.38.07h0a2.6,2.6,0,0,0-1.09.36l-.09.08a23.09,23.09,0,0,0-.7,2.72,29.84,29.84,0,0,0-1.55,4.4,1.45,1.45,0,0,1-.18.49,3.11,3.11,0,0,1-.4.68H98.62c-.38-.61-.87-1.31-1.18-1.79a18,18,0,0,0-1.07-3.44Z"/>
                <path d="M70.89,84.35a1.07,1.07,0,0,0-.15.22l-.12.2a1.59,1.59,0,0,1-.13.22v.08a.54.54,0,0,0,0,.18.36.36,0,0,0,.07.1l.06.14h0l.32.38.12.09.37.31.23.18.37.3.07.06.17.13.43.36.51.4v.09h0c.28.55.55,1,.81,1.42a10.21,10.21,0,0,0,.58,1.26h0a8.45,8.45,0,0,0,.63,1.14v.11l.08.15v1a7.12,7.12,0,0,0,.17,1.3v.08s0,.09.06.11c.39.41,3.32.77,3.83,1a12.17,12.17,0,0,0,3.93,1.28c.52.23,1.81,1.64,2.24,1.66h0a14.65,14.65,0,0,0,2.95-1.63,21.73,21.73,0,0,0,3.55-1c.38-.14,1.84-.13,2.91-.23a1.56,1.56,0,0,0,.22-.47h0l.18.09.39.23a.74.74,0,0,0,.34-.15c.31-.3.81-3.51,1-3.92a10.76,10.76,0,0,0,.67-2.44c.13-.26.26-.54.4-.85.26-.53,2.52-2.55,2.52-3.15,0-.44-2-3-2.19-3.42a9.66,9.66,0,0,0-2.14-3.11,10.72,10.72,0,0,0-.55-1.06c-.22-.36-.37-2.28-.7-2.57A16.71,16.71,0,0,0,92.38,74,32.14,32.14,0,0,0,88,72.57c-.17,0-.33-.13-.5-.18-.43-.11-1.9-1.33-2.36-1.33h0a19.58,19.58,0,0,0-2.39,1.39l-.55.24A24.53,24.53,0,0,0,77.93,74c-.45.18-3.07.33-3.4.69a1.51,1.51,0,0,0,0,.6v.33c0,.39.06.83.11,1.33l.12,1.12h0v.07a13.87,13.87,0,0,0-1.1,1.75c-.08.15-.18.3-.27.46-.35.66-.68,1.34-1,2.09h0l-.06.11-.22.31L72,83h0c-.06.08-.11.16-.18.24l-.11.14-.36.46-.12.16-.23.3Z"/>
                <path d="M26.17,64.54l.21.17.42.34.51.41.05.09h0c.28.54.55,1,.81,1.42a11.06,11.06,0,0,0,.43,1.22h0a5.94,5.94,0,0,0,.63,1.13v.11l.09.14v1.06h0v1a2.14,2.14,0,0,0,.06.35h0a.65.65,0,0,0,.11.22h0a.74.74,0,0,0,.28.14l.21.07.27.09.31.08.33.08.35.07.45.09h.51l.39.08h.18l.38.09.13.07h0l.32.15q.61.3,1.26.54H35c.44.15.88.25,1.35.36.29.06.58.13.89.17l.09.06h.12l.69.62.09.08.27.23.11.1.29.23h0a1.31,1.31,0,0,0,.53.29,1.55,1.55,0,0,0,.51-.18l.14,0,.63-.35.11-.07.82-.51.18-.12.52-.33h0a3.06,3.06,0,0,0,.73-.15h.17l.64-.16H44l.82-.26.3-.11.74-.27h0l.16-.06H49.6a1.3,1.3,0,0,0,.32-.14h0a1.87,1.87,0,0,0,.15-.32v-.19s.08-.29.12-.45v-.2l.15-.66v-.11a4.36,4.36,0,0,1,.16-.8v-.27l.11-.56v-.38h0l.1-.27c.1-.27.18-.52.25-.76l.07-.22c.07-.28.13-.53.18-.77s0-.29.07-.43.26-.55.41-.85h0l.07-.14.3-.33a1.34,1.34,0,0,0,.11-.14l.14-.15a1.75,1.75,0,0,1,.23-.24l.14-.16h0A13.92,13.92,0,0,0,54,63.23l.14-.21a.75.75,0,0,0,.09-.29c0-.43-2-3-2.18-3.41a9.66,9.66,0,0,0-2.14-3.11,11.86,11.86,0,0,0-.55-1.06c-.22-.35-.37-2.29-.71-2.57a18.15,18.15,0,0,0-2.71-.66,32.61,32.61,0,0,0-4.54-1.5,1.8,1.8,0,0,1-.51-.17c-.42-.1-1.89-1.33-2.36-1.33h0a19.58,19.58,0,0,0-2.39,1.39l-.55.23a26.26,26.26,0,0,0-4.26,1.32c-.46.19-3.07.34-3.41.7a25,25,0,0,0,.2,3.46,21,21,0,0,0-2.37,4.28c-.19.44-1.87,2.26-1.89,2.79h0a11,11,0,0,0,1.67,1.53Z"/>
                <path d="M65.11,142.47l.1-.05h0c.56-.27,1-.52,1.46-.77a8.14,8.14,0,0,1,1.26-.43h0a7.22,7.22,0,0,0,1.17-.61h.11l.15-.08h2l.36-.07h0a.83.83,0,0,0,.28-.28h0a.81.81,0,0,0,.15-.27,1.72,1.72,0,0,0,.07-.21,1.14,1.14,0,0,0,.09-.26.46.46,0,0,1,.08-.3c.08-.1,0-.22.08-.33s0-.22.07-.32a1.34,1.34,0,0,0,.1-.44v-.5c0-.06.06-.26.08-.38a.84.84,0,0,0,0-.17l.09-.37.07-.13h0l.16-.31c.2-.41.39-.82.55-1.22v-.11a11.58,11.58,0,0,0,.38-1.31c.06-.27.13-.56.18-.86l.06-.09v-.11l.63-.68.08-.08a2,2,0,0,0,.24-.26l.1-.11a2.09,2.09,0,0,0,.24-.28h0a1.13,1.13,0,0,0,.3-.53,1.51,1.51,0,0,0-.17-.49l-.07-.12-.37-.62-.07-.11c-.16-.26-.35-.53-.53-.79l-.11-.18-.34-.5h0A2.92,2.92,0,0,0,74,127v-.17q-.07-.3-.18-.6v-.14c-.08-.26-.17-.52-.27-.8a1,1,0,0,0-.11-.29c0-.08-.18-.47-.27-.72h0l-.06-.15v-2a1.6,1.6,0,0,0,0-.31v-.67a1.6,1.6,0,0,0,0-.31v-.21a.89.89,0,0,0-.15-.31h0a1.22,1.22,0,0,0-.33-.14l-.16,0-.47-.12h-.21l-.67-.14H71l-.84-.16h-.27l-.58-.11H69l-.27-.09-.8-.25-.23-.06-.79-.18-.45-.07-.87-.4h0l-.14-.07-.35-.29-.14-.1-.15-.13-.25-.22-.17-.14h0a11.13,11.13,0,0,0-1.52-1.22l-.27-.1a.75.75,0,0,0-.29-.09c-.44,0-3.12,2-3.53,2.11a10,10,0,0,0-3.2,2.08c-.37.17-.74.32-1.1.53s-2.36.36-2.65.68a16.1,16.1,0,0,0-.67,2.63,28.77,28.77,0,0,0-1.56,4.4,1.68,1.68,0,0,1-.17.49c-.12.41-1.38,1.84-1.38,2.29h0a17.81,17.81,0,0,0,1.44,2.31l.24.53a23.32,23.32,0,0,0,1.36,4.14c.19.43.35,3,.72,3.29a25,25,0,0,0,3.57-.19,21.54,21.54,0,0,0,4.42,2.29c.45.18,2.34,1.82,2.87,1.84h0a11.49,11.49,0,0,0,1.6-1.67l.18-.2.35-.4.42-.5Z"/>
                <path d="M103.72,117.92h-.07c-.42.19-.77.35-1.08.52l-.14.09c-.24.13-.44.26-.64.38l-.22.15c-.14.1-.28.2-.41.31l-.24.19c-.15.15-.32.28-.49.43-.36.17-.73.32-1.09.53h0l-.15.07-.5.09h-.43l-.32.06h-.2l-.29.07h-.14l-.28.08h0a.56.56,0,0,0-.27.39h0a1.28,1.28,0,0,0-.11.2v.14a.31.31,0,0,1-.06.21c-.06.08,0,.13,0,.2l-.06.31v.16a2.84,2.84,0,0,1-.1.49v.8l-.1.23a10.36,10.36,0,0,1-.41,1c-.16.34-.29.74-.43,1.11a13.26,13.26,0,0,0-1,2.12v.09h0v.07c0,.11-.08.21-.11.32h0l-.06.18-.25.35-.2.29-.07.09c0,.07-.11.14-.16.22s-.29.4-.4.59v.08A1.32,1.32,0,0,0,93,131h0a1.3,1.3,0,0,0,.2.45v.08c.11.19.26.4.4.62l.23.32.07.1.07.08.06.1.07.11.1.16.17.26.11.24.14.3h0a17.75,17.75,0,0,0,.57,2c0,.07.06.15.08.22.22.62.44,1.22.72,1.87h0v.25l.06.37a1.43,1.43,0,0,0,.07.51v.18a1.34,1.34,0,0,0,.08.56V140a.67.67,0,0,0,.07.37c.07.13,0,.17,0,.25v.22a1,1,0,0,0,.07.25v.06a.62.62,0,0,0,.11.17h.34a9.66,9.66,0,0,0,1.2-.07h.9l1-.09h.1a18.58,18.58,0,0,0,2,1l.46.25c.69.35,1.39.67,2.16,1h.12l.32.22a4.05,4.05,0,0,1,.43.31l.13.1a13.45,13.45,0,0,0,1.38,1l.32.16a.62.62,0,0,0,.23.07c.29,0,2.4-2.74,2.66-2.86.56-.27,1-.52,1.46-.77a9.15,9.15,0,0,0,2.47-1c.37-.25,2.55-.1,2.88-.4s.8-3.21,1.08-3.7a11.52,11.52,0,0,0,1.32-3.81c.23-.49,1.69-1.75,1.71-2.17h0a14.32,14.32,0,0,0-1.68-2.85,18.81,18.81,0,0,0-1.08-3.44c-.22-.56-.09-3.53-.53-4s-3.62-.78-4-.92a11.76,11.76,0,0,0-2.53-.65l-.87-.4c-.56-.24-2.64-2.43-3.26-2.43a3.45,3.45,0,0,0-1.08.55l-.24.15c-.36.22-.72.45-1.15.74h0l-.17.12h0l-.49.31-.08.06-.18.11Z"/>
                <g>
                  <rect y="134.66" width="34.54" height="11.71"/>
                  <rect x="22.76" y="146.37" width="11.78" height="22.5"/>
                </g>
                <g>
                  <rect x="135.43" y="22.66" width="11.77" height="146.21"/>
                  <rect y="22.66" width="135.42" height="11.71"/>
                </g>
              </g>
              <g id="_4" data-name=" 4">
                <path d="M3.24,99.9a27.21,27.21,0,0,0,3.18-1h.82a18,18,0,0,0,2.32-.21l1.19.77a65.37,65.37,0,0,1,8.63,7.2l3.15,3,.12-.18c.4.35.86.75,1.44,1.2l.61.48c.14.25.28.5.42.73a11,11,0,0,0,1,2.24v.27a5.17,5.17,0,0,0,1.14,3.6c1,1,2.33,1.3,4.18,1.68l.85.17a15.55,15.55,0,0,0,3.87,1.33l.13.11A5.46,5.46,0,0,0,39.72,123h.15c1.39,0,2.5-.7,4-1.66l.26-.16a27.26,27.26,0,0,0,3.18-1h1.27a11.35,11.35,0,0,0-.58,2.07,2,2,0,0,1-.09.48c-.12.33-.26.64-.38,1a21.69,21.69,0,0,0-1.22,3.59v.07l-.23.32A5.57,5.57,0,0,0,44.67,131v.23a6.64,6.64,0,0,0,1.55,3.22l.27.39h0A24.17,24.17,0,0,0,47.88,139a1.74,1.74,0,0,0,.08.6c.24,1.71.45,3.18,1.71,4.21s2.47.92,4.93.7a27.26,27.26,0,0,0,3.76,1.84l.5.37a19,19,0,0,0,1.69,1.12l1,1.83a60.88,60.88,0,0,0,8.56,10.84l1,1.1a.61.61,0,0,1,0,.19,2,2,0,0,1-.09.48c-.12.32-.26.64-.38,1a20.42,20.42,0,0,0-1.22,3.58v.07l-.23.33a10.66,10.66,0,0,0-1,1.65h4a3.11,3.11,0,0,0,.4-.68c0-.17.13-.32.18-.49a28.65,28.65,0,0,1,1.56-4.39,23,23,0,0,1,.64-2.57l.08-.08a2.74,2.74,0,0,1,1.11-.36h0l.37-.07h.13l.31-.07.51-.09.15-.08h0c.35-.19.7-.34,1-.5h0c.16-.16.32-.3.47-.43l.24-.19.41-.3a1.88,1.88,0,0,1,.23-.16l.62-.38.16-.09c.31-.17.66-.34,1.09-.53h.07l.19-.11.2-.12.34-.22.09-.07.17-.11c.44-.29,1-.62,1.39-.89l.18-.1.41-.24.16-.08a1.75,1.75,0,0,1,.32-.12h0a.7.7,0,0,1,.34.12H86l.27.19.24.19.3.24.26.22.39.33.14.12.11.1.32.22.16.14.14.1.36.29.16.07h0l.87.4.46.07a5.32,5.32,0,0,1,.79.18l.23.07.83.28.24.08h.48l.45.09h.62l.53.1.75.14h.07l.6.15h.06a1.63,1.63,0,0,1,.37.13l.13.06c.44.42.32,3.39.53,4a19.65,19.65,0,0,1,1.09,3.44c.31.49.8,1.19,1.18,1.79h3.82a10.84,10.84,0,0,0-1.55-2.62,2.2,2.2,0,0,1-.17-.25,23.91,23.91,0,0,0-1-3.07v-.78a15.31,15.31,0,0,0-.22-2.24l.81-1.15a63.4,63.4,0,0,1,7.47-8.32l3.14-3-.2-.11c.37-.39.77-.83,1.25-1.39.18-.21.35-.42.5-.58a3.72,3.72,0,0,1,.76-.41,12.13,12.13,0,0,0,2.31-1h.28a5.5,5.5,0,0,0,3.7-1c1.07-.94,1.35-2.25,1.74-4,.07-.29.13-.58.18-.81a14.76,14.76,0,0,0,1.38-3.74l.12-.12a5.18,5.18,0,0,0,1.81-3.3v-.15c0-1.33-.72-2.4-1.72-3.87-.06-.09-.11-.18-.17-.26a23.41,23.41,0,0,0-1-3.07,5.21,5.21,0,0,0,0-.79c-.1-1.93-.17-3.46-1.38-4.62-.92-.91-2-1.14-4.64-1.61l-.85-.16a18.7,18.7,0,0,0-2.54-.69l-.19-.08c-.18-.14-.39-.34-.61-.54-1.36-1.18-2.48-2.08-3.94-2.26L107,111.35c-2.28-2.25-5-7.09-7.52-13.61l-.14-.31c.81-.86,1.06-1.93,1.53-4.31.06-.33.11-.61.16-.81a15,15,0,0,0,.72-2.45.21.21,0,0,1,.08-.19l.55-.58c1.36-1.44,2.42-2.58,2.43-4.22,0-1.27-.61-2.19-2.11-4.3-.2-.28-.38-.52-.48-.69a12.8,12.8,0,0,0-2.32-3.46c-.07-.15-.16-.3-.23-.45l-.06-.41v-.19a42.93,42.93,0,0,1,9-5s6.94-4.37,7.74-9.28a2,2,0,0,0-1.63-2.3h0c-2.13-.32-6.11,0-10.8,5.31,0,0-1.62,3-6.73,7.55a10.49,10.49,0,0,0-2.51-.74l-.49-.1-1-.36a23,23,0,0,0-3.72-1.18H89.4L89,69a6,6,0,0,0-3.39-1.36h-.26A7.17,7.17,0,0,0,82,69.17l-.41.26h0a27.71,27.71,0,0,0-4.29,1.34l-.62.09a7.37,7.37,0,0,0-4,1.32,72.91,72.91,0,0,0-13-10.07l-1.3-.79a15.24,15.24,0,0,0-1.84-3c-.2-.29-.38-.53-.48-.7a13.5,13.5,0,0,0-2.32-3.47c-.07-.15-.16-.3-.23-.45l-.06-.34a5.33,5.33,0,0,0-1.58-3.44,7,7,0,0,0-3.41-1.23l-.46-.1-1-.36a22,22,0,0,0-3.72-1.18h-.07l-.34-.23a6,6,0,0,0-3.39-1.36h-.26A7.11,7.11,0,0,0,35.89,47l-.41.26h0a25.7,25.7,0,0,0-4.29,1.34l-.62.08c-1.77.23-3.3.43-4.37,1.64s-1,2.39-.72,4.76a23.83,23.83,0,0,0-2.09,3.59l-.38.48c-.42.53-.81,1.08-1.17,1.64l-1.9,1A62.24,62.24,0,0,0,8.76,69.94l-1.15,1H7.42l-.49-.1-1-.36a23,23,0,0,0-3.72-1.18H2.14l-.34-.22a11.18,11.18,0,0,0-1.71-1v4a2.93,2.93,0,0,0,.69.39,1.8,1.8,0,0,1,.51.17,30.53,30.53,0,0,1,4.57,1.5c.37.13,2.16.36,2.63.6l.08.09a2.6,2.6,0,0,1,.43,1H9a.67.67,0,0,0,.07.37v.41l.09.49.09.16h0c.2.32.35.66.52,1h0l.44.47c.07.08.13.16.2.23s.21.24.32.38a1.77,1.77,0,0,1,.16.22l.39.61.09.15c.18.3.35.64.55,1h0v.07l.12.18.13.19c.08.1.15.21.23.33l.06.1.12.16c.3.41.64.9.92,1.34a1,1,0,0,1,.11.17l.25.39.14.18a1,1,0,0,1,.12.32h0a1,1,0,0,1-.12.32l-.11.17c-.07.08-.12.17-.2.26l-.2.23a2.63,2.63,0,0,0-.25.29l-.23.25c-.11.12-.23.24-.34.37l-.13.14-.09.1-.22.24a1.15,1.15,0,0,0-.14.17l-.09.13-.3.33-.07.15h0c-.15.3-.28.58-.41.85s0,.29-.07.43A5.09,5.09,0,0,1,11,90a1.87,1.87,0,0,1-.07.22c-.07.24-.17.51-.27.78a.3.3,0,0,1-.08.24h0v.46a3.43,3.43,0,0,1-.09.44v.39a.29.29,0,0,1,0,.2,3.06,3.06,0,0,0-.1.51,3.88,3.88,0,0,1-.16.73.08.08,0,0,1,0,.07l-.14.57v.06a1.92,1.92,0,0,1-.14.36l-.06.13c-.44.42-3.52.3-4.1.51a19.77,19.77,0,0,1-3.56,1c-.51.3-1.24.78-1.86,1.13v3.77a11.5,11.5,0,0,0,2.92-1.49l.26-.17ZM46.41,117a20.91,20.91,0,0,1-3.56,1,15.26,15.26,0,0,1-3,1.63h0c-.42,0-1.73-1.44-2.24-1.66a12.48,12.48,0,0,1-4-1.28c-.51-.26-3.45-.63-3.85-1s-.15-2.44-.4-2.79a7.61,7.61,0,0,1-1.09-2.39c-.25-.41-.53-.88-.81-1.41-.13-.25-2.93-2.3-3-2.58a.46.46,0,0,1,.06-.23l.2-.32c.22-.35.51-.75.93-1.29l.1-.13a4.65,4.65,0,0,0,.32-.4l.23-.31v-.12h0c.32-.75.65-1.43,1-2.09.09-.16.18-.3.26-.45.35-.59.7-1.18,1.11-1.75h0l-.09-1v-.86c0-.46-.08-.89-.08-1.2h0a.53.53,0,0,1,0-.25.14.14,0,0,1,0-.09.4.4,0,0,1,.17-.09h.08a.77.77,0,0,1,.26-.07h.48l.39-.06h.22l.58-.08H31l.53-.07.39-.06H32c.66-.26,1.3-.5,1.93-.71l.23-.08a20,20,0,0,1,2.12-.54h0l.31-.13.26-.11.27-.17.16-.1.11-.07.11-.06.08-.06.1-.07.34-.22c.22-.15.44-.28.64-.39h.08a1.5,1.5,0,0,1,.47-.19h0a1.28,1.28,0,0,1,.47.18h.08c.19.11.41.24.63.39l.23.15.09.07.37-.06.36.25.19.06h0l.34.11h.16a15.42,15.42,0,0,1,2.21.62c.38.13.76.27,1.14.43l1.07.4.24.09h.83l.51.09h.17l.31.06h.21l.22.06h.15a.58.58,0,0,1,.21.1h0a.55.55,0,0,1,.14.22v.07a2,2,0,0,1,.08.26v.12l.06.28v.19l.07.32v.42l.09.47.08.14h0c.22.36.36.72.55,1.07l.44.47a2.2,2.2,0,0,1,.2.23c.11.13.22.26.32.4l.16.21c.13.18.26.4.4.62l.08.13c.18.3.35.64.55,1.06h0v.06l.12.17.06.08.32.46h0l.12.17h0c.3.42.54.77.77,1.11l.16.24a3.52,3.52,0,0,1,.56,1c0,.59-2.26,2.62-2.52,3.16l-.41.84a11.55,11.55,0,0,1-.67,2.45c-.16.4-.65,3.6-1,3.92s-3.53.3-4.1.5Zm18.07,26.49a11.74,11.74,0,0,1-1.61,1.62h0c-.54,0-2.43-1.65-2.89-1.83a22.52,22.52,0,0,1-4.44-2.3,26.21,26.21,0,0,1-3.54.15c-.38-.31-.53-2.84-.71-3.29a21.64,21.64,0,0,1-1.38-4.14c-.08-.18-.15-.34-.24-.52a17.92,17.92,0,0,1-1.44-2.32h0c0-.45,1.27-1.86,1.38-2.29,0-.17.13-.31.18-.48a28.88,28.88,0,0,1,1.56-4.41A15.73,15.73,0,0,1,52,121.1c.3-.33,2.28-.46,2.67-.68s.73-.36,1.1-.54a10.17,10.17,0,0,1,3.21-2c.41-.18,3.1-2.12,3.55-2.12a.75.75,0,0,1,.29.09L63,116a13.87,13.87,0,0,1,1.53,1.22h0l.17.14.3.23a1.07,1.07,0,0,0,.16.14l.13.11.35.29.15.06h0l.87.39.45.07.8.18.23.07.8.25.27.09h.4l.58.11h.27l.84.16h.11l.59.28h.21l.47.11h.16a1.22,1.22,0,0,1,.33.14h0a.83.83,0,0,1,.14.32.74.74,0,0,1,0,.21,1.5,1.5,0,0,1,0,.3v2.18a.48.48,0,0,0,0,.17v.61l.06.16h0c.11.26.19.49.27.72l.12.28c.1.28.19.55.27.8v.14c.06.21.13.41.18.62s0,.11,0,.16c.06.24.11.47.16.7h0l.34.51.58.26c.18.25.36.52.53.79a.44.44,0,0,0,.08.11c.14.22.26.42.36.61l.07.13a1.12,1.12,0,0,1,.18.49,1.05,1.05,0,0,1-.3.52h0l-.24.28-.11.11-.24.27-.08.09-.63.66v.11l-.07.09a3.83,3.83,0,0,1-.17.87,10.19,10.19,0,0,1-.39,1.3v.11a11.11,11.11,0,0,1-.55,1.22c0,.1-.1.21-.16.31h0l-.07.13-.09.38v.16a2.62,2.62,0,0,0-.09.38v.5a1.65,1.65,0,0,1-.1.44.46.46,0,0,1-.07.32c-.07.11,0,.22-.08.32s0,.22-.08.31a1.14,1.14,0,0,0-.09.26.27.27,0,0,1-.07.21.92.92,0,0,1-.16.27h0a.88.88,0,0,1-.22.1h0l-.37.06H70.84l-.84.08-.14.08h-.12a6.51,6.51,0,0,1-1.17.61h0a9.44,9.44,0,0,1-1.27.42,16.39,16.39,0,0,1-1.47.78h-.09l-.43.49L65,143l-.18.2ZM105,117.4h.06l.14-.1h0l1.16-.74.25-.16a3.65,3.65,0,0,1,1.08-.54c.61,0,2.71,2.19,3.27,2.43l.88.39a11.7,11.7,0,0,1,2.55.61c.42.15,3.75.61,4.07.92s.31,3.39.53,4a18.71,18.71,0,0,1,1.08,3.43,13.85,13.85,0,0,1,1.69,2.86h0c0,.41-1.48,1.67-1.72,2.16a11,11,0,0,1-1.32,3.81c-.27.49-.66,3.33-1.08,3.71s-2.53.14-2.9.39a8.61,8.61,0,0,1-2.48,1c-.43.26-.9.51-1.46.78-.26.13-2.38,2.83-2.68,2.85a.46.46,0,0,1-.23-.06l-.34-.19c-.46-.28-.9-.58-1.33-.9l-.13-.1-.43-.3-.32-.22-.13,0h0a19.2,19.2,0,0,1-2.16-1c-.17-.08-.31-.17-.47-.25a18.3,18.3,0,0,1-1.81-1.07h-.06l-1,.08h-.9c-.47,0-.92.07-1.24.07h-.34a.62.62,0,0,1-.11-.17V141a1.82,1.82,0,0,1-.07-.25.81.81,0,0,1,0-.22.42.42,0,0,0,0-.25.79.79,0,0,0-.07-.37v-.21a1.34,1.34,0,0,0-.08-.56v-.18a2.74,2.74,0,0,0-.07-.5l-.07-.38v-.12h0c-.27-.65-.51-1.25-.73-1.87,0-.07-.06-.15-.08-.22a17.75,17.75,0,0,1-.57-2h0l-.14-.31-.19-.24-.17-.26-.1-.15-.07-.12a.36.36,0,0,1-.07-.1l-.06-.08a.36.36,0,0,0-.07-.1c-.07-.11-.16-.21-.23-.32s-.29-.42-.41-.62v-.08a1.51,1.51,0,0,1-.2-.45h0a1.27,1.27,0,0,1,.19-.45v-.08c.12-.19.25-.39.41-.6l.15-.22.08-.09.2-.28.24-.36.07-.18h0c0-.11.07-.21.11-.32v-.06h0v-.05a13.13,13.13,0,0,1,.66-2.13c.13-.37.28-.73.44-1.11l.41-1,.1-.24V123l.09-.5v-.21l.06-.3v-.2l.14-.21v-.15a1.28,1.28,0,0,1,.11-.2h0a.5.5,0,0,1,.22-.13h.07l.28-.08h.15l.29-.06h.19l.33-.06H99l.5-.09.15-.07h0c.36-.21.74-.36,1.1-.54l.49-.42.24-.19c.14-.1.27-.21.42-.31l.21-.16c.19-.12.41-.25.65-.38l.13-.08c.32-.17.67-.34,1.1-.52h.06l.17-.11.09-.06c.13-.1.3-.2.49-.32Zm-.5-3.72-1.22.8c-.29.19-.54.35-.72.45A13.46,13.46,0,0,0,99,117.17l-.47.22-.37.06A5.7,5.7,0,0,0,94.6,119a6.35,6.35,0,0,0-1.33,3.3,2,2,0,0,1-.09.48l-.39,1a21.69,21.69,0,0,0-1.22,3.59v.07a2.35,2.35,0,0,1-.23.32A5.63,5.63,0,0,0,89.93,131v.23a6.64,6.64,0,0,0,1.55,3.22l.27.39h0A24.17,24.17,0,0,0,93.14,139q0,.3.09.6c.24,1.71.44,3.18,1.7,4.21s2.48.92,4.93.7a27.26,27.26,0,0,0,3.76,1.84l.5.37a18.09,18.09,0,0,0,1.65,1.09h0a70.83,70.83,0,0,0-7.89,8.8h0a9.82,9.82,0,0,0-2.43-.71H95.3l-1.16-.21c-.34-.06-.64-.11-.84-.16a18.44,18.44,0,0,0-2.55-.69l-.18-.08c-.18-.14-.39-.33-.62-.54-1.48-1.3-2.67-2.31-4.37-2.32-1.32,0-2.27.57-4.46,2l-.71.47a13.33,13.33,0,0,0-3.59,2.23l-.47.23-.36.06a6.22,6.22,0,0,0-3.3,1.29h0a59.64,59.64,0,0,1-8-10.13,5.67,5.67,0,0,0,1.15-.92h0c.17-.17.38-.38.58-.61s.48-.53.75-.85l.49-.58c.26-.14.52-.27.76-.41a11.91,11.91,0,0,0,2.32-1H71a5.6,5.6,0,0,0,3.73-1.11c1.08-1,1.36-2.25,1.75-4,.06-.3.13-.59.18-.82A14.76,14.76,0,0,0,78,134l.12-.12A5.1,5.1,0,0,0,80,130.58v-.15c0-1.33-.71-2.4-1.71-3.87l-.17-.26a22.8,22.8,0,0,0-1-3.06v-.8c-.1-1.93-.17-3.46-1.38-4.62-.93-.91-2-1.14-4.65-1.61l-.84-.16a18.44,18.44,0,0,0-2.55-.69l-.18-.08c-.17-.14-.34-.28-.5-.44a2.15,2.15,0,0,1-1.71-1.25l-.07-.12c-.1-.1-.2-.2-.31-.29a9.78,9.78,0,0,0-1.15-.62,7.11,7.11,0,0,0-1.37-.37h-.54a2.17,2.17,0,0,1-.58.36l-.08.13a15.17,15.17,0,0,0-3.14,1.77l-.71.45a14.41,14.41,0,0,0-3.22,2c.18-.63.35-1.39.55-2.43.06-.33.12-.63.16-.82a15.25,15.25,0,0,0,.72-2.45l.08-.18c.15-.17.35-.37.56-.59,1.22-1.3,2.17-2.39,2.35-3.8l1.21-1.14c2.33-2.2,7.35-4.77,14.12-7.25l1.34-.49a16.48,16.48,0,0,0,2.49.62l.84.17a15.23,15.23,0,0,0,3.88,1.33l.12.11A5.41,5.41,0,0,0,86,101.68h.16c1.38,0,2.49-.69,4-1.65l.26-.17a25.43,25.43,0,0,0,3.18-1h.82l1.41-.08h0v.12h.36c1.86,4.71,4.91,11.43,8.28,14.75ZM72,83.39l.1-.13.19-.24h0l.09-.12.23-.31v-.08h0c.32-.74.65-1.42,1-2.08l.27-.46c.35-.6.7-1.18,1.1-1.75h0l-.11-1.14c0-.5-.09-.93-.11-1.34v-.32a1.18,1.18,0,0,1,0-.59c.32-.38,3-.52,3.42-.7a22.79,22.79,0,0,1,4.28-1.32l.54-.24a20.49,20.49,0,0,1,2.4-1.39h0c.47,0,1.94,1.22,2.37,1.33l.62.08A32.06,32.06,0,0,1,93,74.08a18.27,18.27,0,0,1,2.72.66c.34.28.48,2.19.71,2.57s.36.7.55,1a10,10,0,0,1,2.15,3.11c.19.39,2.19,3,2.19,3.42S99,87.49,98.76,88c-.15.3-.28.59-.41.85a11.62,11.62,0,0,1-.67,2.44c-.16.41-.65,3.61-1,3.92a.74.74,0,0,1-.34.15c-.14-.08-.26-.16-.4-.23l-.17-.09h0a1.92,1.92,0,0,1-.21.46c-1.09.1-2.55.1-2.94.23a19.77,19.77,0,0,1-3.56,1,14.76,14.76,0,0,1-3,1.63h0c-.42,0-1.73-1.43-2.24-1.66a12.23,12.23,0,0,1-4-1.27c-.51-.26-3.45-.64-3.85-1l-.06-.11v-.07a7.1,7.1,0,0,1-.15-1.3V91.89l-.08-.14v-.11A8.49,8.49,0,0,1,75,90.47h0a11.06,11.06,0,0,1-.43-1.22c-.26-.42-.53-.88-.82-1.42h0v-.09l-.51-.4L72.81,87l-.17-.13-.07-.06-.38-.3L72,86.3c-.13-.11-.26-.21-.37-.32l-.12-.09-.35-.3L71,85.5l-.14-.16s-.07-.08-.07-.1a.54.54,0,0,1,0-.18V85l.13-.22L71,84.5l.15-.21.23-.3.12-.16.37-.47ZM26.5,60.16a21.84,21.84,0,0,1,2.38-4.28,22.24,22.24,0,0,1-.19-3.46c.32-.37,3-.52,3.42-.69a23.58,23.58,0,0,1,4.28-1.33l.55-.23a22,22,0,0,1,2.4-1.39h0c.47,0,1.94,1.23,2.37,1.34l.51.16a30.57,30.57,0,0,1,4.57,1.51,17.08,17.08,0,0,1,2.72.65c.34.28.48,2.2.71,2.57s.36.7.55,1.06a9.92,9.92,0,0,1,2.15,3.1c.19.4,2.19,3,2.19,3.42a.71.71,0,0,1-.09.28l-.14.21a13.66,13.66,0,0,1-1.27,1.47h0l-.15.16-.23.24-.13.15-.12.13-.3.33-.07.14h0l-.41.85a.93.93,0,0,1-.07.43,6.66,6.66,0,0,1-.19.77l-.06.22c-.07.24-.15.5-.26.78a.29.29,0,0,1-.09.25h0v.38a3.82,3.82,0,0,1-.11.57v.26a4.49,4.49,0,0,1-.17.81v.11a2.9,2.9,0,0,1-.14.65l-.06.2a1.43,1.43,0,0,1-.12.45v.16a.94.94,0,0,1-.15.32h0a.71.71,0,0,1-.32.14H46.85l-.15.07h0l-.75.26-.3.11c-.28.1-.57.18-.83.26h-.14L44,74h-.17l-.73.15h0l-.52.34-.19.11-.82.51-.11.07c-.21.13-.42.24-.64.35l-.13.06a1.54,1.54,0,0,1-.51.17,1.14,1.14,0,0,1-.54-.29h0l-.29-.23-.11-.1L39,74.87l-.09-.08-.7-.62H38.1l-.1-.06a4.85,4.85,0,0,1-.89-.16,12.73,12.73,0,0,1-1.34-.38h-.12A9.49,9.49,0,0,1,34.38,73l-.32-.15h0l-.14-.07-.38-.09h-.18L33,72.65h-.51L32,72.57l-.34-.07-.66.07-.32-.08-.27-.08-.21-.07a1.14,1.14,0,0,1-.29-.15h0a.62.62,0,0,1-.1-.22h0a.7.7,0,0,0-.06-.35V70.7h0V69.64l-.08-.14v-.11A7.24,7.24,0,0,1,29,68.25h0A11.06,11.06,0,0,1,28.57,67c-.26-.41-.53-.87-.81-1.42h0l-.06-.09-.51-.4-.42-.34-.24-.16a11.61,11.61,0,0,1-1.73-1.55h0c0-.52,1.72-2.35,1.91-2.78ZM12.74,96.69a8.4,8.4,0,0,0,.74-2.34V94.2c.07-.34.14-.71.23-1.12s.11-.61.16-.81a15.07,15.07,0,0,0,.72-2.46l.08-.18.55-.58c1.36-1.44,2.42-2.58,2.43-4.22,0-1.27-.61-2.19-2.11-4.3-.2-.28-.38-.52-.48-.69a12.8,12.8,0,0,0-2.32-3.46c-.07-.15-.16-.3-.23-.46l-.06-.36a5.77,5.77,0,0,0-1.34-3.18h0a59.8,59.8,0,0,1,10.51-7.71,5.21,5.21,0,0,0,.94,1.1h0c.18.18.4.38.63.57l.88.73.61.47c.14.25.28.5.42.73a11.52,11.52,0,0,0,1,2.24v.26a5.16,5.16,0,0,0,1.14,3.6c1,1,2.33,1.3,4.18,1.69l.85.17a16.06,16.06,0,0,0,3.87,1.31l.13.11a5.38,5.38,0,0,0,3.43,1.78h.16c1.38,0,2.49-.68,4-1.65l.26-.16a27.21,27.21,0,0,0,3.18-1h.82c2-.1,3.6-.17,4.8-1.33.94-.9,1.18-2,1.67-4.49.06-.32.12-.61.16-.8a14.51,14.51,0,0,0,.72-2.41l.08-.18.56-.59A19.91,19.91,0,0,0,57.69,65,67,67,0,0,1,71.37,75.79c0,.44.08.91.13,1.46a23.5,23.5,0,0,0-1.91,3.61l-.38.49c-1.08,1.37-2,2.57-1.89,4.14s1.09,2.33,3,3.85l.61.48c.13.26.28.51.42.74a11.17,11.17,0,0,0,1,2.23v.27a8.37,8.37,0,0,0,.27,2h0c-4.89,1.79-11.86,4.72-15.31,8-.24-.34-.5-.73-.82-1.17-.2-.28-.38-.52-.48-.69a12.6,12.6,0,0,0-2.32-3.45l-.23-.46-.06-.35a5.32,5.32,0,0,0-1.59-3.43,7.12,7.12,0,0,0-3.45-1.23l-.49-.09-1-.37a22.94,22.94,0,0,0-3.72-1.17h-.07l-.34-.22A5.94,5.94,0,0,0,39.35,89h-.26a7,7,0,0,0-3.33,1.46l-.41.26h0A27.49,27.49,0,0,0,31,92.11l-.62.08c-1.77.24-3.3.44-4.37,1.65s-1,2.38-.72,4.74a23.7,23.7,0,0,0-1.91,3.63c-.11.13-.24.31-.38.49a18.85,18.85,0,0,0-1.14,1.58h0a72.16,72.16,0,0,0-9.13-7.6h0Z" fill="#fff"/>
                <g>
                  <rect x="127.32" y="42.44" width="8.11" height="126.43" fill="#fff"/>
                  <rect y="34.37" width="135.43" height="8.06" fill="#fff"/>
                </g>
                <g>
                  <rect x="34.54" y="134.67" width="8.11" height="34.2" fill="#fff"/>
                  <rect y="126.61" width="42.66" height="8.06" fill="#fff"/>
                </g>
              </g>
              <g id="_3" data-name=" 3">
                <rect x="0.06" y="146.37" width="22.7" height="22.66" fill="#6d6e71"/>
                <g>
                  <rect width="169.99" height="22.66" fill="#6d6e71"/>
                  <rect x="147.2" y="22.66" width="22.79" height="146.21" fill="#6d6e71"/>
                </g>
              </g>
            </g>
          </g>
        </g>
      </g>
    </g>
  </g>
</svg>
