<svg xmlns="http://www.w3.org/2000/svg" width="100%" viewBox="0 0 170.01 170">
  <g id="Camada_2" data-name="Camada 2">
    <g id="Camada_1-2" data-name="Camada 1">
      <g id="Camada_2-2" data-name="Camada 2">
        <g id="Camada_1-2-2" data-name="Camada 1-2">
          <g id="_1" data-name=" 1">
            <path d="M19.73,59.39A26.38,26.38,0,0,1,41,70a26.57,26.57,0,0,1,37.18-5.37A27,27,0,0,1,80.93,67L96.27,56.42,111,55.94l2,2.38-1.73,18.2-8.59,11.87a25.22,25.22,0,0,1-3.54,38.53A25.32,25.32,0,0,1,96.72,170h38.74V34H0V68.18A26.37,26.37,0,0,1,19.73,59.4Z" fill="#231f20"/>
            <path d="M59.74,146.92A26.27,26.27,0,0,1,71,125.45,26.38,26.38,0,0,1,60.1,108.3,27.26,27.26,0,0,1,42.5,97.69a27.62,27.62,0,0,1-38.7,5.39A28.4,28.4,0,0,1,0,99.61V170H73.52A26.41,26.41,0,0,1,59.73,147Z" fill="#231f20"/>
            <rect x="0.01" y="146.78" width="21.18" height="23.19" fill="#231f20"/>
            <g>
              <rect x="0.01" width="170" height="23.38" fill="#231f20"/>
              <rect x="146.62" y="23.38" width="23.39" height="146.62" fill="#231f20"/>
            </g>
          </g>
          <g id="_3" data-name=" 3">
            <path d="M98.51,148.05,88.14,158.16a1.68,1.68,0,0,1-2.32,0L75.44,148.05a1.56,1.56,0,0,1,0-2.21l0,0,10.38-10.11a1.68,1.68,0,0,1,2.32,0L98.51,145.8a1.56,1.56,0,0,1,0,2.21Z" fill="#fff"/>
            <path d="M98.51,107.1,88.13,117.21a1.68,1.68,0,0,1-2.32,0L75.44,107.1a1.58,1.58,0,0,1,0-2.22l0,0,10.37-10.1a1.68,1.68,0,0,1,2.32,0l10.38,10.1a1.58,1.58,0,0,1,0,2.22Z" fill="#fff"/>
            <path d="M76.12,85.3,65.75,95.41a1.68,1.68,0,0,1-2.32,0L53.05,85.3a1.56,1.56,0,0,1,0-2.21l0,0L63.43,72.94a1.68,1.68,0,0,1,2.32,0L76.12,83.05a1.56,1.56,0,0,1,0,2.21S76.14,85.29,76.12,85.3Z" fill="#fff"/>
            <path d="M32.73,85.31,22.35,95.41a1.67,1.67,0,0,1-2.31,0L9.66,85.31a1.58,1.58,0,0,1,0-2.22l0,0L20,73a1.65,1.65,0,0,1,2.31,0L32.69,83.1A1.56,1.56,0,0,1,32.73,85.31Z" fill="#fff"/>
            <polygon points="23.23 169.97 34.8 169.97 34.8 135.23 0.01 135.23 0.01 146.78 23.23 146.78 23.23 169.97" fill="#fff"/>
            <polygon points="136.06 169.97 146.62 169.97 146.62 23.38 0.01 23.38 0.01 33.94 136.06 33.94 136.06 169.97" fill="#fff"/>
          </g>
          <g id="_2" data-name=" 2">
            <path d="M20.49,110.09A27.61,27.61,0,0,0,42.54,99.35a27.4,27.4,0,0,0,17.6,10.37,27.8,27.8,0,0,0,9.93,16.41,27.12,27.12,0,0,0-9.23,13.36c-.42,1.38-3.46,12.1,3.06,21.93A25.8,25.8,0,0,0,73.54,170h26.89a25.22,25.22,0,0,0,2.5-43.51,25.49,25.49,0,0,0,11.29-21,25.06,25.06,0,0,0-7.62-17.92l8.92-12,1.8-18.38-2.06-2.41-19,1.64L82,64.28c-3.65-2-11.72-5.8-21.47-4.87A27.29,27.29,0,0,0,50.29,62.2a26.86,26.86,0,0,0-8.12,6.34c-1-1.25-8.74-10.26-21.64-10.29A28.89,28.89,0,0,0,0,67.12v34.1A27.75,27.75,0,0,0,20.49,110.09Zm78,38.46-10.38,9.88a1.7,1.7,0,0,1-2.32,0l-10.38-9.88a1.51,1.51,0,0,1-.08-2.13l.08-.08,10.38-9.88a1.7,1.7,0,0,1,2.32,0l10.38,9.88a1.5,1.5,0,0,1,.1,2.13l-.08.08ZM85.81,94.5a1.7,1.7,0,0,1,2.32,0l10.38,9.88a1.51,1.51,0,0,1,.08,2.13l-.08.08-10.38,9.88a1.7,1.7,0,0,1-2.32,0l-10.38-9.88a1.51,1.51,0,0,1-.08-2.13l.08-.08ZM53,83.07l10.38-9.88a1.72,1.72,0,0,1,2.32,0l10.38,9.88a1.51,1.51,0,0,1,.08,2.13.6.6,0,0,1-.08.08L65.74,95.16a1.7,1.7,0,0,1-2.32,0L53,85.28a1.51,1.51,0,0,1-.08-2.13Zm-43.39,0L20,73.19a1.72,1.72,0,0,1,2.32,0L32.7,83.07a1.51,1.51,0,0,1,.08,2.13.6.6,0,0,1-.08.08L22.35,95.16a1.7,1.7,0,0,1-2.32,0L9.65,85.28a1.51,1.51,0,0,1-.08-2.13l.08-.08Z" fill="#939598"/>
          </g>
        </g>
      </g>
    </g>
  </g>
</svg>
