<svg xmlns="http://www.w3.org/2000/svg" width="170.07" height="170.05" viewBox="0 0 170.07 170.05">
  <g id="Camada_2" data-name="Camada 2">
    <g id="Camada_1-2" data-name="Camada 1">
      <rect id="_1" data-name="1" x="0.06" y="32.18" width="137.84" height="137.84" fill="#231f20"/>
      <g id="_4" data-name="4">
        <path d="M46.67,120.42a51,51,0,0,1-14.73-2.11s3.23,10.34,3.31,13.43c0,0,13.16,2.77,13.57,3.43C48.82,135.17,46.09,123.93,46.67,120.42Z" fill="#d1d3d4"/>
        <path d="M83.09,160a10.26,10.26,0,0,0-10.32,10.08H93.42A10.27,10.27,0,0,0,83.09,160Z" fill="#d1d3d4"/>
        <path d="M7.82,84A7.77,7.77,0,0,0,.07,76.29V91.72A7.78,7.78,0,0,0,7.82,84Z" fill="#d1d3d4"/>
      </g>
      <g id="_3" data-name="3">
        <rect x="0.09" y="149.93" width="20.08" height="20.08" fill="#6d6e71"/>
        <g>
          <rect x="0.06" width="149.91" height="20.1" fill="#6d6e71"/>
          <rect x="146.88" width="23.19" height="170.02" fill="#6d6e71"/>
        </g>
      </g>
      <g id="_2" data-name="2">
        <path d="M67.08,141.5a43.26,43.26,0,0,1-13.88-8.86s-2.65-9.85-1.74-17.59c0,0-9.68.08-15.8-1.14,0,0-8.67-7.36-13.43-16.8-1.55-.36-3.24-.83-5-1.4a11.5,11.5,0,0,0-1.52-.44,68.44,68.44,0,0,0,11.53,27.52c2.23,3.18,2.44,12.46,2.44,12.46A61.24,61.24,0,0,1,45,138.64a69,69,0,0,0,22.4,7.41,15,15,0,0,1-1-4.33l.63-.21Zm-31.83-9.76c-.08-3.09-3.31-13.43-3.31-13.43a51,51,0,0,0,14.73,2.11c-.58,3.51,2.15,14.75,2.15,14.75C48.41,134.52,35.25,131.74,35.25,131.74Z" fill="#939598"/>
        <path d="M97,145.42c40-12,24.17-57.29,24.17-57.29-1.73-11.47,3.67-16.09,5.57-17.35a.56.56,0,0,0-.08-1c-13-5.76-12,9.79-12,9.79-.52,5.87-4.66,3.19-4.66,3.19-4-3.19-5.7,1.91-5.7,1.91-3,11.35,8.94,16.82,8.94,16.82a4.09,4.09,0,0,1,1.55,5.48c-.78,1.65-3.37.51-3.37.51-4.47-3.22-4.11-6.39-14-4.82a5,5,0,0,0-2.13.81c-4.09,2.89-4,7.51-3.84,9.28a.59.59,0,0,0,.81.46,11.09,11.09,0,0,1,8.68.17,9.52,9.52,0,0,1,5.56,8.17c.19,12.56-5.59,17.45-11.19,19.28-.1,1-.33,2.72-.81,5.06,1.6-.27,2.51-.49,2.51-.49Z" fill="#939598"/>
        <path d="M18.26,73.41s.95-.41,2.27-.94c.9-6.25,5-14.6,20.4-14.38a9.66,9.66,0,0,1,8.3,5.47,10.66,10.66,0,0,1,.17,8.54.59.59,0,0,0,.47.8c1.8.2,6.48.25,9.43-3.78A4.8,4.8,0,0,0,60.12,67c1.6-9.69-1.63-9.34-4.9-13.73,0,0-1.17-2.55.52-3.32a4.26,4.26,0,0,1,5.57,1.53S66.88,63.23,78.4,60.3c0,0,5.18-1.65,1.94-5.61,0,0-2.72-4.07,3.24-4.58,0,0,15.8.92,10-11.86a.58.58,0,0,0-1-.08c-1.29,1.87-6,7.18-17.63,5.48,0,0-46.05-15.54-58.21,23.79a45,45,0,0,0-1.44,6.85,5.51,5.51,0,0,0,3-.87Z" fill="#939598"/>
        <g>
          <rect x="0.06" y="137.83" width="28.08" height="12.08" fill="#939598"/>
          <rect x="15.69" y="148.71" width="12.45" height="21.31" fill="#939598"/>
        </g>
        <rect x="0.06" y="20.1" width="146.64" height="12.08" fill="#939598"/>
        <rect x="133.38" y="32.18" width="13.5" height="137.87" fill="#939598"/>
      </g>
      <g id="_5-2" data-name="5">
        <path d="M7.38,116.44a10,10,0,0,0,3.75-3.28c3.53-5.33,1.15-14.26,1.15-14.26h0c-.87-3.93,1.66-4,3.42-3.63a11.5,11.5,0,0,1,1.52.44c1.78.58,3.47,1,5,1.4a57.72,57.72,0,0,0,8.34,1.39c.81-1.6-.24-7.26-.24-7.26,7.12-.71,13.11-6.53,13.11-6.53-3.08-3.83-14.09-5.82-14.09-5.82,1.46-3.9-.49-8.84-.49-8.84C27,70,23,71.43,20.53,72.45c-1.32.53-2.27.94-2.27.94a5.51,5.51,0,0,1-3,.87A3.64,3.64,0,0,1,12.19,72l1-8.13c1.3-9.32-7-8.21-7-8.21a7.41,7.41,0,0,0-.53-6.06A7.52,7.52,0,0,0,.06,46.06q0,15.11,0,30.21A7.77,7.77,0,0,1,7.82,84,7.78,7.78,0,0,1,.07,91.7L0,125.35a9.59,9.59,0,0,0,5.94-4A9.24,9.24,0,0,0,7.38,116.44Z" fill="#fff"/>
        <path d="M37.5,169.9l35.77.15c.06-4.68,4.48-8.45,9.92-8.45s9.85,3.77,9.91,8.45l36-.21a25.17,25.17,0,0,0-4.26-5.94,25.77,25.77,0,0,0-10.2-6.42l-12.26-.75h0c-7.48,1.42-4.1-5.39-4.1-5.39a61.39,61.39,0,0,0,2.46-8.06,53,53,0,0,0,1-5.62l.1-.88c-2-.88-9.32.26-9.32.26-.92-7.77-8.4-14.3-8.4-14.3-4.92,3.36-7.47,15.37-7.47,15.37-4-1.26-8.74-.19-10.57.3l-.79.23a15,15,0,0,0,1.22,4.8c1.28,3.31,3.08,6.76,3.08,6.76,3.37,5-1.85,6.62-1.85,6.62l-10.45-1.06c-1,0-5.29-.11-8.44,1.64a7.82,7.82,0,0,0-2.38,1.91,6.28,6.28,0,0,0-1.25,2.49A15.3,15.3,0,0,0,32.94,170Z" fill="#fff"/>
      </g>
    </g>
  </g>
</svg>
