<svg xmlns="http://www.w3.org/2000/svg" width="170" height="170" viewBox="0 0 170 170">
  <g id="Camada_2" data-name="Camada 2">
    <g id="Camada_1-2" data-name="Camada 1">
      <g id="_1" data-name="1">
        <rect width="169.99" height="170" fill="#231f20"/>
      </g>
      <g id="_2" data-name="2">
        <g>
          <path d="M36,119.91a48.85,48.85,0,0,0,7-9.37l0-.09a20.92,20.92,0,0,0,2.2-14.9A40.83,40.83,0,0,1,85,45.8a41.18,41.18,0,0,1,31.67,15.08,60.64,60.64,0,0,1,3.93-7A48.24,48.24,0,0,0,85,38.19,47.76,47.76,0,0,0,49.89,53.32,48.19,48.19,0,0,0,36.57,86.61a48.11,48.11,0,0,0,.52,7,24.27,24.27,0,0,1-5,19.25L32,113A40.71,40.71,0,0,1,.86,127.43c-.29,0-.57,0-.86,0V135A48.22,48.22,0,0,0,36,119.9Z" fill="#939598"/>
          <path d="M138.32,112.35a60.64,60.64,0,0,1-3.93,7A48.22,48.22,0,0,0,170,135V127.4a40.69,40.69,0,0,1-31.67-15.05Z" fill="#939598"/>
          <path d="M32,60.22a58.85,58.85,0,0,1,4-6.9A48.23,48.23,0,0,0,.86,38.19c-.29,0-.57,0-.86,0v7.58A40.7,40.7,0,0,1,32,60.22Z" fill="#939598"/>
          <path d="M134.38,53.88a48.41,48.41,0,0,0-6.89,9.53l0,.09a23.62,23.62,0,0,0-2.33,15.66,39.7,39.7,0,0,1,.7,7.45A40.84,40.84,0,0,1,85,127.44,40.24,40.24,0,0,1,53.88,113a58.85,58.85,0,0,1-4,6.9,48.43,48.43,0,0,0,83.51-33.3,46.21,46.21,0,0,0-.33-5.55c-.84-7.14.63-14.49,5.15-20.08l.09-.11A40.74,40.74,0,0,1,170,45.79v-7.6a48.26,48.26,0,0,0-35.61,15.69Z" fill="#939598"/>
          <polygon points="0 117.04 0 127.39 0 127.39 0 117.04 0 117.04" fill="#939598"/>
          <polygon points="0 134.96 0 145.86 0 145.86 0 134.96 0 134.96" fill="#939598"/>
          <polygon points="0 27.37 0 38.24 0 38.24 0 27.37 0 27.37" fill="#939598"/>
          <polygon points="0 45.81 0 56.18 0 56.18 0 45.81 0 45.81" fill="#939598"/>
        </g>
      </g>
      <g id="_3" data-name="3">
        <rect y="0.43" width="169.13" height="18.64" fill="#6d6e71"/>
        <rect y="150.93" width="169.13" height="18.64" fill="#6d6e71"/>
        <path d="M2.36,111.17,23.51,90a3.34,3.34,0,0,0,0-4.72L2.36,64.15a3.34,3.34,0,0,0-2.36-1v49A3.34,3.34,0,0,0,2.36,111.17Z" fill="#6d6e71"/>
        <path d="M146.48,85.3a3.34,3.34,0,0,0,0,4.72l21.15,21.15a3.34,3.34,0,0,0,2.36,1v-49a3.34,3.34,0,0,0-2.36,1Z" fill="#6d6e71"/>
        <rect x="66.27" y="69.36" width="36.59" height="36.59" rx="3.34" transform="translate(-37.21 85.47) rotate(-45)" fill="#6d6e71"/>
      </g>
      <g id="_4" data-name="4">
        <path d="M85,27.34A59.09,59.09,0,0,0,42.93,44.87,59.06,59.06,0,0,0,0,27.37V38.24c.29,0,.57,0,.86,0A48.23,48.23,0,0,1,36,53.33a58.85,58.85,0,0,0-4,6.9A40.7,40.7,0,0,0,0,45.81V56.18c.29,0,.57,0,.86,0A30.47,30.47,0,0,1,27.61,72a30.36,30.36,0,0,1,3.72,14.6,30.33,30.33,0,0,1-3.72,14.6A30.45,30.45,0,0,1,.86,117.08c-.29,0-.57,0-.86,0v10.35c.29,0,.57,0,.86,0A40.71,40.71,0,0,0,32,113l.09-.1a24.25,24.25,0,0,0,5-19.25A48.5,48.5,0,0,1,85,38.19a48.71,48.71,0,0,1,35.61,15.69,57.64,57.64,0,0,0-3.93,7A40.74,40.74,0,0,0,85,45.8,40.24,40.24,0,0,0,53.88,60.23a41.1,41.1,0,0,0-9.71,26.39,39.81,39.81,0,0,0,1,8.93,20.92,20.92,0,0,1-2.2,14.9l0,.09a48.24,48.24,0,0,1-7,9.37A48.21,48.21,0,0,1,0,135v10.9l.86,0a59.1,59.1,0,0,0,42.07-17.53,59.19,59.19,0,0,0,84.56-.48,59.07,59.07,0,0,0,42.5,18V135a48.2,48.2,0,0,1-35.61-15.61,57.64,57.64,0,0,0,3.93-7,40.73,40.73,0,0,0,31.67,15V117.08a30.48,30.48,0,0,1,0-61V45.77a40.72,40.72,0,0,0-31.67,15.08l-.09.11c-4.52,5.59-6,12.94-5.15,20.08a46.21,46.21,0,0,1,.33,5.55A48.58,48.58,0,0,1,131.47,100a48,48,0,0,1-4,9.76,48.82,48.82,0,0,1-6.89,9.53A48.24,48.24,0,0,1,85,135a47.76,47.76,0,0,1-35.09-15.13,58.85,58.85,0,0,0,4-6.9A40.71,40.71,0,0,0,85,127.42,40.72,40.72,0,0,0,123.49,100a40.2,40.2,0,0,0,1.61-20.9,23.61,23.61,0,0,1,2.33-15.66l0-.09a48.82,48.82,0,0,1,6.89-9.53A48.24,48.24,0,0,1,170,38.17V27.34a59,59,0,0,0-42.5,18,59.07,59.07,0,0,0-42.5-18Zm27.32,72.72a30.44,30.44,0,0,1-27.32,17,29.93,29.93,0,0,1-26.74-15.87A30.47,30.47,0,0,1,85,56.15a31,31,0,0,1,27.32,17,30.2,30.2,0,0,1,0,26.9Z" fill="#fff"/>
      </g>
    </g>
  </g>
</svg>
