<svg xmlns="http://www.w3.org/2000/svg" width="170.18" height="170.15" viewBox="0 0 170.18 170.15">
  <g id="Camada_2" data-name="Camada 2">
    <g id="Camada_1-2" data-name="Camada 1">
      <g id="Camada_2-2" data-name="Camada 2">
        <g id="_1" data-name="1">
          <rect x="0.18" width="170" height="169.96" fill="#231f20"/>
        </g>
        <g id="_2" data-name="2">
          <g>
            <path d="M65.34,146.71c-1.28-.47-2.54-1-3.77-1.54s-2.18-1-3.25-1.58l-.36-.18a60.1,60.1,0,0,1-6.52-4.06,105.56,105.56,0,0,0-21.17,30.58H40.44a64.45,64.45,0,0,1,24.9-23.23Z" fill="#939598"/>
            <path d="M37.47,125.43c1-1,2-2.15,3-3.27a37.83,37.83,0,0,0,2.58-3.38c.37-.53.78-1,1.13-1.56a51.42,51.42,0,0,0,7.07-17.15c.51-1.58.48-9.37.48-11.26a36.07,36.07,0,0,1,7.13-21.33A33.08,33.08,0,0,1,85.27,54.19c18.53,0,33.55,15.5,33.55,34.62a34.89,34.89,0,0,1-14.49,28.44,59.28,59.28,0,0,1,15.34,8.13c8.89-9.25,15.11-22.52,15.11-36.57,0-28.22-22.16-51.09-49.51-51.09A48.53,48.53,0,0,0,50.8,52.19a41.25,41.25,0,0,0-6.62,8.2c-8.84,15.24-7.59,26.52-7.59,28.45a35.76,35.76,0,0,1-.47,5.56,34.91,34.91,0,0,1-6.66,15.72A33.08,33.08,0,0,1,3,123.42c-1,0-1.88-.06-2.81-.14v16.47c.94.05,1.86.14,2.81.14A48.6,48.6,0,0,0,37.47,125.43Z" fill="#939598"/>
            <path d="M26.18,96.64a29.79,29.79,0,0,0,1.22-7.83A32.71,32.71,0,0,0,23,72.11c-2-3.79-4.8-8.92-10.87-12.42a25.31,25.31,0,0,0-12-3.31V116.8a22.19,22.19,0,0,0,8.09-.65C21.21,112.57,25.78,98,26.18,96.64Z" fill="#939598"/>
            <path d="M29.41,67.52a61.52,61.52,0,0,1,8.06-15.33A48.55,48.55,0,0,0,3,37.72c-1,0-1.87.09-2.81.14V54.33c.93-.07,1.86-.14,2.81-.14A33.11,33.11,0,0,1,29.41,67.52Z" fill="#939598"/>
            <path d="M85.27,63.6A24.51,24.51,0,0,0,62.06,81a26,26,0,0,0,0,15.66A24.41,24.41,0,0,0,93.24,112a25,25,0,0,0,15.11-31.67A24.51,24.51,0,0,0,85.27,63.6Z" fill="#939598"/>
            <path d="M112,132.16a54.22,54.22,0,0,0-26.71-8.74,57.43,57.43,0,0,1-9.64-1.79c-.29-.08-1.48-.48-1.79-.6a31.7,31.7,0,0,1-7-3.76,47.11,47.11,0,0,1-5.7-4.66c-.3-.33-.63-.64-.93-1a80.37,80.37,0,0,1-9.11,13.46l-.28.33a50.35,50.35,0,0,0,8.36,6.77,48.07,48.07,0,0,0,26.09,7.73,32.72,32.72,0,0,1,19.91,6.82A34.84,34.84,0,0,1,118.49,170h16.57A50.94,50.94,0,0,0,112,132.16Z" fill="#939598"/>
            <path d="M91,150a26.26,26.26,0,0,0-5.67-.71,35.68,35.68,0,0,0-22.34,6.32,34.51,34.51,0,0,0-11.58,14.52l57.9-.19A24.88,24.88,0,0,0,91,150Z" fill="#939598"/>
          </g>
        </g>
        <g id="_3" data-name="3">
          <path d="M82.72,77.21a10.35,10.35,0,0,0-2.74,7s-4.1-1.47-5.2-.58c0,0,.34,11,8.79,16.8,0,0,11.76-4.62,10.58-16.25a8.73,8.73,0,0,0-4.49.59s-.48-4.46-2.27-7.17a3,3,0,0,0-4.67-.34Z" fill="#6d6e71"/>
          <g>
            <path d="M93.91,170a3,3,0,0,0-.87-2,10.15,10.15,0,0,0-6.86-2.82s1.44-4.15.57-5.27c0,0-10.83.34-16.54,8.93,0,0,.18.47.55,1.19Z" fill="#6d6e71"/>
            <path d="M.18,100.3c1.62-.74,11.42-5.47,10.33-16.11A8.73,8.73,0,0,0,6,84.78s-.52-4.52-2.27-7.23a3,3,0,0,0-3.57-1Z" fill="#6d6e71"/>
          </g>
        </g>
        <g id="_4" data-name="4">
          <path d="M128,132.07a64.88,64.88,0,0,0,16.86-43.26c0-33.95-26.7-61.51-59.61-61.51A58.37,58.37,0,0,0,44.18,44.37,58.41,58.41,0,0,0,3,27.3c-1,0-1.87.13-2.81.13V37.86c1.08-.09,2.18-.13,3.3-.13,14.65,0,26.48,7.86,34,14.46a61.52,61.52,0,0,0-8.06,15.33,28.84,28.84,0,0,0-7.45-13c-6.46-6.4-14.31-7.78-17.4-8.28a33.45,33.45,0,0,0-4.38-.42V56.38a18.9,18.9,0,0,1,5.1.37C19.82,59.81,25.67,79.28,26.18,81a27.12,27.12,0,0,1,1.22,7.83,26.07,26.07,0,0,1-1.22,7.83c-2.23,7.25-9.07,18-19.94,20a20.21,20.21,0,0,1-6.06.17v10.58a26,26,0,0,0,4.26.05c14.66-1,23.88-14.39,25.32-16.56a45.79,45.79,0,0,0,6.31-16.5,48,48,0,0,0,.47-5.56c0-1.9-1.25-13.21,7.59-28.45a41.49,41.49,0,0,1,6.67-8.2A48.5,48.5,0,0,1,85.27,37.72c27.35,0,49.51,22.87,49.51,51.09,0,14-6.22,27.29-15.11,36.57a59.28,59.28,0,0,0-15.34-8.13,34.89,34.89,0,0,0,14.49-28.44c0-19.12-15-34.62-33.55-34.62A33.09,33.09,0,0,0,58.86,67.52a36.07,36.07,0,0,0-7.13,21.33c0,1.89,0,9.68-.48,11.26a51.42,51.42,0,0,1-7.07,17.11c-.35.54-.76,1-1.13,1.56-.83,1.16-1.67,2.29-2.58,3.38,0,0-1.33,1.62-3,3.27-2.95,2.91-14.4,9.52-32.19,9.68-2.23,0-4-.07-5.1-.13,0,3.63,0,7.26,0,10.89,1.82,0,3.68,0,5.59-.08A98.1,98.1,0,0,0,37.43,139l.76-.57a118.32,118.32,0,0,0-21,31.47l13.05.08a104.89,104.89,0,0,1,21.17-30.57A60.1,60.1,0,0,0,58,143.42l.36.18c1.07.56,2.14,1.09,3.25,1.58s2.49,1,3.77,1.54a39.43,39.43,0,0,0-24.9,23.22l12.7.06A36.17,36.17,0,0,1,62,158.42,44.92,44.92,0,0,1,79.6,150a24.75,24.75,0,0,1,5.68-.71A22.65,22.65,0,0,1,91,150,24.87,24.87,0,0,1,109.29,170l10.59,0c-3.67-14-10.23-20.28-14.7-23.29-4.3-2.9-9.19-6.81-19.94-6.82a48.06,48.06,0,0,1-26.06-7.73,50.16,50.16,0,0,1-8.38-6.73h.06v.06l.28-.33a79.88,79.88,0,0,0,9-13.52c.3.35.63.66.93,1a48.15,48.15,0,0,0,5.7,4.67,32.09,32.09,0,0,0,7,3.75c.31.12,1.5.52,1.79.6a57.43,57.43,0,0,0,9.64,1.79A54.22,54.22,0,0,1,112,132.2a38.56,38.56,0,0,1,8.39,6.74c9.5,10.65,8.56,25.52,7.94,30.91l11.52.06A50.15,50.15,0,0,0,128,132.07ZM85.27,114A24.5,24.5,0,0,1,62.06,96.64a26,26,0,0,1,0-15.66A24.4,24.4,0,0,1,93.23,65.61a25,25,0,0,1,15.13,31.66A24.52,24.52,0,0,1,85.27,114Z" fill="#fff"/>
          <g>
            <rect x="0.18" y="155.07" width="11.37" height="3.92" fill="#fff"/>
            <rect x="8.17" y="155.07" width="3.92" height="14.93" fill="#fff"/>
          </g>
          <g>
            <rect y="14.61" width="151.92" height="6.38" fill="#fff"/>
            <rect x="146.99" y="14.61" width="6.56" height="155.39" fill="#fff"/>
          </g>
        </g>
      </g>
    </g>
  </g>
</svg>
