<svg xmlns="http://www.w3.org/2000/svg" width="170.01" height="170.01" viewBox="0 0 170.01 170.01">
  <g id="Camada_2" data-name="Camada 2">
    <g id="Camada_1-2" data-name="Camada 1">
      <g id="_1" data-name="1">
        <polygon points="170 170.01 0 170.01 0 82.28 0 40.48 0 0 41.51 0 170 0 170 170.01" fill="#231f20"/>
      </g>
      <g id="_2" data-name="2">
        <rect y="20.1" width="170" height="12.08" fill="#939598"/>
        <rect y="137.83" width="170" height="12.08" fill="#939598"/>
        <path d="M110.82,115.54c48.39,9.18,39.64-38.7,39.64-38.7C151.21,35.06,85,43,85,43c-13.22,1.95-18.53-4.14-20-6.28a.66.66,0,0,0-1.14.09C57.23,51.46,75.15,50.39,75.15,50.39c6.75.59,3.67,5.26,3.67,5.26-3.67,4.52,2.2,6.42,2.2,6.42C94.09,65.44,100.4,52,100.4,52a4.78,4.78,0,0,1,6.31-1.75c1.91.88.59,3.8.59,3.8-3.7,5-7.36,4.64-5.55,15.74a5.69,5.69,0,0,0,.93,2.4c3.34,4.62,8.65,4.56,10.69,4.33a.67.67,0,0,0,.54-.91c-1.47-4.18-1-7.4.19-9.79a12,12,0,0,1,9.41-6.26c23.22-3.07,21.38,24,21.38,24C145.18,111,116,105.16,116,105.16c-25.1-5.11-17.76-32.27-17.76-32.27-12-.43-23-7.89-23-7.89-2.2-2.49-4.81-5.59-8.38-7.45A42.91,42.91,0,0,0,41.39,53.4C6.84,58,14.6,91.72,14.6,91.72,20,139,80.66,127.16,80.66,127.16c13.21-2,17.92,2.53,19.38,4.68a.67.67,0,0,0,1.14-.09c6.63-14.66-11.28-13.59-11.28-13.59-6.75-.59-3.67-5.26-3.67-5.26,3.67-4.52-2.2-6.42-2.2-6.42C71,103.11,64.65,116.55,64.65,116.55a4.78,4.78,0,0,1-6.31,1.75c-1.91-.87-.59-3.8-.59-3.8,3.7-5,7.36-4.63,5.55-15.74a5.64,5.64,0,0,0-.93-2.39C59,91.75,53.72,91.81,51.68,92a.67.67,0,0,0-.54.9c1.47,4.18,1,7.41-.19,9.79A12,12,0,0,1,41.54,109c-23.22,3.07-21.38-24-21.38-24-.29-27.45,28.92-21.61,28.92-21.61,25.1,5.11,17.76,32.27,17.76,32.27s14,2.63,21.43,7.15c0,0,17.19,11.7,22.54,12.72Z" fill="#939598"/>
      </g>
      <g id="_3" data-name="3">
        <rect width="170" height="20.1" fill="#6d6e71"/>
        <rect y="149.91" width="170" height="20.1" fill="#6d6e71"/>
      </g>
      <g id="_4" data-name="4">
        <polygon points="93.76 96.78 76.24 91.14 73.01 74.2 90.82 78.48 93.76 96.78" fill="#d1d3d4"/>
        <path d="M0,94.93a9.46,9.46,0,0,0,9.49-9.44A9.47,9.47,0,0,0,0,76.05V94.94Z" fill="#d1d3d4"/>
        <path d="M160.63,88.33A9.47,9.47,0,0,0,170,97.76V78.9A9.45,9.45,0,0,0,160.63,88.33Z" fill="#d1d3d4"/>
      </g>
      <g id="_5" data-name="5">
        <path d="M8.81,123.08c12.14-1.46,6.07-19.38,6.07-19.38-1.57-7.1,6-3.89,6-3.89A73.61,73.61,0,0,0,37,103.22c1-2-.29-8.86-.29-8.86,8.61-.88,15.86-8,15.86-8-3.72-4.68-17-7.11-17-7.11,1.76-4.77-.59-10.8-.59-10.8-3.52-.1-12.82,4.09-12.82,4.09-5.58,3.21-7.34-1.75-7.34-1.75L16,60.87c1.57-11.39-8.42-10-8.42-10C6.78,44.71,2.78,43.28,0,43v33a9.47,9.47,0,0,1,9.49,9.44A9.46,9.46,0,0,1,0,94.93v35.89C7.36,130.9,8.81,123.08,8.81,123.08Z" fill="#fff"/>
        <path d="M160.63,88.33A9.46,9.46,0,0,1,170,78.9V43c-7.25,0-8.69,7.74-8.69,7.74-12.14,1.46-6.07,19.38-6.07,19.38,1.57,7.1-6,3.89-6,3.89a73.61,73.61,0,0,0-16.15-3.41c-1,2,.29,8.86.29,8.86-8.61.88-15.85,8-15.85,8,3.72,4.68,17,7.11,17,7.11-1.76,4.77.59,10.8.59,10.8,3.52.1,12.82-4.09,12.82-4.09,5.58-3.21,7.34,1.75,7.34,1.75L154.17,113c-1.57,11.39,8.42,10,8.42,10,.74,6,4.64,7.5,7.42,7.78v-33a9.46,9.46,0,0,1-9.37-9.43Z" fill="#fff"/>
      </g>
    </g>
  </g>
</svg>
