<svg xmlns="http://www.w3.org/2000/svg" width="170.02" height="169.25" viewBox="0 0 170.02 169.25">
  <g id="Camada_2" data-name="Camada 2">
    <g id="Camada_1-2" data-name="Camada 1">
      <g id="Camada_2-2" data-name="Camada 2">
        <g id="Camada_1-2-2" data-name="Camada 1-2">
          <g id="_2" data-name="2"  fill="#939598">
            <rect x="0.39" y="152.76" width="13.08" height="16.28" fill="#939598"/>
            <path d="M43.48,104.27a33.85,33.85,0,0,1,10.74-4c1-.2,2-.35,3-.47h.38a8.94,8.94,0,0,1,9.76,8,8.24,8.24,0,0,1,0,1.72,1,1,0,0,1,0,.25V110c-.18,1.47-.44,2.92-.76,4.36a39.84,39.84,0,0,1-6,13.92l-.76,1.08a20.47,20.47,0,0,0-2,21.76,21.69,21.69,0,0,0,5.17,6.77A30.69,30.69,0,0,1,71,169l9.23-.2a7.94,7.94,0,0,0,1.9-5.65,8,8,0,0,0-2.92-5.53c-7.2-7.24-11.3-16.1-9.36-22.66a32.29,32.29,0,0,1,5.77-10.54,43.54,43.54,0,0,0,3.45-4,28.41,28.41,0,0,0,4.27-7.32,34.61,34.61,0,0,0,1.22-4.11c.09-.4.19-.79.27-1.2a24.3,24.3,0,0,0,0-9.31,22.36,22.36,0,0,0-6.71-11.93s-.41-.48-1-1.24A37.88,37.88,0,0,0,59.42,81.9a32.76,32.76,0,0,0-11.19,2.69,41.75,41.75,0,0,0-10.88,7S30.59,97.67,21.16,97c-9.66-.72-15.75-7.71-17.64-9.9a28.31,28.31,0,0,1-3.2-4.54L.38,98.45a36.18,36.18,0,0,1,5.71,3,35.59,35.59,0,0,1,5.08,4A24.39,24.39,0,0,0,21,110.19C32.6,112.75,42,105.48,43.48,104.27Z" fill="#939598"/>
            <path d="M123,45.93v-.74M.39,45.19V60.67a35.66,35.66,0,0,1,10.79,7s13.09,12.43,32.3-1.17v0s23.2-14.65,43.77,3.78L96.68,69l-1.26,9.58a32.25,32.25,0,0,1,3.83,5,38.67,38.67,0,0,1-.06,44.63l-.75,1.08a20.56,20.56,0,0,0-1.76,22.32,23.76,23.76,0,0,0,5.19,6.48,30.72,30.72,0,0,1,7.73,11H123V45.93m-13.58,97.83a5.79,5.79,0,1,1,6-5.79,5.87,5.87,0,0,1-6,5.79Zm1.13-70.92a4.69,4.69,0,1,1-4.8,4.73,4.73,4.73,0,0,1,4.76-4.73ZM89.32,50.67a4.69,4.69,0,1,1-4.8,4.68,4.73,4.73,0,0,1,4.79-4.68ZM25.51,49.56a5.8,5.8,0,1,1-6,5.79,5.88,5.88,0,0,1,6-5.79Z" fill="#939598"/>
            <rect x="0.68" y="45.19" width="126.57" height="123.85"/>
          </g>
          <g id="_1" data-name="1">
            <path d="M26,138.27V168.7" fill="#231f20"/>
            <path d="M45.87,168.88c1.82-5.85,2.07-10.45,1.4-11.64a14.32,14.32,0,0,0-.84-1.28,15.41,15.41,0,0,0-1.4-1.58,20.12,20.12,0,0,1-5.13-9.25A20.82,20.82,0,0,1,41.64,131l2.52-.1c-1.5-5.39-.84-7.92.12-9.23A11.47,11.47,0,0,0,46,117.76c.57-1.57-.22-2.46-1.88-2.07a30.37,30.37,0,0,0-11,5.25s-13,7.79-28.17-4.12a27,27,0,0,0-4.24-1.75V134.6a7.7,7.7,0,0,0-.28,3.53C2.49,151.07,31.17,159.77,32.11,158c.3-.56-1.94-2.65-2.71-2.28-.56.27-.13,1.71,0,4.14.26,5.29-1.34,7.86,0,8.86.24.18.41.18,3.06.18h3.6" fill="#231f20"/>
            <path d="M96.36,168.9A158.83,158.83,0,0,1,82.1,147.42c-1-1.86-2-3.71-2.92-5.53a11.35,11.35,0,0,1,.08-4.29c.73-3.48,2.89-5.24,5.27-8.24a41.14,41.14,0,0,0,5.45-9.3,39.75,39.75,0,0,0,3.4-12.26,31.39,31.39,0,0,0-.18-8,33,33,0,0,0-1.61-5.91,34.75,34.75,0,0,0-2.86-5.73,27.78,27.78,0,0,0-3.93-5.35c-.6-.62-1.13-1.1-1.52-1.45a18,18,0,0,0-3.49-2.77,17.51,17.51,0,0,0-5.9-2.24c-4.81-.4-8.83-.52-11.79-.53-7.28,0-9.65.48-10.9.8a27.73,27.73,0,0,0-8.32,3.76A62.59,62.59,0,0,1,36,85.25c-4.65,2.88-7,4.37-10.63,4.74a18.44,18.44,0,0,1-9-1.52c-2.87-1.16-4.69-2.67-8.22-5.63A78.4,78.4,0,0,1,.68,75.66c-.1,2.34-.2,4.67-.29,7a33.36,33.36,0,0,0,6.54,8.16,25.64,25.64,0,0,0,8.44,5.54,24.24,24.24,0,0,0,15.55.21A27,27,0,0,0,43.49,88.5,33.63,33.63,0,0,1,53,84.06a31.2,31.2,0,0,1,4.1-.9L58.79,83l8,.16c3.06.3,9.75,1.44,14.25,6.78a16.79,16.79,0,0,1,1.66,2.36,15.77,15.77,0,0,1,1.19,3c.26.81.59,1.91.92,3.24l.42,5.91a35.53,35.53,0,0,1-1,5.15,31.07,31.07,0,0,1-6.31,12.31,42.33,42.33,0,0,0-3.2,3.69,31,31,0,0,0-5.49,13L69,141.82c.23.75.6,1.89,1.16,3.26s1.12,2.47,1.54,3.26c.3.55.53.95.58,1,.69,1.2,3.26,6.38,9.55,19.47" fill="#231f20"/>
            <polygon points="86.53 71.86 74.74 76.48 86.1 84.53 86.53 71.86" fill="#231f20"/>
            <g>
              <rect width="137.52" height="32.11" fill="#231f20"/>
              <rect x="134.07" width="35.95" height="169.25" fill="#231f20"/>
            </g>
          </g>
          <g id="_3" data-name="3">
            <path d="M60.75,169l2.52-.24a17.9,17.9,0,0,0-1-8.85c-.28-.7-.74-1.63-1.67-3.49-1.34-2.68-2.26-4.24-2.83-5.49-1.85-4-2.71-10.65,2-21.76l.76-1.08a40.05,40.05,0,0,0,6-13.91c.33-1.49.58-3,.76-4.5a9.14,9.14,0,0,0-8.24-10,9.3,9.3,0,0,0-1.75,0c-1.08.12-2.12.26-3.11.47a34.09,34.09,0,0,0-10.74,4c-19.16,13.66-32.25,1.21-32.25,1.21a35.92,35.92,0,0,0-10.79-7v14.43c-.32,1-.21,1.9.23,2.16a.72.72,0,0,0,.37.09,34.51,34.51,0,0,0,8.7,6.5A25.27,25.27,0,0,0,20.2,125a29.09,29.09,0,0,0,10.27-1.6s1-.42,6.9-3.87A60.19,60.19,0,0,1,43.86,116a1.6,1.6,0,0,1,1-.08,1.86,1.86,0,0,1,.86.54c.47.53-2.83,8-4,10.89a37.17,37.17,0,0,0-2.36,13.21,22.12,22.12,0,0,0,.63,6.07c1.51,5.66,5,6.74,6.66,11,.85,2.27,1.34,5.84-.81,11.24Z" fill="#fff"/>
            <ellipse cx="110.5" cy="77.53" rx="4.81" ry="4.68" fill="#fff"/>
            <path d="M89.31,60a4.69,4.69,0,1,0-4.8-4.69A4.75,4.75,0,0,0,89.31,60Z" fill="#fff"/>
            <path d="M25.5,61.14a5.79,5.79,0,1,0-6-5.79,5.87,5.87,0,0,0,5.95,5.79Z" fill="#fff"/>
            <path d="M109.37,132.19a5.8,5.8,0,1,0,6,5.79,5.88,5.88,0,0,0-6-5.79Z" fill="#fff"/>
            <g>
              <rect x="0.4" y="138.13" width="29" height="14.64" fill="#fff"/>
              <rect x="13.47" y="152.77" width="15.93" height="15.93" fill="#fff"/>
            </g>
            <g>
              <rect y="32.29" width="124.64" height="12.89" fill="#fff"/>
              <rect x="118.23" y="32.29" width="15.84" height="136.76" fill="#fff"/>
            </g>
          </g>
        </g>
      </g>
    </g>
  </g>
</svg>
