<svg xmlns="http://www.w3.org/2000/svg" width="100%" viewBox="0 0 170 170">
  <g id="Camada_2" data-name="Camada 2">
    <g id="Camada_1-2" data-name="Camada 1">
      <g id="Camada_2-2" data-name="Camada 2">
        <g id="Camada_1-2-2" data-name="Camada 1-2">
          <g id="_1" data-name=" 1">
            <rect width="169.99" height="170" fill="#231f20"/>
          </g>
          <g id="_2" data-name=" 2">
            <g>
              <path d="M36,119.91a48.89,48.89,0,0,0,7-9.37v-.09a20.92,20.92,0,0,0,2.2-14.9A40.82,40.82,0,0,1,76.12,46.79a40.22,40.22,0,0,1,8.88-1,41.15,41.15,0,0,1,31.67,15.08,60,60,0,0,1,3.93-7A48.36,48.36,0,0,0,37.09,93.61a24.27,24.27,0,0,1-5,19.25L32,113A40.74,40.74,0,0,1,.86,127.43H0V135a48.21,48.21,0,0,0,36-15.1Z" fill="#939598"/>
              <path d="M138.32,112.35a60,60,0,0,1-3.93,7A48.23,48.23,0,0,0,170,135v-7.6a40.69,40.69,0,0,1-31.67-15.05Z" fill="#939598"/>
              <path d="M32,60.22a59.22,59.22,0,0,1,4-6.9A48.23,48.23,0,0,0,.86,38.19H0v7.58A40.68,40.68,0,0,1,32,60.22Z" fill="#939598"/>
              <path d="M134.38,53.88a48.19,48.19,0,0,0-6.89,9.53v.09a23.58,23.58,0,0,0-2.33,15.66,39.66,39.66,0,0,1,.7,7.45A40.83,40.83,0,0,1,85,127.44h0A40.23,40.23,0,0,1,53.88,113a59.22,59.22,0,0,1-4,6.9,48.43,48.43,0,0,0,83.51-33.3,46.83,46.83,0,0,0-.33-5.55c-.84-7.14.63-14.49,5.15-20.08l.09-.11A40.74,40.74,0,0,1,170,45.79v-7.6a48.23,48.23,0,0,0-35.61,15.69Z" fill="#939598"/>
              <polygon points="0 117.04 0 127.39 0 127.39 0 117.04 0 117.04" fill="#939598"/>
              <polygon points="0 134.96 0 145.86 0 145.86 0 134.96 0 134.96" fill="#939598"/>
              <polygon points="0 27.37 0 38.24 0 38.24 0 27.37 0 27.37" fill="#939598"/>
              <polygon points="0 45.81 0 56.18 0 56.18 0 45.81 0 45.81" fill="#939598"/>
            </g>
            <path d="M85,56.18A30.49,30.49,0,0,0,56.07,77.43a31.16,31.16,0,0,0,0,19.15A30.51,30.51,0,1,0,85,56.18Z" fill="#939598"/>
            <path d="M140.85,77.15a33.31,33.31,0,0,0,0,18.91c3.58,12.43,14.09,20.91,26,21a25.52,25.52,0,0,0,3.15-.22V56.4a25.52,25.52,0,0,0-3.15-.22C154.94,56.26,144.43,64.73,140.85,77.15Z" fill="#939598"/>
            <path d="M29.93,96.07a32.44,32.44,0,0,0,1.4-9.46,32.49,32.49,0,0,0-1.4-9.46c-3.68-12.44-14.47-20.93-26.7-21A26.82,26.82,0,0,0,0,56.37v60.47a24.92,24.92,0,0,0,3.23.22C15.46,117,26.24,108.51,29.93,96.07Z" fill="#939598"/>
          </g>
          <g id="_3" data-name="3">
            <path d="M83.23,77.19a10.34,10.34,0,0,0-2.74,7s-4.1-1.46-5.2-.58c0,0,.34,11,8.79,16.81,0,0,11.76-4.63,10.58-16.26a8.94,8.94,0,0,0-4.49.59s-.48-4.46-2.27-7.16a3,3,0,0,0-4.29-.68A2.43,2.43,0,0,0,83.23,77.19Z" fill="#6d6e71"/>
            <path d="M170,76.52a3,3,0,0,0-3.57,1c-1.75,2.71-2.27,7.23-2.27,7.23a8.73,8.73,0,0,0-4.49-.59c-1.09,10.64,8.71,15.37,10.33,16.11Z" fill="#6d6e71"/>
            <path d="M0,100.32c1.62-.74,11.42-5.47,10.33-16.11a8.73,8.73,0,0,0-4.49.59s-.52-4.52-2.27-7.23a3,3,0,0,0-3.57-1Z" fill="#6d6e71"/>
          </g>
          <g id="_4" data-name=" 4">
            <path d="M85,27.34A59.09,59.09,0,0,0,42.93,44.87,59.07,59.07,0,0,0,0,27.37V38.24H.86A48.21,48.21,0,0,1,36,53.33a59.22,59.22,0,0,0-4,6.9A40.67,40.67,0,0,0,0,45.81V56.18H.86A30.47,30.47,0,0,1,27.61,72a30.51,30.51,0,0,1,0,29.2A30.47,30.47,0,0,1,.86,117.08H0v10.35H.86A40.74,40.74,0,0,0,32,113l.09-.1a24.27,24.27,0,0,0,5-19.25,48.51,48.51,0,0,1,41-55,47.8,47.8,0,0,1,6.87-.5,48.73,48.73,0,0,1,35.61,15.69,58.58,58.58,0,0,0-3.93,7A40.74,40.74,0,0,0,85,45.8,40.25,40.25,0,0,0,53.88,60.23a41.08,41.08,0,0,0-9.71,26.39,40.08,40.08,0,0,0,1,8.93,20.92,20.92,0,0,1-2.2,14.9v.09a48.18,48.18,0,0,1-7,9.37A48.23,48.23,0,0,1,0,135v10.9H.86a59.11,59.11,0,0,0,42.07-17.53,59.19,59.19,0,0,0,83.71.38l.85-.86a59.06,59.06,0,0,0,42.5,18V135a48.19,48.19,0,0,1-35.61-15.61,58.58,58.58,0,0,0,3.93-7,40.72,40.72,0,0,0,31.67,15V117.08a30.5,30.5,0,0,1,0-61V45.77a40.72,40.72,0,0,0-31.67,15.08l-.09.11c-4.52,5.59-6,12.94-5.15,20.08a46.83,46.83,0,0,1,.33,5.55,49.1,49.1,0,0,1-5.93,23.17,48.89,48.89,0,0,1-6.89,9.53,48.2,48.2,0,0,1-70.67.58,59.22,59.22,0,0,0,4-6.9,40.7,40.7,0,0,0,69.58-13,40.16,40.16,0,0,0,1.61-20.9,23.58,23.58,0,0,1,2.33-15.66v-.09a48.89,48.89,0,0,1,6.89-9.53A48.25,48.25,0,0,1,170,38.17V27.34a59,59,0,0,0-42.5,18A59.06,59.06,0,0,0,85,27.34Zm27.32,72.72a30.45,30.45,0,0,1-27.32,17,29.92,29.92,0,0,1-26.74-15.87A30.47,30.47,0,0,1,85,56.15a31,31,0,0,1,27.32,17,30.23,30.23,0,0,1,0,26.9Z" fill="#fff"/>
            <rect y="155.09" width="169.99" height="3.92" fill="#fff"/>
            <rect y="14.63" width="170" height="6.56" fill="#fff"/>
          </g>
        </g>
      </g>
    </g>
  </g>
</svg>
