<svg xmlns="http://www.w3.org/2000/svg" width="170" height="170.5" viewBox="0 0 170 170.5">
  <g id="Camada_2" data-name="Camada 2">
    <g id="Camada_1-2" data-name="Camada 1">
      <g id="_1" data-name="1" fill="#231f20">
        <path d="M27,44.29a3,3,0,1,0,3.45,2.34A2.94,2.94,0,0,0,27,44.29Z" fill="#231f20"/>
        <path d="M54.25,133.87a3,3,0,0,0-3.43,2.37,2.92,2.92,0,0,0,2.56,3.27,2.86,2.86,0,1,0,.87-5.64Z" fill="#231f20"/>
        <path d="M118.34,138.55a3,3,0,1,0,3.44-2.35A2.92,2.92,0,0,0,118.34,138.55Z" fill="#231f20"/>
        <path d="M26.37,110.44A3,3,0,1,0,29.68,113,2.93,2.93,0,0,0,26.37,110.44Z" fill="#231f20"/>
        <path d="M17.8,170v0L0,169.9l17.79.1Z" fill="none" stroke="#231f20" stroke-miterlimit="10"/>
        <path d="M17.79,170l11.75,0-.05-.1H17.78s0,0,0,.06Z" fill="none" stroke="#231f20" stroke-miterlimit="10"/>
        <path d="M0,169.91l17.78.06a.21.21,0,0,0,0-.06Z" fill="none" stroke="#231f20" stroke-miterlimit="10"/>
        <path d="M25.59,140.21C23.11,158,29,168.93,29.49,169.9H47.42a7.55,7.55,0,0,1,15.08,0H82.41a4,4,0,0,1,8,0h23.87a7.55,7.55,0,0,1,15.08,0h10.73V29.34H0V41.78A7.51,7.51,0,0,1,7.3,49.23,7.51,7.51,0,0,1,0,56.68V76.34a4,4,0,0,1,3.75,4A4,4,0,0,1,0,84.24v23.57a7.51,7.51,0,0,1,7.29,7.45A7.51,7.51,0,0,1,0,122.71v16.2c6.13,3.34,25.58,1.32,25.58,1.32Zm55,25.53c-6.16.93-11.26-3.83-11.26-3.83.07-.85,2.44-1.89,2.44-1.89a6.77,6.77,0,0,1-2-4.23,1.72,1.72,0,0,1,2.11-1.8,13.81,13.81,0,0,1,4.2,2.27,4.91,4.91,0,0,1,1.62-2.12c5.72,4.66,2.86,11.59,2.86,11.59Zm24-2.78c-4.73,5.65-11.74,2.82-11.74,2.82-.94-6.08,3.88-11.12,3.88-11.12.86.07,1.92,2.42,1.92,2.42a6.91,6.91,0,0,1,4.28-2,1.71,1.71,0,0,1,1.82,2.08,13.38,13.38,0,0,1-2.3,4.15,4.89,4.89,0,0,1,2.15,1.6ZM33.16,110.48a.27.27,0,0,0,.41.18C56.69,96.12,64.11,87.3,66.48,82.94c3.3-3.89,6-12.69,8.12-21.77C70.15,57.82,59.66,52.61,35,47.46a.27.27,0,0,0-.33.31,11.63,11.63,0,0,0,5.45,6.89s2,1.88-.94,1.72c-1-.05-8.69-1.74-16.82,2.15,0,0-4.13-13.68-2.42-18.52,0,0,36.36,1,56.42,13,1.93-10.08,3-18.63,3-18.63,59.42,1.13,51.09,56.25,51.09,56.25s-7.67-.06-17.37.85c13.08,19.17,16,54.85,16,54.85-4.8,1.93-18.87-1.41-18.87-1.41a28,28,0,0,0,1.28-16.7c-.31-3,1.69-1,1.69-1a11.77,11.77,0,0,0,7.27,5,.26.26,0,0,0,.29-.33c-7-26-13.29-35.7-16.8-39.28-6.78,1-13.7,2.58-19.24,5-4.42,2.34-13.35,9.66-28.07,32.5a.26.26,0,0,0,.18.41,11.84,11.84,0,0,0,8.45-2.62s2.48-1.23,1.3,1.48c-.42.94-4.7,7.42-3.88,16.31,0,0-14.43-1-18.42-4.27,0,0,16.12-39,36.77-50.75,22-11.24,41.46-10.27,41.46-10.27-1-31.66-35-36.87-35-36.87.35,21.57-14,43.1-14,43.1-11.91,20.39-51.39,36.31-51.39,36.31-3.32-3.94-4.32-18.19-4.32-18.19a28.87,28.87,0,0,0,16.5-3.83c2.75-1.17,1.5,1.28,1.5,1.28a11.5,11.5,0,0,0-2.64,8.35ZM8.1,63.4C9,63.47,10,65.82,10,65.82a6.85,6.85,0,0,1,4.28-1.95A1.71,1.71,0,0,1,16.12,66a13.38,13.38,0,0,1-2.3,4.15A4.89,4.89,0,0,1,16,71.7c-4.73,5.65-11.74,2.82-11.74,2.82C3.29,68.44,8.11,63.4,8.11,63.4ZM7,98.18C1.32,93.52,4.18,86.59,4.18,86.59c6.16-.93,11.26,3.83,11.26,3.83-.07.85-2.45,1.9-2.45,1.9a6.73,6.73,0,0,1,2,4.22,1.72,1.72,0,0,1-2.11,1.8,13.58,13.58,0,0,1-4.2-2.27A4.83,4.83,0,0,1,7,98.19Z" fill="#231f20"/>
        <rect y="149.91" width="16.46" height="19.99" fill="#231f20"/>
        <g>
          <rect width="170" height="20.1" fill="#231f20"/>
          <rect x="146.91" y="20.1" width="23.09" height="149.8" fill="#231f20"/>
        </g>
        <rect y="32.18" width="137.83" height="137.82"/>
      </g>
      <g id="_2" data-name="2">
        <path d="M3.76,84.27a4,4,0,0,0-3.75-4v7.9A4,4,0,0,0,3.76,84.27Z" fill="#fff"/>
        <path d="M84.41,166.21a4,4,0,0,0-4,3.7h8A4,4,0,0,0,84.41,166.21Z" fill="#fff"/>
        <path d="M8.66,100.06a13.58,13.58,0,0,0,4.2,2.27,1.73,1.73,0,0,0,2.11-1.8,6.73,6.73,0,0,0-2-4.22s2.38-1,2.45-1.9c0,0-5.1-4.75-11.26-3.83,0,0-2.85,6.93,2.86,11.59a4.83,4.83,0,0,0,1.62-2.12Z" fill="#fff"/>
        <path d="M100.87,155.13a6.91,6.91,0,0,0-4.28,2s-1.06-2.35-1.92-2.42c0,0-4.81,5-3.88,11.12,0,0,7,2.82,11.74-2.82a4.89,4.89,0,0,0-2.15-1.6,13.38,13.38,0,0,0,2.3-4.15,1.72,1.72,0,0,0-1.82-2.08Z" fill="#fff"/>
        <path d="M16,75.69a4.89,4.89,0,0,0-2.15-1.6,13.38,13.38,0,0,0,2.3-4.15,1.72,1.72,0,0,0-1.82-2.08,6.91,6.91,0,0,0-4.28,2S9,67.46,8.1,67.39c0,0-4.81,5-3.88,11.12,0,0,7,2.82,11.74-2.82Z" fill="#fff"/>
        <path d="M74.09,156.27a13.81,13.81,0,0,0-4.2-2.27,1.73,1.73,0,0,0-2.11,1.8,6.77,6.77,0,0,0,2,4.23s-2.37,1-2.44,1.89c0,0,5.1,4.75,11.26,3.83,0,0,2.85-6.93-2.86-11.59a4.91,4.91,0,0,0-1.62,2.12Z" fill="#fff"/>
        <g>
          <rect x="20.1" y="137.83" width="12.08" height="32.17" fill="#fff"/>
          <rect x="0.02" y="137.83" width="20.08" height="12.08" fill="#fff"/>
        </g>
        <rect x="137.83" y="20.05" width="12.08" height="149.85" fill="#fff"/>
        <rect y="20.1" width="137.83" height="12.08" fill="#fff"/>
      </g>
      <g id="_3" data-name="3">
        <path d="M34.31,100.84a28.84,28.84,0,0,1-16.5,3.83s1,14.25,4.32,18.19c0,0,39.49-15.92,51.39-36.31,0,0,14.33-21.54,14-43.1,0,0,34,5.21,35,36.87,0,0-19.45-1-41.46,10.27-20.65,11.76-36.77,50.75-36.77,50.75,4,3.28,18.42,4.27,18.42,4.27-.82-8.88,3.46-15.36,3.88-16.31,1.19-2.7-1.3-1.48-1.3-1.48a11.85,11.85,0,0,1-8.45,2.62.27.27,0,0,1-.18-.41c14.72-22.83,23.65-30.16,28.07-32.5,5.54-2.4,12.46-4,19.24-5,3.5,3.58,9.76,13.25,16.8,39.28a.26.26,0,0,1-.3.33,11.82,11.82,0,0,1-7.27-5s-2-1.92-1.68,1a28,28,0,0,1-1.28,16.7s14.06,3.34,18.87,1.41c0,0-3-35.68-16-54.85,9.7-.91,17.37-.85,17.37-.85s8.31-55.11-51.1-56.25c0,0-1,8.55-3,18.63C56.26,41,19.91,40,19.91,40c-1.72,4.84,2.42,18.52,2.42,18.52,8.14-3.88,15.78-2.2,16.83-2.15,3,.15.94-1.72.94-1.72a11.65,11.65,0,0,1-5.45-6.89.26.26,0,0,1,.32-.31c24.7,5.15,35.19,10.36,39.64,13.71-2.09,9.08-4.83,17.88-8.12,21.77-2.37,4.36-9.78,13.18-32.91,27.72a.26.26,0,0,1-.41-.18,11.52,11.52,0,0,1,2.65-8.35s1.25-2.45-1.5-1.28Zm22.51,36.3a3,3,0,0,1-3.43,2.37,2.92,2.92,0,0,1-2.56-3.27,3,3,0,0,1,3.43-2.37A2.92,2.92,0,0,1,56.82,137.14Zm67.52,2.33a3,3,0,0,1-3.44,2.35,2.91,2.91,0,0,1-2.55-3.27,3,3,0,0,1,3.44-2.35A2.91,2.91,0,0,1,124.34,139.47Zm-96-89.31a3,3,0,0,1-3.45-2.34,2.91,2.91,0,0,1,2.2-3.52,3,3,0,0,1,3.44,2.34A2.92,2.92,0,0,1,28.31,50.16Zm-1,66.21A3,3,0,0,1,24,113.84a2.88,2.88,0,1,1,3.31,2.53Z" fill="#939598"/>
        <path d="M7.3,48.7A7.54,7.54,0,0,0,0,41.19v15A7.54,7.54,0,0,0,7.3,48.7Z" fill="#939598"/>
        <path d="M7.3,116.07A7.58,7.58,0,0,0,0,108.48v15.18A7.58,7.58,0,0,0,7.3,116.07Z" fill="#939598"/>
        <path d="M48.51,162.71a7.4,7.4,0,0,0-7.32,7.2H55.83A7.4,7.4,0,0,0,48.51,162.71Z" fill="#939598"/>
        <path d="M115.37,162.71a7.76,7.76,0,0,0-8,7.2h16A7.76,7.76,0,0,0,115.37,162.71Z" fill="#939598"/>
      </g>
    </g>
  </g>
</svg>
