<?xml version="1.0" encoding="UTF-8"?>
<svg xmlns="http://www.w3.org/2000/svg" viewBox="0 0 170 170">
  <defs>
    <style>
      .cls-1 {
        fill: #fff;
      }

      .cls-2 {
        fill: #939598;
      }

      .cls-3 {
        fill: #231f20;
      }
    </style>
  </defs>
  <g id="camada_1_preta" data-name="camada 1 preta">
    <polygon class="cls-3" points="18.93 -.27 13.03 -.27 0 -.27 0 174.27 170 174.27 170 158.82 170 154.84 18.93 154.84 18.93 -.27"/>
    <rect class="cls-3" x="145.57" y="-.27" width="24.43" height="24.43"/>
  </g>
  <g id="camada_2_cinza_50_" data-name="camada 2 cinza 50%">
    <polygon class="cls-2" points="170 -.27 170 24.16 170 37.34 132.39 37.34 132.39 -.27 127.23 -.27 81.59 45.63 125.11 91.75 170 45.63 170 -.27 170 -.27"/>
    <polygon class="cls-2" points="82.53 132.9 39.96 91.18 81.59 45.63 39.96 -.27 32.03 -.27 32.03 138.6 170 138.6 170 132.9 125.11 91.75 82.53 132.9"/>
  </g>
  <g id="camada_5_branca" data-name="camada 5 branca">
    <polygon class="cls-1" points="32.03 -.27 31.33 -.27 30.5 -.27 18.93 -.27 18.93 154.84 170 154.84 170 141.11 170 140.34 170 138.6 32.03 138.6 32.03 -.27"/>
    <polygon class="cls-1" points="170 37.34 170 24.16 145.57 24.16 145.57 -.27 132.39 -.27 132.39 37.34 170 37.34"/>
    <polygon class="cls-1" points="82.53 132.9 125.11 91.75 81.59 45.63 39.96 91.18 82.53 132.9"/>
    <polygon class="cls-1" points="127.23 -.27 108.45 -.27 102.61 -.27 97.88 -.27 94.16 -.27 91.03 -.27 88.85 -.27 81.14 -.27 81.14 -.27 80.97 -.27 72.51 -.27 71.51 -.27 70 -.27 62.15 -.27 60.3 -.27 57.46 -.27 48.64 -.27 46.76 -.27 42.6 -.27 39.96 -.27 81.59 45.63 127.23 -.27"/>
    <polygon class="cls-1" points="170 132.9 170 130.34 170 126.31 170 124.68 170 115.92 170 115.8 170 111.6 170 106.12 170 103.65 170 102.99 170 94.27 170 92.18 170 87.04 170 84.37 170 77.32 170 76.84 170 69.2 170 68.26 170 61.08 170 45.63 125.11 91.75 170 132.9"/>
  </g>
</svg>