<?xml version="1.0" encoding="UTF-8"?>
<svg xmlns="http://www.w3.org/2000/svg" viewBox="0 0 170 170">
  <defs>
    <style>
      .cls-1 {
        fill: #fff;
      }

      .cls-2 {
        fill: #939598;
      }

      .cls-3 {
        fill: #231f20;
      }
    </style>
  </defs>
  <g id="camada_1_preta" data-name="camada 1 preta">
    <polygon class="cls-3" points="170 170.44 0 170.44 0 82.26 0 40.25 0 -.44 41.51 -.44 170 -.44 170 170.44"/>
  </g>
  <g id="camada_2_cinza_50_" data-name="camada 2 cinza 50%">
    <rect class="cls-2" y="-.44" width="170" height="20.2"/>
    <rect class="cls-2" y="150.24" width="170" height="20.2" transform="translate(170 320.68) rotate(180)"/>
    <path class="cls-2" d="m152.39,83.39c7.02,7.02,11.87,11.87,17.61,17.61v-35.23c-5.74,5.74-10.6,10.6-17.61,17.61h0Z"/>
    <path class="cls-2" d="m0,101.3c5.88-5.88,10.77-10.77,17.91-17.91h0C10.77,76.24,5.88,71.35,0,65.47v35.82Z"/>
    <path class="cls-2" d="m64.6,57.99c-9.92,9.92-15.48,15.48-25.4,25.4h0c9.92,9.92,15.48,15.48,25.4,25.4h41.11c9.92-9.92,15.48-15.48,25.4-25.4h0c-9.92-9.92-15.48-15.48-25.4-25.4h-41.11Z"/>
  </g>
  <g id="camada_5_branca" data-name="camada 5 branca">
    <rect class="cls-1" y="19.76" width="170" height="12.14"/>
    <rect class="cls-1" y="138.11" width="170" height="12.14" transform="translate(170 288.35) rotate(180)"/>
    <path class="cls-1" d="m152.39,83.39h0c7.02-7.02,11.87-11.87,17.61-17.61v-16.26l-.35.35-14.67,14.67-10.72,10.72-2.51,2.51-2.51-2.51-25.4-25.4-3.37-3.37h-50.63l-3.37,3.37-12.7,12.7-12.7,12.7-2.51,2.51-2.51-2.51L.65,49.86,0,49.21v16.26c5.88,5.88,10.77,10.77,17.91,17.91h0C10.77,90.53,5.88,95.42,0,101.3v16.26l.65-.65,8.29-8.29,17.11-17.11,2.51-2.51,2.51,2.51,25.4,25.4,3.37,3.37h50.63l3.37-3.37,10.72-10.72,14.67-14.67,2.51-2.51,2.51,2.51,25.4,25.4.35.35v-16.26c-5.74-5.74-10.6-10.6-17.61-17.61Zm-21.29,0c-9.92,9.92-15.48,15.48-25.4,25.4h-41.11c-9.92-9.92-15.48-15.48-25.4-25.4h0c9.92-9.92,15.48-15.48,25.4-25.4h41.11c9.92,9.92,15.48,15.48,25.4,25.4h0Z"/>
  </g>
</svg>