<?xml version="1.0" encoding="UTF-8"?>
<svg xmlns="http://www.w3.org/2000/svg" viewBox="0 0 170 170">
  <defs>
    <style>
      .cls-1 {
        fill: #fff;
      }

      .cls-2 {
        fill: #231f20;
      }
    </style>
  </defs>
  <g id="camada_1_preta" data-name="camada 1 preta">
    <polygon class="cls-2" points="170 170.44 0 170.44 0 82.26 0 40.25 0 -.44 41.51 -.44 170 -.44 170 170.44"/>
  </g>
  <g id="camada_5_branca" data-name="camada 5 branca">
    <g>
      <rect class="cls-1" x="0" y="158.11" width="170" height="12.33"/>
      <rect class="cls-1" x="0" y="-.44" width="170" height="12.33"/>
      <path class="cls-1" d="m6.42,107.75c2.88,2.37,5.42,3.62,7.59,4.24,5.24,1.49,8.26-.82,8.26-.82-4.59-4.46-10.26-15.99-10.06-23.23,2.01-29.56,40.91-59.94,73.53-59.9,0,0,55.67-1.53,71.57,55.15,1.13,4.01,1.18,8.29-.06,12.27-1.9,6.11-5.61,12.61-8.79,15.71,0,0,3.02,2.31,8.26.82,2.17-.62,4.71-1.87,7.59-4.24,0,0,.85,2.89,2.83,4.51.35.29,1.54.71,2.83,1.09V25.14c-3.01,2.86-6.77,7.01-7.54,10.51,0,0-4.42-6.44-15.45-6.51,0,0,14.55,21.07,13.75,33.54C136.17,11.89,83.18,15.86,83.18,15.86c-41.22,1.76-61.39,25.2-73.18,46.83-.8-12.47,13.75-33.54,13.75-33.54-11.03.07-15.45,6.51-15.45,6.51-.83-3.8-5.2-8.38-8.29-11.22v89.14c1.57-.43,3.17-.96,3.59-1.31,1.99-1.62,2.83-4.51,2.83-4.51Z"/>
      <path class="cls-1" d="m128.31,125.24c-.33-.18-.67-.36-1.01-.54-2.75-1.51-5.86-2.62-9.19-2.93-3.26-.31-7.39-.08-11.83,1.67-2.32.91-4.32,2.26-6.1,3.74-2.32,1.93-7.06,5.19-13.41,6.28l.07-11.96s5.84-2.5,12.55-14.77c0,0,12.84-17.01,30.42-1.2,0,0,2.97-7.15-.77-13.42,0,0,10.08.22,13.37-5.86,0,0-3.62-6.4-13.35-7.53,0,0,3.23-7.4-4.4-14.52,0,0-4.07,6.3-13.56,13,0,0-15.26,10.8-18.03,33.33,0,0-2.73,6.63-5.55.27l-1.09-19.86s8.64-4.01,8.94-17.12c0,0,4.15-18.62,16.13-20.3,0,0-5.36-9.66-19.2,3.06,0,0-3.95-10.52-8.79-14.86,0,0-7.88,4.26-8.06,14.46,0,0-13.41-7.6-20.05,1.33,0,0,13.85,7.02,15.95,19.74,0,0,.49,12.45,8.7,13.63l.46,22.9s-5.27,2.13-6.26-6.26c0,0-.45-13.54-9.82-21.59,0,0-18.79-11.58-20.39-18.12,0,0-4.75,6.63-1.31,10.08,0,0-9.78,3.31-13.6,8.6,0,0,0,4.17,9.96,6.74,0,0-1.94,7.36.49,10.36,0,0,14.11-12.65,29.82,4.2,0,0,3.13,9.39,11.65,12.98l.02,13.01c-4.95-.28-10.56-2.03-16.6-6.45,0,0-12.02-9.2-29.66.86,0,0-16.99,8.85-34.8-1.66v14c9.56,4.38,24.86,7.9,40.42-2.97,0,0,15.14-11.03,31.07,3.31,0,0,15.61,12.38,29.2-1.23,0,0,16.01-14.98,31.08-3.53,3.09,2.35,6.58,4.4,10.62,5.57,6.72,1.95,16.57,2.92,24.97-3.75,0,0,1.05-.71,2.65-1.52v-10.92c-12.53,6.7-29.11,6.46-41.69-.22Z"/>
    </g>
  </g>
</svg>