<?xml version="1.0" encoding="UTF-8"?>
<svg xmlns="http://www.w3.org/2000/svg" viewBox="0 0 170 170">
  <defs>
    <style>
      .cls-1 {
        fill: none;
        stroke: #231f20;
        stroke-miterlimit: 10;
      }

      .cls-2 {
        fill: #fff;
      }

      .cls-3 {
        fill: #939598;
      }

      .cls-4 {
        fill: #231f20;
      }
    </style>
  </defs>
  <g id="camada_1_preta" data-name="camada 1 preta">
    <polygon class="cls-4" points="18.43 -.32 0 -.32 0 172.42 170 172.42 170 153.69 18.43 153.69 18.43 -.32"/>
    <path class="cls-4" d="m153.3,22.09s10.57-2.65,16.7-1.16V-.32h-17.84c.22.98,2.4,11.39,1.14,22.41Z"/>
    <path class="cls-4" d="m162.81,55.87c-10.04,1.21-5.02,16.11-5.02,16.11.87,3.99-1.66,4.06-3.42,3.69-.84-.18-1.52-.45-1.52-.45-1.78-.59-3.47-1.05-5.02-1.42-4.88-1.17-8.34-1.41-8.34-1.41-.81,1.62.24,7.37.24,7.37-7.12.73-13.11,6.64-13.11,6.64,3.08,3.89,14.09,5.91,14.09,5.91-1.46,3.97.49,8.99.49,8.99,1.91.05,5.83-1.41,8.34-2.44,1.32-.54,2.27-.96,2.27-.96,1.22-.71,2.21-.92,3.02-.88,2.25.12,3.05,2.33,3.05,2.33l-.97,8.26c-1.3,9.47,6.96,8.34,6.96,8.34.61,5.01,3.84,6.24,6.13,6.47v-27.44c-4.29-.05-7.75-3.54-7.75-7.84s3.46-7.79,7.75-7.84v-29.84c-6,.01-7.19,6.43-7.19,6.43Z"/>
    <path class="cls-4" d="m124.74-.32h-27.44c-.05,4.29-3.54,7.75-7.84,7.75s-7.79-3.46-7.84-7.75h-29.84c.01,6,6.43,7.19,6.43,7.19,1.21,10.04,16.11,5.02,16.11,5.02,5.91-1.3,3.24,4.94,3.24,4.94-.9,2.73-1.52,5.27-1.95,7.39-.48,2.38-.71,4.18-.81,5.15-.05.49-.08.81-.08.81,1.62.81,7.37-.24,7.37-.24.73,7.12,6.64,13.11,6.64,13.11,3.89-3.08,5.91-14.09,5.91-14.09,3.15,1.16,6.91.18,8.35-.27.38-.12.63-.21.63-.21.03-1.04-.41-2.7-.97-4.4-1.01-3.04-2.43-6.2-2.43-6.2-2.67-4.61,1.46-6.07,1.46-6.07l8.26.97c9.47,1.3,8.34-6.96,8.34-6.96,5.01-.61,6.24-3.84,6.47-6.13Z"/>
    <path class="cls-4" d="m123.4,50.11s7.69-.17,14.73,2.15c0,0-3.23-10.51-3.31-13.65,0,0-13.16-2.81-13.57-3.48,0,0,2.73,11.42,2.15,14.98Z"/>
  </g>
  <g id="camada_2_cinza_50_" data-name="camada 2 cinza 50%">
    <path class="cls-3" d="m89.46,7.43c4.3,0,7.79-3.46,7.84-7.75h-15.68c.05,4.29,3.54,7.75,7.84,7.75Z"/>
    <path class="cls-3" d="m144.32,29.86c2.49-18.11-3.37-29.2-3.92-30.19h-15.66c-.23,2.3-1.46,5.52-6.47,6.13,0,0,1.13,8.26-8.34,6.96l-8.26-.97s-4.13,1.46-1.46,6.07c0,0,1.43,3.16,2.43,6.2,7.16,1.14,14.91,3.38,22.4,7.53,0,0,6.53,2.62,15.34,3.45,0,0,.21,9.42,2.44,12.66,6.74,9.75,10.04,19.43,11.53,27.96,1.75.37,4.29.3,3.42-3.69,0,0-5.02-14.89,5.02-16.11,0,0,1.19-6.42,7.19-6.43v-18.23c-6.16-3.4-25.68-1.34-25.68-1.34Z"/>
    <path class="cls-3" d="m163.87,115.94s-8.26,1.13-6.96-8.34l.97-8.26s-.8-2.22-3.05-2.33c-.61,4.37-1.44,6.96-1.44,6.96-12.16,39.96-58.21,24.17-58.21,24.17-11.67-1.73-16.35,3.67-17.63,5.57-.25.37-.82.33-1-.08-5.85-13,9.95-12.05,9.95-12.05,5.96-.52,3.24-4.66,3.24-4.66-3.24-4.01,1.94-5.7,1.94-5.7,11.53-2.98,17.09,8.94,17.09,8.94,2.33,3.37,5.57,1.55,5.57,1.55,1.68-.78.52-3.37.52-3.37-3.27-4.47-6.5-4.11-4.9-13.95.12-.76.38-1.51.82-2.13,2.94-4.09,7.63-4.04,9.43-3.84.39.04.6.44.47.81-1.29,3.7-.86,6.56.17,8.68,1.54,3.18,4.77,5.5,8.3,5.56,15.43.23,19.5-8.26,20.4-14.61-2.5,1.02-6.43,2.49-8.34,2.44,0,0-1.94-5.02-.49-8.99,0,0-11.01-2.02-14.09-5.91,0,0,5.99-5.91,13.11-6.64,0,0-1.05-5.75-.24-7.37,0,0,3.46.24,8.34,1.41-4.76-9.58-13.43-17.07-13.43-17.07-6.12-1.24-15.8-1.16-15.8-1.16.91-7.86-1.74-17.87-1.74-17.87,0,0-5.74-5.91-13.88-9.01-1.44.46-5.21,1.43-8.35.27,0,0-2.02,11.01-5.91,14.09,0,0-5.91-5.99-6.64-13.11,0,0-5.75,1.05-7.37.24,0,0,.03-.32.08-.81-5.6,1.85-11.38,6.82-11.19,19.59.05,3.53,2.38,6.77,5.56,8.3,2.12,1.02,4.98,1.46,8.68.17.37-.13.76.09.81.47.2,1.8.25,6.48-3.84,9.43-.62.45-1.37.7-2.13.82-9.84,1.6-9.49-1.63-13.95-4.9,0,0-2.59-1.17-3.37.52,0,0-1.81,3.24,1.55,5.57,0,0,11.91,5.57,8.94,17.09,0,0-1.68,5.18-5.7,1.94,0,0-4.14-2.72-4.66,3.24,0,0,.94,15.8-12.05,9.95-.41-.18-.46-.75-.08-1,1.9-1.29,7.3-5.97,5.57-17.63,0,0-15.79-46.05,24.17-58.21,0,0,.92-.22,2.51-.5.43-2.12,1.05-4.66,1.95-7.39,0,0,2.67-6.23-3.24-4.94,0,0-14.89,5.02-16.11-5.02,0,0-6.42-1.19-6.43-7.19h-22.43v142.92h140.65v-20.19c-2.3-.23-5.52-1.46-6.13-6.47Z"/>
    <path class="cls-3" d="m162.25,87.12c0,4.3,3.46,7.79,7.75,7.84v-15.68c-4.29.05-7.75,3.54-7.75,7.84Z"/>
  </g>
  <g id="camada_5_branca" data-name="camada 5 branca">
    <polygon class="cls-2" points="29.35 -.32 18.43 -.32 18.43 153.69 170 153.69 170 142.6 29.35 142.6 29.35 -.32"/>
    <path class="cls-1" d="m152.14-.42s0,.03,0,.04l17.85.06-17.86-.1Z"/>
    <path class="cls-1" d="m152.15-.38l-11.8-.04s.03.05.05.1h11.76s0-.05-.01-.06Z"/>
    <path class="cls-2" d="m153.3,22.09c1.26-11.02-.92-21.42-1.14-22.41h-11.76c.55.99,6.4,12.08,3.92,30.19,0,0,19.52-2.06,25.68,1.34v-10.28c-6.13-1.49-16.7,1.16-16.7,1.16Z"/>
    <path class="cls-1" d="m170-.32l-17.85-.06s0,.03.01.06h17.84Z"/>
    <path class="cls-2" d="m102.99,28.69c8.13,3.11,13.88,9.01,13.88,9.01,0,0,2.65,10.01,1.74,17.87,0,0,9.68-.08,15.8,1.16,0,0,8.67,7.48,13.43,17.07,1.55.37,3.24.84,5.02,1.42,0,0,.68.27,1.52.45-1.49-8.53-4.8-18.2-11.53-27.96-2.23-3.24-2.44-12.66-2.44-12.66-8.82-.83-15.34-3.45-15.34-3.45-7.49-4.15-15.24-6.39-22.4-7.53.56,1.7,1,3.36.97,4.4,0,0-.26.09-.63.21Zm31.83,9.92c.08,3.14,3.31,13.65,3.31,13.65-7.03-2.32-14.73-2.15-14.73-2.15.58-3.56-2.15-14.98-2.15-14.98.41.66,13.57,3.48,13.57,3.48Z"/>
    <path class="cls-2" d="m73.1,24.71c-39.96,12.16-24.17,58.21-24.17,58.21,1.73,11.66-3.67,16.35-5.57,17.63-.37.25-.33.82.08,1,13,5.85,12.05-9.95,12.05-9.95.52-5.96,4.66-3.24,4.66-3.24,4.01,3.24,5.7-1.94,5.7-1.94,2.98-11.53-8.94-17.09-8.94-17.09-3.37-2.33-1.55-5.57-1.55-5.57.78-1.68,3.37-.52,3.37-.52,4.47,3.27,4.11,6.5,13.95,4.9.76-.12,1.51-.38,2.13-.82,4.09-2.94,4.04-7.63,3.84-9.43-.04-.39-.44-.6-.81-.47-3.7,1.29-6.56.86-8.68-.17-3.18-1.54-5.5-4.77-5.56-8.3-.19-12.77,5.59-17.74,11.19-19.59.1-.97.33-2.77.81-5.15-1.6.28-2.51.5-2.51.5Z"/>
    <path class="cls-2" d="m151.81,97.88s-.95.42-2.27.96c-.9,6.35-4.98,14.83-20.4,14.61-3.53-.05-6.77-2.38-8.3-5.56-1.02-2.12-1.46-4.98-.17-8.68.13-.37-.09-.76-.47-.81-1.8-.2-6.48-.25-9.43,3.84-.45.62-.7,1.37-.82,2.13-1.6,9.84,1.63,9.49,4.9,13.95,0,0,1.17,2.59-.52,3.37,0,0-3.24,1.81-5.57-1.55,0,0-5.57-11.91-17.09-8.94,0,0-5.18,1.68-1.94,5.7,0,0,2.72,4.14-3.24,4.66,0,0-15.8-.94-9.95,12.05.18.41.75.46,1,.08,1.29-1.9,5.97-7.3,17.63-5.57,0,0,46.05,15.79,58.21-24.17,0,0,.83-2.6,1.44-6.96-.81-.04-1.8.17-3.02.88Z"/>
  </g>
</svg>