<?xml version="1.0" encoding="UTF-8"?>
<svg xmlns="http://www.w3.org/2000/svg" viewBox="0 0 170 170">
  <defs>
    <style>
      .cls-1 {
        fill: #fff;
      }

      .cls-2 {
        fill: #939598;
      }

      .cls-3 {
        fill: #231f20;
      }
    </style>
  </defs>
  <g id="camada_1_preta" data-name="camada 1 preta">
    <polygon class="cls-3" points="170 170.44 0 170.44 0 82.26 0 40.25 0 -.44 41.51 -.44 170 -.44 170 170.44"/>
  </g>
  <g id="camada_2_cinza_50_" data-name="camada 2 cinza 50%">
    <g>
      <path class="cls-2" d="m81.07,72.62C64.76,51.99,15.17,44.14,15.17,44.14c-2.54,5.09,0,20.75,0,20.75,9.4-3.13,17.47-.2,18.6,0,3.23.59,1.27-1.76,1.27-1.76-3.88-2.91-4.75-7.02-4.94-8.36-.03-.21.19-.36.39-.29,30.71,10.74,40.07,18.84,42.93,22.66,1.93-2.29,4.6-3.91,7.66-4.51Zm-58.22-16.12c-1.74.14-3.27-1.23-3.42-3.07-.15-1.83,1.15-3.43,2.89-3.57s3.27,1.23,3.42,3.07c.15,1.83-1.15,3.43-2.89,3.57Z"/>
      <path class="cls-2" d="m94.79,78.4c3.41-4.32,13.13-12.52,40.93-23.96.2-.08.42.06.41.27-.12,1.35-.77,5.5-4.48,8.62,0,0-1.83,2.45,1.37,1.69,1.11-.26,9.02-3.62,18.57-1,0,0,1.7-15.77-1.12-20.72,0,0-45.73,9.8-62.57,29.79,2.85.96,5.27,2.85,6.9,5.32Zm48.83-29c1.75.04,3.13,1.57,3.08,3.41-.05,1.84-1.5,3.29-3.25,3.25-1.75-.04-3.13-1.57-3.08-3.41.05-1.84,1.5-3.29,3.25-3.25Z"/>
      <path class="cls-2" d="m152.71,103.82c-9.25,3.54-17.45.97-18.58.82-3.25-.44-1.19,1.82-1.19,1.82,4,2.74,5.06,6.8,5.31,8.14.04.21-.17.37-.38.31-31.12-9.37-40.85-17.05-43.88-20.74-1.89,2.33-4.56,4.01-7.6,4.65,17.06,20.04,67.24,25.74,67.24,25.74,2.32-5.2-.91-20.73-.91-20.73Zm-6.49,15.32c-1.73.21-3.32-1.09-3.55-2.91-.23-1.82,1-3.48,2.73-3.69s3.32,1.09,3.55,2.91c.23,1.82-1,3.48-2.73,3.69Z"/>
      <path class="cls-2" d="m73.1,93.94c-3.45,3.99-13.5,11.64-42.76,21.38-.2.07-.42-.09-.39-.3.21-1.34,1.15-5.44,5.07-8.29,0,0,1.99-2.32-1.25-1.78-1.13.19-9.25,2.99-18.59-.28,0,0-2.78,15.62-.32,20.75,0,0,48.43-6.91,65.67-26.69-3-.71-5.6-2.43-7.44-4.78Zm-50.98,25.85c-1.74-.17-3.01-1.78-2.84-3.61.17-1.83,1.73-3.18,3.47-3.01,1.74.17,3.01,1.78,2.84,3.61s-1.72,3.18-3.47,3.01Z"/>
    </g>
    <g>
      <path class="cls-2" d="m7.66,53.19C7.66,48.96,4.23,45.53,0,45.53v15.31c4.23,0,7.66-3.43,7.66-7.66Z"/>
      <path class="cls-2" d="m7.66,120.83C7.66,116.6,4.23,113.17,0,113.17v15.31c4.23,0,7.66-3.43,7.66-7.66Z"/>
      <path class="cls-2" d="m162.63,116.23c0,4.13,3.28,7.47,7.37,7.63v-15.26c-4.09.15-7.37,3.5-7.37,7.63Z"/>
      <path class="cls-2" d="m162.63,48.59c0,4.13,3.28,7.47,7.37,7.63v-15.26c-4.09.15-7.37,3.5-7.37,7.63Z"/>
    </g>
  </g>
  <g id="camada_5_branca" data-name="camada 5 branca">
    <path class="cls-1" d="m4.07,85c0-2.25-1.82-4.07-4.07-4.07v8.15c2.25,0,4.07-1.82,4.07-4.07Z"/>
    <path class="cls-1" d="m166.21,84.41c0,2.15,1.67,3.9,3.79,4.05v-8.09c-2.12.15-3.79,1.89-3.79,4.05Z"/>
    <path class="cls-1" d="m82.78,36.43c-1.55,1.83-3.35,4.89-3.41,9.27,0,0-5.09-1.96-6.46-.78,0,0,.42,14.68,10.93,22.41,0,0,14.62-6.17,13.15-21.63,0,0-3.13-.49-5.58.78,0,0-.65-6.07-2.82-9.63-1.26-2.06-4.25-2.27-5.81-.43Z"/>
    <path class="cls-1" d="m34.76,86.44c1.83,1.55,4.89,3.35,9.27,3.41,0,0-1.96,5.09-.78,6.46,0,0,14.68-.42,22.41-10.93,0,0-6.17-14.62-21.63-13.15,0,0-.49,3.13.78,5.58,0,0-6.07.65-9.63,2.82-2.06,1.26-2.27,4.25-.43,5.81Z"/>
    <path class="cls-1" d="m84.77,134.45c1.55-1.83,3.35-4.89,3.41-9.27,0,0,5.09,1.96,6.46.78,0,0-.42-14.68-10.93-22.41,0,0-14.62,6.17-13.15,21.63,0,0,3.13.49,5.58-.78,0,0,.65,6.07,2.82,9.63,1.26,2.06,4.25,2.27,5.81.43Z"/>
    <path class="cls-1" d="m132.78,84.44c-1.83-1.55-4.89-3.35-9.27-3.41,0,0,1.96-5.09.78-6.46,0,0-14.68.42-22.41,10.93,0,0,6.17,14.62,21.63,13.15,0,0,.49-3.13-.78-5.58,0,0,6.07-.65,9.63-2.82,2.06-1.26,2.27-4.25.43-5.81Z"/>
    <path class="cls-1" d="m14.74,68.18c-1.15.1-2.82.53-4.33,2,0,0-1.07-2.41-1.94-2.47,0,0-4.87,5.16-3.92,11.39,0,0,7.1,2.89,11.88-2.9,0,0-.9-1.24-2.17-1.64,0,0,1.85-2.3,2.32-4.25.28-1.13-.67-2.23-1.84-2.13Z"/>
    <path class="cls-1" d="m15.42,101.66c-.1-1.15-.53-2.82-2-4.33,0,0,2.41-1.07,2.47-1.94,0,0-5.16-4.87-11.39-3.92,0,0-2.89,7.1,2.9,11.88,0,0,1.24-.9,1.64-2.17,0,0,2.3,1.85,4.25,2.32,1.13.28,2.23-.67,2.13-1.84Z"/>
    <rect class="cls-1" y="19.76" width="170" height="12.14"/>
    <rect class="cls-1" y="138.11" width="170" height="12.14" transform="translate(170 288.35) rotate(180)"/>
    <path class="cls-1" d="m155.54,101.23c1.15-.1,2.82-.53,4.33-2,0,0,1.07,2.41,1.94,2.47,0,0,4.87-5.16,3.92-11.39,0,0-7.1-2.89-11.88,2.9,0,0,.9,1.24,2.17,1.64,0,0-1.85,2.3-2.32,4.25-.28,1.13.67,2.23,1.84,2.13Z"/>
    <path class="cls-1" d="m154.86,67.75c.1,1.15.53,2.82,2,4.33,0,0-2.41,1.07-2.47,1.94,0,0,5.16,4.87,11.39,3.92,0,0,2.89-7.1-2.9-11.88,0,0-1.24.9-1.64,2.17,0,0-2.3-1.85-4.25-2.32-1.13-.28-2.23.67-2.13,1.84Z"/>
  </g>
</svg>