<svg xmlns="http://www.w3.org/2000/svg" width="170" height="155.35" viewBox="0 0 170 155.35">
  <g id="Camada_2" data-name="Camada 2">
    <g id="camada_1_preta" data-name="camada 1 preta">
      <polygon points="0 0 170 0 170 80.16 170 155.35 0 155.35 0 0" fill="#231f20"/>
    </g>
    <g id="camada_6_branca" data-name="camada 6 branca">
      <g>
        <path d="M93.8,70.1s-9.21-3.07-19,5.41c0,0-16.59,9.58-26.54,2.76,0,0-3.13,10,16.22,10.69,0,0-4.79,9.58-4.42,15.67a18.94,18.94,0,0,0,16.4-4.24s4.24,13.91,15.57,12.39c0,0-5-13.82,2.76-23.63,0,0,8.71-8.57,3.6-14.79l21.28-19.77s5.39,2.08,0,8.3c0,0-9.54,9.26-8.57,20.8,0,0,5.25,20.11,1.66,25.5,0,0,8.29-1.25,8.29-5.81,0,0,9.54,4.29,16.17,3.32,0,0,3-2.77-2.35-11.06,0,0,6.78-3.59,7.19-7.18,0,0-19.49-1-18.66-22.53,0,0,4.56-8.3,1-16.31l15.28-13.94q1.82,1.45,3.77,2.74a48.11,48.11,0,0,0,17.61,7.08,48,48,0,0,0,8.95.84V33.49A35.63,35.63,0,0,1,134.45,0h-12.9a48.7,48.7,0,0,0,1.63,10.53,48.57,48.57,0,0,0,8.19,16.64A48.83,48.83,0,0,0,135.54,32L120.7,45.29s-6.08-2.21-19.9,1.47c0,0-21.74,2.77-23-19.35,0,0-7.37,2.77-9.22,9.4,0,0-7.18-6.82-14-5,0,0-2,6.64,4.24,13.83,0,0-7.74,2.76-7.38,12.53,0,0,7.56-1.48,19.35.37a55.4,55.4,0,0,0,37.41-10.14s6.82-2.58,4.24,3.5Z" fill="#fff"/>
        <rect x="157.01" width="12.99" height="17.83" fill="#fff"/>
        <path d="M25.65,8.78s-7.7,4.79-7.8,16.77c0,0,24.41-15.29,39.39-14.93-26.47,11.45-44.8,36.2-44.8,64.89,0,39.58,34.87,71.67,77.88,71.67,30.51,0,56.91-16.15,69.68-39.66.89,13.54-14.88,36.45-14.88,36.45,12-.09,16.77-7.09,16.77-7.09.55,3.13,8.11,7.46,8.11,7.46v-83a4.85,4.85,0,0,0-3.1,1.17,11.26,11.26,0,0,0-3.07,4.91,23.25,23.25,0,0,0-8.26-4.59c-5.69-1.61-9,.91-9,.91a43.21,43.21,0,0,1,10.27,15.6c-2.14,32.12-31.11,57.56-66.55,57.56-36.83,0-66.69-27.48-66.69-61.37S53.27,14.35,89.92,14.15a48.1,48.1,0,0,1,16.22,9.92s2.4-2.87,1.28-7.88c-.57-2.58-2.07-5.72-5.34-9.35a14.5,14.5,0,0,0,3.61-1.6c1.58-1,3.54-3.15,3.54-5.24H16.7S22.2,8.22,25.65,8.78Z" fill="#fff"/>
      </g>
    </g>
  </g>
</svg>
