<?xml version="1.0" encoding="UTF-8"?>
<svg xmlns="http://www.w3.org/2000/svg" viewBox="0 0 170 170">
  <defs>
    <style>
      .cls-1 {
        fill: #fff;
      }

      .cls-2 {
        fill: #939598;
      }

      .cls-3 {
        fill: #231f20;
      }
    </style>
  </defs>
  <g id="camada_1_preta" data-name="camada 1 preta">
    <path class="cls-3" d="m149.52,115.11c-9.08,0-17.1-4.46-22.05-11.29-4.95,6.83-12.97,11.29-22.05,11.29-7.61,0-14.48-3.13-19.42-8.16l-15.96,11.31-15.29.51-2.06-2.53,1.8-19.32,8.92-12.6c-4.71-4.89-7.62-11.51-7.62-18.84,0-9.08,4.46-17.1,11.29-22.05-6.83-4.95-11.29-12.97-11.29-22.05,0-10.15,5.56-18.98,13.79-23.67H29.35v144.41h140.65v-36.34c-4.99,5.7-12.31,9.32-20.48,9.32Z"/>
    <path class="cls-3" d="m110.27,21.4c0,9.08-4.46,17.1-11.29,22.05,5.69,4.12,9.71,10.37,10.9,17.6,7.22,1.19,13.48,5.21,17.6,10.9,4.95-6.83,12.97-11.29,22.05-11.29,8.17,0,15.49,3.62,20.48,9.32V-2.27h-73.52c8.23,4.69,13.79,13.52,13.79,23.67Z"/>
  </g>
  <g id="camada_2_cinza_50_" data-name="camada 2 cinza 50%">
    <rect class="cls-2" x="74.06" y="12.42" width="17.95" height="17.95" rx="1.64" ry="1.64" transform="translate(9.19 64.98) rotate(-45)"/>
    <rect class="cls-2" x="74.06" y="56.52" width="17.95" height="17.95" rx="1.64" ry="1.64" transform="translate(-21.99 77.9) rotate(-45)"/>
    <rect class="cls-2" x="96.45" y="78.9" width="17.95" height="17.95" rx="1.64" ry="1.64" transform="translate(-31.26 100.29) rotate(-45)"/>
    <rect class="cls-2" x="139.84" y="78.9" width="17.95" height="17.95" rx="1.64" ry="1.64" transform="translate(-18.55 130.97) rotate(-45)"/>
    <polygon class="cls-2" points="18.43 -2.27 0 -2.27 0 172.27 170 172.27 170 153.35 18.43 153.35 18.43 -2.27"/>
    <rect class="cls-2" x="145.74" y="-2.27" width="24.26" height="25.7"/>
  </g>
  <g id="camada_5_branca" data-name="camada 5 branca">
    <polygon class="cls-1" points="29.35 -2.27 18.43 -2.27 18.43 153.35 170 153.35 170 142.14 29.35 142.14 29.35 -2.27"/>
    <polygon class="cls-1" points="145.74 -2.27 133.66 -2.27 133.66 36.23 170 36.23 170 23.43 145.74 23.43 145.74 -2.27"/>
    <path class="cls-1" d="m149.52,60.65c-9.08,0-17.1,4.46-22.05,11.29-4.12-5.69-10.37-9.71-17.6-10.9-1.19-7.22-5.21-13.48-10.9-17.6,6.83-4.95,11.29-12.97,11.29-22.05,0-10.15-5.56-18.98-13.79-23.67h-26.89c-8.23,4.69-13.79,13.52-13.79,23.67,0,9.08,4.46,17.1,11.29,22.05-6.83,4.95-11.29,12.97-11.29,22.05,0,7.33,2.91,13.96,7.62,18.84l-8.92,12.6-1.8,19.32,2.06,2.53,15.29-.51,15.96-11.31c4.93,5.04,11.8,8.16,19.42,8.16,9.08,0,17.1-4.46,22.05-11.29,4.95,6.83,12.97,11.29,22.05,11.29,8.17,0,15.49-3.62,20.48-9.32v-35.83c-4.99-5.7-12.31-9.32-20.48-9.32ZM71.5,20.24l10.38-10.38c.64-.64,1.68-.64,2.32,0l10.38,10.38c.64.64.64,1.68,0,2.32l-10.38,10.38c-.64.64-1.68.64-2.32,0l-10.38-10.38c-.64-.64-.64-1.68,0-2.32Zm12.7,56.79c-.64.64-1.68.64-2.32,0l-10.38-10.38c-.64-.64-.64-1.68,0-2.32l10.38-10.38c.64-.64,1.68-.64,2.32,0l10.38,10.38c.64.64.64,1.68,0,2.32l-10.38,10.38Zm32.77,12.01l-10.38,10.38c-.64.64-1.68.64-2.32,0l-10.38-10.38c-.64-.64-.64-1.68,0-2.32l10.38-10.38c.64-.64,1.68-.64,2.32,0l10.38,10.38c.64.64.64,1.68,0,2.32Zm43.39,0l-10.38,10.38c-.64.64-1.68.64-2.32,0l-10.38-10.38c-.64-.64-.64-1.68,0-2.32l10.38-10.38c.64-.64,1.68-.64,2.32,0l10.38,10.38c.64.64.64,1.68,0,2.32Z"/>
  </g>
</svg>