<?xml version="1.0" encoding="UTF-8"?>
<svg xmlns="http://www.w3.org/2000/svg" viewBox="0 0 170 170">
  <defs>
    <style>
      .cls-1 {
        fill: #fff;
      }

      .cls-2 {
        fill: #939598;
      }

      .cls-3 {
        fill: #231f20;
      }
    </style>
  </defs>
  <g id="camada_1_preta" data-name="camada 1 preta">
    <polygon class="cls-3" points="170 170.44 0 170.44 0 82.26 0 40.25 0 -.44 41.51 -.44 170 -.44 170 170.44"/>
  </g>
  <g id="camada_2_cinza_50_" data-name="camada 2 cinza 50%">
    <path class="cls-2" d="m0,108.34H0c11.45,0,21.04-7.49,23.74-17.59h-.52c-3.18,0-5.75-2.57-5.75-5.75s2.57-5.75,5.75-5.75h.52C21.04,69.14,11.45,61.66,0,61.66H0v46.68Z"/>
    <path class="cls-2" d="m146.07,79.95c1.81.97,3.05,2.85,3.05,5.05s-1.24,4.08-3.05,5.05c2.43,10.46,12.21,18.29,23.93,18.29v-46.68c-11.72,0-21.5,7.83-23.93,18.29Z"/>
    <ellipse class="cls-2" cx="83.83" cy="85" rx="24.52" ry="23.34"/>
    <rect class="cls-2" y="-.44" width="170" height="20.2"/>
    <rect class="cls-2" y="150.24" width="170" height="20.2" transform="translate(170 320.68) rotate(180)"/>
  </g>
  <g id="camada_5_branca" data-name="camada 5 branca">
    <rect class="cls-1" y="19.76" width="170" height="17.68"/>
    <rect class="cls-1" y="131.39" width="170" height="18.85" transform="translate(170 281.63) rotate(180)"/>
    <path class="cls-1" d="m146.07,90.05c1.81-.97,3.05-2.85,3.05-5.05s-1.24-4.08-3.05-5.05c2.43-10.46,12.21-18.29,23.93-18.29v-10.72c-17.69,0-32.35,12.24-35.22,28.31h-15.73c-2.88-16.07-17.53-28.31-35.22-28.31s-32.35,12.24-35.22,28.31h-13.38C32.35,63.18,17.69,50.94,0,50.94H0v10.72H0c11.45,0,21.04,7.49,23.74,17.59h-.52c-3.18,0-5.75,2.57-5.75,5.75s2.57,5.75,5.75,5.75h.52C21.04,100.86,11.45,108.34,0,108.34H0v10.72H0c17.69,0,32.35-12.24,35.22-28.31h13.38c2.88,16.07,17.53,28.31,35.22,28.31s32.35-12.24,35.22-28.31h15.73c2.88,16.07,17.53,28.31,35.22,28.31v-10.72c-11.72,0-21.5-7.83-23.93-18.29Zm-38.49.62c-2.66,10.15-12.28,17.67-23.76,17.67s-21.24-7.64-23.82-17.9c2.3-.75,3.97-2.89,3.97-5.44s-1.67-4.69-3.97-5.44c2.58-10.26,12.25-17.9,23.82-17.9s21.09,7.53,23.76,17.67c-2.8.38-4.97,2.76-4.97,5.67s2.17,5.29,4.97,5.67Z"/>
  </g>
</svg>