<?xml version="1.0" encoding="UTF-8"?>
<svg xmlns="http://www.w3.org/2000/svg" viewBox="0 0 170 170">
  <defs>
    <style>
      .cls-1 {
        fill: #fff;
      }

      .cls-2 {
        fill: #939598;
      }

      .cls-3 {
        fill: #6d6e71;
      }

      .cls-4 {
        fill: #231f20;
      }
    </style>
  </defs>
  <g id="camada_1_preta" data-name="camada 1 preta">
    <polygon class="cls-4" points="170 170.44 0 170.44 0 82.26 0 40.25 0 -.44 41.51 -.44 170 -.44 170 170.44"/>
  </g>
  <g id="camada_2_cinza_50_" data-name="camada 2 cinza 50%">
    <rect class="cls-2" y="45.81" width="170" height="10.08"/>
    <rect class="cls-2" y="114.11" width="170" height="10.08" transform="translate(170 238.3) rotate(180)"/>
  </g>
  <g id="camada_3_cinza_70_" data-name="camada 3 cinza 70%">
    <rect class="cls-3" y="-.44" width="170" height="26.08"/>
    <rect class="cls-3" y="144.36" width="170" height="26.08" transform="translate(170 314.8) rotate(180)"/>
  </g>
  <g id="camada_5_branca" data-name="camada 5 branca">
    <rect class="cls-1" y="25.64" width="170" height="20.17"/>
    <rect class="cls-1" y="124.19" width="170" height="20.17" transform="translate(170 268.55) rotate(180)"/>
    <path class="cls-1" d="m28.74,112.82c-2.27-14.27-13.95-25.56-28.74-27.82,14.8-2.25,26.47-13.54,28.74-27.82,2.27,14.27,13.95,25.56,28.74,27.82-14.8,2.25-26.47,13.54-28.74,27.82Z"/>
    <path class="cls-1" d="m141.26,112.82c-2.27-14.27-13.95-25.56-28.74-27.82,14.8-2.25,26.47-13.54,28.74-27.82,2.27,14.27,13.95,25.56,28.74,27.82-14.8,2.25-26.47,13.54-28.74,27.82Z"/>
    <path class="cls-1" d="m85,112.82c-2.27-14.27-13.95-25.56-28.74-27.82,14.8-2.25,26.47-13.54,28.74-27.82,2.27,14.27,13.95,25.56,28.74,27.82-14.8,2.25-26.47,13.54-28.74,27.82Z"/>
  </g>
</svg>