<?xml version="1.0" encoding="UTF-8"?>
<svg xmlns="http://www.w3.org/2000/svg" viewBox="0 0 170 170">
  <defs>
    <style>
      .cls-1 {
        fill: #fff;
      }

      .cls-2 {
        fill: #939598;
      }

      .cls-3 {
        fill: #6d6e71;
      }

      .cls-4 {
        fill: #231f20;
      }
    </style>
  </defs>
  <g id="camada_1_preta" data-name="camada 1 preta">
    <rect class="cls-4" x="0" y="1.35" width="170" height="167.3" transform="translate(170 170) rotate(180)"/>
  </g>
  <g id="camada_2_cinza_50_" data-name="camada 2 cinza 50%">
    <g>
      <path class="cls-2" d="m65.16,145.76c-1.28-.46-2.54-.97-3.77-1.51-1.1-.49-2.18-1.02-3.25-1.56-.12-.06-.24-.11-.36-.17-2.26-1.19-4.44-2.52-6.53-3.99-7.67,7.87-14.14,18.61-15.37,30.12h15.96c1.22-9.36,6.18-17.52,13.31-22.89Z"/>
      <path class="cls-2" d="m37.29,124.81c1.04-1.02,2-2.11,2.95-3.22.91-1.06,1.76-2.18,2.58-3.33,0,0,0,0,0,0,0,0,0,0,0,0,.37-.52.78-1,1.14-1.53,3.34-5.05,5.76-10.76,7.12-16.88h0c.5-1.55.47-9.22.47-11.09s.19-3.69.47-5.47c.92-5.78,3.26-11.07,6.66-15.48,6.14-7.98,15.68-13.12,26.42-13.12,18.53,0,33.55,15.26,33.55,34.08,0,11.63-5.74,21.88-14.49,28.03,5.52,1.89,10.67,4.58,15.34,7.94,8.89-9.1,15.11-22.17,15.11-35.97,0-27.77-22.17-50.29-49.51-50.29-13.41,0-25.56,5.44-34.47,14.24-2.48,2.45-4.88,5.06-6.67,8.08-8.85,14.97-7.59,26.1-7.59,27.97s-.19,3.69-.47,5.47c-.92,5.78-3.26,11.07-6.66,15.48-6.14,7.98-15.68,13.12-26.42,13.12-.95,0-1.88-.07-2.81-.14v16.21c.94.05,1.86.14,2.81.14,13.41,0,25.56-5.44,34.47-14.24Z"/>
      <path class="cls-2" d="m26.02,96.47c.78-2.43,1.22-5.02,1.22-7.71s-.44-5.28-1.22-7.71c-3.19-9.93-12.37-17.1-23.21-17.1-.95,0-1.89.07-2.81.18v49.27c.92.11,1.86.18,2.81.18,10.84,0,20.02-7.18,23.21-17.1Z"/>
      <path class="cls-2" d="m29.23,67.81c1.98-5.45,4.7-10.52,8.06-15.1-8.92-8.8-21.06-14.24-34.47-14.24-.95,0-1.88.09-2.81.14v16.21c.93-.08,1.86-.14,2.81-.14,10.74,0,20.28,5.15,26.42,13.12Z"/>
      <path class="cls-2" d="m85.09,63.95c-10.84,0-20.02,7.18-23.21,17.1-.78,2.43-1.22,5.02-1.22,7.71s.44,5.28,1.22,7.71c3.19,9.93,12.37,17.1,23.21,17.1,13.49,0,24.43-11.11,24.43-24.81s-10.94-24.81-24.43-24.81Z"/>
      <path class="cls-2" d="m111.8,131.44c-13.05-8.44-26.09-8.54-26.7-8.6-3.35-.35-6.58-.9-9.64-1.76-.29-.08-1.48-.48-1.79-.6-2.49-.95-4.85-2.18-7.01-3.69-1.91-1.34-3.92-2.89-5.69-4.59-.31-.33-.64-.64-.93-.98,0,0,0,.01,0,.02-2.97,5.84-7.9,11.81-9.11,13.25-.18.21-.28.33-.28.33,2.54,2.51,5.36,4.72,8.38,6.63,7.58,4.79,16.5,7.61,26.09,7.61,7.48,0,14.36,2.51,19.93,6.71,7.13,5.37,12.09,13.52,13.31,22.89h16.57c-1.28-11.94-6.67-22.63-14.72-30.57-2.54-2.51-5.39-4.7-8.4-6.64Z"/>
      <path class="cls-2" d="m90.77,149.02c-1.83-.44-3.72-.7-5.68-.7s-3.85.26-5.68.7c-9.34,2.26-16.6,9.97-18.34,19.63h48.03c-1.74-9.67-8.99-17.37-18.34-19.63Z"/>
      <path class="cls-2" d="m50.6,124.8s.01,0,.02.01c.01-.02.03-.04.04-.06-.02.01-.04.03-.06.04Z"/>
      <polygon class="cls-2" points="26.36 168.65 35.89 168.65 35.89 168.65 26.36 168.65 26.36 168.65"/>
      <polygon class="cls-2" points="51.85 168.65 61.08 168.65 61.08 168.65 51.85 168.65 51.85 168.65"/>
      <polygon class="cls-2" points="109.11 168.65 118.34 168.65 118.34 168.65 109.11 168.65 109.11 168.65"/>
      <polygon class="cls-2" points="134.91 168.65 145.04 168.65 145.04 168.65 134.91 168.65 134.91 168.65"/>
      <rect class="cls-2" y="113.4" width="0" height="9.3"/>
      <rect class="cls-2" y="138.91" width="0" height="10.26"/>
      <rect class="cls-2" y="28.37" width="0" height="10.26"/>
      <rect class="cls-2" y="54.83" width="0" height="9.3"/>
    </g>
  </g>
  <g id="camada_3_cinza_70_" data-name="camada 3 cinza 70%">
    <path class="cls-3" d="m82.54,77.38c-1.25,1.35-2.7,3.61-2.74,6.85,0,0-4.09-1.44-5.2-.58,0,0,.34,10.84,8.79,16.54,0,0,11.76-4.55,10.58-15.97,0,0-2.52-.36-4.49.58,0,0-.53-4.48-2.27-7.11-1.01-1.52-3.42-1.68-4.67-.32Z"/>
    <g>
      <path class="cls-3" d="m93.73,168.65c-.04-.75-.29-1.5-.87-2.03-1.35-1.25-3.61-2.7-6.85-2.74,0,0,1.44-4.09.58-5.2,0,0-10.84.34-16.54,8.79,0,0,.18.46.55,1.17h23.13Z"/>
      <path class="cls-3" d="m0,100.08c1.62-.7,11.42-5.38,10.33-15.86,0,0-2.52-.36-4.49.58,0,0-.53-4.48-2.27-7.11-.76-1.15-2.32-1.52-3.57-1.04v23.43Z"/>
    </g>
  </g>
  <g id="camada_5_branca" data-name="camada 5 branca">
    <polygon class="cls-1" points="14.42 154.24 10.42 154.24 0 154.24 0 154.24 0 158.24 10.42 158.24 10.42 168.65 14.42 168.65 14.42 158.24 14.42 154.24"/>
    <polygon class="cls-1" points="156.57 15.73 150.57 15.73 0 15.73 0 21.73 150.57 21.73 150.57 168.65 156.57 168.65 156.57 21.73 156.57 15.73"/>
    <path class="cls-1" d="m127.84,131.32c10.19-10.89,16.86-26.38,16.86-42.56,0-33.44-26.69-60.54-59.61-60.54-15.97,0-30.44,6.42-41.14,16.8-10.7-10.39-25.17-16.8-41.14-16.8-.95,0-1.87.1-2.81.14v10.26c.94-.05,1.86-.14,2.81-.14,13.41,0,25.56,5.44,34.47,14.24-3.35,4.58-6.07,9.65-8.06,15.1-6.14-7.98-15.68-13.12-26.42-13.12-.95,0-1.88.07-2.81.14v9.3c.92-.11,1.86-.18,2.81-.18,10.84,0,20.02,7.18,23.21,17.1.78,2.43,1.22,5.02,1.22,7.71s-.44,5.28-1.22,7.71c-3.19,9.93-12.37,17.1-23.21,17.1-.95,0-1.89-.07-2.81-.18v9.3c.93.08,1.86.14,2.81.14,10.74,0,20.28-5.15,26.42-13.12,3.4-4.42,5.74-9.7,6.66-15.48.28-1.79.47-3.6.47-5.47s-1.26-13,7.59-27.97c1.79-3.02,4.18-5.63,6.67-8.08,8.92-8.8,21.06-14.24,34.47-14.24,27.34,0,49.51,22.51,49.51,50.29,0,13.8-6.23,26.87-15.11,35.97-4.66-3.36-9.82-6.05-15.34-7.94,8.75-6.15,14.49-16.4,14.49-28.03,0-18.82-15.02-34.08-33.55-34.08-10.74,0-20.28,5.15-26.42,13.12-3.4,4.42-5.74,9.7-6.66,15.48-.28,1.79-.47,3.6-.47,5.47s.03,9.53-.47,11.09h0c-1.36,6.12-3.78,11.83-7.12,16.88-.35.53-.76,1.02-1.14,1.53,0,0,0,0,0,0,0,0,0,0,0,0-.82,1.14-1.67,2.26-2.58,3.33-.95,1.11-1.91,2.2-2.95,3.22-8.92,8.8-21.06,14.24-34.47,14.24-.95,0-1.88-.09-2.81-.14v10.26c.94.04,1.86.14,2.81.14,12.84,0,24.7-4.16,34.43-11.18.26-.19.51-.38.76-.57-5.96,8.6-10.68,20.22-11.65,31.09h9.53c1.23-11.52,7.7-22.25,15.37-30.12,2.09,1.46,4.26,2.8,6.53,3.99.12.06.24.11.36.17,1.07.55,2.14,1.08,3.25,1.56,1.24.55,2.49,1.05,3.77,1.51-7.13,5.37-12.09,13.52-13.31,22.89h9.23c1.74-9.67,8.99-17.37,18.34-19.63,1.83-.44,3.72-.7,5.68-.7s3.85.26,5.68.7c9.34,2.26,16.6,9.97,18.34,19.63h9.23c-1.22-9.36-6.18-17.52-13.31-22.89-5.58-4.2-12.46-6.71-19.93-6.71-9.59,0-18.51-2.82-26.09-7.61-3.02-1.91-5.84-4.12-8.38-6.63,0,0-.01,0-.02-.01.02-.01.04-.03.06-.04-.01.02-.03.04-.04.06,0,0,.1-.12.28-.33,1.21-1.43,6.14-7.41,9.11-13.25,0,0,0-.01,0-.02.3.34.63.64.93.98,1.77,1.7,3.79,3.25,5.69,4.59,2.16,1.52,4.52,2.74,7.01,3.69.31.12,1.5.51,1.79.6,3.07.86,6.3,1.41,9.64,1.76.61.06,13.65.16,26.7,8.6,3.01,1.95,5.85,4.13,8.4,6.64,8.04,7.94,13.44,18.62,14.72,30.57h10.13c-1.28-14.47-7.54-27.48-17.07-37.21-.04-.04-.09-.08-.13-.12Zm-42.74-17.74c-10.84,0-20.02-7.18-23.21-17.1-.78-2.43-1.22-5.02-1.22-7.71s.44-5.28,1.22-7.71c3.19-9.93,12.37-17.1,23.21-17.1,13.49,0,24.43,11.11,24.43,24.81s-10.94,24.81-24.43,24.81Z"/>
  </g>
</svg>