<svg xmlns="http://www.w3.org/2000/svg" width="170" height="167.3" viewBox="0 0 170 167.3">
  <g id="Camada_2" data-name="Camada 2">
    <g id="camada_1_preta" data-name="camada 1 preta">
      <rect width="170" height="167.3" transform="translate(170 167.3) rotate(180)" fill="#231f20"/>
    </g>
    <g id="camada_2_cinza_50_" data-name="camada 2 cinza 50%">
      <g>
        <path d="M65.16,144.41c-1.28-.46-2.54-1-3.77-1.51s-2.18-1-3.25-1.56l-.36-.17a60.13,60.13,0,0,1-6.52-4c-7.67,7.87-14.14,18.61-15.37,30.12h16A34.18,34.18,0,0,1,65.16,144.41Z" fill="#939598"/>
        <path d="M37.29,123.47c1-1,2-2.12,3-3.22s1.75-2.19,2.58-3.33h0c.37-.52.78-1,1.13-1.53A50.2,50.2,0,0,0,51.07,98.5h0c.51-1.55.48-9.22.48-11.08a35.11,35.11,0,0,1,7.13-21A33.28,33.28,0,0,1,85.09,53.34c18.53,0,33.55,15.26,33.55,34.08a34.17,34.17,0,0,1-14.49,28,59.29,59.29,0,0,1,15.34,8c8.89-9.11,15.11-22.17,15.11-36,0-27.78-22.16-50.29-49.51-50.29A48.92,48.92,0,0,0,50.62,51.37,40.77,40.77,0,0,0,44,59.45c-8.84,15-7.59,26.1-7.59,28a35.31,35.31,0,0,1-.47,5.47,34.14,34.14,0,0,1-6.66,15.48A33.27,33.27,0,0,1,2.81,121.49c-.95,0-1.88-.06-2.81-.14v16.21c.94.05,1.86.14,2.81.14A49,49,0,0,0,37.29,123.47Z" fill="#939598"/>
        <path d="M26,95.13a24.89,24.89,0,0,0,1.22-7.71A24.8,24.8,0,0,0,26,79.71,24.46,24.46,0,0,0,2.81,62.6,23.68,23.68,0,0,0,0,62.78v49.27a23.68,23.68,0,0,0,2.81.18A24.47,24.47,0,0,0,26,95.13Z" fill="#939598"/>
        <path d="M29.23,66.46a60.26,60.26,0,0,1,8.06-15.09A48.92,48.92,0,0,0,2.81,37.13c-.95,0-1.87.09-2.81.14V53.48c.93-.07,1.86-.14,2.81-.14A33.3,33.3,0,0,1,29.23,66.46Z" fill="#939598"/>
        <path d="M85.09,62.6A24.47,24.47,0,0,0,61.88,79.71a25.17,25.17,0,0,0,0,15.42A24.5,24.5,0,1,0,85.09,62.6Z" fill="#939598"/>
        <path d="M111.8,130.09a54.76,54.76,0,0,0-26.71-8.6,58.27,58.27,0,0,1-9.64-1.76c-.29-.08-1.48-.48-1.79-.59a32.38,32.38,0,0,1-7-3.7,47.55,47.55,0,0,1-5.7-4.59c-.3-.33-.63-.63-.93-1v0a78.6,78.6,0,0,1-9.11,13.25l-.28.33A50.13,50.13,0,0,0,59,130.09a48.57,48.57,0,0,0,26.09,7.61A33.08,33.08,0,0,1,105,144.41a34.18,34.18,0,0,1,13.31,22.89h16.57a50.52,50.52,0,0,0-14.72-30.57A52.35,52.35,0,0,0,111.8,130.09Z" fill="#939598"/>
        <path d="M90.77,147.67a23.35,23.35,0,0,0-11.35,0A24.64,24.64,0,0,0,61.08,167.3h48A24.64,24.64,0,0,0,90.77,147.67Z" fill="#939598"/>
        <path d="M50.6,123.45l0,0,0-.06Z" fill="#939598"/>
        <polygon points="26.36 167.3 35.89 167.3 35.89 167.3 26.36 167.3 26.36 167.3" fill="#939598"/>
        <polygon points="51.85 167.3 61.08 167.3 61.08 167.3 51.85 167.3 51.85 167.3" fill="#939598"/>
        <polygon points="109.11 167.3 118.33 167.3 118.33 167.3 109.11 167.3 109.11 167.3" fill="#939598"/>
        <polygon points="134.91 167.3 145.04 167.3 145.04 167.3 134.91 167.3 134.91 167.3" fill="#939598"/>
        <rect y="112.05" height="9.3" fill="#939598"/>
        <rect y="137.56" height="10.26" fill="#939598"/>
        <rect y="27.02" height="10.26" fill="#939598"/>
        <rect y="53.48" height="9.3" fill="#939598"/>
      </g>
    </g>
    <g id="camada_3_cinza_70_" data-name="camada 3 cinza 70%">
      <path d="M82.54,76a10.11,10.11,0,0,0-2.74,6.84s-4.1-1.44-5.2-.57c0,0,.34,10.83,8.79,16.54,0,0,11.76-4.55,10.58-16a9,9,0,0,0-4.49.58S89,79,87.21,76.34A3.07,3.07,0,0,0,82.54,76Z" fill="#6d6e71"/>
      <g>
        <path d="M93.73,167.3a2.92,2.92,0,0,0-.87-2A10.21,10.21,0,0,0,86,162.53s1.44-4.09.57-5.19c0,0-10.83.33-16.54,8.79,0,0,.18.46.55,1.17Z" fill="#6d6e71"/>
        <path d="M0,98.73C1.62,98,11.42,93.35,10.33,82.87a9,9,0,0,0-4.49.58S5.32,79,3.57,76.34A3.05,3.05,0,0,0,0,75.3Z" fill="#6d6e71"/>
      </g>
    </g>
    <g id="camada_6_branca" data-name="camada 6 branca">
      <polygon points="14.41 152.89 10.41 152.89 0 152.89 0 152.89 0 156.89 10.41 156.89 10.41 167.3 14.41 167.3 14.41 156.89 14.41 152.89" fill="#fff"/>
      <polygon points="156.57 14.38 150.57 14.38 0 14.38 0 20.39 150.57 20.39 150.57 167.3 156.57 167.3 156.57 20.39 156.57 14.38" fill="#fff"/>
      <path d="M127.84,130A63.32,63.32,0,0,0,144.7,87.42C144.7,54,118,26.87,85.09,26.87A58.86,58.86,0,0,0,44,43.68,58.86,58.86,0,0,0,2.81,26.87C1.86,26.87.94,27,0,27V37.27c.94-.05,1.86-.14,2.81-.14A48.92,48.92,0,0,1,37.29,51.37a60.26,60.26,0,0,0-8.06,15.09A33.3,33.3,0,0,0,2.81,53.34c-.95,0-1.88.07-2.81.14v9.3a23.68,23.68,0,0,1,2.81-.18A24.46,24.46,0,0,1,26,79.71a24.8,24.8,0,0,1,1.22,7.71A24.89,24.89,0,0,1,26,95.13a24.47,24.47,0,0,1-23.21,17.1A23.68,23.68,0,0,1,0,112.05v9.3c.93.08,1.86.14,2.81.14a33.27,33.27,0,0,0,26.42-13.12,34.14,34.14,0,0,0,6.66-15.48,35.31,35.31,0,0,0,.47-5.47c0-1.87-1.25-13,7.59-28a40.77,40.77,0,0,1,6.67-8.08A48.92,48.92,0,0,1,85.09,37.13c27.35,0,49.51,22.51,49.51,50.29,0,13.8-6.22,26.86-15.11,36a59.29,59.29,0,0,0-15.34-8,34.17,34.17,0,0,0,14.49-28c0-18.82-15-34.08-33.55-34.08A33.28,33.28,0,0,0,58.68,66.46a35.11,35.11,0,0,0-7.13,21c0,1.86,0,9.53-.48,11.08h0A50.2,50.2,0,0,1,44,115.39c-.35.53-.76,1-1.13,1.53h0c-.83,1.14-1.67,2.26-2.58,3.33s-1.92,2.19-3,3.22A49,49,0,0,1,2.81,137.7c-.95,0-1.87-.09-2.81-.14v10.25c.94.05,1.86.15,2.81.15a58.71,58.71,0,0,0,34.44-11.18l.76-.57c-6,8.59-10.68,20.22-11.65,31.09h9.53c1.23-11.51,7.7-22.25,15.37-30.12a60.13,60.13,0,0,0,6.52,4l.36.17c1.07.55,2.14,1.08,3.25,1.56s2.49,1,3.77,1.51A34.18,34.18,0,0,0,51.85,167.3h9.23a24.64,24.64,0,0,1,18.34-19.63,23.35,23.35,0,0,1,11.35,0,24.64,24.64,0,0,1,18.34,19.63h9.23A34.18,34.18,0,0,0,105,144.41a33.08,33.08,0,0,0-19.94-6.71A48.57,48.57,0,0,1,59,130.09a50.13,50.13,0,0,1-8.38-6.62l0,0,.06,0,0,.06.28-.33A78.6,78.6,0,0,0,60,109.89v0c.3.35.63.65.93,1a47.55,47.55,0,0,0,5.7,4.59,32.38,32.38,0,0,0,7,3.7c.31.11,1.5.51,1.79.59a58.27,58.27,0,0,0,9.64,1.76,54.76,54.76,0,0,1,26.71,8.6,52.35,52.35,0,0,1,8.39,6.64,50.52,50.52,0,0,1,14.72,30.57H145A60.8,60.8,0,0,0,128,130.09ZM85.09,112.23a24.48,24.48,0,0,1-23.21-17.1,25.17,25.17,0,0,1,0-15.42,24.5,24.5,0,1,1,23.21,32.52Z" fill="#fff"/>
    </g>
  </g>
</svg>
