<?xml version="1.0" encoding="UTF-8"?>
<svg xmlns="http://www.w3.org/2000/svg" viewBox="0 0 170 170">
  <defs>
    <style>
      .cls-1 {
        fill: #fff;
      }

      .cls-2 {
        fill: #939598;
      }

      .cls-3 {
        fill: #231f20;
      }
    </style>
  </defs>
  <g id="camada_1_preta" data-name="camada 1 preta">
    <rect class="cls-3" x="0" y="0" width="170" height="170"/>
  </g>
  <g id="camada_2_cinza_50_" data-name="camada 2 cinza 50%">
    <path class="cls-2" d="m150.24,58.86c-9.11,0-17.16,4.41-22.22,11.18-5.06-6.77-13.12-11.18-22.22-11.18-8.46,0-16.02,3.8-21.11,9.76-5.09-5.97-12.65-9.76-21.11-9.76-9.11,0-17.16,4.41-22.22,11.18-5.06-6.77-13.12-11.18-22.22-11.18-7.42,0-14.15,2.93-19.13,7.68v40.16c4.98,4.75,11.7,7.68,19.13,7.68,9.11,0,17.16-4.41,22.22-11.18,5.06,6.77,13.12,11.18,22.22,11.18,8.46,0,16.02-3.8,21.11-9.76,5.09,5.97,12.65,9.76,21.11,9.76,9.11,0,17.16-4.41,22.22-11.18,5.06,6.77,13.12,11.18,22.22,11.18,7.73,0,14.72-3.17,19.76-8.27v-38.96c-5.03-5.1-12.02-8.27-19.76-8.27Z"/>
  </g>
  <g id="camada_5_branca" data-name="camada 5 branca">
    <rect class="cls-1" x="0" y="23.38" width="169.42" height="11.41"/>
    <rect class="cls-1" x="0" y="135.21" width="169.42" height="11.41" transform="translate(169.42 281.82) rotate(180)"/>
    <rect class="cls-1" x="54.43" y="77.46" width="18.3" height="18.3" rx="1.67" ry="1.67" transform="translate(-42.62 70.32) rotate(-45)"/>
    <rect class="cls-1" x="9.98" y="77.46" width="18.3" height="18.3" rx="1.67" ry="1.67" transform="translate(-55.64 38.89) rotate(-45)"/>
    <rect class="cls-1" x="141.1" y="77.46" width="18.3" height="18.3" rx="1.67" ry="1.67" transform="translate(-17.24 131.61) rotate(-45)"/>
    <rect class="cls-1" x="96.65" y="77.46" width="18.3" height="18.3" rx="1.67" ry="1.67" transform="translate(-30.26 100.18) rotate(-45)"/>
  </g>
</svg>