<?xml version="1.0" encoding="UTF-8"?>
<svg xmlns="http://www.w3.org/2000/svg" viewBox="0 0 170 170">
  <defs>
    <style>
      .cls-1 {
        fill: none;
        stroke: #231f20;
        stroke-miterlimit: 10;
      }

      .cls-2 {
        fill: #fff;
      }

      .cls-3 {
        fill: #939598;
      }

      .cls-4 {
        fill: #231f20;
      }
    </style>
  </defs>
  <g id="camada_1_preta" data-name="camada 1 preta">
    <rect class="cls-4" x="0" y="138.62" width="170" height="31.82"/>
    <path class="cls-4" d="m0,31.45v23.16c1.81-1.65,4.12-3.58,6.87-5.51,11.81-8.25,27.59-8.02,39.53.05.31.21.63.43.95.65,2.59,1.81,5.51,3.14,8.64,3.51,3.06.37,6.95.09,11.12-2,2.18-1.1,4.06-2.7,5.74-4.48,4.29-4.54,17.33-15.33,33.58-.16,0,0,11.3,11.01,27.89-1.03,0,0,17.91-11.9,35.67,4.44v-18.64H0Z"/>
    <path class="cls-4" d="m134.33,79.04c-16.59,12.04-27.89,1.03-27.89,1.03-16.25-15.17-29.29-4.39-33.58.16-1.68,1.78-3.56,3.38-5.74,4.48-4.18,2.1-8.06,2.37-11.12,2-3.13-.38-6.06-1.71-8.64-3.51-.32-.22-.64-.44-.95-.65-11.93-8.07-27.71-8.3-39.53-.05C4.12,84.41,1.81,86.35,0,87.99v7.55c4.95-.44,9.69-3.32,9.69-3.32,7.9-5.57,17.16-4.76,23.48-3.13,3.8.98,7.08,2.68,9.98,4.65,14.16,9.56,29.22-2.95,29.22-2.95,12.77-11.36,28.92-2.41,28.92-2.41,14.97,11.97,27.75,4.15,27.75,4.15,17.05-12.81,33-2.36,40.96,4.94v-13.99c-17.76-16.33-35.67-4.44-35.67-4.44Z"/>
  </g>
  <g id="camada_2_cinza_50_" data-name="camada 2 cinza 50%">
    <path class="cls-3" d="m129.04,67.82s-14.24,13.21-29.21-3.96c0,0-14.68-14.83-27.45,1.47,0,0-15.06,17.94-29.22,4.23-2.91-2.82-6.19-5.26-9.98-6.67-6.32-2.34-15.58-3.49-23.48,4.5,0,0-4.74,4.14-9.69,4.77v15.84c1.81-1.65,4.12-3.58,6.87-5.51,11.81-8.25,27.59-8.02,39.53.05.31.21.63.43.95.65,2.59,1.81,5.51,3.14,8.64,3.51,3.06.37,6.95.09,11.12-2,2.18-1.1,4.06-2.7,5.74-4.48,4.29-4.54,17.33-15.33,33.58-.16,0,0,11.3,11.01,27.89-1.03,0,0,17.91-11.9,35.67,4.44v-17.35c-8.54-5.88-24.61-12.85-40.96,1.69Z"/>
    <rect class="cls-1" y="-.44" width="170" height="16.91"/>
    <rect class="cls-1" x="0" y="138.44" width="170" height="32" transform="translate(170 308.88) rotate(180)"/>
    <path class="cls-3" d="m170,97.47c-7.96-7.3-23.91-17.75-40.96-4.94,0,0-12.77,7.83-27.75-4.15,0,0-16.15-8.95-28.92,2.41,0,0-15.06,12.51-29.22,2.95-2.91-1.96-6.19-3.67-9.98-4.65-6.32-1.63-15.58-2.43-23.48,3.13,0,0-4.74,2.88-9.69,3.32v29.86h170v-27.94Z"/>
    <rect class="cls-2" x="170" y="16.65" width=".18" height="14.8"/>
    <polygon class="cls-3" points="170 16.65 170 -.44 41.51 -.44 0 -.44 0 16.65 .18 16.65 170 16.65"/>
    <rect class="cls-2" x="0" y="16.65" width=".18" height="14.8"/>
  </g>
  <g id="camada_5_branca" data-name="camada 5 branca">
    <path class="cls-2" d="m33.17,62.89c3.8,1.4,7.08,3.85,9.98,6.67,14.16,13.71,29.22-4.23,29.22-4.23,12.77-16.3,27.45-1.47,27.45-1.47,14.97,17.18,29.21,3.96,29.21,3.96,16.35-14.54,32.41-7.57,40.96-1.69v-16.03c-17.76-16.33-35.67-4.44-35.67-4.44-16.59,12.04-27.89,1.03-27.89,1.03-16.25-15.17-29.29-4.39-33.58.16-1.68,1.78-3.56,3.38-5.74,4.48-4.18,2.1-8.06,2.37-11.12,2-3.13-.38-6.06-1.71-8.64-3.51-.32-.22-.64-.44-.95-.65-11.93-8.07-27.71-8.3-39.53-.05C4.12,51.02,1.81,52.96,0,54.61v17.54c4.95-.63,9.69-4.77,9.69-4.77,7.9-7.99,17.16-6.83,23.48-4.5Z"/>
    <rect class="cls-2" x=".18" y="16.65" width="170" height="14.8"/>
    <rect class="cls-2" x=".18" y="16.65" width="170" height="14.8"/>
    <rect class="cls-2" x=".18" y="125.41" width="170" height="13.21" transform="translate(170.36 264.02) rotate(180)"/>
    <circle class="cls-2" cx="26.24" cy="107.86" r="7.12"/>
    <circle class="cls-2" cx="85.18" cy="107.86" r="7.12"/>
    <circle class="cls-2" cx="146.66" cy="107.86" r="7.12"/>
  </g>
</svg>