<?xml version="1.0" encoding="UTF-8"?>
<svg xmlns="http://www.w3.org/2000/svg" viewBox="0 0 170 170">
  <defs>
    <style>
      .cls-1 {
        fill: #fff;
      }

      .cls-2 {
        fill: #939598;
      }

      .cls-3 {
        fill: #231f20;
      }
    </style>
  </defs>
  <g id="camada_1_preta" data-name="camada 1 preta">
    <polygon class="cls-3" points="30.74 -.27 13.03 -.27 0 -.27 0 174.27 170 174.27 170 158.82 170 143.92 30.74 143.92 30.74 -.27"/>
    <path class="cls-3" d="m126.6,105.55s-23.36,15.14-44.08-3.9l-9.51,1.41,1.27-9.92c-1.92-2.11-1.61-1.85-3.86-5.06-9.62-13.78-9.35-32.18.06-46.09.25-.37.5-.74.76-1.11,2.11-3.02,3.66-6.43,4.1-10.08.43-3.57.11-8.1-2.33-12.97-1.28-2.55-3.15-4.74-5.22-6.69-2.25-2.12-5.79-6.1-7.79-11.4h-13.44v130.35h123.44v-18.48c-3.44-1.42-7.08-3.7-10.87-7.25,0,0-13.18-12.84-32.53,1.2ZM60.23,25.83c3.3,0,5.98,2.68,5.98,5.98s-2.68,5.98-5.98,5.98-5.98-2.68-5.98-5.98,2.68-5.98,5.98-5.98Zm-1.14,73.24c-2.67,0-4.84-2.16-4.84-4.84s2.16-4.84,4.84-4.84,4.84,2.17,4.84,4.84-2.16,4.84-4.84,4.84Zm21.34,22.9c-2.67,0-4.84-2.16-4.84-4.84s2.17-4.84,4.84-4.84,4.84,2.16,4.84,4.84-2.16,4.84-4.84,4.84Zm64.27,1.14c-3.3,0-5.98-2.68-5.98-5.98s2.68-5.98,5.98-5.98,5.98,2.68,5.98,5.98-2.68,5.98-5.98,5.98Z"/>
    <polygon class="cls-3" points="170 34.89 170 21.2 152.76 21.2 152.76 -.27 140.61 -.27 140.61 34.89 170 34.89"/>
    <path class="cls-3" d="m105.47-.27h-6.56c2.09,5.55,5.89,9.64,8.11,11.68,2.15,1.98,3.96,4.35,5.21,7,2.18,4.65,2.46,8.96,2.05,12.39-.44,3.65-1.99,7.06-4.1,10.08-.26.37-.51.74-.76,1.11-2.99,4.42-4.94,9.3-6.07,14.33-.34,1.54-.59,3.09-.77,4.64-.6,5.82,4.24,10.88,10.06,10.29,1.09-.12,2.14-.27,3.13-.48,6.56-1.35,10.82-4.15,10.82-4.15,19.35-14.04,32.53-1.2,32.53-1.2,3.79,3.54,7.43,5.84,10.87,7.26v-14.91c-3.01-1-4.88-2.03-4.88-2.03-17.46-13.96-32.36-4.84-32.36-4.84-4.32,3.25-8.58,5.18-12.7,6.17-1.9.46-2.81-.58-2.16-2.42,1.16-3.28,2.77-6.2,4.57-8.87,11.15-16.52-3.44-34.08-3.44-34.08-3.43-3.86-5.25-7.97-6.1-11.96h-7.46Z"/>
  </g>
  <g id="camada_2_cinza_50_" data-name="camada 2 cinza 50%">
    <polygon class="cls-2" points="46.56 -.27 41.41 -.27 31.33 -.27 30.74 -.27 30.74 143.92 170 143.92 170 140.34 170 131.16 170 130.34 170 130.08 46.56 130.08 46.56 -.27"/>
    <rect class="cls-2" x="152.76" y="-.27" width="17.24" height="21.47"/>
    <path class="cls-2" d="m126.6,66.61s-4.26,2.8-10.82,4.15c-.96.2-1.97.36-3.02.48-.04,0-.07,0-.11,0-.09.01-.18.03-.27.04-5.72.58-10.45-4.36-9.83-10.08,0-.09.03-.17.04-.26,0-.04,0-.08,0-.13.18-1.51.44-3.02.77-4.51,1.12-5.03,3.08-9.91,6.07-14.33.25-.37.5-.74.76-1.11,2.11-3.02,3.66-6.43,4.1-10.08.41-3.43.13-7.74-2.05-12.39-1.24-2.65-3.05-5.01-5.21-7-2.22-2.05-6.02-6.13-8.11-11.68h-17.98c.93,3.9,3.37,8.01,8.42,11.96,0,0,20.92,17.56,4.93,34.08-1.25,1.29-2.4,2.66-3.47,4.08-1.77,2.32-3.28,4.82-4.3,7.56-.48,1.31-.89,2.75-1.23,4.25-.09.41-.19.81-.27,1.23-.56,3.01-.66,6.28,0,9.62.81,4.12,2.77,8.34,6.75,12.28,0,0,.42.5,1,1.28,5.09,2.33,11.17,3.99,17.8,3.58,3.62-.22,7.4-1.05,11.27-2.77,3.6-1.59,7.26-3.91,10.95-7.19,0,0,16.61-15.41,34.07,4.62,0,0,1.18,1.18,3.17,2.58v-14.23c-3.44-1.42-7.08-3.71-10.87-7.26,0,0-13.18-12.84-32.53,1.2Z"/>
    <rect class="cls-1" x="170" y="15.65" width=".18" height="14.8"/>
  </g>
  <g id="camada_5_branca" data-name="camada 5 branca">
    <path class="cls-1" d="m122.47,45.77c-1.8,2.66-3.41,5.59-4.57,8.87-.65,1.84.26,2.88,2.16,2.42,4.12-.99,8.38-2.92,12.7-6.17,0,0,14.89-9.13,32.36,4.84,0,0,1.87,1.03,4.88,2.03V-.27h0v35.16h-29.39V-.27h-27.67c.85,3.99,2.67,8.1,6.1,11.96,0,0,14.58,17.56,3.44,34.08Z"/>
    <path class="cls-1" d="m170,106.12v-19.22c-1.98-1.4-3.17-2.58-3.17-2.58-17.46-20.03-34.07-4.62-34.07-4.62-3.68,3.28-7.35,5.6-10.95,7.19-3.87,1.71-7.65,2.54-11.27,2.77-6.62.41-12.71-1.25-17.8-3.58-.59-.79-1-1.28-1-1.28-3.98-3.94-5.94-8.15-6.75-12.28-.66-3.35-.56-6.62,0-9.62,0,0,.18-1.31.27-1.23.34-1.5.75-2.94,1.23-4.25,1.02-2.75,2.53-5.24,4.3-7.56,1.08-1.42,2.23-2.79,3.47-4.08,15.99-16.52-4.93-34.08-4.93-34.08-5.04-3.95-7.48-8.05-8.42-11.96h-20.93c2,5.3,5.54,9.28,7.79,11.4,2.07,1.96,3.95,4.15,5.22,6.69,2.44,4.87,2.76,9.4,2.33,12.97-.44,3.65-1.99,7.06-4.1,10.08-.26.37-.51.74-.76,1.11-9.41,13.92-9.68,32.32-.06,46.09,2.24,3.21,1.93,2.95,3.86,5.06l-1.27,9.92,9.51-1.41c20.72,19.05,44.08,3.9,44.08,3.9,19.35-14.04,32.53-1.2,32.53-1.2,3.79,3.54,7.43,5.83,10.87,7.25v-5.48Z"/>
    <path class="cls-1" d="m80.44,112.3c-2.67,0-4.84,2.16-4.84,4.84s2.17,4.84,4.84,4.84,4.84-2.16,4.84-4.84-2.16-4.84-4.84-4.84Z"/>
    <circle class="cls-1" cx="59.09" cy="94.23" r="4.84"/>
    <path class="cls-1" d="m144.71,111.15c-3.3,0-5.98,2.68-5.98,5.98s2.68,5.98,5.98,5.98,5.98-2.68,5.98-5.98-2.68-5.98-5.98-5.98Z"/>
    <path class="cls-1" d="m60.23,37.78c3.3,0,5.98-2.68,5.98-5.98s-2.68-5.98-5.98-5.98-5.98,2.68-5.98,5.98,2.68,5.98,5.98,5.98Z"/>
  </g>
</svg>