<?xml version="1.0" encoding="UTF-8"?>
<svg xmlns="http://www.w3.org/2000/svg" viewBox="0 0 170 170">
  <defs>
    <style>
      .cls-1 {
        fill: #fff;
      }

      .cls-2 {
        fill: #939598;
      }
    </style>
  </defs>
  <g id="camada_1_preta" data-name="camada 1 preta">
    <path d="m120.55,55.83c-.39,1.08-.57,1.79-.65,2.44-.12.26-.25.54-.39.84-.25.54-2.43,2.55-2.43,3.15,0,.15.23.56.54,1.04l.16.24c.22.34.45.69.74,1.11,0,0,0,.01.01.02l.11.16s.02.03.03.05c.12.18.23.34.31.47.01.02.04.06.06.08l.11.17.03.06s0,0,0,0c.19.41.36.75.53,1.05.03.05.05.09.08.13.13.23.26.43.38.62.05.07.1.14.15.21.1.14.2.27.31.4.06.08.13.15.19.23.14.15.27.31.43.47.17.35.32.71.53,1.06,0,.01.01.04.02.05l.07.14.09.48.05.27.02.09s0,.04.01.06c.02.1.04.2.06.31.01.07.03.13.04.19.02.1.04.19.06.28.01.05.02.09.03.14.03.1.05.19.08.27,0,.02.02.05.02.07.04.09.08.17.13.21,0,0,.02,0,.02.01.04.03.11.07.2.1.04.02.1.03.15.05.07.02.13.04.21.06.06.02.13.03.2.05.1.02.19.04.3.06.06.01.11.02.16.03.16.03.33.06.49.09l.13.02s.07.01.11.02c.05.01.11.02.16.03.05.01.12.02.16.03l.24.05.23.09c.33.12.65.25,1.03.4.37.15.74.28,1.1.42.68.25,1.37.48,2.12.63.03,0,.06.02.09.03h.01s.07.03.07.03c.1.04.21.08.32.11,0,0,.02.01.03.02l.18.06.35.24.28.19.09.07c.07.05.14.1.22.15.21.14.41.28.6.39.03.02.05.03.08.04.18.1.35.18.45.18,0,0,.01,0,.02,0,.1,0,.26-.09.45-.19.03-.02.05-.03.08-.05.19-.11.4-.25.62-.39.11-.07.21-.14.32-.22.03-.02.07-.05.1-.07l.08-.06s.06-.04.1-.06c.04-.02.08-.05.11-.07.05-.03.11-.07.15-.1l.26-.16.25-.11.3-.13h0s0,0,.01,0c.69-.14,1.37-.33,2.04-.55.07-.02.15-.06.22-.08.61-.21,1.22-.43,1.86-.7,0,0,0,0,0,0l.12-.05.38-.06c.15-.02.32-.05.51-.07l.17-.02c.18-.02.37-.05.56-.08.07-.01.14-.02.21-.03.13-.02.25-.04.37-.06.09-.02.17-.03.25-.05.08-.02.15-.03.22-.05.09-.02.18-.05.25-.07.03-.01.04-.02.07-.03.07-.03.14-.06.17-.1.01-.01.01-.06.02-.09,0-.07.02-.13.02-.24,0-.01,0-.02,0-.03,0-.31-.03-.74-.07-1.19,0-.06-.01-.12-.02-.18-.01-.16-.03-.33-.04-.49,0-.07-.01-.13-.02-.2l-.09-.97h0s0-.05,0-.07c.4-.56.74-1.14,1.07-1.74.08-.15.17-.29.25-.45.34-.66.66-1.34.97-2.08,0,0,0,0,0,0l.05-.12.22-.31c.09-.12.19-.26.31-.41l.1-.13c.41-.53.68-.93.89-1.28l.19-.32c.04-.09.06-.17.06-.23-.02-.28-2.72-2.31-2.84-2.57-.27-.54-.53-1-.78-1.41-.24-.84-.55-1.64-1.04-2.38-.24-.36-.1-2.47-.39-2.79-.38-.41-3.21-.77-3.7-1.04-1.03-.55-2.2-1.02-3.8-1.27-.49-.23-1.75-1.64-2.16-1.66,0,0,0,0-.01,0-.46,0-2,1.11-2.85,1.63-1.05.19-2.04.52-3.43,1.04-.56.21-3.52.09-3.94.51-.3.3-.78,3.5-.92,3.91Z"/>
    <path d="m164.78,72.72c-.56.21-3.52.09-3.94.51-.02.02-.04.08-.06.13-.04.09-.08.2-.13.35,0,.02-.01.04-.02.06-.05.17-.1.36-.14.58,0,.02-.01.05-.02.07-.05.23-.1.47-.15.72-.03.17-.07.34-.1.51-.01.07-.03.14-.04.21,0,.05-.02.1-.03.15l-.03.16s0,.04-.01.07c-.03.17-.06.31-.09.44-.01.06-.03.15-.04.19l-.04.2-.03.07s0,0,0,0c-.03.08-.05.15-.08.23-.1.29-.18.55-.26.79-.02.08-.05.15-.07.22-.07.27-.13.52-.18.76-.03.15-.05.3-.07.44-.12.26-.25.54-.39.84,0,0,0,0,0,0l-.07.15-.29.34s-.08.09-.11.13c-.04.05-.1.11-.14.16-.07.08-.13.15-.21.24l-.09.1s-.08.09-.12.14c-.11.12-.22.25-.33.37-.07.08-.14.16-.22.25-.09.1-.17.19-.24.29-.07.08-.13.16-.19.23-.07.09-.13.18-.19.26-.04.06-.08.12-.11.17-.07.13-.12.24-.12.32,0,0,0,.02,0,.02,0,.06.05.17.12.31.02.05.05.1.08.15.07.12.14.25.24.4.03.06.07.11.1.17.28.43.61.92.89,1.34l.11.16s.04.06.06.09c.08.12.16.23.22.33.04.06.1.14.13.19l.11.18.03.07s0,0,0,0c.19.41.36.75.53,1.05.03.06.06.1.09.15.13.22.25.42.37.6.05.08.11.15.16.22.1.13.2.27.3.39.07.08.13.16.2.23.13.15.27.3.42.46,0,0,0,.02.01.02h0s.02.03.02.03c.16.33.3.67.5,1,0,0,.01.03.02.04l.08.15.09.49.05.29s.01.08.02.12c.02.11.04.23.07.36,0,0,0,0,0,0,.08.43.2.89.36,1.06l.08.08c.45.25,2.17.47,2.53.6,1.5.55,2.81,1.18,4.39,1.5.17.05.32.12.49.17.14.04.39.2.67.39v-25.86c-.61.37-1.3.84-1.79,1.13-1.05.18-2.04.52-3.43,1.04Z"/>
    <path d="m76.92,4.95c.21.56.09,3.52.51,3.94.02.02.08.04.13.06.09.04.2.08.35.13.02,0,.04.01.06.02.17.05.36.1.58.14.03,0,.05.01.07.02.23.05.47.1.72.15.17.03.34.07.51.1.07.01.14.03.21.04.05,0,.1.02.15.03l.16.03s.04,0,.07.01c.17.03.31.06.44.09.06.01.15.03.19.04l.2.04.07.03s0,0,0,0c.09.03.15.05.23.08.29.1.55.18.79.26.08.02.15.05.22.07.27.07.52.13.76.18.15.03.3.05.44.07.26.12.54.25.84.39,0,0,0,0,0,0l.15.07.35.29s.09.08.13.11c.05.04.11.1.16.14.08.07.15.13.24.21l.1.09s.09.08.14.12c.12.11.25.22.37.33.08.07.16.14.25.22.1.09.19.17.29.24.08.07.16.13.23.19.09.07.18.13.26.19.06.04.12.08.17.11.13.07.24.12.32.12,0,0,.02,0,.02,0,.06,0,.17-.05.31-.12.05-.02.1-.05.15-.08.12-.07.25-.14.4-.24.06-.03.11-.07.17-.1.43-.28.92-.61,1.34-.89l.16-.11s.06-.04.09-.06c.12-.08.23-.16.33-.22.06-.04.14-.1.19-.13l.18-.11.07-.03s0,0,0,0c.41-.19.75-.36,1.05-.53.06-.03.1-.06.15-.09.22-.13.42-.25.6-.37.08-.05.15-.11.22-.16.13-.1.27-.2.39-.3.08-.07.16-.13.23-.2.15-.13.3-.27.46-.42,0,0,.02,0,.02-.01h0s.03-.02.03-.02c.33-.16.67-.3,1-.5,0,0,.03-.01.04-.02l.15-.08.49-.09.29-.05s.08-.02.12-.02c.11-.02.23-.04.36-.07,0,0,0,0,0,0,.43-.08.89-.2,1.06-.36l.08-.08c.25-.45.47-2.17.6-2.53.55-1.5,1.18-2.81,1.5-4.39.05-.17.12-.32.17-.49.04-.14.2-.39.39-.67h-25.86c.37.61.84,1.3,1.14,1.79.19,1.05.52,2.04,1.04,3.43Z"/>
    <path d="m101.53,84.06c.05-.07.1-.14.14-.21.05-.07.08-.13.12-.2.04-.08.09-.16.12-.22.02-.03.02-.05.03-.08.02-.07.05-.14.05-.18,0-.02-.04-.07-.07-.1-.04-.05-.07-.09-.13-.16-.01-.02-.03-.03-.05-.05-.1-.09-.21-.2-.34-.31-.04-.03-.07-.06-.11-.09-.12-.1-.24-.21-.36-.31-.07-.06-.14-.12-.22-.18-.12-.1-.24-.2-.36-.3-.02-.02-.05-.04-.07-.06l-.16-.13-.42-.35-.49-.41-.05-.09s-.02-.02-.02-.02c-.27-.54-.53-1-.78-1.41-.12-.42-.25-.82-.42-1.22,0,0,0-.02-.01-.02-.17-.39-.37-.77-.61-1.14-.02-.02-.03-.07-.04-.11l-.08-.14-.04-.79v-.27c-.04-.47-.07-.95-.16-1.29l-.02-.07s-.03-.1-.06-.12c-.38-.41-3.21-.77-3.7-1.04-1.03-.55-2.2-1.02-3.8-1.27-.5-.23-1.75-1.64-2.16-1.66,0,0,0,0-.01,0-.46,0-2,1.11-2.85,1.63-1.05.18-2.04.52-3.43,1.04-.37.14-1.78.13-2.82.23-.07.11-.14.24-.21.46-.02,0-.02,0-.04,0-.06-.03-.11-.06-.17-.09-.13-.08-.25-.16-.38-.23-.15.04-.27.09-.33.15-.3.3-.78,3.5-.92,3.91-.39,1.08-.57,1.79-.65,2.44-.13.26-.25.54-.39.84-.25.54-2.43,2.55-2.43,3.15,0,.43,1.93,3.02,2.11,3.41.78,1.67,1.28,2.28,2.07,3.1.17.35.32.71.53,1.06.22.37.36,2.28.68,2.56.3.27,2.23.51,2.62.65,1.5.55,2.81,1.18,4.39,1.5.17.05.32.12.49.17.41.11,1.83,1.33,2.28,1.33,0,0,.01,0,.02,0,.4-.03,1.94-1.22,2.31-1.39.18-.08.35-.15.53-.23,1.39-.29,2.71-.74,4.12-1.32.44-.18,2.97-.33,3.29-.69.04-.05.05-.28.04-.59l-.02-.33c-.02-.4-.06-.83-.11-1.33l-.11-1.12h0s0-.05,0-.07c.4-.56.74-1.14,1.06-1.74.08-.15.17-.3.26-.46.34-.66.66-1.34.97-2.08,0,0,0,0,0,0l.05-.12.22-.31s.06-.08.09-.12c.01-.02.03-.03.04-.05.06-.08.11-.16.18-.24l.1-.13c.11-.15.23-.3.35-.46.04-.06.08-.11.12-.16.08-.11.15-.21.22-.31Z"/>
    <path d="m144.74,103.83l-.2-.17-.41-.34-.49-.41-.05-.09s-.02-.02-.02-.02c-.27-.54-.53-1-.78-1.41-.12-.42-.25-.82-.42-1.22,0-.01-.01-.02-.01-.03-.17-.39-.36-.77-.61-1.13-.02-.02-.02-.07-.04-.11l-.08-.14-.04-.79v-.27s-.01,0-.01,0c0-.07,0-.14-.01-.21,0-.09-.01-.19-.02-.28,0-.12-.02-.23-.03-.34,0-.03,0-.06,0-.08-.02-.13-.03-.25-.06-.35,0,0,0,0,0,0-.03-.1-.06-.17-.1-.22,0,0-.01,0-.01,0-.05-.05-.15-.1-.27-.15-.06-.03-.14-.05-.21-.07-.08-.03-.16-.06-.26-.08-.1-.03-.2-.05-.3-.08-.1-.03-.21-.05-.32-.08-.11-.03-.22-.05-.33-.07-.15-.03-.29-.06-.44-.09-.06-.01-.11-.02-.17-.04l-.14-.03c-.07-.01-.12-.03-.18-.04-.13-.03-.26-.06-.38-.08-.05-.01-.12-.03-.17-.04l-.37-.09-.13-.07s-.01,0-.01,0c-.1-.05-.21-.1-.31-.15-.41-.2-.81-.38-1.22-.53-.04-.01-.07-.03-.11-.04-.42-.15-.85-.26-1.3-.37-.28-.06-.56-.13-.86-.17-.03-.01-.06-.04-.09-.06l-.11-.03-.67-.61-.09-.08c-.09-.08-.17-.15-.26-.23-.04-.03-.07-.07-.11-.1-.1-.08-.19-.16-.28-.23-.01-.01-.03-.03-.04-.04-.21-.17-.4-.28-.52-.29-.11,0-.28.07-.49.17-.04.02-.08.04-.13.06-.19.1-.39.22-.61.35-.04.02-.07.04-.11.07-.26.16-.53.34-.79.51l-.18.11-.5.33h-.02s-.02.02-.03.03c-.24.04-.47.09-.7.15-.06.01-.11.03-.17.04-.2.05-.4.11-.61.17-.05.01-.09.03-.14.04-.25.08-.51.17-.79.26-.09.03-.2.07-.29.11-.23.08-.47.17-.72.26,0,0,0,0,0,0l-.15.06-.45.04s-.12,0-.17.01c-.05,0-.11,0-.17.01-.12,0-.22.01-.36.02h-.18s-.05.01-.08.01c-.19,0-.38.02-.56.03-.11,0-.21.01-.31.02-.13,0-.25.02-.37.03-.11.01-.21.02-.31.03-.11.01-.21.03-.3.05-.07.01-.15.03-.21.04-.14.04-.25.09-.31.14,0,0,0,0,0,.01-.04.05-.09.16-.14.32-.02.05-.03.11-.05.16-.04.13-.08.28-.12.45-.02.07-.03.13-.05.2-.05.21-.09.43-.14.65,0,.04-.01.07-.02.11-.05.28-.11.56-.16.81l-.03.19s0,.04-.01.07c-.04.21-.08.4-.11.56,0,.03-.02.08-.02.11l-.04.2-.02.07s0,0,0,0c-.03.09-.06.17-.09.26-.1.28-.18.53-.25.77-.02.07-.04.15-.06.22-.07.27-.13.52-.18.77-.03.15-.05.29-.07.43-.12.26-.25.54-.39.84,0,0,0,0,0,0l-.07.14-.29.34s-.08.09-.11.13c-.04.05-.09.1-.13.15-.07.08-.13.15-.22.24l-.14.16s0,.01-.01.02c-.48.53-.93,1.03-1.22,1.47l-.14.21c-.06.11-.09.21-.09.28,0,.43,1.93,3.02,2.11,3.41.78,1.67,1.28,2.28,2.07,3.1.17.35.32.71.53,1.06.22.37.36,2.28.68,2.56.3.27,2.23.51,2.62.65,1.5.55,2.81,1.18,4.39,1.5.17.05.32.12.49.17.41.11,1.83,1.33,2.28,1.33,0,0,.01,0,.02,0,.4-.03,1.94-1.22,2.31-1.39.18-.08.35-.15.53-.23,1.39-.29,2.71-.74,4.12-1.32.44-.18,2.97-.33,3.29-.69.15-.18-.14-2.52-.19-3.45.93-1.31,1.63-2.68,2.29-4.27.18-.44,1.81-2.26,1.83-2.78l-.02-.03c-.21-.35-1.12-1.1-1.66-1.55Z"/>
    <path d="m107.11,26.08l-.09.05s-.02.02-.02.02c-.54.27-1,.53-1.41.78-.42.12-.82.25-1.22.42-.01,0-.02.01-.03.01-.39.17-.77.36-1.13.61-.02.02-.07.02-.11.04l-.14.08-.79.04h-.27s0,.01,0,.01c-.07,0-.14,0-.21.01-.09,0-.19.01-.28.02-.12,0-.23.02-.34.03-.03,0-.06,0-.08,0-.13.02-.25.03-.35.06,0,0,0,0,0,0-.1.03-.17.06-.22.1,0,0,0,.01,0,.01-.05.05-.1.15-.15.27-.03.06-.05.14-.07.21-.03.08-.06.16-.08.26-.03.1-.05.2-.08.3-.03.1-.05.21-.08.32-.03.11-.05.22-.07.33-.03.15-.06.29-.09.44-.01.06-.02.11-.04.17l-.03.14c-.01.07-.03.12-.04.18-.03.13-.06.26-.08.38-.01.05-.03.12-.04.17l-.09.37-.07.13s0,.01,0,.01c-.05.1-.1.21-.15.31-.2.41-.38.81-.53,1.22-.01.04-.03.07-.04.11-.15.42-.26.85-.37,1.3-.06.28-.13.56-.17.86-.01.03-.04.06-.06.09l-.03.11-.61.67-.08.09c-.08.08-.15.17-.23.26-.03.04-.07.07-.1.11-.08.09-.16.19-.23.28-.01.01-.03.03-.04.04-.17.21-.28.4-.29.52,0,.11.07.28.17.49.02.04.04.08.07.13.1.19.22.39.35.61.02.04.04.07.07.11.16.26.34.53.51.79l.11.18.33.5v.02s.02.02.03.03c.04.24.09.47.15.7.01.06.03.11.04.17.05.2.11.4.17.61.01.05.03.09.04.14.08.25.17.51.26.79.03.09.07.2.11.29.08.23.17.47.26.72,0,0,0,0,0,0l.06.15.04.45s0,.12.01.17c0,.05,0,.11.01.17,0,.12.02.22.02.36v.18s.01.05.01.08c0,.19.02.38.03.56,0,.11.01.21.02.31,0,.13.02.25.03.37.01.11.02.21.03.31.01.11.03.21.05.3.01.07.03.15.04.21.04.14.09.25.14.31,0,0,0,0,.01,0,.05.04.17.09.32.14.05.02.11.03.16.05.13.04.28.08.45.12.07.02.13.03.2.05.21.05.43.09.65.14.04,0,.07.01.11.02.28.05.56.11.81.16l.19.03s.04,0,.07.01c.21.04.4.08.56.11.03,0,.08.02.11.02l.2.04.07.02s0,0,0,0c.09.03.17.06.26.09.28.1.53.18.77.25.07.02.15.04.22.06.27.07.52.13.77.18.15.03.29.05.43.07.26.12.54.25.84.39,0,0,0,0,0,0l.14.07.34.29s.09.08.13.11c.05.04.1.09.15.13.08.07.15.14.24.22l.16.14s.01,0,.02.01c.53.48,1.03.93,1.47,1.22l.21.14c.11.06.21.09.28.09.43,0,3.02-1.93,3.41-2.11,1.67-.78,2.28-1.28,3.1-2.07.35-.17.71-.32,1.06-.53.37-.22,2.28-.35,2.56-.68.27-.3.51-2.23.65-2.62.55-1.5,1.18-2.81,1.5-4.39.05-.17.12-.32.17-.49.11-.41,1.33-1.83,1.33-2.28,0,0,0-.01,0-.02-.03-.4-1.22-1.94-1.39-2.31-.08-.18-.15-.35-.23-.53-.29-1.39-.74-2.71-1.32-4.12-.18-.44-.33-2.97-.69-3.29-.18-.15-2.52.14-3.45.19-1.31-.93-2.68-1.63-4.27-2.29-.44-.18-2.26-1.81-2.78-1.83l-.03.02c-.35.21-1.1,1.12-1.55,1.66l-.17.2-.34.41-.41.49Z"/>
    <path d="m69.81,50.58l.06-.03s0,0,0,0c.41-.19.75-.36,1.05-.53.05-.03.09-.05.13-.08.23-.13.43-.26.62-.38.07-.05.14-.1.21-.15.14-.1.27-.2.4-.31.08-.06.15-.13.23-.19.15-.14.31-.27.47-.43.35-.17.71-.32,1.06-.53.01,0,.04-.01.05-.02l.14-.07.48-.09.27-.05.09-.02s.04,0,.06-.01c.1-.02.2-.04.31-.06.07-.01.13-.03.19-.04.1-.02.19-.04.28-.06.05-.01.09-.02.14-.03.1-.03.19-.05.27-.08.02,0,.05-.02.07-.02.09-.04.17-.08.21-.13,0,0,0-.02.01-.02.03-.04.07-.11.1-.2.02-.04.03-.1.05-.15.02-.07.04-.13.06-.21.02-.06.03-.13.05-.2.02-.1.04-.19.06-.3.01-.06.02-.11.03-.16.03-.16.06-.33.09-.49l.02-.13s.01-.07.02-.11c.01-.05.02-.11.03-.16.01-.05.02-.12.03-.16l.05-.24.09-.23c.12-.33.25-.65.4-1.02.15-.37.28-.74.42-1.1.25-.68.48-1.37.63-2.12,0-.03.02-.06.03-.09h0s.02-.08.02-.08c.04-.1.08-.21.11-.32,0,0,.01-.02.02-.03l.06-.18.24-.35.19-.28.07-.09c.05-.07.1-.14.15-.22.14-.21.28-.41.39-.6.02-.03.03-.05.04-.08.1-.18.18-.35.18-.45,0,0,0-.01,0-.02,0-.1-.09-.26-.19-.45-.02-.03-.03-.05-.05-.08-.11-.19-.25-.4-.39-.62-.07-.11-.14-.21-.22-.32-.02-.03-.05-.07-.07-.1l-.06-.08s-.04-.06-.06-.1c-.02-.04-.05-.08-.07-.11-.03-.05-.07-.11-.1-.15l-.16-.26-.11-.25-.13-.3h0s0-.01,0-.02c-.14-.69-.33-1.37-.55-2.04-.02-.07-.06-.15-.08-.22-.21-.61-.43-1.22-.7-1.86,0,0,0,0,0,0l-.05-.12-.06-.38c-.02-.15-.05-.32-.07-.51l-.02-.17c-.02-.18-.05-.37-.08-.56-.01-.07-.02-.14-.03-.21-.02-.13-.04-.25-.06-.37-.02-.09-.03-.17-.05-.25-.02-.08-.03-.15-.05-.22-.02-.09-.05-.18-.07-.25-.01-.03-.02-.04-.03-.07-.03-.07-.06-.14-.1-.17-.01-.01-.06-.01-.09-.02-.07,0-.13-.02-.24-.02-.01,0-.02,0-.03,0-.31,0-.74.03-1.19.07-.06,0-.12.01-.18.02-.16.01-.33.03-.49.04-.07,0-.13.01-.2.02l-.97.09h-.01s-.04,0-.05,0c-.56-.4-1.14-.74-1.74-1.07-.15-.08-.29-.17-.45-.25-.66-.34-1.34-.66-2.08-.97,0,0,0,0,0,0l-.12-.05-.31-.22c-.12-.09-.26-.19-.41-.31l-.13-.1c-.53-.41-.93-.68-1.28-.89l-.32-.19c-.09-.04-.17-.06-.23-.06-.28.02-2.31,2.72-2.57,2.84-.54.27-1,.53-1.41.78-.84.24-1.64.55-2.38,1.04-.36.24-2.47.1-2.79.39-.41.38-.77,3.21-1.04,3.7-.55,1.03-1.02,2.2-1.27,3.8-.23.49-1.64,1.75-1.66,2.16,0,0,0,0,0,.01,0,.46,1.11,2,1.63,2.85.18,1.05.52,2.04,1.04,3.43.21.56.09,3.52.51,3.94.3.3,3.5.78,3.91.92,1.08.39,1.79.57,2.44.65.26.12.54.25.84.39.54.25,2.55,2.43,3.15,2.43.15,0,.56-.23,1.04-.54l.24-.16c.34-.22.69-.45,1.11-.74,0,0,.01,0,.02-.01l.16-.11s.03-.02.05-.03c.18-.12.34-.23.47-.31.02-.01.06-.04.08-.06l.17-.11Z"/>
    <polygon points="18.93 -.27 13.03 -.27 0 -.27 0 174.27 170 174.27 170 158.82 170 149.13 18.93 149.13 18.93 -.27"/>
    <rect x="149.99" y="-.27" width="20.01" height="21.51"/>
  </g>
  <g id="camada_2_cinza_50_" data-name="camada 2 cinza 50%">
    <polygon class="cls-2" points="32.03 -.27 31.33 -.27 30.5 -.27 18.93 -.27 18.93 149.13 170 149.13 170 140.34 170 138.6 32.03 138.6 32.03 -.27"/>
    <path class="cls-2" d="m168.02,99.11s-.04-.02-.07-.02c-1.35-.29-2.48-.74-3.58-1.17-.32-.13-.64-.25-.96-.37-.13-.03-.29-.06-.47-.09-.07-.01-.12-.02-.19-.04l-1.1,1.01c-2.75,2.53-6.85,6-10.76,8.16l-1.82,1c-.32.54-.7,1.07-1.13,1.63-.14.18-.26.34-.36.48-.58,1.37-1.18,2.55-1.84,3.62.22,2.36.33,3.55-.69,4.74-1.02,1.21-2.5,1.41-4.21,1.64-.22.03-.43.06-.59.08-1.53.62-2.83,1.04-4.13,1.34l-.04.02c-.11.07-.24.16-.39.26-1.15.78-2.05,1.4-3.21,1.48h-.13s-.12,0-.12,0c-1.31,0-2.3-.69-3.26-1.36-.11-.08-.22-.16-.32-.22-.02,0-.05-.02-.07-.02-1.35-.29-2.48-.74-3.58-1.17-.32-.12-.64-.25-.96-.37-.13-.03-.29-.06-.47-.09-1.36-.26-2.44-.46-3.32-1.23-1.08-.94-1.3-2.21-1.52-3.43-.02-.12-.04-.25-.06-.35-.08-.15-.15-.3-.22-.45-.82-.91-1.45-1.8-2.23-3.46-.1-.16-.27-.41-.46-.69-.94-1.38-1.49-2.24-1.77-3.02l-1.25-.79c-3.42-2.17-8.22-5.62-12.49-10.04-1,.89-2.31,1.11-3.83,1.31-.22.03-.43.06-.59.08-1.53.62-2.83,1.04-4.13,1.34l-.04.02c-.11.07-.24.16-.39.26-1.15.78-2.05,1.4-3.21,1.48h-.13s-.12,0-.12,0c-1.31,0-2.3-.69-3.26-1.36-.11-.08-.22-.16-.32-.22-.02,0-.04-.02-.07-.02-1.35-.29-2.48-.74-3.58-1.17-.32-.13-.64-.25-.96-.37-.13-.03-.29-.06-.47-.09-.95-.18-1.72-.4-2.42-.74-4.91,4.54-6.47,7.53-6.47,7.53-4.51,5.25-8.34,5.63-10.39,5.3-1.06-.17-1.77-1.24-1.61-2.3.77-4.89,7.45-9.26,7.45-9.26,3.23-1.2,6.92-3.76,8.63-5.01-.01-.06-.03-.13-.04-.19-.02-.12-.04-.25-.06-.35-.08-.15-.15-.3-.22-.45-.82-.91-1.45-1.8-2.23-3.45-.1-.16-.27-.41-.46-.69-1.44-2.11-2.03-3.02-2.03-4.29,0-1.64,1.03-2.77,2.33-4.21.2-.22.39-.42.53-.59.03-.06.05-.12.08-.18.13-.74.35-1.51.69-2.45.04-.19.09-.48.16-.81.45-2.37.69-3.44,1.47-4.3l-.13-.33c-2.47-6.51-5.04-11.33-7.23-13.58l-1.14-1.17c-1.41-.17-2.49-1.08-3.79-2.26-.22-.2-.42-.39-.59-.53-.06-.03-.12-.05-.18-.08-.74-.13-1.51-.35-2.45-.69-.19-.04-.48-.09-.81-.16-2.52-.47-3.57-.7-4.47-1.6-1.16-1.16-1.23-2.69-1.33-4.62-.01-.29-.02-.57-.04-.79-.43-1.15-.74-2.09-.96-3.06-.05-.08-.11-.17-.16-.25-.96-1.47-1.65-2.54-1.65-3.87v-.08s0-.07,0-.07c.06-1.44.92-2.39,1.74-3.3.04-.04.08-.08.11-.12.28-1.32.71-2.53,1.33-3.73.05-.21.11-.5.17-.81.38-1.78.65-3.07,1.68-4.02,1.06-.98,2.34-1.04,3.59-1.1.09,0,.18,0,.27-.01.67-.38,1.4-.69,2.23-.95.24-.14.48-.27.73-.41.14-.17.31-.37.48-.58.46-.55.84-1,1.2-1.39l-.19-.11,3.02-3.03c3.12-3.13,5.67-6.08,7.18-8.3l.78-1.15c-.12-.68-.17-1.41-.21-2.23-.01-.29-.02-.57-.04-.79-.43-1.15-.74-2.09-.96-3.06-.05-.08-.11-.17-.16-.25-.69-1.07-1.24-1.92-1.49-2.81h-28.23v127.3h127.17v-26.71c-.59-.26-1.13-.62-1.65-.99-.11-.08-.22-.16-.32-.22Z"/>
    <path class="cls-2" d="m149.05,64.15c-.31.52-.68,1.04-1.1,1.58-.14.18-.26.34-.36.48-.58,1.37-1.18,2.55-1.84,3.62.22,2.36.33,3.55-.69,4.74-1.02,1.21-2.5,1.41-4.21,1.64-.22.03-.43.06-.59.08-1.53.62-2.83,1.04-4.13,1.33l-.04.02c-.11.07-.24.16-.39.26-1.15.78-2.05,1.4-3.21,1.48h-.13s-.12,0-.12,0c-1.31,0-2.3-.69-3.26-1.36-.11-.08-.22-.16-.32-.22-.02,0-.05-.02-.07-.02-1.35-.29-2.48-.74-3.58-1.17-.32-.12-.64-.25-.96-.37-.13-.03-.29-.06-.47-.09-1.36-.26-2.44-.46-3.32-1.23-1.08-.94-1.3-2.21-1.52-3.43-.02-.12-.04-.25-.06-.35-.08-.15-.15-.3-.22-.45-.82-.91-1.45-1.8-2.23-3.45-.1-.16-.27-.41-.46-.69-.31-.45-.55-.82-.79-1.17-3.32,3.24-10.02,6.17-14.73,7.96h0c.18.65.22,1.33.26,2,0,.09,0,.18.01.27.38.67.69,1.4.95,2.23.14.24.27.48.41.73.17.14.37.31.58.48,1.84,1.52,2.76,2.28,2.88,3.85.13,1.58-.77,2.76-1.82,4.13-.14.18-.26.34-.36.48-.58,1.37-1.18,2.55-1.84,3.62.05.54.09,1.01.12,1.44,4.31,4.8,9.52,8.56,13.11,10.84.41-.61.93-1.2,1.52-1.86.2-.22.39-.42.53-.59.03-.06.05-.12.08-.18.13-.74.35-1.51.69-2.45.04-.19.09-.48.16-.81.47-2.52.7-3.57,1.6-4.47,1.16-1.16,2.69-1.23,4.62-1.33.29-.01.57-.02.79-.04,1.15-.43,2.09-.74,3.06-.96.08-.05.17-.11.25-.16,1.47-.96,2.54-1.65,3.87-1.65h.08s.07,0,.07,0c1.44.06,2.39.92,3.3,1.74.04.04.08.08.12.11,1.32.28,2.53.71,3.73,1.33.21.05.5.11.81.17,1.78.38,3.07.65,4.02,1.68.98,1.06,1.04,2.34,1.1,3.59,0,.09,0,.18.01.27.38.67.69,1.4.95,2.23.14.24.27.48.41.73.17.14.37.31.58.48.31.26.59.49.85.72.22.19.43.38.61.56,0,0,.02.02.03.03.39.37.69.74.91,1.11,3.57-1.97,7.38-5.18,10.11-7.7,0,0,0,0,0,0-.85-.91-1.09-2.05-1.29-3.17-.02-.12-.04-.25-.06-.35-.08-.15-.15-.3-.22-.45-.82-.91-1.45-1.8-2.23-3.45-.1-.16-.27-.41-.46-.69-1.44-2.11-2.03-3.02-2.03-4.29,0-1.64,1.03-2.77,2.33-4.21.2-.22.39-.42.53-.59.03-.06.05-.12.08-.18.13-.74.35-1.51.69-2.45.04-.19.09-.48.16-.81.08-.41.15-.77.22-1.11.01-.05.02-.1.03-.15.21-1.04.41-1.77.71-2.34h0c-3.05-2.07-6.49-5.29-8.78-7.58h0Z"/>
    <path class="cls-2" d="m170-.27v40.2h-40.2V-.27h-25.28c-.26.59-.62,1.13-.99,1.65-.08.11-.16.22-.22.32,0,.02-.02.04-.02.07-.29,1.35-.74,2.48-1.17,3.58-.13.32-.25.64-.37.96-.03.13-.06.29-.09.47-.01.07-.02.12-.04.19l1.01,1.1c2.53,2.75,6,6.85,8.16,10.76l1,1.82c.54.32,1.07.7,1.63,1.13.18.14.34.26.48.36,1.37.58,2.55,1.18,3.62,1.84,2.36-.22,3.55-.33,4.74.69,1.21,1.02,1.41,2.5,1.64,4.21.03.22.06.43.08.59.62,1.53,1.04,2.83,1.34,4.13l.02.04c.07.11.16.24.26.39.78,1.15,1.4,2.05,1.48,3.21v.13s0,.12,0,.12c0,1.31-.69,2.3-1.36,3.26-.08.11-.16.22-.22.32,0,.02-.02.05-.02.07-.29,1.35-.74,2.48-1.17,3.58-.13.32-.25.64-.37.96-.03.13-.06.29-.09.47-.15.8-.32,1.47-.56,2.09.14,0,.28-.02.43-.03.29-.01.57-.02.79-.04,1.15-.43,2.09-.74,3.06-.96.08-.05.17-.11.25-.16,1.47-.96,2.54-1.65,3.87-1.65h.08s.07,0,.07,0c1.44.06,2.39.92,3.3,1.74.04.04.08.08.12.11,1.32.28,2.53.71,3.73,1.33.21.05.5.11.81.17,1.78.38,3.07.65,4.02,1.68.98,1.06,1.04,2.34,1.1,3.59,0,.09,0,.18.01.27.38.67.69,1.4.95,2.23.14.24.27.48.41.73.17.14.37.31.58.48.55.46,1,.84,1.39,1.2l.11-.19,3.03,3.02c3.13,3.12,6.08,5.67,8.3,7.18l1.15.78c.68-.12,1.41-.17,2.23-.21.29-.01.57-.02.79-.04,1.15-.43,2.09-.74,3.06-.96.08-.05.17-.11.25-.16,1.07-.69,1.92-1.24,2.81-1.49V-.27h0Z"/>
    <path class="cls-2" d="m77.54,69.49c.11-.03.23-.02.35-.04,0,0,0,0,0,.01.01.04.03.08.04.12,0,0,0,.01,0,.02.43-.04.87-.06,1.35-.08.29-.01.57-.02.79-.04,1.15-.43,2.09-.74,3.06-.96.08-.05.17-.11.25-.16,1.47-.96,2.54-1.65,3.87-1.65h.08s.07,0,.07,0c1.44.06,2.38.92,3.3,1.74.04.04.08.08.12.11,1.32.28,2.53.71,3.73,1.33.21.05.5.11.81.17.92.19,1.71.37,2.39.62l1.29-.49c6.51-2.47,11.33-5.04,13.58-7.23l1.17-1.14c.17-1.41,1.08-2.49,2.26-3.79.2-.22.39-.42.53-.59.03-.06.05-.12.08-.18.13-.74.35-1.51.69-2.45.04-.19.09-.48.16-.81.2-1.05.36-1.8.53-2.43-.8.68-1.66,1.25-3.1,1.93-.16.1-.41.27-.68.46-1.38.94-2.24,1.49-3.02,1.77l-.08.12c-.2.11-.4.2-.56.36-.02,0-.04,0-.05.01-.16,0-.31,0-.47,0-.45-.08-.89-.21-1.32-.37-.38-.18-.75-.38-1.1-.62-.1-.09-.2-.19-.3-.29-.02-.04-.05-.08-.07-.12-.26-.67-.93-1.16-1.64-1.25-.17-.16-.35-.32-.48-.43-.06-.03-.12-.05-.18-.08-.74-.13-1.51-.35-2.45-.69-.19-.04-.48-.09-.81-.16-2.52-.47-3.57-.7-4.47-1.6-1.16-1.16-1.23-2.69-1.33-4.62-.01-.29-.02-.57-.04-.79-.43-1.15-.74-2.09-.96-3.06-.05-.08-.11-.17-.16-.25-.96-1.47-1.65-2.54-1.65-3.87v-.08s0-.07,0-.07c.06-1.44.92-2.39,1.74-3.3.04-.04.08-.08.11-.12.28-1.32.71-2.53,1.33-3.73.05-.21.11-.5.17-.81.38-1.78.65-3.07,1.68-4.02,1.06-.98,2.34-1.04,3.59-1.1.09,0,.18,0,.27-.01.67-.38,1.4-.69,2.23-.95.24-.14.48-.27.73-.41.14-.17.31-.37.48-.58.26-.31.49-.59.72-.85.19-.22.38-.43.56-.61,0,0,.02-.02.03-.03.37-.39.74-.69,1.11-.91-1.97-3.57-5.18-7.38-7.7-10.11,0,0,0,0,0,0-.91.85-2.05,1.09-3.17,1.29-.12.02-.25.04-.35.06-.15.08-.3.15-.45.22-.91.82-1.8,1.45-3.45,2.23-.16.1-.41.27-.68.46-2.11,1.44-3.02,2.03-4.29,2.03-1.64,0-2.77-1.03-4.21-2.33-.22-.2-.42-.39-.59-.53-.06-.03-.12-.05-.18-.08-.74-.13-1.51-.35-2.45-.69-.19-.04-.48-.09-.81-.16-.41-.08-.77-.15-1.11-.21-.05-.01-.1-.02-.15-.03-1.04-.21-1.77-.41-2.34-.71h0c-2.07,3.05-5.29,6.49-7.58,8.78h0c.52.31,1.04.68,1.58,1.1.18.14.34.26.48.36,1.37.58,2.55,1.18,3.62,1.84,2.36-.22,3.55-.33,4.74.69,1.21,1.02,1.41,2.5,1.64,4.21.03.22.06.43.08.59.62,1.53,1.04,2.83,1.34,4.13l.02.04c.07.11.16.24.26.39.78,1.15,1.4,2.05,1.48,3.21v.13s0,.12,0,.12c0,1.31-.69,2.3-1.36,3.26-.08.11-.16.22-.22.32,0,.02-.02.05-.02.07-.29,1.35-.74,2.48-1.17,3.58-.12.32-.25.64-.37.96-.03.13-.06.29-.09.47-.26,1.36-.46,2.44-1.23,3.32-.94,1.08-2.21,1.3-3.43,1.52-.12.02-.25.04-.35.06-.15.08-.3.15-.45.22-.91.82-1.8,1.45-3.45,2.23-.16.1-.41.27-.69.46-.45.31-.82.55-1.17.79,3.24,3.32,6.17,10.02,7.96,14.73h0Z"/>
    <polygon class="cls-2" points="170 30.36 170 21.24 149.99 21.24 149.99 -.27 139.37 -.27 139.37 30.36 170 30.36"/>
  </g>
  <g id="camada_5_branca" data-name="camada 5 branca">
    <polygon class="cls-1" points="42.83 -.27 42.6 -.27 32.03 -.27 32.03 138.6 170 138.6 170 135.91 170 130.34 170 127.03 42.83 127.03 42.83 -.27"/>
    <polygon class="cls-1" points="170 39.93 170 30.36 139.37 30.36 139.37 -.27 129.8 -.27 129.8 39.93 170 39.93"/>
    <path class="cls-1" d="m166.94,68.52c-.96.22-1.9.53-3.06.96-.22.02-.49.03-.79.04-.82.04-1.56.09-2.23.21l-1.15-.78c-2.22-1.51-5.17-4.06-8.3-7.18l-3.03-3.02-.11.19c-.39-.36-.83-.75-1.39-1.2-.21-.18-.42-.34-.58-.48-.14-.25-.27-.5-.41-.73-.26-.83-.57-1.56-.95-2.23,0-.09,0-.18-.01-.27-.06-1.24-.13-2.53-1.1-3.59-.95-1.03-2.24-1.3-4.02-1.68-.3-.06-.59-.12-.81-.17-1.21-.62-2.42-1.05-3.73-1.33-.04-.04-.08-.07-.12-.11-.92-.83-1.87-1.68-3.3-1.74h-.07s-.08,0-.08,0c-1.33,0-2.4.69-3.87,1.65-.09.06-.17.11-.25.16-.96.22-1.9.53-3.06.96-.22.02-.49.03-.79.04-.15,0-.28.02-.43.03.24-.62.41-1.3.56-2.09.03-.18.06-.35.09-.47.12-.33.25-.65.37-.96.43-1.09.88-2.22,1.17-3.58,0-.02.02-.05.02-.07.07-.1.14-.21.22-.32.67-.96,1.36-1.95,1.36-3.26v-.25c-.09-1.16-.71-2.06-1.49-3.21-.1-.15-.19-.28-.26-.39l-.02-.04c-.29-1.3-.71-2.6-1.34-4.13-.03-.16-.05-.37-.08-.59-.23-1.71-.43-3.18-1.64-4.21-1.19-1.02-2.38-.91-4.74-.69-1.08-.67-2.26-1.27-3.62-1.84-.13-.1-.3-.23-.48-.36-.56-.43-1.1-.81-1.63-1.13l-1-1.82c-2.16-3.92-5.63-8.02-8.16-10.76l-1.01-1.1c.01-.06.02-.12.04-.19.03-.18.06-.35.09-.47.12-.33.25-.65.37-.96.43-1.09.88-2.22,1.17-3.58,0-.02.02-.05.02-.07.07-.1.14-.21.22-.32.36-.52.73-1.06.99-1.65h-3.92c-.19.28-.36.54-.39.67-.05.17-.12.32-.17.49-.31,1.58-.95,2.89-1.5,4.39-.13.36-.36,2.08-.6,2.53l-.08.08c-.17.16-.63.27-1.06.36,0,0,0,0,0,0-.13.02-.25.05-.36.07-.04,0-.08.01-.12.02l-.29.05-.49.09-.15.08s-.03.01-.04.02c-.33.19-.67.34-1,.5l-.03.02h0s-.02,0-.02.01c-.16.15-.31.29-.46.42-.08.07-.16.13-.23.2-.12.1-.25.2-.39.3-.07.05-.14.11-.22.16-.18.12-.38.24-.6.37-.05.03-.09.06-.15.09-.3.17-.64.34-1.05.53,0,0,0,0,0,0l-.07.03-.18.11s-.13.09-.19.13c-.1.07-.21.14-.33.22-.03.02-.05.04-.09.06l-.16.11c-.42.29-.91.62-1.34.89-.06.04-.11.07-.17.1-.15.09-.28.17-.4.24-.05.03-.11.06-.15.08-.14.07-.24.11-.31.12,0,0-.02,0-.02,0-.08,0-.2-.05-.32-.12-.05-.03-.11-.07-.17-.11-.08-.06-.17-.11-.26-.19-.08-.06-.15-.12-.23-.19-.09-.08-.19-.16-.29-.24-.08-.07-.16-.14-.25-.22-.12-.11-.24-.22-.37-.33-.05-.04-.09-.08-.14-.12l-.1-.09c-.09-.08-.16-.14-.24-.21-.05-.05-.11-.1-.16-.14-.04-.03-.09-.08-.13-.11l-.35-.29-.15-.07s0,0,0,0c-.3-.14-.58-.27-.84-.39-.14-.02-.29-.04-.44-.07-.24-.04-.49-.1-.76-.18-.07-.02-.15-.04-.22-.07-.24-.07-.51-.16-.79-.26-.08-.03-.15-.05-.23-.08,0,0,0,0,0,0l-.07-.03-.2-.04s-.14-.03-.19-.04c-.13-.03-.27-.06-.44-.09-.03,0-.04,0-.07-.01l-.16-.03c-.05,0-.1-.02-.15-.03-.07-.01-.14-.03-.21-.04-.17-.03-.33-.06-.51-.1-.25-.05-.49-.1-.72-.15-.03,0-.05-.01-.07-.02-.21-.05-.41-.1-.58-.14-.02,0-.04-.01-.06-.02-.15-.04-.26-.08-.35-.13-.04-.02-.11-.04-.13-.06-.42-.42-.3-3.39-.51-3.94-.52-1.39-.85-2.38-1.04-3.43-.3-.49-.77-1.19-1.14-1.79h-3.68c.25.89.8,1.75,1.49,2.81.06.09.11.17.16.25.22.96.53,1.9.96,3.06.02.22.03.49.04.79.04.82.09,1.56.21,2.23l-.78,1.15c-1.51,2.22-4.06,5.17-7.18,8.3l-3.02,3.03.19.11c-.36.39-.74.83-1.2,1.39-.18.21-.34.42-.48.58-.25.14-.5.27-.73.41-.83.26-1.56.57-2.23.95-.09,0-.18,0-.27.01-1.24.06-2.53.13-3.59,1.1-1.03.95-1.3,2.24-1.68,4.02-.06.3-.12.59-.17.81-.62,1.21-1.05,2.42-1.33,3.73-.04.04-.07.08-.11.12-.83.92-1.68,1.87-1.74,3.3v.07s0,.08,0,.08c0,1.33.69,2.4,1.65,3.87.06.09.11.17.16.25.22.96.53,1.9.96,3.06.02.22.03.49.04.79.1,1.93.17,3.46,1.33,4.62.89.9,1.95,1.13,4.47,1.6.33.06.62.12.81.16.94.33,1.71.55,2.45.69.06.03.12.05.18.08.17.14.37.33.59.53,1.3,1.18,2.38,2.09,3.79,2.26l1.14,1.17c2.19,2.24,4.76,7.07,7.23,13.58l.13.33c-.78.86-1.02,1.93-1.47,4.3-.06.33-.11.62-.16.81-.33.94-.55,1.71-.69,2.45-.03.06-.05.12-.08.18-.14.17-.33.37-.53.59-1.3,1.43-2.32,2.57-2.33,4.21,0,1.27.58,2.18,2.03,4.29.19.28.36.52.46.69.79,1.65,1.41,2.55,2.23,3.45.07.15.15.3.22.45.02.11.04.23.06.35.01.06.03.12.04.19-1.71,1.25-5.4,3.81-8.63,5.01,0,0-6.68,4.36-7.45,9.26-.17,1.06.54,2.13,1.61,2.3,2.05.33,5.88-.05,10.39-5.3,0,0,1.56-2.99,6.47-7.53.7.34,1.47.56,2.42.74.18.03.35.06.47.09.33.12.65.25.96.37,1.09.43,2.22.88,3.58,1.17.02,0,.05.02.07.02.1.07.21.14.32.22.96.67,1.95,1.36,3.26,1.36h.25c1.16-.09,2.06-.71,3.21-1.49.15-.1.28-.19.39-.26l.04-.02c1.3-.29,2.6-.71,4.13-1.34.16-.03.37-.05.59-.08,1.52-.21,2.83-.43,3.83-1.31,4.28,4.42,9.07,7.86,12.49,10.04l1.25.79c.29.79.83,1.64,1.77,3.02.19.28.36.52.46.69.79,1.65,1.41,2.55,2.23,3.46.07.15.15.3.22.45.02.11.04.23.06.35.22,1.23.45,2.5,1.52,3.43.88.77,1.96.97,3.32,1.23.18.03.35.06.47.09.33.12.65.25.96.37,1.09.43,2.22.88,3.58,1.17.02,0,.05.02.07.02.1.07.21.14.32.22.96.67,1.95,1.36,3.26,1.36h.25c1.16-.09,2.06-.71,3.21-1.49.15-.1.28-.19.39-.26l.04-.02c1.3-.29,2.6-.71,4.13-1.34.16-.03.37-.05.59-.08,1.71-.23,3.18-.43,4.21-1.64,1.02-1.19.91-2.38.69-4.74.67-1.08,1.27-2.26,1.84-3.62.1-.13.23-.3.36-.48.43-.56.81-1.1,1.13-1.63l1.82-1c3.92-2.16,8.02-5.63,10.76-8.16l1.1-1.01c.06.01.12.02.19.04.18.03.35.06.47.09.33.12.65.25.96.37,1.09.43,2.22.88,3.58,1.17.02,0,.05.02.07.02.1.07.21.14.32.22.52.36,1.06.73,1.65.99v-3.92c-.28-.19-.54-.36-.67-.39-.17-.05-.32-.11-.49-.17-1.58-.31-2.89-.95-4.39-1.5-.36-.13-2.08-.36-2.53-.6l-.08-.08c-.16-.17-.27-.63-.36-1.06,0,0,0,0,0,0-.02-.13-.05-.25-.07-.36,0-.04-.01-.08-.02-.12l-.05-.29-.09-.49-.08-.15s-.01-.03-.02-.04c-.19-.33-.34-.67-.5-1l-.02-.03h0s0-.02-.01-.02c-.15-.16-.29-.31-.42-.46-.07-.08-.13-.16-.2-.23-.1-.12-.2-.25-.3-.39-.05-.07-.11-.14-.16-.22-.12-.18-.24-.38-.37-.6-.03-.05-.06-.09-.09-.15-.17-.3-.34-.64-.53-1.05,0,0,0,0,0,0l-.03-.07-.11-.18s-.09-.13-.13-.19c-.07-.1-.14-.21-.22-.33-.02-.03-.04-.05-.06-.09l-.11-.16c-.29-.42-.62-.91-.89-1.34-.04-.06-.07-.11-.1-.17-.09-.15-.17-.28-.24-.4-.03-.05-.06-.11-.08-.15-.07-.14-.11-.24-.12-.31,0,0,0-.02,0-.02,0-.08.05-.2.12-.32.03-.05.07-.11.11-.17.06-.08.11-.17.19-.26.06-.08.12-.15.19-.23.08-.09.16-.19.24-.29.07-.08.14-.16.22-.25.11-.12.22-.24.33-.37.04-.05.08-.09.12-.14l.09-.1c.08-.09.14-.16.21-.24.05-.05.1-.11.14-.16.03-.04.08-.09.11-.13l.29-.34.07-.15s0,0,0,0c.14-.3.27-.58.39-.84.02-.14.04-.29.07-.44.04-.24.1-.49.18-.76.02-.07.04-.15.07-.22.07-.24.16-.51.26-.79.03-.08.05-.15.08-.23,0,0,0,0,0,0l.03-.07.04-.2s.03-.14.04-.19c.03-.13.06-.28.09-.44,0-.03,0-.04.01-.07l.03-.16c0-.05.02-.1.03-.15.01-.07.03-.14.04-.21.03-.17.06-.33.1-.51.05-.25.1-.49.15-.72,0-.03.01-.05.02-.07.05-.21.1-.41.14-.58,0-.02.01-.04.02-.06.04-.15.09-.26.13-.35.02-.04.04-.11.06-.13.42-.42,3.39-.3,3.94-.51,1.39-.52,2.38-.85,3.43-1.04.49-.3,1.19-.77,1.79-1.13v-3.68c-.89.25-1.75.8-2.81,1.49-.09.06-.17.11-.25.16Zm-41.53-17.1c1.39-.52,2.38-.85,3.43-1.04.86-.52,2.39-1.63,2.85-1.63,0,0,0,0,.01,0,.41.02,1.67,1.43,2.16,1.66,1.6.25,2.78.72,3.8,1.27.49.26,3.32.63,3.7,1.04.29.32.15,2.43.39,2.79.5.74.81,1.54,1.04,2.38.25.41.51.87.78,1.41.13.25,2.82,2.29,2.84,2.57,0,.06-.02.14-.06.23l-.19.32c-.21.35-.49.75-.89,1.28l-.1.13c-.12.15-.22.29-.31.41l-.22.31-.05.12s0,0,0,0c-.3.74-.62,1.42-.97,2.08-.08.16-.17.3-.25.45-.33.59-.67,1.18-1.07,1.74,0,.02,0,.04,0,.05h0s.09.98.09.98c0,.06.01.13.02.2.01.16.03.32.04.49,0,.06.01.12.02.18.04.45.07.88.07,1.19,0,.01,0,.02,0,.03,0,.1,0,.17-.02.24,0,.03-.01.08-.02.09-.03.04-.1.07-.17.1-.02.01-.04.02-.07.03-.07.03-.16.05-.25.07-.07.02-.14.04-.22.05-.08.02-.17.03-.25.05-.12.02-.24.04-.37.06-.07.01-.14.02-.21.03-.19.03-.38.05-.56.08l-.17.02c-.19.03-.36.05-.51.07l-.38.06-.12.05s0,0,0,0c-.64.26-1.25.49-1.86.7-.07.02-.15.06-.22.08-.68.22-1.35.4-2.04.55,0,0,0,0-.01,0h0s-.3.13-.3.13l-.25.11-.26.16s-.1.07-.15.1c-.03.02-.07.05-.11.07-.03.02-.06.04-.1.06l-.08.06s-.07.04-.1.07c-.11.07-.21.15-.32.22-.22.15-.43.28-.62.39-.03.02-.06.03-.08.05-.19.11-.36.19-.45.19,0,0-.01,0-.02,0-.1,0-.27-.08-.45-.18-.03-.02-.05-.03-.08-.04-.18-.11-.39-.24-.6-.39-.07-.05-.15-.1-.22-.15l-.09-.07-.28-.19-.35-.24-.18-.06s-.02-.02-.03-.02c-.11-.03-.22-.07-.32-.11l-.07-.02h-.01s-.06-.02-.09-.03c-.75-.15-1.44-.38-2.12-.63-.37-.13-.73-.27-1.1-.42-.37-.15-.69-.27-1.03-.4l-.23-.09-.24-.05s-.11-.02-.16-.03c-.05,0-.1-.02-.16-.03-.04,0-.07-.01-.11-.02l-.13-.02c-.16-.03-.33-.06-.49-.09-.06-.01-.11-.02-.16-.03-.1-.02-.2-.04-.3-.06-.07-.02-.14-.03-.2-.05-.08-.02-.15-.04-.21-.06-.05-.02-.11-.03-.15-.05-.09-.03-.16-.07-.2-.1,0,0-.02,0-.02-.01-.05-.04-.09-.11-.13-.21,0-.02-.02-.05-.02-.07-.03-.08-.06-.17-.08-.27-.01-.04-.02-.09-.03-.14-.02-.09-.04-.18-.06-.28-.01-.06-.03-.13-.04-.19-.02-.1-.04-.21-.06-.31,0-.02,0-.04-.01-.06l-.02-.09-.05-.27-.09-.48-.07-.14s-.01-.04-.02-.05c-.21-.35-.35-.71-.53-1.06-.15-.16-.29-.31-.43-.47-.07-.07-.13-.15-.19-.23-.1-.13-.21-.26-.31-.4-.05-.07-.1-.14-.15-.21-.12-.18-.25-.39-.38-.62-.03-.05-.05-.08-.08-.13-.17-.3-.34-.64-.53-1.05,0,0,0,0,0,0l-.03-.06-.11-.17s-.04-.06-.06-.08c-.09-.13-.19-.29-.31-.47-.01-.02-.02-.03-.03-.05l-.11-.16s0-.01-.01-.02c-.29-.42-.52-.77-.74-1.11l-.16-.24c-.31-.48-.54-.89-.54-1.04,0-.59,2.18-2.61,2.43-3.15.14-.3.27-.58.39-.84.09-.66.26-1.36.65-2.44.15-.4.62-3.6.92-3.91.42-.42,3.39-.3,3.94-.51Zm-17.38-26.43c.45-.54,1.2-1.45,1.55-1.66l.03-.02c.52.02,2.34,1.65,2.78,1.83,1.59.66,2.96,1.36,4.27,2.29.93-.05,3.27-.35,3.45-.19.37.31.51,2.84.69,3.29.59,1.42,1.04,2.73,1.32,4.12.08.18.15.35.23.53.17.37,1.36,1.9,1.39,2.31,0,0,0,.01,0,.02,0,.45-1.22,1.86-1.33,2.28-.05.17-.12.32-.17.49-.31,1.58-.95,2.89-1.5,4.39-.14.38-.38,2.31-.65,2.62-.28.33-2.19.46-2.56.68-.35.21-.71.35-1.06.53-.82.79-1.44,1.28-3.1,2.07-.39.18-2.98,2.11-3.41,2.11-.07,0-.17-.03-.28-.09l-.21-.14c-.44-.29-.95-.75-1.47-1.22,0,0-.01,0-.02-.01l-.16-.14c-.09-.08-.16-.14-.24-.22-.05-.04-.1-.09-.15-.13-.04-.03-.09-.08-.13-.11l-.34-.29-.14-.07s0,0,0,0c-.3-.14-.58-.27-.84-.39-.14-.02-.28-.04-.43-.07-.24-.05-.5-.11-.77-.18-.07-.02-.14-.04-.22-.06-.24-.07-.49-.15-.77-.25-.09-.03-.16-.05-.26-.09,0,0,0,0,0,0l-.07-.02-.2-.04s-.08-.02-.11-.02c-.16-.03-.34-.07-.56-.11-.03,0-.04,0-.07-.01l-.19-.03c-.26-.05-.53-.1-.81-.16-.04,0-.07-.01-.11-.02-.23-.05-.45-.09-.65-.14-.07-.02-.13-.03-.2-.05-.17-.04-.32-.08-.45-.12-.06-.02-.11-.03-.16-.05-.15-.05-.27-.1-.32-.14,0,0,0,0-.01,0-.06-.06-.1-.17-.14-.31-.02-.06-.03-.14-.04-.21-.02-.1-.04-.19-.05-.3-.01-.1-.02-.2-.03-.31-.01-.12-.02-.24-.03-.37,0-.1-.01-.21-.02-.31-.01-.19-.02-.37-.03-.56,0-.03,0-.05,0-.08v-.18c-.01-.13-.02-.24-.03-.36,0-.06,0-.12-.01-.17,0-.05,0-.12-.01-.17l-.04-.45-.06-.15s0,0,0,0c-.1-.26-.18-.49-.26-.72-.03-.1-.07-.2-.11-.29-.1-.27-.18-.54-.26-.79-.01-.05-.03-.09-.04-.14-.06-.21-.12-.41-.17-.61-.01-.06-.03-.12-.04-.17-.06-.24-.11-.47-.15-.7,0,0-.01-.02-.02-.03v-.02s-.33-.5-.33-.5l-.11-.18c-.17-.26-.34-.53-.51-.79-.02-.04-.04-.07-.07-.11-.14-.22-.25-.42-.35-.61-.02-.04-.05-.09-.07-.13-.1-.2-.17-.38-.17-.49,0-.12.12-.3.29-.52.01-.01.02-.03.04-.04.07-.09.15-.18.23-.28.03-.04.06-.07.1-.11.08-.09.16-.18.23-.26l.08-.09.61-.67.03-.11s.05-.07.06-.09c.05-.31.11-.59.17-.86.1-.45.22-.88.37-1.3.01-.04.03-.07.04-.11.15-.41.33-.82.53-1.22.05-.1.1-.21.15-.31,0,0,0,0,0-.01l.07-.13.09-.37s.03-.12.04-.17c.03-.12.06-.25.08-.38.01-.07.03-.11.04-.18l.03-.14c.01-.05.02-.11.04-.17.03-.15.06-.29.09-.44.02-.11.05-.22.07-.33.03-.11.05-.22.08-.32.03-.1.05-.21.08-.3.03-.1.06-.18.08-.26.02-.07.05-.15.07-.21.05-.12.1-.21.15-.27,0,0,0-.01,0-.01.04-.04.12-.07.22-.1,0,0,0,0,0,0,.1-.02.22-.04.35-.06.02,0,.05,0,.08,0,.11-.01.22-.02.34-.03.09,0,.19-.01.28-.02.07,0,.14,0,.21-.01h.27s.79-.05.79-.05l.14-.08s.08-.02.11-.04c.36-.24.74-.44,1.13-.61.01,0,.02-.01.03-.01.4-.17.8-.3,1.22-.42.42-.25.87-.51,1.41-.78,0,0,.02-.02.02-.02l.09-.05.41-.49.34-.41.17-.2Zm-38.95,26.07s-.03.02-.05.03l-.16.11s-.01,0-.02.01c-.42.29-.78.52-1.11.74l-.24.16c-.48.31-.89.54-1.04.54-.59,0-2.61-2.18-3.15-2.43-.3-.14-.58-.27-.84-.39-.66-.09-1.36-.26-2.44-.65-.4-.15-3.6-.62-3.91-.92-.42-.42-.3-3.39-.51-3.94-.52-1.39-.85-2.38-1.04-3.43-.52-.86-1.63-2.39-1.63-2.85,0,0,0,0,0-.01.02-.41,1.43-1.67,1.66-2.16.25-1.6.72-2.78,1.27-3.8.26-.49.63-3.32,1.04-3.7.32-.29,2.43-.15,2.79-.39.74-.5,1.54-.81,2.38-1.04.42-.25.87-.51,1.41-.78.25-.13,2.29-2.82,2.57-2.84.06,0,.14.02.23.06l.32.19c.35.21.75.49,1.28.89l.13.1c.15.12.29.22.41.31l.31.22.12.05s0,0,0,0c.74.3,1.42.62,2.08.97.16.08.3.17.45.25.59.33,1.18.67,1.74,1.07.02,0,.04,0,.05,0h.01s.97-.08.97-.08c.06,0,.13-.01.2-.02.16-.01.32-.03.49-.04.06,0,.12-.01.18-.02.45-.04.88-.07,1.19-.07.01,0,.02,0,.03,0,.1,0,.17,0,.24.02.03,0,.08.01.09.02.04.03.07.1.1.17.01.02.02.04.03.07.03.07.05.16.07.25.02.07.04.14.05.22.02.08.03.17.05.25.02.12.04.24.06.37.01.07.02.14.03.21.03.19.05.38.08.56l.02.17c.03.19.05.36.07.51l.06.38.05.12s0,0,0,0c.26.64.49,1.25.7,1.86.02.07.06.15.08.22.22.68.4,1.35.55,2.04,0,0,0,0,0,.01h0s.13.31.13.31l.11.25.16.26s.07.1.1.15c.02.03.05.07.07.11.02.03.04.06.06.1l.06.08s.04.07.07.1c.07.11.15.21.22.32.15.22.28.43.39.62.02.03.03.06.05.08.11.19.19.36.19.45,0,0,0,.01,0,.02,0,.1-.08.27-.18.45-.02.03-.03.05-.04.08-.11.18-.24.39-.39.6-.05.07-.1.15-.15.22l-.07.09-.19.28-.24.35-.06.18s-.02.02-.02.03c-.03.11-.07.22-.11.32l-.02.07h0s-.02.07-.03.1c-.15.75-.38,1.44-.63,2.12-.13.37-.27.73-.42,1.1-.15.37-.27.69-.4,1.02l-.09.23-.05.24s-.02.11-.03.16c0,.05-.02.1-.03.16,0,.04-.01.07-.02.11l-.02.13c-.03.16-.06.33-.09.49-.01.06-.02.11-.03.16-.02.1-.04.2-.06.3-.02.07-.03.14-.05.2-.02.08-.04.15-.06.21-.02.05-.03.11-.05.15-.03.09-.07.16-.1.2,0,0,0,.02-.01.02-.04.05-.11.09-.21.13-.02,0-.05.02-.07.02-.08.03-.17.06-.27.08-.04.01-.09.02-.14.03-.09.02-.18.04-.28.06-.06.01-.13.03-.19.04-.1.02-.21.04-.31.06-.02,0-.04,0-.06.01l-.09.02-.27.05-.48.09-.14.07s-.04.01-.05.02c-.35.21-.71.35-1.06.53-.16.15-.31.29-.47.43-.07.07-.15.13-.23.19-.13.1-.26.21-.4.31-.07.05-.14.1-.21.15-.18.12-.39.25-.62.38-.05.03-.08.05-.13.08-.3.17-.64.34-1.05.53,0,0,0,0,0,0l-.06.03-.17.11s-.06.04-.08.06c-.13.09-.29.19-.47.31Zm.49,3.71c.35-.23.73-.48,1.17-.79.28-.19.52-.36.69-.46,1.65-.79,2.55-1.41,3.45-2.23.15-.07.3-.15.45-.22.11-.02.23-.04.35-.06,1.23-.22,2.5-.45,3.43-1.52.77-.88.97-1.96,1.23-3.32.03-.18.06-.35.09-.47.12-.33.25-.65.37-.96.43-1.09.88-2.22,1.17-3.58,0-.02.02-.05.02-.07.07-.1.14-.21.22-.32.67-.96,1.36-1.95,1.36-3.26v-.25c-.09-1.16-.71-2.06-1.49-3.21-.1-.15-.19-.28-.26-.39l-.02-.04c-.29-1.3-.71-2.6-1.34-4.13-.03-.16-.05-.37-.08-.59-.23-1.71-.43-3.18-1.64-4.21-1.19-1.02-2.38-.91-4.74-.69-1.08-.67-2.26-1.27-3.62-1.84-.13-.1-.3-.23-.48-.36-.54-.41-1.06-.78-1.58-1.1h0c2.29-2.3,5.5-5.73,7.58-8.78h0c.57.3,1.3.5,2.34.71.05.01.1.02.15.03.34.07.7.14,1.11.21.33.06.62.11.81.16.94.33,1.71.55,2.45.69.06.03.12.05.18.08.17.14.37.33.59.53,1.43,1.3,2.57,2.32,4.21,2.33,1.27,0,2.18-.58,4.29-2.03.28-.19.52-.36.68-.46,1.65-.79,2.55-1.41,3.45-2.23.15-.07.3-.15.45-.22.11-.02.23-.04.35-.06,1.12-.2,2.26-.44,3.17-1.29,0,0,0,0,0,0,2.52,2.74,5.73,6.55,7.7,10.11-.37.22-.74.52-1.11.91,0,0-.02.02-.03.03-.17.18-.37.39-.56.61-.22.26-.46.53-.72.85-.18.21-.34.42-.48.58-.25.14-.5.27-.73.41-.83.26-1.56.57-2.23.95-.09,0-.18,0-.27.01-1.24.06-2.53.13-3.59,1.1-1.03.95-1.3,2.24-1.68,4.02-.06.3-.12.59-.17.81-.62,1.21-1.05,2.42-1.33,3.73-.04.04-.07.08-.11.12-.83.92-1.68,1.87-1.74,3.3v.07s0,.08,0,.08c0,1.33.69,2.4,1.65,3.87.06.09.11.17.16.25.22.96.53,1.9.96,3.06.02.22.03.49.04.79.1,1.93.17,3.46,1.33,4.62.89.9,1.95,1.13,4.47,1.6.33.06.62.12.81.16.94.33,1.71.55,2.45.69.06.03.12.05.18.08.14.11.31.27.48.43.71.09,1.38.58,1.64,1.25.02.04.05.08.07.12.09.1.19.2.3.29.35.24.71.44,1.1.62.43.16.87.29,1.32.37.16.01.31.01.47,0,.02,0,.04,0,.05-.01.16-.15.36-.25.56-.36l.08-.12c.79-.29,1.64-.83,3.02-1.77.28-.19.52-.36.68-.46,1.44-.68,2.3-1.26,3.1-1.93-.18.63-.34,1.39-.53,2.43-.06.33-.12.62-.16.81-.33.94-.55,1.71-.69,2.45-.03.06-.05.12-.08.18-.14.17-.33.37-.53.59-1.18,1.3-2.09,2.38-2.26,3.79l-1.17,1.14c-2.24,2.19-7.07,4.76-13.58,7.23l-1.29.49c-.68-.26-1.46-.43-2.39-.62-.3-.06-.59-.12-.81-.17-1.21-.62-2.42-1.05-3.73-1.33-.04-.04-.08-.07-.12-.11-.92-.83-1.87-1.68-3.3-1.74h-.07s-.08,0-.08,0c-1.33,0-2.4.69-3.87,1.65-.09.06-.17.11-.25.16-.96.22-1.9.53-3.06.96-.22.02-.49.03-.79.04-.47.02-.92.05-1.35.08,0,0,0-.01,0-.02-.01-.04-.03-.08-.04-.12,0,0,0,0,0-.01-.11.02-.23.01-.35.04h0c-1.79-4.71-4.72-11.41-7.96-14.73Zm31.27,30.23l-.1.13c-.07.09-.12.16-.18.24-.01.02-.03.04-.04.05-.03.04-.06.08-.09.12l-.22.31-.05.12s0,0,0,0c-.3.74-.62,1.42-.97,2.08-.08.16-.17.3-.26.46-.33.59-.67,1.18-1.06,1.74,0,.02,0,.04,0,.05h0s.11,1.14.11,1.14c.05.5.09.93.11,1.33l.02.33c.01.31,0,.54-.04.59-.31.37-2.84.51-3.29.69-1.42.59-2.73,1.04-4.12,1.32-.18.08-.35.15-.53.23-.37.17-1.9,1.36-2.31,1.39,0,0-.01,0-.02,0-.45,0-1.86-1.22-2.28-1.33-.17-.05-.32-.11-.49-.17-1.58-.31-2.89-.95-4.39-1.5-.38-.14-2.31-.38-2.62-.65-.33-.28-.46-2.19-.68-2.56-.21-.35-.35-.71-.53-1.06-.79-.82-1.28-1.44-2.07-3.1-.18-.39-2.11-2.98-2.11-3.41,0-.59,2.18-2.61,2.43-3.15.14-.3.27-.58.39-.84.09-.66.26-1.36.65-2.44.15-.41.62-3.6.92-3.91.06-.06.18-.11.33-.15.13.08.25.16.38.23.06.03.11.06.17.09.01,0,.02,0,.04,0,.07-.22.14-.35.21-.46,1.04-.1,2.45-.1,2.82-.23,1.39-.52,2.38-.85,3.43-1.04.86-.52,2.39-1.63,2.85-1.63,0,0,0,0,.01,0,.41.02,1.67,1.43,2.16,1.66,1.6.25,2.78.72,3.8,1.27.49.26,3.32.63,3.7,1.04.02.02.04.08.06.12l.02.07c.09.34.12.82.14,1.29v.27s.05.79.05.79l.08.14s.02.08.04.11c.24.37.44.75.61,1.14,0,0,0,.02.01.02.17.4.3.8.42,1.22.25.42.51.87.78,1.41,0,0,.01.01.02.02l.05.09.49.41.42.35.16.13s.05.04.07.06c.12.1.24.2.36.3.07.06.15.12.22.18.13.11.25.21.36.31.04.03.07.06.11.09.13.11.24.22.34.31.02.02.04.03.05.05.06.06.09.11.13.16.03.04.07.08.07.1,0,.05-.02.11-.05.18-.01.03-.01.05-.03.08-.03.07-.07.14-.12.22-.04.06-.07.13-.12.2-.04.07-.09.14-.14.21-.07.1-.15.21-.22.31-.04.05-.08.11-.12.16-.12.16-.24.31-.35.46Zm43.75,23.19c-.66,1.59-1.36,2.96-2.29,4.27.05.93.35,3.27.19,3.45-.31.37-2.84.51-3.29.69-1.42.59-2.73,1.04-4.12,1.32-.18.08-.35.15-.53.23-.37.17-1.9,1.36-2.31,1.39,0,0-.01,0-.02,0-.45,0-1.86-1.22-2.28-1.33-.17-.05-.32-.11-.49-.17-1.58-.31-2.89-.95-4.39-1.5-.38-.14-2.31-.38-2.62-.65-.33-.28-.46-2.19-.68-2.56-.21-.35-.35-.71-.53-1.06-.79-.82-1.28-1.44-2.07-3.1-.18-.39-2.11-2.98-2.11-3.41,0-.07.03-.17.09-.28l.14-.21c.29-.44.75-.95,1.22-1.47,0,0,0-.01.01-.02l.14-.16c.08-.09.14-.16.22-.24.04-.05.09-.1.13-.15.03-.04.08-.09.11-.13l.29-.34.07-.14s0,0,0,0c.14-.3.27-.58.39-.84.02-.14.04-.29.07-.43.04-.24.11-.5.18-.77.02-.07.04-.14.06-.22.07-.24.15-.49.25-.77.03-.09.05-.16.09-.26,0,0,0,0,0,0l.02-.07.04-.2s.02-.08.02-.11c.03-.16.07-.34.11-.56,0-.03,0-.04.01-.07l.03-.19c.05-.26.1-.53.16-.81,0-.04.01-.07.02-.11.04-.23.09-.45.14-.65.02-.07.03-.13.05-.2.04-.17.08-.32.12-.45.02-.06.03-.11.05-.16.05-.15.1-.27.14-.32,0,0,0,0,0-.01.06-.06.17-.1.31-.14.06-.02.14-.03.21-.04.1-.02.19-.04.3-.05.1-.01.2-.02.31-.03.12-.01.24-.02.37-.03.1,0,.21-.01.31-.02.19-.01.37-.02.56-.03.03,0,.05,0,.08,0h.18c.13-.01.24-.02.36-.03.06,0,.12,0,.17-.01.05,0,.12,0,.17-.01l.45-.04.15-.06s0,0,0,0c.26-.1.49-.18.72-.26.1-.03.2-.07.29-.11.27-.1.54-.18.79-.26.05-.02.09-.03.14-.04.21-.06.41-.12.61-.17.06-.01.12-.03.17-.04.24-.06.47-.11.7-.15,0,0,.02-.01.03-.02h.02s.5-.33.5-.33l.18-.11c.26-.17.53-.34.79-.51.04-.02.07-.04.11-.07.22-.14.42-.26.61-.35.04-.02.09-.05.13-.06.2-.1.38-.17.49-.17.12,0,.3.12.52.29.01.01.03.02.04.04.09.07.18.15.28.23.04.03.07.06.11.1.09.08.17.16.26.23l.09.08.67.61.11.03s.07.05.09.06c.31.05.59.11.86.17.45.1.88.22,1.3.37.04.01.07.03.11.04.41.15.82.33,1.22.53.1.05.21.1.31.15,0,0,0,0,.01,0l.13.07.37.09s.12.03.17.04c.12.03.25.06.38.08.07.01.11.03.18.04l.14.03c.05.01.11.02.17.04.15.03.29.06.44.09.11.02.22.05.33.07.11.03.22.05.32.08.1.03.21.05.3.08.1.03.18.06.26.08.07.02.15.05.21.07.12.05.21.1.27.15,0,0,.01,0,.01,0,.04.04.07.12.1.22,0,0,0,0,0,0,.02.1.04.22.06.35,0,.03,0,.05,0,.08.01.11.02.22.03.34,0,.09.01.19.02.28,0,.07,0,.14.01.21h0s.01.27.01.27l.04.79.08.14s.02.08.04.11c.24.36.44.74.61,1.13,0,.01.01.02.01.03.17.4.3.8.42,1.22.25.41.51.87.78,1.41,0,0,.02.02.02.02l.05.09.49.41.41.34.2.17c.54.45,1.45,1.2,1.66,1.55l.02.03c-.02.52-1.65,2.34-1.83,2.78Zm13.24-36.46c-.3.57-.5,1.29-.71,2.34-.01.05-.02.1-.03.15-.07.34-.14.7-.22,1.11-.06.33-.11.62-.16.81-.33.94-.55,1.71-.69,2.45-.03.06-.05.12-.08.18-.14.17-.33.37-.53.59-1.3,1.43-2.32,2.57-2.33,4.21,0,1.27.58,2.18,2.03,4.29.19.28.36.52.46.69.79,1.65,1.41,2.55,2.23,3.45.07.15.15.3.22.45.02.11.04.23.06.35.2,1.12.44,2.26,1.29,3.17,0,0,0,0,0,0-2.74,2.52-6.55,5.73-10.11,7.7-.22-.37-.52-.74-.91-1.11,0,0-.02-.02-.03-.03-.18-.17-.39-.37-.61-.56-.26-.22-.53-.46-.85-.72-.21-.18-.42-.34-.58-.48-.14-.25-.27-.5-.41-.73-.26-.83-.57-1.56-.95-2.23,0-.09,0-.18-.01-.27-.06-1.24-.13-2.53-1.1-3.59-.95-1.03-2.24-1.3-4.02-1.68-.3-.06-.59-.12-.81-.17-1.21-.62-2.42-1.05-3.73-1.33-.04-.04-.08-.07-.12-.11-.92-.83-1.87-1.68-3.3-1.74h-.07s-.08,0-.08,0c-1.33,0-2.4.69-3.87,1.65-.09.06-.17.11-.25.16-.96.22-1.9.53-3.06.96-.22.02-.49.03-.79.04-1.93.1-3.46.17-4.62,1.33-.9.89-1.13,1.95-1.6,4.47-.06.33-.12.62-.16.81-.33.94-.55,1.71-.69,2.45-.03.06-.05.12-.08.18-.14.17-.33.37-.53.59-.59.66-1.11,1.25-1.52,1.86-3.59-2.28-8.8-6.04-13.11-10.84-.03-.43-.07-.9-.12-1.44.67-1.08,1.27-2.26,1.84-3.62.1-.13.23-.3.36-.48,1.04-1.37,1.95-2.56,1.82-4.13-.13-1.57-1.05-2.33-2.88-3.85-.21-.18-.42-.34-.58-.48-.13-.25-.27-.5-.41-.73-.26-.83-.57-1.56-.95-2.23,0-.09,0-.18-.01-.27-.03-.67-.08-1.34-.26-1.99h0c4.71-1.79,11.41-4.72,14.73-7.96.23.35.48.73.79,1.17.19.28.36.52.46.69.79,1.65,1.41,2.55,2.23,3.45.07.15.15.3.22.45.02.11.04.23.06.35.22,1.23.45,2.5,1.52,3.43.88.77,1.96.97,3.32,1.23.18.03.35.06.47.09.33.12.65.25.96.37,1.09.43,2.22.88,3.58,1.17.02,0,.05.02.07.02.1.07.21.14.32.22.96.67,1.95,1.36,3.26,1.36h.25c1.16-.09,2.06-.71,3.21-1.49.15-.1.28-.19.39-.26l.04-.02c1.3-.29,2.6-.71,4.13-1.33.16-.03.37-.05.59-.08,1.71-.23,3.18-.43,4.21-1.64,1.02-1.19.91-2.38.69-4.74.67-1.08,1.27-2.26,1.84-3.62.1-.13.23-.3.36-.48.41-.54.78-1.06,1.1-1.58h0c2.3,2.29,5.73,5.5,8.78,7.58h0Z"/>
  </g>
</svg>