<?xml version="1.0" encoding="UTF-8"?>
<svg xmlns="http://www.w3.org/2000/svg" viewBox="0 0 170 170">
  <defs>
    <style>
      .cls-1 {
        fill: none;
        stroke: #231f20;
        stroke-miterlimit: 10;
      }

      .cls-2 {
        fill: #fff;
      }

      .cls-3 {
        fill: #939598;
      }

      .cls-4 {
        fill: #231f20;
      }
    </style>
  </defs>
  <g id="camada_1_preta" data-name="camada 1 preta">
    <polygon class="cls-4" points="18.57 .02 .21 .02 .21 172.07 169.53 172.07 169.53 153.42 18.57 153.42 18.57 .02"/>
    <path class="cls-4" d="m142.5,127.22c1.56-.33,2.54-1.93,2.2-3.56-.35-1.64-1.89-2.7-3.45-2.37-1.56.33-2.54,1.93-2.2,3.56s1.89,2.7,3.45,2.37Z"/>
    <path class="cls-4" d="m115.29,36.51c1.66.25,3.19-.82,3.43-2.4.24-1.58-.91-3.06-2.56-3.31s-3.19.82-3.43,2.4c-.24,1.58.91,3.06,2.56,3.31Z"/>
    <path class="cls-4" d="m51.2,31.78c.25-1.57-.9-3.06-2.55-3.32-1.66-.26-3.2.81-3.44,2.38-.25,1.57.9,3.06,2.55,3.32,1.66.26,3.2-.81,3.44-2.38Z"/>
    <path class="cls-4" d="m143.17,60.24c1.58-.24,2.65-1.78,2.4-3.43-.25-1.66-1.73-2.8-3.31-2.56-1.58.24-2.65,1.78-2.4,3.43s1.73,2.81,3.31,2.56Z"/>
    <path class="cls-1" d="m151.74-.07s0,.03,0,.04l17.78.06-17.79-.1Z"/>
    <path class="cls-1" d="m151.75-.03l-11.75-.04s.03.05.05.1h11.71s0-.05-.01-.06Z"/>
    <path class="cls-1" d="m169.53.02l-17.78-.06s0,.03.01.06h17.77Z"/>
    <path class="cls-4" d="m152.9,22.34s10.53-2.64,16.64-1.15V.02h-17.77c.21.98,2.39,11.34,1.13,22.32Z"/>
    <path class="cls-4" d="m165.78,90.79c0,2.13,1.66,3.85,3.75,4v-8c-2.09.15-3.75,1.87-3.75,4Z"/>
    <path class="cls-4" d="m153.57,99.48s.89,1.22,2.15,1.62c0,0-1.83,2.27-2.3,4.2-.27,1.12.67,2.2,1.82,2.11,1.14-.09,2.78-.52,4.28-1.98,0,0,1.06,2.38,1.92,2.45,0,0,4.81-5.1,3.88-11.26,0,0-7.02-2.85-11.74,2.86Z"/>
    <path class="cls-4" d="m160.88,74.8s-2.27-1.83-4.2-2.3c-1.12-.27-2.2.67-2.11,1.82.09,1.14.52,2.78,1.98,4.28,0,0-2.38,1.06-2.45,1.92,0,0,5.1,4.81,11.26,3.88,0,0,2.85-7.02-2.86-11.74,0,0-1.22.89-1.62,2.15Z"/>
    <path class="cls-4" d="m83.13,3.77c2.13,0,3.85-1.66,4-3.75h-8c.15,2.09,1.87,3.75,4,3.75Z"/>
    <path class="cls-4" d="m93.45,13.83s2.27,1.83,4.2,2.3c1.12.27,2.2-.67,2.11-1.82-.09-1.14-.52-2.78-1.98-4.28,0,0,2.38-1.06,2.44-1.92,0,0-5.1-4.81-11.26-3.88,0,0-2.85,7.02,2.86,11.74,0,0,1.22-.89,1.62-2.15Z"/>
    <path class="cls-4" d="m66.67,14.99c1.14-.09,2.78-.52,4.28-1.98,0,0,1.06,2.38,1.92,2.45,0,0,4.81-5.1,3.88-11.26,0,0-7.02-2.85-11.74,2.86,0,0,.89,1.22,2.15,1.62,0,0-1.83,2.27-2.3,4.2-.27,1.12.67,2.2,1.82,2.11Z"/>
  </g>
  <g id="camada_2_cinza_50_" data-name="camada 2 cinza 50%">
    <path class="cls-3" d="m143.95,30.09c2.48-18.04-3.36-29.08-3.9-30.06h-17.93c-.15,4.05-3.46,7.29-7.54,7.29s-7.39-3.24-7.54-7.29h-19.91c-.15,2.09-1.87,3.75-4,3.75s-3.85-1.66-4-3.75h-23.87c-.15,4.05-3.46,7.29-7.54,7.29S40.33,4.07,40.18.02h-10.73v142.34h140.08v-12.6c-4.05-.15-7.29-3.46-7.29-7.54s3.24-7.39,7.29-7.54v-19.91c-2.09-.15-3.75-1.87-3.75-4s1.66-3.85,3.75-4v-23.87c-4.05-.15-7.29-3.46-7.29-7.54s3.24-7.39,7.29-7.54v-16.41c-6.13-3.38-25.58-1.34-25.58-1.34ZM88.97,4.24c6.16-.94,11.26,3.88,11.26,3.88-.07.86-2.44,1.92-2.44,1.92,1.46,1.5,1.89,3.14,1.98,4.28.1,1.15-.98,2.09-2.11,1.82-1.93-.47-4.2-2.3-4.2-2.3-.4,1.26-1.62,2.15-1.62,2.15-5.72-4.72-2.86-11.74-2.86-11.74Zm-23.97,2.82c4.73-5.72,11.74-2.86,11.74-2.86.94,6.16-3.88,11.26-3.88,11.26-.86-.07-1.92-2.45-1.92-2.45-1.5,1.46-3.14,1.89-4.28,1.98-1.15.1-2.09-.99-1.82-2.11.47-1.93,2.3-4.2,2.3-4.2-1.26-.4-2.15-1.62-2.15-1.62Zm71.38,53.14c-.02-.19-.24-.28-.41-.18-23.12,14.72-30.54,23.65-32.91,28.07-3.3,3.93-6.04,12.85-8.12,22.04,4.45,3.39,14.94,8.67,39.64,13.88.19.04.37-.12.32-.31-.33-1.2-1.6-4.81-5.45-6.98,0,0-2.04-1.9.94-1.74,1.04.05,8.69,1.76,16.82-2.18,0,0,4.13,13.86,2.43,18.76,0,0-36.36-1.04-56.42-13.13-1.93,10.21-2.96,18.87-2.96,18.87-59.42-1.15-51.09-56.96-51.09-56.96,0,0,7.67.06,17.37-.86-13.08-19.41-16.05-55.54-16.05-55.54,4.8-1.96,18.87,1.43,18.87,1.43-3.49,8.33-1.39,15.87-1.28,16.91.31,2.98-1.69,1.04-1.69,1.04-2.38-3.73-6.05-4.81-7.27-5.07-.19-.04-.34.15-.29.33,7.04,26.36,13.29,36.15,16.8,39.78,6.78-1.04,13.7-2.62,19.24-5.05,4.42-2.37,13.35-9.78,28.07-32.91.1-.16.02-.39-.18-.41-1.23-.11-5.06-.19-8.45,2.65,0,0-2.49,1.25-1.3-1.5.42-.95,4.7-7.51,3.88-16.51,0,0,14.43,1,18.42,4.32,0,0-16.12,39.49-36.77,51.39-22.01,11.38-41.46,10.4-41.46,10.4.99,32.06,34.96,37.33,34.96,37.33-.35-21.84,13.99-43.64,13.99-43.64,11.91-20.65,51.39-36.77,51.39-36.77,3.32,3.99,4.32,18.42,4.32,18.42-8.99-.82-15.55,3.46-16.51,3.88-2.74,1.19-1.5-1.3-1.5-1.3,2.84-3.39,2.76-7.22,2.65-8.45Zm25.06,47.67c-.86-.07-1.92-2.45-1.92-2.45-1.5,1.46-3.14,1.89-4.28,1.98-1.15.1-2.09-.99-1.82-2.11.47-1.93,2.3-4.2,2.3-4.2-1.26-.4-2.15-1.62-2.15-1.62,4.73-5.72,11.74-2.86,11.74-2.86.94,6.16-3.88,11.26-3.88,11.26Zm1.06-35.22c5.72,4.72,2.86,11.74,2.86,11.74-6.16.94-11.26-3.88-11.26-3.88.07-.86,2.45-1.92,2.45-1.92-1.46-1.5-1.89-3.14-1.98-4.28-.1-1.15.99-2.09,2.11-1.82,1.93.47,4.2,2.3,4.2,2.3.4-1.26,1.62-2.15,1.62-2.15Z"/>
  </g>
  <g id="camada_5_branca" data-name="camada 5 branca">
    <polygon class="cls-2" points="29.45 .02 18.57 .02 18.57 153.42 169.53 153.42 169.53 142.37 29.45 142.37 29.45 .02"/>
    <path class="cls-2" d="m143.95,30.09s19.44-2.05,25.58,1.34v-10.24c-6.11-1.48-16.64,1.15-16.64,1.15,1.25-10.98-.92-21.34-1.13-22.32h-11.71c.55.99,6.38,12.03,3.9,30.06Z"/>
    <path class="cls-2" d="m135.23,69.96c.95-.42,7.51-4.7,16.51-3.88,0,0-1-14.43-4.32-18.42,0,0-39.49,16.12-51.39,36.77,0,0-14.33,21.81-13.99,43.64,0,0-33.97-5.27-34.96-37.33,0,0,19.45.99,41.46-10.4,20.65-11.91,36.77-51.39,36.77-51.39-3.99-3.32-18.42-4.32-18.42-4.32.82,8.99-3.46,15.55-3.88,16.51-1.19,2.74,1.3,1.5,1.3,1.5,3.39-2.84,7.22-2.76,8.45-2.65.19.02.28.24.18.41-14.72,23.12-23.65,30.54-28.07,32.91-5.54,2.43-12.46,4.01-19.24,5.05-3.51-3.63-9.76-13.42-16.8-39.78-.05-.19.1-.38.29-.33,1.21.26,4.89,1.34,7.27,5.07,0,0,2,1.94,1.69-1.04-.11-1.03-2.22-8.58,1.28-16.91,0,0-14.06-3.39-18.87-1.43,0,0,2.97,36.13,16.05,55.54-9.7.92-17.37.86-17.37.86,0,0-8.32,55.8,51.09,56.96,0,0,1.04-8.66,2.96-18.87,20.06,12.09,56.42,13.13,56.42,13.13,1.71-4.9-2.43-18.76-2.43-18.76-8.13,3.93-15.78,2.23-16.82,2.18-2.99-.15-.94,1.74-.94,1.74,3.85,2.18,5.12,5.79,5.45,6.98.05.19-.13.35-.32.31-24.7-5.21-35.19-10.49-39.64-13.88,2.09-9.19,4.83-18.11,8.12-22.04,2.37-4.42,9.78-13.35,32.91-28.07.17-.1.39-.02.41.18.11,1.23.19,5.06-2.65,8.45,0,0-1.25,2.49,1.5,1.3Zm-22.51-36.76c.24-1.58,1.78-2.65,3.43-2.4s2.8,1.73,2.56,3.31c-.24,1.58-1.78,2.65-3.43,2.4s-2.8-1.73-2.56-3.31Zm-67.52-2.36c.25-1.58,1.79-2.64,3.44-2.38,1.66.26,2.8,1.74,2.55,3.32-.25,1.58-1.79,2.64-3.44,2.38-1.66-.26-2.8-1.74-2.55-3.32Zm96.04,90.44c1.56-.33,3.1.73,3.45,2.37.35,1.64-.64,3.24-2.2,3.56-1.56.33-3.1-.73-3.45-2.37s.64-3.24,2.2-3.56Zm1.01-67.04c1.58-.24,3.06.91,3.31,2.56.25,1.66-.82,3.19-2.4,3.43-1.58.24-3.06-.91-3.31-2.56s.82-3.19,2.4-3.43Z"/>
    <path class="cls-2" d="m162.24,122.23c0,4.08,3.24,7.39,7.29,7.54v-15.08c-4.05.15-7.29,3.46-7.29,7.54Z"/>
    <path class="cls-2" d="m162.24,55.37c0,4.08,3.24,7.39,7.29,7.54v-15.08c-4.05.15-7.29,3.46-7.29,7.54Z"/>
    <path class="cls-2" d="m114.58,7.31c4.08,0,7.39-3.24,7.54-7.29h-15.08c.15,4.05,3.46,7.29,7.54,7.29Z"/>
    <path class="cls-2" d="m47.72,7.31c4.08,0,7.39-3.24,7.54-7.29h-15.08c.15,4.05,3.46,7.29,7.54,7.29Z"/>
  </g>
</svg>