<?xml version="1.0" encoding="UTF-8"?>
<svg xmlns="http://www.w3.org/2000/svg" viewBox="0 0 170 170">
  <defs>
    <style>
      .cls-1 {
        fill: none;
        stroke: #231f20;
        stroke-miterlimit: 10;
      }

      .cls-2 {
        fill: #fff;
      }

      .cls-3 {
        fill: #939598;
      }
    </style>
  </defs>
  <g id="camada_2_cinza_50_" data-name="camada 2 cinza 50%">
    <rect class="cls-1" x="33.64" y="1.35" width="136.36" height="136.36"/>
    <rect class="cls-3" y="1.35" width="170" height="167.3"/>
    <g>
      <rect class="cls-3" x="153" y="1.35" width="17" height="18.33"/>
      <polygon class="cls-3" points="170 103.73 170 64.57 150.42 84.15 170 103.73"/>
      <polygon class="cls-3" points="89.61 23.34 111.6 1.35 67.62 1.35 89.61 23.34"/>
      <path class="cls-3" d="m61.78,70.43v33.86l7.17,7.17h33.86l26.97-26.97-41.03-41.03-26.97,26.97Z"/>
    </g>
  </g>
  <g id="camada_5_branca" data-name="camada 5 branca">
    <polygon class="cls-2" points="33.64 1.35 19.43 1.35 19.43 148.27 170 148.27 170 137.71 33.64 137.71 33.64 1.35"/>
    <path class="cls-2" d="m170,34.59v-14.91h-17V1.35h-13.93v33.24h30.93Zm-19.58,49.56l19.58-19.58v-19.65h-.05l-29.33,29.33-41.11-41.11,29.33-29.33V1.35h-17.24l-21.99,21.99L67.62,1.35h-21.08l32.31,32.31-29.33,29.33v50.13l10.61,10.61h50.13l29.33-29.33,30.42,30.42v-21.08l-19.58-19.58Zm-47.61,27.31h-33.86l-7.17-7.17v-33.86l26.97-26.97,41.03,41.03-26.97,26.97Z"/>
  </g>
</svg>