<?xml version="1.0" encoding="UTF-8"?>
<svg xmlns="http://www.w3.org/2000/svg" viewBox="0 0 170 170">
  <defs>
    <style>
      .cls-1 {
        fill: #fff;
      }

      .cls-2 {
        fill: #939598;
      }

      .cls-3 {
        fill: #231f20;
      }
    </style>
  </defs>
  <g id="camada_1_preta" data-name="camada 1 preta">
    <polygon class="cls-3" points="0 -1.37 0 171.37 20.71 171.37 20.71 18.38 170 18.38 170 -1.37 0 -1.37"/>
    <path class="cls-3" d="m144.42,74.11h4.89c3.22,0,5.83,2.61,5.83,5.83s-2.61,5.83-5.83,5.83h-4.89c2.74,11.17,13.14,19.49,25.58,19.49v-50.64c-12.44,0-22.84,8.32-25.58,19.48Z"/>
    <path class="cls-3" d="m90.16,142.7v2.45c0,3.22-2.61,5.83-5.83,5.83s-5.83-2.61-5.83-5.83v-3.06c-12.42,2.03-21.89,12.4-21.89,24.93,0,1.48.16,2.93.41,4.35h51.79c.25-1.41.41-2.86.41-4.35,0-11.56-8.07-21.3-19.07-24.32Z"/>
    <path class="cls-3" d="m101.55,79.95c0-3.22,2.61-5.83,5.83-5.83h1.2c-2.74-11.17-13.14-19.48-25.58-19.48-14.53,0-26.31,11.34-26.31,25.32,0,12.5,9.42,22.86,21.8,24.92v-1.64c0-3.22,2.61-5.83,5.83-5.83s5.83,2.61,5.83,5.83v1.07c9.13-2.48,16.23-9.58,18.43-18.51h-1.2c-3.22,0-5.83-2.61-5.83-5.83Z"/>
    <rect class="cls-3" x="145.69" y="144.49" width="24.31" height="26.88"/>
  </g>
  <g id="camada_2_cinza_50_" data-name="camada 2 cinza 50%">
    <path class="cls-2" d="m37.84,171.37h8.99c-.18-1.43-.31-2.87-.31-4.35,0-17.9,13.97-32.64,31.98-34.75v-17.59c-17.97-2.14-31.9-16.86-31.9-34.74,0-19.35,16.3-35.03,36.41-35.03,18.04,0,32.97,12.63,35.86,29.2h15.27c2.89-16.56,17.83-29.2,35.86-29.2v-9.83H37.84v136.29Z"/>
    <path class="cls-2" d="m134.14,85.78h-15.27c-2.5,14.31-13.98,25.69-28.7,28.51v18.4c16.64,3.23,29.17,17.37,29.17,34.33,0,1.47-.13,2.92-.31,4.35h14.29v-39.29h36.69v-17.09c-18.04,0-32.97-12.63-35.86-29.2Z"/>
  </g>
  <g id="camada_5_branca" data-name="camada 5 branca">
    <path class="cls-1" d="m134.14,74.11h-15.27c-2.89-16.56-17.83-29.2-35.86-29.2-20.11,0-36.41,15.68-36.41,35.03,0,17.88,13.92,32.59,31.9,34.74v17.59c-18.01,2.11-31.98,16.84-31.98,34.75,0,1.47.13,2.92.31,4.35h10.2c-.25-1.41-.41-2.86-.41-4.35,0-12.53,9.47-22.9,21.89-24.93v3.06c0,3.22,2.61,5.83,5.83,5.83s5.83-2.61,5.83-5.83v-2.45c11.01,3.03,19.07,12.76,19.07,24.32,0,1.48-.16,2.93-.41,4.35h10.2c.18-1.43.31-2.87.31-4.35,0-16.96-12.53-31.1-29.17-34.33v-18.4c14.72-2.83,26.21-14.2,28.7-28.51h15.27c2.89,16.57,17.82,29.2,35.86,29.2v-9.71c-12.44,0-22.84-8.32-25.58-19.49h4.89c3.22,0,5.83-2.61,5.83-5.83s-2.61-5.83-5.83-5.83h-4.89c2.74-11.17,13.14-19.48,25.58-19.48v-9.71c-18.04,0-32.97,12.63-35.86,29.2Zm-43.98,30.18v-1.07c0-3.22-2.61-5.83-5.83-5.83s-5.83,2.61-5.83,5.83v1.64c-12.38-2.06-21.8-12.42-21.8-24.92,0-13.98,11.78-25.32,26.31-25.32,12.44,0,22.84,8.32,25.58,19.48h-1.2c-3.22,0-5.83,2.61-5.83,5.83s2.61,5.83,5.83,5.83h1.2c-2.19,8.94-9.29,16.03-18.43,18.51Z"/>
    <polygon class="cls-1" points="20.71 171.37 37.84 171.37 37.84 35.08 170 35.08 170 18.38 20.71 18.38 20.71 171.37"/>
    <polygon class="cls-1" points="133.31 171.37 145.69 171.37 145.69 144.49 170 144.49 170 132.08 133.31 132.08 133.31 171.37"/>
  </g>
</svg>