<?xml version="1.0" encoding="UTF-8"?>
<svg xmlns="http://www.w3.org/2000/svg" viewBox="0 0 170 170">
  <defs>
    <style>
      .cls-1 {
        fill: #fff;
      }

      .cls-2 {
        fill: #939598;
      }

      .cls-3 {
        fill: #6d6e71;
      }

      .cls-4 {
        fill: #231f20;
      }
    </style>
  </defs>
  <g id="camada_1_preta" data-name="camada 1 preta">
    <rect class="cls-4" x="0" y="0" width="170" height="170"/>
  </g>
  <g id="camada_2_cinza_50_" data-name="camada 2 cinza 50%">
    <g>
      <path class="cls-2" d="m35.96,119.91c2.68-2.83,5.03-5.97,6.97-9.37.02-.03.03-.06.05-.09,2.55-4.49,3.35-9.86,2.2-14.9-.65-2.87-1.01-5.86-1.01-8.93,0-5.21,1.02-10.18,2.8-14.77,1.66-4.27,3.99-8.19,6.91-11.62,7.49-8.82,18.64-14.43,31.12-14.43s24.19,5.88,31.67,15.08c1.17-2.42,2.46-4.77,3.93-7-8.85-9.62-21.5-15.69-35.61-15.69s-26.28,5.83-35.1,15.13c-2.68,2.83-5.03,5.97-6.97,9.37-1.64,2.88-3.01,5.94-4.04,9.15-1.49,4.66-2.31,9.62-2.31,14.77,0,2.39.18,4.74.52,7.04,1.01,6.85-.56,13.95-5.02,19.25-.03.03-.06.07-.09.1-7.49,8.82-18.64,14.43-31.12,14.43-.29,0-.57-.04-.86-.04v7.57c14.17.24,26.96-5.57,35.96-15.06Z"/>
      <path class="cls-2" d="m138.33,112.35c-1.17,2.42-2.46,4.77-3.93,7,8.85,9.62,21.51,15.6,35.61,15.61v-7.56c-12.78,0-24.19-5.85-31.67-15.05Z"/>
      <path class="cls-2" d="m31.98,60.22c1.19-2.39,2.49-4.71,3.98-6.9-8.82-9.3-21.27-15.13-35.1-15.13-.29,0-.57.04-.86.04v7.58c12.82-.27,24.32,5.39,31.98,14.41Z"/>
      <path class="cls-2" d="m134.39,53.88c-2.65,2.89-5,6.06-6.89,9.53-.02.03-.03.06-.05.09-2.59,4.76-3.34,10.34-2.33,15.66.46,2.41.7,4.9.7,7.45,0,4.72-.84,9.23-2.31,13.45-1.57,4.51-3.89,8.67-6.84,12.3-7.49,9.2-18.89,15.08-31.67,15.08s-23.63-5.61-31.12-14.43c-1.19,2.39-2.49,4.71-3.98,6.9,8.82,9.3,21.27,15.13,35.1,15.13s26.76-6.07,35.61-15.69c2.65-2.89,5-6.06,6.89-9.53,1.68-3.06,3-6.34,3.99-9.76,1.23-4.27,1.93-8.77,1.93-13.45,0-1.88-.11-3.73-.33-5.55-.84-7.14.63-14.49,5.15-20.08.03-.04.06-.07.09-.11,7.49-9.2,18.89-15.08,31.67-15.08v-7.6c-14.1,0-26.76,6.07-35.61,15.69Z"/>
      <polygon class="cls-2" points="0 117.04 0 127.39 0 127.39 0 117.04 0 117.04"/>
      <polygon class="cls-2" points="0 134.96 0 145.86 0 145.86 0 134.96 0 134.96"/>
      <polygon class="cls-2" points="0 27.37 0 38.24 0 38.24 0 27.37 0 27.37"/>
      <polygon class="cls-2" points="0 45.81 0 56.18 0 56.18 0 45.81 0 45.81"/>
    </g>
  </g>
  <g id="camada_3_cinza_70_" data-name="camada 3 cinza 70%">
    <rect class="cls-3" x="0" y=".43" width="169.14" height="18.64"/>
    <rect class="cls-3" x="0" y="150.93" width="169.14" height="18.64" transform="translate(169.14 320.5) rotate(180)"/>
    <path class="cls-3" d="m2.36,111.17l21.15-21.15c1.3-1.3,1.3-3.42,0-4.72L2.36,64.15c-.65-.65-1.51-.98-2.36-.98v48.98c.85,0,1.71-.33,2.36-.98Z"/>
    <path class="cls-3" d="m146.49,85.3c-1.3,1.3-1.3,3.42,0,4.72l21.15,21.15c.65.65,1.51.98,2.36.98v-48.98c-.85,0-1.71.33-2.36.98l-21.15,21.15Z"/>
    <rect class="cls-3" x="66.27" y="69.36" width="36.59" height="36.59" rx="3.34" ry="3.34" transform="translate(-37.21 85.47) rotate(-45)"/>
  </g>
  <g id="camada_5_branca" data-name="camada 5 branca">
    <path class="cls-1" d="m85,27.34c-16.45,0-31.33,6.71-42.07,17.53C32.01,33.86,16.79,27.13,0,27.37v10.87c.29,0,.57-.04.86-.04,13.83,0,26.28,5.83,35.1,15.13-1.49,2.19-2.79,4.51-3.98,6.9C24.32,51.2,12.83,45.55,0,45.81v10.37c.29,0,.57-.04.86-.04,11.54,0,21.58,6.42,26.75,15.87,2.37,4.34,3.72,9.31,3.72,14.6s-1.35,10.27-3.72,14.6c-5.17,9.46-15.21,15.87-26.75,15.87-.29,0-.57-.04-.86-.04v10.35c.29,0,.57.04.86.04,12.48,0,23.63-5.61,31.12-14.43.03-.03.06-.07.09-.1,4.46-5.29,6.03-12.39,5.02-19.25-.34-2.3-.52-4.65-.52-7.04,0-5.15.82-10.11,2.31-14.77,1.03-3.21,2.4-6.27,4.04-9.15,1.94-3.41,4.29-6.55,6.97-9.37,8.82-9.3,21.27-15.13,35.1-15.13s26.76,6.07,35.61,15.69c-1.48,2.22-2.76,4.57-3.93,7-7.49-9.2-18.89-15.08-31.67-15.08s-23.63,5.61-31.12,14.43c-2.91,3.43-5.25,7.35-6.91,11.62-1.78,4.58-2.8,9.55-2.8,14.77,0,3.07.35,6.06,1.01,8.93,1.15,5.04.35,10.41-2.2,14.9-.02.03-.03.06-.05.09-1.94,3.41-4.29,6.55-6.97,9.37C26.96,129.39,14.17,135.21,0,134.96v10.9c.29,0,.57.02.86.02,16.45,0,31.33-6.71,42.07-17.53,10.74,10.82,25.62,17.53,42.07,17.53s31.73-6.92,42.5-18.01c10.77,11.09,25.82,18.01,42.5,18.01v-10.93c-14.09,0-26.76-5.99-35.61-15.61,1.48-2.22,2.76-4.57,3.93-7,7.48,9.2,18.89,15.04,31.67,15.05v-10.31c-12,0-22.35-6.95-27.32-17.03-2-4.06-3.16-8.61-3.16-13.45s1.16-9.39,3.16-13.45c4.97-10.08,15.32-17.03,27.32-17.03v-10.35c-12.78,0-24.19,5.88-31.67,15.08-.03.04-.06.07-.09.11-4.52,5.59-5.99,12.94-5.15,20.08.22,1.82.33,3.67.33,5.55,0,4.67-.7,9.17-1.93,13.45-.99,3.42-2.31,6.7-3.99,9.76-1.9,3.47-4.24,6.64-6.89,9.53-8.85,9.62-21.5,15.69-35.61,15.69s-26.28-5.83-35.1-15.13c1.49-2.19,2.79-4.51,3.98-6.9,7.49,8.82,18.64,14.43,31.12,14.43s24.19-5.88,31.67-15.08c2.95-3.63,5.26-7.79,6.84-12.3,1.47-4.22,2.31-8.73,2.31-13.45,0-2.55-.25-5.04-.7-7.45-1.01-5.33-.26-10.9,2.33-15.66.02-.03.03-.06.05-.09,1.9-3.47,4.24-6.64,6.89-9.53,8.85-9.62,21.5-15.69,35.61-15.69v-10.83c-16.68,0-31.73,6.89-42.5,17.98-10.77-11.09-25.82-18.01-42.5-18.01Zm27.32,72.72c-4.97,10.08-15.32,17.03-27.32,17.03s-21.58-6.42-26.75-15.87c-2.37-4.34-3.72-9.31-3.72-14.6s1.35-10.27,3.72-14.6c5.17-9.46,15.21-15.87,26.75-15.87s22.35,6.95,27.32,17.03c2,4.06,3.16,8.61,3.16,13.45s-1.16,9.39-3.16,13.45Z"/>
  </g>
</svg>