<?xml version="1.0" encoding="UTF-8"?>
<svg xmlns="http://www.w3.org/2000/svg" viewBox="0 0 170 170">
  <defs>
    <style>
      .cls-1 {
        fill: #fff;
      }

      .cls-2 {
        fill: #939598;
      }

      .cls-3 {
        fill: #231f20;
      }
    </style>
  </defs>
  <g id="camada_1_preta" data-name="camada 1 preta">
    <polygon class="cls-3" points="170 170.44 0 170.44 0 82.26 0 40.25 0 -.44 41.51 -.44 170 -.44 170 170.44"/>
  </g>
  <g id="camada_2_cinza_50_" data-name="camada 2 cinza 50%">
    <rect class="cls-2" y="-.44" width="170" height="20.2"/>
    <rect class="cls-2" y="150.24" width="170" height="20.2" transform="translate(170 320.68) rotate(180)"/>
  </g>
  <g id="camada_5_branca" data-name="camada 5 branca">
    <polygon class="cls-2" points="170 87.32 170 78.68 170 78.68 170 87.32 170 87.32"/>
    <rect class="cls-1" x="170" y="57.95" width="0" height="6.5"/>
    <polygon class="cls-1" points="128.16 86.71 170 37.56 170 130.57 128.16 86.71"/>
    <polygon class="cls-1" points="82.78 130.57 128.16 86.71 81.77 37.56 37.41 86.11 82.78 130.57"/>
    <polygon class="cls-1" points="0 130.57 37.41 86.11 0 37.56 0 130.57"/>
    <rect class="cls-1" y="19.76" width="170" height="12.14"/>
    <rect class="cls-1" y="138.11" width="170" height="12.14" transform="translate(170 288.35) rotate(180)"/>
  </g>
</svg>