<?xml version="1.0" encoding="UTF-8"?>
<svg xmlns="http://www.w3.org/2000/svg" viewBox="0 0 170 170">
  <defs>
    <style>
      .cls-1 {
        fill: #fff;
      }

      .cls-2 {
        fill: #939598;
      }

      .cls-3 {
        fill: #6d6e71;
      }

      .cls-4 {
        fill: #231f20;
      }
    </style>
  </defs>
  <g id="camada_1_preta" data-name="camada 1 preta">
    <polygon class="cls-4" points="0 -1.37 0 171.37 20.71 171.37 20.71 18.38 170 18.38 170 -1.37 0 -1.37"/>
    <rect class="cls-4" x="150.92" y="151.34" width="19.08" height="20.03"/>
  </g>
  <g id="camada_2_cinza_50_" data-name="camada 2 cinza 50%">
    <polygon class="cls-2" points="47.33 171.37 59.56 171.37 59.56 55.46 170 55.46 170 44.87 47.33 44.87 47.33 171.37"/>
    <polygon class="cls-2" points="114.33 141.41 114.33 171.37 124.99 171.37 124.99 124.13 170 124.13 170 112.95 114.33 112.95 114.33 141.41"/>
  </g>
  <g id="camada_3_cinza_70_" data-name="camada 3 cinza 70%">
    <path class="cls-3" d="m88.89,108.94c2.01-12.64,12.35-22.63,25.44-24.62-13.1-1.99-23.43-11.99-25.44-24.62-2.01,12.64-12.35,22.63-25.44,24.62,13.1,1.99,23.43,11.99,25.44,24.62Z"/>
    <path class="cls-3" d="m88.89,116.78c-2.01,12.64-12.35,22.63-25.44,24.62,13.1,1.99,23.43,11.99,25.44,24.62,2.01-12.64,12.35-22.63,25.44-24.62-13.1-1.99-23.43-11.99-25.44-24.62Z"/>
    <path class="cls-3" d="m144.56,59.69c-2.01,12.64-12.35,22.63-25.44,24.62,13.1,1.99,23.43,11.99,25.44,24.62,2.01-12.64,12.35-22.63,25.44-24.62-13.1-1.99-23.43-11.99-25.44-24.62Z"/>
  </g>
  <g id="camada_5_branca" data-name="camada 5 branca">
    <polygon class="cls-1" points="20.71 171.37 47.33 171.37 47.33 44.87 170 44.87 170 18.38 20.71 18.38 20.71 171.37"/>
    <path class="cls-1" d="m59.56,171.37h54.77v-29.97c-13.1,1.99-23.43,11.99-25.44,24.62-2.01-12.64-12.35-22.63-25.44-24.62,13.1-1.99,23.43-11.99,25.44-24.62,2.01,12.64,12.35,22.63,25.44,24.62v-28.46h55.67v-28.63c-13.1,1.99-23.43,11.99-25.44,24.62-2.01-12.64-12.35-22.63-25.44-24.62,13.1-1.99,23.43-11.99,25.44-24.62,2.01,12.64,12.35,22.63,25.44,24.62v-28.86H59.56v115.91Zm29.33-111.68c2.01,12.64,12.35,22.63,25.44,24.62-13.1,1.99-23.43,11.99-25.44,24.62-2.01-12.64-12.35-22.63-25.44-24.62,13.1-1.99,23.43-11.99,25.44-24.62Z"/>
    <polygon class="cls-1" points="124.99 171.37 150.92 171.37 150.92 151.34 170 151.34 170 124.13 124.99 124.13 124.99 171.37"/>
  </g>
</svg>