<?xml version="1.0" encoding="UTF-8"?>
<svg xmlns="http://www.w3.org/2000/svg" viewBox="0 0 170 170">
  <defs>
    <style>
      .cls-1 {
        fill: #fff;
      }

      .cls-2 {
        fill: #939598;
      }

      .cls-3 {
        fill: #6d6e71;
      }

      .cls-4 {
        fill: none;
      }

      .cls-5 {
        fill: #231f20;
      }
    </style>
  </defs>
  <g id="camada_1_preta" data-name="camada 1 preta">
    <rect class="cls-5" y="22.85" width="170" height="11.77"/>
    <rect class="cls-5" y="135.39" width="170" height="11.77" transform="translate(170 282.54) rotate(180)"/>
    <path d="m55.44,65.72c-.66,1.61-1.38,3-2.32,4.33.05.94.35,3.32.2,3.5-.32.37-2.88.51-3.33.7-1.44.6-2.77,1.05-4.18,1.34-.18.08-.35.15-.54.24-.37.17-1.93,1.38-2.34,1.41,0,0-.01,0-.02,0-.46,0-1.89-1.24-2.31-1.35-.18-.05-.33-.12-.5-.17-1.6-.32-2.93-.96-4.46-1.52-.39-.14-2.34-.39-2.65-.66-.33-.29-.47-2.22-.69-2.6-.21-.36-.36-.72-.54-1.07-.8-.83-1.3-1.46-2.1-3.15-.19-.4-2.14-3.03-2.14-3.46,0-.6,2.22-2.64,2.47-3.19.14-.31.27-.59.4-.86.09-.67.26-1.38.66-2.48.15-.41.63-3.65.93-3.96.43-.42,3.44-.3,4-.51,1.41-.53,2.42-.87,3.48-1.05.87-.52,2.42-1.65,2.89-1.65,0,0,0,0,.01,0,.42.02,1.69,1.45,2.19,1.68,1.62.26,2.81.73,3.86,1.29.5.27,3.37.64,3.75,1.05.3.32.15,2.46.4,2.83.5.75.82,1.57,1.06,2.42.26.42.52.89.8,1.43.13.26,2.86,2.32,2.88,2.6.04.49-1.67,2.4-1.86,2.85Z"/>
    <path d="m143.1,65.72c-.66,1.61-1.38,3-2.32,4.33.05.94.35,3.32.2,3.5-.32.37-2.88.51-3.33.7-1.44.6-2.77,1.05-4.18,1.34-.18.08-.35.15-.54.24-.37.17-1.93,1.38-2.34,1.41,0,0-.01,0-.02,0-.46,0-1.89-1.24-2.31-1.35-.18-.05-.33-.12-.5-.17-1.6-.32-2.93-.96-4.46-1.52-.39-.14-2.34-.39-2.65-.66-.33-.29-.47-2.22-.69-2.6-.21-.36-.36-.72-.54-1.07-.8-.83-1.3-1.46-2.1-3.15-.19-.4-2.14-3.03-2.14-3.46,0-.6,2.22-2.64,2.47-3.19.14-.31.27-.59.4-.86.09-.67.26-1.38.66-2.48.15-.41.63-3.65.93-3.96.43-.42,3.44-.3,4-.51,1.41-.53,2.42-.87,3.48-1.05.87-.52,2.42-1.65,2.89-1.65,0,0,0,0,.01,0,.42.02,1.69,1.45,2.19,1.68,1.62.26,2.81.73,3.86,1.29.5.27,3.37.64,3.75,1.05.3.32.15,2.46.4,2.83.5.75.82,1.57,1.06,2.42.26.42.52.89.8,1.43.13.26,2.86,2.32,2.88,2.6.04.49-1.67,2.4-1.86,2.85Z"/>
    <path d="m55.44,109.84c-.66,1.61-1.38,3-2.32,4.33.05.94.35,3.32.2,3.5-.32.37-2.88.51-3.33.7-1.44.6-2.77,1.05-4.18,1.34-.18.08-.35.15-.54.24-.37.17-1.93,1.38-2.34,1.41,0,0-.01,0-.02,0-.46,0-1.89-1.24-2.31-1.35-.18-.05-.33-.12-.5-.17-1.6-.32-2.93-.96-4.46-1.52-.39-.14-2.34-.39-2.65-.66-.33-.29-.47-2.22-.69-2.6-.21-.36-.36-.72-.54-1.07-.8-.83-1.3-1.46-2.1-3.15-.19-.4-2.14-3.03-2.14-3.46,0-.6,2.22-2.64,2.47-3.19.14-.31.27-.59.4-.86.09-.67.26-1.38.66-2.48.15-.41.63-3.65.93-3.96.43-.42,3.44-.3,4-.51,1.41-.53,2.42-.87,3.48-1.05.87-.52,2.42-1.65,2.89-1.65,0,0,0,0,.01,0,.42.02,1.69,1.45,2.19,1.68,1.62.26,2.81.73,3.86,1.29.5.27,3.37.64,3.75,1.05.3.32.15,2.46.4,2.83.5.75.82,1.57,1.06,2.42.26.42.52.89.8,1.43.13.26,2.86,2.32,2.88,2.6.04.49-1.67,2.4-1.86,2.85Z"/>
    <g>
      <path d="m.51,98.84c.41-.03,1.97-1.24,2.34-1.41.18-.08.36-.16.54-.24,1.41-.29,2.75-.75,4.18-1.34.45-.19,3.02-.33,3.33-.7.16-.18-.15-2.55-.2-3.5.94-1.33,1.65-2.72,2.32-4.33.19-.45,1.9-2.37,1.86-2.85-.02-.29-2.75-2.35-2.88-2.6-.28-.55-.54-1.01-.8-1.43-.24-.85-.56-1.66-1.06-2.42-.24-.37-.1-2.51-.4-2.83-.38-.41-3.25-.79-3.75-1.05-1.04-.56-2.23-1.03-3.86-1.29-.49-.22-1.69-1.56-2.14-1.66v27.46c.21.12.38.2.49.2,0,0,.01,0,.02,0Z"/>
      <path d="m169.95,71.16s0,0-.01,0c-.47,0-2.03,1.13-2.89,1.65-1.06.19-2.07.53-3.48,1.05-.56.21-3.57.09-4,.51-.31.31-.79,3.55-.93,3.96-.4,1.1-.57,1.81-.66,2.48-.13.27-.26.55-.4.86-.25.55-2.46,2.59-2.47,3.19,0,.44,1.95,3.07,2.14,3.46.79,1.69,1.3,2.31,2.1,3.15.18.36.33.72.54,1.07.22.38.36,2.31.69,2.6.31.27,2.27.52,2.65.66,1.52.56,2.85,1.2,4.46,1.52.17.05.32.12.5.17.31.08,1.2.8,1.81,1.15v-27.46s-.03-.02-.05-.02Z"/>
    </g>
    <path d="m143.1,109.84c-.66,1.61-1.38,3-2.32,4.33.05.94.35,3.32.2,3.5-.32.37-2.88.51-3.33.7-1.44.6-2.77,1.05-4.18,1.34-.18.08-.35.15-.54.24-.37.17-1.93,1.38-2.34,1.41,0,0-.01,0-.02,0-.46,0-1.89-1.24-2.31-1.35-.18-.05-.33-.12-.5-.17-1.6-.32-2.93-.96-4.46-1.52-.39-.14-2.34-.39-2.65-.66-.33-.29-.47-2.22-.69-2.6-.21-.36-.36-.72-.54-1.07-.8-.83-1.3-1.46-2.1-3.15-.19-.4-2.14-3.03-2.14-3.46,0-.6,2.22-2.64,2.47-3.19.14-.31.27-.59.4-.86.09-.67.26-1.38.66-2.48.15-.41.63-3.65.93-3.96.43-.42,3.44-.3,4-.51,1.41-.53,2.42-.87,3.48-1.05.87-.52,2.42-1.65,2.89-1.65,0,0,0,0,.01,0,.42.02,1.69,1.45,2.19,1.68,1.62.26,2.81.73,3.86,1.29.5.27,3.37.64,3.75,1.05.3.32.15,2.46.4,2.83.5.75.82,1.57,1.06,2.42.26.42.52.89.8,1.43.13.26,2.86,2.32,2.88,2.6.04.49-1.67,2.4-1.86,2.85Z"/>
    <path d="m98.02,87.32c-.66,1.61-1.38,3-2.32,4.33.05.94.35,3.32.2,3.5-.32.37-2.88.51-3.33.7-1.44.6-2.77,1.05-4.18,1.34-.18.08-.35.15-.54.24-.37.17-1.93,1.38-2.34,1.41,0,0-.01,0-.02,0-.46,0-1.89-1.24-2.31-1.35-.18-.05-.33-.12-.5-.17-1.6-.32-2.93-.96-4.46-1.52-.39-.14-2.34-.39-2.65-.66-.33-.29-.47-2.22-.69-2.6-.21-.36-.36-.72-.54-1.07-.8-.83-1.3-1.46-2.1-3.15-.19-.4-2.14-3.03-2.14-3.46,0-.6,2.22-2.64,2.47-3.19.14-.31.27-.59.4-.86.09-.67.26-1.38.66-2.48.15-.41.63-3.65.93-3.96.43-.42,3.44-.3,4-.51,1.41-.53,2.42-.87,3.48-1.05.87-.52,2.42-1.65,2.89-1.65,0,0,0,0,.01,0,.42.02,1.69,1.45,2.19,1.68,1.62.26,2.81.73,3.86,1.29.5.27,3.37.64,3.75,1.05.3.32.15,2.46.4,2.83.5.75.82,1.57,1.06,2.42.26.42.52.89.8,1.43.13.26,2.86,2.32,2.88,2.6.04.49-1.67,2.4-1.86,2.85Z"/>
  </g>
  <g id="camada_2_cinza_50_" data-name="camada 2 cinza 50%">
    <path class="cls-2" d="m167.68,97.32c-1.6-.32-2.93-.96-4.46-1.52-.39-.14-2.34-.39-2.65-.66-.33-.29-.47-2.22-.69-2.6-.21-.36-.36-.72-.54-1.07-.8-.83-1.3-1.46-2.1-3.15-.19-.4-2.14-3.03-2.14-3.46,0-.6,2.22-2.64,2.47-3.19.14-.31.27-.59.4-.86.09-.67.26-1.38.66-2.48.15-.41.63-3.65.93-3.96.43-.42,3.44-.3,4-.51,1.41-.53,2.42-.87,3.48-1.05.87-.52,2.42-1.65,2.89-1.65,0,0,0,0,.01,0,.01,0,.03.01.05.02v-28.47H0v28.47c.45.1,1.66,1.44,2.14,1.66,1.62.26,2.81.73,3.86,1.29.5.27,3.37.64,3.75,1.05.3.32.15,2.46.4,2.83.5.75.82,1.57,1.06,2.42.26.42.52.89.8,1.43.13.26,2.86,2.32,2.88,2.6.04.49-1.67,2.4-1.86,2.85-.66,1.61-1.38,3-2.32,4.33.05.94.35,3.32.2,3.5-.32.37-2.88.52-3.33.7-1.44.6-2.77,1.05-4.18,1.34-.18.08-.35.15-.54.24-.37.17-1.93,1.38-2.34,1.41,0,0-.01,0-.02,0-.11,0-.29-.08-.49-.2v28.64h170v-28.64c-.62-.35-1.5-1.07-1.81-1.15-.18-.05-.33-.12-.5-.17Zm-112.25,12.51c-.66,1.61-1.38,3-2.32,4.33.05.94.35,3.32.2,3.5-.32.37-2.88.52-3.33.7-1.44.6-2.77,1.05-4.18,1.34-.18.08-.35.15-.54.24-.37.17-1.93,1.38-2.34,1.41,0,0-.01,0-.02,0-.46,0-1.89-1.24-2.31-1.35-.18-.05-.33-.12-.5-.17-1.6-.32-2.93-.96-4.46-1.52-.39-.14-2.34-.39-2.65-.66-.33-.29-.47-2.22-.69-2.6-.21-.36-.36-.72-.54-1.07-.8-.83-1.3-1.46-2.1-3.15-.19-.4-2.14-3.03-2.14-3.46,0-.6,2.22-2.64,2.47-3.19.14-.31.27-.59.4-.86.09-.67.26-1.38.66-2.48.15-.41.63-3.65.93-3.96.43-.42,3.44-.3,4-.51,1.41-.53,2.42-.87,3.48-1.05.87-.52,2.42-1.65,2.89-1.65,0,0,0,0,.01,0,.42.02,1.69,1.45,2.19,1.68,1.62.26,2.81.73,3.86,1.29.5.27,3.37.64,3.75,1.05.3.32.15,2.46.4,2.83.5.75.82,1.57,1.06,2.42.26.42.52.89.8,1.43.13.26,2.86,2.32,2.88,2.6.04.49-1.67,2.4-1.86,2.85Zm0-44.12c-.66,1.61-1.38,3-2.32,4.33.05.94.35,3.32.2,3.5-.32.37-2.88.52-3.33.7-1.44.6-2.77,1.05-4.18,1.34-.18.08-.35.15-.54.24-.37.17-1.93,1.38-2.34,1.41,0,0-.01,0-.02,0-.46,0-1.89-1.24-2.31-1.35-.18-.05-.33-.12-.5-.17-1.6-.32-2.93-.96-4.46-1.52-.39-.14-2.34-.39-2.65-.66-.33-.29-.47-2.22-.69-2.6-.21-.36-.36-.72-.54-1.07-.8-.83-1.3-1.46-2.1-3.15-.19-.4-2.14-3.03-2.14-3.46,0-.6,2.22-2.64,2.47-3.19.14-.31.27-.59.4-.86.09-.67.26-1.38.66-2.48.15-.41.63-3.65.93-3.96.43-.42,3.44-.3,4-.51,1.41-.53,2.42-.87,3.48-1.05.87-.52,2.42-1.65,2.89-1.65,0,0,0,0,.01,0,.42.02,1.69,1.45,2.19,1.68,1.62.26,2.81.73,3.86,1.29.5.27,3.37.64,3.75,1.05.3.32.15,2.46.4,2.83.5.75.82,1.57,1.06,2.42.26.42.52.89.8,1.43.13.26,2.86,2.32,2.88,2.6.04.49-1.67,2.4-1.86,2.85Zm42.59,21.6c-.66,1.61-1.38,3-2.32,4.33.05.94.35,3.32.2,3.5-.32.37-2.88.52-3.33.7-1.44.6-2.77,1.05-4.18,1.34-.18.08-.35.15-.54.24-.37.17-1.93,1.38-2.34,1.41,0,0-.01,0-.02,0-.46,0-1.89-1.24-2.31-1.35-.18-.05-.33-.12-.5-.17-1.6-.32-2.93-.96-4.46-1.52-.39-.14-2.34-.39-2.65-.66-.33-.29-.47-2.22-.69-2.6-.21-.36-.36-.72-.54-1.07-.8-.83-1.3-1.46-2.1-3.15-.19-.4-2.14-3.03-2.14-3.46,0-.6,2.22-2.64,2.47-3.19.14-.31.27-.59.4-.86.09-.67.26-1.38.66-2.48.15-.41.63-3.65.93-3.96.43-.42,3.44-.3,4-.51,1.41-.53,2.42-.87,3.48-1.05.87-.52,2.42-1.65,2.89-1.65,0,0,0,0,.01,0,.42.02,1.69,1.45,2.19,1.68,1.62.26,2.81.73,3.86,1.29.5.27,3.37.64,3.75,1.05.3.32.15,2.46.4,2.83.5.75.82,1.57,1.06,2.42.26.42.52.89.8,1.43.13.26,2.86,2.32,2.88,2.6.04.49-1.67,2.4-1.86,2.85Zm45.07,22.52c-.66,1.61-1.38,3-2.32,4.33.05.94.35,3.32.2,3.5-.32.37-2.88.52-3.33.7-1.44.6-2.77,1.05-4.18,1.34-.18.08-.35.15-.54.24-.37.17-1.93,1.38-2.34,1.41,0,0-.01,0-.02,0-.46,0-1.89-1.24-2.31-1.35-.18-.05-.33-.12-.5-.17-1.6-.32-2.93-.96-4.46-1.52-.39-.14-2.34-.39-2.65-.66-.33-.29-.47-2.22-.69-2.6-.21-.36-.36-.72-.54-1.07-.8-.83-1.3-1.46-2.1-3.15-.19-.4-2.14-3.03-2.14-3.46,0-.6,2.22-2.64,2.47-3.19.14-.31.27-.59.4-.86.09-.67.26-1.38.66-2.48.15-.41.63-3.65.93-3.96.43-.42,3.44-.3,4-.51,1.41-.53,2.42-.87,3.48-1.05.87-.52,2.42-1.65,2.89-1.65,0,0,0,0,.01,0,.42.02,1.69,1.45,2.19,1.68,1.62.26,2.81.73,3.86,1.29.5.27,3.37.64,3.75,1.05.3.32.15,2.46.4,2.83.5.75.82,1.57,1.06,2.42.26.42.52.89.8,1.43.13.26,2.86,2.32,2.88,2.6.04.49-1.67,2.4-1.86,2.85Zm0-44.12c-.66,1.61-1.38,3-2.32,4.33.05.94.35,3.32.2,3.5-.32.37-2.88.52-3.33.7-1.44.6-2.77,1.05-4.18,1.34-.18.08-.35.15-.54.24-.37.17-1.93,1.38-2.34,1.41,0,0-.01,0-.02,0-.46,0-1.89-1.24-2.31-1.35-.18-.05-.33-.12-.5-.17-1.6-.32-2.93-.96-4.46-1.52-.39-.14-2.34-.39-2.65-.66-.33-.29-.47-2.22-.69-2.6-.21-.36-.36-.72-.54-1.07-.8-.83-1.3-1.46-2.1-3.15-.19-.4-2.14-3.03-2.14-3.46,0-.6,2.22-2.64,2.47-3.19.14-.31.27-.59.4-.86.09-.67.26-1.38.66-2.48.15-.41.63-3.65.93-3.96.43-.42,3.44-.3,4-.51,1.41-.53,2.42-.87,3.48-1.05.87-.52,2.42-1.65,2.89-1.65,0,0,0,0,.01,0,.42.02,1.69,1.45,2.19,1.68,1.62.26,2.81.73,3.86,1.29.5.27,3.37.64,3.75,1.05.3.32.15,2.46.4,2.83.5.75.82,1.57,1.06,2.42.26.42.52.89.8,1.43.13.26,2.86,2.32,2.88,2.6.04.49-1.67,2.4-1.86,2.85Z"/>
    <path class="cls-2" d="m147.85,105.24c-.46-.77-1.24-1.46-2.43-2.44-.22-.18-.42-.35-.59-.49-.14-.26-.27-.5-.42-.74-.26-.84-.58-1.58-.96-2.26,0-.09,0-.18-.01-.27-.06-1.26-.13-2.56-1.12-3.64-.96-1.05-2.27-1.32-4.08-1.7-.31-.06-.6-.12-.82-.18-1.22-.63-2.45-1.07-3.79-1.35-.04-.04-.08-.08-.13-.11-.93-.84-1.89-1.71-3.35-1.77h-.07s-.08,0-.08,0c-1.35,0-2.43.7-3.93,1.68-.09.06-.17.11-.25.17-.98.22-1.93.54-3.1.97-.22.02-.5.03-.8.04-1.96.1-3.51.17-4.69,1.35-.91.91-1.14,1.98-1.62,4.53-.06.34-.12.63-.16.82-.34.95-.56,1.74-.69,2.49-.03.06-.05.12-.08.18-.14.17-.33.38-.53.6-.6.66-1.13,1.27-1.54,1.88-3.64-2.31-8.92-6.12-13.29-10.99-.03-.44-.07-.91-.12-1.46.68-1.09,1.29-2.29,1.87-3.67.1-.14.23-.3.37-.48,1.06-1.39,1.98-2.59,1.84-4.19-.13-1.59-1.06-2.36-2.92-3.9-.22-.18-.42-.35-.59-.49-.14-.26-.27-.5-.42-.74-.26-.84-.58-1.58-.96-2.26,0-.09,0-.18-.01-.27-.03-.68-.08-1.36-.26-2.02,4.78-1.81,11.57-4.79,14.94-8.08.23.36.49.74.8,1.19.19.28.37.53.47.69.8,1.68,1.43,2.58,2.27,3.5.07.15.15.31.23.46.02.11.04.23.06.36.22,1.24.45,2.53,1.55,3.48.89.78,1.98.98,3.37,1.24.18.03.35.06.48.09.33.12.66.25.98.38,1.11.44,2.25.89,3.63,1.19.02,0,.05.02.07.02.1.07.21.15.33.23.97.68,1.98,1.38,3.31,1.38h.26c1.18-.09,2.09-.72,3.26-1.51.15-.1.28-.2.39-.27l.04-.02c1.32-.3,2.64-.72,4.19-1.35.17-.03.38-.05.6-.08,1.73-.23,3.23-.44,4.27-1.66,1.03-1.21.92-2.41.7-4.81.68-1.09,1.29-2.29,1.87-3.67.1-.14.23-.3.37-.48.42-.55.8-1.07,1.11-1.6,2.33,2.32,5.81,5.58,8.91,7.68-.42.79-.64,1.85-.97,3.64-.06.34-.12.63-.16.82-.34.95-.56,1.74-.7,2.49-.03.06-.05.12-.08.18-.14.17-.33.38-.54.6-1.32,1.45-2.36,2.6-2.36,4.27,0,1.29.59,2.21,2.06,4.35.19.28.36.53.47.69.8,1.68,1.43,2.58,2.27,3.5.07.15.15.31.23.46.02.11.04.23.06.36.2,1.14.45,2.29,1.31,3.21-2.78,2.56-6.64,5.81-10.26,7.81Z"/>
    <path class="cls-2" d="m58.97,103.83c-.35-.31-.75-.64-1.21-1.03-.22-.18-.42-.35-.59-.49-.14-.26-.27-.5-.42-.74-.26-.84-.58-1.58-.96-2.26,0-.09,0-.18-.01-.27-.06-1.26-.13-2.56-1.12-3.64-.96-1.05-2.27-1.32-4.08-1.7-.31-.06-.6-.12-.82-.18-1.22-.63-2.45-1.07-3.79-1.35-.04-.04-.08-.08-.13-.11-.93-.84-1.89-1.71-3.35-1.77h-.07s-.08,0-.08,0c-1.35,0-2.43.7-3.93,1.68-.09.06-.17.11-.25.17-.98.22-1.93.54-3.1.97-.22.02-.5.03-.8.04-1.96.1-3.51.17-4.69,1.35-.91.91-1.14,1.98-1.62,4.53-.06.34-.12.63-.16.82-.34.95-.56,1.74-.7,2.49-.03.06-.05.12-.08.18-.14.17-.33.38-.53.6-.23.26-.45.5-.66.75-3.57-2.6-7.97-5.95-11.51-9.06,0-.63-.04-1.34-.13-2.25.68-1.09,1.29-2.29,1.87-3.67.1-.14.23-.3.37-.48,1.06-1.39,1.98-2.59,1.84-4.19-.13-1.59-1.06-2.36-2.92-3.9-.22-.18-.42-.35-.59-.49-.14-.26-.27-.5-.42-.74-.26-.84-.58-1.58-.96-2.26,0-.09,0-.18-.01-.27-.04-.79-.11-1.59-.37-2.34,3.64-1.66,8.68-4.09,13.1-6.7.03.05.05.08.09.13.19.28.36.53.47.69.8,1.68,1.43,2.58,2.27,3.5.07.15.15.31.23.46.02.11.04.23.06.36.22,1.24.45,2.53,1.55,3.48.89.78,1.98.98,3.37,1.24.18.03.35.06.48.09.33.12.66.25.98.38,1.11.44,2.25.89,3.63,1.19.02,0,.05.02.07.02.1.07.21.15.33.23.97.68,1.98,1.38,3.31,1.38h.26c1.18-.09,2.09-.72,3.26-1.51.15-.1.28-.2.39-.27l.04-.02c1.32-.3,2.64-.72,4.19-1.35.17-.03.38-.05.6-.08,1.73-.23,3.23-.44,4.27-1.66,1.03-1.21.92-2.41.7-4.81.68-1.09,1.29-2.29,1.87-3.67.1-.14.23-.3.37-.48.27-.36.53-.7.77-1.05,3.03,2.46,7.19,5.67,11.42,8.45-.16.61-.31,1.36-.49,2.33-.06.34-.12.63-.16.82-.34.95-.56,1.74-.7,2.49-.03.06-.05.12-.08.18-.14.17-.33.38-.53.6-1.32,1.45-2.36,2.6-2.36,4.27,0,1.29.59,2.21,2.06,4.35.19.28.36.53.47.69.8,1.68,1.43,2.58,2.27,3.5.07.15.15.31.23.46.02.11.04.23.06.36.14.77.3,1.55.65,2.26-3.26,2.11-7.93,4.84-13.48,7.34Z"/>
  </g>
  <g id="camada_3_cinza_70_" data-name="camada 3 cinza 70%">
    <rect class="cls-3" y=".09" width="170" height="22.76"/>
    <rect class="cls-3" y="147.15" width="170" height="22.76" transform="translate(170 317.06) rotate(180)"/>
  </g>
  <g id="camada_5_branca" data-name="camada 5 branca">
    <path class="cls-1" d="m57.76,58.68c-.22-.18-.42-.35-.59-.49-.14-.26-.27-.5-.42-.74-.26-.84-.58-1.58-.96-2.26,0-.09,0-.18-.01-.27-.06-1.26-.13-2.56-1.12-3.64-.96-1.05-2.27-1.32-4.08-1.7-.31-.06-.6-.12-.82-.18-1.22-.63-2.45-1.07-3.79-1.35-.04-.04-.08-.08-.13-.11-.93-.84-1.89-1.71-3.35-1.77h-.07s-.08,0-.08,0c-1.35,0-2.43.7-3.93,1.68-.09.06-.17.11-.25.17-.98.22-1.93.54-3.1.97-.22.02-.5.03-.8.04-1.96.1-3.51.17-4.69,1.35-.91.91-1.14,1.98-1.62,4.53-.06.34-.12.63-.16.82-.34.95-.56,1.74-.7,2.49-.03.06-.05.12-.08.18-.14.17-.33.37-.53.6-1.32,1.45-2.36,2.6-2.36,4.27,0,1.29.59,2.21,2.06,4.35.19.28.36.53.47.69.8,1.68,1.43,2.58,2.27,3.5.07.15.15.31.23.46.02.11.04.23.06.36.22,1.24.45,2.53,1.55,3.48.89.78,1.98.98,3.37,1.24.18.03.35.06.48.09.33.12.66.25.98.38,1.11.44,2.25.89,3.63,1.18.02,0,.05.02.07.02.1.07.21.15.33.23.97.68,1.98,1.38,3.31,1.38h.26c1.18-.09,2.09-.72,3.26-1.51.15-.1.28-.2.39-.27l.04-.02c1.32-.3,2.64-.72,4.19-1.35.17-.03.38-.05.6-.08,1.73-.23,3.23-.44,4.27-1.66,1.03-1.21.92-2.41.7-4.81.68-1.09,1.29-2.29,1.87-3.67.1-.14.23-.3.37-.48,1.06-1.39,1.98-2.59,1.84-4.19-.13-1.59-1.06-2.36-2.92-3.9Zm-2.32,7.04c-.66,1.61-1.38,3-2.32,4.33.05.94.35,3.32.2,3.5-.32.37-2.88.51-3.33.7-1.44.6-2.77,1.05-4.18,1.34-.18.08-.35.15-.54.24-.37.17-1.93,1.38-2.34,1.41,0,0-.01,0-.02,0-.46,0-1.89-1.24-2.31-1.35-.18-.05-.33-.12-.5-.17-1.6-.32-2.93-.96-4.46-1.52-.39-.14-2.34-.39-2.65-.66-.33-.29-.47-2.22-.69-2.6-.21-.36-.36-.72-.54-1.07-.8-.83-1.3-1.46-2.1-3.15-.19-.4-2.14-3.03-2.14-3.46,0-.6,2.22-2.64,2.47-3.19.14-.31.27-.59.4-.86.09-.67.26-1.38.66-2.48.15-.41.63-3.65.93-3.96.43-.42,3.44-.3,4-.51,1.41-.53,2.42-.87,3.48-1.05.87-.52,2.42-1.65,2.89-1.65,0,0,0,0,.01,0,.42.02,1.69,1.45,2.19,1.68,1.62.26,2.81.73,3.86,1.29.5.27,3.37.64,3.75,1.05.3.32.15,2.46.4,2.83.5.75.82,1.57,1.06,2.42.26.42.52.89.8,1.43.13.26,2.86,2.32,2.88,2.6.04.49-1.67,2.4-1.86,2.85Z"/>
    <path class="cls-1" d="m145.42,58.68c-.22-.18-.42-.35-.59-.49-.14-.26-.27-.5-.42-.74-.26-.84-.58-1.58-.96-2.26,0-.09,0-.18-.01-.27-.06-1.26-.13-2.56-1.12-3.64-.96-1.05-2.27-1.32-4.08-1.7-.31-.06-.6-.12-.82-.18-1.22-.63-2.45-1.07-3.79-1.35-.04-.04-.08-.08-.13-.11-.93-.84-1.89-1.71-3.35-1.77h-.07s-.08,0-.08,0c-1.35,0-2.43.7-3.93,1.68-.09.06-.17.11-.25.17-.98.22-1.93.54-3.1.97-.22.02-.5.03-.8.04-1.96.1-3.51.17-4.69,1.35-.91.91-1.14,1.98-1.62,4.53-.06.34-.12.63-.16.82-.34.95-.56,1.74-.69,2.49-.03.06-.05.12-.08.18-.14.17-.33.37-.53.6-1.32,1.45-2.36,2.6-2.36,4.27,0,1.29.59,2.21,2.06,4.35.19.28.37.53.47.69.8,1.68,1.43,2.58,2.27,3.5.07.15.15.31.23.46.02.11.04.23.06.36.22,1.24.45,2.53,1.55,3.48.89.78,1.98.98,3.37,1.24.18.03.35.06.48.09.33.12.66.25.98.38,1.11.44,2.25.89,3.63,1.18.02,0,.05.02.07.02.1.07.21.15.33.23.97.68,1.98,1.38,3.31,1.38h.26c1.18-.09,2.09-.72,3.26-1.51.15-.1.28-.2.39-.27l.04-.02c1.32-.3,2.64-.72,4.19-1.35.17-.03.38-.05.6-.08,1.73-.23,3.23-.44,4.27-1.66,1.03-1.21.92-2.41.7-4.81.68-1.09,1.29-2.29,1.87-3.67.1-.14.23-.3.37-.48,1.06-1.39,1.98-2.59,1.84-4.19-.13-1.59-1.06-2.36-2.92-3.9Zm-2.32,7.04c-.66,1.61-1.38,3-2.32,4.33.05.94.35,3.32.2,3.5-.32.37-2.88.51-3.33.7-1.44.6-2.77,1.05-4.18,1.34-.18.08-.35.15-.54.24-.37.17-1.93,1.38-2.34,1.41,0,0-.01,0-.02,0-.46,0-1.89-1.24-2.31-1.35-.18-.05-.33-.12-.5-.17-1.6-.32-2.93-.96-4.46-1.52-.39-.14-2.34-.39-2.65-.66-.33-.29-.47-2.22-.69-2.6-.21-.36-.36-.72-.54-1.07-.8-.83-1.3-1.46-2.1-3.15-.19-.4-2.14-3.03-2.14-3.46,0-.6,2.22-2.64,2.47-3.19.14-.31.27-.59.4-.86.09-.67.26-1.38.66-2.48.15-.41.63-3.65.93-3.96.43-.42,3.44-.3,4-.51,1.41-.53,2.42-.87,3.48-1.05.87-.52,2.42-1.65,2.89-1.65,0,0,0,0,.01,0,.42.02,1.69,1.45,2.19,1.68,1.62.26,2.81.73,3.86,1.29.5.27,3.37.64,3.75,1.05.3.32.15,2.46.4,2.83.5.75.82,1.57,1.06,2.42.26.42.52.89.8,1.43.13.26,2.86,2.32,2.88,2.6.04.49-1.67,2.4-1.86,2.85Z"/>
    <path class="cls-1" d="m57.76,102.8c-.22-.18-.42-.35-.59-.49-.14-.26-.27-.5-.42-.74-.26-.84-.58-1.58-.96-2.26,0-.09,0-.18-.01-.27-.06-1.26-.13-2.56-1.12-3.64-.96-1.05-2.27-1.32-4.08-1.7-.31-.06-.6-.12-.82-.18-1.22-.63-2.45-1.07-3.79-1.35-.04-.04-.08-.08-.13-.11-.93-.84-1.89-1.71-3.35-1.77h-.07s-.08,0-.08,0c-1.35,0-2.43.7-3.93,1.68-.09.06-.17.11-.25.17-.98.22-1.93.54-3.1.97-.22.02-.5.03-.8.04-1.96.1-3.51.17-4.69,1.35-.91.91-1.14,1.98-1.62,4.53-.06.34-.12.63-.16.82-.34.95-.56,1.74-.7,2.49-.03.06-.05.12-.08.18-.14.17-.33.37-.53.6-1.32,1.45-2.36,2.6-2.36,4.27,0,1.29.59,2.21,2.06,4.35.19.28.36.53.47.69.8,1.68,1.43,2.58,2.27,3.5.07.15.15.31.23.46.02.11.04.23.06.36.22,1.24.45,2.53,1.55,3.48.89.78,1.98.98,3.37,1.24.18.03.35.06.48.09.33.12.66.25.98.38,1.11.44,2.25.89,3.63,1.18.02,0,.05.02.07.02.1.07.21.15.33.23.97.68,1.98,1.38,3.31,1.38h.26c1.18-.09,2.09-.72,3.26-1.51.15-.1.28-.2.39-.27l.04-.02c1.32-.3,2.64-.72,4.19-1.35.17-.03.38-.05.6-.08,1.73-.23,3.23-.44,4.27-1.66,1.03-1.21.92-2.41.7-4.81.68-1.09,1.29-2.29,1.87-3.67.1-.14.23-.3.37-.48,1.06-1.39,1.98-2.59,1.84-4.19-.13-1.59-1.06-2.36-2.92-3.9Zm-2.32,7.04c-.66,1.61-1.38,3-2.32,4.33.05.94.35,3.32.2,3.5-.32.37-2.88.51-3.33.7-1.44.6-2.77,1.05-4.18,1.34-.18.08-.35.15-.54.24-.37.17-1.93,1.38-2.34,1.41,0,0-.01,0-.02,0-.46,0-1.89-1.24-2.31-1.35-.18-.05-.33-.12-.5-.17-1.6-.32-2.93-.96-4.46-1.52-.39-.14-2.34-.39-2.65-.66-.33-.29-.47-2.22-.69-2.6-.21-.36-.36-.72-.54-1.07-.8-.83-1.3-1.46-2.1-3.15-.19-.4-2.14-3.03-2.14-3.46,0-.6,2.22-2.64,2.47-3.19.14-.31.27-.59.4-.86.09-.67.26-1.38.66-2.48.15-.41.63-3.65.93-3.96.43-.42,3.44-.3,4-.51,1.41-.53,2.42-.87,3.48-1.05.87-.52,2.42-1.65,2.89-1.65,0,0,0,0,.01,0,.42.02,1.69,1.45,2.19,1.68,1.62.26,2.81.73,3.86,1.29.5.27,3.37.64,3.75,1.05.3.32.15,2.46.4,2.83.5.75.82,1.57,1.06,2.42.26.42.52.89.8,1.43.13.26,2.86,2.32,2.88,2.6.04.49-1.67,2.4-1.86,2.85Z"/>
    <path class="cls-1" d="m145.42,102.8c-.22-.18-.42-.35-.59-.49-.14-.26-.27-.5-.42-.74-.26-.84-.58-1.58-.96-2.26,0-.09,0-.18-.01-.27-.06-1.26-.13-2.56-1.12-3.64-.96-1.05-2.27-1.32-4.08-1.7-.31-.06-.6-.12-.82-.18-1.22-.63-2.45-1.07-3.79-1.35-.04-.04-.08-.08-.13-.11-.93-.84-1.89-1.71-3.35-1.77h-.07s-.08,0-.08,0c-1.35,0-2.43.7-3.93,1.68-.09.06-.17.11-.25.17-.98.22-1.93.54-3.1.97-.22.02-.5.03-.8.04-1.96.1-3.51.17-4.69,1.35-.91.91-1.14,1.98-1.62,4.53-.06.34-.12.63-.16.82-.34.95-.56,1.74-.69,2.49-.03.06-.05.12-.08.18-.14.17-.33.37-.53.6-1.32,1.45-2.36,2.6-2.36,4.27,0,1.29.59,2.21,2.06,4.35.19.28.37.53.47.69.8,1.68,1.43,2.58,2.27,3.5.07.15.15.31.23.46.02.11.04.23.06.36.22,1.24.45,2.53,1.55,3.48.89.78,1.98.98,3.37,1.24.18.03.35.06.48.09.33.12.66.25.98.38,1.11.44,2.25.89,3.63,1.18.02,0,.05.02.07.02.1.07.21.15.33.23.97.68,1.98,1.38,3.31,1.38h.26c1.18-.09,2.09-.72,3.26-1.51.15-.1.28-.2.39-.27l.04-.02c1.32-.3,2.64-.72,4.19-1.35.17-.03.38-.05.6-.08,1.73-.23,3.23-.44,4.27-1.66,1.03-1.21.92-2.41.7-4.81.68-1.09,1.29-2.29,1.87-3.67.1-.14.23-.3.37-.48,1.06-1.39,1.98-2.59,1.84-4.19-.13-1.59-1.06-2.36-2.92-3.9Zm-2.32,7.04c-.66,1.61-1.38,3-2.32,4.33.05.94.35,3.32.2,3.5-.32.37-2.88.51-3.33.7-1.44.6-2.77,1.05-4.18,1.34-.18.08-.35.15-.54.24-.37.17-1.93,1.38-2.34,1.41,0,0-.01,0-.02,0-.46,0-1.89-1.24-2.31-1.35-.18-.05-.33-.12-.5-.17-1.6-.32-2.93-.96-4.46-1.52-.39-.14-2.34-.39-2.65-.66-.33-.29-.47-2.22-.69-2.6-.21-.36-.36-.72-.54-1.07-.8-.83-1.3-1.46-2.1-3.15-.19-.4-2.14-3.03-2.14-3.46,0-.6,2.22-2.64,2.47-3.19.14-.31.27-.59.4-.86.09-.67.26-1.38.66-2.48.15-.41.63-3.65.93-3.96.43-.42,3.44-.3,4-.51,1.41-.53,2.42-.87,3.48-1.05.87-.52,2.42-1.65,2.89-1.65,0,0,0,0,.01,0,.42.02,1.69,1.45,2.19,1.68,1.62.26,2.81.73,3.86,1.29.5.27,3.37.64,3.75,1.05.3.32.15,2.46.4,2.83.5.75.82,1.57,1.06,2.42.26.42.52.89.8,1.43.13.26,2.86,2.32,2.88,2.6.04.49-1.67,2.4-1.86,2.85Z"/>
    <path class="cls-1" d="m4.4,100.46l.04-.02c1.32-.3,2.64-.72,4.19-1.35.17-.03.38-.05.6-.08,1.73-.23,3.23-.44,4.27-1.66,1.03-1.21.92-2.41.7-4.81.68-1.09,1.29-2.29,1.87-3.67.1-.14.23-.3.37-.48,1.06-1.39,1.98-2.59,1.84-4.19-.13-1.59-1.06-2.36-2.92-3.9-.22-.18-.42-.35-.59-.49-.14-.26-.27-.5-.42-.74-.26-.84-.58-1.58-.96-2.26,0-.09,0-.18-.01-.27-.06-1.26-.13-2.56-1.12-3.64-.96-1.05-2.27-1.32-4.08-1.7-.31-.06-.6-.12-.82-.18-1.22-.63-2.45-1.07-3.79-1.35-.04-.04-.08-.08-.13-.11-.69-.62-1.4-1.26-2.31-1.57v4.06c.39.36.78.71,1.01.81,1.62.26,2.81.73,3.86,1.29.5.27,3.37.64,3.75,1.05.3.32.15,2.46.4,2.83.5.75.82,1.57,1.06,2.42.26.42.52.89.8,1.43.13.26,2.86,2.32,2.88,2.6.04.49-1.67,2.4-1.86,2.85-.66,1.61-1.38,3-2.32,4.33.05.94.35,3.32.2,3.5-.32.37-2.88.51-3.33.7-1.44.6-2.77,1.05-4.18,1.34-.18.08-.35.15-.54.24-.26.12-1.1.74-1.72,1.12v3.61c1-.18,1.84-.73,2.87-1.43.15-.1.28-.2.39-.27Z"/>
    <path class="cls-1" d="m167.68,97.32c-1.6-.32-2.93-.96-4.46-1.52-.39-.14-2.34-.39-2.65-.66-.33-.29-.47-2.22-.69-2.6-.21-.36-.36-.72-.54-1.07-.8-.83-1.3-1.46-2.1-3.15-.19-.4-2.14-3.03-2.14-3.46,0-.6,2.22-2.64,2.47-3.19.14-.31.27-.59.4-.86.09-.67.26-1.38.66-2.48.15-.41.63-3.65.93-3.96.43-.42,3.44-.3,4-.51,1.41-.53,2.42-.87,3.48-1.05.5-.3,1.21-.78,1.82-1.15v-3.74c-.91.26-1.77.81-2.85,1.51-.09.06-.17.11-.25.17-.98.22-1.93.54-3.1.97-.22.02-.5.03-.8.04-1.96.1-3.51.17-4.69,1.35-.91.91-1.14,1.98-1.62,4.53-.06.34-.12.63-.16.82-.34.95-.56,1.74-.7,2.49-.03.06-.05.12-.08.18-.14.17-.33.37-.54.6-1.32,1.45-2.36,2.6-2.36,4.27,0,1.29.59,2.21,2.06,4.35.19.28.36.53.47.69.8,1.68,1.43,2.58,2.27,3.5.07.15.15.31.23.46.02.11.04.23.06.36.22,1.24.45,2.53,1.55,3.48.89.78,1.99.98,3.37,1.24.18.03.35.06.48.09.33.12.66.25.98.38,1.11.44,2.25.89,3.63,1.18.02,0,.05.02.07.02.1.07.21.15.33.23.53.37,1.08.74,1.68,1v-3.97c-.29-.2-.54-.36-.68-.4-.18-.05-.33-.12-.5-.17Z"/>
    <path class="cls-1" d="m100.35,80.28c-.22-.18-.42-.35-.59-.49-.14-.26-.27-.5-.42-.74-.26-.84-.58-1.58-.96-2.26,0-.09,0-.18-.01-.27-.06-1.26-.13-2.56-1.12-3.64-.96-1.05-2.27-1.32-4.08-1.7-.31-.06-.6-.12-.82-.18-1.22-.63-2.45-1.07-3.79-1.35-.04-.04-.08-.08-.13-.11-.93-.84-1.89-1.71-3.35-1.77h-.07s-.08,0-.08,0c-1.35,0-2.43.7-3.93,1.68-.09.06-.17.11-.25.17-.98.22-1.93.54-3.1.97-.22.02-.5.03-.8.04-1.96.1-3.51.17-4.69,1.35-.91.91-1.14,1.98-1.62,4.53-.06.34-.12.63-.16.82-.34.95-.56,1.74-.7,2.49-.03.06-.05.12-.08.18-.14.17-.33.37-.53.6-1.32,1.45-2.36,2.6-2.36,4.27,0,1.29.59,2.21,2.06,4.35.19.28.36.53.47.69.8,1.68,1.43,2.58,2.27,3.5.07.15.15.31.23.46.02.11.04.23.06.36.22,1.24.45,2.53,1.55,3.48.89.78,1.98.98,3.37,1.24.18.03.35.06.48.09.33.12.66.25.98.38,1.11.44,2.25.89,3.63,1.18.02,0,.05.02.07.02.1.07.21.15.33.23.97.68,1.98,1.38,3.31,1.38h.26c1.18-.09,2.09-.72,3.26-1.51.15-.1.28-.2.39-.27l.04-.02c1.32-.3,2.64-.72,4.19-1.35.17-.03.38-.05.6-.08,1.73-.23,3.23-.44,4.27-1.66,1.03-1.21.92-2.41.7-4.81.68-1.09,1.29-2.29,1.87-3.67.1-.14.23-.3.37-.48,1.06-1.39,1.98-2.59,1.84-4.19-.13-1.59-1.06-2.36-2.92-3.9Zm-2.32,7.04c-.66,1.61-1.38,3-2.32,4.33.05.94.35,3.32.2,3.5-.32.37-2.88.51-3.33.7-1.44.6-2.77,1.05-4.18,1.34-.18.08-.35.15-.54.24-.37.17-1.93,1.38-2.34,1.41,0,0-.01,0-.02,0-.46,0-1.89-1.24-2.31-1.35-.18-.05-.33-.12-.5-.17-1.6-.32-2.93-.96-4.46-1.52-.39-.14-2.34-.39-2.65-.66-.33-.29-.47-2.22-.69-2.6-.21-.36-.36-.72-.54-1.07-.8-.83-1.3-1.46-2.1-3.15-.19-.4-2.14-3.03-2.14-3.46,0-.6,2.22-2.64,2.47-3.19.14-.31.27-.59.4-.86.09-.67.26-1.38.66-2.48.15-.41.63-3.65.93-3.96.43-.42,3.44-.3,4-.51,1.41-.53,2.42-.87,3.48-1.05.87-.52,2.42-1.65,2.89-1.65,0,0,0,0,.01,0,.42.02,1.69,1.45,2.19,1.68,1.62.26,2.81.73,3.86,1.29.5.27,3.37.64,3.75,1.05.3.32.15,2.46.4,2.83.5.75.82,1.57,1.06,2.42.26.42.52.89.8,1.43.13.26,2.86,2.32,2.88,2.6.04.49-1.67,2.4-1.86,2.85Z"/>
    <g>
      <path class="cls-4" d="m156.73,93.87c-.08-.15-.15-.31-.23-.46-.83-.92-1.47-1.83-2.27-3.5-.11-.16-.28-.41-.47-.69-1.47-2.14-2.06-3.07-2.06-4.35,0-1.66,1.04-2.81,2.36-4.27.2-.22.39-.43.54-.6.03-.06.05-.12.08-.18.14-.75.36-1.53.7-2.49.04-.19.1-.49.16-.82.34-1.8.56-2.86.97-3.64-3.1-2.1-6.58-5.36-8.91-7.68-.32.53-.69,1.05-1.11,1.6-.14.18-.27.35-.37.48-.58,1.39-1.19,2.58-1.87,3.67.22,2.39.34,3.6-.7,4.81-1.04,1.22-2.54,1.43-4.27,1.66-.22.03-.43.06-.6.08-1.55.63-2.87,1.06-4.19,1.35l-.04.02c-.11.07-.24.17-.39.27-1.16.79-2.08,1.42-3.26,1.5h-.14s-.12,0-.12,0c-1.33,0-2.33-.7-3.31-1.38-.12-.08-.23-.16-.33-.23-.02,0-.05-.02-.07-.02-1.37-.29-2.52-.75-3.63-1.19-.32-.13-.64-.25-.98-.38-.13-.03-.3-.06-.48-.09-1.38-.26-2.48-.46-3.37-1.24-1.09-.95-1.32-2.24-1.55-3.48-.02-.13-.04-.25-.06-.36-.08-.15-.15-.31-.23-.46-.83-.92-1.47-1.83-2.27-3.5-.1-.16-.28-.41-.47-.69-.31-.45-.56-.83-.8-1.19-3.37,3.29-10.16,6.26-14.94,8.08.18.66.23,1.35.26,2.02,0,.09,0,.18.01.27.38.68.69,1.42.96,2.26.14.24.28.49.42.74.17.14.38.31.59.49,1.86,1.54,2.8,2.31,2.92,3.9.13,1.6-.78,2.8-1.84,4.19-.14.18-.27.35-.37.48-.58,1.39-1.19,2.58-1.87,3.67.05.55.09,1.02.12,1.46,4.37,4.87,9.65,8.68,13.29,10.99.41-.62.94-1.22,1.54-1.88.2-.22.39-.43.53-.6.03-.06.06-.12.08-.18.14-.75.36-1.53.69-2.49.04-.19.1-.49.16-.82.48-2.55.71-3.63,1.62-4.53,1.18-1.18,2.73-1.25,4.69-1.35.3-.01.58-.02.8-.04,1.17-.43,2.12-.75,3.1-.97.08-.05.17-.11.25-.17,1.49-.97,2.58-1.68,3.93-1.68h.08s.07,0,.07,0c1.46.06,2.42.93,3.35,1.77.04.04.08.08.13.11,1.34.29,2.56.72,3.79,1.35.22.06.51.11.82.18,1.81.38,3.12.66,4.08,1.7.99,1.08,1.06,2.38,1.12,3.64,0,.09,0,.18.01.27.38.68.69,1.42.96,2.26.14.24.28.49.42.74.17.14.38.31.59.49,1.19.99,1.97,1.67,2.43,2.44,3.62-2,7.48-5.25,10.26-7.81-.86-.92-1.11-2.08-1.31-3.21-.02-.13-.04-.25-.06-.36Z"/>
      <path class="cls-4" d="m71.73,93.87c-.08-.15-.15-.31-.23-.46-.83-.92-1.47-1.83-2.27-3.5-.1-.16-.28-.41-.47-.69-1.47-2.14-2.06-3.07-2.06-4.35,0-1.66,1.04-2.81,2.36-4.27.2-.22.39-.43.53-.6.03-.06.06-.12.08-.18.14-.75.36-1.53.7-2.49.04-.19.1-.49.16-.82.18-.96.33-1.71.49-2.33-4.23-2.77-8.39-5.99-11.42-8.45-.24.34-.5.69-.77,1.05-.14.18-.27.35-.37.48-.58,1.39-1.19,2.58-1.87,3.67.22,2.39.34,3.6-.7,4.81-1.04,1.22-2.54,1.43-4.27,1.66-.22.03-.43.06-.6.08-1.55.63-2.87,1.06-4.19,1.35l-.04.02c-.11.07-.24.17-.39.27-1.16.79-2.08,1.42-3.26,1.5h-.14s-.12,0-.12,0c-1.33,0-2.33-.7-3.31-1.38-.12-.08-.23-.16-.33-.23-.02,0-.05-.02-.07-.02-1.37-.29-2.52-.75-3.63-1.19-.32-.13-.64-.25-.98-.38-.13-.03-.3-.06-.48-.09-1.38-.26-2.48-.46-3.37-1.24-1.09-.95-1.32-2.24-1.55-3.48-.02-.13-.04-.25-.06-.36-.08-.15-.15-.31-.23-.46-.83-.92-1.47-1.83-2.27-3.5-.1-.16-.28-.41-.47-.69-.03-.05-.05-.08-.09-.13-4.42,2.61-9.46,5.04-13.1,6.7.27.76.33,1.55.37,2.34,0,.09,0,.18.01.27.38.68.69,1.42.96,2.26.14.24.28.49.42.74.17.14.38.31.59.49,1.86,1.54,2.8,2.31,2.92,3.9.13,1.6-.78,2.8-1.84,4.19-.14.18-.27.35-.37.48-.58,1.39-1.19,2.58-1.87,3.67.09.91.13,1.62.13,2.25,3.54,3.12,7.94,6.46,11.51,9.06.21-.24.42-.49.66-.75.2-.22.39-.43.53-.6.03-.06.06-.12.08-.18.14-.75.36-1.53.7-2.49.04-.19.1-.49.16-.82.48-2.55.71-3.63,1.62-4.53,1.18-1.18,2.73-1.25,4.69-1.35.3-.01.58-.02.8-.04,1.17-.43,2.12-.75,3.1-.97.08-.05.17-.11.25-.17,1.49-.97,2.57-1.68,3.93-1.68h.08s.07,0,.07,0c1.46.06,2.42.93,3.35,1.77.04.04.08.08.13.11,1.34.29,2.56.72,3.79,1.35.22.06.51.11.82.18,1.81.38,3.12.66,4.08,1.7.99,1.08,1.05,2.38,1.12,3.64,0,.09,0,.18.01.27.38.68.69,1.42.96,2.26.14.24.28.49.42.74.17.14.38.31.59.49.46.38.86.71,1.21,1.03,5.55-2.49,10.21-5.23,13.48-7.34-.35-.71-.51-1.49-.65-2.26-.02-.13-.04-.25-.06-.36Z"/>
      <path class="cls-1" d="m75.15,95.18c-.19-.39-.31-.97-.4-1.48l-.02-.11-.05-.28-.08-.43-.2-.39c-.06-.12-.12-.24-.18-.37l-.19-.4-.3-.33c-.61-.67-1.1-1.34-1.78-2.78l-.08-.17-.1-.16c-.1-.15-.24-.36-.41-.6l-.11-.17c-1.04-1.53-1.53-2.29-1.53-2.65,0-.49.57-1.15,1.58-2.26l.15-.16c.17-.19.33-.37.46-.52l.26-.31.17-.37.08-.17.16-.35.07-.38c.11-.59.28-1.21.57-2.02l.06-.18.04-.18c.04-.17.09-.42.14-.71l.04-.21c.16-.85.3-1.59.44-2.12l.55-2.09-1.8-1.18c-4.25-2.79-8.42-6.03-11.18-8.27l-2.51-2.04-1.84,2.65c-.21.31-.45.62-.7.94l-.11.14c-.12.15-.22.29-.31.41l-.2.27-.13.31c-.52,1.24-1.06,2.31-1.66,3.26l-.53.86.09,1c.18,1.94.18,2.38,0,2.58-.28.33-1.09.46-2.39.64l-.17.02c-.19.02-.36.05-.51.07l-.34.05-.31.13c-1.41.57-2.55.94-3.71,1.2l-.29.06-.27.12-.22.1-.24.15c-.1.06-.22.14-.35.23l-.1.07c-.79.54-1.41.96-1.76.99h-.03s-.02,0-.02,0c-.36,0-.84-.32-1.59-.84l-.1-.07c-.09-.07-.18-.13-.27-.18l-.31-.21-.35-.13-.2-.07-.25-.06c-1.13-.24-2.11-.63-3.15-1.04l-.06-.02c-.32-.13-.64-.25-.97-.38l-.21-.08-.22-.05c-.12-.03-.26-.05-.43-.08l-.13-.02c-.93-.18-1.67-.31-1.95-.55-.28-.25-.4-.83-.57-1.75l-.02-.11-.05-.28-.08-.43-.2-.39c-.06-.12-.12-.24-.18-.36l-.19-.4-.3-.33c-.61-.67-1.1-1.34-1.78-2.78l-.08-.17-.1-.16c-.1-.15-.24-.36-.4-.6l-.12-.17-.09-.13-1.58-2.32-2.42,1.43c-4.38,2.58-9.39,4.99-12.82,6.55l-2.5,1.14.91,2.59c.14.4.18.98.21,1.49v.1s.01.17.01.17l.04.7.35.62c.28.49.51,1.04.71,1.69l.1.32.17.29c.12.21.24.43.36.65l.27.5.44.37c.12.1.26.21.4.34l.21.17c1.52,1.26,1.83,1.56,1.85,1.84.03.43-.45,1.09-1.24,2.13l-.1.13c-.12.15-.22.29-.31.41l-.2.28-.13.31c-.52,1.24-1.06,2.31-1.66,3.26l-.53.86.09,1c.08.88.12,1.47.11,1.95v1.37s1.02.9,1.02.9c3.03,2.66,6.97,5.77,11.73,9.24l2.22,1.62,1.81-2.07c.21-.24.4-.46.62-.7l.15-.16c.17-.19.33-.37.46-.52l.26-.31.17-.37.08-.16.16-.35.07-.39c.11-.59.28-1.21.57-2.02l.06-.18.04-.18c.04-.17.09-.42.14-.71l.04-.21c.34-1.82.53-2.7.79-2.96.35-.35,1.22-.41,2.72-.48h.22c.26-.02.5-.03.69-.05l.4-.04.38-.14c1.2-.44,1.98-.69,2.72-.86l.52-.12.45-.29.21-.14.05-.03c1.17-.76,1.85-1.19,2.29-1.19h.03c.34.02.73.33,1.47,1l.06.05.07.06.6.54.79.17c1.08.23,2.05.58,3.04,1.09l.3.16.33.08c.2.05.45.1.72.16l.21.04c1.39.29,2.19.47,2.48.79.23.25.28.75.33,1.76v.11s.01.17.01.17l.04.7.35.62c.28.49.51,1.05.71,1.69l.1.32.17.29c.12.21.24.43.36.65l.27.51.44.37c.13.11.27.23.43.35l.19.16c.43.35.8.66,1.13.95l1.45,1.29,1.77-.8c5.94-2.67,10.82-5.58,13.88-7.55l2.23-1.44-1.16-2.39Zm-16.17,8.65c-.35-.31-.75-.64-1.21-1.03-.22-.18-.42-.35-.59-.49-.14-.26-.27-.5-.42-.74-.26-.84-.58-1.58-.96-2.26,0-.09,0-.18-.01-.27-.06-1.26-.13-2.56-1.12-3.64-.96-1.05-2.27-1.32-4.08-1.7-.31-.06-.6-.12-.82-.18-1.22-.63-2.45-1.07-3.79-1.35-.04-.04-.08-.08-.13-.11-.93-.84-1.89-1.71-3.35-1.77h-.07s-.08,0-.08,0c-1.35,0-2.43.7-3.93,1.68-.09.06-.17.11-.25.17-.98.22-1.93.54-3.1.97-.22.02-.5.03-.8.04-1.96.1-3.51.17-4.69,1.35-.91.91-1.14,1.98-1.62,4.53-.06.34-.12.63-.16.82-.34.95-.56,1.74-.7,2.49-.03.06-.05.12-.08.18-.14.17-.33.38-.53.6-.23.26-.45.5-.66.75-3.57-2.6-7.97-5.95-11.51-9.06,0-.63-.04-1.34-.13-2.25.68-1.09,1.29-2.29,1.87-3.67.1-.14.23-.3.37-.48,1.06-1.39,1.98-2.59,1.84-4.19-.13-1.59-1.06-2.36-2.92-3.9-.22-.18-.42-.35-.59-.49-.14-.26-.27-.5-.42-.74-.26-.84-.58-1.58-.96-2.26,0-.09,0-.18-.01-.27-.04-.79-.11-1.59-.37-2.34,3.64-1.66,8.68-4.09,13.1-6.7.03.05.05.08.09.13.19.28.36.53.47.69.8,1.68,1.43,2.58,2.27,3.5.07.15.15.31.23.46.02.11.04.23.06.36.22,1.24.45,2.53,1.55,3.48.89.78,1.98.98,3.37,1.24.18.03.35.06.48.09.33.12.66.25.98.38,1.11.44,2.25.89,3.63,1.19.02,0,.05.02.07.02.1.07.21.15.33.23.97.68,1.98,1.38,3.31,1.38h.26c1.18-.09,2.09-.72,3.26-1.51.15-.1.28-.2.39-.27l.04-.02c1.32-.3,2.64-.72,4.19-1.35.17-.03.38-.05.6-.08,1.73-.23,3.23-.44,4.27-1.66,1.03-1.21.92-2.41.7-4.81.68-1.09,1.29-2.29,1.87-3.67.1-.14.23-.3.37-.48.27-.36.53-.7.77-1.05,3.03,2.46,7.19,5.67,11.42,8.45-.16.61-.31,1.36-.49,2.33-.06.34-.12.63-.16.82-.34.95-.56,1.74-.7,2.49-.03.06-.05.12-.08.18-.14.17-.33.38-.53.6-1.32,1.45-2.36,2.6-2.36,4.27,0,1.29.59,2.21,2.06,4.35.19.28.36.53.47.69.8,1.68,1.43,2.58,2.27,3.5.07.15.15.31.23.46.02.11.04.23.06.36.14.77.3,1.55.65,2.26-3.26,2.11-7.93,4.84-13.48,7.34Z"/>
      <path class="cls-1" d="m160.29,95.38c-.27-.29-.4-.91-.54-1.69v-.08s-.07-.3-.07-.3l-.08-.44-.21-.4c-.06-.12-.12-.24-.18-.36l-.19-.4-.3-.33c-.61-.67-1.1-1.34-1.78-2.78l-.08-.17-.1-.16c-.1-.15-.24-.36-.41-.61l-.11-.16c-1.04-1.53-1.53-2.29-1.53-2.65,0-.49.57-1.15,1.58-2.26l.14-.16c.18-.19.34-.37.47-.53l.26-.31.17-.37.03-.07.05-.11.16-.35.07-.38c.11-.59.28-1.21.57-2.02l.06-.18.04-.18c.04-.17.08-.41.14-.7l.04-.22c.21-1.1.44-2.35.68-2.8l1.25-2.37-2.22-1.51c-2.27-1.54-5.28-4.14-8.47-7.33l-2.71-2.7-1.98,3.28c-.22.37-.51.78-.93,1.33l-.11.14c-.11.15-.22.29-.31.41l-.2.28-.13.31c-.52,1.24-1.07,2.31-1.66,3.26l-.53.86.09,1c.18,1.94.18,2.37,0,2.58-.28.33-1.09.46-2.39.64l-.17.02c-.19.02-.36.05-.51.07l-.34.05-.32.13c-1.41.57-2.55.94-3.71,1.2l-.29.06-.27.12-.22.1-.24.15c-.1.06-.22.15-.35.23l-.1.07c-.79.54-1.41.96-1.76.99h-.03s-.02,0-.02,0c-.36,0-.84-.32-1.59-.84l-.1-.07c-.1-.07-.19-.13-.27-.19l-.31-.21-.35-.13-.2-.08-.24-.06c-1.13-.24-2.11-.63-3.15-1.04l-.07-.03c-.31-.12-.63-.25-.96-.37l-.21-.08-.21-.05c-.12-.03-.26-.05-.42-.08l-.13-.02c-.93-.18-1.67-.31-1.95-.55-.27-.24-.38-.74-.57-1.75l-.02-.12-.05-.27-.08-.43-.2-.39c-.06-.12-.12-.25-.18-.37l-.19-.4-.3-.33c-.61-.67-1.1-1.34-1.78-2.78l-.08-.17-.1-.16c-.09-.15-.24-.36-.4-.6l-.12-.18c-.3-.43-.54-.79-.76-1.14l-2-3.06-2.61,2.55c-2.31,2.26-7.25,4.89-13.91,7.42l-2.54.96.71,2.62c.1.38.13.89.16,1.39v.11s.01.17.01.17l.04.7.35.61c.28.49.51,1.05.71,1.69l.1.32.17.29c.12.21.24.43.36.65l.27.51.44.37c.12.1.26.22.41.34l.2.16c1.52,1.25,1.83,1.56,1.85,1.84.03.43-.45,1.09-1.24,2.13l-.1.14c-.12.15-.22.29-.31.41l-.2.27-.13.31c-.52,1.24-1.06,2.31-1.66,3.26l-.53.86.09,1c.05.51.09.95.11,1.36l.06,1.04.7.78c4.61,5.14,10.11,9.1,13.92,11.52l2.47,1.57,1.63-2.43c.31-.47.78-1,1.28-1.54l.16-.17c.17-.19.33-.36.46-.51l.26-.31.17-.36.04-.1.04-.08.16-.35.07-.38c.11-.59.28-1.21.57-2.02l.06-.17.04-.18c.04-.18.09-.43.14-.73l.04-.19c.34-1.82.53-2.7.79-2.96.35-.35,1.22-.41,2.72-.48h.22c.26-.02.5-.03.69-.05l.4-.04.38-.14c1.2-.44,1.98-.69,2.72-.86l.52-.12.45-.29.04-.03.21-.14c1.17-.76,1.85-1.19,2.29-1.19h.03c.34.02.73.33,1.47,1l.08.07.04.04.6.54.79.17c1.08.23,2.05.58,3.04,1.09l.3.16.33.08c.2.05.45.1.73.16l.21.04c1.39.29,2.19.47,2.48.79.23.25.28.75.33,1.76v.11s.01.17.01.17l.04.7.35.62c.28.49.51,1.04.71,1.69l.1.32.17.29c.12.21.24.43.36.65l.27.5.44.37c.12.1.26.22.42.35l.2.16c.8.66,1.54,1.29,1.77,1.68l1.49,2.49,2.54-1.4c3.94-2.18,8.07-5.67,10.84-8.22l2.23-2.05-2.08-2.21Zm-12.44,9.86c-.46-.77-1.24-1.46-2.43-2.44-.22-.18-.42-.35-.59-.49-.14-.26-.27-.5-.42-.74-.26-.84-.58-1.58-.96-2.26,0-.09,0-.18-.01-.27-.06-1.26-.13-2.56-1.12-3.64-.96-1.05-2.27-1.32-4.08-1.7-.31-.06-.6-.12-.82-.18-1.22-.63-2.45-1.07-3.79-1.35-.04-.04-.08-.08-.13-.11-.93-.84-1.89-1.71-3.35-1.77h-.07s-.08,0-.08,0c-1.35,0-2.43.7-3.93,1.68-.09.06-.17.11-.25.17-.98.22-1.93.54-3.1.97-.22.02-.5.03-.8.04-1.96.1-3.51.17-4.69,1.35-.91.91-1.14,1.98-1.62,4.53-.06.34-.12.63-.16.82-.34.95-.56,1.74-.69,2.49-.03.06-.05.12-.08.18-.14.17-.33.38-.53.6-.6.66-1.13,1.27-1.54,1.88-3.64-2.31-8.92-6.12-13.29-10.99-.03-.44-.07-.91-.12-1.46.68-1.09,1.29-2.29,1.87-3.67.1-.14.23-.3.37-.48,1.06-1.39,1.98-2.59,1.84-4.19-.13-1.59-1.06-2.36-2.92-3.9-.22-.18-.42-.35-.59-.49-.14-.26-.27-.5-.42-.74-.26-.84-.58-1.58-.96-2.26,0-.09,0-.18-.01-.27-.03-.68-.08-1.36-.26-2.02,4.78-1.81,11.57-4.79,14.94-8.08.23.36.49.74.8,1.19.19.28.37.53.47.69.8,1.68,1.43,2.58,2.27,3.5.07.15.15.31.23.46.02.11.04.23.06.36.22,1.24.45,2.53,1.55,3.48.89.78,1.98.98,3.37,1.24.18.03.35.06.48.09.33.12.66.25.98.38,1.11.44,2.25.89,3.63,1.19.02,0,.05.02.07.02.1.07.21.15.33.23.97.68,1.98,1.38,3.31,1.38h.26c1.18-.09,2.09-.72,3.26-1.51.15-.1.28-.2.39-.27l.04-.02c1.32-.3,2.64-.72,4.19-1.35.17-.03.38-.05.6-.08,1.73-.23,3.23-.44,4.27-1.66,1.03-1.21.92-2.41.7-4.81.68-1.09,1.29-2.29,1.87-3.67.1-.14.23-.3.37-.48.42-.55.8-1.07,1.11-1.6,2.33,2.32,5.81,5.58,8.91,7.68-.42.79-.64,1.85-.97,3.64-.06.34-.12.63-.16.82-.34.95-.56,1.74-.7,2.49-.03.06-.05.12-.08.18-.14.17-.33.38-.54.6-1.32,1.45-2.36,2.6-2.36,4.27,0,1.29.59,2.21,2.06,4.35.19.28.36.53.47.69.8,1.68,1.43,2.58,2.27,3.5.07.15.15.31.23.46.02.11.04.23.06.36.2,1.14.45,2.29,1.31,3.21-2.78,2.56-6.64,5.81-10.26,7.81Z"/>
    </g>
    <rect class="cls-1" y="34.61" width="170" height="8.1"/>
    <rect class="cls-1" y="127.29" width="170" height="8.1" transform="translate(170 262.67) rotate(180)"/>
  </g>
</svg>