<svg xmlns="http://www.w3.org/2000/svg" width="100%" viewBox="0 0 170 170">
  <g id="Camada_2" data-name="Camada 2">
    <g id="Camada_1-2" data-name="Camada 1">
      <g id="_1" data-name="1">
        <polygon points="42.34 42.66 0 0 0 33.15 57.63 85.66 0 141.64 0 170 0 170 84.02 85.33 42.34 42.66" fill="#231f20"/>
        <polygon points="84.02 85.33 84.34 85 42.34 42.66 84.02 85.33" fill="#231f20"/>
        <polygon points="85.66 85 85.98 85.33 127.66 42.66 85.66 85" fill="#231f20"/>
        <polygon points="85.98 85.33 170 170 170 138.17 112.37 85.66 170 29.68 170 0 127.66 42.66 85.98 85.33" fill="#231f20"/>
        <polygon points="170 0 169.36 0 127.66 42.66 170 0" fill="#231f20"/>
        <polygon points="0.64 0 0 0 42.34 42.66 0.64 0" fill="#231f20"/>
        <polygon points="136.71 0 107.58 0 85 31.48 62.46 0 48.04 0 29.88 0 85 58.52 136.71 0" fill="#231f20"/>
        <polygon points="0 62.73 0 108.55 31.01 85.66 0 62.73" fill="#231f20"/>
        <polygon points="33.29 170 62.42 170 85 138.51 107.54 170 121.96 170 140.12 170 85 111.47 33.29 170" fill="#231f20"/>
        <polygon points="170 108.59 170 87.72 170 62.77 138.99 85.66 170 108.59" fill="#231f20"/>
      </g>
      <g id="_2" data-name="2">
        <polygon points="0 33.15 0 34.23 0 62.73 31.01 85.66 0 108.55 0 123.19 0 141.64 57.63 85.66 0 33.15" fill="#fff"/>
        <polygon points="170 138.17 170 108.59 138.99 85.66 170 62.77 170 48.13 170 32.53 170 29.68 112.37 85.66 170 138.17" fill="#fff"/>
        <polygon points="84.34 85 85 84.34 85.66 85 127.66 42.66 169.36 0 136.71 0 85 58.52 29.88 0 0.64 0 42.34 42.66 84.34 85" fill="#fff"/>
        <polygon points="107.58 0 62.46 0 85 31.48 107.58 0" fill="#fff"/>
        <polygon points="85.98 85.33 85.66 85 85 85.66 84.34 85 84.02 85.33 84.35 85.66 1.94 170 33.29 170 85 111.47 140.12 170 168.06 170 85.65 85.66 85.98 85.33" fill="#fff"/>
        <polygon points="62.42 170 86.59 170 107.54 170 85 138.51 62.42 170" fill="#fff"/>
      </g>
    </g>
  </g>
</svg>
