<svg xmlns="http://www.w3.org/2000/svg" width="100%" viewBox="0 0 170 170">
  <g id="Camada_2" data-name="Camada 2">
    <g id="Camada_1-2" data-name="Camada 1">
      <g id="Camada_2-2" data-name="Camada 2">
        <g id="Camada_1-2-2" data-name="Camada 1-2">
          <g id="_1" data-name=" 1">
            <polygon points="0 170 0 0 87.7 0 129.5 0 170 0 170 41.5 170 170 0 170" fill="#231f20"/>
          </g>
          <g id="_2" data-name=" 2">
            <rect x="37.8" y="93.9" width="18.9" height="18.8" fill="#939598"/>
            <rect x="94.4" y="37.5" width="18.9" height="18.8" fill="#939598"/>
            <rect x="132.2" width="18.9" height="18.8" fill="#939598"/>
            <rect x="151.1" y="18.8" width="18.9" height="18.8" fill="#939598"/>
            <rect x="113.3" y="56.3" width="18.9" height="18.8" fill="#939598"/>
            <rect x="113.3" y="18.8" width="18.9" height="18.8" fill="#939598"/>
            <rect x="132.2" y="37.5" width="18.9" height="18.8" fill="#939598"/>
            <rect x="75.6" y="56.3" width="18.9" height="18.8" fill="#939598"/>
            <rect x="94.4" y="75.1" width="18.9" height="18.8" fill="#939598"/>
            <rect x="56.7" y="112.6" width="18.9" height="18.8" fill="#939598"/>
            <rect x="56.7" y="75.1" width="18.9" height="18.8" fill="#939598"/>
            <rect x="75.6" y="93.9" width="18.9" height="18.8" fill="#939598"/>
            <rect x="18.9" y="18.8" width="18.9" height="18.8" fill="#939598"/>
            <rect x="151.1" y="151.2" width="18.9" height="18.8" fill="#939598"/>
            <rect x="18.9" y="150.2" width="18.9" height="19.8" fill="#939598"/>
            <rect x="18.9" y="112.5" width="18.9" height="18.8" fill="#939598"/>
            <rect y="131.3" width="18.9" height="18.8" fill="#939598"/>
            <rect x="37.8" y="131.4" width="18.9" height="18.8" fill="#939598"/>
          </g>
          <g id="_3" data-name=" 3">
            <rect x="151.1" width="18.9" height="18.8" fill="#fff"/>
            <rect x="132.2" y="18.8" width="18.9" height="18.8" fill="#fff"/>
            <rect x="94.4" y="56.3" width="18.9" height="18.8" fill="#fff"/>
            <rect x="113.3" y="37.5" width="18.9" height="18.8" fill="#fff"/>
            <rect x="75.6" y="75.1" width="18.9" height="18.8" fill="#fff"/>
            <rect x="37.8" y="112.6" width="18.9" height="18.8" fill="#fff"/>
            <rect x="56.7" y="93.9" width="18.9" height="18.8" fill="#fff"/>
            <rect y="150.2" width="18.9" height="19.8" fill="#fff"/>
            <rect x="18.9" y="131.4" width="18.9" height="18.8" fill="#fff"/>
            <rect width="18.9" height="18.8" fill="#fff"/>
            <rect x="132.2" y="132.4" width="18.9" height="18.8" fill="#fff"/>
            <rect x="58" y="0.6" width="36.4" height="18.1" fill="#fff"/>
            <rect x="76.9" y="151.9" width="36.4" height="18.1" fill="#fff"/>
            <rect y="59.3" width="19.8" height="33.3" fill="#fff"/>
            <rect x="150.2" y="79.4" width="19.8" height="33.3" fill="#fff"/>
          </g>
        </g>
      </g>
    </g>
  </g>
</svg>
