<svg xmlns="http://www.w3.org/2000/svg" width="100%" viewBox="0 0 170 170">
  <g id="Camada_2" data-name="Camada 2">
    <g id="Camada_1-2" data-name="Camada 1">
      <g id="_1" data-name="1">
        <polygon points="45.09 0 0 0 0 46.44 80.83 84.38 82.35 82.86 45.09 0" fill="#231f20"/>
        <path d="M117.66,169.72c0-26.41,23.43-47.82,52.33-47.82V102.08L159.57,89.7,170,74V6.25L92,84.41l-9.34,9.35L6.62,170h58l15.14-11,15.63,11h22.27v-.28Z" fill="#231f20"/>
      </g>
      <g id="_2" data-name="2">
        <polygon points="0 54.96 0 165.4 75.04 90.18 0 54.96" fill="#939598"/>
        <polygon points="165.01 0 129.51 0 87.72 0 54.05 0 88.52 76.67 165.01 0" fill="#939598"/>
        <path d="M170,121.9c-28.9,0-52.33,21.41-52.33,47.82V170l52.33-.24Z" fill="#939598"/>
      </g>
      <g id="_3" data-name="3">
        <polygon points="124.03 126.05 124.03 110.29 104.67 106.7 108.61 124.11 124.03 126.05" fill="#fff"/>
        <polygon points="92.01 84.42 169.99 6.25 169.99 0 165.01 0 88.52 76.67 54.05 0 45.09 0 82.35 82.86 80.83 84.38 0 46.44 0 54.96 75.04 90.18 0 165.4 0 170 6.62 170 92.01 84.42" fill="#fff"/>
        <polygon points="169.99 102.08 169.99 73.95 159.57 89.7 169.99 102.08" fill="#fff"/>
        <polygon points="64.62 170 95.39 170 79.76 159.04 64.62 170" fill="#fff"/>
        <path d="M170,121.9v-7.67s-12.84-5-14.58,5.11c0,0-9.45-8.37-11.49,2.55,0,0-12.25-4.83-11.19,6,0,0-11.8-4.15-8.7,8.91,0,0-11.57-.76-6,9.81,0,0-11.27,1.45-3.17,10.64,0,0-10.21,5.32-.53,9.05,0,0-4.68.35-4.68,3.73l8,0v-.24c0-26.41,23.43-47.82,52.33-47.82Z" fill="#fff"/>
      </g>
    </g>
  </g>
</svg>
