<svg xmlns="http://www.w3.org/2000/svg" width="100%" viewBox="0 0 170.02 170.02">
  <g id="Camada_2" data-name="Camada 2">
    <g id="Camada_1-2" data-name="Camada 1">
      <g id="_1" data-name="1">
        <polygon points="170.02 170.01 0.02 170.01 0.02 82.3 0.02 40.51 0.02 0.04 41.53 0.04 170.02 0.04 170.02 170.01" fill="#231f20"/>
      </g>
      <g id="_2" data-name="2">
        <path d="M135.46,78.16c-.56,2.32-4.75,4.1-4.75,4.1l-2.25-.13-.25-7.85c.06-4.3-5.31-3.42-5.31-3.42-4.31-.61-3.56,3-3.56,3,.25,3.35,3.93,5.06,3.93,5.06.13,2.67-1.37,2.67-1.37,2.67-4.75-1.23-11.12,2.12-11.12,2.12L102,82.33c4.89-3,12.46-10.28,15.87-26.95,0,0-19-2.51-29.14,16.41l.15-7.44c4.28-7.69,3.63-14,3.63-14l2.63.21c1,4.41,5.18,2.8,5.18,2.8,2,.07,1-9.23,1-9.23H89.88l-.06-2.38C89.5,38.35,94,36.53,94,36.53c-1-.7-7.35-6.72-7.35-6.72l-8.25,6.93c2.17.63,3.84,5.32,3.84,5.32l-.13,2.51-7.35.29c-4-.07-3.2,5.94-3.2,5.94-.58,4.82,2.81,4,2.81,4,3.13-.28,4.73-4.41,4.73-4.41,2.49-.14,2.49,1.54,2.49,1.54-1.15,5.32,2,12.45,2,12.45L83.29,71c-2.46-4.3-10.66-15.52-29.95-17.21,0,0,.34,19,16.47,28.05l-8.22-.21c-7.6-5.06-13.82-4.29-13.82-4.29L48,74.24c4.35-1.13,2.76-6.12,2.76-6.12.07-2.34-9.12-1.22-9.12-1.22V80.44l-2.35.07c-3.39.39-5.18-4.91-5.18-4.91-.69,1.22-6.63,8.7-6.63,8.7l6.84,9.75c.62-2.57,5.25-4.54,5.25-4.54l2.49.15.28,8.7c-.07,4.76,5.87,3.78,5.87,3.78,4.77.68,3.94-3.32,3.94-3.32-.28-3.71-4.35-5.59-4.35-5.59-.14-3,1.52-3,1.52-3,5.25,1.36,12.3-2.34,12.3-2.34l10.22.47c-3.39,1.89-13.78,9.42-15.4,31.3a30.69,30.69,0,0,0,25.72-18.17L82,109.3C77.79,116.83,78.43,123,78.43,123l-2.58-.2c-.94-4.31-5.06-2.74-5.06-2.74-1.94-.06-1,9-1,9H81l.06,2.33c.31,3.35-4.06,5.13-4.06,5.13,1,.69,7.19,6.56,7.19,6.56l8.06-6.77c-2.13-.61-3.75-5.2-3.75-5.2l.13-2.46,9.76-.38c3.94.07,3.13-5.81,3.13-5.81.56-4.72-2.75-3.89-2.75-3.89C95.69,118.84,94,122,94,122a18.84,18.84,0,0,1-4.92-.48c1.12-5.2-1.94-12.18-1.94-12.18l.39-10.13c.24.7,5.69,15.91,29.09,18,0,0-.36-18.15-15.42-27.39l9.54-.34c6.87,4.57,12.49,3.88,12.49,3.88l-.19,2.81c-3.93,1-2.5,5.54-2.5,5.54-.06,2.12,8.24,1.09,8.24,1.09V90.5l2.12-.06c3.06-.34,4.68,4.44,4.68,4.44.62-1.1,6-7.86,6-7.86l-6.18-8.82Z" fill="#939598"/>
      </g>
      <g id="_3" data-name="3">
        <path d="M156.45,70.16c-1.13,2.66-4.2,3.33-6,1.29a33.48,33.48,0,0,0-16.59-17.39c-.25-12-2.11-14.36-3.22-15.64,0-.08,0-.17,0-.27l-.21-12.32c4.14-11.74,10-17.2,17.27-16.28a11.07,11.07,0,0,1,7.6,4.77,14.41,14.41,0,0,1,2.49,10,11.21,11.21,0,0,1-1.69,5.16A9.32,9.32,0,0,1,154,25.72c0-.13-.06-.26-.09-.39s0-.21,0-.21h0a7.9,7.9,0,0,0-7.63-6.21c-4.31.08-7.74,4-7.66,8.69a8.25,8.25,0,0,0,6.95,8.3,7.53,7.53,0,0,1-.39,3.41,21.79,21.79,0,0,1-3.92-.22,3.32,3.32,0,0,0-3.66,3,3.51,3.51,0,0,0,2.77,4,28,28,0,0,0,4.69.31,20.48,20.48,0,0,0,3-.3l-.1,3.56c-.23,6,3.81,8.83,6.58,9.29l.27,0L166,58.82a3.57,3.57,0,0,0-.12-7.11l-10.67.22c-1-.36-.93-1.47-.91-2l.17-5.89c10.82-5.95,9.87-22,9.87-22l-.16-18.25c-2.45,1-9.95-.23-13.65-1a16.58,16.58,0,0,0-2.12-.43c-6.21-.78-14.39,1.19-20.8,13.23l-.47-9.57a3.36,3.36,0,0,0-3.42-3.36,3.46,3.46,0,0,0-3.07,3.74l.2,4-12.36.25.19,11,12.71-.27.71,14.4c-1.58-.07-3.43-.12-5.34-.09l-1.67.06c-2.8-7.59-8.69-16.48-18.83-20.08A5.63,5.63,0,0,1,98,9.82c1.78-1.48,3.75-4.4,3.79-9.82h-35c.22,3.37,1.36,8.8,6.14,11.24A4.29,4.29,0,0,1,75,16c-6,2.26-13.19,7.12-18.63,17.51a47,47,0,0,0-7.63-.47c-.23,0-.47,0-.7,0l.21-13.79L61,19.06,60.81,8.11l-12.36.25.06-4A3.42,3.42,0,0,0,45.32.77,3.37,3.37,0,0,0,42,4.26l-.14,9.58C35.07,2.07,26.83.43,20.64,1.48a16.48,16.48,0,0,0-2.1.51C14.86,2.86,7.41,4.43,4.93,3.5L5.4,21.74S5,37.78,16,43.27l.37,5.88c0,.49.12,1.6-.84,2l-10.67.22A3.57,3.57,0,0,0,5,58.47l11.33-.23.27-.06c2.75-.58,6.69-3.61,6.26-9.56l-.23-3.55a20.11,20.11,0,0,0,3,.18,29.78,29.78,0,0,0,4.68-.5,3.55,3.55,0,0,0,2.63-4.12,3.28,3.28,0,0,0-3.76-2.87,22,22,0,0,1-3.91.38,7.5,7.5,0,0,1-.51-3.39,8.33,8.33,0,0,0,6.66-8.57c-.08-4.71-3.64-8.47-7.95-8.38A8,8,0,0,0,16,24.33h0a1,1,0,0,1,0,.21c0,.13-.06.26-.08.39a9.44,9.44,0,0,1-2,3.82,11.2,11.2,0,0,1-1.86-5.1A14.42,14.42,0,0,1,14.2,13.58,11.17,11.17,0,0,1,21.63,8.5c7.27-1.22,13.27,4,17.82,15.56l.17,10-2.19.36-.57,5.4a90.35,90.35,0,0,0-.39,12.78c-6.08,2.91-15.56,9-19.34,19.61A4.5,4.5,0,0,1,10.71,71C9.2,68.81,6.08,66.38,0,66.89v38.32c2.47.06,9.27-.39,12-6.78a3.61,3.61,0,0,1,5.32-1.91,27.84,27.84,0,0,0,2.33,4.81c4,6.49,10.34,11.15,18.94,13.92-.94,13.72.25,15.44,1.41,17.11l.06.09.19,10.79C36.1,155,30.28,160.44,23,159.52a11.11,11.11,0,0,1-7.6-4.77,14.37,14.37,0,0,1-2.48-10,11.29,11.29,0,0,1,1.68-5.16,9.32,9.32,0,0,1,2.11,3.73c0,.13.06.26.09.39s0,.21,0,.21h0a7.9,7.9,0,0,0,7.63,6.21c4.31-.09,7.74-4,7.66-8.7a8.25,8.25,0,0,0-6.95-8.29,7.53,7.53,0,0,1,.39-3.41,20.91,20.91,0,0,1,3.92.22,3.32,3.32,0,0,0,3.66-3,3.51,3.51,0,0,0-2.77-4,28.89,28.89,0,0,0-4.69-.32,20.52,20.52,0,0,0-3,.31l.1-3.57c.23-6-3.81-8.83-6.58-9.29L16,110l-11.33.23a3.57,3.57,0,0,0,.12,7.11l10.67-.22c1,.35.93,1.47.91,2L16.15,125c-10.82,6-9.87,22-9.87,22l.16,18.25c2.45-1,10,.22,13.65,1a15,15,0,0,0,2.12.42c6.21.79,14.39-1.18,20.8-13.22l.47,9.57a3.36,3.36,0,0,0,3.42,3.36A3.47,3.47,0,0,0,50,162.54l-.2-4,12.36-.26-.19-10.95-12.71.26-.6-12.17c1.19,0,2.55.06,4,0a48.07,48.07,0,0,0,5.19-.36c2.48,5.71,7.28,13.79,15.42,17.46,0,0,0,0,0,.06a5.53,5.53,0,0,1-.86,7.55c-1.78,1.48-3.75,4.4-3.79,9.82h35c-.22-3.37-1.36-8.8-6.14-11.24A4.28,4.28,0,0,1,96,152.59c7.33-2.66,14.33-8.5,18.2-18.81a57.43,57.43,0,0,0,6.55.31c.67,0,1.31,0,1.92-.1a3.56,3.56,0,0,0-.09.57l-.23,15.19-12.71.26.19,11,12.36-.25-.06,4a3.42,3.42,0,0,0,3.19,3.61,3.37,3.37,0,0,0,3.3-3.49l.14-9.58c6.81,11.77,15,13.41,21.24,12.36a18.37,18.37,0,0,0,2.1-.51c3.68-.87,11.13-2.43,13.61-1.51l-.47-18.24s.4-16-10.62-21.53l-.37-5.88c0-.49-.12-1.61.84-2l10.67-.22a3.57,3.57,0,0,0-.12-7.11l-11.33.23-.27.06c-2.75.57-6.69,3.61-6.26,9.56L148,124a20.11,20.11,0,0,0-3-.18,29.78,29.78,0,0,0-4.68.5,3.54,3.54,0,0,0-2.63,4.11,3.28,3.28,0,0,0,3.76,2.88,22,22,0,0,1,3.91-.38,7.5,7.5,0,0,1,.51,3.39,8.31,8.31,0,0,0-6.66,8.57c.08,4.71,3.64,8.47,7.95,8.38a8,8,0,0,0,7.41-6.53h0a1,1,0,0,1,0-.21c0-.13.06-.26.08-.39a9.44,9.44,0,0,1,2-3.82,11.2,11.2,0,0,1,1.86,5.1,14.42,14.42,0,0,1-2.14,10.06,11.2,11.2,0,0,1-7.43,5.08c-7.27,1.22-13.27-4-17.82-15.56L131,132.69a3.47,3.47,0,0,0-.27-1.33,10.05,10.05,0,0,0,.78-.66l1.92-1.84.27-2.77a99.62,99.62,0,0,0,.39-13.38c5.56-2.84,11.93-7.77,15.7-14.94.3-.34.63-.7,1-1.08a4.5,4.5,0,0,1,6.9,1c1.53,2.18,5.87,4.6,12.28,4V63.21c-3.13,0-10.91.72-13.57,7Zm-29.49,38c1.47,5.11.3,17.23.3,17.23-1.21,1.16-3.78,1.57-6.59,1.63a64.28,64.28,0,0,1-11-1c-4.26,19.42-19,21.14-23.22,21.23-.74,0-1.16,0-1.16,0a20.48,20.48,0,0,1-2.41.21c-15.77.33-21-20.45-21-20.45a31.24,31.24,0,0,1-9.36,1.38,62.54,62.54,0,0,1-7.27-.28.87.87,0,0,0-.11-.09c-1.06-2,.41-18.22.41-18.22C18.11,104.13,22,83.05,22,83.05c-.88-18.87,21.59-25.72,21.59-25.72-1.43-5.86-.29-16.63-.29-16.63a37.81,37.81,0,0,1,5.59-.51A36.11,36.11,0,0,1,60,41.56C67.36,23,80.61,21.27,84.7,21.19a11.18,11.18,0,0,1,1.24,0c20.73-.43,24.58,22.33,24.58,22.33a31.41,31.41,0,0,1,6.42-.67,81.51,81.51,0,0,1,8.91.35c1.69,1.93,1.51,15.7,1.51,15.7,18.94,6.72,19.21,23.81,19.21,23.81C147.72,101.63,127,108.11,127,108.11Z" fill="#6d6e71"/>
      </g>
      <g id="_4" data-name="4">
        <ellipse cx="85.02" cy="85.02" rx="7.05" ry="7.71" fill="#fff"/>
      </g>
    </g>
  </g>
</svg>
