<svg xmlns="http://www.w3.org/2000/svg" width="100%" viewBox="0 0 170 170">
  <g id="Camada_2" data-name="Camada 2">
    <g id="Camada_1-2" data-name="Camada 1">
      <g id="_1" data-name="1">
        <polygon points="170 170 0 170 0 82.28 0 0 170 0 170 170" fill="#231f20"/>
      </g>
      <g id="_4" data-name="4">
        <path d="M86.66,3.93S61.37,3.48,61,31.31c0,0-23.36-16.94-34.14-8.92,0,0-13.82,11.35,6.63,36.45,0,0-31.1,2.12-29,25.26a56.08,56.08,0,0,1,30.67.9,53.65,53.65,0,0,1,24.52,16.6c7.47,8.66,22.37,21.22,31.89-1.92l44.64,42.95s-8.26,5.53-18.61-2.52a37,37,0,0,0-6.3-4.07c-7.35-3.58-22.65-8.76-37.15.54,0,0-6.07,3.47-17.17,4.19a.51.51,0,0,0-.36.78c1.29,2.1,5.33,8,10.21,8.49,0,0,15.43,2.66,19.52,8.85a14.06,14.06,0,0,0,3.54,3.67c5.57,4,18.57,10.62,33.6-.72,0,0,14.79-14.68,17.41-14.68L165.16,170H170v-6.65L147.61,141a28.94,28.94,0,0,1,7.29-11.39,32,32,0,0,0,8.65-16.46A52.48,52.48,0,0,0,161,83.93s-11.58-20.81-13.79-28.36a.45.45,0,0,0-.86-.07,122.32,122.32,0,0,1-6.2,11.94,38.8,38.8,0,0,0-3.45,6.69c-2.74,7.08-6.39,20.68-.3,32.63,0,0,9.67,20.42,6.36,27.07L99.92,92.54s19.71-11.4,3.73-29.64a40.54,40.54,0,0,0-3.55-3.51C95.42,55.27,75,35,86.65,3.91Z" fill="#fff"/>
      </g>
    </g>
  </g>
</svg>
