<svg xmlns="http://www.w3.org/2000/svg" width="100%" viewBox="0 0 170.01 170.01">
  <g id="Camada_2" data-name="Camada 2">
    <g id="Camada_1-2" data-name="Camada 1">
      <g id="_1" data-name="1">
        <path d="M0,65.05v87.27l32.16-33.45.3,17.3H49.82L16.55,170H99.34c0-.33,0-.67,0-1,.63-35.56,32.17-64,70.66-64V15L136.24,49V31.71l-17.33-.26L150.85,0H70.19c0,35.77-31.37,64.79-70.17,65Z" fill="#231f20"/>
      </g>
      <g id="_2" data-name="2">
        <path d="M47.72,6.48,25.64,1.55V0H21.58C21.58,10.9,11.92,19.73,0,19.73v7.4H2.69L7.13,46.76.61,53.65,0,53.1V58C33.79,57.78,61.1,32.39,61.1,1.1c0-.37,0-.74,0-1.1H54.6L47.71,6.47ZM37.91,27.75l.3,9.11-10-.27L17.29,18.39,20.11,16,37.9,27.75Z" fill="#939598"/>
        <path d="M114.84,169.52l7-6.53,22.08,4.91V170h4.06a2.43,2.43,0,0,1,0-.27c.2-10.89,10-19.57,21.93-19.39H170v-7.41l-2.7-.05-4.09-19.69,6.64-6.8.15.14V112c-33.55,0-61,24.88-61.57,56,0,.66,0,1.32,0,2h7l-.61-.49Zm17.25-27.77-.13-9.11,9.95.42,10.63,18.36-2.87,2.31Z" fill="#939598"/>
        <path d="M129.13,76,80.5,123.94,44,125.19l-.89-.75c-.54-13-.83-20.34-1.37-33.37L90.37,43.15l36.51-1.25.88.75C128.3,55.68,128.6,63,129.13,76Z" fill="#939598"/>
      </g>
      <g id="_3" data-name="3">
        <polygon points="32.48 136.17 32.18 118.87 0.01 152.32 0.01 170.01 16.55 170.01 49.82 136.17 32.48 136.17" fill="#fff"/>
        <polygon points="136.24 31.7 136.23 49.01 170 15.04 170 0.01 150.84 0.01 118.9 31.44 136.24 31.7" fill="#fff"/>
        <g>
          <polygon points="0.01 130.33 0.01 136.77 135.99 0.01 129.59 0.01 0.01 130.33" fill="#fff"/>
          <polygon points="37.95 170.01 170 38.08 170 31.67 31.52 170.01 37.95 170.01" fill="#fff"/>
        </g>
        <path d="M70.19,0h-9.1c0,.37,0,.73,0,1.1C61.12,32.4,33.81,57.79,0,58v7c38.8-.25,70.17-29.27,70.17-65Z" fill="#fff"/>
        <polygon points="28.25 36.59 38.22 36.86 37.92 27.76 20.13 16.04 17.31 18.39 28.25 36.59" fill="#fff"/>
        <polygon points="47.72 6.48 54.62 0.01 25.66 0.01 25.65 1.55 47.72 6.48" fill="#fff"/>
        <polygon points="7.14 46.77 2.7 27.14 0.01 27.13 0.01 53.11 0.64 53.66 7.14 46.77" fill="#fff"/>
        <path d="M21.59,0H0V19.73C11.93,19.73,21.59,10.9,21.59,0Z" fill="#fff"/>
        <path d="M99.33,169v1h9.1c0-.66,0-1.31,0-2,.56-31.12,28-56,61.57-56v-7c-38.5,0-70,28.41-70.66,64Z" fill="#fff"/>
        <polygon points="141.91 133.06 131.96 132.64 132.09 141.75 149.67 153.73 152.54 151.42 141.91 133.06" fill="#fff"/>
        <polygon points="121.79 162.99 114.84 169.52 115.47 170.01 143.87 170.01 143.87 167.9 121.79 162.99" fill="#fff"/>
        <polygon points="163.19 123.2 167.29 142.89 170 142.94 170 116.55 169.84 116.41 163.19 123.2" fill="#fff"/>
        <path d="M147.92,169.74V170H170V150.35h-.15c-11.92-.18-21.73,8.5-21.93,19.39Z" fill="#fff"/>
      </g>
    </g>
  </g>
</svg>
