<svg xmlns="http://www.w3.org/2000/svg" width="100%" viewBox="0 0 170 170">
  <g id="Camada_2" data-name="Camada 2">
    <g id="Camada_1-2" data-name="Camada 1">
      <g id="_1" data-name="1">
        <polygon points="170 170 0 170 0 82.28 0 40.48 0 0 41.51 0 170 0 170 170" fill="#231f20"/>
      </g>
      <g id="_2" data-name="2">
        <g>
          <path d="M.5,129.62v39.83H45.75C68,169.45,86,149.68,86,125.38V85.55H40.77C18.57,85.55.5,105.32.5,129.62Zm80-4.24c0,21-15.6,38.06-34.78,38.06H6V129.62c0-21,15.6-38.06,34.78-38.06H80.53v33.82Z" fill="#fff"/>
          <path d="M87,126.17c0,23.87,17.74,43.28,39.55,43.28H169.5V128.83c0-23.87-17.74-43.28-39.55-43.28H87Zm5.5-34.61H130c18.78,0,34.05,16.72,34.05,37.26v34.61H126.57c-18.78,0-34-16.72-34-37.26Z" fill="#fff"/>
          <path d="M169.5,41.17V.55H126.57C104.76.55,87,20,87,43.83V84.45H130c21.81,0,39.55-19.41,39.55-43.28Zm-77,2.65c0-20.55,15.28-37.26,34.05-37.26H164V41.17c0,20.55-15.28,37.26-34.05,37.26H92.52Z" fill="#fff"/>
          <path d="M45.75.55H.5V40.38c0,24.31,18.07,44.07,40.27,44.07H86V44.62C86,20.31,68,.55,45.75.55ZM80.53,78.44H40.78C21.6,78.44,6,61.37,6,40.38V6.56H45.75c19.18,0,34.78,17.07,34.78,38.06Z" fill="#fff"/>
        </g>
      </g>
    </g>
  </g>
</svg>
