<svg xmlns="http://www.w3.org/2000/svg" width="100%" viewBox="0 0 170.02 170.02">
  <g id="Camada_2" data-name="Camada 2">
    <g id="Camada_1-2" data-name="Camada 1">
      <g id="_1" data-name="1">
        <ellipse cx="87.41" cy="83.14" rx="18.38" ry="20.11" fill="#231f20"/>
        <path d="M144.87,0H25.15c0,.09,0,.18,0,.27C25,15.4,13.79,27.53,0,27.53v115H.26c13.81.14,24.9,12.44,24.9,27.52H144.87a2.43,2.43,0,0,1,0-.27c.13-15.12,11.37-27.25,25.15-27.25v-115h-.25C156,27.39,144.87,15.1,144.87,0ZM149,102.72V143.4H105.5C104,152.82,96.47,160,87.42,160s-16.55-7.15-18.08-16.57H25.16V101.89C18.28,99,13.4,91.69,13.4,83.14S18.29,67.31,25.16,64.4V21.59H69.58c2-8.78,9.2-15.29,17.83-15.29s15.85,6.51,17.83,15.29H149v42c8.15,2,14.24,10,14.24,19.58s-6.08,17.52-14.24,19.59Z" fill="#231f20"/>
      </g>
      <g id="_2" data-name="2">
        <path d="M149,72.58a9.34,9.34,0,0,0-7.56-.27V29H97.62a12,12,0,0,0-.71-7.43,10.11,10.11,0,0,0-19,0,12.27,12.27,0,0,0-1,4.83A13.11,13.11,0,0,0,77.2,29H32.71V71.74c-.31,0-.62-.1-.94-.1a9.91,9.91,0,0,0-6.62,2.64,12,12,0,0,0,0,17.73,9.89,9.89,0,0,0,6.62,2.64c.32,0,.62-.08.94-.1V136H77.56a11.64,11.64,0,0,0-.1,7.43c1.37,4.6,5.28,8,9.94,8a10.61,10.61,0,0,0,9.94-8,11.64,11.64,0,0,0-.1-7.43h44.19V94a9.72,9.72,0,0,0,3.41.67,9.6,9.6,0,0,0,4.15-1,11.95,11.95,0,0,0,0-21.12ZM87.41,103.26c-10.15,0-18.38-9-18.38-20.12S77.26,63,87.41,63s18.38,9,18.38,20.11S97.56,103.26,87.41,103.26Z" fill="#939598"/>
        <path d="M16,.19V0H0V17.55C8.79,17.55,16,9.82,16,.19Z" fill="#939598"/>
        <path d="M154,0c0,9.61,7.07,17.45,15.87,17.54H170V0Z" fill="#939598"/>
        <path d="M154,169.84V170h16V152.48C161.23,152.48,154.06,160.22,154,169.84Z" fill="#939598"/>
        <path d="M.17,152.47H0V170H16C16,160.4,9,152.56.17,152.47Z" fill="#939598"/>
      </g>
      <g id="_3" data-name="3">
        <path d="M149,63.56v-42H105.24C103.26,12.81,96,6.3,87.41,6.3S71.56,12.81,69.58,21.59H25.16v42.8C18.28,67.3,13.4,74.59,13.4,83.13S18.29,99,25.16,101.88v41.51H69.33c1.53,9.42,9,16.57,18.08,16.57s16.55-7.15,18.08-16.57H149V102.71c8.15-2.06,14.24-10,14.24-19.59S157.16,65.6,149,63.53Zm0,30.13a9.53,9.53,0,0,1-4.15.94,9.71,9.71,0,0,1-3.41-.66v42H97.25a11.64,11.64,0,0,1,.1,7.43c-1.37,4.6-5.28,7.95-9.94,7.95a10.61,10.61,0,0,1-9.94-7.95,11.64,11.64,0,0,1,.1-7.43H32.72V94.54c-.31,0-.62.09-.94.09A9.9,9.9,0,0,1,25.16,92a12,12,0,0,1,0-17.73,9.89,9.89,0,0,1,6.62-2.64c.32,0,.62.08.94.1V29H77.21a12,12,0,0,1,.71-7.43,10.11,10.11,0,0,1,19,0,12.27,12.27,0,0,1,1,4.83,13.11,13.11,0,0,1-.29,2.6h43.82V72.3a9.5,9.5,0,0,1,3.41-.67,9.74,9.74,0,0,1,4.15.94,11.95,11.95,0,0,1,0,21.12Z" fill="#fff"/>
        <ellipse cx="87.41" cy="83.14" rx="10.5" ry="11.49" fill="#fff"/>
        <path d="M73.82,35.71S64.7,42,63.78,49.22c0,0-11-11.39-22.3-12.51,0,0,2.67,14.32,12,22,0,0-11.79,4.54-15.48,10.28H73.82Z" fill="#fff"/>
        <path d="M100.81,35.71s9.12,6.25,10,13.51c0,0,11-11.39,22.3-12.51,0,0-2.67,14.32-12,22,0,0,11.79,4.54,15.48,10.28H100.81Z" fill="#fff"/>
        <path d="M73.82,130.09s-9.12-6.25-10-13.52c0,0-11,11.4-22.3,12.51,0,0,2.67-14.31,12-22,0,0-11.79-4.54-15.48-10.29H73.82Z" fill="#fff"/>
        <path d="M100.81,130.09s9.12-6.25,10-13.52c0,0,11,11.4,22.3,12.51,0,0-2.67-14.31-12-22,0,0,11.79-4.54,15.48-10.29H100.81Z" fill="#fff"/>
        <path d="M25.16.28c0-.08,0-.17,0-.27H16V.19C15.94,9.82,8.78,17.55,0,17.55v10C13.78,27.53,25,15.4,25.15.28Z" fill="#fff"/>
        <path d="M154,0h-9.12c0,15.08,11.09,27.38,24.9,27.52H170v-10h-.16C161.05,17.44,154,9.61,154,0Z" fill="#fff"/>
        <path d="M144.86,169.75V170H154v-.18c.09-9.62,7.25-17.36,16-17.36v-10C156.23,142.5,145,154.63,144.86,169.75Z" fill="#fff"/>
        <path d="M.26,142.49H0v10H.17C9,152.58,16,160.41,16,170h9.12c0-15.08-11.09-27.38-24.9-27.52Z" fill="#fff"/>
      </g>
    </g>
  </g>
</svg>
