<svg xmlns="http://www.w3.org/2000/svg" width="100%" viewBox="0 0 170.02 170.02">
  <g id="Camada_2" data-name="Camada 2">
    <g id="Camada_1-2" data-name="Camada 1">
      <g id="_1" data-name="1">
        <polygon points="170.01 169.98 0.01 169.98 0.01 82.28 0.01 0.01 170.01 0.01 170.01 169.98" fill="#231f20"/>
      </g>
      <g id="_2" data-name="2">
        <ellipse cx="85.08" cy="88.15" rx="13.06" ry="14.29" fill="#939598"/>
        <path d="M11.14,0H0V25.83a170.26,170.26,0,0,1,26.54-1.17C27.07,12.77,30.14,5,33.28,0Z" fill="#939598"/>
        <path d="M158.88,0H146.41a222.56,222.56,0,0,1,1.07,29c10.87.57,18,3.93,22.53,7.36V0Z" fill="#939598"/>
        <path d="M22.54,141C11.67,140.4,4.55,137,0,133.61V170h23.6a222.59,222.59,0,0,1-1.07-29Z" fill="#939598"/>
        <path d="M143.47,145.36C143,157.25,139.88,165,136.74,170H170V144.19a170.26,170.26,0,0,1-26.54,1.17Z" fill="#939598"/>
      </g>
      <g id="_3" data-name="3">
        <path d="M12.45,34.89c1.52-.2,7.19,4.43,7.19,4.43,1.24,0,.55-8,.55-8C40,55.8,53,50.66,53,50.66c1-17.85-15.76-31.15-15.76-31.15,1.93-1.51,6.08-2,6.08-2-2.07-1.22-3.18-6.81-3.18-6.81C61.25,13.87,69.27,3,71.05,0H33.27c-3.14,5-6.2,12.76-6.73,24.65A170.26,170.26,0,0,0,0,25.82v43C16.59,65,12.44,34.88,12.44,34.88Z" fill="#fff"/>
        <path d="M138.13,13.62c.18,1.66-4,7.87-4,7.87,0,1.35,7.33.6,7.33.6C119,43.71,123.72,57.93,123.72,57.93,140,59,152.19,40.69,152.19,40.69c1.38,2.11,1.8,6.65,1.8,6.65,1.11-2.26,6.22-3.48,6.22-3.48C157.34,67,167.28,75.79,170,77.73V36.4C165.49,33,158.36,29.62,147.49,29a222.56,222.56,0,0,0-1.07-29H107.13c3.46,18.15,31,13.61,31,13.61Z" fill="#fff"/>
        <path d="M31.89,156.4c-.18-1.66,4-7.87,4-7.87,0-1.35-7.33-.6-7.33-.6C51,126.31,46.3,112.09,46.3,112.09,30,111,17.83,129.33,17.83,129.33c-1.38-2.11-1.8-6.65-1.8-6.65-1.11,2.26-6.22,3.48-6.22,3.48C12.68,103,2.74,94.23,0,92.29v41.33c4.53,3.44,11.66,6.78,22.53,7.36a222.56,222.56,0,0,0,1.07,29H62.89c-3.46-18.15-31-13.61-31-13.61Z" fill="#fff"/>
        <path d="M157.57,135.13c-1.52.2-7.19-4.43-7.19-4.43-1.24,0-.55,8-.55,8-19.76-24.5-32.76-19.36-32.76-19.36-1,17.85,15.76,31.15,15.76,31.15-1.93,1.51-6.08,2-6.08,2,2.07,1.22,3.18,6.81,3.18,6.81C108.77,156.15,100.75,167,99,170h37.78c3.14-5,6.2-12.76,6.73-24.65A170.26,170.26,0,0,0,170,144.2v-43c-16.59,3.79-12.44,33.93-12.44,33.93Z" fill="#fff"/>
        <path d="M110.33,87.44c-.28-7-8.29-8.24-8.29-8.24,5-7,.28-10.81.28-10.81-4.49-7.25-13-.38-13-.38,0-5.9-6-6.73-6-6.73-6.43-2-8.09,6-8.09,6-5.87-4.39-10.71-.6-10.71-.6-4.63,3.4.35,11.49.35,11.49-12.3.75-10.3,10.51-10.3,10.51-.07,9.45,10,10,10,10-5.8,7.63-.55,11.34-.55,11.34,6.91,8,12.3-2.11,12.3-2.11.83,5.45,7.6,6.21,7.6,6.21,5.94,1.35,7.88-7.87,7.88-7.87,4.56,6.28,10.43,2.57,10.43,2.57,4.84-4.62.9-13.44.9-13.44,8.85.93,7.19-8,7.19-8Zm-25.25,15C77.87,102.44,72,96,72,88.15s5.85-14.29,13.06-14.29,13.06,6.4,13.06,14.29S92.29,102.44,85.08,102.44Z" fill="#fff"/>
      </g>
    </g>
  </g>
</svg>
