<svg xmlns="http://www.w3.org/2000/svg" width="100%" viewBox="0 0 170 170">
  <g id="Camada_2" data-name="Camada 2">
    <g id="Camada_1-2" data-name="Camada 1">
      <g id="Camada_2-2" data-name="Camada 2">
        <g id="Camada_1-2-2" data-name="Camada 1-2">
          <g id="_1" data-name=" 1">
            <polygon points="170 170 0 170 0 82.28 0 40.49 0 0.01 41.51 0.01 170 0.01 170 170" fill="#231f20"/>
          </g>
          <g id="_2" data-name=" 2">
            <path d="M138.86,89.94a85.9,85.9,0,0,1-30.77,9.18,74.67,74.67,0,0,0-1.2-12.67,69.78,69.78,0,0,0-1.63-7A74.33,74.33,0,0,0,88,49.3,90,90,0,0,0,60.7,29.47c-9.49-6.69-20.9-10.58-33.94-11.72A91.76,91.76,0,0,1,28.49,0H19.65a101,101,0,0,0-1.53,17.37A102.23,102.23,0,0,0,0,19.12v9.63a93.77,93.77,0,0,1,18.59-1.92A72.7,72.7,0,0,0,29.17,58.57c2.51,5.11,18.75,35.79,50.39,46.55a65.76,65.76,0,0,0,6.33,1.8,69.85,69.85,0,0,0,13,1.84,86.06,86.06,0,0,1-1.47,8.76,90.64,90.64,0,0,1-13.14,30.21A152.81,152.81,0,0,0,71.7,170h9.72a155.79,155.79,0,0,1,9.85-16.66,99.89,99.89,0,0,0,14.56-33.55,94.54,94.54,0,0,0,1.81-11.11,94,94,0,0,0,34.79-10.11l.47-.23.44-.29C149.51,94,162,87.54,169.13,87.54H170V78.09c-.29,0-.57-.07-.87-.07-12.29,0-30.28,11.92-30.28,11.92ZM86.34,97.29a60,60,0,0,1-6.5-2.09C50.68,83.89,36.58,53.62,36.58,53.62a61.74,61.74,0,0,1-9.2-26.36c9.61,1,20.12,3.92,29.34,10.64,0,0,29.3,12,39.36,41.48a60,60,0,0,1,2,7.11,65.51,65.51,0,0,1,1.4,12.81A61.08,61.08,0,0,1,86.34,97.29Z" fill="#939598"/>
            <path d="M142.17,143s-8.66-30.45,27.83-37.93V170H102.55s.74-28.45,39.62-27Z" fill="#939598"/>
          </g>
          <g id="_3" data-name=" 3">
            <path d="M169.85,55.42a59.45,59.45,0,0,0-32.67,12.35c-1.32.93-16.68,11.56-31.92,11.65H79.83v21.52c0,1.09-.12,2.55-.28,4.2C78.74,113.48,76,127.43,69,133.28l-.41.33-.35.41c-.63.72-15.38,17.75-14.89,36h6.49c-.35-9.85,5-19.7,9-25.63a55.57,55.57,0,0,1,5.94-7.17C82.4,129.13,85,115,85.88,107c.39-3.57.44-5.92.44-5.92V86.5h18.73a15.74,15.74,0,0,0,1.82-.07c17.52-.81,34-12.85,34-12.85C154.13,62.91,170,62.51,170,62.51V55.39h-.15Z" fill="#fff"/>
          </g>
        </g>
      </g>
    </g>
  </g>
</svg>
