<svg xmlns="http://www.w3.org/2000/svg" width="100%" viewBox="0 0 170.01 170.01">
  <g id="Camada_2" data-name="Camada 2">
    <g id="Camada_1-2" data-name="Camada 1">
      <g id="_1" data-name="1">
        <path d="M1.49,26.9,0,28.48V55.29c32.79,13.82,32.66,61.5,32.66,61.5,7.87-5.53,25.09-4.29,25.09-4.29a41,41,0,0,0-5,25.29c38.2.75,56.28,22.53,62.46,32.2h27.93l1.37-1.45Z" fill="#231f20"/>
        <path d="M138.51,49.24c-7.87,5.53-25.09,4.29-25.09,4.29a41,41,0,0,0,5-25.29C84.81,27.58,66.77,10.68,58.71,0H26.82l-.15.16L169.73,141.82l.26-.28V110.21c-31.61-14.46-31.49-61-31.49-61Z" fill="#231f20"/>
      </g>
      <g id="_2" data-name="2">
        <path d="M31.16,154s6.66-8.85,3.79-18.66c0,0-10.29.55-18.6,7.05,0,0,10.87-48.23-16.34-67.33v95H94.6c-5.92-7.69-22.67-21.88-63.43-16Z" fill="#939598"/>
        <path d="M140,12.06s-6.66,8.85-3.79,18.66c0,0,10.29-.55,18.6-7,0,0-10.55,46.82,15.16,66.46V0H80.21c8.13,7.66,25.42,17,59.8,12.05Z" fill="#939598"/>
      </g>
      <g id="_3" data-name="3">
        <polygon points="169.73 141.82 144.54 168.56 143.18 170.01 146 170.01 169.99 170.01 169.99 142.09 169.99 141.54 169.73 141.82" fill="#6d6e71"/>
        <polygon points="0.01 25.43 0.01 28.48 1.49 26.9 26.68 0.17 26.82 0.01 26.51 0.01 0.01 0.01 0.01 25.43" fill="#6d6e71"/>
      </g>
      <g id="_4" data-name="4">
        <path d="M52.79,137.81a41,41,0,0,1,5-25.29s-17.22-1.24-25.09,4.29c0,0,.13-47.68-32.66-61.5V75.05c27.2,19.09,16.34,67.33,16.34,67.33,8.31-6.5,18.6-7,18.6-7,2.88,9.81-3.79,18.66-3.79,18.66,40.77-5.86,57.52,8.33,63.44,16h20.66C109.08,160.33,91,138.56,52.79,137.81Z" fill="#fff"/>
        <path d="M118.4,28.23a41,41,0,0,1-5,25.29s17.22,1.24,25.09-4.29c0,0-.12,46.51,31.49,61V90.12c-25.7-19.64-15.15-66.46-15.15-66.46-8.32,6.5-18.61,7.05-18.61,7.05C133.38,20.9,140,12.05,140,12.05,105.66,17,88.36,7.66,80.24,0H58.74c8.06,10.65,26.11,27.56,59.68,28.22Z" fill="#fff"/>
        <polygon points="144.54 168.56 169.73 141.82 26.68 0.17 1.49 26.9 144.54 168.56" fill="#fff"/>
      </g>
    </g>
  </g>
</svg>
