<svg xmlns="http://www.w3.org/2000/svg" width="100%" viewBox="0 0 170.02 170.02">
  <g id="Camada_2" data-name="Camada 2">
    <g id="Camada_1-2" data-name="Camada 1">
      <g id="_1" data-name="1">
        <polygon points="170 0.01 170 170.01 82.27 170.01 40.48 170.01 0 170.01 0 128.5 0 0.01 170 0.01" fill="#231f20"/>
      </g>
      <g id="_2" data-name="2">
        <path d="M121.76,169.28v.41l.27.32h36.29a10.41,10.41,0,0,1,1.36-9.73,11.56,11.56,0,0,1,4.14-3.57,11.36,11.36,0,0,1,2.1-.84,11.49,11.49,0,0,1,2.28-.44,12.1,12.1,0,0,1,1.21-.06c.19,0,.38,0,.57,0V120.2c-26.86,1.2-48.25,22.72-48.25,49.09Z" fill="#939598"/>
        <path d="M0,22.63v96s7.65-1.27,20.76-.67c20.67,1,55,6.56,94.59,29.23,0,0,18.55-25.25,37.92-32.25,0,0-33.38-40.16-36.25-92.43A125.91,125.91,0,0,1,117.76,0h-93C24.75,12.49,13.67,22.62,0,22.62Z" fill="#939598"/>
      </g>
      <g id="_3" data-name="3">
        <g>
          <path d="M153.24,115c-19.36,7-37.92,32.25-37.92,32.25C75.71,124.54,41.41,118.93,20.74,118l.5,15.87s17.25.46,27.63,2.67a23.38,23.38,0,0,0-5.34-7s43.43-1.05,78.23,40.17v-.41c0-26.37,21.39-47.89,48.25-49.09V118s-27.1-14.12-41.31-74.1c0,0,5.2,4.56,8.52,4.65,0,0-4-17.88-3-25.62L117,22.52C119.89,74.79,153.27,115,153.27,115ZM27.36,126.59c0-1.53,2-2.76,4.54-2.76s4.54,1.24,4.54,2.76-2,2.76-4.54,2.76S27.36,128.11,27.36,126.59ZM130,32.69c.22,2.28-.95,4.24-2.62,4.37s-3.19-1.6-3.41-3.89,1-4.24,2.61-4.37S129.78,30.4,130,32.69Z" fill="#fff"/>
          <path d="M159.69,160.28a10.41,10.41,0,0,0-1.36,9.73h0a10.41,10.41,0,0,1,1.36-9.73Z" fill="#fff"/>
          <path d="M121.77,170H122l-.27-.32V170Z" fill="#fff"/>
          <path d="M163.84,156.71a11.36,11.36,0,0,1,2.1-.84A11.8,11.8,0,0,0,163.84,156.71Z" fill="#fff"/>
          <path d="M165.94,155.86a11.46,11.46,0,0,1,2.29-.44A13.07,13.07,0,0,0,165.94,155.86Z" fill="#fff"/>
        </g>
        <path d="M0,22.63V58.1s8.91-.83,16.62-14.51c0,0,2.27,10.78-1.81,16.59,0,0,13.61-1.11,15.72-9.54,0,0,15.73,5.8,21,2.49A29.33,29.33,0,0,0,48.08,36s7.56-7.74,5.45-16.59c0,0-9.54,3.32-19.06,1.38,0,0,18.16-9.21,14.52-20.78H24.77C24.77,12.49,13.68,22.62,0,22.62Z" fill="#fff"/>
        <path d="M163,143.57c-2.27-6.06-4.94-6.71-4.94-6.71-2.88,1.3-4.14,8.06-4.14,8.06-4.79-6.06-9.17-4.66-9.17-4.66-.9,3.91,2.42,10.41,2.42,10.41a8.55,8.55,0,0,0-8.57,4.56c.56,2.6,6.46,3.65,6.46,3.65-7,3.81-7.46,9.36-7.46,9.36a13.32,13.32,0,0,1,4.54,0c2.17.2.71,1.75.71,1.75h15.47a10.75,10.75,0,0,1-.64-3.5c0-6.16,5.26-11.15,11.74-11.15.2,0,.38,0,.57,0v-20.6c-4.57,2.35-7,8.76-7,8.76Z" fill="#fff"/>
        <path d="M0,163.79s5.23-3.69,5.53-7.19c0,0,2-10.87,5.84-14.37A6.57,6.57,0,0,1,14.29,146s6-2.58,8-1.93c0,0,4.14,3-1.51,8.94,0,0,3.63,2,4.74,3.41,0,0-6.56,4.15-11.6,5.34,0,0-2.63,2.58-4,8.25H0V163.8Z" fill="#fff"/>
        <path d="M69.33,166.94c-.76-3.25-5.52-3.73-5.52-3.73A7.66,7.66,0,0,0,56,169.57c-1.43-6-6.28-6.5-6.28-6.5-.45-5.6,3.85-10.64,3.85-10.64.08-1-3.1-.9-3.1-.9.45-5.94-2.64-5.8-2.64-5.8-2.05.07-1.9,6-1.9,6a2.63,2.63,0,0,0-2.42,1c1.67,3.39,2.42,9.67,2.42,9.67-5.45,1.38-4.74,7.1-4.74,7.1a9.79,9.79,0,0,0-8.87-6.17c-4.51-.2-6.05,4.05-6.59,6.63H74.68C72.44,169.63,69.75,168.78,69.33,166.94Z" fill="#fff"/>
        <path d="M9.14,129.35c0-4.29-3.81-7.76-8.49-7.76-.22,0-.43,0-.65.06v15.41c.22,0,.43.06.65.06,4.69,0,8.49-3.48,8.49-7.76Z" fill="#fff"/>
        <path d="M163.2,0s-4,4.78-7.87,5.05c0,0-11.89,1.84-15.72,5.34a7,7,0,0,0,4.13,2.67s-2.82,5.44-2.11,7.28c0,0,3.33,3.78,9.79-1.38,0,0,2.22,3.32,3.73,4.33,0,0,4.54-6,5.84-10.6,0,0,2.83-2.4,9-3.69V0H163.2Z" fill="#fff"/>
        <path d="M166.65,63.36c-3.56-.69-4.08-5-4.08-5,.07-6.29,7-7.12,7-7.12-6.58-1.31-7.12-5.74-7.12-5.74-6.12-.41-11.64,3.52-11.64,3.52-1.14.07-1-2.83-1-2.83-6.51.41-6.35-2.42-6.35-2.42C143.51,41.86,150,42,150,42c-.39-1.24,1.13-2.21,1.13-2.21,3.71,1.52,10.59,2.21,10.59,2.21,1.51-5,7.77-4.33,7.77-4.33-7-2.49-6.76-8.11-6.76-8.11-.2-4.12,4.45-5.54,7.27-6v44.7c-.42-2-1.35-4.5-3.36-4.89Z" fill="#fff"/>
        <path d="M128.8,8.36c-4.7,0-8.5-3.48-8.5-7.76a5.93,5.93,0,0,1,.07-.59h16.86c0,.2.07.39.07.59,0,4.29-3.81,7.76-8.49,7.76Z" fill="#fff"/>
      </g>
    </g>
  </g>
</svg>
