<svg xmlns="http://www.w3.org/2000/svg" width="100%" viewBox="0 0 170 170">
  <g id="Camada_2" data-name="Camada 2">
    <g id="Camada_1-2" data-name="Camada 1">
      <g id="_1" data-name="1">
        <polygon points="170 170 0 170 0 82.28 0 0 170 0 170 170" fill="#231f20"/>
      </g>
      <g id="_2" data-name="2">
        <g>
          <path d="M85,64.5V32.83c0-.31,0-.61,0-.92l0-.87A22.46,22.46,0,0,0,62.6,10.25a22.19,22.19,0,0,0-16.15,7,3.72,3.72,0,0,1-5.53-.1,16.12,16.12,0,0,0-12.11-5.49A16.39,16.39,0,0,0,16.68,38.88a2.68,2.68,0,0,1-.07,3.64,22.63,22.63,0,0,0,9.63,37.81c.4.11.82.16,1.23.26,0,0,6.83.49,7.8.36l29.81.47A20.75,20.75,0,0,1,85,64.51Z" fill="#939598"/>
          <path d="M146.22,80.53c.4-.09.81-.15,1.19-.26,9.12-2.74,15.81-11.73,15.81-22.38a24,24,0,0,0-6.61-16.68,2.55,2.55,0,0,1,0-3.48c3.2-3.32,6.59-8.32,6.59-12.76,0-9.31-7-16.86-15.73-16.86-4.46,0-8.91,2.88-12,6.6a4.52,4.52,0,0,1-6.7.32,25,25,0,0,0-16.58-6.92c-11.4,0-20.73,9.43-21.61,21.41l0,.89c0,.32,0,.63,0,.94V65.14a20.83,20.83,0,0,1,15.26,16.33l32.91-.56c.94.13,7.56-.38,7.56-.38Z" fill="#939598"/>
          <path d="M88.14,106v32.44c0,.31,0,.61,0,.92l0,.87A22.46,22.46,0,0,0,110.54,161a22.19,22.19,0,0,0,16.15-7,3.71,3.71,0,0,1,5.53.11,16.11,16.11,0,0,0,12.11,5.48,16.39,16.39,0,0,0,12.13-27.26,2.68,2.68,0,0,1,.07-3.64A22.63,22.63,0,0,0,146.9,91c-.4-.11-.82-.16-1.23-.26,0,0-6.83-.49-7.8-.36l-32.23-.51A20.77,20.77,0,0,1,88.14,106Z" fill="#939598"/>
          <path d="M65.2,89.86l-30.73.52c-.94-.13-7.56.38-7.56.38-.4.09-.81.15-1.19.26C16.6,93.77,9.91,102.75,9.91,113.4a24,24,0,0,0,6.61,16.68,2.55,2.55,0,0,1,0,3.48c-3.2,3.32-6.59,8.33-6.59,12.76,0,9.31,7,16.86,15.73,16.86,4.46,0,8.91-2.88,12-6.6a4.51,4.51,0,0,1,6.7-.31,25,25,0,0,0,16.58,6.91c11.4,0,20.73-9.43,21.61-21.4l0-.9c0-.32,0-.63,0-.94V106A20.78,20.78,0,0,1,65.19,89.87Z" fill="#939598"/>
        </g>
      </g>
      <g id="_3" data-name="3">
        <path d="M85.41,64.48a20.87,20.87,0,1,0,20.71,20.87A20.79,20.79,0,0,0,85.41,64.48Zm0,30.25a9.38,9.38,0,1,1,9.31-9.38A9.35,9.35,0,0,1,85.41,94.73Z" fill="#fff"/>
      </g>
    </g>
  </g>
</svg>
