<svg xmlns="http://www.w3.org/2000/svg" width="100%" viewBox="0 0 170.04 170">
  <g id="Camada_2" data-name="Camada 2">
    <g id="Camada_1-2" data-name="Camada 1">
      <g id="Camada_2-2" data-name="Camada 2">
        <g id="Camada_1-2-2" data-name="Camada 1-2">
          <g id="_2" data-name=" 2">
            <path d="M41.8,170H132c1.81-26.61-9.47-47.57-14.28-55.16-.44-.71.46-1.49,1.22-1,23.11,13.59,43,13.57,51.11,12.78V39.83C52.68,63.12,41.79,170,41.79,170Z" fill="#231f20"/>
            <path d="M33.78,108.31l-1-48.93c1.11-31,20.37-39.25,20.37-39.25C88.07,7,170,31.74,170,31.74V0H43.58C43.58,22,24.07,39.83,0,39.83v88.25H8.06c26.32,0,25.72-19.76,25.72-19.76Z" fill="#231f20"/>
          </g>
          <g id="_2-2" data-name=" 2-2">
            <path d="M37,168.59c0,.47-.06.94-.08,1.41H41.8S52.69,63.12,170,39.83V31.74S88.07,7,53.14,20.13c0,0-19.26,8.29-20.37,39.25l1,48.93s.6,19.76-25.72,19.76H0v6.7C20.44,134.77,37,149.91,37,168.59Z" fill="#fff"/>
            <path d="M43.58,0H37C37,18.68,20.43,33.82,0,33.82v6C24.07,39.83,43.58,22,43.58,0Z" fill="#fff"/>
            <path d="M118.9,113.79c-.76-.45-1.66.34-1.22,1,4.8,7.64,16.08,28.6,14.32,55.21h6c-.09-.92-.15-1.85-.15-2.79,0-17.18,14-31.34,32.19-33.5v-7.09C161.85,127.41,142,127.44,118.9,113.79Z" fill="#fff"/>
          </g>
          <g id="_1" data-name=" 1">
            <path d="M0,33.82C20.44,33.82,37,18.68,37,0H0Z" fill="#939598"/>
            <path d="M0,134.78V170H36.93c0-.47.08-.93.08-1.41,0-18.68-16.57-33.82-37-33.82Z" fill="#939598"/>
            <path d="M170,133.71c-18.18,2.16-32.2,16.29-32.2,33.5,0,.94.07,1.87.15,2.79H170Z" fill="#939598"/>
            <path d="M96.39,54.15A18.34,18.34,0,1,0,77.57,72h.49A18.11,18.11,0,0,0,96.39,54.15Z" fill="#939598"/>
          </g>
        </g>
      </g>
    </g>
  </g>
</svg>
