<svg xmlns="http://www.w3.org/2000/svg" width="100%" viewBox="0 0 170.01 170.01">
  <g id="Camada_2" data-name="Camada 2">
    <g id="Camada_1-2" data-name="Camada 1">
      <g id="_1" data-name="1">
        <path d="M107.82,109.53C100.71,99.28,92,80.8,97.2,55.84a.06.06,0,0,1,0,0s-6.93,21.34-27.91,9.46L59.71,60s-3.33-.92-2.63,2.4l7.37,13.27s7.53,13.07-1,19.77c.47,0,.93-.11,1.4-.14a62.35,62.35,0,0,1,43,14.23Z" fill="#231f20"/>
        <path d="M170,153.43c-10,0-18.14,7.42-18.14,16.58H170Z" fill="#231f20"/>
        <path d="M26.63,8.4c-5,.64-5.64,4-5.64,4-1.26,6.13,4.54,8,4.54,8,4,1.85,3.67,5,2.83,7.06a5.9,5.9,0,0,1-3.49,3.37C19.77,32.68,17,26.82,17,26.82a6,6,0,0,0-6.9-4.38c-6.61.83-4.14,10.23-4.14,10.23C6.73,39.53,0,40,0,40v7A45.27,45.27,0,0,0,44.12,1.55c0-.52-.06-1-.08-1.55H38.59c.47,8.67-12,8.39-12,8.39Z" fill="#231f20"/>
        <path d="M16.55,1.56c0-.52,0-1-.07-1.55H0V19.18A17.58,17.58,0,0,0,16.57,1.56Z" fill="#231f20"/>
        <path d="M118.11,120.86l-.08-.07,0,.06v0l0,0Z" fill="none" stroke="#231f20" stroke-miterlimit="10"/>
      </g>
      <g id="_2" data-name="2">
        <path d="M147,149.79C146.8,163.47,135,170,135,170h16.9c0-9.16,8.12-16.58,18.14-16.58V138.05c-2.67,8-23,11.75-23,11.75Z" fill="#939598"/>
        <path d="M118.11,120.86l0,0v0c6.58,21-4.28,47.79-4.81,49.09l0,.06h11.07a4.54,4.54,0,0,1-1.09-4.36,4.79,4.79,0,0,1,3-3.5c13.3-4,10.67-14.18,10.67-14.18,0-6.11-12.07-8.54-12.07-8.54a28.78,28.78,0,0,0,1.78-12.3,18.69,18.69,0,0,0,6.18,1.36,51.29,51.29,0,0,0,5.32.16c0,.34.08.63.11.95a15.52,15.52,0,0,0,.84,3.94c3,7.73,15.19,8.31,18.93.86a8.69,8.69,0,0,0,1-4.47C165,123.2,170,127,170,127v-10l-.07,0c-39.11,10.7-50.95,4.39-51.8,3.89Z" fill="#939598"/>
        <path d="M0,167c.81-1.77,1.63-3.52,2.46-5.21,24.29-49.56,54.6-63.44,54.6-63.44a16.46,16.46,0,0,0,6.35-2.9c8.54-6.7,1-19.77,1-19.77L57.07,62.39C56.36,59.07,59.7,60,59.7,60l9.57,5.34c21,11.89,27.91-9.46,27.91-9.46a.06.06,0,0,1,0,0C103,33.88,131.91,15.07,152.7,4.08c2.87-1.52,5.57-2.88,8-4.08H100.68L0,100.73Z" fill="#939598"/>
        <path d="M52.44,1.56c0-.52,0-1,0-1.55H44c0,.52.08,1,.08,1.55A45.27,45.27,0,0,1,0,47.05V55.5c29-.5,52.42-24.45,52.42-53.95Z" fill="#939598"/>
      </g>
      <g id="_3" data-name="3">
        <path d="M152.7,4.09c-20.79,11-49.67,29.8-55.51,51.75-5.16,25,3.51,43.44,10.62,53.69a62.25,62.25,0,0,0-43-14.23c-.47,0-.93.1-1.4.14a16.68,16.68,0,0,1-6.35,2.9s-30.31,13.88-54.6,63.44C1.64,163.47.82,165.22,0,167v3H18c-.6-8-.57-21.38,4.69-31.83,5.36-10.67,14.08-19.59,31.56-25.93,0,0,54-13.49,55.67,33.17,0,0-.38,10.08-9.41,14.37,0,0-5.34-17.42-19.45-8.36,0,0-7.85,6.36-1.51,18.58h33.62l.08-.06c.53-1.29,11.37-28.14,4.82-49.09l0-.06.09.07c.85.5,12.69,6.81,51.8-3.89l.07-.09V82.94c-12.47-7.29-18.95,1.22-18.95,1.22-8.92,14.79,8.24,20.39,8.24,20.39-4.24,9.47-14.17,9.87-14.17,9.87-46-1.78-34.56-57.3-34.56-57.3C116.82,38.8,127.47,28.64,138,23s24.24-5.54,32-4.86V0h-9.25c-2.47,1.21-5.17,2.57-8,4.08Z" fill="#6d6e71"/>
        <polygon points="100.69 0.01 87.73 0.01 82.67 0.01 0.02 82.79 0.02 100.73 100.69 0.01" fill="#6d6e71"/>
      </g>
      <g id="_4" data-name="4">
        <path d="M52.4,0c0,.52,0,1,0,1.55C52.44,31.05,29.05,55,0,55.51V82.79L82.69,0H52.4Z" fill="#fff"/>
        <path d="M138,23c-10.51,5.62-21.16,15.79-27.42,34.11,0,0-11.43,55.53,34.56,57.3,0,0,9.93-.4,14.17-9.87,0,0-17.17-5.6-8.24-20.39,0,0,6.49-8.51,18.95-1.22V18.11c-7.77-.68-21.41-.81-32,4.86Z" fill="#fff"/>
        <path d="M81.06,151.43c14.11-9.05,19.45,8.36,19.45,8.36,9-4.3,9.41-14.37,9.41-14.37-1.7-46.67-55.67-33.17-55.67-33.17-17.48,6.35-26.18,15.27-31.56,25.93C17.43,148.63,17.4,162,18,170H79.53C73.21,157.78,81,151.43,81,151.43Z" fill="#fff"/>
        <path d="M158.9,129.93a8.74,8.74,0,0,1-1,4.47c-3.74,7.45-15.94,6.86-18.93-.86a14.71,14.71,0,0,1-.84-3.94c0-.33-.1-.61-.11-.95a48.16,48.16,0,0,1-5.32-.16,19,19,0,0,1-6.18-1.36,29,29,0,0,1-1.78,12.3s12.06,2.44,12.06,8.54c0,0,2.65,10.18-10.66,14.18a4.83,4.83,0,0,0-3,3.5,4.56,4.56,0,0,0,1.08,4.36H135s11.85-6.54,12-20.22c0,0,20.37-3.73,23-11.75V127s-5.05-3.78-11.1,3Z" fill="#fff"/>
        <path d="M5.91,32.68S3.44,23.28,10,22.45A6,6,0,0,1,17,26.83s2.82,5.86,7.91,4.08a5.93,5.93,0,0,0,3.49-3.37c.84-2.08,1.21-5.21-2.83-7.06,0,0-5.8-1.89-4.55-8,0,0,.66-3.41,5.65-4.05,0,0,12.42.28,12-8.39H16.47c0,.51.07,1,.07,1.55A17.57,17.57,0,0,1,0,19.19V40.06s6.71-.51,5.9-7.37Z" fill="#fff"/>
      </g>
    </g>
  </g>
</svg>
