<svg xmlns="http://www.w3.org/2000/svg" width="100%" viewBox="0 0 170 170">
  <g id="Camada_2" data-name="Camada 2">
    <g id="Camada_1-2" data-name="Camada 1">
      <g id="_2" data-name="2">
        <path d="M9.89,9.44C8.08,55.52,42.62,75.17,42.62,75.17V85H85v-.22Z" fill="#231f20"/>
        <path d="M10,7.21s2.62-.47,3.74-.54C57.42,3.34,76,42.29,76,42.29h9V0H.48L9.89,9.44c0-.74,0-1.47.09-2.24Z" fill="#231f20"/>
        <path d="M156.28,6.67c1.12.07,3.74.54,3.74.54,0,.76.06,1.49.09,2.24L85,84.79V42.3h9S112.58,3.35,156.29,6.68Z" fill="#231f20"/>
        <path d="M160.11,9.44,169.52,0H170V85H127.38V75.17S161.92,55.51,160.11,9.44Z" fill="#231f20"/>
        <path d="M13.72,163.33c-1.12-.07-3.74-.54-3.74-.54-.05-.76-.06-1.49-.09-2.24L85,85.21V127.7H76s-18.57,39-62.28,35.62Z" fill="#231f20"/>
        <path d="M9.89,160.56.48,170H0V85H42.62v9.83S8.08,114.49,9.89,160.56Z" fill="#231f20"/>
        <path d="M160.11,160.56c1.81-46.08-32.73-65.73-32.73-65.73V85H85v.22Z" fill="#231f20"/>
        <path d="M160,162.79s-2.62.47-3.74.54C112.58,166.66,94,127.71,94,127.71H85V170h84.52l-9.41-9.44c0,.74,0,1.47-.09,2.24Z" fill="#231f20"/>
      </g>
      <g id="_1" data-name="1">
        <path d="M13.72,6.67c-1.12.07-3.74.54-3.74.54C9.93,8,9.92,8.7,9.89,9.45L85,84.79V42.3H76S57.42,3.34,13.72,6.67Z" fill="#fff"/>
        <path d="M9.89,9.44.48,0H0V85H42.62V75.17S8.08,55.52,9.89,9.44Z" fill="#fff"/>
        <path d="M160.11,9.44c1.81,46.08-32.73,65.73-32.73,65.73V85H85v-.22Z" fill="#fff"/>
        <path d="M160,7.21s-2.62-.47-3.74-.54C112.58,3.34,94,42.29,94,42.29H85V0h84.52L160.1,9.44c0-.74,0-1.47-.09-2.24Z" fill="#fff"/>
        <path d="M9.89,160.56C8.08,114.48,42.62,94.83,42.62,94.83V85H85v.22Z" fill="#fff"/>
        <path d="M10,162.79s2.62.47,3.74.54C57.42,166.66,76,127.71,76,127.71h9V170H.48l9.41-9.44c0,.74,0,1.47.09,2.24Z" fill="#fff"/>
        <path d="M156.28,163.33c1.12-.07,3.74-.54,3.74-.54,0-.76.06-1.49.09-2.24L85,85.21V127.7h9s18.57,39,62.28,35.62Z" fill="#fff"/>
        <path d="M160.11,160.56l9.41,9.44H170V85H127.38v9.83S161.92,114.49,160.11,160.56Z" fill="#fff"/>
      </g>
    </g>
  </g>
</svg>
