<svg xmlns="http://www.w3.org/2000/svg" width="100%" viewBox="0 0 595.58 590.28">
  <g id="Camada_2" data-name="Camada 2">
    <g id="Camada_1-2" data-name="Camada 1">
      <g id="Camada_2-2" data-name="Camada 2">
        <g id="Camada_1-2-2" data-name="Camada 1-2">
          <g id="Camada_2-2-2" data-name="Camada 2-2">
            <g id="Camada_1-2-2-2" data-name="Camada 1-2-2">
              <path id="_2" data-name=" 2" d="M594.41,1.4V593.85a1.45,1.45,0,0,1-1.47,1.4H1.54A1.47,1.47,0,0,1,0,593.85H0V1.4A1.47,1.47,0,0,1,1.54,0H593.16a1.48,1.48,0,0,1,1.46,1.4h-.21Z"/>
              <path id="_1" data-name=" 1" d="M288.87,591.75s6.72-38.49,54.56-40.7a1.41,1.41,0,0,0,1.43-1.35h0c-.42-6.52-1.61-34.68,6.75-48.5a1.65,1.65,0,0,1,2.07-.56,1.45,1.45,0,0,1,.73.81c3.82,10.49,19.15,47.86,43.15,55.48a1.46,1.46,0,0,0,1.86-.77,50.38,50.38,0,0,1,48.5-27.6,1.47,1.47,0,0,1,1.47,1.47,1.14,1.14,0,0,1-.28.74c-6.26,8-25.65,37.21,13.12,49.78h.47c3.51,0,48-.28,23.6-54.33h0c0-.21-67.79-135.26-246.36-126.65h-.35c-5.57,1.64-151,45.48-51,141.72a1.23,1.23,0,0,1,0,1.68h0a1.29,1.29,0,0,1-.56.39c-6.55,3-30.24,11.09-55.65-12.73a1.51,1.51,0,0,0-1.74-.28c-7.67,3.71-56.42,27.07-84.23,14.51L22,531.92a1.36,1.36,0,0,1-.5-1.82h0a1.88,1.88,0,0,1,.39-.35c8.36-5.88,43.53-32.78,48.42-63l5.29-20c11.93-28.65,48.71-95.54,134.07-103.93h0c.35,0,59.48-3.5,100.07-.28a1.55,1.55,0,0,0,1.65-1.3,1.37,1.37,0,0,0-.28-.87c-13.61-18.55-108.8-136.41-273-65.78a1.53,1.53,0,0,1-2-.59,1.36,1.36,0,0,1,0-1.05c5.91-16.72,38.91-97.36,130.91-88.37a1.52,1.52,0,0,0,1.72-1.12,1.27,1.27,0,0,0-.39-1.16L125.6,138a1.63,1.63,0,0,0-2.14-.25l-.24.25-28,33.41-.28.25c-2,1.43-24.5,17.21-45.91-6l-8-7.23s-24.49-20-.21-45.48a1.26,1.26,0,0,0,0-1.68l-21-28.72s-18-22.47,9.52-50.11c0,0,23.27-27.67,50.29-2.41L105,53.36a1.61,1.61,0,0,0,2.17,0h0l10.49-9.69S140.85,21,159.4,48.39v.24l14.49,13.16s23.72,20.29-7.32,39.67h-.21l-23.19,21.27a1.36,1.36,0,0,0,0,1.92h0l44.61,40.72a1.61,1.61,0,0,0,2.17,0,1.26,1.26,0,0,0,.42-1.18c-3.05-19.28-9.6-97.29,80.52-130.81a1.58,1.58,0,0,1,2,.77,1.13,1.13,0,0,1,0,1.15c-12,21.79-71.77,147.43,66.49,280.82a1.68,1.68,0,0,0,2.17,0,1.46,1.46,0,0,0,.49-1.19c-4.25-28.6-21.67-192.17,98.47-251h0c2-.7,53.85-19.11,80.07-49a1.59,1.59,0,0,1,2-.28c6.65,4.09,39,26.58,14.76,65.35a1.33,1.33,0,0,0,.21,1.65c7.22,7,62.12,62.72,16.42,111.93a1.57,1.57,0,0,1-2,.42,1.24,1.24,0,0,1-.46-.42c-8.51-11.13-65.09-79.1-126.82-6.41v.25c-2.76,5.4-91.43,179.28,106.25,303.92h.35c3,.91,42.37,11.77,40.83-30.29a1.67,1.67,0,0,0,0-.63c-2-3.22-21.48-32.54-50-4.16a1.6,1.6,0,0,1-2.16,0,1.11,1.11,0,0,1-.46-.74c-1.79-8.29-3.85-34.07,35-46.14a1.25,1.25,0,0,0,1.19-1.32V408h0a1.33,1.33,0,0,0-.53-.81c-7.41-7-38.28-35.47-59.21-48.28a1.32,1.32,0,0,1-.52-1.78h0a1.51,1.51,0,0,1,.73-.56c8.55-2.59,34.16-9.41,55.58-4.48,1.25.28,2.09-.35,1.85-1.54-1.92-9.73-7-49.68,40-56.78a1.5,1.5,0,0,1,1.79,1.12V497.21a1.19,1.19,0,0,1-.63,1.05c-6,3.85-55.3,34.61-84.86,18.2a1.63,1.63,0,0,0-2.1.45,1.1,1.1,0,0,0,0,1.16c5.88,15.43,22.54,68.6-24,77.21" fill="#fff"/>
            </g>
          </g>
        </g>
      </g>
    </g>
  </g>
</svg>
