<svg xmlns="http://www.w3.org/2000/svg" width="100%" viewBox="0 0 170.03 170.03">
  <g id="Camada_2" data-name="Camada 2">
    <g id="Camada_1-2" data-name="Camada 1">
      <g id="Camada_2-2" data-name="Camada 2">
        <g id="Camada_1-2-2" data-name="Camada 1-2">
          <polyline id="_8" data-name="8" points="82.37 84.93 168.79 0 169.75 169.86 0 170.03 0 153.64" fill="#231f20"/>
          <path id="_1" data-name="1" d="M168.79,0A393.24,393.24,0,0,1,125,48.33c-17.73,16.54-21.62,17-42.62,36.6-19.38,18-23.25,24.31-45.1,45.6-15.72,15.31-29,27-37.27,34L.09,0" fill="#231f20"/>
          <path id="_2" data-name="2" d="M132.91,169.87h6.27c.69-14.26,12.32-7.76,12.32-7.76,6.5,5.9,11.33.76,11.33.76,3.73-3-.55-13.3-.55-13.3-1.66-7.1,2.35-9.81,2.35-9.81a6.39,6.39,0,0,1,5.39-.63v-9.79c-20.52,0-37.11,18.14-37.11,40.55Z" fill="#939598"/>
          <path id="_4" data-name="4" d="M71.87,77.17S142.62,81.87,153.36,0h-9.68c-.37,8.07-3.19,35.34-24.11,51.18,0,0-26.7,24.79-59,5.75l3.24-3.15a3.61,3.61,0,0,0,0-5,2.66,2.66,0,0,0-3.58-.23l-4.57,3.58S52.5,24.45,70,18.85l.2,1.27a3.93,3.93,0,0,0,3.64,3.44h.51a3,3,0,0,0,3-3V17.83s10-1.61,10.32,6.64c0,0-11.25,7.06-3,18.75,0,0,7.28,9.46,8,13.7,0,0,7.37-9.07,6.08-20,0,0,14,.6,16.22.4,0,0,2.76-11.88.74-15.92,0,0,11.43-.2,13.27-5.44,0,0-12.9-1.81-14.93-7.46,0,0-7.19-8.66-16.59,1.61,0,0-4.61,8.27-9.58,2.82A10.66,10.66,0,0,0,77.76,9.71V8.14a3.13,3.13,0,0,0-3-3.25h0a3.57,3.57,0,0,0-3.45,3.36l-.2,1.87S50.29,12.54,47.52,43.17L38.31,35.7l8.11-7.85s5-9.27-4.42-15.12c0,0-6.27-4.43-13.08,1.82l-4.24-4.23s-10.14-7.86-16.4.4C-1,23.82,10.49,31.78,10.49,31.78c-6.08,8.77.69,14.66.69,14.66,4.56,6.8,12.72,2.88,12.72,2.88l8.85-7.55,8.43,7.39C17.42,50,6.5,72.62,6.5,72.62H5.26a3.31,3.31,0,0,0-3,3.44,3.49,3.49,0,0,0,3.17,3.57H7.24c0,13,5.81,15.79,5.81,15.79-4.88,4.24-8,7.6-8.29,11.41-.22,3,1.34,8.25,2.9,10.72,2.84,4.5,3.18,15.57,3.18,15.57,4.63-1.22,6.94-15.21,6.94-15.21C21,120.41,34,119.35,34,119.35c.41-2.22-1.28-17-1.28-17,9.07,2.47,20.14-6,20.14-6C49.36,95.17,39.5,88.7,39.5,88.7c-9-9.54-20,2.22-20,2.22s-5.6-.45-6.15-10.72H18.8a2.57,2.57,0,0,0,2.46-2.58V76.45a2.41,2.41,0,0,0-2.18-2.6H14.93S29,47.7,49.07,60l-1.83,1.66a3.51,3.51,0,0,0,5,4.94h0L54.76,64C69.58,84.77,51,114.13,51,114.13c-16.64,29.68-50.91,28-50.91,28v11.51s72.11.73,71.83-76.47Z" fill="#fff"/>
          <path id="_5" data-name="5" d="M96.75,128.37s21.17-5.3,36.17,11.48h0a53.31,53.31,0,0,0-9,30h9c0-22.4,16.61-40.54,37.11-40.54v-9.87A43.72,43.72,0,0,0,139.53,132l-.36-.49s-12-7-12.72-33.86c0,0-9-2.71-14,5.3,0,0-7.46-5.14-14-2.72a22.33,22.33,0,0,0,4,13,18.2,18.2,0,0,0-5.68,15.09Z" fill="#ddd"/>
          <g id="_6" data-name="6">
            <path d="M158.39,55,170,63V30.28c-4.14,6-10.8,15.76-12.58,18.62-2.63,4.23,1,6,1,6Z" fill="#777"/>
            <path d="M121.9,89.46c2.76-1.71,4.15-.35,4.15-.35,5.53,7.55,11.75,3.82,11.75,3.82,3.32-2.57,4.7-1.22,4.7-1.22,9.26,8.46,13.13,1.22,13.13,1.22-4-11.49,4.61-11.49,4.61-11.49,10.6-.1,5,11.88,5,11.88-8.32,18.09,4.76,20,4.76,20V72l-4.15-5.6c-7-11.28-17.69-1.6-17.69-1.6-19.72,21.58-37.87,23.83-37.87,23.83C117.11,93.8,121.9,89.46,121.9,89.46Z" fill="#777"/>
            <path d="M66.82,165.46l5,4.39h35.43v-.11s-1.56-13.5-17.21-4.94c0,0-10.35,5.8-10.26-5.14,0,0,0-8.88,9.91-4.75,0,0,6.26-4-1-13.54,0,0-1.17-1.43,1-4.85,0,0,3.26-6.41-3.26-12.12,0,0-1.17-1.42.3-4.26,0,0,3.74-5-.7-12,0,0-2,18.74-20.6,39.07C65.43,147.21,57.08,158.21,66.82,165.46Z" fill="#777"/>
            <path d="M49.63,157.19c-2.41,1.78-10.4,8.32-15.7,12.67H61.62l-6.69-11.65s-1.59-3.77-5.29-1Z" fill="#777"/>
          </g>
          <path id="_7" data-name="7" d="M170,139.13a3.47,3.47,0,0,1,0,.7c0,.25,0,.41,0,.56,0,.71,0,4,0,4.2,0,2,0,3.68,0,8.1,0,7.81,0,10.3,0,12.19,0,.27,0,2,0,3,0,0,0,.88,0,1.37a2.67,2.67,0,0,0,0,.4c0,.12,0,.2,0,.25s-.16,0-.25,0a4.28,4.28,0,0,0-.62,0c-.33,0-.56,0-1,0-1.59,0-3.17,0-4.75,0-5.84.06-13.58-.3-18,0-1.15.07-2.31.05-3.46.09-2.05.07-2.32.11-2.61-.13-1.2-1-.12-4.66,1.66-6.84a5.94,5.94,0,0,1,4.88-2.38,8.69,8.69,0,0,1,2.41.3,11.67,11.67,0,0,1,2.93,1c1.68.85,1.65,1.43,3.1,2.16a8.18,8.18,0,0,0,3.15.81,7.35,7.35,0,0,0,5.09-1.82,5.48,5.48,0,0,0,1.39-2,6.12,6.12,0,0,0,.35-2.36,16.08,16.08,0,0,0-.4-3.68c-.7-3.12-1.25-3.28-1.74-5.8a12.62,12.62,0,0,1-.29-3.9,8,8,0,0,1,1.8-4.73,5.4,5.4,0,0,1,1.58-1.25,6,6,0,0,1,1.89-.55C168.13,138.71,169.82,138.6,170,139.13Z" fill="#666"/>
          <path id="_3" data-name="3" d="M71.87,77.17C72.15,154.35,0,153.64,0,153.64v10.91c87.78-17.83,82.37-79.62,82.37-79.62C147.5,75,164.66,20.17,168.79,0H153.36C142.62,81.87,71.87,77.17,71.87,77.17Z" fill="#666"/>
        </g>
      </g>
    </g>
  </g>
</svg>
