<svg xmlns="http://www.w3.org/2000/svg" width="100%" viewBox="0 0 170.04 170.04">
  <g id="Camada_2" data-name="Camada 2">
    <g id="Camada_1-2" data-name="Camada 1">
      <g id="_1" data-name="1">
        <polygon points="170.03 170.04 0.03 170.04 0.03 82.3 0.03 40.5 0.03 0.01 41.54 0.01 170.03 0.01 170.03 170.04" fill="#231f20"/>
      </g>
      <g id="_2" data-name="2">
        <path d="M112.06,0,98.26,12.16l-.62,4.95c-1.13,3.23-2.91,3.8-4.41,3.54A5,5,0,0,1,89.79,18c-1.29-2.43-3.87-7.18-4.23-6.89a31.6,31.6,0,0,0-2.19,4.17A1.28,1.28,0,0,1,81,15C77.27,3.19,68,.57,64.51,0h-6.7c-20.64,2.41-14.7,26.34-14.7,26.34,8.82,19.39,18.11,7.42,19.8,4.95a.21.21,0,0,0-.18-.34c-2,.27-9.91.77-10.78-7.42a12.5,12.5,0,0,1,5.26-11.62c3.6-2.42,11.53-1.46,14.34,7.06,0,0,7.33,13.56-9.35,28.74a4.06,4.06,0,0,0-1.11,3.92l2.21,9.22a1,1,0,0,1-1.2,1.26l-8.83-3a4.61,4.61,0,0,0-4.7,1.06C31,76.9,17.8,69.31,17.8,69.31,9.74,64.87,10,55.67,12.91,51.9a11.87,11.87,0,0,1,12.37-4.35c8,2.16,6.34,11.14,5.78,13.38,0,.2.13.37.3.27,2.68-1.57,16.07-10.48-2-23.36,0,0-21.51-9.55-28.23,10A31.38,31.38,0,0,0,0,52.32V62.53a24.67,24.67,0,0,0,1,3.88A23.58,23.58,0,0,0,12.44,79.5a1.55,1.55,0,0,1-.11,2.78,29.65,29.65,0,0,0-4.49,1.9c-.34.37,4,4,6.23,5.83a5.71,5.71,0,0,1,2.16,4.31c0,1.75-.81,3.7-4.2,4.53H7l-7,6.94v34.48L146.59,0Z" fill="#fff"/>
        <path d="M152.85,86a81.88,81.88,0,0,1,9.39,15.2c.92,1.93-.21,4.34-2.18,4.56-3.5.39-8,2.65-8.73,11.32,0,0,1,7.25,7.49,8.76a2.75,2.75,0,0,1,2,2.06A5.06,5.06,0,0,0,165.2,132c4.84.76,4.84,0,4.84,0V81.77s-1.93,5.75-7.74-1.21c0,0-13.31-19.77-42.8-22.08C102.94,56.88,89,64,80,70.4a52.23,52.23,0,0,0-19.89,28,46.63,46.63,0,0,0-2,15.77c0,32.82,24.19,47.35,24.19,47.35,6.36,6.35,1.11,8.47,1.11,8.47h45.89s.69,0,0-5.3c-.42-3.22-2.32-4.37-3.74-4.77a2.75,2.75,0,0,1-1.88-2.21,10.24,10.24,0,0,0-8-8.2c-7.93.84-10,5.72-10.34,9.56a2.84,2.84,0,0,1-4.16,2.38c-17.43-10-24.28-23-24.28-23a50.41,50.41,0,0,1-5.64-25.27,47.55,47.55,0,0,1,30.43-42.52,43.34,43.34,0,0,1,22-2.35c11.31,1.75,21.63,8.2,29.09,17.67Z" fill="#fff"/>
      </g>
    </g>
  </g>
</svg>
