<svg xmlns="http://www.w3.org/2000/svg" width="100%" viewBox="0 0 170.01 170.01">
  <g id="Camada_2" data-name="Camada 2">
    <g id="Camada_1-2" data-name="Camada 1">
      <g id="Camada_2-2" data-name="Camada 2">
        <g id="Camada_1-2-2" data-name="Camada 1-2">
          <g id="Camada_2-2-2" data-name="Camada 2-2">
            <g id="Camada_1-2-2-2" data-name="Camada 1-2-2">
              <g id="_1" data-name=" 1">
                <path d="M165.68,19.37c1.32-8-4.61-5-4.61-5-4.07,6.16-6.91,3.08-6.91,3.08-2.12-3.52,2.27-9.07,2.27-9.07,2.36-6-3-4.74-3-4.74-11.53,2.83-13-3.64-13-3.64H127.06L170,47V34.39C161.32,30.45,165.68,19.37,165.68,19.37Z" fill="#231f20"/>
                <path d="M0,170H.06V135.59c8.68,3.92,4.32,15,4.32,15-1.29,8,4.62,5,4.62,5,4-6.24,6.91-3.08,6.91-3.08,2.12,3.52-2.27,9.06-2.27,9.06-2.36,6,3,4.75,3,4.75,11.52-2.83,13,3.63,13,3.63h13.3L0,123Z" fill="#231f20"/>
                <path d="M42.93,0H31.42C27.83,9.5,17.69,4.74,17.69,4.74c-7.28-1.41-4.61,5-4.61,5,5.71,4.44,2.86,7.56,2.86,7.56-3.22,2.32-8.29-2.49-8.29-2.49-5.44-2.53-4.33,3.3-4.33,3.3C5.9,30.73,0,32.35,0,32.35V47Z" fill="#231f20"/>
                <path d="M127.07,170h11.51c3.59-9.51,13.73-4.73,13.73-4.73,7.28,1.41,4.61-5,4.61-5-5.71-4.44-2.86-7.57-2.86-7.57,3.22-2.32,8.29,2.49,8.29,2.49,5.44,2.58,4.33-3.3,4.33-3.3-2.58-12.59,3.32-14.2,3.32-14.2V123l-42.93,47Z" fill="#231f20"/>
                <path d="M118.82,25.12H51.18L25.12,53.63v62.71l26.06,28.5h67.63l26.06-28.5V53.63L118.81,25.12Z" fill="#231f20"/>
              </g>
              <g id="_2" data-name=" 2">
                <path d="M127.07,0H42.93L0,47v76l42.93,47h84.13L170,123V47L127.06,0Zm17.81,116.34-26.06,28.5H51.18L25.12,116.35V53.64L51.18,25.13h67.63l26.06,28.51v62.71Z" fill="#939598"/>
                <path d="M8.29,0H0V9.08A8.71,8.71,0,0,0,8.29,0Z" fill="#939598"/>
                <path d="M170,9.08V0h-8.29A8.71,8.71,0,0,0,170,9.08Z" fill="#939598"/>
                <path d="M170,160.9a8.69,8.69,0,0,0-8.29,9.07H170Z" fill="#939598"/>
                <path d="M.06,160.9V170H8.35A8.69,8.69,0,0,0,.06,160.9Z" fill="#939598"/>
              </g>
              <g id="_3" data-name=" 3">
                <ellipse cx="82.51" cy="86.03" rx="8.57" ry="8.62" fill="#fff"/>
                <path d="M124.63,14.84H45.37C33.45,27.9,26.76,35.21,14.83,48.24h0v73.5l30.54,33.41h79.25l30.54-33.41V48.24L124.62,14.83Zm20.25,101.51-26.06,28.5H51.18l-26.06-28.5V53.64L51.18,25.13h67.63l26.06,28.51v62.71Z" fill="#fff"/>
                <path d="M130.47,86s-1.24-6.35-9.88-5.06c0,0,1-4.77-2.66-6.89,0,0-3.89,11.08-12.54,7.79-6.36-2.41-4.84-11.51-4.84-11.51,3.32-10.26,14.51-4.23,14.51-4.23a6.28,6.28,0,0,0-.93-8.21c4.79-5.66,2.3-9,2.3-9s-5-3.54-10.26,4.11c0,0-2.35-4.17-6.33-2.82,0,0,4.58,11.29-3.84,15.21C89.24,68.58,85.14,61,85.14,61c-4.28-9.82,7.53-14.2,7.53-14.2-1-5.75-5.94-5.08-5.94-5.08-.28-7.7-4.22-8.21-4.22-8.21s-5.8,1.39-4.63,10.84c0,0-4.35-1.14-6.29,2.92,0,0,10.66,4.47,7.12,13.71-2.49,6.5-10.52,5.3-10.52,5.3-9.38-3.67-3.86-15.87-3.86-15.87a5.11,5.11,0,0,0-7.31.8l-.17.23c-5.18-5.25-8.26-2.52-8.26-2.52S45.36,54.4,52.3,60.13c0,0-3.81,2.58-2.57,6.93,0,0,11.51-5.48,13.9,4.2,0,0,1.38,8.32-4,11.88-9,4.68-13-8.21-13-8.21C41.38,76,42,81.4,42,81.4,35,81.71,34.54,86,34.54,86s1.24,6.34,9.88,5.07c0,0-1,4.75,2.66,6.87,0,0,4-11.4,12.54-7.79,8.22,3.48,4.84,11.51,4.84,11.51C61.14,111.94,50,105.91,50,105.91a6.28,6.28,0,0,0,.93,8.21c-4.79,5.67-2.3,9-2.3,9s5,3.53,10.26-4.1c0,0,2.35,4.16,6.33,2.81,0,0-4.58-11.29,3.84-15.21,8-3.78,10.86,4.39,10.86,4.39,4.28,9.82-7.53,14.21-7.53,14.21,1,5.75,5.94,5.07,5.94,5.07.28,7.71,4.22,8.21,4.22,8.21s5.8-1.36,4.63-10.81c0,0,4.35,1.14,6.29-2.9,0,0-10.26-4.3-7.12-13.73,2.7-8.13,10.52-5.38,10.52-5.38,9.38,3.64,3.86,15.88,3.86,15.88a5.1,5.1,0,0,0,7.31-.81h0a1.56,1.56,0,0,0,.16-.2c5.18,5.24,8.26,2.52,8.26,2.52s3.23-5.45-3.71-11.23c0,0,3.81-2.56,2.57-6.93,0,0-11.51,5.48-13.9-4.19,0,0-3.24-6.82,4-11.89,9-4.68,13,8.21,13,8.21,5.25-1.14,4.63-6.5,4.63-6.5,7-.3,7.46-4.62,7.46-4.62ZM97,99s-10.43-1.89-14,6.28c0,0-5-9.14-11.82-7.72,0,0-1-9.06-7.81-10.88A15.14,15.14,0,0,0,69.8,72.27s8.29,2.8,11.82-6c0,0,3.59,8.92,14.24,5.66,0,0-1.45,11.29,5.39,14.52,0,0-7.33,6-4.28,12.55Z" fill="#fff"/>
                <path d="M3.32,18.14s-1.11-5.82,4.33-3.3c0,0,5.07,4.81,8.29,2.49,0,0,2.86-3.08-2.86-7.56,0,0-2.67-6.45,4.61-5,0,0,10.14,4.77,13.73-4.72H8.29A8.71,8.71,0,0,1,0,9.08V32.35S5.9,30.73,3.32,18.14Z" fill="#fff"/>
                <path d="M161.71,0H140.44s1.47,6.46,13,3.63c0,0,5.37-1.21,3,4.74,0,0-4.39,5.55-2.27,9.07,0,0,2.86,3.13,6.91-3.08,0,0,5.9-2.92,4.61,5.05,0,0-4.36,11.09,4.32,15V9.08A8.71,8.71,0,0,1,161.72,0Z" fill="#fff"/>
                <path d="M166.68,151.83s1.11,5.88-4.33,3.3c0,0-5.07-4.81-8.29-2.49,0,0-2.86,3.08,2.86,7.57,0,0,2.67,6.45-4.61,5,0,0-10.14-4.77-13.73,4.73h23.13a8.71,8.71,0,0,1,8.29-9.07V170h0V137.64s-5.9,1.61-3.32,14.21Z" fill="#fff"/>
                <path d="M16.63,166.35s-5.37,1.21-3-4.75c0,0,4.39-5.54,2.27-9.06,0,0-2.86-3.13-6.91,3.08,0,0-5.9,2.91-4.61-5.05,0,0,4.36-11.1-4.32-15v25.3a8.72,8.72,0,0,1,8.29,9.08H29.62S28.15,163.52,16.63,166.35Z" fill="#fff"/>
              </g>
            </g>
          </g>
        </g>
      </g>
    </g>
  </g>
</svg>
