<svg xmlns="http://www.w3.org/2000/svg" width="100%" viewBox="0 0 170.01 170.01">
  <g id="Camada_2" data-name="Camada 2">
    <g id="Camada_1-2" data-name="Camada 1">
      <g id="_1" data-name="1">
        <polygon points="170 170 0 170 0 82.29 0 40.5 0 0.01 41.51 0.01 170 0.01 170 170" fill="#231f20"/>
      </g>
      <g id="_2" data-name="2">
        <g>
          <path d="M140.68,84.38A52.87,52.87,0,0,0,170,98.82v-31c-14.7,3.68-29.32,16.5-29.32,16.5Z" fill="#939598"/>
          <g>
            <path d="M84.09,142.63c-7.92,8-12.66,20.37-14.5,27.38h31.05C97.09,157.92,86.48,142.63,84.09,142.63Z" fill="#939598"/>
            <path d="M81.34,25.44C89.2,18.1,92.36,8,93.63,0H63.94l.72,2C69.81,13.93,81.34,25.44,81.34,25.44Z" fill="#939598"/>
          </g>
          <g>
            <path d="M72.83,84.71a2.88,2.88,0,0,1,.51-1L51.59,70.31c-14.33,2.47-27.72,14-27.72,14C35.39,95.31,45.34,97.71,51.32,98L73.91,85.8A6.65,6.65,0,0,1,72.83,84.71Z" fill="#939598"/>
            <path d="M81.78,74.91c.27,0,1.19.84,1.45.92s.54.17.79.27l12.1-24.21C92.57,39.8,83,26,80.61,26,72,34.7,68.35,43.24,66.93,49.7L80.1,76l.21-.1a10.19,10.19,0,0,1,1.46-1Z" fill="#939598"/>
            <path d="M81,92.78,68.33,118.37h0C73.48,130.26,85,141.77,85,141.77c8.32-7.78,11.41-18.7,12.52-26.83l-13.88-22a5.58,5.58,0,0,1-1.51.92c-.22,0-.81-.7-1.18-1Z" fill="#939598"/>
            <path d="M113.24,70.15,89.83,81.61c.07.14.14.29.22.48a21.41,21.41,0,0,1,1.33,2.36.93.93,0,0,1-.18.4l24.18,13.28c13.88-2.49,24.49-14.44,24.49-14.44a71.22,71.22,0,0,0-26.63-13.54Z" fill="#939598"/>
          </g>
          <path d="M21.65,83.69A73,73,0,0,0,0,71.65V97.46C12.46,94,21.65,83.69,21.65,83.69Z" fill="#939598"/>
        </g>
        <path d="M8,0,31.88,11.49A40.47,40.47,0,0,1,22,12.59c2.12,5.25,1.29,12.71,1.29,12.71-2,.5-9.67-1.31-9.67-1.31,1,2.41,0,9.17,0,9.17L0,10.45V46.62c6.85,4,20.37,12,23.44,14.67a.84.84,0,0,0,.55.21,1,1,0,0,0,.43-.12l10.8-6.17a1,1,0,0,0,.49-1L33.58,35.62a1,1,0,0,1,.92-1.14h.07L53,36H53a.89.89,0,0,0,.76-.45l7.07-11.41a1.08,1.08,0,0,0,0-1.17L45.05,0Z" fill="#939598"/>
        <path d="M169.78,8.81l-10.49,26.1a52.59,52.59,0,0,1-1-10.79c-4.79,2.32-11.61,1.41-11.61,1.41-.46-2.22,1.2-10.58,1.2-10.58-2.21,1.1-8.38,0-8.38,0L160.25,0H127.19c-3.64,7.5-10.94,22.29-13.4,25.65a1,1,0,0,0-.19.6,1.08,1.08,0,0,0,.11.47l5.63,11.82a.92.92,0,0,0,.93.54l17-2.33a1,1,0,0,1,1,1v.08L137,58V58a1,1,0,0,0,.41.83l10.42,7.74a.84.84,0,0,0,1.07,0l20.94-17.25V8.81Z" fill="#939598"/>
        <path d="M162,169.77l-23.85-11.48a40.47,40.47,0,0,1,9.86-1.1c-2.12-5.25-1.29-12.71-1.29-12.71,2-.5,9.67,1.31,9.67,1.31-1-2.41,0-9.16,0-9.16L170,159.34V123.17c-6.85-4-20.37-12-23.44-14.67a.83.83,0,0,0-.55-.2.85.85,0,0,0-.43.12l-10.8,6.16a1,1,0,0,0-.49,1l2.13,18.58a1,1,0,0,1-.92,1.14h-.07l-18.38-1.46H117a.88.88,0,0,0-.76.44l-7.07,11.41a1.08,1.08,0,0,0,0,1.17L125,169.78h37Z" fill="#939598"/>
        <path d="M.22,161l10.49-26.1a52.59,52.59,0,0,1,1,10.79c4.79-2.32,11.61-1.41,11.61-1.41.46,2.22-1.2,10.58-1.2,10.58,2.21-1.1,8.38,0,8.38,0L9.75,169.76H42.81c3.64-7.5,10.94-22.29,13.4-25.65a1,1,0,0,0,.19-.6,1.08,1.08,0,0,0-.11-.47l-5.63-11.82a.92.92,0,0,0-.93-.54l-17,2.33a1,1,0,0,1-1-1v-.08l1.34-20.11v-.08a1,1,0,0,0-.41-.83l-10.42-7.74a.84.84,0,0,0-1.07,0L.22,120.46Z" fill="#939598"/>
      </g>
      <g id="_3" data-name="3">
        <g>
          <path d="M115.38,98.12,91.2,84.84c-.38.58-1.24,1.48-1.36,1.78a9.66,9.66,0,0,1-2.41,3.8,7.64,7.64,0,0,1-3.19,2.06,4.14,4.14,0,0,0-.61.39l13.88,22A57.7,57.7,0,0,0,98,103.83a15.19,15.19,0,0,0,12.44,5.24c-.28-4.94-5.07-11-5.07-11a26.74,26.74,0,0,0,10,0Z" fill="#fff"/>
          <path d="M77,90a13,13,0,0,1-2.33-3.45,5.48,5.48,0,0,0-.72-.69L51.31,98a18.74,18.74,0,0,0,6-.57c-1.93,4.64-1.47,12.7-1.47,12.7,6.91,0,10.14-3.42,10.14-3.42-.39,3.65.62,7.69,2.35,11.69h0L80.94,92.78a.56.56,0,0,0-.24-.15A7,7,0,0,1,76.94,90Z" fill="#fff"/>
          <path d="M87.88,79a9.74,9.74,0,0,1,2,2.66l23.41-11.46a42,42,0,0,0-8.47-1.39C106.71,66.94,107,58,107,58c-4,.91-9.68,4.24-9.68,4.24a24.75,24.75,0,0,0-1.17-10.32L84,76.1A9.08,9.08,0,0,1,87.88,79Z" fill="#fff"/>
          <path d="M76.92,78a10.24,10.24,0,0,1,3.19-2L66.94,49.7a30,30,0,0,0-.6,11.19c-2.21-1.51-10.69-3.32-10.69-3.32.28,6.25,4.51,12.5,4.51,12.5a27.5,27.5,0,0,0-8.58.26L73.33,83.76a8.63,8.63,0,0,0,.64-1A12.43,12.43,0,0,1,76.91,78Z" fill="#fff"/>
        </g>
        <path d="M24,68.61a7,7,0,0,0,3.44-.92l10.8-6.16a8.36,8.36,0,0,0,3.93-8.21L40.88,42.13l11.61.92.24,0H53a7.25,7.25,0,0,0,6.14-3.57l7.07-11.4A8.72,8.72,0,0,0,66,18.66L53.19,0H45.06L60.83,22.93a1.1,1.1,0,0,1,0,1.18l-7.07,11.4A.93.93,0,0,1,53,36H53L34.58,34.49h-.07a1,1,0,0,0-.92,1.14l2.13,18.58a1,1,0,0,1-.49,1l-10.8,6.16a1,1,0,0,1-.43.12.82.82,0,0,1-.55-.21C20.37,58.61,6.85,50.62,0,46.62v8.06c10,5.86,17.72,10.7,19.38,12.16A7.09,7.09,0,0,0,24,68.61Z" fill="#fff"/>
        <path d="M0,8.28v2.17L13.64,33.17s1-6.76,0-9.17c0,0,7.65,1.81,9.67,1.31,0,0,.83-7.46-1.29-12.7a41.3,41.3,0,0,0,9.86-1.11L8,0H7.55C7.56,4.58,4.17,8.28,0,8.28Z" fill="#fff"/>
        <path d="M107.09,26.26a8.87,8.87,0,0,0,.84,3.77l5.63,11.81a7.29,7.29,0,0,0,7.5,4.3l10.23-1.4-.84,12.71,0,.26V58a8.34,8.34,0,0,0,3.26,6.72l10.42,7.73a6.89,6.89,0,0,0,8.63-.24l17-14V49.32L148.83,66.57a.85.85,0,0,1-1.07,0l-10.42-7.74a1.05,1.05,0,0,1-.41-.83V58l1.34-20.11v-.08a1,1,0,0,0-1-1l-17,2.33a.91.91,0,0,1-.93-.54l-5.63-11.82a1.12,1.12,0,0,1-.11-.47,1,1,0,0,1,.19-.6c2.45-3.36,9.76-18.15,13.4-25.65h-7.36C114.45,10.94,110,19.41,108.7,21.23a8.63,8.63,0,0,0-1.62,5Z" fill="#fff"/>
        <path d="M162.23,0h-2L139.49,14.94s6.17,1.1,8.38,0c0,0-1.66,8.37-1.2,10.58,0,0,6.82.91,11.61-1.41a53.27,53.27,0,0,0,1,10.78L169.78,8.8V8.27c-4.17,0-7.56-3.7-7.56-8.27Z" fill="#fff"/>
        <path d="M146,101.17a7,7,0,0,0-3.44.92l-10.8,6.16a8.36,8.36,0,0,0-3.93,8.21l1.28,11.19-11.61-.92-.24,0H117a7.25,7.25,0,0,0-6.14,3.57l-7.07,11.4a8.72,8.72,0,0,0,.22,9.44l12.83,18.64h8.13l-15.77-22.91a1.1,1.1,0,0,1,0-1.18l7.07-11.4a.93.93,0,0,1,.76-.45H117l18.38,1.47h.07a1,1,0,0,0,.92-1.14l-2.13-18.58a1,1,0,0,1,.49-1l10.8-6.16a1,1,0,0,1,.43-.12.82.82,0,0,1,.55.21c3.07,2.68,16.59,10.68,23.44,14.66v-8c-10-5.86-17.72-10.7-19.38-12.16a7.09,7.09,0,0,0-4.61-1.77Z" fill="#fff"/>
        <path d="M170,161.5v-2.17l-13.64-22.72s-1,6.76,0,9.17c0,0-7.65-1.81-9.67-1.31,0,0-.83,7.46,1.29,12.7a41.3,41.3,0,0,0-9.86,1.11L162,169.76h.48c0-4.56,3.38-8.27,7.56-8.27Z" fill="#fff"/>
        <path d="M62.91,143.52a8.87,8.87,0,0,0-.84-3.77l-5.63-11.81a7.29,7.29,0,0,0-7.5-4.3L38.71,125l.84-12.71,0-.26v-.33A8.34,8.34,0,0,0,36.31,105L25.89,97.29a6.89,6.89,0,0,0-8.63.24l-17,14v8.89l20.94-17.25a.85.85,0,0,1,1.07,0l10.42,7.74a1.05,1.05,0,0,1,.41.83v.08l-1.34,20.11V132a1,1,0,0,0,1,1l17-2.33a.91.91,0,0,1,.93.54L56.3,143a1.12,1.12,0,0,1,.11.47,1,1,0,0,1-.19.6c-2.45,3.36-9.76,18.15-13.4,25.65h7.36c5.36-10.92,9.78-19.39,11.11-21.21a8.61,8.61,0,0,0,1.62-5Z" fill="#fff"/>
        <path d="M22.13,154.84s1.66-8.37,1.2-10.58c0,0-6.82-.91-11.61,1.41a53.27,53.27,0,0,0-1-10.78L.22,161v.53c4.17,0,7.56,3.7,7.56,8.27h2l20.76-14.93s-6.17-1.1-8.38,0Z" fill="#fff"/>
      </g>
    </g>
  </g>
</svg>
