<svg xmlns="http://www.w3.org/2000/svg" width="100%" viewBox="0 0 170 170">
  <g id="Camada_2" data-name="Camada 2">
    <g id="Camada_1-2" data-name="Camada 1">
      <g id="_1" data-name="1">
        <polygon points="0.28 0 48.25 0 170 0 170 32.52 170 87.72 170 169.99 0.28 169.99 0.28 34.23 0.28 0" fill="#231f20"/>
      </g>
      <g id="_2" data-name="2">
        <path d="M129.63,79.7c2.33-4.25-1.86-9-1.86-9-8.36,16.92-21.9,14.83-29.38,12a14.45,14.45,0,0,0-1.75-5l1.53-1s14.92-7,22.09-28c0,0-19.17,2-27.11,25A13.71,13.71,0,0,0,90.5,72c-4.94-21,11.59-34.18,11.59-34.18-2.87-3-9-2-9-2C95,24.59,87.5,22.06,87.5,22.06c-10.09,4.58-7.37,16-7.37,16-4-2.46-8.53,2-8.53,2,16,8.83,14.05,23.13,11.36,31a12.83,12.83,0,0,0-4.74,1.85l-.94-1.61S70.62,55.5,50.73,47.93c0,0,1.9,20.24,23.64,28.63a13.91,13.91,0,0,0-1.57,2.8C52.94,84.57,40.43,67.12,40.43,67.12c-2.87,3-1.86,9.5-1.86,9.5-10.63-2.05-13,5.9-13,5.9,4.34,10.66,15.13,7.79,15.13,7.79-2.33,4.25,1.86,9,1.86,9,8.36-16.92,21.9-14.83,29.38-12a14.45,14.45,0,0,0,1.75,5l-1.53,1s-14.92,7-22.09,28c0,0,19.17-2,27.11-25a13.71,13.71,0,0,0,2.65,1.66c4.94,21-11.59,34.18-11.59,34.18,2.87,3,9,2,9,2C75.27,145.42,82.8,148,82.8,148c10.09-4.58,7.37-16,7.37-16,4,2.46,8.53-2,8.53-2-16-8.83-14-23.13-11.36-31a12.83,12.83,0,0,0,4.74-1.85L93,98.75s6.66,15.76,26.55,23.33c0,0-1.9-20.24-23.64-28.63a13.91,13.91,0,0,0,1.57-2.8c19.86-5.21,32.37,12.24,32.37,12.24,2.87-3,1.86-9.5,1.86-9.5,10.63,2,13-5.9,13-5.9C140.42,76.83,129.63,79.7,129.63,79.7Z" fill="#6d6e71"/>
      </g>
      <g id="_3" data-name="3">
        <g>
          <path d="M0,121.34.28,170V121.56L0,121.35Z" fill="#fff"/>
          <polygon points="170 169.99 170 169.69 123.92 169.99 170 169.99" fill="#fff"/>
          <polygon points="169.72 0 170 48.65 170 32.52 170 0 169.72 0" fill="#fff"/>
          <polygon points="0.28 0 0.28 0.3 46.36 0 0.28 0" fill="#fff"/>
          <path d="M13.25,166.75c8.89-19.46,28.42-14,28.42-14,0-4.28-5.05-8.11-5.05-8.11,8.89-6.48,5.27-13.9,5.27-13.9C31.69,126.42,26,136.5,26,136.5c-1.21-4.75-7.35-5-7.35-5,7.79,26.19-13.71,28.15-13.71,28.15,10.22-25-2.57-36.49-4.63-38.13V170H44.42c-10.64-10.09-31.16-3.24-31.16-3.24Z" fill="#fff"/>
          <path d="M166.93,156c-18.43-9.39-13.28-30-13.28-30-4.06,0-7.68,5.33-7.68,5.33-6.14-9.39-13.17-5.56-13.17-5.56-4.06,10.77,5.49,16.8,5.49,16.8-4.5,1.27-4.72,7.76-4.72,7.76,24.8-8.23,26.66,14.47,26.66,14.47-25.67-11.7-36.32,5.19-36.32,5.19l46.08-.3v-46.6c-9.55,11.24-3.07,32.91-3.07,32.91Z" fill="#fff"/>
          <path d="M125.59,0c10.64,10.08,31.16,3.24,31.16,3.24-8.89,19.46-28.42,14-28.42,14,0,4.28,5,8.1,5,8.1-8.89,6.49-5.27,13.91-5.27,13.91,10.2,4.29,15.91-5.8,15.91-5.8,1.21,4.76,7.35,5,7.35,5-7.79-26.19,13.71-28.15,13.71-28.15C154,37.42,170,48.67,170,48.67L169.71,0H125.59Z" fill="#fff"/>
          <path d="M3.35,14c18.43,9.39,13.28,30,13.28,30,4.06,0,7.68-5.33,7.68-5.33,6.14,9.39,13.17,5.56,13.17,5.56C41.54,33.45,32,27.42,32,27.42c4.5-1.27,4.72-7.76,4.72-7.76C11.91,27.89,10,5.18,10,5.18,35.71,16.88,46.36,0,46.36,0L.28.3V46.9C9.83,35.66,3.35,14,3.35,14Z" fill="#fff"/>
        </g>
        <ellipse cx="85.14" cy="84.99" rx="7.86" ry="8.3" fill="#fff"/>
      </g>
    </g>
  </g>
</svg>
