<svg xmlns="http://www.w3.org/2000/svg" width="100%" viewBox="0 0 170 170">
  <g id="Camada_2" data-name="Camada 2">
    <g id="Camada_1-2" data-name="Camada 1">
      <g id="_1" data-name="1">
        <polygon points="170 170 0 170 0 82.28 0 0 170 0 170 170" fill="#231f20"/>
      </g>
      <g id="_2" data-name="2">
        <rect x="51.97" y="26.49" width="65.6" height="25.61" fill="#939598"/>
        <polygon points="5.25 26.49 28.56 26.49 28.56 52.1 5.25 26.49" fill="#939598"/>
        <polygon points="51.88 26.49 28.56 26.49 28.56 0.89 51.88 26.49" fill="#939598"/>
        <rect x="51.97" y="116.41" width="65.6" height="25.61" fill="#939598"/>
        <g>
          <polygon points="164.2 142.07 140.88 142.07 140.88 116.46 164.2 142.07" fill="#939598"/>
          <polygon points="117.57 142.07 140.88 142.07 140.88 167.68 117.57 142.07" fill="#939598"/>
        </g>
        <rect x="117.57" y="52.11" width="23.4" height="64.36" fill="#939598"/>
        <rect x="28.56" y="52.1" width="23.4" height="64.36" fill="#939598"/>
        <g>
          <polygon points="140.98 0.89 140.98 26.39 117.57 26.39 140.98 0.89" fill="#939598"/>
          <polygon points="140.98 51.9 140.98 26.39 164.38 26.39 140.98 51.9" fill="#939598"/>
        </g>
        <g>
          <polygon points="28.56 116.46 28.56 141.97 5.16 141.97 28.56 116.46" fill="#939598"/>
          <polygon points="28.56 167.48 28.56 141.97 51.97 141.97 28.56 167.48" fill="#939598"/>
        </g>
      </g>
      <g id="_3" data-name="3">
        <path d="M84.16,52.1,52.61,84l31.92,32.45,32.4-33.09Zm0,38.9a6.35,6.35,0,1,1,5.78-6.32A6.07,6.07,0,0,1,84.16,91Z" fill="#6d6e71"/>
      </g>
      <g id="_4" data-name="4">
        <path d="M89.18,68.89c0,3-2.25,7-5,7s-5-4-5-7,4.2-12.16,5-12.16S89.18,65.84,89.18,68.89Z" fill="#fff"/>
        <path d="M79.13,100.49c0-3,2.25-7,5-7s5,4,5,7-4.2,12.16-5,12.16S79.13,103.53,79.13,100.49Z" fill="#fff"/>
        <path d="M70,77.88c2.78,0,6.41,2.46,6.41,5.51s-3.64,5.5-6.41,5.5-11.11-4.6-11.11-5.5S67.2,77.88,70,77.88Z" fill="#fff"/>
        <path d="M98.29,88.88c-2.78,0-6.41-2.46-6.41-5.51s3.64-5.5,6.41-5.5,11.11,4.6,11.11,5.5S101.07,88.88,98.29,88.88Z" fill="#fff"/>
      </g>
    </g>
  </g>
</svg>
