<svg xmlns="http://www.w3.org/2000/svg" width="100%" viewBox="0 0 170 170">
  <g id="Camada_2" data-name="Camada 2">
    <g id="Camada_1-2" data-name="Camada 1">
      <g id="_1" data-name="1">
        <path d="M155,23.25c0,1.08-.07,2.21-.11,3.45L135.81,46.18h34v104H170V0h-.42l.24,39.5L155,23.25Z" fill="#231f20"/>
        <path d="M27.49,156.8l-3.62-.15L36,170H46.35V137.54Z" fill="#231f20"/>
        <polygon points="0.24 169.99 0.24 169.99 0.24 169.9 0.24 169.99" fill="#231f20"/>
        <path d="M13.92,145.75c.05-1.45.1-3,.15-4.73l32.28-33V46.19h60.58l34.53-35.27,2.37.09L133.78,0H34.47c0,20.71-15.32,37.51-34.23,37.51v93.25l13.68,15Z" fill="#231f20"/>
        <path d="M13.85,0H.24V14.92C7.75,14.92,13.85,8.25,13.85,0Z" fill="#231f20"/>
      </g>
      <g id="_3" data-name="3">
        <polygon points="169.83 169.99 169.83 169.99 91.13 169.99 169.83 169.99" fill="#939598"/>
        <polygon points="91.13 169.99 68.34 169.99 68.34 169.99 91.13 169.99" fill="#939598"/>
        <polygon points="68.34 67.15 68.34 85.59 86.4 67.15 68.34 67.15" fill="#939598"/>
        <path d="M68.34,115.09V170H91.13c0-11,8.13-20.47,18.13-19.87,4.94.31,23.58,8.37,23.58,8.37C140,163,141,159.6,141,159.6c3.13-4.23-2.49-8.16-2.49-8.16-4.94-3.2-14.45-8.77-18.8-11.29a15.2,15.2,0,0,1-5.06-4.59,14.94,14.94,0,0,1-2-13c1.84-6.29,7.08-11,13.09-11.4,16.36-1.22,28.33,28.79,28.33,28.79,2.3,4.13,6.07,2.72,6.07,2.72,5.61-2.62-.09-11.4-.09-11.4-8.83-12.81-8.37-20.95-8.37-20.95,0-11,8.12-19.86,18.13-19.86V67.14H115.28L68.34,115.07Z" fill="#939598"/>
        <polygon points="36.05 169.99 0.25 169.99 0.25 169.99 36.05 169.99" fill="#939598"/>
        <polygon points="0 130.5 0.24 169.9 0.24 130.76 0 130.5" fill="#939598"/>
        <path d="M13.58,156.26c.13-4.19.23-7.09.34-10.52l-13.68-15V170H36L23.87,156.65l-10.3-.39Z" fill="#939598"/>
        <polygon points="169.58 0.01 133.78 0.01 133.78 0.01 169.58 0.01" fill="#939598"/>
        <path d="M155.37,11.46c-.15,4.7-.25,7.78-.38,11.79L169.83,39.5,169.59,0h-35.8l10.05,11,11.54.45Z" fill="#939598"/>
        <path d="M169.83,170H170V150.13h-.17Z" fill="#939598"/>
        <path d="M169.83,150.13c-10,0-18.13,8.9-18.13,19.87h18.13V150.13Z" fill="#939598"/>
      </g>
      <g id="_2" data-name="2">
        <polygon points="68.34 169.99 46.35 169.99 46.35 169.99 68.34 169.99" fill="#fff"/>
        <polygon points="151.7 169.99 128.41 169.99 91.13 169.99 91.13 169.99 169.83 169.99 157.67 169.99 151.7 169.99" fill="#fff"/>
        <path d="M151.7,110.32s-.46,8.16,8.37,21c0,0,5.7,8.77.09,11.4,0,0-3.77,1.41-6.07-2.72,0,0-12-30-28.33-28.79-6,.45-11.26,5.11-13.09,11.4a14.94,14.94,0,0,0,2,13,15.3,15.3,0,0,0,5.06,4.59c4.35,2.53,13.86,8.09,18.8,11.29,0,0,5.62,3.93,2.49,8.16,0,0-1,3.43-8.19-1.1,0,0-18.64-8.07-23.58-8.38-10-.61-18.13,8.9-18.13,19.87H151.7c0-11,8.12-19.87,18.13-19.87h0V90.47c-10,0-18.13,8.9-18.13,19.86Z" fill="#fff"/>
        <path d="M34.47,0H13.85c0,8.23-6.09,14.91-13.61,14.91v22.6C19.14,37.52,34.47,20.73,34.47,0Z" fill="#fff"/>
        <path d="M23.88,156.66l3.62.15,18.86-19.26V170h22V115.08l46.94-47.93h54.54v-21h-34L154.89,26.7c0-1.26.08-2.37.11-3.45.13-4,.23-7.09.38-11.79-4.59-.17-7.49-.28-11.54-.45l-2.37-.09L106.94,46.19H46.36v61.87L14.08,141c-.06,1.76-.11,3.28-.15,4.73-.11,3.42-.2,6.32-.34,10.52l10.3.39Zm44.46-89.5H86.4L68.34,85.6Z" fill="#fff"/>
      </g>
    </g>
  </g>
</svg>
