<svg xmlns="http://www.w3.org/2000/svg" width="100%" viewBox="0 0 169.76 169.76">
  <g id="Camada_2" data-name="Camada 2">
    <g id="Camada_1-2" data-name="Camada 1">
      <g id="_1" data-name="1">
        <path d="M154.76,23.22c0,1.07-.07,2.2-.11,3.44L135.58,46.11h34v103.8h.17V0h-.42l.24,39.44L154.75,23.22Z" fill="#231f20"/>
        <path d="M27.26,156.58l-3.62-.15,12.17,13.32H46.12v-32.4Z" fill="#231f20"/>
        <path d="M13.68,145.54c.05-1.45.1-3,.15-4.73L46.11,107.9V46.12h60.58l34.53-35.21,2.37.09L133.54,0H34.23C34.23,20.68,18.91,37.45,0,37.45v93.13l13.68,15Z" fill="#231f20"/>
      </g>
      <g id="_2" data-name="2">
        <path d="M34.23,0H0V37.46C18.9,37.46,34.23,20.7,34.23,0Z" fill="#939598"/>
        <polygon points="169.59 169.75 169.59 169.75 90.89 169.75 169.59 169.75" fill="#939598"/>
        <polygon points="90.89 169.75 68.1 169.75 68.1 169.75 90.89 169.75" fill="#939598"/>
        <polygon points="68.1 67.06 68.1 85.48 86.16 67.06 68.1 67.06" fill="#939598"/>
        <path d="M68.1,114.92v54.83H90.89c0-10.95,8.13-20.44,18.13-19.84,4.94.31,23.58,8.36,23.58,8.36,7.18,4.53,8.19,1.11,8.19,1.11,3.13-4.23-2.49-8.16-2.49-8.16-4.94-3.19-14.45-8.75-18.8-11.27a15.07,15.07,0,0,1-5.06-4.58,14.9,14.9,0,0,1-2-13c1.84-6.28,7.08-10.94,13.09-11.39,16.36-1.21,28.33,28.76,28.33,28.76,2.3,4.12,6.07,2.71,6.07,2.71,5.61-2.61-.09-11.38-.09-11.38-8.83-12.79-8.37-20.92-8.37-20.92,0-11,8.12-19.84,18.13-19.84V67.05H115L68.1,114.91Z" fill="#939598"/>
        <polygon points="35.81 169.75 0.01 169.75 0.01 169.75 35.81 169.75" fill="#939598"/>
        <path d="M13.34,156c.13-4.18.23-7.08.34-10.5L0,130.57v39.18H35.8L23.63,156.43,13.33,156Z" fill="#939598"/>
        <polygon points="169.35 0.01 133.55 0.01 133.55 0.01 169.35 0.01" fill="#939598"/>
        <path d="M155.14,11.45c-.15,4.69-.25,7.76-.38,11.77l14.83,16.24L169.35,0h-35.8l10,11,11.54.45Z" fill="#939598"/>
        <path d="M169.59,169.75h.17V149.92h-.17Z" fill="#939598"/>
        <path d="M169.59,149.91c-10,0-18.13,8.89-18.13,19.84h18.13V149.91Z" fill="#939598"/>
      </g>
      <g id="_3" data-name="3">
        <polygon points="68.1 169.75 46.11 169.75 46.11 169.75 68.1 169.75" fill="#fff"/>
        <polygon points="151.46 169.75 128.17 169.75 90.89 169.75 90.89 169.75 169.59 169.75 157.43 169.75 151.46 169.75" fill="#fff"/>
        <path d="M151.46,110.17s-.46,8.14,8.37,20.92c0,0,5.7,8.76.09,11.38,0,0-3.77,1.41-6.07-2.71,0,0-12-30-28.33-28.76-6,.45-11.26,5.11-13.09,11.39a14.9,14.9,0,0,0,2,13A15.3,15.3,0,0,0,119.5,140c4.35,2.52,13.86,8.07,18.8,11.27,0,0,5.62,3.92,2.49,8.15,0,0-1,3.42-8.19-1.11,0,0-18.64-8.05-23.58-8.36-10-.61-18.13,8.89-18.13,19.84h60.57c0-10.95,8.11-19.84,18.13-19.84h0V90.35c-10,0-18.13,8.88-18.13,19.83Z" fill="#fff"/>
        <path d="M23.64,156.43l3.62.15,18.86-19.23v32.4h22V114.92l46.94-47.86h54.54V46.12h-34l19.07-19.44c0-1.26.08-2.38.11-3.45.13-4,.23-7.08.38-11.77L143.6,11c-.75,0-1.52-.06-2.37-.09L106.7,46.13H46.12v61.78L13.84,140.82c-.06,1.76-.11,3.28-.15,4.73-.11,3.41-.2,6.31-.34,10.5l10.3.39ZM68.1,67.06H86.16L68.1,85.48Z" fill="#fff"/>
      </g>
    </g>
  </g>
</svg>
