<svg xmlns="http://www.w3.org/2000/svg" width="100%" viewBox="0 0 170 170">
  <g id="Camada_2" data-name="Camada 2">
    <g id="Camada_1-2" data-name="Camada 1">
      <g id="_1" data-name="1">
        <polygon points="0 0 48.04 0 170 0 170 32.54 170 87.72 170 170 0 170 0 34.24 0 0" fill="#231f20"/>
      </g>
      <g id="_2" data-name="2">
        <path d="M155.76,65.5A5.24,5.24,0,0,0,147,61.85l-10.72,9.92s-2.55,4.43-7.18,3.18L108.22,40.12l-5.28-8.83-9,5.27-52.65,31a38.35,38.35,0,0,0-13.53,53.08l8.79,14.39,5.53,9.06,9-5.8,74.58-48.06c2.36.22,5.69,1.67,9,7l15.05,25.14a3.73,3.73,0,0,0,6.92-1.9l-.9-55ZM45.45,129.84l-8.79-14.39a28.26,28.26,0,0,1,10-39.17l52.65-31,21.54,36L45.44,129.85Z" fill="#fff"/>
      </g>
    </g>
  </g>
</svg>
