<svg xmlns="http://www.w3.org/2000/svg" width="100%" viewBox="0 0 170 170">
  <g id="Camada_2" data-name="Camada 2">
    <g id="Camada_1-2" data-name="Camada 1">
      <g id="_1" data-name="1">
        <polygon points="170 170 0 170 0 82.28 0 0 170 0 170 170" fill="#231f20"/>
      </g>
      <g id="_2" data-name="2">
        <polygon points="128.17 11.74 128.17 16.28 128.17 20.82 122.18 20.82 122.18 26.87 112.5 26.87 112.5 17.8 98.41 17.8 98.41 31.7 106.98 31.7 106.98 38.36 97.02 38.36 97.02 44.72 88.73 44.72 88.73 71.74 97.02 71.74 97.02 64.98 106.98 64.98 106.98 56.82 114.85 56.82 114.85 49.86 122.18 49.86 122.18 43.05 126.97 43.05 126.97 35.64 134.16 35.64 134.16 31.7 139.55 31.7 139.55 24.75 146.5 24.75 146.5 16.28 150.93 16.28 150.93 11.74 128.17 11.74" fill="#939598"/>
        <polygon points="43.31 162.39 43.31 157.85 43.31 153.32 49.3 153.32 49.3 147.27 58.97 147.27 58.97 156.34 73.07 156.34 73.07 142.42 64.5 142.42 64.5 135.77 74.45 135.77 74.45 129.42 82.74 129.42 82.74 102.39 74.45 102.39 74.45 109.15 64.5 109.15 64.5 117.32 56.62 117.32 56.62 124.28 49.3 124.28 49.3 131.08 44.5 131.08 44.5 138.49 37.32 138.49 37.32 142.42 31.93 142.42 31.93 149.38 24.97 149.38 24.97 157.85 20.55 157.85 20.55 162.39 43.31 162.39" fill="#939598"/>
        <polygon points="62.56 75.68 62.56 67.81 55.77 67.81 55.77 60.15 48.01 60.15 48.01 51.12 41.74 51.12 41.74 46.83 34.18 46.83 34.18 40.79 27.73 40.79 27.73 32.71 20.55 32.71 20.55 26.06 13.91 26.06 13.91 21.22 7.88 21.22 7.88 44.21 12.99 44.21 13.91 44.21 16.77 44.21 16.77 51.12 24.6 51.12 24.6 60.15 13.91 60.15 13.91 73.45 29.21 73.45 29.21 64.79 30.5 64.79 34.18 64.79 36.12 64.79 36.12 74.26 42.06 74.26 42.06 75.68 42.06 77.49 42.06 83.24 69.47 83.24 69.47 75.68 62.56 75.68" fill="#939598"/>
        <polygon points="108.45 98.77 108.45 106.63 115.25 106.63 115.25 114.3 123.01 114.3 123.01 123.31 129.27 123.31 129.27 127.6 136.83 127.6 136.83 133.66 143.28 133.66 143.28 141.72 150.47 141.72 150.47 148.38 157.1 148.38 157.1 153.21 163.14 153.21 163.14 130.22 158.02 130.22 157.1 130.22 154.24 130.22 154.24 123.31 146.41 123.31 146.41 114.3 157.1 114.3 157.1 100.98 141.81 100.98 141.81 109.66 140.52 109.66 136.83 109.66 134.89 109.66 134.89 100.18 128.95 100.18 128.95 98.77 128.95 96.95 128.95 91.2 101.54 91.2 101.54 98.77 108.45 98.77" fill="#939598"/>
      </g>
      <g id="_3" data-name="3">
        <rect x="74.63" y="76.33" width="20.46" height="19.05" fill="#fff"/>
        <path d="M159.29,19v7h-7.15v6.2h-5.08V40h-6.63v6.5H133.1v5.75H127v7.87h-7.14v7.06H110.2v8.47h-7.46v7.56H127V75.68h7.19V64H145v9.24h14.3V57.57h-7.81v-7.4h5.25v-5.9h7.6V19h-5Z" fill="#fff"/>
        <path d="M12.92,154.33v-7h7.15v-6.21h5.08v-7.87h6.63v-6.5h7.33v-5.74h6.13v-7.87h7.14v-7.06H62V97.65h7.46V90.09H45.24v7.56H38.05v11.7H27.22V100.1H12.92v15.65h7.81v7.41H15.48v5.9H7.88v25.25h5Z" fill="#fff"/>
        <polygon points="73.53 46.07 71.73 46.07 71.73 37.6 61.37 37.6 61.37 33.52 61.37 30.5 70.21 30.5 70.21 14.47 55.56 14.47 55.56 24.3 47.55 24.3 47.55 15.9 41.88 15.9 41.88 14.47 41.88 11.74 41.88 7.66 16.03 7.66 16.03 14.47 24.74 14.47 24.74 20.06 29.72 20.06 29.72 26.56 37.73 26.56 37.73 33.52 43.26 33.52 43.26 39.57 50.86 39.57 50.86 46.07 57.36 46.07 57.36 53.03 65.65 53.03 65.65 60.59 73.53 60.59 73.53 69.37 81.41 69.37 81.41 60.59 81.41 53.03 81.41 49.55 81.41 46.07 73.53 46.07" fill="#fff"/>
        <polygon points="96.61 128.26 98.41 128.26 98.41 136.73 108.77 136.73 108.77 140.81 108.77 143.83 99.93 143.83 99.93 159.87 114.58 159.87 114.58 150.04 122.59 150.04 122.59 158.43 128.26 158.43 128.26 159.87 128.26 162.59 128.26 166.67 154.11 166.67 154.11 159.87 145.4 159.87 145.4 154.27 140.42 154.27 140.42 147.77 132.41 147.77 132.41 140.81 126.88 140.81 126.88 134.76 119.28 134.76 119.28 128.26 112.78 128.26 112.78 121.3 104.49 121.3 104.49 113.74 96.61 113.74 96.61 104.96 88.73 104.96 88.73 113.74 88.73 121.3 88.73 124.78 88.73 128.26 96.61 128.26" fill="#fff"/>
      </g>
    </g>
  </g>
</svg>
