<svg xmlns="http://www.w3.org/2000/svg" width="100%" viewBox="0 0 170.01 170.01">
  <g id="Camada_2" data-name="Camada 2">
    <g id="Camada_1-2" data-name="Camada 1">
      <g id="_1" data-name="1">
        <polygon points="170 169.98 0 169.98 0 82.28 0 0.01 170 0.01 170 169.98" fill="#231f20"/>
      </g>
      <g id="_2" data-name="2">
        <polygon points="83.34 0.01 0 82.28 83.34 170.01 170 85 83.34 0.01" fill="#939598"/>
      </g>
      <g id="_3" data-name="3">
        <path d="M31.79,0H0V32.75c.3,0,.6,0,.91,0C18,32.79,31.79,18.11,31.79,0Z" fill="#6d6e71"/>
        <path d="M167.71,32.8c.77,0,1.53-.06,2.29-.12V0H135.45c0,18.11,14.44,32.79,32.26,32.79Z" fill="#6d6e71"/>
        <path d="M0,138.48V170H29.94C29.61,152.53,16.35,138.48,0,138.48Z" fill="#6d6e71"/>
        <path d="M170,137.29c-.44,0-.88-.07-1.32-.07-17.27,0-31.28,14.67-31.29,32.77H170V137.3Z" fill="#6d6e71"/>
      </g>
      <g id="_4" data-name="4">
        <ellipse cx="83.34" cy="82.73" rx="31.1" ry="30.04" fill="#fff"/>
      </g>
    </g>
  </g>
</svg>
