<svg xmlns="http://www.w3.org/2000/svg" width="100%" viewBox="0 0 170 170">
  <g id="Camada_2" data-name="Camada 2">
    <g id="Camada_1-2" data-name="Camada 1">
      <g id="_1" data-name="1">
        <polygon points="170 169.99 0 169.99 0 82.28 0 40.49 0 0.01 41.51 0.01 170 0.01 170 169.99" fill="#231f20"/>
      </g>
      <g id="_2" data-name="2">
        <g>
          <path d="M44.5,85C44.5,62.36,24.58,44,0,44v82c24.58,0,44.5-18.35,44.5-41Z" fill="#939598"/>
          <path d="M125.5,85c0,22.64,19.92,41,44.5,41V44C145.42,44,125.5,62.36,125.5,85Z" fill="#939598"/>
          <path d="M85,129c-24.58,0-44.5,18.35-44.5,41h89c0-22.64-19.93-41-44.5-41Z" fill="#939598"/>
          <path d="M85,41c24.58,0,44.5-18.35,44.5-41h-89C40.5,22.64,60.42,41,85,41Z" fill="#939598"/>
        </g>
      </g>
      <g id="_3" data-name="3">
        <g>
          <polygon points="0 0.01 0 40.49 0 45.23 41.33 0.01 0 0.01" fill="#fff"/>
          <polygon points="170 0.01 128.67 0.01 170 45.23 170 0.01" fill="#fff"/>
          <polygon points="170 124.78 128.67 169.99 170 169.99 170 124.78" fill="#fff"/>
          <polygon points="0 169.99 41.33 169.99 0 124.78 0 169.99" fill="#fff"/>
        </g>
        <polygon points="85 39.87 126.25 85.01 85 130.14 43.75 85.01 85 39.87" fill="#fff"/>
      </g>
    </g>
  </g>
</svg>
