<svg xmlns="http://www.w3.org/2000/svg" width="100%" viewBox="0 0 170 170">
  <g id="Camada_2" data-name="Camada 2">
    <g id="Camada_1-2" data-name="Camada 1">
      <g id="_1" data-name="1">
        <polygon points="170 170 0 170 0 82.28 0 40.48 0 0 41.51 0 170 0 170 170" fill="#231f20"/>
      </g>
      <g id="_2" data-name="2">
        <path d="M115,110.38a17.4,17.4,0,0,1,13.74,6.67c.13-.14.28-.25.4-.4a17,17,0,0,0,3.3-13.94,24.57,24.57,0,0,0-5.36-11.44l-6.69-8.12c-5-4.34-2.68-11.27-.82-15.05,1.34-2.71,2.65-5.45,3.8-8.27l2.8-6.87a25.27,25.27,0,0,0,2-8.57c.29-8-3.22-12.59-6.85-15.19a17.58,17.58,0,0,0-15-2.45c-10.21,2.77-13.85,12-15,16.48-.71,2.67-1.42,5.34-2.24,8L83.73,68.32c-5.25,11.35-15.62,2.57-15.62,2.57L62.2,66.52a30.48,30.48,0,0,0-9.94-5.06l-.44-.12C38.46,57.85,26.3,70.67,28.57,85.5a25.75,25.75,0,0,0,1.25,5.06A65.06,65.06,0,0,0,34,100.39c6.08,7.25,1.93,19.36,1.93,19.36-5.25,17.54,10.78,20.57,10.78,20.57,12.58,3.33,25.85-16.79,25.85-16.79,3.77-7.47,9-6.69,12.21-5.24A13.85,13.85,0,0,1,88.59,121a61.85,61.85,0,0,1,5,5.5A14.08,14.08,0,0,0,97.76,130a17.6,17.6,0,0,1-.19-2.44A17.33,17.33,0,0,1,115,110.36Zm-31.32-3.09c-18.17-2.8-22.6,12.26-28.75,20.65s-10.16,4.62-10.16,4.62c-5.67-3.89-1.45-11.49-1.45-11.49,2.94-4.15.6-13.66-.34-17a13.17,13.17,0,0,0-.78-2.07c-1.51-3.14-6-12.41-6.34-13.8A17.62,17.62,0,0,1,35,84.73C33.39,74.48,41.8,65.61,51,68l.3.08a.11.11,0,0,1,.07,0,16.4,16.4,0,0,1,9,7.27c10.17,16,22.4,15.49,22.4,15.49C97,92.44,98.24,61.44,98.31,52.22a26.78,26.78,0,0,1,1-7.46c2.45-8.19,7.74-10,11.65-10.07a10.2,10.2,0,0,1,8.59,4.39c7.27,10.5-7.42,25.19-7.42,25.19C101.89,74,107.42,85,107.42,85c5.11,13.59.76,19.34.76,19.34-5.25,10.81-24.53,3-24.53,3Z" fill="#939598"/>
      </g>
      <g id="_3" data-name="3">
        <ellipse cx="39.22" cy="29.07" rx="17.41" ry="17.25" fill="#fff"/>
        <path d="M128.71,117.07a17.43,17.43,0,0,0-31.15,10.57,17.85,17.85,0,0,0,.19,2.44,17.42,17.42,0,0,0,34.64-2.44,17,17,0,0,0-3.67-10.56Z" fill="#fff"/>
        <path d="M108.18,104.34s4.35-5.75-.76-19.34c0,0-5.53-11.06,4.7-20.74,0,0,14.69-14.7,7.42-25.19A10.18,10.18,0,0,0,111,34.68c-3.91.09-9.2,1.88-11.65,10.07a26.68,26.68,0,0,0-1,7.46C98.24,61.43,97,92.43,82.82,90.89c0,0-12.23.46-22.4-15.49a16.46,16.46,0,0,0-9-7.28l-.07,0L51,68C41.8,65.6,33.39,74.47,35,84.72a18.52,18.52,0,0,0,.86,3.49c.37,1.39,4.83,10.64,6.34,13.8a12.14,12.14,0,0,1,.78,2.06c.95,3.32,3.28,12.84.34,17,0,0-4.22,7.61,1.45,11.49,0,0,4,3.79,10.16-4.62s10.57-23.44,28.75-20.65c0,0,19.28,7.87,24.53-3Z" fill="#fff"/>
      </g>
    </g>
  </g>
</svg>
