<svg xmlns="http://www.w3.org/2000/svg" width="100%" viewBox="0 0 170.01 170.01">
  <g id="Camada_2" data-name="Camada 2">
    <g id="Camada_1-2" data-name="Camada 1">
      <g id="_1" data-name="1">
        <path d="M149.31,161.43c3.32-6-2.76-6.56-2.76-6.56l-3.87-.8-.46-12,10.78-1,1,4.34c3.13,6,7,4,7,4,4-7.06,7.22-5.41,9-3.47V22.83c-1.77,1.94-5,3.59-9-3.47,0,0-3.87-2-7,4l-1,4.33-10.78-1,.46-12,3.87-.81s6.08-.6,2.76-6.55c0,0-5.88-3.53-5.38-7.36H26.11c.5,3.83-5.38,7.36-5.38,7.36-3.32,6,2.76,6.55,2.76,6.55l3.87.81.46,12L17,27.73,16,23.4c-3.13-6-7-4-7-4-4,7.12-7.27,5.38-9,3.42V146c1.76-2,5-3.7,9,3.43,0,0,3.87,2,7-4l1-4.34,10.78,1-.46,12-3.87.81s-6.08.6-2.76,6.55c0,0,7.09,4.24,5.07,8.47l-.66.11H144.9l-.66-.11c-2-4.23,5.07-8.47,5.07-8.47Z" fill="#231f20"/>
        <path d="M114.05,56.15c-6.73-25.21-28.24-23.44-28.24-23.44C56.37,35.44,56.65,57.06,56.65,57.06,29.84,66.75,33.29,88.68,33.29,88.68c0,22.68,25.43,25.71,25.43,25.71,6.63,23.6,28.61,22.84,28.61,22.84,25.15,1.82,27.92-23.59,27.92-23.59,23.63-2.27,21.56-27.73,21.56-27.73C137,62.57,114.05,56.15,114.05,56.15ZM80.24,52.92c-.09-6.27,3.63-13.07,4.56-14.67a.24.24,0,0,1,.42,0C88.86,44.39,89.09,53,89.09,53c.63,9.46-2.78,12.69-3.8,13.43a.45.45,0,0,1-.54,0C80.1,62.85,80.24,52.92,80.24,52.92Zm-14,31.41c-3,5.31-12,5.81-12,5.81-5.71.52-12.17-3.09-13.68-4a.29.29,0,0,1,0-.46c5.35-4.38,13.21-5.2,13.21-5.2,8.58-1.31,11.75,2.2,12.5,3.26a.57.57,0,0,1,0,.59Zm19.27,48.45a.24.24,0,0,1-.42,0c-3.88-5.95-4.46-14.57-4.46-14.57-1-9.42,2.27-12.8,3.25-13.6a.45.45,0,0,1,.54,0c4.79,3.37,5,13.3,5,13.3C89.84,124.16,86.4,131.14,85.54,132.78ZM99.49,96.85a2.31,2.31,0,0,1-2.2,2.41H72.12a2.31,2.31,0,0,1-2.2-2.41V72.48a2.31,2.31,0,0,1,2.2-2.41H97.29a2.32,2.32,0,0,1,2.2,2.41ZM129,85.42C123.46,89.53,115.57,90,115.57,90c-8.63.9-11.65-2.77-12.35-3.87a.55.55,0,0,1,0-.59c3.19-5.16,12.25-5.23,12.25-5.23C121.2,80,127.5,84,129,84.94a.29.29,0,0,1,0,.46Z" fill="#231f20"/>
      </g>
      <g id="_2" data-name="2">
        <path d="M163.18,86.37c.21-35.22-34.34-44.89-34.34-44.89-10.15-38-42.62-35.4-42.62-35.4-44.43,4.11-44,36.75-44,36.75C1.75,57.44,7,90.54,7,90.54c0,34.24,38.38,38.8,38.38,38.8,10,35.61,43.17,34.47,43.17,34.47,38,2.73,42.13-35.62,42.13-35.62,35.67-3.42,32.54-41.83,32.54-41.83Zm-36.84,37.76s-3.78,34.74-38.16,32.26c0,0-30,1-39.11-31.23,0,0-34.76-4.13-34.76-35.15,0,0-4.72-30,31.93-43.21,0,0-.38-29.57,39.86-33.3,0,0,29.41-2.4,38.6,32.05,0,0,31.3,8.76,31.11,40.66,0,0,2.83,34.81-29.47,37.9Z" fill="#939598"/>
        <path d="M119.26,51C111.33,21.24,86,23.32,86,23.32,51.23,26.53,51.56,52,51.56,52,19.94,63.45,24,89.32,24,89.32c0,26.76,30,30.33,30,30.33,7.82,27.83,33.74,26.93,33.74,26.93,29.67,2.14,32.93-27.83,32.93-27.83,27.87-2.68,25.43-32.7,25.43-32.7C146.26,58.53,119.26,51,119.26,51Zm-4,62.65S112.49,139,87.33,137.22c0,0-22,.76-28.61-22.84,0,0-25.43-3-25.43-25.71,0,0-3.46-21.94,23.36-31.62,0,0-.28-21.63,29.16-24.35,0,0,21.51-1.76,28.24,23.44,0,0,22.9,6.41,22.76,29.76C136.81,85.9,138.88,111.35,115.25,113.63Z" fill="#939598"/>
        <path d="M97.29,70.07H72.12a2.32,2.32,0,0,0-2.2,2.41V96.85a2.31,2.31,0,0,0,2.2,2.41H97.29a2.31,2.31,0,0,0,2.2-2.41V72.48A2.31,2.31,0,0,0,97.29,70.07ZM84.7,93.67c-4.27,0-7.74-3.8-7.74-8.47s3.47-8.47,7.74-8.47,7.74,3.79,7.74,8.47S89,93.67,84.7,93.67Z" fill="#939598"/>
      </g>
      <g id="_3" data-name="3">
        <path d="M9,19.35s3.87-2,7,4l1,4.33,10.78-1-.46-12-3.87-.81s-6.08-.6-2.76-6.56c0,0,5.88-3.52,5.38-7.35H0V22.78c1.76,2,5,3.7,9-3.42Z" fill="#fff"/>
        <path d="M149.31,7.35c3.32,6-2.76,6.56-2.76,6.56l-3.87.81-.46,12,10.78,1,1-4.33c3.13-6.06,7-4,7-4,4,7.06,7.22,5.4,9,3.47V0H143.92c-.5,3.83,5.38,7.35,5.38,7.35Z" fill="#fff"/>
        <path d="M20.73,161.43c-3.32-6,2.76-6.56,2.76-6.56l3.87-.8.46-12-10.78-1-1,4.34c-3.13,6-7,4-7,4-4-7.13-7.27-5.39-9-3.43v24H25.14l.66-.11c2-4.23-5.07-8.47-5.07-8.47Z" fill="#fff"/>
        <path d="M170,146c-1.77-1.94-5-3.59-9,3.47,0,0-3.87,2-7-4l-1-4.34-10.78,1,.46,12,3.87.81s6.08.61,2.76,6.56c0,0-7.09,4.23-5.07,8.47l.66.11H170V146Z" fill="#fff"/>
        <path d="M124.71,45.57c-9.19-34.46-38.6-32-38.6-32C45.87,17.25,46.25,46.82,46.25,46.82,9.6,60.05,14.32,90,14.32,90c0,31,34.76,35.15,34.76,35.15,9.07,32.26,39.11,31.23,39.11,31.23,34.38,2.48,38.16-32.25,38.16-32.25,32.31-3.1,29.47-37.9,29.47-37.9.19-31.9-31.11-40.67-31.11-40.67Zm-4,73.2s-3.26,30-32.93,27.83c0,0-25.92.9-33.74-26.93,0,0-30-3.57-30-30.33,0,0-4.08-25.87,27.55-37.28,0,0-.33-25.51,34.39-28.72,0,0,25.37-2.08,33.31,27.66,0,0,27,7.56,26.84,35.08,0,0,2.45,30-25.43,32.7Z" fill="#fff"/>
        <ellipse cx="84.7" cy="85.19" rx="7.74" ry="8.47" fill="#fff"/>
        <path d="M84.74,66.45a.44.44,0,0,0,.54,0c1-.74,4.43-4,3.8-13.43,0,0-.23-8.63-3.87-14.77a.23.23,0,0,0-.42,0c-.93,1.6-4.65,8.4-4.56,14.67C80.23,52.92,80.09,62.84,84.74,66.45Z" fill="#fff"/>
        <path d="M115.47,80.29s-9.06.07-12.25,5.23a.59.59,0,0,0,0,.6c.7,1.09,3.72,4.76,12.35,3.86,0,0,7.88-.44,13.41-4.55a.29.29,0,0,0,0-.46c-1.48-1-7.78-4.91-13.51-4.67Z" fill="#fff"/>
        <path d="M84.46,104.61a.44.44,0,0,0-.54,0c-1,.79-4.26,4.18-3.25,13.61,0,0,.58,8.61,4.46,14.56a.24.24,0,0,0,.42,0c.86-1.64,4.3-8.62,4-14.88C89.51,117.91,89.25,108,84.46,104.61Z" fill="#fff"/>
        <path d="M53.74,80.48s-7.86.82-13.21,5.2a.29.29,0,0,0,0,.46c1.52.91,8,4.52,13.68,4,0,0,9.05-.5,12-5.81a.57.57,0,0,0,0-.59c-.75-1.06-3.91-4.57-12.5-3.26Z" fill="#fff"/>
      </g>
    </g>
  </g>
</svg>
