<svg xmlns="http://www.w3.org/2000/svg" width="170" height="170" viewBox="0 0 170 170">
  <g id="Camada_2" data-name="Camada 2">
    <g id="Camada_1-2" data-name="Camada 1">
      <path id="_1" data-name="1" d="M86.42,75.59c9.09,0,18.2.43,27.25-.15,5.85-.37,7,2.61,6.57,8-.36,4.53,2.33,10.39-5.66,10.59-18.16.47-36.3,1.83-54.46,2.6C52,97,47,87.57,51.07,79.71c.84-1.6,3.81-2.45,5.82-2.5,9.84-.25,19.69-.11,29.53-.11Z"/>
      <path id="_2" data-name="2" d="M0,170V0H170V170ZM86,75.59V77.1c-9.85,0-19.69-.14-29.53.11-2,.05-5,.9-5.82,2.5-4.13,7.86,1,17.26,9.05,16.92C77.87,95.86,96,94.5,114.17,94c8-.2,5.29-6.06,5.66-10.59.43-5.39-.72-8.37-6.57-8C104.2,76,95.1,75.59,86,75.59Z" fill="#fff"/>
    </g>
  </g>
</svg>
