<svg xmlns="http://www.w3.org/2000/svg" width="170.02" height="170.02" viewBox="0 0 170.02 170.02">
  <g id="Camada_2" data-name="Camada 2">
    <g id="Camada_1-2" data-name="Camada 1">
      <path id="_2" data-name=" 2" d="M16.79,31.11c1.48.74,2.2.87,2.62,1.35,9.78,11,21.64,18.7,33.8,26,4.41,2.63,8.21,6.44,12.46,9.39,1.33.92,3.24.82,4.89,1.19-.5-1.7-.51-4.11-1.56-5C63.36,59.46,57.8,54.51,51.6,51a125.59,125.59,0,0,1-32.75-27.5c-1-1.11-1.77-2.48-3.59-5.07,3.92.21,6.51.22,9.1.5,14.92,1.62,28.93-1.47,40.15-12.54C69.91,1,75.2-.3,81.71.3a11.13,11.13,0,0,0,2,0,28,28,0,0,1,23.54,7.59c8.81,7.88,19.5,11.62,31.28,9.21a25.11,25.11,0,0,1,3.68,0C140.65,18.9,140,20,139,20.72c-8.17,6-14,14.15-19.49,23-4.6,7.43-10,14.25-15,21.46-.81,1.2-.84,3-1.23,4.58,1.33-.31,3.15-.11,3.91-1,5.59-6.59,11.52-13,16.31-20.26,5.84-8.88,11.73-17.63,20-23.93,1.78-1.34,4.13-1.78,6.21-2.64.53,2.22,1.5,4.44,1.51,6.6.07,10.6,2,20.56,7.68,29.35,1.27,2,2.36,4.53,4.13,5.55,7.24,4,7.27,10.91,6.74,18.21a15.45,15.45,0,0,0,0,3.33c.9,6.5-1.08,11.41-5.53,16a44.56,44.56,0,0,0-12.43,34.41,9.21,9.21,0,0,1-.37,2.32c-8.19-6.77-16.12-13.8-24.5-20.11s-17.2-12-27-18.74c1.13,2.65,1.46,5,2.68,6,5.74,4.73,11.26,10.28,17.71,13.38,13.62,6.52,23,17.76,31.36,30.43.6.89.52,2.31.75,3.48a13.09,13.09,0,0,1-3.73.75c-9.56-1-19.32-3-28.39,1.75-6.3,3.33-12,8-18,11.8a20.72,20.72,0,0,1-7.51,3.33c-4,.55-8.1,0-12.14.17-7.46.33-13.62-.63-20-7-5.47-5.55-14.46-6.94-22-9.75-2.72-1-5.82-.78-9.32-1.2.67-1.47.78-2.31,1.22-2.63,11-7.9,17.83-20,25.75-31,3.56-4.93,7.72-9.37,11.34-14.17,1-1.27,1.2-3.21,1.78-4.86-1.62.54-3.78.51-4.75,1.69-5.41,6.44-10.88,13-15.77,20C43,132.27,34.8,142.86,22.36,148.28c-4.69,2.05-5.71,1.53-5.06-3.77,2.08-18.16-3.62-33-15.52-45.31A7.48,7.48,0,0,1,.2,94.93C0,92,.2,89,.11,86.05-.27,78.15,0,71.55,7,65.56s10-16,9.81-26.39C16.76,36.81,16.79,34.44,16.79,31.11Zm66,120.55,2-.07c3.83-9.58,8.15-19,11.28-28.85,1.27-4,.46-9.12-.31-13.54-.82-4.71-3.88-7.77-8.54-8-4.82-.29-9.46.55-11.26,6.2-1.28,4-2.83,8.88-2,12.74,2.29,10.69,5.79,21,8.82,31.52ZM87,20.57l-1.67.22c-1.53,4.2-3.18,8.42-4.63,12.7-2.26,6.74-4.8,13.42-6.45,20.34a14.29,14.29,0,0,0,5.57,14.43c4.54,2.9,11,2.65,14.86-.58,3.65-3,5.06-8.94,3.37-15.19-.94-3.54-2-7-3.27-10.47C92.3,34.81,89.66,27.71,87,20.57ZM19.57,84,20,86.18c2.86,1,5.69,2,8.6,2.83,8.48,2.33,16.91,5,25.5,6.66C62.2,97.2,69.8,91.23,70,84.3A12.15,12.15,0,0,0,58.12,71.86,11.82,11.82,0,0,0,55,72.2C42.93,75.06,31.36,80,19.57,84Zm132.56,2.22c-.76-.92-1-1.53-1.4-1.67C140,80.9,129.31,76.76,118.39,73.86c-3.67-1-8.49.23-12,2.15-4.25,2.19-6.07,7.74-4.08,12.4a9,9,0,0,0,4.08,4.48c3.43,1.83,8,3,11.59,2.22,11.35-2.31,22.51-5.73,34.13-8.85Zm-57.8-.33a9,9,0,0,0-8.71-9.29h-.1c-4.94-.25-9.14,3.91-9.4,9.33-.09,5.23,3.68,9.55,8.44,9.7,5.14.14,9.61-4.31,9.74-9.69Z"/>
      <g id="_1" data-name=" 1">
        <path d="M.4,63.38V38.13C.4,27.61.52,17.05.4,6.58.32,2.8,2,.77,5.05.73,24.15.58,43.26.66,62.38.66L63,2c-2,1.7-3.79,3.74-6,5.06-16,9.74-32,10-47.86-.73-1.59-1.11-3.81-1-5.75-1.46a50.31,50.31,0,0,0,1.27,6.65C6.49,16.9,9.1,22,10.29,27.49,13.41,41.13,9.92,53.12,2.1,63.7Z"/>
        <path d="M169.52,63c-5.59-3-8-7.77-10-12.47C153.76,37,156.13,24.3,163.4,12.29a17.6,17.6,0,0,0,2-3.19,36,36,0,0,0,1-5,20.7,20.7,0,0,0-4.72,0A21.87,21.87,0,0,0,157.53,6C141.07,13.15,124.85,14.3,109,4.11a48.75,48.75,0,0,1-4-3.45h26.73c10.27,0,20.54-.07,30.82,0,5.9,0,7.08,1.42,7.08,7.83C169.51,26.21,169.52,44,169.52,63Z"/>
        <path d="M63,169.53H7.16c1.71-6.61,11.13-11,26.52-12.67C45.41,155.62,59.17,161.3,63,169.53Z"/>
        <path d="M.29,164V105c7.49,7.44,11.65,15.6,12.85,25.09,1.77,13.62-4,24.41-11.6,34.29Z"/>
        <path d="M169.61,103.34v62C154.28,156.76,154,114.9,169.61,103.34Z"/>
        <path d="M107.31,169.26c14.17-15.54,43.51-16.18,54,0Z"/>
      </g>
    </g>
  </g>
</svg>
