<svg xmlns="http://www.w3.org/2000/svg" width="100%" viewBox="0 0 170 170">
  <g id="Camada_2" data-name="Camada 2">
    <g id="Camada_1-2" data-name="Camada 1">
      <g id="_1" data-name="1">
        <path d="M0,0V170H170V0ZM85,149.38c-36,0-65.24-28.88-65.24-64.37S49,20.62,85,20.62,150.24,49.5,150.24,85,121,149.37,85,149.37Z" fill="#3c3c3c"/>
      </g>
      <path id="_4" data-name="4" d="M85,25.35C51.42,25.35,24.09,52.11,24.09,85S51.41,144.63,85,144.63,145.91,117.88,145.91,85,118.59,25.35,85,25.35ZM117.69,85l-5.61,3.36c-8.93,5.34-19.09,13.38-24,23.15L85,117.69s-.06,0-.08,0l-3.07-6.14C77,101.78,66.14,93.75,57.21,88.4L51.6,85s0-.07,0-.09l5.61-3.36C66.14,76.25,77,68.22,81.89,58.45L85,52.31s.06,0,.08,0l3.07,6.14c4.88,9.77,15,17.8,24,23.15L117.69,85s0,.07,0,.09Z" fill="#131800"/>
      <g id="_2" data-name="2">
        <path d="M88.11,58.45,85,52.31s-.06,0-.08,0l-3.07,6.14C77,68.22,66.14,76.25,57.21,81.59L51.6,85s0,.07,0,.09l5.61,3.36c8.93,5.34,19.8,13.38,24.68,23.15L85,117.69s.06,0,.08,0l3.07-6.14c4.88-9.77,15-17.8,24-23.15L117.69,85s0-.07,0-.09l-5.61-3.36c-8.93-5.34-19.09-13.38-24-23.15Z" fill="#fff"/>
      </g>
      <g id="_3" data-name="3">
        <path d="M85,20.62C49,20.62,19.76,49.5,19.76,85S49,149.37,85,149.37,150.24,120.49,150.24,85,121,20.62,85,20.62Zm0,124c-33.58,0-60.91-26.75-60.91-59.64S51.41,25.35,85,25.35,145.91,52.11,145.91,85,118.59,144.63,85,144.63Z" fill="#939598"/>
      </g>
    </g>
  </g>
</svg>
