<svg xmlns="http://www.w3.org/2000/svg" width="100%" viewBox="0 0 170 170">
  <g id="Camada_2" data-name="Camada 2">
    <g id="Camada_1-2" data-name="Camada 1">
      <g id="_1" data-name="1">
        <polygon points="170 170 0 170 0 82.28 0 40.48 0 0 170 0 170 170" fill="#231f20"/>
      </g>
      <g id="_2" data-name="2">
        <path d="M58,58.59,85,85H54.06L27.27,58.94h0Z" fill="#939598"/>
        <path d="M111.38,58.45,85,85V53.66l26.66-27.42h0C111.78,39.65,111.26,45,111.38,58.45Z" fill="#939598"/>
        <path d="M58.28,111.93,85,85v31.34l-27,27.8h0c-.12-13.41.4-18.8.28-32.21Z" fill="#939598"/>
        <path d="M111.08,111.22,85,85h30.94l25.83,25.87h0Z" fill="#939598"/>
      </g>
      <g id="_3" data-name="3">
        <g>
          <path d="M58,58.59,85,85V53.66L57.67,26.39h0c-.12,13.4.4,18.8.28,32.2Z" fill="#fff"/>
          <path d="M111.38,58.45,85,85h30.94l26.13-26.2h0Z" fill="#fff"/>
          <path d="M58.28,111.93,85,85H54.06L27.59,111.58h0Z" fill="#fff"/>
          <path d="M111.08,111.22,85,85v31.34l26.36,27.09h0C111.48,130,111,124.63,111.08,111.22Z" fill="#fff"/>
        </g>
      </g>
    </g>
  </g>
</svg>
