<svg xmlns="http://www.w3.org/2000/svg" width="100%" viewBox="0 0 170.01 168.01">
  <g id="Camada_2" data-name="Camada 2">
    <g id="Camada_1-2" data-name="Camada 1">
      <g id="_1" data-name="1">
        <path d="M20.1,133.43c.51-1.9,1-3.78,1.51-5.68,3.41-8.17,13.9-27.23,38.28-29.61h0c.08,0,12.75-.79,23.68-.37,1.7.06,3.36.16,4.91.29a.4.4,0,0,0,.4-.62c-.42-.56-1.1-1.45-2-2.54l-.06.06h0l7.82-6.83h0l0,0c.76.77,1.52,1.54,2.33,2.31a.44.44,0,0,0,.76-.32c-.14-.94-.32-2.41-.49-4.26-1.3-14.24-1.7-52.38,28.63-67.21l0,0c.56-.2,15-5.71,22.88-14A19.58,19.58,0,0,0,151.29,0H.44A.42.42,0,0,0,0,.4V155.19c2.85-.86,6.26-3.78,6.26-3.78C8.66,149.7,18.7,142.08,20.1,133.43Z" fill="#231f20"/>
        <path d="M145.56,147.53a.42.42,0,0,0-.64.46c1.68,4.4,6.44,19.55-6.84,22h31.47a.42.42,0,0,0,.44-.4V142a.35.35,0,0,1-.18.3c-1.71,1.1-15.81,9.86-24.26,5.18Z" fill="#231f20"/>
      </g>
      <g id="_3" data-name="3">
        <path d="M.44,170H138.09c13.28-2.48,8.52-17.62,6.84-22a.42.42,0,0,1,.64-.46c8.45,4.68,22.55-4.08,24.27-5.18a.38.38,0,0,0,.17-.3V.42a.42.42,0,0,0-.44-.4H151.3a19.58,19.58,0,0,1-2.55,4.7c-7.86,8.24-22.33,13.76-22.88,14l-.05,0c-30.33,14.83-29.93,53-28.62,67.21.16,1.86.35,3.32.48,4.26a.44.44,0,0,1-.76.32c-.8-.77-1.57-1.54-2.33-2.31l0,0h0L86.8,95h0l.07-.06c.93,1.1,1.6,2,2,2.54a.4.4,0,0,1-.39.62c-1.57-.13-3.22-.22-4.92-.29-10.93-.42-23.6.36-23.68.37h0C35.52,100.54,25,119.6,21.62,127.77c-.5,1.9-1,3.78-1.51,5.68-1.4,8.65-11.44,16.27-13.84,18,0,0-3.42,2.92-6.26,3.78v14.4a.42.42,0,0,0,.44.4Z" fill="#939598"/>
      </g>
      <g id="_2" data-name="2">
        <path d="M82.58,169s1.92-11,15.59-11.59a.41.41,0,0,0,.42-.4c-.13-1.85-.46-9.88,1.92-13.81a.46.46,0,0,1,.8.07c1.11,3,5.43,13.63,12.33,15.81a.45.45,0,0,0,.54-.22c.74-1.57,4.43-8.17,13.85-7.87a.4.4,0,0,1,.34.63c-1.79,2.28-7.33,10.61,3.76,14.18l.13,0c1,0,13.71-.08,6.74-15.48h0c0-.06-19.38-38.53-70.43-36.08l-.1,0c-1.59.47-43.17,13-14.56,40.38a.36.36,0,0,1-.11.63c-1.88.85-8.65,3.16-15.9-3.63a.46.46,0,0,0-.51-.08c-2.14,1.06-16.13,7.71-24.07,4.14l-7-3.71a.38.38,0,0,1-.06-.66c2.4-1.71,12.44-9.33,13.84-18l1.51-5.68C25,119.56,35.52,100.5,59.9,98.12h0c.1,0,17-1.05,28.61-.08a.4.4,0,0,0,.39-.62C85,92.1,57.8,58.54,10.88,78.66c-.34.15-.72-.14-.6-.47C12,73.43,21.42,50.45,47.72,53c.4,0,.66-.38.39-.65L35.89,39.74a.47.47,0,0,0-.68,0l-8,9.53-.08.07c-.57.41-7,4.91-13.12-1.69L11.79,45.6s-7-5.69-.07-13a.37.37,0,0,0,0-.48l-6-8.18S.59,17.54,8.46,9.66c0,0,6.65-7.88,14.37-.69l7.25,6.63a.47.47,0,0,0,.63,0l3-2.76s6.63-6.48,11.92,1.34l.06.07,4,3.7s6.78,5.79-2.09,11.31l-.06,0L41,35.36a.38.38,0,0,0,0,.56L53.69,47.53a.44.44,0,0,0,.74-.34c-.89-5.48-2.76-27.72,22.94-37.27.37-.14.74.22.55.55-3.44,6.21-20.51,42,19,80a.44.44,0,0,0,.75-.32C96.48,82,91.49,35.41,125.79,18.65l0,0c.57-.2,15.39-5.44,22.89-14a.44.44,0,0,1,.56-.08c1.91,1.16,11.14,7.57,4.23,18.62a.37.37,0,0,0,.05.47c2.07,2,17.76,17.87,4.7,31.88a.43.43,0,0,1-.69,0C155.14,52.36,139,33,121.31,53.71l0,.07c-.8,1.53-26.14,51.08,30.37,86.59l.1,0c.86.26,12.11,3.35,11.67-8.63a.41.41,0,0,0,0-.18c-.57-.91-6.14-9.27-14.31-1.18a.45.45,0,0,1-.75-.18c-.5-2.37-1.08-9.71,10-13.15.36-.11.45-.4.19-.64-2.13-2-10.94-10.11-16.93-13.76a.38.38,0,0,1,.09-.71c2.45-.74,9.77-2.68,15.88-1.28.36.08.61-.1.54-.44-.56-2.77-2-14.15,11.42-16.18a.43.43,0,0,1,.52.39V142a.35.35,0,0,1-.18.3c-1.71,1.1-15.81,9.86-24.26,5.18a.42.42,0,0,0-.64.46c1.68,4.4,6.44,19.55-6.84,22" fill="#fff"/>
      </g>
    </g>
  </g>
</svg>
