<svg xmlns="http://www.w3.org/2000/svg" width="100%" viewBox="0 0 170 170">
  <g id="Camada_2" data-name="Camada 2">
    <g id="Camada_1-2" data-name="Camada 1">
      <g id="_1" data-name="1">
        <polygon points="155.3 53.93 155.3 25.03 170 25.03 170 0 142.4 0 142.4 14.45 113.01 14.45 113.01 0 55.98 0 55.98 14.45 26.58 14.45 26.58 0 12.35 0 0 0 0 25.03 14.7 25.03 14.7 53.93 0 53.93 0 82.28 0 111.14 14.7 111.14 14.7 140.05 0 140.05 0 170 26.58 170 26.58 155.55 55.98 155.55 55.98 170 113.01 170 113.01 155.55 142.4 155.55 142.4 170 170 170 170 140.05 155.3 140.05 155.3 111.14 170 111.14 170 53.93 155.3 53.93" fill="#231f20"/>
      </g>
      <g id="_2" data-name="2">
        <rect x="73.8" y="28.74" width="21.84" height="21.48" fill="#939598"/>
        <rect x="30.36" y="71.4" width="21.84" height="21.48" fill="#939598"/>
        <rect x="116.79" y="71.4" width="21.84" height="21.48" fill="#939598"/>
        <rect x="73.8" y="114.85" width="21.84" height="21.48" fill="#939598"/>
        <rect y="28.74" width="10.92" height="21.48" fill="#939598"/>
        <polygon points="30.36 0 30.36 10.74 52.2 10.74 52.2 0 41.65 0 30.36 0" fill="#939598"/>
        <rect x="116.79" width="21.84" height="10.74" fill="#939598"/>
        <rect x="30.36" y="159.26" width="21.84" height="10.74" fill="#939598"/>
        <rect x="116.79" y="159.26" width="21.84" height="10.74" fill="#939598"/>
        <rect x="159.08" y="28.74" width="10.92" height="21.48" fill="#939598"/>
        <rect y="114.85" width="10.92" height="21.48" fill="#939598"/>
        <rect x="159.08" y="114.85" width="10.92" height="21.48" fill="#939598"/>
      </g>
      <g id="_3" data-name="3">
        <g>
          <polygon points="42.79 84.8 34.72 92.87 50.62 92.87 42.79 84.8" fill="none"/>
          <polygon points="54.22 96.59 31.01 96.59 14.7 112.93 14.7 137.92 28.21 155.55 53.21 155.55 70.03 138.5 70.03 112.9 54.22 96.59" fill="none"/>
          <polygon points="73.8 116.8 73.8 134.67 82.54 125.81 73.8 116.8" fill="none"/>
          <polygon points="75.84 136.34 92.74 136.34 84.36 127.69 75.84 136.34" fill="none"/>
          <polygon points="30.36 71.98 30.36 92.87 31.02 92.87 40.97 82.92 30.36 71.98" fill="none"/>
          <polygon points="55.98 67.88 70.03 53.82 70.03 28.57 55.62 14.45 28.56 14.45 14.7 26.79 14.7 52.06 29.84 67.68 55.98 67.68 55.98 67.88" fill="none"/>
          <polygon points="52.2 71.67 52.2 71.4 33.44 71.4 42.81 81.06 52.2 71.67" fill="none"/>
          <polygon points="127 80.74 136.22 71.4 117.46 71.4 127 80.74" fill="none"/>
          <polygon points="138.63 92.15 138.63 72.69 128.87 82.58 138.63 92.15" fill="none"/>
          <polygon points="113.04 14.45 99.42 28.09 99.42 53.71 113.67 67.68 139.88 67.68 155.3 52.05 155.3 26.79 141.47 14.45 113.04 14.45" fill="none"/>
          <polygon points="86.2 125.83 95.64 135.57 95.64 116.27 86.2 125.83" fill="none"/>
          <polygon points="99.42 112.44 99.42 139.47 115.01 155.55 140.71 155.55 155.3 138.02 155.3 112.16 139.41 96.59 115.05 96.59 99.42 112.44" fill="none"/>
          <polygon points="118.71 92.87 135.62 92.87 127.02 84.44 118.71 92.87" fill="none"/>
          <polygon points="82.77 41.06 73.8 32.27 73.8 50.03 82.77 41.06" fill="none"/>
          <polygon points="84.38 123.95 93.35 114.85 75.57 114.85 84.38 123.95" fill="none"/>
          <polygon points="55.98 71.59 55.98 94.64 71.96 111.14 97.01 111.14 113.01 94.93 113.01 70.71 95.9 53.93 73.61 53.93 55.98 71.59" fill="none"/>
          <polygon points="84.64 42.89 77.32 50.22 92.11 50.22 84.64 42.89" fill="none"/>
          <polygon points="95.64 50.01 95.64 31.88 86.49 41.04 95.64 50.01" fill="none"/>
          <polygon points="125.15 82.61 116.79 74.41 116.79 91.1 125.15 82.61" fill="none"/>
          <polygon points="95.07 28.74 73.95 28.74 84.62 39.2 95.07 28.74" fill="none"/>
          <polygon points="44.64 82.94 52.2 90.75 52.2 75.38 44.64 82.94" fill="none"/>
          <polygon points="28.21 155.55 14.7 137.92 14.7 140.05 13.06 140.05 26.58 157.68 26.58 155.55 28.21 155.55" fill="#fff"/>
          <polygon points="14.7 26.79 28.56 14.45 26.58 14.45 26.58 12.68 12.72 25.03 14.7 25.03 14.7 26.79" fill="#fff"/>
          <polygon points="141.47 14.45 155.3 26.79 155.3 25.03 157.28 25.03 142.4 11.75 142.4 14.45 141.47 14.45" fill="#fff"/>
          <polygon points="29.84 67.68 14.7 52.06 14.7 53.93 12.87 53.93 26.58 68.08 26.58 67.68 29.84 67.68" fill="#fff"/>
          <polygon points="52.2 9.26 51.36 10.28 51.83 10.74 52.2 10.74 52.2 9.26" fill="#fff"/>
          <polygon points="55.62 14.45 70.03 28.57 70.03 25.03 70.16 25.03 55.98 11.12 55.98 14.45 55.62 14.45" fill="#fff"/>
          <polygon points="99.42 28.09 113.04 14.45 113.01 14.45 113.01 10.78 98.78 25.03 99.42 25.03 99.42 28.09" fill="#fff"/>
          <polygon points="155.3 52.05 139.88 67.68 142.4 67.68 142.4 68.86 157.12 53.93 155.3 53.93 155.3 52.05" fill="#fff"/>
          <polygon points="49.54 159.26 49.53 159.28 51.23 161.28 52.2 160.3 52.2 159.26 49.54 159.26" fill="#fff"/>
          <polygon points="113.01 94.93 97.01 111.14 99.42 111.14 99.42 112.44 115.05 96.59 113.01 96.59 113.01 94.93" fill="#fff"/>
          <polygon points="70.03 138.5 53.21 155.55 55.98 155.55 55.98 156.47 72.18 140.05 70.03 140.05 70.03 138.5" fill="#fff"/>
          <polygon points="95.9 53.93 113.01 70.71 113.01 67.68 113.67 67.68 99.42 53.71 99.42 53.93 95.9 53.93" fill="#fff"/>
          <polygon points="115.01 155.55 99.42 139.47 99.42 140.05 96.34 140.05 113.01 157.25 113.01 155.55 115.01 155.55" fill="#fff"/>
          <polygon points="71.96 111.14 55.98 94.64 55.98 96.59 54.22 96.59 70.03 112.9 70.03 111.14 71.96 111.14" fill="#fff"/>
          <polygon points="14.7 112.93 31.01 96.59 27.31 96.59 12.78 111.14 14.7 111.14 14.7 112.93" fill="#fff"/>
          <polygon points="139.41 96.59 155.3 112.16 155.3 111.14 158 111.14 142.4 95.84 142.4 96.59 139.41 96.59" fill="#fff"/>
          <polygon points="73.61 53.93 70.03 53.93 70.03 53.82 55.98 67.88 55.98 71.59 73.61 53.93" fill="#fff"/>
          <polygon points="155.3 138.02 140.71 155.55 142.4 155.55 142.4 157.58 156.99 140.05 155.3 140.05 155.3 138.02" fill="#fff"/>
          <polygon points="13.23 50.55 14.7 52.06 14.7 26.79 12.16 29.05 10.58 26.92 12.72 25.03 0 25.03 0 28.74 10.92 28.74 10.92 50.22 0 50.22 0 53.93 12.87 53.93 11.52 52.54 13.23 50.55" fill="#fff"/>
          <polygon points="12.16 29.05 14.7 26.79 14.7 25.03 12.72 25.03 10.58 26.92 12.16 29.05" fill="#fff"/>
          <polygon points="14.7 52.06 13.23 50.55 11.52 52.54 12.87 53.93 14.7 53.93 14.7 52.06" fill="#fff"/>
          <polygon points="55.98 11.12 55.98 0 52.2 0 52.2 9.26 53.03 8.24 55.98 11.12" fill="#fff"/>
          <polygon points="30.38 12.83 28.56 14.45 55.62 14.45 51.83 10.74 30.36 10.74 30.36 0 26.58 0 26.58 12.68 28.81 10.71 30.38 12.83" fill="#fff"/>
          <polygon points="28.56 14.45 30.38 12.83 28.81 10.71 26.58 12.68 26.58 14.45 28.56 14.45" fill="#fff"/>
          <polygon points="55.98 14.45 55.98 11.12 53.03 8.24 52.2 9.26 52.2 10.74 51.83 10.74 55.62 14.45 55.98 14.45" fill="#fff"/>
          <polygon points="115.99 11.5 113.04 14.45 141.47 14.45 139.66 12.83 141.24 10.71 142.4 11.75 142.4 0 138.63 0 138.63 10.74 116.79 10.74 116.79 0 113.01 0 113.01 10.78 114.3 9.48 115.99 11.5" fill="#fff"/>
          <polygon points="139.66 12.83 141.47 14.45 142.4 14.45 142.4 11.75 141.24 10.71 139.66 12.83" fill="#fff"/>
          <polygon points="113.04 14.45 115.99 11.5 114.3 9.48 113.01 10.78 113.01 14.45 113.04 14.45" fill="#fff"/>
          <polygon points="28.21 155.55 29.7 157.49 27.79 159.25 26.58 157.68 26.58 170 30.36 170 30.36 159.26 49.54 159.26 53.21 155.55 28.21 155.55" fill="#fff"/>
          <polygon points="52.2 170 55.98 170 55.98 156.47 52.2 160.3 52.2 170" fill="#fff"/>
          <polygon points="29.7 157.49 28.21 155.55 26.58 155.55 26.58 157.68 27.79 159.25 29.7 157.49" fill="#fff"/>
          <polygon points="53.21 155.55 49.54 159.26 52.2 159.26 52.2 160.3 55.98 156.47 55.98 155.55 53.21 155.55" fill="#fff"/>
          <polygon points="139.13 157.45 140.71 155.55 115.01 155.55 117.65 158.27 115.93 160.26 113.01 157.25 113.01 170 116.79 170 116.79 159.26 138.63 159.26 138.63 170 142.4 170 142.4 157.58 140.98 159.29 139.13 157.45" fill="#fff"/>
          <polygon points="117.65 158.27 115.01 155.55 113.01 155.55 113.01 157.25 115.93 160.26 117.65 158.27" fill="#fff"/>
          <polygon points="140.71 155.55 139.13 157.45 140.98 159.29 142.4 157.58 142.4 155.55 140.71 155.55" fill="#fff"/>
          <polygon points="170 28.74 170 25.03 157.28 25.03 158.5 26.12 156.92 28.23 155.3 26.79 155.3 52.05 156.79 50.54 158.49 52.54 157.12 53.93 170 53.93 170 50.22 159.08 50.22 159.08 28.74 170 28.74" fill="#fff"/>
          <polygon points="155.3 26.79 156.92 28.23 158.5 26.12 157.28 25.03 155.3 25.03 155.3 26.79" fill="#fff"/>
          <polygon points="156.79 50.54 155.3 52.05 155.3 53.93 157.12 53.93 158.49 52.54 156.79 50.54" fill="#fff"/>
          <polygon points="12.78 111.14 0 111.14 0 114.85 10.92 114.85 10.08 113.85 12.78 111.14" fill="#fff"/>
          <polygon points="13.5 136.36 14.7 137.92 14.7 112.93 11.76 115.86 10.92 114.85 10.92 136.34 0 136.34 0 140.05 13.06 140.05 11.58 138.12 13.5 136.36" fill="#fff"/>
          <polygon points="14.7 137.92 13.5 136.36 11.58 138.12 13.06 140.05 14.7 140.05 14.7 137.92" fill="#fff"/>
          <polygon points="14.7 112.93 14.7 111.14 12.78 111.14 10.08 113.85 10.92 114.85 10.92 114.85 10.92 114.85 11.76 115.86 14.7 112.93" fill="#fff"/>
          <polygon points="157.41 114.24 155.3 112.16 155.3 138.02 156.72 136.31 158.57 138.16 156.99 140.05 170 140.05 170 136.34 159.08 136.34 159.08 114.85 170 114.85 170 111.14 158 111.14 159.08 112.19 157.41 114.24" fill="#fff"/>
          <polygon points="155.3 112.16 157.41 114.24 159.08 112.19 158 111.14 155.3 111.14 155.3 112.16" fill="#fff"/>
          <polygon points="156.72 136.31 155.3 138.02 155.3 140.05 156.99 140.05 158.57 138.16 156.72 136.31" fill="#fff"/>
          <polygon points="99.42 53.71 99.42 28.09 95.64 31.88 95.64 50.01 99.42 53.71" fill="#fff"/>
          <polygon points="73.8 50.03 73.8 32.27 70.03 28.57 70.03 53.82 73.8 50.03" fill="#fff"/>
          <polygon points="95.07 28.74 98.78 25.03 70.16 25.03 73.95 28.74 95.07 28.74" fill="#fff"/>
          <polygon points="95.9 53.93 92.11 50.22 77.32 50.22 73.61 53.93 95.9 53.93" fill="#fff"/>
          <polygon points="95.64 50.22 92.11 50.22 95.9 53.93 99.42 53.93 99.42 53.71 95.64 50.01 95.64 50.22" fill="#fff"/>
          <polygon points="73.61 53.93 77.32 50.22 73.8 50.22 73.8 50.03 70.03 53.82 70.03 53.93 73.61 53.93" fill="#fff"/>
          <polygon points="95.64 28.74 95.64 31.88 99.42 28.09 99.42 25.03 98.78 25.03 95.07 28.74 95.64 28.74" fill="#fff"/>
          <polygon points="70.03 28.57 73.8 32.27 73.8 28.74 73.95 28.74 70.16 25.03 70.03 25.03 70.03 28.57" fill="#fff"/>
          <polygon points="30.36 92.87 30.36 71.98 26.58 68.08 26.58 96.59 27.31 96.59 31.02 92.87 30.36 92.87" fill="#fff"/>
          <polygon points="55.98 71.59 52.2 75.38 52.2 90.75 55.98 94.64 55.98 71.59" fill="#fff"/>
          <polygon points="50.62 92.87 34.72 92.87 31.01 96.59 54.22 96.59 50.62 92.87" fill="#fff"/>
          <polygon points="52.2 71.67 55.98 67.88 55.98 67.68 29.84 67.68 33.44 71.4 52.2 71.4 52.2 71.67" fill="#fff"/>
          <polygon points="30.36 71.4 33.44 71.4 29.84 67.68 26.58 67.68 26.58 68.08 30.36 71.98 30.36 71.4" fill="#fff"/>
          <polygon points="34.72 92.87 31.02 92.87 27.31 96.59 31.01 96.59 34.72 92.87" fill="#fff"/>
          <polygon points="55.98 94.64 52.2 90.75 52.2 92.87 50.62 92.87 54.22 96.59 55.98 96.59 55.98 94.64" fill="#fff"/>
          <polygon points="55.98 67.88 52.2 71.67 52.2 75.38 55.98 71.59 55.98 67.88" fill="#fff"/>
          <polygon points="115.05 96.59 139.41 96.59 135.62 92.87 118.71 92.87 115.05 96.59" fill="#fff"/>
          <polygon points="138.63 92.15 142.4 95.84 142.4 68.86 138.63 72.69 138.63 92.15" fill="#fff"/>
          <polygon points="117.46 71.4 136.22 71.4 139.88 67.68 113.67 67.68 117.46 71.4" fill="#fff"/>
          <polygon points="113.01 94.93 116.79 91.1 116.79 74.41 113.01 70.71 113.01 94.93" fill="#fff"/>
          <polygon points="113.01 70.71 116.79 74.41 116.79 71.4 117.46 71.4 113.67 67.68 113.01 67.68 113.01 70.71" fill="#fff"/>
          <polygon points="138.63 92.87 135.62 92.87 139.41 96.59 142.4 96.59 142.4 95.84 138.63 92.15 138.63 92.87" fill="#fff"/>
          <polygon points="113.01 96.59 115.05 96.59 118.71 92.87 116.79 92.87 116.79 91.1 113.01 94.93 113.01 96.59" fill="#fff"/>
          <polygon points="139.88 67.68 136.22 71.4 138.63 71.4 138.63 72.69 142.4 68.86 142.4 67.68 139.88 67.68" fill="#fff"/>
          <polygon points="70.03 112.9 70.03 138.5 73.8 134.67 73.8 116.8 70.03 112.9" fill="#fff"/>
          <polygon points="95.64 116.27 95.64 135.57 99.42 139.47 99.42 112.44 95.64 116.27" fill="#fff"/>
          <polygon points="75.84 136.34 72.18 140.05 96.34 140.05 92.74 136.34 75.84 136.34" fill="#fff"/>
          <polygon points="71.96 111.14 75.57 114.85 93.35 114.85 97.01 111.14 71.96 111.14" fill="#fff"/>
          <polygon points="73.8 136.34 73.8 134.67 70.03 138.5 70.03 140.05 72.18 140.05 75.84 136.34 73.8 136.34" fill="#fff"/>
          <polygon points="99.42 139.47 95.64 135.57 95.64 136.34 92.74 136.34 96.34 140.05 99.42 140.05 99.42 139.47" fill="#fff"/>
          <polygon points="70.03 111.14 70.03 112.9 73.8 116.8 73.8 114.85 75.57 114.85 71.96 111.14 70.03 111.14" fill="#fff"/>
          <polygon points="97.01 111.14 93.35 114.85 95.64 114.85 95.64 116.27 99.42 112.44 99.42 111.14 97.01 111.14" fill="#fff"/>
        </g>
      </g>
    </g>
  </g>
</svg>
