<svg xmlns="http://www.w3.org/2000/svg" width="100%" viewBox="0 0 170.01 170.01">
  <g id="Camada_2" data-name="Camada 2">
    <g id="Camada_1-2" data-name="Camada 1">
      <g id="_1" data-name="1">
        <path d="M121,35.6a5.93,5.93,0,0,0-3.62,4.14c-1.81,7-5.64,27.08-6.06,71.82-53.76.6-76,8.71-76,8.71C27.75,144,25.29,160.21,24.6,170H34.72c1.69-11.42,7.38-31.08,26.51-42a56.84,56.84,0,0,1,64.48,6.23c8.7,7.4,17.19,18.66,22.39,35.75H170V153c-18.5-4.92-30.27-14.24-37.73-23.82-13.93-17.88-16.35-43.83-5.69-64.24,11.86-22.71,35.12-26.41,43.43-27V24.61c-7-.07-22.78,1.26-49,11Z" fill="#231f20"/>
        <path d="M132.82,66.89c-6.75,12.36-6.9,27.64-1.59,40.81,11.65,28.94,32,29,38.77,28.13V122.5c-6.58-.26-12.94-.76-14-1.65l1-39.18a121.91,121.91,0,0,1,13-1.11V44.22C149.32,46.57,138.47,56.53,132.82,66.89Z" fill="#231f20"/>
        <path d="M104.15,133.12c-13.23-5.81-28.55-5.63-41,1.74-9.51,5.66-18.69,16.09-22,35.14H79.8c.3-6.69,1-12.43,1-12.43l37.32-1.18c.74,1.06,1.18,6.91,1.45,13.62h13.05c-.37-9.86-4.81-26.5-28.43-36.88Z" fill="#231f20"/>
        <path d="M125.48,0H62.3c-2,8.9-11.25,19.05-11.25,19.05,12.87-5.78,53.7-14.71,74.44-19Z" fill="#231f20"/>
        <path d="M0,65.08v61.73c5.85-23.93,15.18-61,19.9-73.55,0,0-10.59,9-19.9,11.84Z" fill="#231f20"/>
      </g>
      <g id="_2" data-name="2">
        <path d="M155,6.36S104.12,7.57,58.05,48.1c0,0-24.34-32.29-52.51-48.08H0V8.16c16.28,28.3,46.07,51,46.07,51C-2,113,3,167,3,167a11.62,11.62,0,0,1-.48,3H13.81c1.14-9.86,4.33-28,13.18-56.9A9.6,9.6,0,0,1,36.07,106l69.71.76-.52-71.86a6.92,6.92,0,0,1,4.3-6.61C145.54,14.91,164,12.78,170,12.46V0H165.2c-2.42,3-6,6.24-10.23,6.35Z" fill="#939598"/>
      </g>
      <g id="_3" data-name="3">
        <path d="M126.57,64.93c-10.66,20.41-8.24,46.35,5.69,64.24,7.47,9.58,19.24,18.9,37.74,23.82V135.83c-6.8.87-27.12.81-38.77-28.13-5.31-13.18-5.15-28.45,1.59-40.81,5.65-10.35,16.5-20.32,37.18-22.67V37.93c-8.31.59-31.56,4.3-43.43,27Z" fill="#fff"/>
        <path d="M156,120.85c1,.9,7.38,1.39,14,1.65V80.56a125,125,0,0,0-13,1.11l-1,39.18Z" fill="#fff"/>
        <path d="M125.7,134.26A56.82,56.82,0,0,0,61.22,128c-19.13,10.89-24.82,30.55-26.51,42h6.48c3.3-19.06,12.48-29.48,22-35.14,12.41-7.38,27.74-7.55,41-1.74,23.62,10.38,28.07,27,28.43,36.88h15.51C142.89,152.92,134.4,141.66,125.7,134.26Z" fill="#fff"/>
        <path d="M80.76,157.57s-.66,5.74-1,12.43h39.73c-.27-6.71-.72-12.55-1.45-13.62l-37.32,1.18Z" fill="#fff"/>
        <path d="M105.26,34.92l.52,71.85L36.07,106A9.6,9.6,0,0,0,27,113.1c-8.85,28.87-12,47-13.18,56.9H24.59c.69-9.79,3.15-26,10.71-49.73,0,0,22.25-8.11,76-8.71.42-44.74,4.25-64.78,6.06-71.82A5.9,5.9,0,0,1,121,35.6c26.24-9.72,42-11,49-11V12.45c-6,.32-24.46,2.46-60.43,15.86a6.91,6.91,0,0,0-4.3,6.61Z" fill="#fff"/>
        <path d="M51.05,19.06S60.32,8.91,62.3,0H5.54C33.72,15.8,58.05,48.09,58.05,48.09,104.12,7.56,155,6.35,155,6.35,159.19,6.24,162.79,3,165.21,0H125.48C104.74,4.33,63.91,13.26,51,19.05Z" fill="#fff"/>
        <path d="M46.07,59.19S16.28,36.45,0,8.15V65.08c9.32-2.87,19.9-11.83,19.9-11.83C15.18,65.83,5.85,102.87,0,126.8V170H2.47A11.69,11.69,0,0,0,3,167S-2,113,46.07,59.19Z" fill="#fff"/>
      </g>
    </g>
  </g>
</svg>
