<svg xmlns="http://www.w3.org/2000/svg" width="100%" viewBox="0 0 170 170">
  <g id="Camada_2" data-name="Camada 2">
    <g id="Camada_1-2" data-name="Camada 1">
      <g id="_1" data-name="1">
        <polygon points="169.98 0 169.98 170 82.26 170 0 170 0 0 169.98 0" fill="#231f20"/>
      </g>
      <g id="_2" data-name="2">
        <g>
          <path d="M93.28,93.8s3.35-9.21-5.92-19c0,0-10.48-16.59-3-26.54,0,0-10.88-3.13-11.69,16.22,0,0-10.49-4.79-17.14-4.42a17.63,17.63,0,0,0,4.64,16.4S44.93,80.72,46.59,92.05c0,0,15.12-5,25.86,2.76,0,0,9.38,8.71,16.18,3.59l21.62,21.28s-2.26,5.39-9.07,0c0,0-10.13-9.54-22.76-8.57,0,0-22,5.25-27.9,1.66,0,0,1.36,8.29,6.35,8.29,0,0-4.69,9.54-3.64,16.17,0,0,3,3,12.11-2.35,0,0,3.92,6.77,7.86,7.19,0,0,1.07-19.49,24.66-18.66,0,0,9.07,4.56,17.84,1L131,139.66q-1.59,1.82-3,3.77A46.13,46.13,0,0,0,120.2,161a44.84,44.84,0,0,0-.92,9h14.06c0-19,16.21-34.42,36.65-35.55v-12.9a57.24,57.24,0,0,0-11.52,1.64,54.71,54.71,0,0,0-18.2,8.19,51.84,51.84,0,0,0-5.25,4.16L120.44,120.7s2.42-6.08-1.61-19.9c0,0-3-21.75,21.18-23,0,0-3-7.37-10.29-9.21,0,0,7.46-7.19,5.45-14,0,0-7.25-2-15.12,4.24,0,0-3-7.74-13.71-7.37,0,0,1.61,7.56-.41,19.35,0,0-3.23,19,11.1,37.41,0,0,2.82,6.82-3.83,4.24L93.32,93.8Z" fill="#fff"/>
          <rect x="150.48" y="157.01" width="19.51" height="12.99" fill="#fff"/>
          <path d="M160.38,25.65S155.14,18,142,17.84c0,0,16.72,24.42,16.33,39.39a78.46,78.46,0,0,0-71-44.8C44,12.43,8.93,47.3,8.93,90.31A77.81,77.81,0,0,0,52.33,160c-14.82.89-39.9-14.88-39.9-14.88.1,12,7.76,16.77,7.76,16.77-3.4.56-8.14,8.12-8.14,8.12h90.84a4.64,4.64,0,0,0-1.28-3.1,12.63,12.63,0,0,0-5.37-3.07,22.46,22.46,0,0,0,5-8.26c1.76-5.69-1-9-1-9a48,48,0,0,1-17.09,10.27c-35.13-2.14-63-31.11-63-66.55S50.28,23.63,87.37,23.63a66.83,66.83,0,0,1,67.15,66.28,47.47,47.47,0,0,1-10.86,16.22s3.14,2.41,8.62,1.29a23.83,23.83,0,0,0,10.24-5.34,13.79,13.79,0,0,0,1.75,3.61c1.08,1.58,3.44,3.36,5.73,3.36V17.58s-9,4.63-9.61,8.08Z" fill="#fff"/>
        </g>
      </g>
    </g>
  </g>
</svg>
