<svg xmlns="http://www.w3.org/2000/svg" width="100%" viewBox="0 0 170.08 170.02">
  <g id="Camada_2" data-name="Camada 2">
    <g id="Camada_1-2" data-name="Camada 1">
      <g id="Camada_2-2" data-name="Camada 2">
        <g id="Camada_1-2-2" data-name="Camada 1-2">
          <g id="_1" data-name=" 1">
            <path d="M0,12.17V25.81a170.05,170.05,0,0,1,26.5-1.17C27.07,12.77,30.13,5,33.26,0H11.13C11.12,6.73,6.15,12.17,0,12.17Z" fill="#231f20"/>
            <path d="M158.89,0H146.42a224.63,224.63,0,0,1,1.07,29c10.87.57,18,3.93,22.53,7.36V12.17c-6.14,0-11.11-5.44-11.12-12.15Z" fill="#231f20"/>
            <path d="M22.51,141c-10.84-.57-18-3.93-22.5-7.36v24.22c6.14,0,11.12,5.45,11.12,12.18H23.6a222.85,222.85,0,0,1-1.07-29Z" fill="#231f20"/>
            <path d="M143.51,145.35C143,157.24,139.92,165,136.78,170h22.14c0-6.72,5-12.18,11.13-12.18V144.18A170.57,170.57,0,0,1,143.51,145.35Z" fill="#231f20"/>
            <path d="M88.24,70.72C81,70.72,75.18,77.12,75.18,85S81,99.29,88.24,99.29,101.3,92.89,101.3,85,95.45,70.72,88.24,70.72Zm0,23.24c-4.52,0-8.18-4-8.18-9s3.66-9,8.18-9,8.18,4,8.18,9S92.76,94,88.24,94Z" fill="#231f20"/>
          </g>
          <g id="_2" data-name=" 2">
            <path d="M105.56,76.05c4.82-7,.26-10.81.26-10.81-4.29-7.25-12.42-.38-12.42-.38,0-5.9-5.75-6.73-5.75-6.73-6.14-2-7.73,6-7.73,6-5.62-4.38-10.24-.6-10.24-.6C65.25,66.93,70,75,70,75c-11.76.76-9.84,10.51-9.84,10.51-.07,9.46,9.58,10,9.58,10-5.55,7.64-.53,11.35-.53,11.35,6.61,8,11.76-2.11,11.76-2.11.79,5.45,7.27,6.2,7.27,6.2,5.68,1.36,7.53-7.87,7.53-7.87,4.36,6.29,10,2.58,10,2.58,4.62-4.62.86-13.44.86-13.44,8.46.93,6.87-8,6.87-8-.26-7-7.93-8.23-7.93-8.23ZM88.24,99.29C81,99.29,75.18,92.89,75.18,85S81,70.72,88.24,70.72,101.3,77.12,101.3,85,95.45,99.29,88.24,99.29Z" fill="#939598"/>
            <path d="M12.45,34.87c1.52-.2,7.19,4.43,7.19,4.43,1.24,0,.55-8,.55-8C40,55.8,53,50.66,53,50.66c1-17.87-15.76-31.17-15.76-31.17,1.93-1.51,6.08-2,6.08-2-2.07-1.22-3.18-6.81-3.18-6.81C61.2,13.84,69.23,3,71,0H33.25c-3.14,5-6.19,12.76-6.71,24.63A170.57,170.57,0,0,0,0,25.8v43C16.59,65,12.44,34.87,12.44,34.87Z" fill="#939598"/>
            <path d="M146.42,0H107.14c3.48,18.12,31,13.59,31,13.59.18,1.67-4,7.87-4,7.87,0,1.36,7.33.6,7.33.6-22.39,21.62-17.69,35.84-17.69,35.84,16.31,1.07,28.47-17.24,28.47-17.24,1.38,2.11,1.8,6.65,1.8,6.65,1.11-2.26,6.22-3.48,6.22-3.48-2.87,23.16,7.07,31.93,9.81,33.88V36.39C165.51,33,158.37,29.61,147.51,29a221.1,221.1,0,0,0-1.07-29Z" fill="#939598"/>
            <path d="M31.89,156.39c-.18-1.67,4-7.87,4-7.87,0-1.36-7.33-.6-7.33-.6C51,126.3,46.25,112.07,46.25,112.07,29.94,111,17.78,129.32,17.78,129.32c-1.38-2.11-1.8-6.65-1.8-6.65-1.11,2.26-6.22,3.47-6.22,3.47C12.69,103,2.75,94.22,0,92.27v41.34c4.5,3.43,11.66,6.78,22.5,7.36a222.85,222.85,0,0,0,1.07,29H62.9c-3.46-18.15-31-13.61-31-13.61Z" fill="#939598"/>
            <path d="M157.57,135.12c-1.52.19-7.19-4.43-7.19-4.43-1.24,0-.55,8-.55,8-19.76-24.5-32.76-19.36-32.76-19.36-1,17.85,15.76,31.15,15.76,31.15-1.93,1.51-6.08,2-6.08,2,2.07,1.21,3.18,6.81,3.18,6.81-21.16-3.14-29.18,7.73-31,10.73h37.78c3.14-5,6.2-12.76,6.73-24.65A170.57,170.57,0,0,0,170,144.2v-43c-16.59,3.78-12.44,33.93-12.44,33.93Z" fill="#939598"/>
          </g>
          <g id="_3" data-name=" 3">
            <path d="M11.13,0H0V12.17C6.15,12.17,11.12,6.73,11.13,0Z" fill="#6d6e71"/>
            <path d="M170,12.17V0H158.89C158.9,6.73,163.88,12.17,170,12.17Z" fill="#6d6e71"/>
            <path d="M0,157.82V170H11.13C11.13,163.28,6.15,157.82,0,157.82Z" fill="#6d6e71"/>
            <path d="M158.88,170H170V157.82C163.87,157.82,158.88,163.27,158.88,170Z" fill="#6d6e71"/>
            <ellipse cx="88.24" cy="85" rx="8.18" ry="8.95" fill="#6d6e71"/>
          </g>
          <path id="_4" data-name="4" d="M160.2,43.85s-5.11,1.22-6.22,3.48c0,0-.41-4.54-1.8-6.65,0,0-12.16,18.3-28.47,17.24,0,0-4.7-14.21,17.69-35.84,0,0-7.33.76-7.33-.6,0,0,4.24-6.2,4.05-7.87,0,0-27.52,4.53-31-13.59H71c-1.81,3-9.83,13.84-30.94,10.71,0,0,1.11,5.6,3.18,6.81,0,0-4.15.45-6.08,2,0,0,16.72,13.3,15.76,31.15,0,0-13,5.14-32.76-19.36,0,0,.69,8-.55,8,0,0-5.67-4.63-7.19-4.43,0,0,4.15,30.15-12.44,33.93V92.29c2.74,2,12.68,10.71,9.81,33.88,0,0,5.11-1.22,6.22-3.48,0,0,.41,4.54,1.8,6.65,0,0,12.16-18.29,28.47-17.24,0,0,4.7,14.21-17.69,35.84,0,0,7.33-.75,7.33.6,0,0-4.24,6.21-4,7.87,0,0,27.55-4.54,31,13.61H99c1.78-3,9.79-13.87,31-10.73,0,0-1.11-5.59-3.18-6.81,0,0,4.15-.45,6.08-2,0,0-16.72-13.3-15.76-31.15,0,0,13-5.14,32.76,19.36,0,0-.69-8,.55-8,0,0,5.67,4.64,7.19,4.43,0,0-4.15-30.15,12.44-33.93V77.73c-2.74-2-12.68-10.71-9.81-33.88ZM106.62,92.27s3.77,8.82-.86,13.44c0,0-5.62,3.71-10-2.58,0,0-1.85,9.23-7.53,7.87,0,0-6.47-.75-7.27-6.2,0,0-5.15,10.13-11.76,2.11,0,0-5-3.71.53-11.35,0,0-9.65-.52-9.58-10,0,0-1.92-9.74,9.84-10.51,0,0-4.76-8.09-.33-11.49,0,0,4.62-3.78,10.24.6,0,0,1.59-8,7.73-6,0,0,5.75.83,5.75,6.73,0,0,8.13-6.88,12.42.38,0,0,4.56,3.79-.26,10.81,0,0,7.66,1.22,7.93,8.24,0,0,1.59,8.91-6.87,8Z" fill="#d2d2d2"/>
        </g>
      </g>
    </g>
  </g>
</svg>
