<svg xmlns="http://www.w3.org/2000/svg" width="100%" viewBox="0 0 170 170">
  <g id="Camada_2" data-name="Camada 2">
    <g id="Camada_1-2" data-name="Camada 1">
      <g id="_1" data-name="1">
        <polygon points="170 169.99 0 169.99 0 82.27 0 0 170 0 170 169.99" fill="#231f20"/>
      </g>
      <g id="_2" data-name="2">
        <g>
          <rect x="63.9" y="61.9" width="44.5" height="42.2" fill="#939598"/>
          <rect x="147.75" y="61.9" width="22.25" height="42.2" fill="#939598"/>
          <polygon points="0 104.1 22.25 104.1 22.25 61.91 0 61.91 0 82.27 0 104.1" fill="#939598"/>
          <rect x="63.9" width="44.5" height="21.17" fill="#939598"/>
          <rect x="147.75" width="22.25" height="21.17" fill="#939598"/>
          <rect width="22.25" height="21.17" fill="#939598"/>
          <rect x="63.9" y="148.89" width="44.5" height="21.1" fill="#939598"/>
          <rect x="147.75" y="148.89" width="22.25" height="21.1" fill="#939598"/>
          <rect y="148.89" width="22.25" height="21.1" fill="#939598"/>
        </g>
      </g>
      <g id="_3" data-name="3">
        <path d="M135.23,41.05l10.42-10.81H170V21.16H147.75V0h-9.57V21.67L127.63,32.61,118,21.89V0h-9.57V21.17H63.91V0H54.34V21.82L43.12,33.35,31.83,21.63V0H22.26V21.17H0v9.08H24.37L35.2,41.49l-11,11.34H0V61.9H22.25v42.2H0v9.07H23.94l12.29,14.27L24.3,139.82H0v9.07H22.25V170h9.57V148.34l11.84-12.27,6.6,7.66,4.07,5.36V170H63.9v-21.1h44.5V170H118V148L127,136.78l11.14,11.56V170h9.57V148.9H170v-9.07h-24.3l-11.5-11.94,11.86-14.71H170v-9.07H147.74V61.92H170V52.84H145.83L135.22,41.07ZM61.76,30.24h48.49l9.52,10.52L108.15,52.82H61.88L50.94,41.47Zm46.65,31.65v42.2H63.91V61.89ZM44.1,119.28,31.83,105V61.32L43.08,49.65,54.34,61.34v47.34L44.11,119.29Zm65.66,20.54h-45l-3.66-.31L58.49,136l-7-8.12,14.2-14.74h38.57l14.81,15.37-9.34,11.28Zm28.42-34.31-11.8,14.25-8.4-8.71V59l9.4-9.76,10.8,11.95Z" fill="#fff"/>
      </g>
    </g>
  </g>
</svg>
