<svg xmlns="http://www.w3.org/2000/svg" width="100%" viewBox="0 0 170 170">
  <g id="Camada_2" data-name="Camada 2">
    <g id="Camada_1-2" data-name="Camada 1">
      <g id="camada_1_preta" data-name="1">
        <rect width="170" height="170" fill="#231f20"/>
      </g>
      <g id="camada_3_cinza" data-name="3">
        <polygon points="170 150.99 170 140.66 115.18 83.41 170 25.16 170 15.58 104.5 84.36 170 150.99" fill="#939598"/>
        <path d="M170,95.07V70.27c-6.26,0-11.33,5.54-11.33,12.39s5.07,12.4,11.33,12.4Z" fill="#939598"/>
        <polygon points="0 18.01 0 28.33 54.82 85.6 0 143.85 0 153.42 65.5 84.64 0 18.01" fill="#939598"/>
        <path d="M0,73.92V98.73c6.26,0,11.33-5.55,11.33-12.4S6.26,73.93,0,73.93Z" fill="#939598"/>
      </g>
      <g id="camada_2_branca" data-name="2">
        <polygon points="88.89 156.53 95 130.47 85.28 119.18 75.56 130.47 81.71 156.53 88.89 156.53" fill="#fff"/>
        <polygon points="49.59 158.93 39.28 169.56 39.69 169.99 73.41 169.99 73.41 165.61 49.59 158.93" fill="#fff"/>
        <polygon points="74.35 163.13 79.44 157.56 66.91 134.41 52.74 133.94 53.16 149.45 74.35 163.13" fill="#fff"/>
        <polygon points="96.25 163.13 117.4 149.42 117.83 133.91 103.66 134.37 91.16 157.56 96.25 163.13" fill="#fff"/>
        <polygon points="121 158.88 97.19 165.61 97.19 169.99 128.35 169.99 130.86 169.99 131.32 169.52 121 158.88" fill="#fff"/>
        <polygon points="81.71 13.46 75.6 39.52 85.32 50.81 95.04 39.52 88.89 13.46 81.71 13.46" fill="#fff"/>
        <polygon points="121.01 11.06 131.32 0.43 130.91 0 97.19 0 97.19 4.38 121.01 11.06" fill="#fff"/>
        <polygon points="96.25 6.86 91.17 12.43 103.69 35.58 117.86 36.05 117.44 20.54 96.25 6.86" fill="#fff"/>
        <polygon points="74.36 6.86 53.2 20.57 52.77 36.08 66.94 35.62 79.44 12.43 74.36 6.86" fill="#fff"/>
        <polygon points="49.6 11.11 73.41 4.38 73.41 0 42.25 0 39.74 0 39.28 0.47 49.6 11.11" fill="#fff"/>
        <polygon points="170 164.76 170 150.99 104.5 84.36 170 15.58 170 1.87 89.29 84.99 170 164.76" fill="#fff"/>
        <polygon points="126.97 82.36 170 36.29 170 25.16 115.18 83.41 170 140.66 170 127.87 126.97 82.36" fill="#fff"/>
        <path d="M158.67,82.67c0-6.85,5.07-12.39,11.33-12.39v-.81a11.29,11.29,0,0,0-10.26-7.2c-6.26,0-11.33,5.54-11.33,12.39a12.85,12.85,0,0,0,4,9.43,12.79,12.79,0,0,0-4,9.42c0,6.85,5.07,12.4,11.33,12.4A11.3,11.3,0,0,0,170,98.71V95.08c-6.26,0-11.33-5.54-11.33-12.39Z" fill="#fff"/>
        <polygon points="0 4.24 0 18.01 65.5 84.64 0 153.42 0 167.13 80.71 84.01 0 4.24" fill="#fff"/>
        <polygon points="43.03 86.65 0 132.72 0 143.85 54.82 85.6 0 28.33 0 41.12 43.03 86.65" fill="#fff"/>
        <path d="M11.33,86.33c0,6.85-5.07,12.4-11.33,12.4v.81a11.3,11.3,0,0,0,10.26,7.2c6.26,0,11.33-5.55,11.33-12.4a12.81,12.81,0,0,0-4-9.42,12.82,12.82,0,0,0,4-9.42c0-6.85-5.07-12.4-11.33-12.4A11.29,11.29,0,0,0,0,70.3v3.62c6.26,0,11.33,5.55,11.33,12.4Z" fill="#fff"/>
      </g>
    </g>
  </g>
</svg>
