<svg xmlns="http://www.w3.org/2000/svg" width="100%" viewBox="0 0 170 170">
  <g id="Camada_2" data-name="Camada 2">
    <g id="Camada_1-2" data-name="Camada 1">
      <g id="_1" data-name="1">
        <polygon points="170 170 0 170 0 82.28 0 0 12.35 0 41.65 0 170 0 170 170" fill="#231f20"/>
      </g>
      <g id="_2" data-name="2">
        <path d="M65.55,30.15A29.5,29.5,0,0,0,53.48,18.2,29.37,29.37,0,0,0,14.82,59.7,208.35,208.35,0,0,1,27.56,43.21c3.48-4.05,6.93-7.75,10.3-11.11a11.73,11.73,0,0,1,1.88-.17A12.25,12.25,0,0,1,52,44.19a12,12,0,0,1-.42,3.13,126,126,0,0,1-9.88,9A136.36,136.36,0,0,1,23.56,68.73a29.4,29.4,0,0,0,42-38.58Z" fill="#939598"/>
        <path d="M154.82,30.15A29.5,29.5,0,0,0,142.75,18.2a29.37,29.37,0,0,0-38.66,41.5,208.35,208.35,0,0,1,12.74-16.49c3.48-4.05,6.93-7.75,10.3-11.11a11.73,11.73,0,0,1,1.88-.17,12.25,12.25,0,0,1,12.23,12.26,12,12,0,0,1-.42,3.13,126,126,0,0,1-9.88,9,136.36,136.36,0,0,1-18.11,12.46,29.4,29.4,0,0,0,42-38.58Z" fill="#939598"/>
        <path d="M65.55,118.6a29.5,29.5,0,0,0-12.07-11.95,29.37,29.37,0,0,0-38.66,41.5c4.22-6.06,8.5-11.55,12.74-16.5,3.48-4.05,6.93-7.75,10.3-11.1a11.73,11.73,0,0,1,1.88-.17A12.24,12.24,0,0,1,52,132.64a12,12,0,0,1-.42,3.13,126,126,0,0,1-9.88,8.95,136.22,136.22,0,0,1-18.11,12.45,29.39,29.39,0,0,0,42-38.57Z" fill="#939598"/>
        <path d="M154.82,118.6a29.5,29.5,0,0,0-12.07-11.95,29.37,29.37,0,0,0-38.66,41.5c4.22-6.06,8.5-11.55,12.74-16.5,3.48-4.05,6.93-7.75,10.3-11.1a11.73,11.73,0,0,1,1.88-.17,12.24,12.24,0,0,1,12.23,12.26,12,12,0,0,1-.42,3.13,126,126,0,0,1-9.88,8.95,136.22,136.22,0,0,1-18.11,12.45,29.39,29.39,0,0,0,42-38.57Z" fill="#939598"/>
      </g>
      <g id="_3" data-name="3">
        <path d="M65.55,30.15A103.39,103.39,0,0,0,78.46,2.52c0-.06,0-.12-.07-.1-1.19.51-11.27,5-24.91,15.78A29.5,29.5,0,0,1,65.55,30.15Z" fill="#fff"/>
        <path d="M39.74,31.93a11.63,11.63,0,0,0-1.88.17c-3.37,3.36-6.82,7.06-10.3,11.11A208.35,208.35,0,0,0,14.82,59.7C10.89,65.33,7,71.46,3.28,78.13c0,.05,0,.13.06.11a122.43,122.43,0,0,0,20.23-9.51A139.64,139.64,0,0,0,41.68,56.27a124.27,124.27,0,0,0,9.88-9A12.5,12.5,0,0,0,52,44.19,12.25,12.25,0,0,0,39.75,31.93Z" fill="#fff"/>
        <path d="M154.82,30.15A103.39,103.39,0,0,0,167.73,2.52c0-.06,0-.12-.07-.1-1.19.51-11.27,5-24.91,15.78A29.5,29.5,0,0,1,154.82,30.15Z" fill="#fff"/>
        <path d="M129,31.93a11.63,11.63,0,0,0-1.88.17c-3.37,3.36-6.82,7.06-10.3,11.11A208.35,208.35,0,0,0,104.09,59.7c-3.93,5.63-7.8,11.76-11.54,18.43,0,.05,0,.13.06.11a122.43,122.43,0,0,0,20.23-9.51A139.64,139.64,0,0,0,131,56.27a124.27,124.27,0,0,0,9.88-9,12.5,12.5,0,0,0,.42-3.13A12.25,12.25,0,0,0,129,31.93Z" fill="#fff"/>
        <path d="M65.55,118.6A103.31,103.31,0,0,0,78.46,91s0-.12-.07-.09c-1.19.51-11.27,5-24.91,15.78A29.5,29.5,0,0,1,65.55,118.6Z" fill="#fff"/>
        <path d="M39.74,120.38a11.63,11.63,0,0,0-1.88.17c-3.37,3.35-6.82,7-10.3,11.1-4.24,4.95-8.52,10.44-12.74,16.5-3.93,5.63-7.8,11.76-11.54,18.42,0,.06,0,.14.06.11a120.55,120.55,0,0,0,20.23-9.51,138.5,138.5,0,0,0,18.11-12.45,124.27,124.27,0,0,0,9.88-8.95,12.5,12.5,0,0,0,.42-3.13,12.25,12.25,0,0,0-12.23-12.26Z" fill="#fff"/>
        <path d="M154.82,118.6A103.31,103.31,0,0,0,167.73,91s0-.12-.07-.09c-1.19.51-11.27,5-24.91,15.78A29.5,29.5,0,0,1,154.82,118.6Z" fill="#fff"/>
        <path d="M129,120.38a11.63,11.63,0,0,0-1.88.17c-3.37,3.35-6.82,7-10.3,11.1-4.24,4.95-8.52,10.44-12.74,16.5-3.93,5.63-7.8,11.76-11.54,18.42,0,.06,0,.14.06.11a120.55,120.55,0,0,0,20.23-9.51A138.5,138.5,0,0,0,131,144.72a124.27,124.27,0,0,0,9.88-8.95,12.5,12.5,0,0,0,.42-3.13A12.25,12.25,0,0,0,129,120.38Z" fill="#fff"/>
      </g>
    </g>
  </g>
</svg>
