<svg xmlns="http://www.w3.org/2000/svg" width="100%" viewBox="0 0 170.03 170.03">
  <g id="Camada_2" data-name="Camada 2">
    <g id="Camada_1-2" data-name="Camada 1">
      <g id="_1" data-name="1">
        <polygon points="170.01 170 0.01 170 0.01 82.27 0.01 0 170.01 0 170.01 170" fill="#231f20"/>
      </g>
      <g id="_2" data-name="2">
        <path d="M126.66,120.74l8.43,7.41,8.85-7.56s8.15-3.93,12.72,2.88c0,0,6.77,5.89.69,14.67,0,0,11.47,8,2.21,21.08-6.27,8.27-16.4.4-16.4.4l-4.24-4.23c-6.82,6.25-13.08,1.81-13.08,1.81-9.4-5.84-4.42-15.12-4.42-15.12l8.11-7.87-9.21-7.46c-2.76,30.65-23.59,33.07-23.59,33.07L96.87,170H170V97l-8.66.31S150.45,120,126.68,120.75Z" fill="#939598"/>
      </g>
      <g id="_3" data-name="3">
        <path d="M34.49,0H0V40.47C19.48,39.23,34.93,21.61,34.93,0Z" fill="#6d6e71"/>
      </g>
      <g id="_4" data-name="4">
        <path d="M160.66,90.2c0-13-5.81-15.81-5.81-15.81,4.88-4.24,8-7.6,8.29-11.41.22-3-1.34-8.26-2.9-10.74-2.84-4.5-3.18-15.58-3.18-15.58-4.63,1.31-6.94,15.26-6.94,15.26-3.2-2.49-16.21-1.43-16.21-1.43-.41,2.23,1.28,17,1.28,17-9.07-2.47-20.14,6-20.14,6,3.5,1.19,13.36,7.67,13.36,7.67,9,9.55,20-2.22,20-2.22s5.6.45,6.15,10.73h-5.53a2.57,2.57,0,0,0-2.46,2.58l-.05,1.17A2.41,2.41,0,0,0,148.82,96h4.1s-14.08,26.17-34.14,13.92l1.83-1.66a3.5,3.5,0,1,0-5-4.94l-2.52,2.58C98.32,85,116.93,55.63,116.93,55.63c16.64-29.7,50.91-28,50.91-28V16.24S95.69,15.54,96,92.77c0,0-70.75-4.7-81.49,77.24h9.68c.37-8.08,3.19-35.37,24.11-51.23,0,0,26.7-24.81,59-5.74l-3.24,3.15a3.6,3.6,0,0,0,0,5,2.64,2.64,0,0,0,3.58.23l4.57-3.58s3.13,27.64-14.37,33.28l-.2-1.28A3.94,3.94,0,0,0,94,146.42h-.51a3.05,3.05,0,0,0-3,3.2v2.55s-9.95,1.61-10.32-6.65c0,0,11.25-7.06,3-18.76,0,0-7.28-9.48-8-13.71,0,0-7.37,9.07-6.08,20,0,0-14-.6-16.22-.41,0,0-2.76,11.9-.74,15.94,0,0-11.42.19-13.27,5.45,0,0,12.9,1.81,14.93,7.46,0,0,7.19,8.67,16.59-1.61,0,0,4.61-8.27,9.58-2.82a10.67,10.67,0,0,0,10.14,3.23l.52,9.78h6.25l-.14-10.19s20.82-2.42,23.59-33.07l9.21,7.46-8.11,7.87s-5,9.28,4.42,15.13c0,0,6.27,4.43,13.08-1.82l4.24,4.23s10.14,7.87,16.4-.4c9.26-13.11-2.21-21.08-2.21-21.08,6.08-8.77-.69-14.67-.69-14.67-4.56-6.81-12.72-2.88-12.72-2.88l-8.85,7.56-8.43-7.41c23.77-.75,34.69-23.44,34.69-23.44L170,97V89.86l-9.35.35Z" fill="#fff"/>
        <path d="M28.67,38.31s12,7,12.71,33.88c0,0,9,2.73,14-5.29,0,0,7.46,5.14,14,2.72a22.31,22.31,0,0,0-4-13,18.16,18.16,0,0,0,5.8-15.12S49.92,46.78,34.92,30l0-.05A53.34,53.34,0,0,0,44,0h-9C34.92,21.61,19.47,39.23,0,40.47v9.89A43.91,43.91,0,0,0,28.3,37.83l.36.49Z" fill="#fff"/>
      </g>
    </g>
  </g>
</svg>
