<svg xmlns="http://www.w3.org/2000/svg" width="100%" viewBox="0 0 170 170">
  <g id="Camada_2" data-name="Camada 2">
    <g id="Camada_1-2" data-name="Camada 1">
      <g id="_1" data-name="1">
        <polygon points="170 169.99 0 169.99 0 82.28 0 0.01 170 0.01 170 169.99" fill="#231f20"/>
      </g>
      <g id="_2" data-name="2">
        <path d="M140.05,42.15l14.5-15.87L143.8,14.52,129.7,30H39.93L25.83,14.52,15.08,26.28,30,42.55V129L15.59,144.68l10.75,11.76,15-16.39h86.19l15,16.39,10.75-11.76-13.18-14.42V42.15ZM84.55,95.89c-5.5,0-10-4.88-10-10.89s4.46-10.89,10-10.89S94.5,79,94.5,85,90,95.89,84.55,95.89Z" fill="#939598"/>
      </g>
      <g id="_3" data-name="3">
        <path d="M170,34.51V18L153.51,0H134.1L123,12.18H46.66L35.54,0H16.13L0,17.65V34.92l13.71,15v71.69L0,136.6v16.17L15.75,170H36.92L48,157.82h72.74L131.9,170h20.4L170,154.28V137.91l-13.71-15V49.51l13.71-15ZM153.24,144.68l-10.75,11.76-15-16.39H41.31l-15,16.39L15.58,144.68,29.94,129V42.55L15.07,26.28,25.82,14.52,39.92,30h89.77l14.1-15.43,10.75,11.76L140,42.15v88.1l13.18,14.42Z" fill="#fff"/>
        <path d="M77.82,46.28c-1.22-5.45-5.68-9.51-11-9.51-6.29,0-11.4,5.58-11.4,12.47a13.27,13.27,0,0,0,1.76,6.6,10.6,10.6,0,0,0-6.07-2c-6.29,0-11.4,5.58-11.4,12.48,0,6.09,4,11.13,9.27,12.23l20.37,1.34s2.76-9.74,11.13-10.76L77.82,46.29Z" fill="#fff"/>
        <path d="M49.17,92.38c-5,1.33-8.69,6.21-8.69,12.08,0,6.88,5.1,12.47,11.4,12.47a10.58,10.58,0,0,0,6-1.93,13.28,13.28,0,0,0-1.78,6.65c0,6.88,5.1,12.47,11.4,12.47,5.57,0,10.18-4.37,11.18-10.14l1.23-22.29s-8.91-3-9.84-12.18L49.18,92.38Z" fill="#fff"/>
        <path d="M91.29,123.72c1.22,5.45,5.68,9.51,11,9.51,6.29,0,11.4-5.58,11.4-12.47a13.27,13.27,0,0,0-1.76-6.6,10.6,10.6,0,0,0,6.07,2c6.29,0,11.4-5.58,11.4-12.48,0-6.09-4-11.13-9.27-12.23L99.8,90.06S97,99.8,88.67,100.82l2.62,22.89Z" fill="#fff"/>
        <path d="M119.94,77.62c5-1.33,8.69-6.21,8.69-12.08,0-6.88-5.1-12.47-11.4-12.47a10.58,10.58,0,0,0-6,1.93A13.28,13.28,0,0,0,113,48.35c0-6.88-5.1-12.47-11.4-12.47C96,35.88,91.4,40.25,90.4,46L89.17,68.31s8.91,3,9.84,12.18l20.92-2.87Z" fill="#fff"/>
      </g>
    </g>
  </g>
</svg>
