<svg xmlns="http://www.w3.org/2000/svg" width="100%" viewBox="0 0 170 170">
  <g id="Camada_2" data-name="Camada 2">
    <g id="Camada_1-2" data-name="Camada 1">
      <g id="_1" data-name="1">
        <polygon points="170 170 0 170 0 82.28 0 0 170 0 170 170" fill="#231f20"/>
      </g>
      <g id="_2" data-name="2">
        <path d="M34.28,30.25s-1.52,4.68-1,6.81c0,0-9,.75-9.54,6.2,0,0,9.26,2.42,10.5,4.68a62.72,62.72,0,0,1,13,13.31s6.63,9.07,13.82.91l6.63,5.3s-11.89,2.11-15.62,7.25c0,0-2.35,2.57-9.54,3.33,0,0,7.88,13.92,25.15,3.79,0,0,6.77-4.55,12-.31L134,133.7s8.85,13.46,2.76,19.05a3.72,3.72,0,0,1-3.9.86,9.74,9.74,0,0,0-7.51-.22c-5,2-11.94,6.63-13.74,16.61H170V110.86s-16.4,7.5-13.61,20.36c.49,2.26-.61,4.7-2.69,5.16-2.59.57-6.91-.42-13.83-6.62L83.32,75.92a13.74,13.74,0,0,1,.83-11.8S92,56.4,82.49,40.83c0,0-4.42,8.32-8,10.29,0,0-5,5.9-2.9,10.89l-4.49-4.92s3.11-7.19-1.45-12.78c0,0-17.69-9.07-18-21.48a5.79,5.79,0,0,0-5.94,6.05s-5-.6-7.46,1.36Z" fill="#fff"/>
        <path d="M11.61,57.32s-5.94-4.23-1.52-7.41l3.32-3.17s2.9-3.33,5.94,0l10.5,11.2s2.47,3.2,4.56,2.57a.17.17,0,0,1,.18.28L29,67.3a3.47,3.47,0,0,1-1.17.93c-1.39.67-4.53,1.47-8.48-2l-7.74-8.92Z" fill="#fff"/>
        <path d="M62.32,9.28s-4-6.45-6.79-1.56l-2.86,3.67a4.69,4.69,0,0,0,.08,6.5L63.12,29.24s3,2.66,2.41,5c0,.19.14.32.26.19l5.88-6.21a4,4,0,0,0,.83-1.29c.59-1.53,1.28-5-1.92-9.26Z" fill="#fff"/>
        <path d="M7.26,4.38l1.2,15.78s.81,7.66,7.93,6.29c0,0,6.47-1.36,5.17-8.7,0,0,8.58,1.66,9.41-3.79,0,0,2-6.42-4.08-8.85L7.26,4.36Z" fill="#fff"/>
      </g>
    </g>
  </g>
</svg>
