<svg xmlns="http://www.w3.org/2000/svg" width="100%" viewBox="0 0 170.02 170.02">
  <g id="Camada_2" data-name="Camada 2">
    <g id="Camada_1-2" data-name="Camada 1">
      <g id="_1" data-name="1">
        <polygon points="170.01 170.01 0.01 170.01 0.01 82.3 0.01 0.03 170.01 0.03 170.01 170.01" fill="#231f20"/>
      </g>
      <g id="_2" data-name="2">
        <path d="M88.32,0H81c-.77,18.53-8.71,80.83-81,80.82v9c14.58-1,74.39-.31,80.42,80.18h7.5c.6-17.45,7.85-81.32,82.09-79.57V79.06c-13.9,1.34-74.69,2.5-81.69-79ZM84.51,91.78c-3.88.32-7.27-2.85-7.56-7.1s2.61-8,6.49-8.27,7.27,2.86,7.56,7.1S88.39,91.47,84.51,91.78Z" fill="#939598"/>
        <path d="M121,149.85l.18-.25c4.2-6,2-15.1-4.51-17.65-4.44-1.74-10.57-1.2-17.27,7.86,0,0-5.72,5.27-9.46,30.21h3.31C96.31,158.78,104.78,135.79,121,149.85Z" fill="#939598"/>
        <path d="M32.84,63.15a16.34,16.34,0,0,0,.73-14.34,8.58,8.58,0,0,0-5.82-5.05c-2.68-.6-6.65-.59-11.41,2.25,0,0,16.11,21-16.34,27.47v4.15c8.63-1.42,27.45-5.49,32.83-14.48Z" fill="#939598"/>
        <path d="M47.12,20l-.18.25c-4.3,6.17-2.07,15.46,4.62,18.08,4.55,1.77,10.81,1.24,17.68-8,0,0,5.75-5.29,9.59-30.25H75.36C72.11,11.75,63.45,34.11,47.14,20Z" fill="#939598"/>
        <path d="M61.68,135.25a12.48,12.48,0,0,0-12.79.5,9.07,9.07,0,0,0-4,6.63,18.84,18.84,0,0,0,3,11.92S65.41,135,74,170h3.76C75.92,161.63,70.54,140.38,61.68,135.25Z" fill="#939598"/>
        <path d="M22.11,123.93l.24.18c5.86,4,13.9.81,15.62-6.53,1.17-5,.13-11.59-8.71-18.06,0,0-5.46-5.89-29.25-7.59v3.4c9.87,2,33.86,8.85,22.1,28.59Z" fill="#939598"/>
        <path d="M135,107.69a16,16,0,0,0-.72,14,8.37,8.37,0,0,0,5.69,4.93c2.61.6,6.5.58,11.14-2.2,0,0-16.71-21.77,18.92-27.36v-4C164.19,93.88,141,97.64,135,107.69Z" fill="#939598"/>
        <path d="M107.63,35.2a12.43,12.43,0,0,0,12.7-.75,9.08,9.08,0,0,0,3.83-6.68A18.62,18.62,0,0,0,121,16S103.64,35.84,94.6,0H90.87c1.7,7.49,7.51,30.05,16.76,35.18Z" fill="#939598"/>
        <path d="M147.13,45.64a1.55,1.55,0,0,0-.24-.16C141,41.6,133.06,45,131.48,52.27c-1.08,5,.07,11.53,9,17.77,0,0,5.58,5.8,29.57,7V73.68C160.46,72.07,135.62,65.8,147.13,45.64Z" fill="#939598"/>
      </g>
      <g id="_3" data-name="3">
        <path d="M81,0H78.82C75,25,69.23,30.28,69.23,30.28c-6.86,9.28-13.13,9.81-17.68,8-6.68-2.6-8.91-11.89-4.62-18.08l.18-.25c-11.19-3.29-17.77-1.85-21.36,0a8.62,8.62,0,0,0,.4-2.51A8.3,8.3,0,0,0,18,9a8.3,8.3,0,0,0-8.11,8.47A8.29,8.29,0,0,0,18,25.93a7.38,7.38,0,0,0,1.7-.19C14.31,34,16.34,46,16.34,46c4.76-2.84,8.73-2.86,11.41-2.25a8.58,8.58,0,0,1,5.82,5,16.34,16.34,0,0,1-.73,14.34C27.46,72.12,8.64,76.19,0,77.61v3.22c72.25,0,80.2-62.29,81-80.82Z" fill="#fff"/>
        <path d="M0,89.82v2.11c23.79,1.7,29.25,7.59,29.25,7.59C38.1,106,39.14,112.6,38,117.58c-1.72,7.34-9.76,10.53-15.62,6.53l-.24-.18c-1.92,12.19-.05,19,1.89,22.7a6.29,6.29,0,0,0-2.25-.2c-4.15.41-7.19,4.62-6.79,9.37s4.09,8.27,8.24,7.85S30.39,159,30,154.29a9.29,9.29,0,0,0-.32-1.79c7.81,5,18.28,1.81,18.28,1.81a18.82,18.82,0,0,1-3-11.92,9.05,9.05,0,0,1,4-6.63,12.48,12.48,0,0,1,12.79-.5c8.85,5.13,14.24,26.38,16,34.76h2.7C74.4,89.52,14.59,88.8,0,89.82Z" fill="#fff"/>
        <path d="M99.42,139.81c6.71-9.06,12.83-9.59,17.27-7.86,6.53,2.55,8.71,11.62,4.51,17.65a2.38,2.38,0,0,1-.18.25c10.94,3.22,17.36,1.81,20.87,0a8.48,8.48,0,0,0-.39,2.44,7.93,7.93,0,1,0,7.92-8.28,7.61,7.61,0,0,0-1.66.19c5.3-8.07,3.32-19.78,3.32-19.78-4.65,2.78-8.53,2.79-11.14,2.2a8.43,8.43,0,0,1-5.69-4.94,16,16,0,0,1,.72-14c6-10,29.22-13.8,35-14.6V90.45C95.77,88.7,88.51,152.57,87.91,170h2c3.74-24.94,9.46-30.21,9.46-30.21Z" fill="#fff"/>
        <path d="M170,79.05V77c-24-1.17-29.57-7-29.57-7-8.9-6.24-10-12.79-9-17.77,1.58-7.32,9.52-10.66,15.41-6.79a1.55,1.55,0,0,1,.24.16c1.7-12.15-.27-18.93-2.26-22.52a6.23,6.23,0,0,0,2.24.15c4.12-.5,7.07-4.72,6.59-9.44s-4.2-8.14-8.32-7.64-7.07,4.73-6.59,9.45a9.15,9.15,0,0,0,.35,1.76C131.3,12.56,121,16,121,16a18.63,18.63,0,0,1,3.2,11.77,9,9,0,0,1-3.83,6.67,12.39,12.39,0,0,1-12.7.76C98.37,30.06,92.56,7.48,90.86,0H88.31c7,81.52,67.79,80.37,81.69,79Z" fill="#fff"/>
        <polygon points="108.44 67.53 107.22 58.11 97.81 58.7 89.64 76.51 90.92 77.91 108.44 67.53" fill="#fff"/>
        <polygon points="68.85 57.33 60.24 58.66 60.78 68.95 77.05 77.89 78.33 76.5 68.85 57.33" fill="#fff"/>
        <polygon points="59.52 100.65 60.74 110.06 70.14 109.47 78.31 91.66 77.04 90.26 59.52 100.65" fill="#fff"/>
        <polygon points="99.11 110.86 107.71 109.52 107.17 99.22 90.9 90.28 89.62 91.69 99.11 110.86" fill="#fff"/>
      </g>
    </g>
  </g>
</svg>
