<svg xmlns="http://www.w3.org/2000/svg" width="100%" viewBox="0 0 170 170">
  <g id="Camada_2" data-name="Camada 2">
    <g id="Camada_1-2" data-name="Camada 1">
      <g id="_1" data-name="1">
        <polygon points="170 170 0 170 0 82.28 0 40.48 0 0 41.51 0 170 0 170 170" fill="#231f20"/>
      </g>
      <g id="_2" data-name="2">
        <path d="M114.58,85.76c3.5,25.77,25.75,21,25.75,21,4.28,27.67,26.63,58.38,26.63,58.38s-42.29-22.49-58.69-25.71c-2-27.23-24-27.23-24-27.23-23.77,1.51-26.17,27.83-26.17,27.83-25.29,4.68-50.86,24-50.86,24S27.64,125.93,30.59,108c0,0,24.6,5.85,24.83-23.75C54,58.22,27.92,59,27.92,59,23.63,31.3,3,4.84,3,4.84s38.7,21.48,55.1,24.7c0,0,5.59,23.69,28.14,22.13,22.77,1.53,21.25-23.14,21.25-23.14,24.55-1.29,53.75-22.3,53.75-22.3s-18.85,36.86-23.53,53.56C137.75,59.79,112.23,54,114.58,85.76Z" fill="#fff"/>
      </g>
    </g>
  </g>
</svg>
