<svg xmlns="http://www.w3.org/2000/svg" width="100%" viewBox="0 0 170.01 170.01">
  <g id="Camada_2" data-name="Camada 2">
    <g id="Camada_1-2" data-name="Camada 1">
      <g id="_1" data-name="1">
        <polygon points="170 0 170 170 82.28 170 0.01 170 0.01 0 170 0" fill="#231f20"/>
        <path d="M153.72,62.56A39,39,0,0,0,140.63,91a89.92,89.92,0,0,0-31.79-9.29,106.8,106.8,0,0,0-28.38.62l-.54.1c-.06.27-.09.54-.15.81a81.09,81.09,0,0,0-1.36,22,76.07,76.07,0,0,0,11.69,35.3A46,46,0,0,0,67.28,151.7h0A40,40,0,0,0,55.73,170H170V53.09a45.22,45.22,0,0,0-16.28,9.46Z" fill="#231f20"/>
      </g>
      <g id="_2" data-name="2">
        <path d="M0,18.15C11,18.15,19.87,10,19.87,0H0Z" fill="#939598"/>
        <path d="M0,153.74v.73l.06.05c9.28,0,16.78,6.87,16.87,15.33l.15.14h.42l.37-17.53a.91.91,0,0,0-1.06-.86L0,153.72Z" fill="#939598"/>
        <path d="M149.73,16.75V0H170V19.21H152.42a2.6,2.6,0,0,1-2.7-2.47Z" fill="#939598"/>
        <path d="M79.77,83.28c.06-.27.09-.53.15-.81l.54-.1C70.42,66,73,44.9,88.19,31h0c.85-.78,1.75-1.48,2.65-2.19L86,24.36c-17.49-16-45.84-16-63.31,0h0c-17.49,16-17.49,41.89,0,57.86l5,4.54c15.13-10.8,35.77-12,52.1-3.49Z" fill="#939598"/>
        <path d="M131.71,97.6l-1,1a18.34,18.34,0,0,0,0,27.51l33.39,32.16a2.64,2.64,0,0,1,.33,3.66c-.71.84-3.61,1-4.89-.19L126.11,133a22,22,0,0,0-12.38-5.52A22.5,22.5,0,0,0,96,133l-1,1a18.31,18.31,0,0,0,0,27.51l1.77,1.61,7.58,6.93H170V105.1l-4.77-4.36-3.43-3.13a22.72,22.72,0,0,0-30.1,0Z" fill="#939598"/>
      </g>
      <g id="_3" data-name="3">
        <path d="M30.68,0H19.87C19.87,10,11,18.15,0,18.15V28C17,28,30.68,15.48,30.68,0Z" fill="#fff"/>
        <g>
          <path d="M90.84,28.77c-.9.71-1.8,1.41-2.65,2.19h0C72.93,44.9,70.41,66,80.46,82.37a107.27,107.27,0,0,1,28.38-.62A89.75,89.75,0,0,1,140.63,91a39.06,39.06,0,0,1,13.09-28.47A45.31,45.31,0,0,1,170,53.11v-7.3a45.2,45.2,0,0,0-5.1-5.59L154.77,31c-17.53-16-45.44-16.73-63.94-2.19Z" fill="#fff"/>
          <path d="M27.67,86.77a49,49,0,0,0-4.35,3.47h0c-18.38,16.8-18.38,44,0,60.85l10.13,9.26A47.52,47.52,0,0,0,49.67,170h6.06a40,40,0,0,1,11.54-18.29h0a46,46,0,0,1,22.82-11.17,76.07,76.07,0,0,1-11.69-35.3,81.09,81.09,0,0,1,1.36-22c-16.33-8.46-37-7.31-52.1,3.49Z" fill="#fff"/>
        </g>
        <path d="M.07,154.47c9.34,0,16.91,6.92,16.91,15.46H0Z" fill="#fff"/>
        <path d="M169.94,15.53C160.6,15.53,153,8.61,153,.07h17l-.06,15.46Z" fill="#fff"/>
      </g>
    </g>
  </g>
</svg>
