<svg xmlns="http://www.w3.org/2000/svg" width="100%" viewBox="0 0 170 170">
  <g id="Camada_2" data-name="Camada 2">
    <g id="Camada_1-2" data-name="Camada 1">
      <g id="_1" data-name="1">
        <polygon points="169.99 0 169.99 170 82.28 170 40.49 170 0.01 170 0.01 128.49 0.01 0 169.99 0" fill="#231f20"/>
        <polygon points="65.4 95.69 77.99 107.19 85.82 114.35 119.94 83.17 110.06 74.14 97.47 62.63 89.63 55.47 55.51 86.65 65.4 95.69" fill="none" stroke="#231f20" stroke-miterlimit="10"/>
      </g>
      <g id="_2" data-name="2">
        <polygon points="56.36 105 0.01 163.09 0.01 170 17.05 170 68.96 116.5 56.36 105" fill="#939598"/>
        <polygon points="116.7 67.29 169.99 12.36 169.99 0 158.24 0 104.11 55.79 116.7 67.29" fill="#939598"/>
        <path d="M55.51,86.65l9.88,9L78,107.18l7.84,7.16,34.12-31.18-9.88-9L97.46,62.63l-7.83-7.16L55.51,86.65ZM83.15,67.82l5.06,8.49a3.12,3.12,0,0,0,3.16,1.41L102.87,76a.24.24,0,0,1,.23.4l-8.45,7.79a2.58,2.58,0,0,0-.5,3.26L100,97.16c.12.2-.11.42-.33.33L88.87,93.05a3.13,3.13,0,0,0-3.38.64l-6.95,7a.26.26,0,0,1-.44-.17l.67-10.61a2.25,2.25,0,0,0-1.16-2.09L68.72,82.6a.23.23,0,0,1,.09-.43l9.32-1.67a3.63,3.63,0,0,0,3-2.92l1.52-9.68a.26.26,0,0,1,.48-.08Z" fill="#939598"/>
      </g>
      <g id="_3" data-name="3">
        <path d="M158.35,85s-23.44-8.71-37.21,5.11c0,0-10.73,8.15-7.71,26.26,0,0-15.58-3-25.72,12.72,0,0-9.53,17.14-.75,31.37,0,0-18.15-17-25.78,8.64,0,0,10.13-9.74,17.77-2.63L82.28,170H134.6s-.5-1.75-6.45-3.78c0,0,.9-2.12-5.45-8.66,0,0-2.73,12.9-16.69,8.11,0,0-15.88-5-9.43-27.55,0,0,4.73-15.76,27.12-15,0,0-3.42-23.5,19-28.2,0,0,20.07-4,22,16.4,0,0-.61,7.83-10.08,10.14,0,0,5.14,6.08,9.28,7.09,0,0,2.62,6.45,6.05,9.21V81.94s-15-5-6.81-23.36c0,0-19.35,8.16-4.83,26.4Z" fill="#6d6e71"/>
        <path d="M41.84,3.78s-.9,2.12,5.45,8.66c0,0,2.73-12.9,16.69-8.11,0,0,15.88,5,9.43,27.55,0,0-4.74,15.76-27.12,15,0,0,3.42,23.5-19,28.2,0,0-20.07,4-22-16.4,0,0,.6-7.83,10.08-10.14,0,0-5.14-6.08-9.28-7.09,0,0-2.63-6.45-6-9.21V88.05s15,5,6.81,23.36c0,0,19.35-8.16,4.83-26.4,0,0,23.44,8.71,37.21-5.11,0,0,10.73-8.15,7.71-26.26,0,0,15.58,3,25.72-12.72,0,0,9.53-17.14.75-31.37,0,0,18.15,17,25.79-8.64,0,0-10.13,9.74-17.77,2.63L87.72,0H35.4s.5,1.75,6.45,3.78Z" fill="#6d6e71"/>
      </g>
      <g id="_4" data-name="4">
        <path d="M106,147.75s9.53-9.12,24.65,2.49c0,0,8.17,8,12,3.87,0,0-.07,3,.53,4.22,0,0,7.94-2.63,16.86,3.87,0,0-4.16-10.3-1.66-19.28,0,0-1.22-1.11-4.09,0,0,0,3.1-5.74-2.57-15.07,0,0-14-9.95-3.85-25,0,0-10.73-1.45-10.05,17.41,0,0-4.39,2.7-5.75,4.77l7.79,7.81s3.56,3,.53,5.32c0,0-2.27,2.83-5.59-.07l-7.87-7.26s-3,.9-3.79,5.46c0,0-15.5-5.74-17.09,11.47Z" fill="#fff"/>
        <path d="M64,22.25s-9.53,9.12-24.65-2.49c0,0-8.17-8-11.95-3.87,0,0,.07-3-.53-4.22,0,0-7.94,2.63-16.86-3.87,0,0,4.16,10.3,1.66,19.28,0,0,1.22,1.11,4.09,0,0,0-3.1,5.74,2.57,15.07,0,0,14,10,3.85,25,0,0,10.73,1.45,10.05-17.41,0,0,4.39-2.7,5.75-4.77l-7.79-7.81s-3.56-3-.53-5.32c0,0,2.27-2.83,5.59.07l7.87,7.26s3-.9,3.79-5.46c0,0,15.5,5.74,17.09-11.47Z" fill="#fff"/>
        <path d="M94.19,46.72l-2.55-2.33a1.83,1.83,0,0,0-2.44,0L42.76,86.83a3.8,3.8,0,0,0,0,5.72l3.59,3.28a1.48,1.48,0,0,1,.41,1.66C44.38,103.32,30.59,134.36,1,146.77a1.58,1.58,0,0,0-1,1.43v14.89l55.15-56.84a1.85,1.85,0,0,1,2.52-.07l10.14,9.27a1.47,1.47,0,0,1,.07,2.16L17.05,170H34a1.72,1.72,0,0,0,1.63-1.06C38.85,160.3,49.27,140.2,79,127.15a1.86,1.86,0,0,1,2,.31l.32.29a1.83,1.83,0,0,0,2.44,0l48.35-44.19a1.47,1.47,0,0,0,0-2.23l-5.6-5.12a1.48,1.48,0,0,1-.43-1.58c1.84-5.39,12.6-33.11,42.76-41.94a1.6,1.6,0,0,0,1.21-1.5V12.36L117.91,66a1.84,1.84,0,0,1-2.51.07l-10.15-9.27a1.48,1.48,0,0,1-.06-2.16L158.24,0H139.09a1.72,1.72,0,0,0-1.67,1.14A74.41,74.41,0,0,1,96.15,47a1.86,1.86,0,0,1-2-.31Zm3.28,15.91,12.59,11.5,8.66,7.92a1.47,1.47,0,0,1,0,2.23l-31.67,29a1.83,1.83,0,0,1-2.44,0l-6.62-6L65.4,95.68l-8.66-7.92a1.47,1.47,0,0,1,0-2.23L88.41,56.58a1.83,1.83,0,0,1,2.44,0Z" fill="#fff"/>
      </g>
    </g>
  </g>
</svg>
