<svg xmlns="http://www.w3.org/2000/svg" width="100%" viewBox="0 0 170.01 170.01">
  <g id="Camada_2" data-name="Camada 2">
    <g id="Camada_1-2" data-name="Camada 1">
      <g id="_1" data-name="1">
        <polygon points="170.01 170 0.01 170 0.01 82.29 0.01 0.03 170.01 0.03 170.01 170" fill="#231f20"/>
      </g>
      <g id="_2" data-name="2">
        <polygon points="67.7 66.9 6.58 0.03 0.01 0.03 0.01 7.84 60.84 74.4 67.7 66.9" fill="#939598"/>
        <polygon points="61.94 96.84 0.01 164.6 0.01 170 8.79 170 68.8 104.34 61.94 96.84" fill="#939598"/>
        <polygon points="170.01 162.19 109.18 95.63 102.32 103.14 163.44 170 170.01 170 170.01 162.19" fill="#939598"/>
        <polygon points="110.64 72.31 170.01 7.35 170.01 0.03 162.99 0.03 103.79 64.81 110.64 72.31" fill="#939598"/>
      </g>
      <g id="_3" data-name="3">
        <polygon points="68.85 86.64 86.2 102.99 101.01 85.97 85.64 69.57 68.85 86.64" fill="#fff"/>
        <polygon points="85.64 153.29 69.2 170 100.74 170 101.31 170.01 85.64 153.29" fill="#fff"/>
        <polygon points="170.01 101.8 170.01 70.29 153.93 86.64 170.01 101.8" fill="#fff"/>
        <polygon points="86.2 16.74 100.74 0.03 69.2 0.03 68.49 0 86.2 16.74" fill="#fff"/>
        <polygon points="16.09 85.97 0.01 68.8 0.01 70.29 0.01 82.29 0.01 101.8 0 104.39 16.09 85.97" fill="#fff"/>
      </g>
    </g>
  </g>
</svg>
