<svg xmlns="http://www.w3.org/2000/svg" width="100%" viewBox="0 0 170.02 170">
  <g id="Camada_2" data-name="Camada 2">
    <g id="Camada_1-2" data-name="Camada 1">
      <polygon id="_1" data-name="1" points="0 0 170 0 170 87.72 170 169.98 0 169.98 0 0" fill="#231f20"/>
      <g id="_2" data-name=" 2">
        <path d="M71.87,77.23C72.15,154.47,0,153.76,0,153.76v10.92C87.78,146.84,82.37,85,82.37,85c65.13-9.92,82.29-64.81,86.42-85H153.36C142.62,81.93,71.87,77.23,71.87,77.23Z" fill="#939598"/>
        <path d="M132.91,170h6.27c.69-14.27,12.32-7.76,12.32-7.76,6.5,5.9,11.33.76,11.33.76,3.73-3-.55-13.31-.55-13.31-1.66-7.11,2.35-9.82,2.35-9.82a6.4,6.4,0,0,1,5.39-.63v-9.8c-20.52,0-37.11,18.16-37.11,40.58Z" fill="#939598"/>
      </g>
      <g id="_3" data-name=" 3">
        <path d="M158.39,55,170,63V30.3c-4.14,6-10.8,15.78-12.58,18.64-2.63,4.23,1,6,1,6Z" fill="#fff"/>
        <path d="M49.63,157.31c-2.41,1.79-10.4,8.33-15.7,12.68H61.62l-6.69-11.66s-1.59-3.77-5.29-1Z" fill="#fff"/>
        <path d="M71.87,77.23S142.62,81.93,153.36,0h-9.68c-.37,8.08-3.19,35.37-24.11,51.22,0,0-26.7,24.81-59,5.75l3.24-3.15a3.61,3.61,0,0,0,0-5,2.66,2.66,0,0,0-3.58-.23l-4.57,3.58S52.5,24.47,70,18.86l.2,1.28a3.93,3.93,0,0,0,3.64,3.44h.51a3,3,0,0,0,3-3c0-.07,0-.13,0-.2V17.84s10-1.61,10.32,6.65c0,0-11.25,7.06-3,18.76,0,0,7.28,9.47,8,13.71,0,0,7.37-9.07,6.08-20,0,0,14,.6,16.22.4,0,0,2.76-11.89.74-15.93,0,0,11.43-.2,13.27-5.45,0,0-12.9-1.81-14.93-7.46,0,0-7.19-8.67-16.59,1.61,0,0-4.61,8.27-9.58,2.82A10.65,10.65,0,0,0,77.76,9.72V8.15a3.13,3.13,0,0,0-3-3.26h0a3.59,3.59,0,0,0-3.45,3.37l-.2,1.87S50.29,12.55,47.52,43.2l-9.21-7.47,8.11-7.86s5-9.28-4.42-15.13c0,0-6.27-4.43-13.08,1.82l-4.24-4.23s-10.14-7.87-16.4.4C-1,23.84,10.49,31.81,10.49,31.81c-6.08,8.77.69,14.67.69,14.67,4.56,6.8,12.72,2.88,12.72,2.88l8.85-7.56,8.43,7.4C17.42,50,6.5,72.68,6.5,72.68l-1.24,0a3.31,3.31,0,0,0-3,3.44,3.49,3.49,0,0,0,3.17,3.57H7.24c0,13,5.81,15.81,5.81,15.81-4.88,4.24-8,7.6-8.29,11.41-.22,3,1.34,8.26,2.9,10.73,2.84,4.51,3.18,15.58,3.18,15.58C15.47,132,17.78,118,17.78,118,21,120.5,34,119.44,34,119.44c.41-2.22-1.28-17-1.28-17,9.07,2.47,20.14-6,20.14-6-3.5-1.19-13.36-7.67-13.36-7.67-9-9.55-20,2.22-20,2.22s-5.6-.45-6.15-10.73H18.8a2.57,2.57,0,0,0,2.46-2.58l0-1.17a2.4,2.4,0,0,0-2.2-2.6H14.93S29,47.74,49.07,60l-1.83,1.66a3.51,3.51,0,0,0,5,4.94h0L54.76,64C69.58,84.84,51,114.22,51,114.22c-16.64,29.7-50.91,28-50.91,28v11.52s72.11.73,71.83-76.53Z" fill="#fff"/>
        <path d="M96.75,128.47s21.17-5.3,36.17,11.49h0a53.37,53.37,0,0,0-9,30h9c0-22.41,16.61-40.57,37.11-40.57v-9.88a43.73,43.73,0,0,0-30.5,12.63l-.36-.49s-12-7-12.72-33.88c0,0-9-2.72-14,5.3,0,0-7.46-5.14-14-2.72a22.36,22.36,0,0,0,4,13,18.22,18.22,0,0,0-5.68,15.1Z" fill="#fff"/>
        <path d="M121.9,89.53c2.76-1.71,4.15-.35,4.15-.35C131.58,96.74,137.8,93,137.8,93c3.32-2.57,4.7-1.22,4.7-1.22,9.26,8.47,13.13,1.22,13.13,1.22-4-11.5,4.61-11.5,4.61-11.5,10.6-.1,5,11.89,5,11.89-8.32,18.11,4.76,20,4.76,20V72.08l-4.15-5.61c-7-11.29-17.69-1.6-17.69-1.6-19.72,21.6-37.87,23.85-37.87,23.85C117.11,93.87,121.9,89.53,121.9,89.53Z" fill="#fff"/>
        <path d="M66.82,165.59l5,4.39h35.43v-.11s-1.56-13.51-17.21-4.94c0,0-10.35,5.8-10.26-5.14,0,0,0-8.89,9.91-4.76,0,0,6.26-4-1-13.55,0,0-1.17-1.43,1-4.85,0,0,3.26-6.42-3.26-12.13,0,0-1.17-1.42.3-4.27,0,0,3.74-5-.7-12,0,0-2,18.75-20.6,39.1C65.43,147.33,57.08,158.33,66.82,165.59Z" fill="#fff"/>
      </g>
    </g>
  </g>
</svg>
