<svg xmlns="http://www.w3.org/2000/svg" width="100%" viewBox="0 0 170 170">
  <g id="Camada_2" data-name="Camada 2">
    <g id="Camada_1-2" data-name="Camada 1">
      <g id="_1" data-name="1">
        <path d="M170,0A84.91,84.91,0,0,1,85,84.84,84.91,84.91,0,0,1,0,0V169.68H170Z" fill="#231f20"/>
      </g>
      <g id="_2" data-name="2">
        <path d="M12,0A72.9,72.9,0,0,0,85,72.83,72.9,72.9,0,0,0,158,0H12Z" fill="#fff"/>
        <polygon points="170 169.68 85 92.79 0.35 170 170 169.68" fill="#fff"/>
      </g>
      <g id="_3" data-name="3">
        <path d="M85,84.84A84.91,84.91,0,0,0,170,0H158A72.9,72.9,0,0,1,85,72.83,72.9,72.9,0,0,1,12,0H0A84.91,84.91,0,0,0,85,84.84Z" fill="#939598"/>
      </g>
    </g>
  </g>
</svg>
