<svg xmlns="http://www.w3.org/2000/svg" width="100%" viewBox="0 0 170 170">
  <g id="Camada_2" data-name="Camada 2">
    <g id="Camada_1-2" data-name="Camada 1">
      <g id="_1" data-name="1">
        <polygon points="170 170 0 170 0 82.28 0 40.49 0 0.01 41.51 0.01 170 0.01 170 170" fill="#231f20"/>
      </g>
      <g id="_2" data-name="2">
        <g>
          <polygon points="123.58 42.28 85.01 4.4 46.66 42.27 85.12 80.95 123.58 42.28" fill="#939598"/>
          <polygon points="46.6 127.69 85.01 165.61 123.61 127.69 85.12 88.99 46.6 127.69" fill="#939598"/>
          <polygon points="127.63 46.27 89.12 84.96 127.66 123.71 167.06 85 127.63 46.27" fill="#939598"/>
          <polygon points="42.62 46.26 3.38 85 42.57 123.7 81.11 84.96 42.62 46.26" fill="#939598"/>
        </g>
      </g>
      <g id="_3" data-name="3">
        <path d="M170,166.28l-38.34-38.54L170,90.07V79.94l-38.37-37.7L170,3.68V0h-4.35L127.58,38.26,88.64,0H81.37L42.65,38.25,4.62,0H0v3.4L38.61,42.24,0,80.37v9.28l38.56,38.08L0,166.48V170H4.5l38.1-38.29L81.38,170h7.27l39-38.29L165.7,170H170ZM85,4.4l38.57,37.89L85.12,81,46.66,42.27ZM42.57,123.7,3.38,85,42.62,46.26,81.12,85ZM85,165.61l-38.4-37.93L85.12,89l38.5,38.7L85,165.61ZM89.12,85l38.51-38.69L167.06,85l-39.4,38.7Z" fill="#fff"/>
      </g>
    </g>
  </g>
</svg>
