<svg xmlns="http://www.w3.org/2000/svg" width="100%" viewBox="0 0 170.01 170.01">
  <g id="Camada_2" data-name="Camada 2">
    <g id="Camada_1-2" data-name="Camada 1">
      <g id="_1" data-name="1">
        <path d="M170,1.73V0H65.55C65.55,34.31,36.33,62.18,0,63V170H4.43C5.6,79.26,53.55,1.08,170,1.73Z" fill="#231f20"/>
        <path d="M121,170h12.85a7.87,7.87,0,0,1-4.27-8.56,9.12,9.12,0,0,1,6.7-7.51c8.79-2.35,14.82,8.48,14.82,8.48,5.14,7.05,13,2.07,13,2.07,7.41-6.77-.53-12.16-.53-12.16a35,35,0,0,1-8-5.67c-5.69-5.66-2.23-14.87,6.14-15.6a19.84,19.84,0,0,1,8.27,1.23V124c-27.07,0-49,20.61-49,46Z" fill="#231f20"/>
      </g>
      <g id="_2" data-name="2">
        <path d="M65.56,0H54.73C54.73,28.69,30.37,52,0,52.77V62.94C36.35,62.17,65.56,34.3,65.56,0Z" fill="#939598"/>
        <path d="M29,170h9.25l-.58-.5s.26-8.61,10.55-7.53a16.91,16.91,0,0,1,6.42,2.16c2.89,1.62,11.78,3.07,16.4,4.5,2.5.77,4.74-1.2,1.34-4.86A32.53,32.53,0,0,0,64.92,158a5.17,5.17,0,0,1-3.27-5.18l0-.13c.57-3.93,5.53-6.06,9.36-4.18a15.5,15.5,0,0,1,3.22,2.15,37,37,0,0,0,5.36,3.88,75.32,75.32,0,0,0,10,4.88,4.87,4.87,0,0,0,4.92-.64c1.44-1.25,2-3.4-2.64-6.78a70.57,70.57,0,0,0-9.4-7s-5.5-1.92-2.88-6.32c0,0,1.33-2.91,7.6-1.81,0,0,4.48.9,5-2.58,0,0,1.77-3.34-3.75-4.53,0,0-5.19-2-3.59-6.46,0,0-.09-3.73,8.53-2.07l5.84.38s5.85.79,6.45-3c0,0-.21-5.13-8.59-4.43,0,0-15.15.13-20.08-2.68,0,0-8.24-5.1,2.55-11.46l3.61-1.7s6.17-1.54,1.54-4.33L71.28,89.06a1.71,1.71,0,0,1-1.17-1.53L69.73,71a1,1,0,0,1,1-1l15-.24a1.89,1.89,0,0,1,1.84,1.21L91.8,83.51c2.73,4.42,4.84-1.11,4.84-1.11l2.11-3.18c7.71-9.4,12.7-1.52,12.7-1.52,2.73,4.7,1.51,18.52,1.51,18.52-1.35,7.6,4.24,8.15,4.24,8.15,4.23-.28,3.79-5.67,3.79-5.67V93.34c-1.21-8,2.86-7.63,2.86-7.63,5.9-.69,6.81,3.73,6.81,3.73.91,5.11,4.68,3.73,4.68,3.73,2.42-.14,3.18-4.42,3.18-4.42-.76-5.8,2.51-6.82,2.51-6.82,5-2.07,6.71,3.08,6.71,3.08a19.13,19.13,0,0,0,7.11,6.78c6.06,1.52,5.3-5.11,5.3-5.11-2.57-7.74-9.38-14.51-9.38-14.51a17.09,17.09,0,0,1-3.83-4.84c-1.78-3.62.89-8,5.23-8.25h.15a5.4,5.4,0,0,1,5.35,3.15A21.28,21.28,0,0,0,163.94,71c1.94,1.6,5-.12,4.36-2.44a60.2,60.2,0,0,0-5.37-11.93,13.51,13.51,0,0,1-1.9-6c-.46-9.46,9-9.1,9-9.1v-12C73.91,22.13,29,91.25,29,170Zm24.74-67c5.23,3.5,22.7,25.92,25,29a.33.33,0,0,1-.17.52c-4.78,1.79-32.59,8.79-36.2,9.7a.41.41,0,0,1-.49-.28c-4.84-20.32,9.31-36.65,11.3-38.82a.38.38,0,0,1,.5-.07Zm88.31-63.36c.2,6.41-9.19,34.91-10.46,38.76a.42.42,0,0,1-.6.21C126.16,76.12,101.17,59,97.92,56.82a.36.36,0,0,1-.06-.56c15.78-17.26,40.46-17,43.8-16.93a.38.38,0,0,1,.4.35Z" fill="#939598"/>
      </g>
      <g id="_3" data-name="3">
        <path d="M170,132.28a20,20,0,0,0-8.27-1.23c-8.38.73-11.83,9.94-6.14,15.6a35.36,35.36,0,0,0,7.95,5.67s8,5.39.53,12.16c0,0-7.87,5-13-2.07,0,0-6-10.82-14.82-8.48a9.13,9.13,0,0,0-6.7,7.51,7.87,7.87,0,0,0,4.27,8.56H170V132.27Z" fill="#6d6e71"/>
        <path d="M10.65,32.28c-.76-5.73-4.24-11.38-6.05-14A11.66,11.66,0,0,1,2.67,14a7.19,7.19,0,0,1-.16-2.33,1.42,1.42,0,0,1,2.29-.81c5.26,4,8.29,12.13,8.29,12.13,2.16,6.77,6.15,8.55,9.58,8.63a9.22,9.22,0,0,0,9-6.34c2.68-8.71-8.89-12-8.89-12C17.13,12,12,8.51,9.1,6.32A1,1,0,0,1,10,4.64,156.51,156.51,0,0,1,25.41,8.79,16.73,16.73,0,0,0,36,8.77C43.16,6.19,43.73,0,43.73,0H0v45.8c.27-.05.57-.11.86-.19C7.19,44,11.42,38.24,10.64,32.28Z" fill="#6d6e71"/>
        <path d="M124.44,124c25.38-3.37,39-10.47,45.56-15.14V41.52s-9.43-.36-9,9.1a13.47,13.47,0,0,0,1.9,6,60.78,60.78,0,0,1,5.37,11.93c.67,2.32-2.43,4-4.36,2.44a21.26,21.26,0,0,1-6.27-8.77,5.41,5.41,0,0,0-5.35-3.16h-.15c-4.34.24-7,4.63-5.23,8.25a17.09,17.09,0,0,0,3.83,4.84s6.81,6.77,9.38,14.51c0,0,.76,6.63-5.3,5.11A19.1,19.1,0,0,1,147.74,85S146,79.84,141,81.92c0,0-3.27,1-2.51,6.82,0,0-.76,4.28-3.18,4.42,0,0-3.78,1.38-4.68-3.73,0,0-.91-4.43-6.81-3.73,0,0-4.07-.35-2.86,7.63v5.36s.44,5.39-3.79,5.67c0,0-5.59-.55-4.24-8.15,0,0,1.22-13.82-1.51-18.52,0,0-5-7.88-12.7,1.52l-2.11,3.18s-2.11,5.53-4.84,1.11L87.53,71.05a1.88,1.88,0,0,0-1.84-1.21l-15,.24a1,1,0,0,0-1,1l.38,16.49a1.69,1.69,0,0,0,1.17,1.53l13.44,4.82c4.63,2.79-1.54,4.33-1.54,4.33l-3.61,1.7C68.78,106.26,77,111.36,77,111.36,82,114.17,97.1,114,97.1,114c8.38-.7,8.59,4.43,8.59,4.43-.6,3.83-6.45,3-6.45,3l-5.84-.38c-8.61-1.66-8.53,2.07-8.53,2.07-1.6,4.51,3.59,6.46,3.59,6.46,5.51,1.19,3.75,4.53,3.75,4.53-.57,3.48-5,2.58-5,2.58-6.27-1.1-7.6,1.81-7.6,1.81-2.62,4.4,2.88,6.32,2.88,6.32a70.57,70.57,0,0,1,9.4,7c4.66,3.38,4.08,5.53,2.64,6.78a4.87,4.87,0,0,1-4.92.64,76.58,76.58,0,0,1-10-4.88,37.75,37.75,0,0,1-5.36-3.88A16.35,16.35,0,0,0,71,148.46c-3.83-1.88-8.79.24-9.36,4.18l0,.13c-.28,2.19,1.13,4.15,3.27,5.18a32.32,32.32,0,0,1,7.47,5.82c3.4,3.66,1.17,5.63-1.34,4.86-4.62-1.42-13.51-2.88-16.4-4.5A16.85,16.85,0,0,0,48.23,162c-10.29-1.08-10.55,7.53-10.55,7.53l.58.5h65.37c4.46-3.13,15.16-13.76,20.81-46Zm8.81-16.69c-.88-3.25,1.47-6.68,5.27-7.65s7.57.88,8.46,4.13-1.47,6.68-5.27,7.65S134.14,110.55,133.25,107.3Zm-31.13,38.31a6.21,6.21,0,0,1-2.2-8.81,7,7,0,0,1,9.18-2.54,6.21,6.21,0,0,1,2.2,8.81A7,7,0,0,1,102.12,145.61Z" fill="#6d6e71"/>
      </g>
      <g id="_4" data-name="4">
        <path d="M170,29.52V1.73C53.55,1.08,5.6,79.27,4.43,170H29C29,91.25,73.92,22.13,170,29.52Z" fill="#fff"/>
        <path d="M103.64,170H121c0-25.42,22-46,49-46V108.85c-6.53,4.67-20.18,11.77-45.56,15.14-5.64,32.27-16.35,42.9-20.81,46Z" fill="#fff"/>
        <path d="M36,8.77a16.73,16.73,0,0,1-10.56,0A156.51,156.51,0,0,0,10,4.64,1,1,0,0,0,9.1,6.32c2.85,2.19,8,5.68,13.66,7,0,0,11.57,3.25,8.89,12a9.23,9.23,0,0,1-9,6.34c-3.43-.08-7.42-1.85-9.58-8.63,0,0-3-8.14-8.29-12.13a1.42,1.42,0,0,0-2.29.81A7.19,7.19,0,0,0,2.67,14,12,12,0,0,0,4.6,18.29c1.8,2.61,5.28,8.26,6.05,14,.79,6-3.45,11.72-9.77,13.34-.3.08-.6.14-.87.19v7C30.37,52,54.73,28.69,54.73,0h-11S43.17,6.2,36,8.78Z" fill="#fff"/>
        <path d="M147,103.78c-.89-3.25-4.68-5.1-8.46-4.13s-6.14,4.4-5.27,7.65,4.68,5.1,8.46,4.13S147.85,107,147,103.78Z" fill="#fff"/>
        <path d="M111.3,143.06a6.21,6.21,0,0,0-2.2-8.81,7,7,0,0,0-9.18,2.54,6.21,6.21,0,0,0,2.2,8.81A7,7,0,0,0,111.3,143.06Z" fill="#fff"/>
        <path d="M97.86,56.27a.37.37,0,0,0,.06.56c3.24,2.22,28.23,19.3,33.08,21.84a.42.42,0,0,0,.6-.21c1.28-3.85,10.66-32.35,10.46-38.76a.37.37,0,0,0-.4-.35c-3.35-.11-28-.34-43.8,16.93Z" fill="#fff"/>
        <path d="M42,141.94a.39.39,0,0,0,.48.28c3.61-.91,31.43-7.91,36.2-9.7a.33.33,0,0,0,.17-.52c-2.35-3-19.82-25.45-25.05-28.95a.38.38,0,0,0-.5.07c-2,2.17-16.14,18.5-11.29,38.82Z" fill="#fff"/>
      </g>
    </g>
  </g>
</svg>
