<svg xmlns="http://www.w3.org/2000/svg" width="100%" viewBox="0 0 170 170">
  <g id="Camada_2" data-name="Camada 2">
    <g id="Camada_1-2" data-name="Camada 1">
      <g id="_1" data-name="1">
        <path d="M0,0V170H73c1-4.64,4.94-15.12,21-14.14,0,0-1.72-13.78,1.61-17.78,0,0,4.68,14.51,13,16.72,0,0,3.48-9,14.82-8.15,0,0-9.69,10.64,3.32,14.79,0,0,16.49-.09,9.23-16.12,0,0-15.39-25.18-48.1-33.2-20.87-5.12-39,15.21-28,32.22.37.57.76,1.14,1.18,1.71,0,0-15.33,9.95-29.84-2.4,0,0-6.46,9-14.82,6.36L12,148S20,137.06,22.07,127.64c1.67-7.7,4.78-15.14,10.19-21.25.41-.47.84-.94,1.29-1.4C40.92,97.34,52,93.53,63.13,94.24c7.95.5,19.55,1.28,26.66,2,0,0-14.27-15.46-24.85-25.34,0,0-20.51,10.69-33.32-.09,0,0-9-5.07-6.34-16.77,0,0-15.13-2.86-16.84-12.53,0,0,.4-5.9,5.54-5.8C14,35.67,3.5,24,8.44,12c0,0,9.57-5.71,26.21,0,0,0,5.05-5.34,11.6,2,0,0,6,6.45,5,12.71a43.5,43.5,0,0,1,7.8,1.46A22,22,0,0,1,75.05,45.13c1.15,6.14.73,14-6.09,20.13,6.42,6.15,12.57,12.88,25.38,24.95,0,0-6.85-43.92,19.12-61.29A23.77,23.77,0,0,1,120.08,26c6.73-1.93,22.71-7.1,28.6-14,0,0,3.39,10.14-4.64,22.57,0,0,13.77,13.22-.9,28.29,0,0-19.86-13.91-30.75,2.58,0,0-24.1,36.63,33.37,72.7,0,0,12.76,1.75,12.23-10.83,0,0-6-10.23-14.9-.69,0,0-5.09-15.11,9-19.12,0,0-9.89-5.76-16.69-9.63,0,0,9.82-3.46,17.39-1.38,0,0,2.12-18.71,17.23-22.25V0Z" fill="#231f20"/>
      </g>
      <g id="_2" data-name="2">
        <path d="M152.74,96.47c-7.56-2.07-17.38,1.38-17.38,1.38,6.8,3.87,16.68,9.63,16.68,9.63-14.06,4-9,19.12-9,19.12,8.92-9.54,14.89.69,14.89.69.53,12.58-12.22,10.83-12.22,10.83-57.47-36.07-33.37-72.7-33.37-72.7,10.88-16.49,30.74-2.58,30.74-2.58,14.68-15.07.91-28.29.91-28.29C152,22.11,148.66,12,148.66,12c-5.9,6.9-21.87,12.07-28.6,14a23.77,23.77,0,0,0-6.62,2.94c-26,17.36-19.12,61.29-19.12,61.29C81.51,78.15,75.37,71.41,68.94,65.26c6.81-6.11,7.24-14,6.09-20.13a22.06,22.06,0,0,0-16-16.94,43.5,43.5,0,0,0-7.8-1.46c1-6.27-5.05-12.71-5.05-12.71-6.55-7.37-11.6-2-11.6-2C18,6.28,8.41,12,8.41,12,3.48,24,14,35.67,14,35.67c-5.14-.09-5.55,5.8-5.55,5.8C10.13,51.15,25.25,54,25.25,54,22.63,65.7,31.6,70.77,31.6,70.77c12.8,10.78,33.32.09,33.32.09C75.5,80.74,89.77,96.2,89.77,96.2c-7.11-.68-18.71-1.45-26.67-2C52,93.53,40.91,97.34,33.53,105c-.45.46-.88.93-1.29,1.4-5.41,6.1-8.52,13.55-10.19,21.25C20,137.07,11.94,148,11.94,148l4.43,2c8.37,2.67,14.82-6.36,14.82-6.36C45.71,156,61,146.05,61,146.05c-.43-.57-.83-1.14-1.19-1.71-11-17,7.12-37.34,28-32.22,32.72,8,48.11,33.2,48.11,33.2,7.25,16-9.23,16.12-9.23,16.12-13-4.15-3.32-14.79-3.32-14.79-11.35-.83-14.82,8.15-14.82,8.15-8.32-2.21-13-16.72-13-16.72-3.33,4-1.61,17.78-1.61,17.78-16.07-1-20,9.5-21,14.14h97V74.22c-15.11,3.54-17.24,22.25-17.24,22.25Z" fill="#fff"/>
      </g>
    </g>
  </g>
</svg>
