<svg xmlns="http://www.w3.org/2000/svg" width="100%" viewBox="0 0 170.06 170.06">
  <g id="Camada_2" data-name="Camada 2">
    <g id="Camada_1-2" data-name="Camada 1">
      <g id="Camada_2-2" data-name="Camada 2">
        <g id="Camada_1-2-2" data-name="Camada 1-2">
          <g id="_1" data-name=" 1">
            <path d="M97,9.31,49.14,61.64,32.57,79.77C34.28,83.06,38,91.13,37.06,98c0,0-3.06,10.28-7.76,12.13a24.4,24.4,0,0,1,2.63,24.26s14,5.08,10.47,21c0,0,14.12,7.85,14.12,14.6H75.21c-33.66-21.72-32.82-44.73-32.11-71.4,2.68-52.88,54.37-58.27,54.37-58.27C140.69,35.4,161.7,58.58,170,71.6V9.31Zm59.14,29.95c-14.58,3.85-19.21-11.45-19.21-11.45-12.4,6.57-22.17-2.88-22.17-2.88-1.69,5.14-11.07,8.49-11.07,8.49-8.08,1.29-18-5.81-18-5.81,23-21.79,50.3-8.43,50.3-8.43,31.76,9.48,33.61,35.57,33.61,35.57-6.2.2-13.46-15.48-13.46-15.48Zm13.46-12.48c-4.6,6.37-8.73,3.29-8.73,3.29-6.39-6.78,3.66-11.51,3.66-11.51-2.72-2.88-.66-5.34-.66-5.34,2.63-4,5.73,1.13,5.73,1.13Z" fill="#231f20"/>
            <path d="M24,133.35s-9.7-23.75,2.36-46.82L13,101.19V170h6.45c-.81-.66-4.09-3.59-.86-6.13,0,0,2.25-2.27,4.87.72,0,0,4.32-11,10.52-4,0,0,2.75,4.44-2.86,9.42H55.6c-4.46-.79-23.92-6-31.57-36.66Z" fill="#231f20"/>
          </g>
          <g id="_2" data-name=" 2">
            <path d="M17.57,2.72s.28,4.79-3.52,4.79c0,0,3.38,5.7,2.68,8.48,0,0-7.68,1.38-10.57-3.24,0,0,.14,3.08-3.38,1.85C2.78,14.6,5.36,6.29,0,2V24.32H25.32a3,3,0,0,0,2.85-3.12V0H4.88c2.17,1.6,6,3.1,12.7,2.7Z" fill="#939598"/>
            <polygon points="72.29 0.01 0.01 74.37 0.01 82.29 0.01 86.77 82.42 0.01 72.29 0.01" fill="#939598"/>
          </g>
          <g id="_3" data-name=" 3">
            <path d="M94.21,2.07H170V0H82.42L0,86.77V170H6.4V98.18C40.69,60.66,59.92,39.6,94.21,2.07Z" fill="#6d6e71"/>
            <path d="M51.45,0H32.05V25.32a2.87,2.87,0,0,1-2.73,3H0V47.2c7.07-.75,19.78-3.89,34.79-15.82A53.76,53.76,0,0,0,51.45,0ZM41.88,1.2c2.33,0,4.23,2.35,4.23,5.24s-1.89,5.23-4.23,5.23-4.23-2.35-4.23-5.23,1.89-5.23,4.23-5.23ZM11.67,39.77a4.59,4.59,0,0,1-5.23-3.85.77.77,0,0,1,0-.15,4.83,4.83,0,0,1,4.24-5.22,4.57,4.57,0,0,1,5.22,3.83l0,.17A4.84,4.84,0,0,1,11.67,39.77Z" fill="#6d6e71"/>
            <path d="M12,50.45c.21-.42-.14-.93-.56-.8C9.5,50.28,4.26,52,0,53v9.51c3.86-1.72,8.51-5.17,12-12.09Z" fill="#6d6e71"/>
            <path d="M55.81,12.14c2.12-.93,5.38-3.82,9.1-12.14H57.74a84.23,84.23,0,0,1-3.37,10.41C53.92,11.45,54.85,12.56,55.81,12.14Z" fill="#6d6e71"/>
            <path d="M158.13,156.94a.82.82,0,0,0-.85.77.92.92,0,0,0,0,.29,90.94,90.94,0,0,0,4.14,12H170V159.33C164.15,157.92,160,157.22,158.13,156.94Z" fill="#6d6e71"/>
            <path d="M113.64,128.63h0c-23.15-11.7-28.91,3.24-30.11,7.93a.74.74,0,0,1-.87.58.7.7,0,0,1-.38-.2c-13.17-13.59.65-25.59,3.76-28a.86.86,0,0,0,.17-1.11c-4.47-7.51-4-25.45-3.92-28.95a.83.83,0,0,1,.57-.77c11.57-3.33,23.14,2.35,25.5,3.62a.69.69,0,0,0,.82-.16c15.13-15.85,26.3-5.39,29.5-1.62a.83.83,0,0,1-.1,1.18.81.81,0,0,1-.38.19,14.88,14.88,0,0,0-11,7.16A18.29,18.29,0,0,0,126,103.77c11.56,32.82,31.81,42.43,44.08,45.18v-6.46c-10.42-.74-12.54-14.78-12.86-17.74a.51.51,0,0,0-.55-.48h0c-12.44,1.17-12.85-10.33-12.85-10.33-.88-12.46,11-13.17,13.58-13.18a.54.54,0,0,0,.52-.56c.44-12.08-5.17-21-11.2-27.3a47,47,0,0,0-21.8-12.62C89.11,50.83,72.05,72.82,65,88a53.7,53.7,0,0,0-4.85,27.33C63.07,147.89,92.84,154.76,100,156a1.55,1.55,0,0,0,1.73-1.34c2-12.61,13.18-12.47,13.18-12.47,9.76.93,13.39,12.4,14.19,15.44a1,1,0,0,0,.93.75c13.83.22,15.19,10.44,15.3,11.73h5.09c-6.39-20.9-36.1-40.9-36.82-41.38Z" fill="#6d6e71"/>
            <path d="M51.06,97.51A4.33,4.33,0,0,0,57,96c.07-.13.14-.25.2-.38a5.13,5.13,0,0,0-2.51-6.42,4.34,4.34,0,0,0-5.94,1.56c-.07.13-.13.25-.19.38a5.13,5.13,0,0,0,2.5,6.42Z" fill="#6d6e71"/>
            <path d="M52.88,122.11a4.63,4.63,0,1,0,4.78,4.63,4.7,4.7,0,0,0-4.77-4.63Z" fill="#6d6e71"/>
            <path d="M68.6,68.84a4.83,4.83,0,0,0,4.24-5.22,4.57,4.57,0,0,0-5-4l-.2,0a4.82,4.82,0,0,0-4.23,5.22,4.57,4.57,0,0,0,5,4Z" fill="#6d6e71"/>
            <path d="M97.53,55.27a4.83,4.83,0,0,0,4.24-5.22,4.58,4.58,0,0,0-5.06-4l-.19,0a4.83,4.83,0,0,0-4.24,5.22,4.57,4.57,0,0,0,5,4Z" fill="#6d6e71"/>
            <path d="M134,58.12c2.08-1.16,2.8-4.18,1.6-6.77s-3.86-3.72-5.94-2.56-2.8,4.18-1.6,6.77S132,59.28,134,58.12Z" fill="#6d6e71"/>
            <path d="M158.05,77.33c2.26-.65,3.54-3.44,2.87-6.23s-3-4.53-5.31-3.88-3.54,3.45-2.87,6.24S155.79,78,158.05,77.33Z" fill="#6d6e71"/>
            <path d="M167.88,96.48c-2.26.66-3.54,3.45-2.87,6.24s2.81,4.32,5,3.93V96.55a3.55,3.55,0,0,0-2.09-.07Z" fill="#6d6e71"/>
            <path d="M71.8,151a5,5,0,0,0-3.55,5.8A4.46,4.46,0,0,0,73.68,160l.27-.08a5,5,0,0,0,3.55-5.8,4.45,4.45,0,0,0-5.4-3.23Z" fill="#6d6e71"/>
            <path d="M105.58,167.66a4.46,4.46,0,0,0-5.42-3.23l-.28.08A5,5,0,0,0,96.29,170h9.2a4.68,4.68,0,0,0,.09-2.35Z" fill="#6d6e71"/>
          </g>
          <g id="_4" data-name=" 4">
            <path d="M158.13,156.94c1.86.28,6,1,11.84,2.39V149c-12.27-2.75-32.52-12.36-44.08-45.18a18.29,18.29,0,0,1,1.22-15.29,15,15,0,0,1,11-7.16.84.84,0,0,0,.66-1,.78.78,0,0,0-.18-.39c-3.2-3.76-14.37-14.23-29.5,1.62a.69.69,0,0,1-.82.16c-2.36-1.27-13.93-7-25.5-3.62a.83.83,0,0,0-.57.77c-.13,3.5-.55,21.44,3.92,29A.86.86,0,0,1,86,109c-3.11,2.42-16.93,14.4-3.76,28a.74.74,0,0,0,1.25-.37c1.2-4.7,7-19.63,30.11-7.94h0c.72.48,30.42,20.47,36.82,41.37h11a93.94,93.94,0,0,1-4.14-12,.81.81,0,0,1,.52-1,1,1,0,0,1,.29,0Z" fill="#fff"/>
            <path d="M130.06,158.28a1,1,0,0,1-.93-.75c-.8-3.05-4.43-14.51-14.19-15.44,0,0-11.2-.14-13.18,12.47A1.55,1.55,0,0,1,100,155.9c-7.16-1.19-36.93-8.06-39.87-40.62A53.71,53.71,0,0,1,65,88c7-15.11,24.09-37.11,59.78-27.68a46.87,46.87,0,0,1,21.8,12.62c6,6.25,11.64,15.23,11.2,27.3a.54.54,0,0,1-.52.56c-2.59,0-14.46.72-13.58,13.18,0,0,.41,11.5,12.85,10.33a.52.52,0,0,1,.58.46v0c.33,3,2.44,17,12.86,17.74V106.64c-2.15.38-4.32-1.28-5-3.93s.61-5.58,2.87-6.24a3.47,3.47,0,0,1,2.09.07v-25c-8.26-13-29.27-36.2-72.49-31.27,0,0-51.69,5.4-54.37,58.28-.7,26.66-1.55,49.68,32.11,71.4H96.3a5,5,0,0,1,3.59-5.51,4.49,4.49,0,0,1,5.63,2.9,2.17,2.17,0,0,0,.07.24,4.72,4.72,0,0,1-.09,2.36h39.87c-.12-1.3-1.47-11.52-15.3-11.73Zm25.55-91.07c2.26-.66,4.63,1.08,5.31,3.87s-.61,5.59-2.87,6.24-4.63-1.08-5.31-3.87S153.35,67.87,155.61,67.21ZM129.69,48.79c2.08-1.16,4.74,0,5.94,2.56s.48,5.61-1.6,6.77-4.74,0-5.94-2.56S127.61,50,129.69,48.79Zm-33.17-2.7a4.57,4.57,0,0,1,5.22,3.83l0,.17a4.84,4.84,0,0,1-4.24,5.22,4.59,4.59,0,0,1-5.23-3.83s0-.11,0-.17A4.83,4.83,0,0,1,96.52,46.09ZM67.59,59.66a4.59,4.59,0,0,1,5.23,3.83.88.88,0,0,1,0,.17,4.83,4.83,0,0,1-4.24,5.22,4.58,4.58,0,0,1-5.22-3.83.88.88,0,0,1,0-.17A4.82,4.82,0,0,1,67.59,59.66Zm-19,31.44h0A4.34,4.34,0,0,1,54.35,89l.38.2a5.15,5.15,0,0,1,2.51,6.43,4.33,4.33,0,0,1-5.76,2.12,2.58,2.58,0,0,1-.37-.19,5.11,5.11,0,0,1-2.5-6.42m4.31,40.27a4.63,4.63,0,1,1,4.78-4.63,4.7,4.7,0,0,1-4.77,4.63h0ZM74,159.9a4.49,4.49,0,0,1-5.63-2.9c0-.08,0-.16-.07-.24a5,5,0,0,1,3.55-5.8,4.47,4.47,0,0,1,5.63,2.88c0,.09.05.17.07.26A5,5,0,0,1,74,159.9Z" fill="#fff"/>
            <path d="M34,160.59c-6.2-7-10.52,4-10.52,4-2.62-3-4.87-.72-4.87-.72-3.24,2.54,0,5.48.86,6.13H31.14c5.62-5,2.86-9.42,2.86-9.42Z" fill="#fff"/>
            <path d="M32.05,25.33V0H28.18V21.19a3,3,0,0,1-2.85,3.11H0v4H29.32a2.87,2.87,0,0,0,2.73-3Z" fill="#fff"/>
            <path d="M2.78,14.6c3.52,1.23,3.38-1.85,3.38-1.85C9,17.37,16.73,16,16.73,16c.7-2.78-2.68-8.48-2.68-8.48,3.8,0,3.52-4.79,3.52-4.79C10.88,3.11,7,1.61,4.87,0H0V2C5.36,6.29,2.78,14.6,2.78,14.6Z" fill="#fff"/>
            <path d="M10.66,30.59a4.83,4.83,0,0,0-4.24,5.22,4.58,4.58,0,0,0,5.07,4l.18,0a4.83,4.83,0,0,0,4.24-5.22,4.58,4.58,0,0,0-5.06-4Z" fill="#fff"/>
            <path d="M41.88,11.68c2.33,0,4.23-2.35,4.23-5.23s-1.89-5.24-4.23-5.24-4.23,2.35-4.23,5.24S39.54,11.68,41.88,11.68Z" fill="#fff"/>
            <path d="M32.59,79.78,49.16,61.65,97,9.31h73V2.07H94.21L6.4,98.19V170H13V101.2L26.39,86.54" fill="#fff"/>
            <path d="M26.39,86.54h0C14.33,109.61,24,133.36,24,133.36,31.7,164,51.16,169.23,55.62,170h.92c0-6.75-14.12-14.6-14.12-14.6,3.52-16-10.47-21-10.47-21a24.4,24.4,0,0,0-2.63-24.26C34,108.28,37.08,98,37.08,98c.92-6.86-2.78-14.93-4.49-18.22" fill="#fff"/>
            <path d="M160.53,30.06S165,33.14,170,26.87v-13c-.65-.9-3.59-4.57-6.13-1,0,0-2.28,2.51.72,5.44,0,0-11,4.81-4,11.73Z" fill="#fff"/>
            <path d="M64.92,0c-3.72,8.31-7,11.18-9.1,12.11a1.19,1.19,0,0,1-1.44-1.7A86,86,0,0,0,57.75,0H51.46A53.77,53.77,0,0,1,34.81,31.4C19.79,43.32,7.08,46.46,0,47.21V53c4.25-1.08,9.5-2.76,11.48-3.38.42-.13.77.38.56.8C8.52,57.37,3.88,60.82,0,62.54V74.37L72.29,0Z" fill="#fff"/>
            <path d="M85.81,28.14c3,2,10.52,6.31,16.91,5.3a16.69,16.69,0,0,0,8.81-4.25,16,16,0,0,0,3.21-4.26,19.46,19.46,0,0,0,12.85,5.17,18.51,18.51,0,0,0,9-2.33S141.15,43.93,156.06,40c0,0,7.18,16.33,13.46,16.37V55.3c-.68-5.14-5.37-27.61-33.81-36.66,0,0-22-11.36-43.56,2.4" fill="#fff"/>
          </g>
        </g>
      </g>
    </g>
  </g>
</svg>
