<svg xmlns="http://www.w3.org/2000/svg" width="100%" viewBox="0 0 170 170">
  <g id="Camada_2" data-name="Camada 2">
    <g id="Camada_1-2" data-name="Camada 1">
      <g id="_1" data-name="1">
        <path d="M170,132.39V37.61c-19,0-34.37-16.84-34.37-37.61H34.37C34.37,20.78,19,37.61,0,37.61v94.77c19,0,34.37,16.84,34.37,37.61H135.63c0-20.77,15.39-37.61,34.37-37.61Z" fill="#231f20"/>
      </g>
      <g id="_2" data-name="2">
        <ellipse cx="85" cy="85" rx="35.24" ry="38.56" fill="#939598"/>
        <polygon points="85 146.96 109.19 169.99 60.81 169.99 85 146.96" fill="#939598"/>
        <polygon points="85 23.05 60.81 0.01 109.19 0.01 85 23.05" fill="#939598"/>
        <polygon points="21.05 85.34 0 111.8 0 58.87 21.05 85.34" fill="#939598"/>
        <polygon points="148.67 85.34 169.72 58.87 169.72 111.8 148.67 85.34" fill="#939598"/>
      </g>
      <g id="_3" data-name="3">
        <path d="M34.37,0H0V37.62C19,37.62,34.37,20.78,34.37,0Z" fill="#6d6e71"/>
        <path d="M0,132.39V170H34.37C34.37,149.22,19,132.39,0,132.39Z" fill="#6d6e71"/>
        <path d="M170,37.61V0H135.63c0,20.77,15.39,37.61,34.37,37.61Z" fill="#6d6e71"/>
        <path d="M170,132.39c-19,0-34.37,16.84-34.37,37.61H170Z" fill="#6d6e71"/>
      </g>
      <g id="_4" data-name="4">
        <path d="M102.75,73c-2.19,2.39-14.27,8.56-14.27,7.42,0-2.13,4.13-13.72,6.32-16.12a5.29,5.29,0,0,1,8,0A6.57,6.57,0,0,1,102.75,73Z" fill="#fff"/>
        <path d="M19.44,157.8c-2.19,2.4-14.27,8.56-14.27,7.42,0-2.12,4.13-13.72,6.32-16.12a5.29,5.29,0,0,1,8,0A6.57,6.57,0,0,1,19.44,157.8Z" fill="#fff"/>
        <path d="M149.3,14c2.19-2.39,14.27-8.55,14.27-7.41,0,2.12-4.13,13.72-6.32,16.11a5.29,5.29,0,0,1-7.95,0A6.57,6.57,0,0,1,149.3,14Z" fill="#fff"/>
        <path d="M95.78,104.53c-2.17-2.43-7.68-15.69-6.65-15.68,1.94,0,12.5,4.65,14.67,7.07a6.57,6.57,0,0,1-.08,8.7,5.29,5.29,0,0,1-8-.09Z" fill="#fff"/>
        <path d="M11.7,22.37C9.53,19.94,4,6.67,5.05,6.69c1.94,0,12.5,4.65,14.67,7.06a6.57,6.57,0,0,1-.08,8.7,5.27,5.27,0,0,1-8-.08Z" fill="#fff"/>
        <path d="M67.05,96.61c2.24-2.35,14.42-8.26,14.4-7.12,0,2.12-4.36,13.63-6.6,16a5.28,5.28,0,0,1-7.95-.16A6.57,6.57,0,0,1,67.05,96.61Z" fill="#fff"/>
        <path d="M74.56,65.25C76.69,67.72,82,81.1,80.93,81.07,79,81,68.52,76.17,66.38,73.7a6.56,6.56,0,0,1,.23-8.7A5.29,5.29,0,0,1,74.56,65.25Z" fill="#fff"/>
        <path d="M158.37,149.37c2.13,2.48,7.41,15.86,6.37,15.83-1.94-.07-12.41-4.91-14.55-7.38a6.57,6.57,0,0,1,.23-8.7,5.29,5.29,0,0,1,8,.25Z" fill="#fff"/>
        <polygon points="11.84 66.4 63.21 14.53 67.24 19.31 15.87 71.18 11.84 66.4" fill="#fff"/>
        <polygon points="99.96 151.38 151.33 99.51 155.36 104.28 103.99 156.15 99.96 151.38" fill="#fff"/>
        <polygon points="104.11 14.21 154.91 66.75 150.83 71.48 100.03 18.93 104.11 14.21" fill="#fff"/>
        <polygon points="19.31 99.18 70.11 151.73 66.03 156.45 15.23 103.91 19.31 99.18" fill="#fff"/>
      </g>
    </g>
  </g>
</svg>
