<svg xmlns="http://www.w3.org/2000/svg" width="100%" viewBox="0 0 170 170">
  <g id="Camada_2" data-name="Camada 2">
    <g id="Camada_1-2" data-name="Camada 1">
      <g id="_1" data-name="1">
        <polygon points="170 170 0 170 0 82.28 0 0 170 0 170 170" fill="#231f20"/>
      </g>
      <g id="_2" data-name="2">
        <path d="M3.59,101.63S35.66,120.39,0,170H170V0s-25.06,22.78-63,1.11c0,0-9.31,100.63,40.82,141,0,0-36.12-43.86-144.2-40.44Z" fill="#939598"/>
      </g>
      <g id="_3" data-name="3">
        <path d="M0,170s75.65-39.73,122.82-27.83c0,0,37.59,7.66,47.18,27.83Z" fill="#fff"/>
        <path d="M170,0s-28.89,46-25.43,87.53c0,0,.92,42.95,25.43,72Z" fill="#fff"/>
      </g>
    </g>
  </g>
</svg>
