<svg xmlns="http://www.w3.org/2000/svg" width="100%" viewBox="0 0 170 170">
  <g id="Camada_2" data-name="Camada 2">
    <g id="Camada_1-2" data-name="Camada 1">
      <g id="_1" data-name="1">
        <polygon points="170 0 170 170 82.28 170 0 170 0 0 170 0" fill="#231f20"/>
      </g>
      <g id="_2" data-name="2">
        <polygon points="41.84 130.56 0 85 0 170 41.84 130.56" fill="#fff"/>
        <polygon points="41.84 40.08 0 85 0 0 41.84 40.08" fill="#fff"/>
        <polygon points="88.23 85 41.84 130.56 87.22 170 132.59 129.64 88.23 85" fill="#fff"/>
        <polygon points="87.22 0 41.84 40.08 88.23 85 132.59 40.63 87.22 0" fill="#fff"/>
        <polygon points="170 85 132.59 129.64 170 170 170 85" fill="#fff"/>
        <polygon points="170 0 132.59 40.63 170 85 170 0" fill="#fff"/>
      </g>
    </g>
  </g>
</svg>
