<svg xmlns="http://www.w3.org/2000/svg" width="100%" viewBox="0 0 170.01 170.01">
  <g id="Camada_2" data-name="Camada 2">
    <g id="Camada_1-2" data-name="Camada 1">
      <g id="_1" data-name="1">
        <path d="M68.2,134l.35-.41.41-.34c7.05-5.84,9.79-19.79,10.6-28.13C47.93,94.38,31.69,63.7,29.17,58.59A72.69,72.69,0,0,1,18.59,26.83,92.08,92.08,0,0,0,0,28.75V170H53.31C52.82,151.77,67.57,134.74,68.2,134Z" fill="#231f20"/>
        <path d="M60.73,29.47A89.59,89.59,0,0,1,88,49.3a74.07,74.07,0,0,1,17.23,30.12c15.24-.08,30.6-10.71,31.92-11.65a59.63,59.63,0,0,1,32.67-12.35H170V0H28.5a91,91,0,0,0-1.7,17.75c13,1.14,24.45,5,33.94,11.72Z" fill="#231f20"/>
        <path d="M143.34,98.05l-.44.29-.47.23c-11.87,5.9-23.54,9.28-34.79,10.1a94.36,94.36,0,0,1-1.81,11.12,99.8,99.8,0,0,1-14.56,33.55A154.59,154.59,0,0,0,81.42,170h21.13s.74-28.43,39.62-27c0,0-8.66-30.45,27.83-37.92V87.54c-.25,0-.53,0-.87,0C162,87.5,149.51,94,143.34,98.05Z" fill="#231f20"/>
      </g>
      <g id="_2" data-name="2">
        <path d="M86.34,97.29a61.13,61.13,0,0,0,13.09,2A65.34,65.34,0,0,0,98,86.52H86.34Z" fill="#939598"/>
        <path d="M19.65,0H0V19.13a101.82,101.82,0,0,1,18.12-1.75A102.09,102.09,0,0,1,19.65,0Z" fill="#939598"/>
        <path d="M79.84,79.41H96.08C86,49.88,56.72,37.93,56.72,37.93,47.5,31.22,37,28.31,27.38,27.29a61.94,61.94,0,0,0,9.2,26.36S50.68,83.9,79.84,95.19Z" fill="#939598"/>
        <path d="M140.88,73.61s-16.47,12-34,12.85a75.77,75.77,0,0,1,1.2,12.66c9.32-.82,19.56-3.61,30.77-9.18,0,0,18-11.92,30.28-11.92.3,0,.57.06.87.07V62.52s-15.85.4-29.12,11.09Z" fill="#939598"/>
        <path d="M97.43,117.53a83.07,83.07,0,0,0,1.47-8.74,69.74,69.74,0,0,1-13-1.83c-.88,8-3.48,22.21-11.15,30.25a55.29,55.29,0,0,0-5.94,7.17c-4,5.88-9.35,15.76-9,25.63H71.7a153.11,153.11,0,0,1,12.58-22.24,90.49,90.49,0,0,0,13.15-30.24Z" fill="#939598"/>
        <path d="M142.17,143c-38.88-1.41-39.62,27-39.62,27H170V105.06C133.51,112.53,142.17,143,142.17,143Z" fill="#939598"/>
      </g>
      <g id="_3" data-name="3">
        <polygon points="19.65 0.01 28.49 0.01 28.49 0.01 19.65 0.01" fill="#939598"/>
        <polygon points="170 87.54 170 78.09 170 78.09 170 87.54 170 87.54" fill="#939598"/>
        <rect x="170" y="55.4" height="7.11" fill="#fff"/>
        <path d="M170,62.52V55.4h-.15c-.73,0-17.95.6-32.67,12.37-1.32.93-16.68,11.56-31.92,11.65A74.07,74.07,0,0,0,88,49.3a89.59,89.59,0,0,0-27.3-19.83c-9.49-6.69-20.9-10.58-33.94-11.72A92.57,92.57,0,0,1,28.49,0H19.65a100.88,100.88,0,0,0-1.53,17.37A101.82,101.82,0,0,0,0,19.12v9.63a92.83,92.83,0,0,1,18.59-1.92A72.69,72.69,0,0,0,29.17,58.59c2.51,5.11,18.75,35.79,50.39,46.55-.81,8.34-3.55,22.29-10.6,28.13l-.41.34-.35.41c-.63.72-15.38,17.75-14.89,36H59.8c-.35-9.87,5-19.74,9-25.63a56.25,56.25,0,0,1,5.94-7.17C82.41,129.16,85,115,85.89,107a69.62,69.62,0,0,0,13,1.83,83.5,83.5,0,0,1-1.47,8.74,90.67,90.67,0,0,1-13.15,30.24A153.11,153.11,0,0,0,71.7,170h9.72a157.28,157.28,0,0,1,9.85-16.66,99.88,99.88,0,0,0,14.56-33.55,94.36,94.36,0,0,0,1.81-11.12c11.25-.83,22.92-4.2,34.79-10.1l.47-.23.44-.29C149.51,94,162,87.5,169.13,87.5c.34,0,.62,0,.87,0V78.09c-.29,0-.57-.07-.87-.07-12.29,0-30.28,11.92-30.28,11.92-11.21,5.57-21.45,8.36-30.77,9.18a75.56,75.56,0,0,0-1.2-12.66c17.52-.81,34-12.85,34-12.85C154.14,62.92,170,62.52,170,62.52ZM36.58,53.64a61.85,61.85,0,0,1-9.2-26.36c9.61,1,20.12,3.92,29.34,10.64,0,0,29.3,11.95,39.36,41.48H79.84V95.18C50.68,83.89,36.58,53.64,36.58,53.64ZM86.34,97.29V86.52H98a65.42,65.42,0,0,1,1.4,12.8A61.13,61.13,0,0,1,86.34,97.29Z" fill="#fff"/>
      </g>
    </g>
  </g>
</svg>
