<svg xmlns="http://www.w3.org/2000/svg" width="100%" viewBox="0 0 170 170">
  <g id="Camada_2" data-name="Camada 2">
    <g id="Camada_1-2" data-name="Camada 1">
      <g id="_1" data-name="1">
        <polygon points="170 170 0 170 0 82.28 0 0 170 0 170 170" fill="#231f20"/>
      </g>
      <g id="_2" data-name="2">
        <path d="M41.26,54.14H17.89L3.87,38.8v-21l14-15.34H41.26l14,15.34v21Z" fill="#fff"/>
        <path d="M97.69,54.14H74.32L60.3,38.8v-21l14-15.34H97.69l14,15.34v21Z" fill="#fff"/>
        <path d="M153.06,54.14H129.69l-14-15.34v-21l14-15.34h23.37l14,15.34v21Z" fill="#fff"/>
        <path d="M41.26,111H17.89l-14-15.34v-21l14-15.35H41.26l14,15.35v21Z" fill="#fff"/>
        <path d="M97.69,111H74.32l-14-15.34v-21l14-15.35H97.69l14,15.35v21Z" fill="#fff"/>
        <path d="M153.06,111H129.69l-14-15.34v-21l14-15.35h23.37l14,15.35v21Z" fill="#fff"/>
        <path d="M41.26,167.89H17.89l-14-15.35v-21l14-15.34H41.26l14,15.34v21Z" fill="#fff"/>
        <path d="M97.69,167.89H74.32l-14-15.35v-21l14-15.34H97.69l14,15.34v21Z" fill="#fff"/>
        <path d="M153.06,167.89H129.69l-14-15.35v-21l14-15.34h23.37l14,15.34v21Z" fill="#fff"/>
      </g>
    </g>
  </g>
</svg>
