<svg xmlns="http://www.w3.org/2000/svg" width="100%" viewBox="0 0 170.13 170.03">
  <g id="Camada_2" data-name="Camada 2">
    <g id="Camada_1-2" data-name="Camada 1">
      <g id="_1" data-name="1">
        <path d="M97,9.31,49.15,61.64,32.58,79.77C34.29,83.06,38,91.13,37.07,98c0,0-3.06,10.28-7.76,12.13a24.4,24.4,0,0,1,2.63,24.26s14,5.08,10.47,21c0,0,14.12,7.85,14.12,14.6h18.7c-33.67-21.72-32.83-44.73-32.12-71.4,2.68-52.88,54.38-58.27,54.38-58.27C140.72,35.4,161.74,58.58,170,71.6V9.31H97Zm59.16,29.95c-14.59,3.85-19.22-11.45-19.22-11.45-12.4,6.57-22.17-2.88-22.17-2.88-1.69,5.14-11.08,8.49-11.08,8.49-8.08,1.29-18-5.81-18-5.81C108.74,5.82,136,19.18,136,19.18c31.77,9.48,33.62,35.57,33.62,35.57-6.2.2-13.46-15.48-13.46-15.48Zm13.46-12.48c-4.6,6.37-8.73,3.29-8.73,3.29-6.39-6.78,3.66-11.51,3.66-11.51-2.72-2.88-.66-5.34-.66-5.34,2.63-4,5.73,1.13,5.73,1.13Z" fill="#231f20"/>
        <path d="M24.05,133.35s-9.71-23.75,2.36-46.82L13,101.19V170h6.45c-.81-.66-4.09-3.59-.86-6.13,0,0,2.25-2.27,4.88.72,0,0,4.32-11,10.52-4,0,0,2.75,4.44-2.86,9.42H55.61c-4.46-.79-23.92-6-31.57-36.66Z" fill="#231f20"/>
      </g>
      <g id="_2" data-name="2">
        <path d="M17.57,2.72s.28,4.79-3.52,4.79c0,0,3.38,5.7,2.68,8.48,0,0-7.68,1.38-10.57-3.24,0,0,.14,3.08-3.38,1.85C2.78,14.6,5.36,6.29,0,2V24.32H25.33a3,3,0,0,0,2.85-3.12V0H4.88c2.17,1.6,6,3.1,12.7,2.7Z" fill="#939598"/>
        <polygon points="72.31 0.01 0.01 74.37 0.01 82.29 0.01 86.77 82.44 0.01 72.31 0.01" fill="#939598"/>
        <path d="M169.59,26.78V14.35s-3.1-5.15-5.73-1.13c0,0-2.07,2.46.66,5.34,0,0-10.05,4.73-3.66,11.51C160.86,30.07,165,33.16,169.59,26.78Z" fill="none" stroke="#231f20" stroke-miterlimit="10"/>
        <path d="M103.66,33.41s9.39-3.35,11.08-8.49c0,0,9.77,9.45,22.17,2.87,0,0,4.64,15.31,19.22,11.46,0,0,7.26,15.67,13.46,15.48,0,0-1.86-26.08-33.62-35.57,0,0-27.24-13.36-50.34,8.43,0,0,10,7.11,18,5.81Z" fill="none" stroke="#231f20" stroke-miterlimit="10"/>
        <path d="M163.86,13.21s-2.07,2.46.66,5.34c0,0-10.05,4.73-3.66,11.51,0,0,4.13,3.09,8.73-3.29V14.34S166.49,9.19,163.86,13.21Z" fill="none"/>
        <path d="M136,19.17S108.73,5.81,85.63,27.6c0,0,10,7.11,18,5.81,0,0,9.39-3.35,11.08-8.49,0,0,9.77,9.45,22.17,2.87,0,0,4.64,15.31,19.22,11.46,0,0,7.26,15.67,13.46,15.48,0,0-1.86-26.08-33.62-35.57Z" fill="none"/>
      </g>
      <g id="_3" data-name="3">
        <path d="M94.23,2.07H170V0H82.44L0,86.77V170H6.4V98.18C40.7,60.66,59.93,39.6,94.23,2.07Z" fill="#6d6e71"/>
        <path d="M51.46,0H32.06V25.32a2.87,2.87,0,0,1-2.73,3H0V47.2c7.07-.75,19.78-3.89,34.8-15.82A53.76,53.76,0,0,0,51.46,0Zm-9.57,1.2c2.33,0,4.23,2.35,4.23,5.24s-1.89,5.23-4.23,5.23-4.23-2.35-4.23-5.23S39.55,1.21,41.89,1.21ZM11.67,39.77a4.59,4.59,0,0,1-5.25-4,4.83,4.83,0,0,1,4.24-5.22,4.58,4.58,0,0,1,5.25,4A4.84,4.84,0,0,1,11.67,39.77Z" fill="#6d6e71"/>
        <path d="M12,50.45c.21-.42-.14-.93-.56-.8C9.5,50.28,4.26,52,0,53v9.51c3.86-1.72,8.51-5.17,12-12.09Z" fill="#6d6e71"/>
        <path d="M55.82,12.14C57.94,11.21,61.2,8.32,64.93,0H57.75a83.71,83.71,0,0,1-3.37,10.41C53.93,11.45,54.86,12.56,55.82,12.14Z" fill="#6d6e71"/>
        <path d="M158.17,156.94a.81.81,0,0,0-.81,1.06,91,91,0,0,0,4.14,12H170V159.33C164.19,157.92,160,157.22,158.17,156.94Z" fill="#6d6e71"/>
        <path d="M113.67,128.63l0,0c-23.16-11.7-28.92,3.24-30.12,7.93a.74.74,0,0,1-1.25.38c-13.17-13.59.65-25.59,3.76-28a.86.86,0,0,0,.17-1.11c-4.47-7.51-4.05-25.45-3.92-28.95a.82.82,0,0,1,.57-.77c11.57-3.33,23.14,2.35,25.51,3.62a.68.68,0,0,0,.82-.16c15.13-15.85,26.3-5.39,29.5-1.62a.84.84,0,0,1-.48,1.37,14.87,14.87,0,0,0-11,7.16,18.28,18.28,0,0,0-1.22,15.29c11.56,32.82,31.82,42.43,44.09,45.18v-6.46c-10.42-.74-12.54-14.78-12.86-17.74a.52.52,0,0,0-.58-.48c-12.45,1.17-12.86-10.33-12.86-10.33-.88-12.46,11-13.17,13.59-13.18a.55.55,0,0,0,.52-.56c.44-12.08-5.17-21-11.21-27.3a47,47,0,0,0-21.8-12.62C89.13,50.83,72.07,72.82,65,88a53.66,53.66,0,0,0-4.86,27.33c2.94,32.56,32.72,39.43,39.88,40.62a1.55,1.55,0,0,0,1.73-1.34c2-12.61,13.19-12.47,13.19-12.47,9.76.93,13.39,12.4,14.19,15.44a1,1,0,0,0,.93.75c13.83.22,15.19,10.44,15.3,11.73h5.1c-6.4-20.9-36.11-40.9-36.83-41.38Z" fill="#6d6e71"/>
        <path d="M51.07,97.51a4.34,4.34,0,0,0,6.13-1.94,5.13,5.13,0,0,0-2.51-6.42,4.34,4.34,0,0,0-6.13,1.94,5.13,5.13,0,0,0,2.5,6.42Z" fill="#6d6e71"/>
        <path d="M52.89,122.11a4.63,4.63,0,1,0,4.78,4.63A4.7,4.7,0,0,0,52.89,122.11Z" fill="#6d6e71"/>
        <path d="M68.62,68.84a4.83,4.83,0,0,0,4.24-5.22,4.57,4.57,0,0,0-5.25-4,4.83,4.83,0,0,0-4.24,5.22A4.57,4.57,0,0,0,68.62,68.84Z" fill="#6d6e71"/>
        <path d="M97.55,55.27a4.83,4.83,0,0,0,4.24-5.22,4.57,4.57,0,0,0-5.25-4,4.83,4.83,0,0,0-4.24,5.22A4.57,4.57,0,0,0,97.55,55.27Z" fill="#6d6e71"/>
        <path d="M134.06,58.12c2.08-1.16,2.8-4.18,1.6-6.77s-3.86-3.72-5.94-2.56-2.8,4.18-1.6,6.77S132,59.28,134.06,58.12Z" fill="#6d6e71"/>
        <path d="M158.09,77.33c2.26-.65,3.54-3.44,2.87-6.23s-3.05-4.53-5.31-3.88-3.54,3.45-2.87,6.24S155.83,78,158.09,77.33Z" fill="#6d6e71"/>
        <path d="M167.92,96.48c-2.26.66-3.54,3.45-2.87,6.24s2.81,4.32,5,3.93V96.55a3.54,3.54,0,0,0-2.09-.07Z" fill="#6d6e71"/>
        <path d="M71.82,151a5,5,0,0,0-3.55,5.8,4.46,4.46,0,0,0,5.7,3.14,5,5,0,0,0,3.55-5.8A4.45,4.45,0,0,0,71.82,151Z" fill="#6d6e71"/>
        <path d="M105.6,167.66a4.46,4.46,0,0,0-5.7-3.15A5,5,0,0,0,96.31,170h9.2a4.57,4.57,0,0,0,.09-2.35Z" fill="#6d6e71"/>
      </g>
      <g id="_4" data-name="4">
        <path d="M158.17,156.94c1.86.28,6,1,11.84,2.39V149c-12.27-2.75-32.53-12.36-44.09-45.18a18.28,18.28,0,0,1,1.22-15.29,15,15,0,0,1,11-7.16.84.84,0,0,0,.48-1.37c-3.2-3.76-14.37-14.23-29.5,1.62a.68.68,0,0,1-.82.16c-2.37-1.27-13.94-6.95-25.51-3.62a.82.82,0,0,0-.57.77c-.13,3.5-.55,21.44,3.92,29A.86.86,0,0,1,86,109c-3.11,2.42-16.93,14.4-3.76,28a.74.74,0,0,0,1.25-.37c1.2-4.7,7-19.63,30.12-7.94,0,0,0,0,.05,0,.72.48,30.42,20.47,36.83,41.37h11a92.54,92.54,0,0,1-4.14-12,.81.81,0,0,1,.81-1.06Z" fill="#fff"/>
        <path d="M130.09,158.28a1,1,0,0,1-.93-.75c-.8-3.05-4.43-14.51-14.19-15.44,0,0-11.21-.14-13.19,12.47a1.55,1.55,0,0,1-1.73,1.34c-7.16-1.19-36.94-8.06-39.88-40.62A53.66,53.66,0,0,1,65,88c7-15.11,24.09-37.11,59.79-27.68a46.91,46.91,0,0,1,21.8,12.62c6,6.25,11.65,15.23,11.21,27.3a.55.55,0,0,1-.52.56c-2.59,0-14.47.72-13.59,13.18,0,0,.41,11.5,12.86,10.33a.52.52,0,0,1,.58.48c.33,3,2.44,17,12.86,17.74V106.64c-2.15.38-4.32-1.28-5-3.93s.61-5.58,2.87-6.24a3.46,3.46,0,0,1,2.09.07v-25c-8.26-13-29.28-36.2-72.51-31.27,0,0-51.7,5.4-54.38,58.28-.7,26.66-1.55,49.68,32.12,71.4H96.32a5,5,0,0,1,3.59-5.51,4.48,4.48,0,0,1,5.7,3.14,4.6,4.6,0,0,1-.09,2.36H145.4c-.12-1.3-1.47-11.52-15.3-11.73Zm25.56-91.07c2.26-.66,4.63,1.08,5.31,3.87s-.61,5.59-2.87,6.24-4.63-1.08-5.31-3.87S153.39,67.87,155.65,67.21ZM129.72,48.79c2.08-1.16,4.74,0,5.94,2.56s.48,5.61-1.6,6.77-4.74,0-5.94-2.56S127.64,50,129.72,48.79Zm-33.18-2.7a4.58,4.58,0,0,1,5.25,4,4.84,4.84,0,0,1-4.24,5.22,4.58,4.58,0,0,1-5.25-4A4.83,4.83,0,0,1,96.54,46.09ZM67.61,59.66a4.58,4.58,0,0,1,5.25,4,4.84,4.84,0,0,1-4.24,5.22,4.58,4.58,0,0,1-5.25-4A4.83,4.83,0,0,1,67.61,59.66Zm-19,31.44a4.34,4.34,0,0,1,6.13-1.94,5.14,5.14,0,0,1,2.51,6.43,4.34,4.34,0,0,1-6.13,1.93,5.11,5.11,0,0,1-2.5-6.42Zm4.32,40.27a4.63,4.63,0,1,1,4.78-4.63A4.7,4.7,0,0,1,52.89,131.37ZM74,159.9a4.48,4.48,0,0,1-5.7-3.14,5,5,0,0,1,3.55-5.8,4.47,4.47,0,0,1,5.7,3.14A5,5,0,0,1,74,159.9Z" fill="#fff"/>
        <path d="M34,160.59c-6.2-7-10.52,4-10.52,4-2.63-3-4.88-.72-4.88-.72-3.24,2.54.05,5.48.86,6.13H31.15c5.62-5,2.86-9.42,2.86-9.42Z" fill="#fff"/>
        <path d="M32.06,25.33V0H28.19V21.19a3,3,0,0,1-2.85,3.11H0v4H29.33a2.87,2.87,0,0,0,2.73-3Z" fill="#fff"/>
        <path d="M2.78,14.6c3.52,1.23,3.38-1.85,3.38-1.85C9,17.37,16.73,16,16.73,16c.7-2.78-2.68-8.48-2.68-8.48,3.8,0,3.52-4.79,3.52-4.79C10.88,3.11,7,1.61,4.87,0H0V2C5.36,6.29,2.78,14.6,2.78,14.6Z" fill="#fff"/>
        <path d="M10.66,30.59a4.83,4.83,0,0,0-4.24,5.22,4.58,4.58,0,0,0,5.25,4,4.83,4.83,0,0,0,4.24-5.22A4.57,4.57,0,0,0,10.66,30.59Z" fill="#fff"/>
        <path d="M41.89,11.68c2.33,0,4.23-2.35,4.23-5.23s-1.89-5.24-4.23-5.24-4.23,2.35-4.23,5.24S39.55,11.68,41.89,11.68Z" fill="#fff"/>
        <path d="M94.23,2.07,6.4,98.19V170H13V101.2l13.4-14.66h0c-12.07,23.07-2.36,46.82-2.36,46.82C31.71,164,51.17,169.23,55.63,170h.92c0-6.75-14.12-14.6-14.12-14.6,3.52-16-10.47-21-10.47-21a24.4,24.4,0,0,0-2.63-24.26C34,108.28,37.09,98,37.09,98c.92-6.86-2.78-14.93-4.49-18.22L49.17,61.65,97,9.31h73V2.07Z" fill="#fff"/>
        <path d="M64.94,0c-3.73,8.31-7,11.18-9.11,12.11-1,.43-1.89-.68-1.44-1.7A84.27,84.27,0,0,0,57.76,0H51.47A53.77,53.77,0,0,1,34.82,31.4C19.79,43.32,7.08,46.46,0,47.21V53c4.25-1.08,9.5-2.76,11.48-3.38.42-.13.77.38.56.8C8.52,57.37,3.88,60.82,0,62.54V74.37L72.31,0H64.94Z" fill="#fff"/>
      </g>
    </g>
  </g>
</svg>
