<svg xmlns="http://www.w3.org/2000/svg" width="100%" viewBox="0 0 170.01 170.01">
  <g id="Camada_2" data-name="Camada 2">
    <g id="Camada_1-2" data-name="Camada 1">
      <g id="_1" data-name="1">
        <polygon points="170.01 170 0.01 170 0.01 82.27 0.01 0 170.01 0 170.01 170" fill="#231f20"/>
        <path d="M84.75,136.78c.3,0,.6-.06.88-.1H82.92a4.93,4.93,0,0,0,1.82.1Z" fill="none" stroke="#231f20" stroke-miterlimit="10"/>
        <polygon points="86.7 71.33 73.35 82.81 85.24 96.04 97.13 84.47 86.7 71.33" fill="none" stroke="#231f20" stroke-miterlimit="10"/>
      </g>
      <g id="_2" data-name="2">
        <path d="M14.57,14.56V153.62H155.45V14.56ZM140.8,136.68H85.63c-.29,0-.58.08-.88.1a4.93,4.93,0,0,1-1.82-.1H29.68V29.29H140.8Z" fill="#939598"/>
        <path d="M97.52,122.33s5.13-2,5.14-7.16c0,0-.32-2.61-3.94-4.77,0,0-3.59.16-2.78-7.31l.17-2.81s-.47-2.87,3.6-2.77l5.8-.31c5.42-.81,6.4,2.49,6.4,2.49.22,8.47,5.18,7.16,5.18,7.16,2.84-.85,3.78-5.92,3.78-5.92C137,96,135.58,86.65,135.58,86.65c-.72-10.78-13.21-14-13.21-14s-1.84-5.62-6.54-5.63c0,0-2.39.35-4.36,4.31,0,0,.15,3.93-6.68,3L99.35,74a3,3,0,0,1-3-3.35l-.28-6.35c-.74-5.93,2.27-7,2.27-7,7.74-.24,6.55-5.67,6.55-5.67-.78-3.11-5.41-4.13-5.41-4.13-4.51-17.67-13-16.1-13-16.1-9.85.79-12.77,14.45-12.77,14.45s-5.13,2-5.14,7.16c0,0,.32,2.62,3.94,4.77,0,0,3.59-.16,2.78,7.31l-.17,2.7c.15,3.52-3.61,2.87-3.61,2.87l-5.8.31c-5.42.81-6.4-2.48-6.4-2.48C59,60,54.07,61.32,54.07,61.32c-2.84.85-3.78,5.92-3.78,5.92C34.15,72.17,35.58,81.52,35.58,81.52c.72,10.78,13.21,14,13.21,14s1.84,5.62,6.54,5.63c0,0,2.39-.35,4.36-4.31,0,0-.15-3.93,6.68-3l5.44.4s2.85-.22,3,3.35l.28,6.35c.74,5.93-2.27,7-2.27,7-7.74.24-6.55,5.67-6.55,5.67.78,3.11,5.41,4.14,5.41,4.14,3.21,12.58,8.47,15.4,11.23,16h2.71c9.14-1.49,11.89-14.34,11.89-14.34ZM73.35,82.8,86.7,71.33,97.12,84.46,85.23,96,73.34,82.8Z" fill="#939598"/>
      </g>
      <g id="_3" data-name="3">
        <path d="M29.68,81.27v55.42H82.93c-2.76-.58-8-3.41-11.23-16,0,0-4.62-1-5.41-4.14,0,0-1.19-5.43,6.55-5.67,0,0,3-1.06,2.27-7l-.28-6.35c-.16-3.56-3-3.35-3-3.35l-5.44-.4c-6.83-.89-6.68,3-6.68,3-2,4-4.36,4.31-4.36,4.31-4.7,0-6.54-5.62-6.54-5.62s-12.49-3.2-13.21-14c0,0-1.43-9.36,14.71-14.28,0,0,.94-5.06,3.78-5.92,0,0,5-1.3,5.18,7.17,0,0,1,3.28,6.4,2.48l5.8-.3s3.76.64,3.61-2.88l.17-2.7c.81-7.47-2.78-7.31-2.78-7.31C68.83,55.65,68.52,53,68.52,53c0-5.14,5.14-7.15,5.14-7.15s2.92-13.67,12.77-14.46c0,0,8.55-1.57,13,16.1,0,0,4.62,1,5.41,4.13,0,0,1.19,5.43-6.55,5.67,0,0-3,1.06-2.27,7l.28,6.34a3,3,0,0,0,3,3.35l5.44.41c6.83.88,6.68-3,6.68-3,2-4,4.36-4.32,4.36-4.32,4.7,0,6.54,5.63,6.54,5.63s12.49,3.19,13.21,14c0,0,1.43,9.36-14.71,14.29,0,0-.94,5.05-3.78,5.92,0,0-5,1.3-5.18-7.17,0,0-1-3.29-6.4-2.49l-5.8.31c-4.07-.11-3.6,2.77-3.6,2.77L96,103.11c-.81,7.48,2.78,7.31,2.78,7.31,3.63,2.16,3.94,4.77,3.94,4.77,0,5.15-5.14,7.16-5.14,7.16S94.78,135.2,85.64,136.7h55.17V29.29H29.68v52Z" fill="#6d6e71"/>
      </g>
      <g id="_4" data-name="4">
        <g>
          <path d="M74.63,0H59.22C58.56,32.5,33.05,58.64,1.66,58.64c-.56,0-1.11,0-1.66,0v16c.55,0,1.1,0,1.66,0C41.56,74.67,74,41.36,74.63,0Z" fill="#fff"/>
          <path d="M170,74.67v-16c-31.39,0-56.9-26.14-57.56-58.64H97C97.7,41.36,130.1,74.67,170,74.67Z" fill="#fff"/>
          <path d="M1.67,88.93c-.56,0-1.1,0-1.66,0v16c.55,0,1.1,0,1.66,0,31.81,0,57.59,26.82,57.59,59.92,0,1.73-.09,3.42-.22,5.12H74.49c.11-1.7.18-3.39.18-5.12C74.67,122.93,42,88.93,1.67,88.93Z" fill="#fff"/>
          <path d="M112.42,164.89c0-33.1,25.78-59.92,57.59-59.92v-16c-40.32,0-73,34-73,75.95,0,1.72.08,3.42.18,5.12h15.45C112.5,168.32,112.42,166.62,112.42,164.89Z" fill="#fff"/>
        </g>
      </g>
    </g>
  </g>
</svg>
