<svg xmlns="http://www.w3.org/2000/svg" width="100%" viewBox="0 0 170 170">
  <g id="Camada_2" data-name="Camada 2">
    <g id="Camada_1-2" data-name="Camada 1">
      <g id="_1" data-name="1">
        <polygon points="42.7 56.67 58.01 85 85.07 85 69.75 56.67 42.7 56.67" fill="#231f20"/>
        <polygon points="42.72 0.04 58.01 28.33 85.07 28.33 69.76 0.02 69.75 0.04 42.72 0.04" fill="#231f20"/>
        <polygon points="42.72 0 42.7 0 42.71 0.02 42.72 0" fill="#231f20"/>
        <polygon points="42.72 0.04 69.75 0.04 69.76 0.02 69.75 0 42.72 0 42.71 0.02 42.72 0.04" fill="#231f20"/>
        <polygon points="42.7 113.33 58.01 141.67 85.07 141.67 69.75 113.33 42.7 113.33" fill="#231f20"/>
        <polygon points="27.38 28.33 0.32 28.33 15.64 56.67 42.7 56.67 27.38 28.33" fill="#231f20"/>
        <polygon points="42.68 0.02 42.67 0.04 42.7 0.04 42.68 0.02" fill="#231f20"/>
        <polygon points="42.67 0.04 42.68 0.02 42.67 0 15.64 0 15.63 0.02 15.64 0.04 42.67 0.04" fill="#231f20"/>
        <polygon points="27.38 85 0.32 85 15.64 113.33 42.7 113.33 27.38 85" fill="#231f20"/>
        <polygon points="127.44 56.67 142.76 85 169.82 85 154.5 56.67 127.44 56.67" fill="#231f20"/>
        <polygon points="169.82 28.04 169.82 28.33 169.82 28.37 170 28.37 169.82 28.04" fill="#231f20"/>
        <polygon points="169.8 28.37 169.82 28.37 169.82 28.33 169.8 28.37" fill="#231f20"/>
        <polygon points="127.63 0.04 142.92 28.33 169.82 28.33 169.82 28.04 154.68 0.04 127.63 0.04" fill="#231f20"/>
        <polygon points="142.94 28.37 169.8 28.37 169.82 28.33 142.92 28.33 142.94 28.37" fill="#231f20"/>
        <polygon points="127.44 113.33 142.76 141.67 169.82 141.67 154.5 113.33 127.44 113.33" fill="#231f20"/>
        <polygon points="85.25 28.37 85.27 28.33 85.07 28.33 100.39 56.67 127.44 56.67 112.15 28.37 85.25 28.37" fill="#231f20"/>
        <polygon points="85.07 85 100.39 113.33 127.44 113.33 112.13 85 85.07 85" fill="#231f20"/>
        <polygon points="0.32 141.67 15.64 170 42.7 170 27.38 141.67 0.32 141.67" fill="#231f20"/>
        <polygon points="85.07 141.67 100.39 170 127.44 170 112.13 141.67 85.07 141.67" fill="#231f20"/>
      </g>
      <g id="_2" data-name="2">
        <polygon points="85.07 141.67 100.39 113.33 85.07 85 69.75 113.33 85.07 141.67" fill="#fff"/>
        <polygon points="85.27 28.33 100.57 0.04 100.56 0.02 69.76 0.02 85.07 28.33 85.27 28.33" fill="#fff"/>
        <polygon points="127.64 0.02 127.62 0.02 127.63 0.04 127.64 0.02" fill="#fff"/>
        <polygon points="85.07 141.67 69.75 170 100.39 170 85.07 141.67" fill="#fff"/>
        <polygon points="0.32 141.67 15.64 113.33 0.32 85 15.64 56.67 0.32 28.33 15.63 0.02 12.37 0.02 0 0.02 0 88.87 0 170 15.64 170 0.32 141.67" fill="#fff"/>
        <polygon points="42.7 170 58.01 141.67 42.7 113.33 27.38 141.67 42.7 170" fill="#fff"/>
        <polygon points="127.44 170 142.76 141.67 127.44 113.33 112.13 141.67 127.44 170" fill="#fff"/>
        <polygon points="112.15 28.37 127.44 56.67 142.76 28.33 142.92 28.33 127.63 0.04 112.31 28.37 112.15 28.37" fill="#fff"/>
        <polygon points="169.82 28.04 169.82 0.02 154.69 0.02 154.68 0.04 169.82 28.04" fill="#fff"/>
        <polygon points="127.44 113.33 142.76 85 127.44 56.67 112.13 85 127.44 113.33" fill="#fff"/>
        <polygon points="42.7 0 42.68 0.02 42.71 0.02 42.7 0" fill="#fff"/>
        <polygon points="42.71 0.02 42.68 0.02 42.7 0.04 42.71 0.02" fill="#fff"/>
        <polygon points="27.38 28.33 42.7 56.67 58.01 28.33 42.72 0.04 42.7 0.04 42.67 0.04 27.38 28.33" fill="#fff"/>
        <polygon points="154.5 170 169.82 170 169.82 141.67 154.5 170" fill="#fff"/>
        <polygon points="85.07 85 100.39 56.67 85.07 28.33 69.75 56.67 85.07 85" fill="#fff"/>
        <polygon points="42.7 113.33 58.01 85 42.7 56.67 27.38 85 42.7 113.33" fill="#fff"/>
        <polygon points="154.5 113.33 169.82 141.67 169.82 85 154.5 113.33" fill="#fff"/>
        <polygon points="169.8 28.37 154.5 56.67 169.82 85 169.82 28.37 169.8 28.37" fill="#fff"/>
      </g>
      <g id="_3" data-name="3">
        <polygon points="42.7 56.67 69.75 56.67 85.07 28.33 58.01 28.33 42.7 56.67" fill="#939598"/>
        <polygon points="42.7 56.67 15.64 56.67 0.32 85 27.38 85 42.7 56.67" fill="#939598"/>
        <polygon points="42.71 0.02 42.7 0.04 42.72 0.04 42.71 0.02" fill="#939598"/>
        <polygon points="42.7 113.33 69.75 113.33 85.07 85 58.01 85 42.7 113.33" fill="#939598"/>
        <polygon points="42.67 0.04 15.64 0.04 15.63 0.02 0.32 28.33 27.38 28.33 42.67 0.04" fill="#939598"/>
        <polygon points="42.7 0 42.67 0 42.68 0.02 42.7 0" fill="#939598"/>
        <polygon points="42.7 113.33 15.64 113.33 0.32 141.67 27.38 141.67 42.7 113.33" fill="#939598"/>
        <polygon points="142.92 28.33 142.76 28.33 127.44 56.67 154.5 56.67 169.8 28.37 142.94 28.37 142.92 28.33" fill="#939598"/>
        <polygon points="85.07 85 112.13 85 127.44 56.67 100.39 56.67 85.07 85" fill="#939598"/>
        <polygon points="127.44 113.33 154.5 113.33 169.82 85 142.76 85 127.44 113.33" fill="#939598"/>
        <polygon points="112.15 28.37 112.31 28.37 127.63 0.04 100.57 0.04 85.27 28.33 112.13 28.33 112.15 28.37" fill="#939598"/>
        <polygon points="112.15 28.37 112.13 28.33 85.27 28.33 85.25 28.37 112.15 28.37" fill="#939598"/>
        <polygon points="85.07 141.67 112.13 141.67 127.44 113.33 100.39 113.33 85.07 141.67" fill="#939598"/>
        <polygon points="42.7 170 69.75 170 85.07 141.67 58.01 141.67 42.7 170" fill="#939598"/>
        <polygon points="127.44 170 154.5 170 169.82 141.67 142.76 141.67 127.44 170" fill="#939598"/>
      </g>
    </g>
  </g>
</svg>
