<svg xmlns="http://www.w3.org/2000/svg" width="100%" viewBox="0 0 170.03 170.98">
  <g id="Camada_2" data-name="Camada 2">
    <g id="Camada_1-2" data-name="Camada 1">
      <g id="Camada_2-2" data-name="Camada 2">
        <g id="Camada_1-2-2" data-name="Camada 1-2">
          <g id="_1" data-name=" 1">
            <path d="M118.11,121.34h-.06c6.58,21-4.28,47.78-4.81,49.08v.06H124.3a4.57,4.57,0,0,1-1.09-4.36,4.81,4.81,0,0,1,3-3.5c13.3-4,10.67-14.18,10.67-14.18,0-6.11-12.07-8.54-12.07-8.54a28.76,28.76,0,0,0,1.78-12.29,18.52,18.52,0,0,0,6.18,1.35,49.76,49.76,0,0,0,5.32.16c0,.34.08.63.11,1A15.33,15.33,0,0,0,139,134c3,7.73,15.19,8.31,18.93.86a8.76,8.76,0,0,0,1-4.47c6-6.72,11.09-2.94,11.09-2.94v-10H170c-39.11,10.69-50.95,4.39-51.8,3.89Z" fill="#231f20"/>
            <path d="M52.4.5V2.05C52.44,31.54,29.05,55.49,0,56V83.27L82.68.5Z" fill="#231f20"/>
            <path d="M63.05,96.19h0l.37-.28c.47,0,.93-.11,1.4-.14.83,0,1.63-.07,2.43-.08h0a69.35,69.35,0,0,0,.44-20.84l-.39-.72a3,3,0,0,1,0-1.52,44.2,44.2,0,0,0-1.11-4.36h.06c.65.39,8,4.26,29.42,1A74.09,74.09,0,0,1,97.2,56.31a2.7,2.7,0,0,1,.17-.6C66.58,62.64,56.8,57.44,56,57h0a41.56,41.56,0,0,1,1.11,4.36,2.8,2.8,0,0,0,0,1.52l.39.72c2.16,14.33-2,29.79-4.51,37.53h0a40.55,40.55,0,0,1,4.12-2.31,17.13,17.13,0,0,0,6-2.62Z" fill="#231f20"/>
            <polygon points="160.79 0.5 104.03 0.5 104.03 0.5 160.79 0.5 160.79 0.5" fill="none" stroke="#231f20" stroke-miterlimit="10"/>
            <polygon points="167.11 0.5 167.11 0.5 160.79 0.5 160.79 0.5 167.11 0.5" fill="none" stroke="#231f20" stroke-miterlimit="10"/>
            <path d="M118.11,121.34l-.09-.07v.06h.09Z" fill="none" stroke="#231f20" stroke-miterlimit="10"/>
          </g>
          <g id="_2" data-name=" 2">
            <path d="M52.44,2.05V.5H44c0,.52.07,1,.07,1.55A45.25,45.25,0,0,1,0,47.53V56c29-.5,52.42-24.44,52.42-53.94Z" fill="#939598"/>
            <polygon points="100.69 0.5 87.72 0.5 82.67 0.5 0.02 83.27 0.02 101.21 100.69 0.5" fill="#939598"/>
            <path d="M159.59,35.57c.52,6,2,14.52,7.56,28.83,0,0,.2,4-3.82,2.3,0,0-7.37-16.84-8.78-19.52,0,0-9.47-15.39-20.46-2.68,0,0-8.47,11.79,7.76,17.78,0,0,12.8,3.87,17.64,11.24,0,0,1.31,3.78-2.63,3.22,0,0-10.58-5.34-13.92-7,0,0-16.74-10.5-19.76,4.79,0,0-1.71,10.23,14.93,9,0,0,8.2-.86,13.3.6,1.58-1.65,7.8-6.94,18.38-.86l-.13-56.08S159.47,25,159.58,35.53Z" fill="#939598"/>
            <path d="M83,141.49c1.31-15.19-9.88-13.63-9.88-13.63-16.74,2.75-5.24,18-5.24,18l7.66,12.72c.6,3.59-3.53,2.4-3.53,2.4-8.06-4.42-12.29-16.12-12.29-16.12-6.56-14.83-19.46-7.09-19.46-7.09-13.91,10,2.94,18.7,2.94,18.7,2.93,1.29,21.35,8,21.35,8C66.47,168.21,62,168,62,168c-15.66-5.06-25-6.44-31.56-6.91-11.5-.11-9.13,9.2-9.13,9.2l58.16.11C73.22,158.22,81,151.88,81,151.88c.65-.4,1.31-.77,2-1.11a41.32,41.32,0,0,1,0-9.3Z" fill="#939598"/>
            <path d="M95.66,69.25c-21.47,3.27-28.77-.6-29.42-1h-.06a40.94,40.94,0,0,1,1.11,4.36,2.8,2.8,0,0,0,0,1.52l.39.72a69.68,69.68,0,0,1-.43,20.84h0a60.79,60.79,0,0,1,24.65,4.74h0c.83.35,1.63.71,2.41,1.08h.1q1.16.54,2.25,1.11l.12.06c.71.37,1.41.75,2.08,1.14l.14.08c.67.38,1.3.77,1.92,1.15l.15.09c.61.38,1.21.77,1.78,1.15l.13.09c.57.39,1.13.77,1.65,1.15l.11.08c.54.38,1,.77,1.53,1.14h.07c.49.38,1,.76,1.42,1.13-.32-.45-.63-.93-1-1.42l-.2-.3-1-1.52-.11-.19c-.31-.51-.61-1-.92-1.56,0-.07-.08-.13-.11-.2-.33-.58-.65-1.18-1-1.79a2.26,2.26,0,0,1-.11-.22c-.67-1.28-1.34-2.62-2-4l-.07-.14a67.38,67.38,0,0,1-5.75-29.39Z" fill="#939598"/>
          </g>
          <g id="_3" data-name=" 3">
            <path d="M152.69,4.58C132.1,15.47,103.56,34,97.37,55.72c-.05.2-.13.4-.17.6a74.09,74.09,0,0,0-1.53,12.93l.73-.11a10,10,0,0,1-.56,1.4,3.21,3.21,0,0,1-.19.31,66.93,66.93,0,0,0,5.78,27.78.19.19,0,0,0,.07.14,43.85,43.85,0,0,0,2,4c0,.07.07.14.11.22.32.61.65,1.21,1,1.79,0,.07.08.13.11.2.31.54.61,1.06.92,1.56l.11.19c.32.52.64,1,1,1.52l.2.3a12.4,12.4,0,0,0,1,1.42c-.45-.37-.93-.75-1.42-1.13h-.07c-.48-.37-1-.76-1.53-1.14l-.11-.08c-.52-.38-1.08-.76-1.65-1.15l-.13-.09c-.57-.38-1.17-.77-1.79-1.15l-.14-.09c-.62-.39-1.27-.77-1.92-1.15l-.15-.08c-.66-.38-1.36-.76-2.07-1.14l-.12-.06q-1.09-.57-2.25-1.11h-.1c-.78-.37-1.58-.73-2.41-1.08h0a60.79,60.79,0,0,0-24.65-4.74h0c-.8,0-1.61,0-2.43.08-.47,0-.93.1-1.4.14l-.37.28a17.13,17.13,0,0,1-6,2.62A39.88,39.88,0,0,0,53,101.14c-9.09,5.65-31.59,22.61-50.48,61.12C1.64,164,.82,165.7,0,167.47v3H18c-.6-8-.57-21.38,4.69-31.83,5.36-10.67,14.08-19.58,31.55-25.92,0,0,54-13.49,55.67,33.16,0,0-.38,10.08-9.41,14.37,0,0-4.84-15.77-17.48-9.47a19.53,19.53,0,0,0-2,1.11s-7.82,6.34-1.53,18.54h33.64l.08-.06c.53-1.29,11.38-28.14,4.82-49.08v-.06l.09.07c.85.5,12.69,6.8,51.8-3.89l.07-.09V83.42l-.18-.09c-10.57-6.08-16.8-.8-18.38.86-.26.28-.4.46-.4.46-8.92,14.79,8.24,20.39,8.24,20.39-4.24,9.47-14.17,9.87-14.17,9.87-46-1.78-34.55-57.3-34.55-57.3,6.25-18.31,16.9-28.47,27.45-34.1s24.2-5.51,32-4.86V.54h-9.25c-2.47,1.21-5.17,2.57-8,4.08Z" fill="#6d6e71"/>
          </g>
          <g id="_4" data-name=" 4">
            <path d="M170,153.9c-10,0-18.14,7.42-18.14,16.58H170Z" fill="#d1d3d4"/>
            <path d="M138,23.47c-10.52,5.62-21.16,15.79-27.42,34.1,0,0-11.44,55.53,34.55,57.3,0,0,9.93-.4,14.17-9.87,0,0-17.17-5.6-8.24-20.39,0,0,.14-.18.4-.46-5.09-1.46-13.3-.6-13.3-.6-16.63,1.2-14.92-9-14.92-9,3-15.3,19.76-4.79,19.76-4.79,3.32,1.66,13.91,7,13.91,7,3.93.55,2.63-3.22,2.63-3.22C154.7,66.17,141.9,62.3,141.9,62.3c-16.22-6-7.76-17.78-7.76-17.78,11-12.71,20.46,2.68,20.46,2.68,1.41,2.68,8.78,19.52,8.78,19.52,4,1.75,3.83-2.3,3.83-2.3-5.54-14.31-7.05-22.88-7.56-28.83-.1-10.5,10.07-8.34,10.07-8.34l.14,56.08.17.09V18.6c-7.77-.68-21.41-.81-32,4.86Z" fill="#d1d3d4"/>
            <path d="M21.36,170.33S19,161,30.48,161.12C37,161.59,46.38,163,62,168c0,0,4.44.18,2.52-3.5,0,0-18.42-6.73-21.36-8,0,0-16.84-8.66-2.93-18.7,0,0,12.9-7.74,19.46,7.09,0,0,4.23,11.7,12.29,16.12,0,0,4.14,1.2,3.53-2.4,0,0-5.85-9.67-7.66-12.72,0,0-11.49-15.3,5.24-18,0,0,11.19-1.57,9.88,13.63a41.32,41.32,0,0,0,0,9.3c12.63-6.3,17.48,9.47,17.48,9.47,9-4.3,9.41-14.37,9.41-14.37-1.7-46.66-55.67-33.16-55.67-33.16C36.75,119.07,28,128,22.67,138.64c-5.26,10.45-5.3,23.85-4.69,31.83H79.51l-58.17-.11Z" fill="#d1d3d4"/>
          </g>
          <g id="_5" data-name=" 5">
            <path d="M26.63,8.89c-5,.64-5.65,4-5.65,4-1.25,6.13,4.55,8,4.55,8,4,1.85,3.67,5,2.83,7.06a5.92,5.92,0,0,1-3.49,3.37c-5.1,1.85-7.87-4-7.87-4a6,6,0,0,0-6.91-4.38C3.49,23.76,6,33.16,6,33.16c.77,6.84-6,7.37-6,7.37v7A45.29,45.29,0,0,0,44.11,2,11.71,11.71,0,0,0,44,.45H38.59c.47,8.67-12,8.39-12,8.39Z" fill="#414042"/>
            <path d="M16.55,2.05A11.71,11.71,0,0,0,16.48.5H0V19.67A17.57,17.57,0,0,0,16.56,2.05Z" fill="#414042"/>
          </g>
          <g id="_6" data-name=" 6">
            <path d="M0,101.21v66.24c.81-1.77,1.63-3.52,2.46-5.21C21.37,123.73,43.87,106.77,53,101.12c2.56-7.74,6.67-23.2,4.51-37.53l-.39-.72a3,3,0,0,1,0-1.52A44.25,44.25,0,0,0,56,57h0c.76.45,10.53,5.66,41.34-1.27C103.57,34,132.1,15.47,152.69,4.58c2.87-1.52,5.57-2.88,8-4.08h-60Z" fill="#fff"/>
            <path d="M158.89,130.4a8.76,8.76,0,0,1-1,4.47c-3.74,7.45-15.94,6.86-18.93-.86a14.66,14.66,0,0,1-.84-3.94c0-.33-.1-.61-.11-1a45,45,0,0,1-5.32-.16,19,19,0,0,1-6.18-1.35,28.94,28.94,0,0,1-1.78,12.29s12.07,2.44,12.07,8.54c0,0,2.64,10.18-10.67,14.18a4.81,4.81,0,0,0-3,3.5,4.54,4.54,0,0,0,1.09,4.36h27.57c0-9.16,8.12-16.58,18.14-16.58V127.47s-5-3.78-11.1,3Z" fill="#fff"/>
            <path d="M5.91,33.17S3.44,23.77,10,22.94a6,6,0,0,1,7,4.38s2.82,5.86,7.91,4.08A5.94,5.94,0,0,0,28.35,28c.84-2.08,1.21-5.21-2.84-7.06,0,0-5.79-1.89-4.54-8,0,0,.66-3.41,5.65-4,0,0,12.42.28,12-8.39H16.47c0,.51.07,1,.07,1.55A17.58,17.58,0,0,1,0,19.68V40.55S6.71,40,5.9,33.18Z" fill="#fff"/>
            <path d="M79.54,170.48h0Z" fill="none" stroke="#231f20" stroke-miterlimit="10"/>
          </g>
        </g>
      </g>
    </g>
  </g>
</svg>
