<svg xmlns="http://www.w3.org/2000/svg" width="100%" viewBox="0 0 170.01 170.01">
  <g id="Camada_2" data-name="Camada 2">
    <g id="Camada_1-2" data-name="Camada 1">
      <g id="_1" data-name="1">
        <path d="M160.72,155.73c-3.05-3.49-5.35,0-5.35,0s-2.34,4.08,1.81,6.11c2,1,4.75,4.63,7.06,8.16H170v-6A85.27,85.27,0,0,1,160.72,155.73Z" fill="#231f20"/>
        <polygon points="170.01 0 135.77 0 130.3 0 170.01 39.85 170.01 0" fill="#231f20"/>
        <polygon points="77.82 121.78 121.32 78.13 155.38 43.95 125.59 14.06 91.52 48.24 48.03 91.89 13.96 126.07 43.76 155.96 77.82 121.78" fill="#231f20"/>
        <polygon points="31.55 162.49 0 130.83 0 170 39.41 170 31.55 162.49" fill="#231f20"/>
        <path d="M0,8a85.27,85.27,0,0,1,9.29,8.24c3.05,3.49,5.35,0,5.35,0s2.34-4.08-1.81-6.11C10.44,9,7,4,4.5,0H0V8Z" fill="#231f20"/>
      </g>
      <g id="_2" data-name="2">
        <polygon points="170.01 126.99 170.01 43.03 128.18 85.01 170.01 126.99" fill="#939598"/>
        <polygon points="128.18 85.01 84.68 128.66 125.89 126.99 128.18 85.01" fill="#939598"/>
        <polygon points="116.84 170 84.68 128.66 43.47 170 116.84 170" fill="#939598"/>
        <polygon points="126.78 170 136.56 160.99 170.01 130.17 125.89 126.99 124.68 170 126.78 170" fill="#939598"/>
        <polygon points="0 43.69 0 126.32 41.18 85.01 0 43.69" fill="#939598"/>
        <polygon points="125.89 0 43.46 0 84.68 41.36 125.89 0" fill="#939598"/>
        <polygon points="41.4 0 39.05 0 0 39.18 0 41.01 38.29 39.66 41.4 0" fill="#939598"/>
        <polygon points="41.8 84.38 84.68 41.36 84.6 41.28 38.29 39.66 41.8 84.38" fill="#939598"/>
      </g>
      <g id="_3" data-name="3">
        <path d="M43.47,170l41.2-41.34L128.17,85,170,43V39.85L130.3,0h-4.41L84.68,41.36,41.18,85,0,126.33v4.51L39.5,170h4ZM14,126.07,48,91.89l43.5-43.65,34.07-34.18L155.38,44,121.32,78.13l-43.5,43.65L43.76,156,14,126.07Z" fill="#fff"/>
        <polygon points="84.6 41.28 43.46 0 41.4 0 38.29 39.66 84.6 41.28" fill="#fff"/>
        <polygon points="38.29 39.66 0 41.01 0 43.69 41.18 85.01 41.8 84.38 38.29 39.66" fill="#fff"/>
        <polygon points="170.01 130.17 170.01 126.99 128.18 85.01 125.89 126.99 170.01 130.17" fill="#fff"/>
        <path d="M12.83,10.14c4.14,2,1.81,6.11,1.81,6.11s-2.3,3.49-5.35,0A85.27,85.27,0,0,0,0,8V39.18L39.05,0H4.5C7,4,10.44,9,12.83,10.14Z" fill="#fff"/>
        <polygon points="126.78 170 126.78 170 170.01 130.17 136.56 160.99 126.78 170" fill="none"/>
        <path d="M164.24,170c-2.31-3.52-5.05-7.17-7.06-8.16-4.14-2-1.81-6.11-1.81-6.11s2.3-3.49,5.35,0A85.27,85.27,0,0,0,170,164v-33.8L126.78,170Z" fill="#fff"/>
        <polygon points="124.68 170 125.89 126.99 84.68 128.66 116.84 170 124.68 170" fill="#fff"/>
      </g>
    </g>
  </g>
</svg>
