<svg xmlns="http://www.w3.org/2000/svg" width="100%" viewBox="0 0 170.02 170.02">
  <g id="Camada_2" data-name="Camada 2">
    <g id="Camada_1-2" data-name="Camada 1">
      <g id="_3" data-name="3">
        <polygon points="170.02 0.01 170.02 170.01 82.29 170.01 0.01 170.01 0.01 0.01 170.02 0.01" fill="#231f20"/>
        <path d="M82.84,79.59q-2.3,2.19-4.37,4.42C80,82.56,81.46,81.08,82.84,79.59Z" fill="none" stroke="#231f20" stroke-miterlimit="10"/>
        <path d="M85.78,89.65q2.3-2.19,4.37-4.42C88.61,86.68,87.16,88.16,85.78,89.65Z" fill="none" stroke="#231f20" stroke-miterlimit="10"/>
      </g>
      <g id="_1" data-name="1">
        <path d="M117.07,50.79l-5.74-.06a104.93,104.93,0,0,1-5.93,13,97.06,97.06,0,0,1,11.63-5Z" fill="#939598"/>
        <path d="M51.55,118.45l5.74.06a106.16,106.16,0,0,1,5.92-13,96.21,96.21,0,0,1-11.62,5Z" fill="#939598"/>
        <path d="M135.18,162.32S132.31,150.85,140,148c0,0,2.34,16.93,16.56,9.88,0,0,7.87-4.42,3.17-13.06a10.34,10.34,0,0,0-10.66-7s2.58-5,14.76-2.49c0,0,1.68-10.16,6.17-11.26v-6c-28.77,1.37-51.66,24.06-51.66,51.86h4.58s4.23-6.93,12.26-7.69Z" fill="#939598"/>
        <path d="M34.85,7.7S37.73,19.17,30,22c0,0-2.34-16.93-16.56-9.88,0,0-7.87,4.42-3.17,13.06a10.35,10.35,0,0,0,10.66,7s-2.58,5-14.76,2.49c0,0-1.68,10.16-6.17,11.26v6C28.78,50.49,51.67,27.8,51.67,0H47.09S42.86,6.93,34.84,7.69Z" fill="#939598"/>
        <polygon points="0.01 126.54 0.01 146.02 14.96 145.64 14.68 126.7 0.01 126.54" fill="#939598"/>
        <polygon points="170.02 42.72 170.02 23.18 153.66 23.59 153.94 42.54 170.02 42.72" fill="#939598"/>
        <path d="M117.24,24.51l-27.88.7c-2.42,56.57-65.75,64.5-65.75,64.5L24,118.14l.11,7.76L24.57,154l.23,15.71H41.49l.58-51.35.09-14.08A84.83,84.83,0,0,0,78.47,84q2.07-2.23,4.37-4.42A96.08,96.08,0,0,0,104.28,42l12.85.14.11-17.61Z" fill="#939598"/>
        <path d="M126.77,15.61l-.06,8.67-.11,18,0,8.66L126.46,65A84.83,84.83,0,0,0,90.15,85.24q-2.07,2.24-4.37,4.42a96.08,96.08,0,0,0-21.44,37.61l-12.85-.14-.11,17.61,27.88-.7C81.68,87.47,145,79.54,145,79.54l-.42-28.43-.14-8.66-.28-18.6L144,15.19,143.81,0h-17l-.1,15.6Z" fill="#939598"/>
      </g>
      <g id="_2" data-name="2">
        <path d="M110.83,170h7.53c0-27.8,22.89-50.49,51.66-51.86V111c-32.93,1.37-59.2,27.28-59.2,59Z" fill="#fff"/>
        <path d="M163.85,135.37c-12.18-2.56-14.76,2.49-14.76,2.49a10.34,10.34,0,0,1,10.66,7c4.69,8.64-3.17,13.06-3.17,13.06C142.36,165,140,148,140,148c-7.71,2.83-4.84,14.3-4.84,14.3-8,.76-12.25,7.69-12.25,7.69h36a13.4,13.4,0,0,1,11.11-13v-33c-4.49,1.11-6.17,11.26-6.17,11.26Z" fill="#fff"/>
        <path d="M59.2,0H51.67C51.67,27.81,28.78,50.5,0,51.87v7.19c32.93-1.37,59.2-27.28,59.2-59Z" fill="#fff"/>
        <path d="M6.18,34.66c12.18,2.56,14.76-2.49,14.76-2.49a10.35,10.35,0,0,1-10.66-7c-4.69-8.64,3.17-13.06,3.17-13.06C27.67,5.08,30,22,30,22c7.72-2.83,4.84-14.3,4.84-14.3C42.87,7,47.1,0,47.1,0h-36A13.4,13.4,0,0,1,0,13v33c4.49-1.11,6.17-11.26,6.17-11.26Z" fill="#fff"/>
        <path d="M85.78,89.65c1.38-1.49,2.83-3,4.37-4.42A85,85,0,0,1,126.46,65l.09-14.08,0-8.66.11-18,.06-8.67.1-15.6h-9.48l-.1,15.83-28.19.71-8.87.22-.35,8.1c-.87,20.4-10.72,36-29.26,46.42a88.73,88.73,0,0,1-28.29,9.83l-8.31,1,.12,7.66L14.57,118,0,117.86v8.66l14.68.16L15,145.62,0,146v8.66l15.09-.38L15.35,170h9.48l-.24-15.94-.13-8.66-.28-18.6L24,118.13,23.62,89.7s63.32-7.92,65.75-64.5l27.88-.7-.11,17.61L104.29,42A96.08,96.08,0,0,1,82.85,79.58c-1.38,1.49-2.83,3-4.37,4.42a84.94,84.94,0,0,1-36.31,20.26l-.09,14.08L42,127l-.11,18-.06,8.67L41.76,170h9.48l.1-16.62,28.19-.71,8.87-.22.35-8.1c.87-20.4,10.72-36,29.26-46.42a88.73,88.73,0,0,1,28.29-9.83l8.31-1-.12-7.66-.43-28.21,15.84.18H170V42.72l-16.09-.18-.28-18.94L170,23.19V14.53h-.26l-16.24.41L153.29,0h-9.48L144,15.18l.13,8.66.28,18.6.14,8.66L145,79.53S81.69,87.45,79.26,144l-27.88.7.11-17.61,12.85.14A96.08,96.08,0,0,1,85.78,89.65Zm25.55-38.93,5.74.06,0,8a96.15,96.15,0,0,0-11.63,5A104.93,104.93,0,0,0,111.33,50.72ZM51.55,118.45l0-8a95.31,95.31,0,0,0,11.62-5,106.16,106.16,0,0,0-5.92,13Z" fill="#fff"/>
      </g>
    </g>
  </g>
</svg>
