<svg xmlns="http://www.w3.org/2000/svg" width="100%" viewBox="0 0 170.02 170.02">
  <g id="Camada_2" data-name="Camada 2">
    <g id="Camada_1-2" data-name="Camada 1">
      <g id="_1" data-name="1">
        <g>
          <path d="M74.87,0H0V76c.28,0,.55,0,.83,0C41.1,76,73.83,42.18,74.87,0Z" fill="#231f20"/>
          <path d="M168.27,76c.58,0,1.16,0,1.74-.05V0H94.24c1,42.18,33.78,76,74,76Z" fill="#231f20"/>
          <path d="M.84,96.21l-.83,0V170h74.8C72.69,128.87,40.39,96.21.84,96.21Z" fill="#231f20"/>
          <path d="M170,96.25c-.58,0-1.16,0-1.74,0-39.55,0-71.85,32.67-74,73.81H170V96.26Z" fill="#231f20"/>
        </g>
      </g>
      <g id="_2" data-name="2">
        <path d="M84.56,11.58C79,49.84,50.4,80.09,14.17,86.13c36.23,6,64.83,36.29,70.39,74.54,5.56-38.25,34.16-68.5,70.39-74.54C118.72,80.09,90.12,49.84,84.56,11.58Z" fill="#939598"/>
      </g>
      <g id="_3" data-name="3">
        <path d="M67.45,81.55c-2.22-2-3.18-7.25-.76-10.44A6.9,6.9,0,0,1,76.21,70c2.22,2,3.35,9.42,3.24,12.34C79.4,83.58,69.67,83.57,67.45,81.55Z" fill="#6d6e71"/>
        <path d="M90.91,69.51c1.85-2.43,6.63-3.48,9.54-.83s2.85,8,1,10.42-8.61,3.67-11.28,3.55C89.06,82.59,89.07,71.94,90.91,69.51Z" fill="#6d6e71"/>
        <path d="M101,93c2.22,2,3.18,7.25.76,10.44a6.9,6.9,0,0,1-9.52,1.1c-2.22-2-3.35-9.42-3.24-12.34C89.05,91,98.78,91,101,93Z" fill="#6d6e71"/>
        <path d="M77.54,105c-1.85,2.43-6.63,3.48-9.54.83s-2.85-8-1-10.42,8.61-3.67,11.28-3.55C79.39,92,79.38,102.6,77.54,105Z" fill="#6d6e71"/>
        <path d="M0,0H64.55s-2.43,6.64-18.2,11.05a2.46,2.46,0,0,0-1.72,2.59C45,18,44.5,27.5,33.87,25.85c0,0,1.66-16.69-15.07-12.82a10.55,10.55,0,0,0-4.64,12s2.29,10.29,12.24,8c0,0,.13,14-15.59,11.93a2.67,2.67,0,0,0-2.9,2.34C7.08,52.58,4.8,63.51,0,66V0Z" fill="#6d6e71"/>
        <path d="M170,0V70.64s-6.07-2.66-10.1-19.92a2.28,2.28,0,0,0-2.36-1.88c-4,.36-12.66-.14-11.15-11.77,0,0,15.25,1.81,11.71-16.5,0,0-3.4-7.43-11-5.07,0,0-9.4,2.5-7.33,13.39,0,0-12.77.14-10.9-17.06a2.84,2.84,0,0,0-2.14-3.17C122,7.75,112,5.25,109.73,0H170Z" fill="#6d6e71"/>
        <path d="M170,170H105.47s2.43-6.64,18.2-11a2.46,2.46,0,0,0,1.72-2.59c-.33-4.33.13-13.85,10.76-12.2,0,0-1.66,16.69,15.07,12.82a10.55,10.55,0,0,0,4.64-12.05s-2.29-10.29-12.24-8c0,0-.13-14,15.59-11.93a2.67,2.67,0,0,0,2.9-2.34c.83-5.21,3.11-16.14,7.91-18.61v66Z" fill="#6d6e71"/>
        <path d="M0,170V99.38S6.08,102,10.11,119.3a2.28,2.28,0,0,0,2.36,1.88c4-.36,12.66.14,11.15,11.77,0,0-15.25-1.81-11.71,16.5,0,0,3.4,7.43,11,5.07,0,0,9.4-2.5,7.33-13.39,0,0,12.77-.14,10.9,17.06a2.84,2.84,0,0,0,2.14,3.17c4.76.91,14.74,3.41,17,8.66H0Z" fill="#6d6e71"/>
      </g>
      <g id="_4" data-name="4">
        <path d="M168.27,96.21c.58,0,1.16,0,1.74,0V76c-.58,0-1.16.05-1.74.05-40.26,0-73-33.86-74-76H74.87c-1,42.17-33.77,76-74,76C.56,76,.29,76,0,76V96.23l.83,0c39.55,0,71.85,32.67,74,73.81h19.5c2.11-41.14,34.42-73.81,74-73.81ZM84.55,160.66C79,122.4,50.39,92.16,14.16,86.12,50.39,80.07,79,49.83,84.55,11.57c5.56,38.26,34.16,68.5,70.39,74.55C118.71,92.16,90.11,122.4,84.55,160.66Z" fill="#fff"/>
        <polygon points="36.74 46.28 46.52 48.44 44.13 38.94 29.69 30.09 36.74 46.28" fill="#fff"/>
        <polygon points="54 81.09 45.6 86.99 53.35 91.99 69.35 87.35 54 81.09" fill="#fff"/>
        <polygon points="112.49 93.25 120.88 87.35 113.13 82.35 97.14 86.99 112.49 93.25" fill="#fff"/>
        <polygon points="79.46 115.82 84.85 125 89.42 116.52 85.17 99.01 79.46 115.82" fill="#fff"/>
        <polygon points="88.61 57.19 83.22 48.01 78.65 56.48 82.89 73.99 88.61 57.19" fill="#fff"/>
        <polygon points="127.73 40.2 125.76 50.9 134.43 48.29 142.52 32.49 127.73 40.2" fill="#fff"/>
        <polygon points="133.28 123.74 123.5 121.58 125.89 131.08 140.33 139.93 133.28 123.74" fill="#fff"/>
        <polygon points="42.29 129.82 44.26 119.12 35.59 121.73 27.5 137.53 42.29 129.82" fill="#fff"/>
      </g>
    </g>
  </g>
</svg>
