<svg xmlns="http://www.w3.org/2000/svg" width="100%" viewBox="0 0 170 170">
  <g id="Camada_2" data-name="Camada 2">
    <g id="Camada_1-2" data-name="Camada 1">
      <g id="_1" data-name="1">
        <polygon points="170 169.99 0 169.99 0 82.28 0 40.49 0 0.01 41.51 0.01 170 0.01 170 169.99" fill="#231f20"/>
      </g>
      <g id="_2" data-name="2">
        <g>
          <path d="M69.17,0h-.23C68.37,35.62,39.7,65.35,4.56,65.35c-1.54,0-3-.08-4.56-.19v.13L85,83.63Z" fill="#fff"/>
          <path d="M0,99.49v.76c40.81.9,68.64,32.63,68.3,69.75h1.13L85,83.63Z" fill="#fff"/>
          <path d="M101.42,170h.5c1.27-35.14,29.76-67,64.46-67,1.22,0,2.42,0,3.62.13v-.28L85,83.62Z" fill="#fff"/>
          <path d="M170,65.94V65.4c-.69,0-1.38,0-2.07,0-35.24-.06-64-29.71-64.39-65.45h-.17L85,83.61l85-17.68Z" fill="#fff"/>
        </g>
      </g>
    </g>
  </g>
</svg>
