<svg xmlns="http://www.w3.org/2000/svg" width="100%" viewBox="0 0 170 170">
  <g id="Camada_2" data-name="Camada 2">
    <g id="Camada_1-2" data-name="Camada 1">
      <g id="_1" data-name="1">
        <polygon points="170 169.99 0 169.99 0 82.28 0 0.01 12.35 0.01 41.65 0.01 170 0.01 170 169.99" fill="#231f20"/>
      </g>
      <g id="_2" data-name="2">
        <g>
          <g>
            <path d="M16.41,37a57.62,57.62,0,0,0,9-7A78.11,78.11,0,0,0,37.94,12.67h0A42.52,42.52,0,0,0,41.86,0,42.29,42.29,0,0,0,0,41.81,33.48,33.48,0,0,0,16.41,37Z" fill="#fff"/>
            <path d="M57.39,27.31A66.91,66.91,0,0,0,70.08,37.85a27.22,27.22,0,0,0,14.1,4H85A42.3,42.3,0,0,0,43.37,0a42.48,42.48,0,0,0,3.9,12.67A73.43,73.43,0,0,0,57.39,27.3Z" fill="#fff"/>
            <path d="M31.11,60.32l.21,0a71.58,71.58,0,0,0-14.92-13A33.18,33.18,0,0,0,0,42.44,42.3,42.3,0,0,0,42.15,84.26,34.76,34.76,0,0,0,38.73,72,68.46,68.46,0,0,0,31.1,60.32Z" fill="#fff"/>
            <path d="M70.08,46.39C64.56,49.73,58.2,55.6,52.8,62a65.5,65.5,0,0,0-6.33,10A34.86,34.86,0,0,0,43.2,82.93v1.31A42.3,42.3,0,0,0,85,42.4h-.82a27.22,27.22,0,0,0-14.1,4Z" fill="#fff"/>
          </g>
          <g>
            <path d="M101.39,37a57.62,57.62,0,0,0,9-7,78.11,78.11,0,0,0,12.54-17.33h0A42.52,42.52,0,0,0,126.84,0,42.29,42.29,0,0,0,85,41.81,33.48,33.48,0,0,0,101.39,37Z" fill="#fff"/>
            <path d="M142.37,27.31a66.91,66.91,0,0,0,12.69,10.54,27.22,27.22,0,0,0,14.1,4H170A42.3,42.3,0,0,0,128.35,0a42.48,42.48,0,0,0,3.9,12.67A73.43,73.43,0,0,0,142.37,27.3Z" fill="#fff"/>
            <path d="M116.09,60.32l.21,0a71.58,71.58,0,0,0-14.92-13A33.18,33.18,0,0,0,85,42.44a42.3,42.3,0,0,0,42.13,41.82A34.76,34.76,0,0,0,123.71,72a68.46,68.46,0,0,0-7.63-11.69Z" fill="#fff"/>
            <path d="M155.06,46.39c-5.52,3.34-11.88,9.21-17.28,15.61a65.5,65.5,0,0,0-6.33,10,34.86,34.86,0,0,0-3.27,10.92v1.31A42.3,42.3,0,0,0,170,42.4h-.82a27.22,27.22,0,0,0-14.1,4Z" fill="#fff"/>
          </g>
          <g>
            <path d="M16.41,122.7a58.24,58.24,0,0,0,9-7A77.93,77.93,0,0,0,37.94,98.4h0a42.37,42.37,0,0,0,3.92-12.66A42.29,42.29,0,0,0,0,127.54a33.37,33.37,0,0,0,16.39-4.84Z" fill="#fff"/>
            <path d="M57.39,113.05a67.21,67.21,0,0,0,12.69,10.53,27.22,27.22,0,0,0,14.1,4H85A42.29,42.29,0,0,0,43.37,85.74a42.33,42.33,0,0,0,3.9,12.66A73.48,73.48,0,0,0,57.39,113Z" fill="#fff"/>
            <path d="M31.11,146.06l.21-.06A71.88,71.88,0,0,0,16.4,133,33.29,33.29,0,0,0,0,128.17,42.31,42.31,0,0,0,42.15,170a34.76,34.76,0,0,0-3.42-12.26,68.4,68.4,0,0,0-7.63-11.68Z" fill="#fff"/>
            <path d="M70.08,132.13c-5.52,3.34-11.88,9.21-17.28,15.61a65.44,65.44,0,0,0-6.33,10,35,35,0,0,0-3.27,10.92V170A42.31,42.31,0,0,0,85,128.14h-.82a27.22,27.22,0,0,0-14.1,4Z" fill="#fff"/>
          </g>
          <g>
            <path d="M101.39,122.7a58.24,58.24,0,0,0,9-7A77.93,77.93,0,0,0,122.92,98.4h0a42.37,42.37,0,0,0,3.92-12.66A42.29,42.29,0,0,0,85,127.54a33.37,33.37,0,0,0,16.39-4.84Z" fill="#fff"/>
            <path d="M142.37,113.05a67.21,67.21,0,0,0,12.69,10.53,27.22,27.22,0,0,0,14.1,4H170a42.29,42.29,0,0,0-41.63-41.82,42.33,42.33,0,0,0,3.9,12.66A73.48,73.48,0,0,0,142.37,113Z" fill="#fff"/>
            <path d="M116.09,146.06l.21-.06a71.88,71.88,0,0,0-14.92-13A33.29,33.29,0,0,0,85,128.17,42.31,42.31,0,0,0,127.13,170a34.76,34.76,0,0,0-3.42-12.26,68.4,68.4,0,0,0-7.63-11.68Z" fill="#fff"/>
            <path d="M155.06,132.13c-5.52,3.34-11.88,9.21-17.28,15.61a65.44,65.44,0,0,0-6.33,10,35,35,0,0,0-3.27,10.92V170A42.31,42.31,0,0,0,170,128.14h-.82a27.22,27.22,0,0,0-14.1,4Z" fill="#fff"/>
          </g>
        </g>
      </g>
    </g>
  </g>
</svg>
