<svg xmlns="http://www.w3.org/2000/svg" width="100%" viewBox="0 0 170 170">
  <g id="Camada_2" data-name="Camada 2">
    <g id="Camada_1-2" data-name="Camada 1">
      <g id="_1" data-name="1">
        <polygon points="170 170 0 170 0 82.28 0 0 170 0 170 170" fill="#231f20"/>
      </g>
      <g id="_2" data-name="2">
        <path d="M39.18,53.09H16.61L3.29,38.51V18.9L16.61,4.32H39.18L52.5,18.9V38.51Z" fill="#fff"/>
        <path d="M152.29,53.09H129.72L116.4,38.51V18.9L129.72,4.32h22.57L165.61,18.9V38.51L152.29,53.09Z" fill="#fff"/>
        <path d="M96.28,110.29H73.71L60.39,95.71V76.1L73.71,61.53H96.28L109.6,76.1V95.71Z" fill="#fff"/>
        <path d="M39.18,167.48H16.61L3.29,152.91V133.29l13.32-14.57H39.18L52.5,133.29v19.62Z" fill="#fff"/>
        <path d="M152.29,167.48H129.72L116.4,152.91V133.29l13.32-14.57h22.57l13.32,14.57v19.62l-13.32,14.57Z" fill="#fff"/>
      </g>
      <g id="_3" data-name="3">
        <path d="M96.28,53.09H73.71L60.39,38.51V18.9L73.71,4.32H96.28L109.6,18.9V38.51Z" fill="#777"/>
        <path d="M39.18,110.29H16.61L3.29,95.71V76.1L16.61,61.53H39.18L52.5,76.1V95.71Z" fill="#777"/>
        <path d="M96.28,167.48H73.71L60.39,152.91V133.29l13.32-14.57H96.28l13.32,14.57v19.62Z" fill="#777"/>
        <path d="M152.29,110.29H129.72L116.4,95.71V76.1l13.32-14.57h22.57L165.61,76.1V95.71l-13.32,14.58Z" fill="#777"/>
      </g>
    </g>
  </g>
</svg>
