<svg xmlns="http://www.w3.org/2000/svg" width="100%" viewBox="0 0 170.53 170.51">
  <g id="Camada_2" data-name="Camada 2">
    <g id="Camada_1-2" data-name="Camada 1">
      <g id="_1" data-name="1" fill="#231f20">
        <path d="M34,117.62c-1.54-18.42,20-16.21,20-16.21-3.93-6.5,3.32-6.22,3.32-6.22,11.48-1.24,31,7.6,31,7.6,5.45.28,2.26-3.59,2.26-3.59-3.62-6.08-31-16.31-31-16.31-14.8-7-3.17-11.2-3.17-11.2C45.48,57.18,52,50.54,52,50.54c10.87-4.28,20.84,6.08,20.84,6.08,3.63-10.23,10.28,2.63,10.28,2.63,9.36,31,14.35,31.51,14.35,31.51,6.49,3.18,5.44-4.28,5.44-4.28C96.79,73,95.33,63,95.33,63c-4.39-14.1,7.1-10.92,7.1-10.92,1.66-18,20.73-20.81,20.73-20.81h0a81.42,81.42,0,0,0-11.67,17.91c-21,41.05,12.24,74.56,12.24,74.56,17.23,18.38,35.65,8.91,35.65,8.91,7.1-4,10-8.87,11-13.15V0H138.24c1.1.78-.94,1.88-.94,1.88L117.69,21.94s-2.11,2.9-5.14,0l-8-8.43s-2.4-3.73-5.28,0l-24.32,25s-2.26,3-5.74,0c0,0-17.22-10.64-28.39,4.28,0,0-11,10.5-.75,24.33,0,0,2.56,2.07-1.22,4.56L14.07,95.89s-4.08,1.8,0,5.53l7.4,8.57s3.32,2.76.15,5.67L4.85,133.07s-1.16,1.66-4.28,1v9.59c10.79-14.43,26.25-22.72,33.42-26Z"/>
        <polygon points="0.57 3.6 0.57 36.5 11.65 26.45 0.57 3.6"/>
        <polygon points="40.8 0.01 4.39 0.01 29.37 10.38 40.8 0.01"/>
        <path d="M59.63,15.26c8.23,0,14.93-6.78,15.23-15.25H69.54c0,5.17-4.5,9.35-10,9.35s-10-4.18-10-9.35H44.4c.3,8.47,7,15.25,15.22,15.25Z"/>
        <path d="M16.9,58.57c0-7.71-6.83-14-15.26-14-.36,0-.72,0-1.07,0v4.73c.33,0,.64-.09,1-.09,5.53,0,10,4.21,10,9.4s-4.48,9.4-10,9.4C1.2,68.1.9,68,.57,68v4.47c.36,0,.71,0,1.07,0,8.43,0,15.26-6.25,15.26-14Z"/>
        <polygon points="113.64 170.01 170.35 170.01 170.35 170.01 113.64 170.01 113.64 170.01" fill="none" stroke="#231f20" stroke-miterlimit="10"/>
        <polygon points="107.33 170.01 107.33 170.01 113.64 170.01 113.64 170.01 107.33 170.01" fill="none" stroke="#231f20" stroke-miterlimit="10"/>
        <polygon points="0.57 3.6 0.57 0.01 0.5 3.47 0.57 3.6" fill="none" stroke="#231f20" stroke-miterlimit="10"/>
      </g>
      <g id="_2" data-name="2">
        <path d="M4.84,133.06l16.77-17.41c3.17-2.9-.16-5.67-.16-5.67l-7.4-8.57c-4.07-3.73,0-5.53,0-5.53L38.83,71.69c3.78-2.49,1.22-4.56,1.22-4.56-10.28-13.82.75-24.33.75-24.33C52,27.87,69.19,38.52,69.19,38.52c3.48,3,5.74,0,5.74,0l24.32-25c2.87-3.73,5.28,0,5.28,0l8,8.43c3,2.9,5.14,0,5.14,0l19.62-20s2-1.1.92-1.88h-47A2.34,2.34,0,0,1,90,3.65L71.38,21.39a2.85,2.85,0,0,1-3.55,1c-23.41-6.77-35.5,7.19-35.5,7.19C17.67,42.4,23,64.66,23,64.66A5.61,5.61,0,0,1,23.12,70L5.29,85.94c-2.27,1.53-3.88,1.3-4.73,1V134c3.12.69,4.28-1,4.28-1Z" fill="#939598"/>
        <path d="M96.89,155.29c5.29-8.43,15.75-2.83,15.75-2.83,2.34-.28,2-1.75,2-1.75-2-36.67-63.29-27.55-63.29-27.55a89.37,89.37,0,0,0-19.75,7.19C2.46,145.44,6.33,169.83,6.33,169.83H.57V170H107.34a19.86,19.86,0,0,1-4.16-1C91.81,165,96.89,155.3,96.89,155.3Z" fill="#939598"/>
        <path d="M151.37,117.55s-6.12-9.57,3.1-14.41c0,0,10.56-4.65,15,5.76a15,15,0,0,1,.86,2.73V20.28A45,45,0,0,0,143.23,27c-9.16,5.68-18.44,16-23.89,34.47,0,0-10,56.11,30.11,57.91,0,0,1.61.31,1.91-1.83Z" fill="#939598"/>
      </g>
      <g id="_3" data-name="3">
        <path d="M5.3,85.93,23.13,70A5.61,5.61,0,0,0,23,64.65S17.68,42.4,32.34,29.54c0,0,12.09-14,35.5-7.19a2.83,2.83,0,0,0,3.55-1L90,3.65A2.33,2.33,0,0,0,91.2,0H40.79L29.36,10.38h0l2.21,19.85L12.34,27.89l-.7-1.44L.56,36.51V86.89c.85.35,2.46.58,4.73-1Z" fill="#6d6e71"/>
        <path d="M159.37,132.65s-18.42,9.47-35.65-8.91c0,0-33.24-33.52-12.24-74.56a81.42,81.42,0,0,1,11.67-17.91h0s-19.07,2.84-20.74,20.81c0,0-11.48-3.18-7.11,10.92,0,0,1.48,10,7.56,23.5,0,0,1.06,7.46-5.45,4.28,0,0-5-.55-14.35-31.51,0,0-6.64-12.85-10.27-2.63,0,0-10-10.37-20.84-6.08,0,0-6.49,6.63,4.38,21.15,0,0-11.63,4.15,3.17,11.2,0,0,27.35,10.23,31,16.31,0,0,3.17,3.87-2.26,3.59,0,0-19.49-8.85-31-7.6,0,0-7.25-.28-3.33,6.22,0,0-21.48-2.21-19.95,16.21,2.43-1.11,3.91-1.65,3.91-1.65,44.87-19.21,81.5,11.2,81.5,11.2,20.09,15.76,9.74,32.62,9.74,32.62-4.73,7-10.56,9.54-15.49,10.23h56.73V119.53c-1,4.28-3.88,9.15-11,13.15Z" fill="#6d6e71"/>
      </g>
      <g id="_4" data-name="4">
        <path d="M170.35,130.53,163,137.07s7.25,6.91-1.21,11.15c0,0-8.77,3.22-8.87-7.28l-13.79.92v15s9.47-1,8.86,6.36c0,0-4.22,9.21-13.59,2.49L128.55,170h41.8Z" fill="#d1d3d4"/>
        <path d="M170.35,28.66S160.17,26.5,160.28,37c.51,6,2,14.53,7.55,28.84,0,0,.2,4-3.82,2.3,0,0-7.36-16.84-8.77-19.52,0,0-9.46-15.4-20.44-2.68,0,0-8.46,11.79,7.75,17.78,0,0,12.79,3.87,17.62,11.24,0,0,1.31,3.78-2.62,3.22,0,0-10.57-5.34-13.9-7,0,0-16.73-10.5-19.74,4.79,0,0-1.72,10.23,14.9,9,0,0,10.48-1.11,15.11,1.29,0,0,3.92,2.76-.1,3.87H137.1s-5.24-.37-2.82,4.79a1.73,1.73,0,0,1,.1,3s-4.73,2.58.6,9.77a31,31,0,0,1,7-8,16.3,16.3,0,0,1,18.35-.83,22.53,22.53,0,0,1,10.23,13.85l-.19-84Z" fill="#d1d3d4"/>
        <path d="M16,170s-2.63-9.71,8.86-9.62c6.5.47,15.88,1.85,31.52,6.91,0,0,4.43.18,2.51-3.5,0,0-18.4-6.73-21.33-8,0,0-16.83-8.66-2.93-18.7,0,0,12.89-7.74,19.43,7.09,0,0,4.23,11.7,12.29,16.12,0,0,4.13,1.2,3.52-2.4,0,0-5.84-9.67-7.65-12.72,0,0-11.48-15.3,5.23-18.06,0,0,11.18-1.57,9.87,13.64,0,0-1.21,9.58,1.41,13.82,0,0,3,3.59,4.23-.09v-15.3s-.4-4.79,5.24-2.58a2.07,2.07,0,0,0,3.22.09s2.82-4.33,10.68.55a33.21,33.21,0,0,0-8.79,6.38,13,13,0,0,0-.91,16.79A24.75,24.75,0,0,0,107.49,170H16Z" fill="#d1d3d4"/>
      </g>
      <g id="_5" data-name="5">
        <path d="M96.89,155.29S91.81,165,103.18,169a19.86,19.86,0,0,0,4.16,1h6.32c4.94-.69,10.76-3.22,15.48-10.23,0,0,10.35-16.86-9.74-32.62,0,0-36.63-30.41-81.5-11.2,0,0-1.47.54-3.91,1.65-7.16,3.27-22.63,11.57-33.42,26v26.21H6.33S2.46,145.43,31.6,130.34a88.55,88.55,0,0,1,19.75-7.19s61.32-9.12,63.29,27.55c0,0,.34,1.47-2,1.75,0,0-10.46-5.6-15.75,2.83Z" fill="#fff"/>
        <polygon points="29.37 10.38 4.39 0.01 0.57 0.01 0.57 3.6 11.65 26.45 12.35 27.88 31.59 30.22 29.37 10.38" fill="#fff"/>
        <path d="M159.37,132.65c7.1-4,10-8.87,11-13.15v-7.87a15,15,0,0,0-.86-2.73c-4.46-10.41-15-5.76-15-5.76-9.22,4.84-3.1,14.41-3.1,14.41-.3,2.14-1.91,1.83-1.91,1.83-40.08-1.8-30.11-57.91-30.11-57.91C124.8,43,134.08,32.68,143.24,27a45,45,0,0,1,27.12-6.72V4.94c-22.51,2.6-37.83,15.22-47.19,26.32A81.42,81.42,0,0,0,111.5,49.17c-21,41.05,12.24,74.56,12.24,74.56,17.23,18.38,35.66,8.91,35.66,8.91Z" fill="#fff"/>
        <path d="M59.52,9.36c5.52,0,10-4.18,10-9.35h-20C49.53,5.18,54,9.36,59.52,9.36Z" fill="#fff"/>
        <path d="M1.54,68.09c5.53,0,10-4.21,10-9.4s-4.48-9.4-10-9.4c-.34,0-.64.06-1,.09V68c.33,0,.64.09,1,.09Z" fill="#fff"/>
      </g>
    </g>
  </g>
</svg>
