<svg xmlns="http://www.w3.org/2000/svg" width="100%" viewBox="0 0 170.02 170.02">
  <g id="Camada_2" data-name="Camada 2">
    <g id="Camada_1-2" data-name="Camada 1">
      <g id="_1" data-name="1">
        <path d="M37.6,111a16,16,0,0,0,4-2.87c2-1.85,4.22.77,4.22.77,2.21,5.6,8.57,2.42,8.57,2.42a66.77,66.77,0,0,1,11.88-9.88,9.35,9.35,0,0,0,3.94-5.27c1.45-5.34-2-9.8-2-9.8-3.46-2.57.41-5.29.41-5.29,7.19-5.59,1-13.15,1-13.15L56.76,57c-6.5-6-9.4.71-9.4.71-3,4-6.31-1.06-6.31-1.06-4.19-3.54-7.84-.86-9.88,1.45a38.41,38.41,0,0,1-9.51,7.68A47.92,47.92,0,0,1,16.4,68.5c-8.43,6,.28,12,.28,12,4.15,3.17-1,6.65-1,6.65a7.62,7.62,0,0,0-2,7.9,7.8,7.8,0,0,0,3.64,4.44A78.7,78.7,0,0,1,26.82,106a31.1,31.1,0,0,1,4,3.9c2.54,2.89,4.36,2.2,6.81,1.1Z" fill="#231f20"/>
        <path d="M68.08,168.83c6.74-5.59.91-13.16.91-13.16L56.93,144.79c-6.09-6-8.82.71-8.82.71-2.85,4-5.92-1.06-5.92-1.06-3.93-3.54-7.36-.86-9.27,1.45A36.45,36.45,0,0,1,24,153.57a43.2,43.2,0,0,1-4.94,2.72c-7.91,6.05.26,12,.26,12A4.08,4.08,0,0,1,20.68,170H67a5.72,5.72,0,0,1,1.11-1.18Z" fill="#231f20"/>
        <path d="M151.65,168.83c7.19-5.59,1-13.16,1-13.16l-12.85-10.88c-6.5-6-9.4.71-9.4.71-3,4-6.31-1.06-6.31-1.06-4.19-3.54-7.84-.86-9.88,1.45a38.41,38.41,0,0,1-9.51,7.68,47.92,47.92,0,0,1-5.26,2.72c-8.43,6.05.28,12,.28,12a4.22,4.22,0,0,1,1.45,1.78h49.34a5.85,5.85,0,0,1,1.18-1.18Z" fill="#231f20"/>
        <path d="M132.54,59.35c-3,3.91-6.18-1-6.18-1-4.1-3.43-7.67-.83-9.67,1.41a37.88,37.88,0,0,1-9.31,7.46,47.26,47.26,0,0,1-5.15,2.62c-8.25,5.87.27,11.59.27,11.59,4.06,3.07-1,6.45-1,6.45a7.36,7.36,0,0,0-2,7.66,7.56,7.56,0,0,0,3.56,4.3,77,77,0,0,1,9.29,6.35,30.24,30.24,0,0,1,3.89,3.79c2.49,2.8,4.27,2.13,6.67,1.06a15.72,15.72,0,0,0,3.93-2.79c2-1.8,4.13.74,4.13.74,2.16,5.43,8.39,2.34,8.39,2.34a64.64,64.64,0,0,1,11.63-9.57,9.06,9.06,0,0,0,3.85-5.12c1.42-5.18-2-9.5-2-9.5-3.38-2.49.41-5.13.41-5.13,7-5.43.95-12.76.95-12.76L141.73,58.66c-6.36-5.86-9.2.69-9.2.69Z" fill="#231f20"/>
        <path d="M168.67,15.79C164.57,12.35,161,15,159,17.2a37.61,37.61,0,0,1-9.31,7.45,46.46,46.46,0,0,1-5.15,2.63c-8.25,5.86.27,11.59.27,11.59,4.06,3.07-.95,6.45-.95,6.45a7.36,7.36,0,0,0-2,7.66,7.62,7.62,0,0,0,3.56,4.3,77,77,0,0,1,9.29,6.35,30.16,30.16,0,0,1,3.89,3.78c2.49,2.81,4.27,2.14,6.67,1.07a15.72,15.72,0,0,0,3.93-2.79,3,3,0,0,1,.77-.5V17.29a8,8,0,0,1-1.33-1.5Z" fill="#231f20"/>
        <path d="M61.14,40c4.06,3-1,6.2-1,6.2-2.64,2.68-2.64,5.36-2,7.37a7.38,7.38,0,0,0,3.56,4.15,78.41,78.41,0,0,1,9.29,6.11A30.39,30.39,0,0,1,75,67.49c2.49,2.69,4.27,2.06,6.67,1a15.59,15.59,0,0,0,3.93-2.69c2-1.73,4.13.72,4.13.72,2.17,5.22,8.39,2.25,8.39,2.25a65.39,65.39,0,0,1,11.63-9.22,8.79,8.79,0,0,0,3.85-4.92c1.42-5-2-9.14-2-9.14-3.38-2.4.41-4.94.41-4.94,7-5.22,1-12.27,1-12.27L100.37,18.13c-6.36-5.64-9.2.66-9.2.66-3,3.76-6.18-1-6.18-1-4.1-3.3-8.27-1.7-10.6,0-3.69,2.72-5.89,3.45-9.31,5.34a33,33,0,0,0-5.16,3.53C51.67,32.31,61.12,40,61.12,40Z" fill="#231f20"/>
        <path d="M4.41,65.5c2.16,5.22,8.39,2.25,8.39,2.25a65.39,65.39,0,0,1,11.63-9.22,8.79,8.79,0,0,0,3.85-4.92c1.42-5-2-9.14-2-9.14-3.38-2.4.41-4.94.41-4.94,7-5.22.95-12.27.95-12.27L15.1,17.09c-6.36-5.64-9.2.66-9.2.66-2.46,3.11-5.07.41-5.9-.63V65l.28-.24c2-1.73,4.13.72,4.13.72Z" fill="#231f20"/>
        <path d="M101.92,3.65C99.28,6.34,99.28,9,99.94,11a7.41,7.41,0,0,0,3.56,4.15,78.42,78.42,0,0,1,9.29,6.1,29.78,29.78,0,0,1,3.89,3.65c2.49,2.69,4.27,2.05,6.67,1a15.56,15.56,0,0,0,3.94-2.69c2-1.73,4.13.72,4.13.72,2.16,5.22,8.39,2.26,8.39,2.26A65.05,65.05,0,0,1,151.44,17a8.75,8.75,0,0,0,3.85-4.92c1.42-5-2-9.14-2-9.14-1.44-1-1.58-2.06-1.26-2.93H104.44C104.42,2,101.92,3.65,101.92,3.65Z" fill="#231f20"/>
        <path d="M16.63,2.82a6.9,6.9,0,0,0-2,7.38,7.42,7.42,0,0,0,3.57,4.15,78.42,78.42,0,0,1,9.29,6.1,30.39,30.39,0,0,1,3.89,3.64c2.49,2.7,4.27,2.06,6.67,1A15.56,15.56,0,0,0,42,22.42c2-1.73,4.13.72,4.13.72,2.17,5.22,8.39,2.26,8.39,2.26a65.05,65.05,0,0,1,11.63-9.23A8.79,8.79,0,0,0,70,11.25c1.42-5-2-9.14-2-9.14A2.71,2.71,0,0,1,66.66,0H19A6.59,6.59,0,0,1,16.63,2.82Z" fill="#231f20"/>
        <path d="M99,101.53c-6.46-5.79-9.35.68-9.35.68-3,3.86-6.28-1-6.28-1-4.17-3.39-7.8-.82-9.83,1.39-2.74,3-4.39,3.31-7.86,5.26-3.14,1.76-5.53,3.12-5.53,3.12-8.39,5.79-1,13-1,13,4.13,3-1,6.36-1,6.36a7.12,7.12,0,0,0-2,7.56,7.54,7.54,0,0,0,3.62,4.25,78,78,0,0,1,9.44,6.27,30.32,30.32,0,0,1,4,3.74c2.53,2.76,4.34,2.11,6.78,1a15.46,15.46,0,0,0,4-2.76c2-1.77,4.2.75,4.2.75,2.2,5.36,8.53,2.32,8.53,2.32a65.43,65.43,0,0,1,11.83-9.46A9,9,0,0,0,112.4,139c1.44-5.11-2-9.38-2-9.38-3.44-2.46.41-5.06.41-5.06,7.15-5.37,1-12.6,1-12.6L99,101.53Z" fill="#231f20"/>
        <path d="M3.82,152c2.2,5.36,8.53,2.32,8.53,2.32a65.66,65.66,0,0,1,11.83-9.45,9,9,0,0,0,3.92-5.06c1.44-5.11-2-9.38-2-9.38-3.44-2.46.41-5.06.41-5.06,7.15-5.36,1-12.6,1-12.6L14.69,102.39c-6.46-5.79-9.35.67-9.35.67-2,2.59-4.14,1.26-5.33.1v47.92c1.91-1.18,3.82,1,3.82,1Z" fill="#231f20"/>
        <path d="M168.35,101.2c-4.17-3.39-7.8-.82-9.83,1.39-2.73,3-4.39,3.31-7.86,5.26-3.14,1.76-5.53,3.13-5.53,3.13-8.39,5.78-1,13-1,13,4.13,3-1,6.36-1,6.36a7.13,7.13,0,0,0-2,7.57,7.52,7.52,0,0,0,3.62,4.24,78,78,0,0,1,9.44,6.27,31,31,0,0,1,3.95,3.74c2.53,2.76,4.34,2.12,6.78,1a15.67,15.67,0,0,0,4-2.75,2.42,2.42,0,0,1,1.08-.55v-47a7.87,7.87,0,0,1-1.65-1.71Z" fill="#231f20"/>
      </g>
      <g id="_2" data-name="2">
        <path d="M93.24,77.28a12.75,12.75,0,0,0-6.53-4.37c-.37-.11-1.66-1.33-2-1.29a14.48,14.48,0,0,0-2,1.35c-1.68.86-3.26,1.38-4.79,2.93a17.33,17.33,0,0,0-4.13,6.78c-.16.43-1.67,2.28-1.63,2.73,0,.28,2.41,2.26,2.53,2.5a18.41,18.41,0,0,0,3.27,4.86c1.67,2,3.25,3.31,5.29,3.76.38.09,1.61,1.63,2,1.65s2.5-1.67,3-1.82a10.84,10.84,0,0,0,4.49-2.91A13.57,13.57,0,0,0,96,88.1c.22-.53,2.16-2.49,2.16-3.07a29.85,29.85,0,0,0-1.88-3.32c-1-2.39-1.48-2.54-3-4.41Z" fill="#939598"/>
        <path d="M138.88,124c-1-2.39-1.48-2.54-3-4.41a12.77,12.77,0,0,0-6.53-4.38c-.37-.11-1.65-1.32-2-1.29a13.74,13.74,0,0,0-2.05,1.36c-1.68.85-3.26,1.38-4.79,2.92a17.4,17.4,0,0,0-4.13,6.78c-.16.43-1.67,2.28-1.63,2.74,0,.27,2.41,2.25,2.53,2.49a18.25,18.25,0,0,0,3.27,4.86c1.67,2,3.25,3.32,5.29,3.77.38.08,1.61,1.63,2,1.65s2.5-1.68,3-1.83a10.84,10.84,0,0,0,4.49-2.91,13.5,13.5,0,0,0,3.39-5.35c.22-.53,2.16-2.48,2.16-3.06a29.09,29.09,0,0,0-1.88-3.33Z" fill="#939598"/>
        <path d="M2.09,12.07c1.68-.85,3.25-1.38,4.79-2.92A17.43,17.43,0,0,0,11,2.36C11.14,2,12.16.72,12.51,0H0V13.4l0,0a15.49,15.49,0,0,0,2.05-1.36Z" fill="#939598"/>
        <path d="M2.5,94.85c1.68-.86,3.25-1.38,4.79-2.92a17.43,17.43,0,0,0,4.13-6.79c.16-.43,1.67-2.27,1.63-2.73,0-.28-2.41-2.26-2.53-2.5a18.41,18.41,0,0,0-3.27-4.86C5.58,73.06,4,71.74,2,71.29c-.37-.08-1.54-1.53-2-1.63V96a.88.88,0,0,0,.45.18A14.48,14.48,0,0,0,2.5,94.84Z" fill="#939598"/>
        <path d="M166.68,71.92a12,12,0,0,0-5,3.21A14.86,14.86,0,0,0,158,81c-.24.58-2.38,2.74-2.39,3.38,0,.46,1.89,3.25,2.07,3.66,1.13,2.64,1.63,2.82,3.37,4.87a14,14,0,0,0,7.21,4.84A20.24,20.24,0,0,1,170,99V69.92h0c-.55,0-2.76,1.85-3.29,2Z" fill="#939598"/>
        <path d="M74.81,3.34c1,2.38,1.48,2.54,3,4.41a12.69,12.69,0,0,0,6.53,4.37c.37.11,1.65,1.33,2,1.3a15.49,15.49,0,0,0,2-1.36c1.68-.86,3.25-1.38,4.79-2.92A17.43,17.43,0,0,0,97.4,2.35C97.53,2,98.55.71,98.91,0h-26a30,30,0,0,0,1.88,3.33Z" fill="#939598"/>
        <path d="M35.22,48a12.77,12.77,0,0,0,6.53,4.38c.37.11,1.66,1.32,2,1.29a13.74,13.74,0,0,0,2.05-1.36c1.68-.85,3.25-1.38,4.79-2.92a17.4,17.4,0,0,0,4.13-6.78c.16-.43,1.67-2.28,1.63-2.74,0-.27-2.41-2.25-2.53-2.5a18.35,18.35,0,0,0-3.27-4.85c-1.67-2-3.25-3.32-5.29-3.77-.38-.09-1.61-1.63-2-1.65s-2.5,1.67-3,1.83a10.84,10.84,0,0,0-4.49,2.91,13.5,13.5,0,0,0-3.39,5.35c-.22.52-2.16,2.48-2.16,3.06a29.09,29.09,0,0,0,1.88,3.33c1,2.38,1.48,2.54,3.05,4.41Z" fill="#939598"/>
        <path d="M50.27,119.66a12.69,12.69,0,0,0-6.53-4.37c-.37-.11-1.65-1.33-2-1.29a14.48,14.48,0,0,0-2.05,1.35c-1.68.86-3.25,1.38-4.79,2.92a17.55,17.55,0,0,0-4.13,6.79c-.16.43-1.67,2.27-1.63,2.73,0,.28,2.41,2.26,2.53,2.5a18.41,18.41,0,0,0,3.27,4.86c1.67,2,3.25,3.31,5.29,3.76.38.09,1.61,1.63,2,1.65s2.5-1.67,3-1.82a10.84,10.84,0,0,0,4.49-2.91A13.44,13.44,0,0,0,53,130.47c.22-.52,2.16-2.48,2.16-3.06a30.9,30.9,0,0,0-1.88-3.33c-1-2.38-1.48-2.53-3-4.41Z" fill="#939598"/>
        <path d="M11.88,165.31c-1-2.38-1.48-2.53-3.05-4.4a12.71,12.71,0,0,0-6.53-4.38c-.37-.11-1.65-1.33-2-1.29a1.09,1.09,0,0,0-.26.12V170H12.9a3.86,3.86,0,0,0,.86-1.37,29.85,29.85,0,0,0-1.88-3.32Z" fill="#939598"/>
        <path d="M92.51,163.51A12.77,12.77,0,0,0,86,159.13c-.37-.11-1.66-1.32-2-1.29a13.74,13.74,0,0,0-2,1.36c-1.68.85-3.26,1.38-4.79,2.92A17.4,17.4,0,0,0,73,168.9a9.11,9.11,0,0,1-.72,1.12H96.83c-.51-.85-1.17-1.85-1.26-2.08-1-2.38-1.48-2.54-3-4.41Z" fill="#939598"/>
        <path d="M167.5,158.08c-1.68.86-3.25,1.38-4.79,2.92a17.43,17.43,0,0,0-4.13,6.79c-.13.33-1,1.49-1.44,2.22H170V156.92a.88.88,0,0,0-.45-.18,14.48,14.48,0,0,0-2.05,1.35Z" fill="#939598"/>
        <path d="M116.53,45.9c1,2.39,1.48,2.54,3,4.41a12.77,12.77,0,0,0,6.53,4.38c.37.11,1.66,1.32,2,1.29a13.74,13.74,0,0,0,2-1.36c1.68-.85,3.26-1.38,4.79-2.92a17.4,17.4,0,0,0,4.13-6.78c.16-.43,1.67-2.28,1.63-2.74,0-.27-2.41-2.25-2.53-2.49A18.25,18.25,0,0,0,135,34.83c-1.67-2-3.25-3.32-5.29-3.77-.38-.08-1.61-1.63-2-1.65s-2.5,1.68-3,1.83a10.84,10.84,0,0,0-4.49,2.91,13.37,13.37,0,0,0-3.38,5.35c-.22.53-2.16,2.49-2.16,3.07a29.85,29.85,0,0,0,1.88,3.32Z" fill="#939598"/>
        <path d="M158.65,3.34c1,2.38,1.48,2.54,3,4.41a12.69,12.69,0,0,0,6.53,4.37c.31.09,1.24.92,1.77,1.19V0H156.77a29.09,29.09,0,0,0,1.88,3.33Z" fill="#939598"/>
      </g>
      <g id="_3" data-name="3">
        <path d="M164.92,153.22c-2.44,1.07-4.25,1.72-6.78-1a31,31,0,0,0-3.95-3.74,80,80,0,0,0-9.44-6.27,7.48,7.48,0,0,1-3.62-4.24,7.11,7.11,0,0,1,2-7.56s5.09-3.33,1-6.37c0,0-7.36-7.22,1-13,0,0,2.38-1.36,5.53-3.13,3.47-2,5.13-2.28,7.86-5.25,2-2.22,5.66-4.79,9.83-1.39a8,8,0,0,0,1.65,1.7V99c-.6-.38-1.44-1.13-1.74-1.22A14,14,0,0,1,161.05,93c-1.74-2.06-2.24-2.24-3.37-4.87-.18-.41-2.07-3.2-2.07-3.66,0-.64,2.15-2.8,2.39-3.38a14.58,14.58,0,0,1,3.74-5.9,12,12,0,0,1,4.95-3.21c.52-.17,2.74-2,3.29-2h0V65.19a2.3,2.3,0,0,0-.77.5,15.65,15.65,0,0,1-3.93,2.79c-2.4,1.07-4.18,1.74-6.67-1.07a29.53,29.53,0,0,0-3.89-3.78,77,77,0,0,0-9.29-6.35A7.54,7.54,0,0,1,141.9,53a7.35,7.35,0,0,1,2-7.66s5-3.37,1-6.45c0,0-8.52-5.73-.27-11.59a46.46,46.46,0,0,0,5.15-2.63A37.61,37.61,0,0,0,159,17.2c2-2.24,5.57-4.84,9.67-1.41a8,8,0,0,0,1.33,1.5v-4c-.53-.27-1.45-1.1-1.77-1.19a12.69,12.69,0,0,1-6.53-4.37c-1.57-1.87-2-2-3.05-4.41A29.77,29.77,0,0,1,156.79,0h-4.7c-.31.87-.18,1.92,1.26,2.93,0,0,3.38,4.16,2,9.14A8.85,8.85,0,0,1,151.46,17a63.26,63.26,0,0,0-11.63,9.22s-6.22,3-8.39-2.25c0,0-2.14-2.46-4.13-.73A15.64,15.64,0,0,1,123.37,26c-2.4,1-4.18,1.68-6.67-1a28.52,28.52,0,0,0-3.89-3.65,77.2,77.2,0,0,0-9.29-6.1A7.34,7.34,0,0,1,100,11c-.66-2-.66-4.69,2-7.37,0,0,2.5-1.63,2.52-3.65H98.93c-.35.71-1.37,2-1.51,2.35a17.55,17.55,0,0,1-4.13,6.79c-1.53,1.54-3.1,2.07-4.79,2.92a17.32,17.32,0,0,1-2,1.36c-.38,0-1.67-1.18-2-1.29a12.77,12.77,0,0,1-6.53-4.38c-1.57-1.87-2-2-3-4.41A29.77,29.77,0,0,1,73,0H66.67a2.77,2.77,0,0,0,1.39,2.1s3.38,4.16,2,9.14a8.8,8.8,0,0,1-3.85,4.92,63.81,63.81,0,0,0-11.63,9.23s-6.22,3-8.39-2.26c0,0-2.14-2.45-4.13-.72a15.64,15.64,0,0,1-3.94,2.69c-2.4,1-4.18,1.68-6.67-1a28.52,28.52,0,0,0-3.89-3.65,77.2,77.2,0,0,0-9.29-6.1,7.39,7.39,0,0,1-3.57-4.15c-.66-2-.66-4.69,2-7.38A6.59,6.59,0,0,0,19,0h-6.5c-.35.71-1.37,2-1.5,2.36A17.52,17.52,0,0,1,6.89,9.17c-1.53,1.54-3.1,2.07-4.79,2.92A15.16,15.16,0,0,1,.05,13.45H0v3.71c.83,1,3.44,3.73,5.9.62,0,0,2.84-6.3,9.2-.66L27.7,27.28s6.09,7.06-.95,12.28c0,0-3.79,2.53-.41,4.93,0,0,3.38,4.16,2,9.14a8.83,8.83,0,0,1-3.85,4.92,63.81,63.81,0,0,0-11.63,9.23s-6.22,3-8.39-2.26c0,0-2.14-2.45-4.13-.72C.21,64.88.11,65,0,65v4.64c.42.1,1.59,1.55,2,1.63,2,.45,3.62,1.77,5.29,3.76a18,18,0,0,1,3.27,4.86c.12.25,2.51,2.22,2.53,2.5,0,.47-1.47,2.31-1.63,2.73A17.55,17.55,0,0,1,7.31,92C5.78,93.49,4.21,94,2.52,94.87a17.32,17.32,0,0,1-2,1.36A1,1,0,0,1,0,96v7.15c1.19,1.15,3.31,2.48,5.33-.1,0,0,2.89-6.47,9.35-.68l12.79,10.43s6.19,7.24-1,12.59c0,0-3.85,2.6-.41,5.07,0,0,3.43,4.26,2,9.37a9.06,9.06,0,0,1-3.92,5.06,65.66,65.66,0,0,0-11.83,9.45S6,157.43,3.83,152.06c0,0-1.91-2.16-3.82-1v4.28a.83.83,0,0,1,.26-.12c.38,0,1.67,1.18,2,1.29a12.71,12.71,0,0,1,6.53,4.38c1.57,1.87,2,2,3.05,4.41a30.56,30.56,0,0,1,1.88,3.32,3.64,3.64,0,0,1-.86,1.37h7.78a4.08,4.08,0,0,0-1.36-1.78s-8.17-5.9-.26-12A44.25,44.25,0,0,0,24,153.57a36.64,36.64,0,0,0,8.92-7.68c1.91-2.31,5.34-5,9.27-1.45,0,0,3.07,5.09,5.92,1.06,0,0,2.72-6.75,8.82-.71L69,155.67s5.83,7.57-.91,13.16A5.72,5.72,0,0,0,67,170h5.27a8,8,0,0,0,.72-1.12,17.52,17.52,0,0,1,4.13-6.78c1.53-1.54,3.1-2.07,4.79-2.92a15.16,15.16,0,0,1,2-1.36c.38,0,1.67,1.18,2,1.29a12.77,12.77,0,0,1,6.53,4.38c1.57,1.87,2,2,3,4.41.1.23.75,1.22,1.26,2.08h4.3a4.1,4.1,0,0,0-1.45-1.79s-8.71-5.89-.28-11.95a46.5,46.5,0,0,0,5.26-2.71,38.41,38.41,0,0,0,9.51-7.68c2-2.31,5.69-5,9.88-1.46,0,0,3.27,5.09,6.31,1.07,0,0,2.9-6.76,9.4-.72l12.85,10.89s6.22,7.56-1,13.15a5.75,5.75,0,0,0-1.18,1.19h6.67c.4-.74,1.31-1.9,1.44-2.23a17.52,17.52,0,0,1,4.13-6.78c1.53-1.54,3.1-2.07,4.79-2.92a17.32,17.32,0,0,1,2.05-1.36,1,1,0,0,1,.45.19v-7a2.39,2.39,0,0,0-1.08.54,15.63,15.63,0,0,1-4,2.76ZM141.74,58.67l12.58,10.56s6.09,7.33-.95,12.76c0,0-3.79,2.64-.41,5.13,0,0,3.38,4.31,2,9.5a9.1,9.1,0,0,1-3.85,5.12,64,64,0,0,0-11.63,9.58s-6.22,3.07-8.39-2.35c0,0-2.14-2.55-4.13-.74A15.65,15.65,0,0,1,123,111c-2.4,1.07-4.18,1.74-6.67-1.06a29.61,29.61,0,0,0-3.89-3.79,75.86,75.86,0,0,0-9.29-6.34,7.54,7.54,0,0,1-3.56-4.3,7.35,7.35,0,0,1,2-7.66s5-3.37,1-6.46c0,0-8.52-5.72-.27-11.59a47.26,47.26,0,0,0,5.15-2.62,37.65,37.65,0,0,0,9.31-7.46c2-2.24,5.57-4.83,9.67-1.41,0,0,3.2,4.94,6.18,1,0,0,2.84-6.55,9.2-.69ZM116.81,39.53a13.55,13.55,0,0,1,3.38-5.35,10.84,10.84,0,0,1,4.49-2.91c.47-.15,2.48-1.85,3-1.82s1.62,1.56,2,1.65c2,.45,3.62,1.77,5.29,3.76a18,18,0,0,1,3.27,4.86c.11.25,2.51,2.22,2.53,2.5,0,.47-1.47,2.3-1.63,2.73A17.44,17.44,0,0,1,135,51.73c-1.53,1.55-3.1,2.07-4.79,2.93a16.08,16.08,0,0,1-2,1.35c-.38,0-1.67-1.18-2-1.29a12.75,12.75,0,0,1-6.53-4.37c-1.57-1.88-2-2-3-4.41a30.69,30.69,0,0,1-1.88-3.33c0-.58,1.94-2.54,2.16-3.06ZM59.94,26.7a32.6,32.6,0,0,1,5.16-3.52c3.42-1.91,5.62-2.64,9.31-5.34,2.33-1.71,6.49-3.31,10.6,0,0,0,3.2,4.74,6.18,1,0,0,2.84-6.3,9.2-.66L113,28.33s6.09,7.06-1,12.28c0,0-3.79,2.54-.41,4.93,0,0,3.38,4.16,2,9.14a8.83,8.83,0,0,1-3.85,4.92,63.81,63.81,0,0,0-11.63,9.23s-6.22,3-8.39-2.26c0,0-2.14-2.45-4.13-.72a15.77,15.77,0,0,1-3.93,2.69c-2.4,1-4.18,1.68-6.67-1a29.08,29.08,0,0,0-3.89-3.64,78.41,78.41,0,0,0-9.29-6.11,7.32,7.32,0,0,1-3.56-4.14,6.9,6.9,0,0,1,2-7.38s5-3.25.95-6.2c0,0-9.46-7.68-1.2-13.33ZM98.18,85c0,.58-1.94,2.54-2.16,3.07a13.46,13.46,0,0,1-3.39,5.35,10.84,10.84,0,0,1-4.49,2.91c-.47.15-2.48,1.85-3,1.82s-1.62-1.56-2-1.65c-2-.45-3.62-1.77-5.29-3.76a18,18,0,0,1-3.27-4.86c-.11-.25-2.51-2.22-2.53-2.5,0-.47,1.47-2.3,1.63-2.73a17.44,17.44,0,0,1,4.13-6.78c1.53-1.55,3.1-2.07,4.79-2.93a16.08,16.08,0,0,1,2-1.35c.38,0,1.67,1.18,2,1.29a12.75,12.75,0,0,1,6.53,4.37c1.57,1.88,2,2,3.05,4.41A30.69,30.69,0,0,1,98.17,85ZM32.45,37.16a13.46,13.46,0,0,1,3.39-5.35,10.84,10.84,0,0,1,4.49-2.91c.47-.15,2.48-1.85,3-1.83s1.62,1.57,2,1.65c2,.45,3.62,1.78,5.29,3.77a17.86,17.86,0,0,1,3.27,4.86c.11.25,2.51,2.22,2.53,2.49,0,.47-1.47,2.31-1.63,2.74a17.52,17.52,0,0,1-4.13,6.78c-1.53,1.54-3.1,2.07-4.79,2.92a15.16,15.16,0,0,1-2.05,1.36c-.38,0-1.67-1.18-2-1.29A12.77,12.77,0,0,1,35.23,48c-1.57-1.87-2-2-3-4.41a29.77,29.77,0,0,1-1.88-3.33c0-.58,1.94-2.53,2.16-3.06ZM26.82,106a77.91,77.91,0,0,0-9.49-6.54A7.77,7.77,0,0,1,13.69,95a7.65,7.65,0,0,1,2-7.9s5.11-3.48,1-6.65c0,0-8.71-5.9-.28-12a47.92,47.92,0,0,0,5.26-2.72,38.41,38.41,0,0,0,9.51-7.68c2-2.31,5.69-5,9.88-1.45,0,0,3.27,5.08,6.31,1.06,0,0,2.9-6.75,9.4-.71L69.61,67.86s6.22,7.56-1,13.16c0,0-3.87,2.72-.41,5.29,0,0,3.45,4.46,2,9.8a9.39,9.39,0,0,1-3.94,5.27,66.07,66.07,0,0,0-11.88,9.88s-6.36,3.17-8.57-2.42c0,0-2.18-2.62-4.22-.77a15.75,15.75,0,0,1-4,2.87c-2.45,1.11-4.27,1.8-6.81-1.09a30.53,30.53,0,0,0-4-3.91ZM53,130.46a13.41,13.41,0,0,1-3.38,5.35,10.88,10.88,0,0,1-4.49,2.92c-.47.15-2.48,1.84-3,1.82s-1.62-1.56-2-1.65c-2-.45-3.62-1.77-5.29-3.76a18,18,0,0,1-3.27-4.86c-.11-.25-2.51-2.22-2.53-2.5,0-.47,1.47-2.31,1.63-2.73a17.55,17.55,0,0,1,4.13-6.79c1.53-1.54,3.1-2.06,4.79-2.92A16.08,16.08,0,0,1,41.7,114c.38,0,1.67,1.18,2,1.29a12.69,12.69,0,0,1,6.53,4.37c1.57,1.87,2,2,3,4.41a30.69,30.69,0,0,1,1.88,3.33c0,.58-1.94,2.54-2.16,3.06Zm57.77-5.89s-3.85,2.6-.41,5.06c0,0,3.43,4.27,2,9.38a9.13,9.13,0,0,1-3.92,5.06,65.22,65.22,0,0,0-11.83,9.45s-6.33,3-8.53-2.32c0,0-2.17-2.52-4.2-.74a15.85,15.85,0,0,1-4,2.75c-2.44,1.06-4.25,1.72-6.78-1a31,31,0,0,0-3.95-3.74,78.82,78.82,0,0,0-9.44-6.27,7.48,7.48,0,0,1-3.62-4.24,7.13,7.13,0,0,1,2-7.57s5.09-3.32,1-6.36c0,0-7.36-7.23,1-13,0,0,2.38-1.36,5.53-3.13,3.47-1.95,5.13-2.28,7.86-5.26,2-2.21,5.66-4.78,9.83-1.39,0,0,3.26,4.88,6.28,1,0,0,2.89-6.46,9.35-.68L111.76,112s6.19,7.25-1,12.6Zm27.79,5.84a13.46,13.46,0,0,1-3.39,5.35,10.84,10.84,0,0,1-4.49,2.91c-.47.15-2.48,1.85-3,1.83s-1.62-1.57-2-1.65c-2-.45-3.62-1.78-5.29-3.77a17.86,17.86,0,0,1-3.27-4.86c-.11-.25-2.51-2.22-2.53-2.49,0-.47,1.47-2.31,1.63-2.74a17.52,17.52,0,0,1,4.13-6.78c1.53-1.54,3.1-2.07,4.79-2.92a15.16,15.16,0,0,1,2-1.36c.38,0,1.67,1.18,2,1.29a12.77,12.77,0,0,1,6.53,4.38c1.57,1.87,2,2,3.05,4.41a30.56,30.56,0,0,1,1.88,3.32c0,.58-1.94,2.54-2.16,3.07Z" fill="#fff"/>
      </g>
    </g>
  </g>
</svg>
