<svg xmlns="http://www.w3.org/2000/svg" width="100%" viewBox="0 0 171 170.98">
  <g id="Camada_2" data-name="Camada 2">
    <g id="Camada_1-2" data-name="Camada 1">
      <g id="_1" data-name="1">
        <polygon points="0.5 62.4 20.79 42.04 20.79 42.04 0.5 62.4" fill="none" stroke="#231f20" stroke-miterlimit="10" stroke-width="1"/>
        <polygon points="41.83 20.93 62.18 0.5 41.83 20.93 41.83 20.93" fill="none" stroke="#231f20" stroke-miterlimit="10"/>
        <polygon points="41.83 150.05 62.18 170.48 62.6 170.48 41.84 149.65 41.83 150.05" fill="none" stroke="#231f20" stroke-miterlimit="10"/>
        <polygon points="21.2 128.93 0.5 108.16 0.5 108.57 20.79 128.93 21.2 128.93" fill="none" stroke="#231f20" stroke-miterlimit="10"/>
        <polygon points="149.75 42 170.5 62.83 170.5 62.41 150.15 41.99 149.75 42" fill="none" stroke="#231f20" stroke-miterlimit="10"/>
        <polygon points="129.11 21.28 129.11 20.86 108.82 0.5 108.4 0.5 115.81 7.94 129.11 21.28" fill="none" stroke="#231f20" stroke-miterlimit="10"/>
        <polygon points="35.66 128.93 36.02 128.93 0.5 93.28 0.5 93.64 10.31 103.49 35.66 128.93" fill="none" stroke="#231f20" stroke-miterlimit="10"/>
        <polygon points="42.17 135.47 77.06 170.48 77.41 170.48 42.18 135.12 42.17 135.47" fill="none" stroke="#231f20" stroke-miterlimit="10"/>
        <polygon points="41.84 149.65 62.6 170.48 77.06 170.48 42.17 135.47 41.84 149.65" fill="#231f20"/>
        <polygon points="35.66 128.93 10.31 103.49 0.5 93.64 0.5 108.16 21.2 128.93 35.66 128.93" fill="#231f20"/>
        <polygon points="20.79 42.05 0.5 62.41 0.5 77.34 35.66 42.05 20.79 42.05" fill="#231f20"/>
        <polygon points="42.17 35.51 66.64 10.95 77.06 0.5 62.18 0.5 41.83 20.93 42.17 35.51" fill="#231f20"/>
        <polygon points="160.69 103.49 135.34 128.93 135.34 128.93 160.69 103.49" fill="none" stroke="#231f20" stroke-miterlimit="10"/>
        <polygon points="128.83 135.47 93.94 170.48 128.83 135.47 128.83 135.47" fill="none" stroke="#231f20" stroke-miterlimit="10"/>
        <polygon points="128.83 135.47 93.94 170.48 108.82 170.48 129.17 150.05 128.83 135.47" fill="#231f20"/>
        <polygon points="135.34 128.93 150.21 128.93 170.5 108.57 170.5 93.64 160.69 103.49 135.34 128.93" fill="#231f20"/>
        <polygon points="135.62 42.33 135.27 42.34 170.5 77.7 170.5 62.83 149.75 42 135.62 42.33" fill="#231f20"/>
        <polygon points="129.11 36.15 129.11 35.79 129.11 21.28 115.81 7.94 108.4 0.5 93.59 0.5 111.64 18.62 129.11 36.15" fill="#231f20"/>
        <path d="M85.37,15.36l-14,14.09L15.63,85.36l70,70.26,33.75-33.87L142,99l13.34-13.39L105.14,35.22,85.36,15.37ZM129.28,96l-17.53,17.6L85.61,139.8,31.4,85.39,74.53,42.1,85.41,31.18l15.32,15.37,38.89,39L129.29,96Z" fill="#231f20"/>
      </g>
      <g id="_2" data-name="2">
        <path d="M129.11,42.48V36.15L111.64,18.62,93.59.5H77.06L66.64,11,42.17,35.52l.15,6.54H35.66L.5,77.34V93.28L36,128.93h6.3l-.14,6.19,35.23,35.36H93.94l34.88-35-.15-6.54h6.66l25.35-25.44,9.81-9.85V77.7L135.26,42.34l-6.16.14Zm22.34,58.79L125,127.78,85.66,167.31,4,85.33,69,20.11,85.34,3.66l23.08,23.17L167,85.64l-15.57,15.63Z" fill="#939598"/>
        <path d="M166.82,34.54c-4.79.54-6.16-2.22-6.16-2.22,8.66-8.88,5.94-18.15,5-20.53h0a32.45,32.45,0,0,0-3,1.62l-.05,0a24.13,24.13,0,0,0-2.8,2l-.38.34a20.36,20.36,0,0,0-2,2c-.2.23-.41.46-.6.7A18,18,0,0,0,152.91,27s-.93,7,5.34,14.8a40.17,40.17,0,0,0,12.24,9.86V41.94c-3.47-2.06-3.68-7.4-3.68-7.4Z" fill="#939598"/>
        <path d="M129.12,13.77c10.16,7.21,21.2,2.11,23.48.89l.47-.25a9.72,9.72,0,0,0,1.24-1c.12-.11.23-.24.35-.36.29-.3.56-.64.83-1,.1-.13.21-.26.31-.4a15.91,15.91,0,0,0,1-1.49l.18-.33c.25-.44.48-.89.71-1.34.11-.22.21-.44.31-.66s.33-.74.49-1.11.2-.47.29-.7c.21-.52.41-1,.59-1.57v0a19.53,19.53,0,0,0-3.48-.23c-.2,0-.42,0-.62,0a15.48,15.48,0,0,0-2.25.3,18.29,18.29,0,0,0-3,.83,21.55,21.55,0,0,0-7.7,5S139.55,9,140.08,4.19c0,0-5.31-.21-7.37-3.69H118.43a59,59,0,0,0,4.78,7.39,26,26,0,0,0,5.91,5.88Z" fill="#939598"/>
        <path d="M157.28,128.94c-7.18,10.2-2.1,21.28-.89,23.57l.25.47a9.15,9.15,0,0,0,1,1.25c.11.12.24.23.36.35.3.29.63.56,1,.83l.4.31a14.2,14.2,0,0,0,1.49,1l.33.18c.43.25.88.48,1.33.71l.66.31,1.1.49.7.3c.52.21,1,.41,1.56.59h0a19.76,19.76,0,0,0,.23-3.5c0-.2,0-.42-.05-.62a17.28,17.28,0,0,0-.29-2.26,18.67,18.67,0,0,0-.83-3,21.7,21.7,0,0,0-5-7.73s1.37-2.75,6.16-2.21c0,0,.21-5.34,3.68-7.4V118.21a59.67,59.67,0,0,0-7.36,4.8,26.16,26.16,0,0,0-5.86,5.93Z" fill="#939598"/>
        <path d="M136.59,166.8c-.54-4.81,2.21-6.19,2.21-6.19,8.85,8.7,18.08,6,20.45,5h0a32.45,32.45,0,0,0-1.61-3l0,0a25.38,25.38,0,0,0-2-2.81l-.34-.38a21.47,21.47,0,0,0-2-2c-.23-.2-.46-.41-.7-.6a19.08,19.08,0,0,0-2.92-2,18.47,18.47,0,0,0-5.53-1.95s-6.92-.93-14.74,5.36a40.3,40.3,0,0,0-9.83,12.29h9.69c2.05-3.48,7.37-3.69,7.37-3.69Z" fill="#939598"/>
        <polygon points="144.54 134.63 136.48 134.63 136.48 142.72 136.48 145.25 147.07 145.25 147.07 134.63 144.54 134.63" fill="#939598"/>
        <polygon points="134.78 24.02 134.78 26.55 134.78 26.97 134.78 34.65 142.42 34.65 142.84 34.65 145.36 34.65 145.36 24.02 134.78 24.02" fill="#939598"/>
        <path d="M91.13,82l-3.91-.1V78s6.55-5,6.55-11.88a6.14,6.14,0,0,0-4.3.51s5.18-5.92,2.74-10.53c0,0-4.11-.39-4.7,1.17,0,0-.2-7.66-4.89-10.55,0,0-4.7,6-3.91,10.16,0,0-3.44-1.59-5.28-.59,0,0-1.37,6.57,1.66,8.25a18.66,18.66,0,0,0-5.48,1.09s1.57,10.4,9.1,13l-.1,3.93H74.7s-5-6.58-11.84-6.58a6.26,6.26,0,0,0,.51,4.32s-5.9-5.2-10.49-2.75c0,0-.39,4.13,1.17,4.72,0,0-7.63.2-10.51,4.91,0,0,6,4.71,10.12,3.92,0,0-1.59,3.45-.59,5.3,0,0,6.55,1.38,8.22-1.67a19,19,0,0,0,1.08,5.51s10.37-1.58,12.91-9.14l3.91.1v3.93s-6.55,5-6.55,11.88a6.2,6.2,0,0,0,4.3-.51S71.76,112.38,74.2,117c0,0,4.11.39,4.7-1.18,0,0,.2,7.66,4.89,10.55,0,0,4.7-6,3.91-10.15,0,0,3.44,1.59,5.28.59,0,0,1.37-6.58-1.66-8.25a18.66,18.66,0,0,0,5.48-1.09s-1.57-10.41-9.1-13l.1-3.92h3.91s5,6.57,11.84,6.57a6.23,6.23,0,0,0-.51-4.31s5.9,5.2,10.49,2.75c0,0,.39-4.13-1.17-4.72,0,0,7.63-.2,10.51-4.91,0,0-6-4.72-10.12-3.92,0,0,1.59-3.46.59-5.3,0,0-6.55-1.38-8.22,1.66A19,19,0,0,0,104,72.9S93.67,74.48,91.13,82Z" fill="#939598"/>
        <path d="M13.72,42c7.18-10.2,2.1-21.28.89-23.57L14.36,18a9.15,9.15,0,0,0-1-1.25c-.11-.12-.24-.23-.36-.35-.3-.29-.63-.56-1-.83l-.4-.31a14.2,14.2,0,0,0-1.49-1l-.33-.18c-.43-.25-.88-.48-1.33-.71l-.66-.31-1.1-.49-.7-.3c-.52-.21-1-.41-1.56-.59h0a19.76,19.76,0,0,0-.23,3.5c0,.2,0,.42,0,.62a17.28,17.28,0,0,0,.29,2.26,18.67,18.67,0,0,0,.83,3,21.7,21.7,0,0,0,5,7.73S9,31.57,4.18,31c0,0-.21,5.34-3.68,7.4V52.77A59.67,59.67,0,0,0,7.86,48,26.16,26.16,0,0,0,13.72,42Z" fill="#939598"/>
        <path d="M34.41,4.18C35,9,32.2,10.37,32.2,10.37c-8.85-8.7-18.08-6-20.45-5h0a32.45,32.45,0,0,0,1.61,3l0,0a25.38,25.38,0,0,0,2,2.81l.34.38a21.47,21.47,0,0,0,2,2c.23.2.46.41.7.6a19.08,19.08,0,0,0,2.92,2,18.47,18.47,0,0,0,5.53,1.95s6.92.93,14.74-5.36A40.3,40.3,0,0,0,51.47.5H41.78C39.73,4,34.41,4.19,34.41,4.19Z" fill="#939598"/>
        <path d="M4.18,139.94c4.79-.55,6.16,2.21,6.16,2.21a21.7,21.7,0,0,0-5,7.73,18.67,18.67,0,0,0-.83,3,19.17,19.17,0,0,0-.29,2.26c0,.2,0,.42,0,.62a18,18,0,0,0,.23,3.5h0c.52-.18,1-.38,1.56-.59.24-.09.47-.21.7-.3l1.1-.49.66-.31c.46-.22.9-.46,1.33-.71l.33-.18a17.42,17.42,0,0,0,1.49-1l.4-.31c.34-.27.67-.54,1-.83l.36-.35a8,8,0,0,0,1-1.25s.11-.19.25-.47c1.2-2.29,6.29-13.37-.89-23.57A26,26,0,0,0,7.86,123,60.44,60.44,0,0,0,.5,118.2v14.34c3.47,2.05,3.68,7.4,3.68,7.4Z" fill="#939598"/>
        <path d="M41.64,158.19c-7.82-6.29-14.74-5.36-14.74-5.36a17.89,17.89,0,0,0-8.45,4c-.24.19-.47.4-.7.6a21.47,21.47,0,0,0-2,2l-.34.38a27.41,27.41,0,0,0-2,2.81l0,0a29.12,29.12,0,0,0-1.61,3h0c2.37.92,11.6,3.64,20.45-5,0,0,2.75,1.38,2.21,6.19,0,0,5.31.21,7.37,3.69h9.69a40.18,40.18,0,0,0-9.83-12.29Z" fill="#939598"/>
        <polygon points="26.87 134.63 26.46 134.63 23.93 134.63 23.93 145.25 34.52 145.25 34.52 142.72 34.52 142.3 34.52 134.63 26.87 134.63" fill="#939598"/>
        <polygon points="23.93 25.73 23.93 36.35 26.46 36.35 26.46 36.35 34.52 36.35 34.52 28.27 34.52 25.73 23.93 25.73" fill="#939598"/>
      </g>
      <g id="_3" data-name="3">
        <path d="M85.34,3.66,69,20.11,4,85.33l81.67,82L125,127.78l26.41-26.51L167,85.64,108.42,26.83ZM142,99l-22.64,22.73L85.63,155.62l-70-70.26,55.69-55.9,14-14.09,19.78,19.85,50.22,50.41L142,99Z" fill="#fff"/>
        <path d="M85.4,31.18,74.52,42.1,31.39,85.39,85.6,139.8l26.14-26.23L129.27,96,139.6,85.6l-38.89-39L85.39,31.19ZM105.12,78.4c1.66-3,8.22-1.66,8.22-1.66,1,1.84-.59,5.3-.59,5.3,4.11-.79,10.12,3.92,10.12,3.92-2.89,4.72-10.51,4.91-10.51,4.91,1.57.59,1.17,4.72,1.17,4.72-4.6,2.46-10.49-2.75-10.49-2.75a6.16,6.16,0,0,1,.51,4.31c-6.85,0-11.84-6.57-11.84-6.57H87.8l-.1,3.92c7.53,2.55,9.1,13,9.1,13a18.66,18.66,0,0,1-5.48,1.09c3,1.66,1.66,8.25,1.66,8.25-1.84,1-5.28-.59-5.28-.59.78,4.12-3.91,10.15-3.91,10.15-4.7-2.9-4.89-10.55-4.89-10.55-.59,1.58-4.7,1.18-4.7,1.18-2.45-4.62,2.74-10.53,2.74-10.53a6.14,6.14,0,0,1-4.3.51c0-6.87,6.55-11.88,6.55-11.88V91.16l-3.91-.1c-2.54,7.56-12.91,9.14-12.91,9.14a19,19,0,0,1-1.08-5.51c-1.66,3-8.22,1.67-8.22,1.67-1-1.85.59-5.3.59-5.3-4.11.78-10.12-3.92-10.12-3.92,2.89-4.72,10.51-4.91,10.51-4.91-1.57-.59-1.17-4.72-1.17-4.72,4.6-2.46,10.49,2.75,10.49,2.75a6.19,6.19,0,0,1-.51-4.32c6.85,0,11.84,6.58,11.84,6.58h3.91l.1-3.93c-7.53-2.55-9.1-13-9.1-13a18.66,18.66,0,0,1,5.48-1.09c-3-1.67-1.66-8.25-1.66-8.25,1.84-1,5.28.59,5.28.59-.78-4.12,3.91-10.16,3.91-10.16,4.7,2.91,4.89,10.55,4.89,10.55.59-1.57,4.7-1.17,4.7-1.17,2.45,4.62-2.74,10.53-2.74,10.53a6.07,6.07,0,0,1,4.3-.51C93.77,73,87.22,78,87.22,78v3.93l3.91.1C93.67,74.48,104,72.9,104,72.9A19,19,0,0,1,105.12,78.4Z" fill="#fff"/>
        <path d="M160.55.5H132.7c2.05,3.48,7.37,3.69,7.37,3.69-.54,4.81,2.21,6.19,2.21,6.19a21.55,21.55,0,0,1,7.7-5,18.29,18.29,0,0,1,3-.83,17,17,0,0,1,2.25-.3c.2,0,.42,0,.62,0a17.82,17.82,0,0,1,3.48.23v0c-.18.53-.38,1-.59,1.57-.09.24-.2.47-.29.7s-.32.75-.49,1.11l-.31.66c-.22.46-.46.9-.71,1.34l-.18.33c-.31.52-.63,1-1,1.49-.1.14-.21.27-.31.4-.27.34-.54.68-.83,1l-.35.36a8.39,8.39,0,0,1-1.24,1l-.47.25c-2.28,1.21-13.32,6.32-23.48-.89a25.82,25.82,0,0,1-5.91-5.88A59.71,59.71,0,0,1,118.42.5h-9.61L129.1,20.87V42.49l6.16-.14h.35L149.74,42h.41L170.5,62.42V51.67a40,40,0,0,1-12.24-9.86C152,34,152.92,27,152.92,27a18.87,18.87,0,0,1,1.94-5.55,18.65,18.65,0,0,1,2-2.93c.19-.24.4-.47.6-.7a20.36,20.36,0,0,1,2-2l.38-.34a26,26,0,0,1,2.8-2l.05,0a29.12,29.12,0,0,1,3-1.62h0c.91,2.38,3.62,11.65-5,20.53,0,0,1.37,2.76,6.16,2.22,0,0,.21,5.33,3.68,7.4V.5h-10ZM134.77,34.65V24h10.58V34.65Z" fill="#fff"/>
        <path d="M41.83,20.93,62.18.5H51.47a40.18,40.18,0,0,1-9.83,12.29c-7.82,6.29-14.74,5.36-14.74,5.36a18.75,18.75,0,0,1-5.53-1.95,19.08,19.08,0,0,1-2.92-2c-.24-.19-.47-.4-.7-.6a21.47,21.47,0,0,1-2-2l-.34-.38a27.41,27.41,0,0,1-2-2.81l0,0a29.12,29.12,0,0,1-1.61-3h0c2.37-.92,11.6-3.64,20.45,5,0,0,2.75-1.38,2.21-6.19,0,0,5.31-.21,7.37-3.69H.5V38.43C4,36.38,4.18,31,4.18,31c4.79.55,6.16-2.21,6.16-2.21a21.7,21.7,0,0,1-5-7.73,18.67,18.67,0,0,1-.83-3,19.17,19.17,0,0,1-.29-2.26c0-.2,0-.42,0-.62a18,18,0,0,1,.23-3.5h0c.52.18,1,.38,1.56.59.24.09.47.21.7.3l1.1.49.66.31c.46.22.9.46,1.33.71l.33.18a17.42,17.42,0,0,1,1.49,1l.4.31c.34.27.67.54,1,.83l.36.35a8,8,0,0,1,1,1.25s.11.19.25.47c1.2,2.29,6.29,13.37-.89,23.57A26,26,0,0,1,7.86,48,60.44,60.44,0,0,1,.5,52.77v9.64L20.79,42.05H42.33l-.15-6.54-.34-14.59ZM34.52,36.36H23.94V25.74H34.52Z" fill="#fff"/>
        <path d="M41.83,150.05v-.41l.34-14.18v-.35l.15-6.19H20.78L.5,108.57v9.64A59.67,59.67,0,0,1,7.86,123a26.16,26.16,0,0,1,5.86,5.93c7.18,10.2,2.1,21.28.89,23.57l-.25.47a9.15,9.15,0,0,1-1,1.25c-.11.12-.24.23-.36.35-.3.29-.63.56-1,.83l-.4.31a14.2,14.2,0,0,1-1.49,1l-.33.18c-.43.25-.88.48-1.33.71l-.66.31-1.1.49-.7.3c-.52.21-1,.41-1.56.59h0a19.76,19.76,0,0,1-.23-3.5c0-.2,0-.42,0-.62a17.28,17.28,0,0,1,.29-2.26,18.67,18.67,0,0,1,.83-3,21.7,21.7,0,0,1,5-7.73S9,139.41,4.18,140c0,0-.21-5.34-3.68-7.4v37.94H41.78c-2.05-3.48-7.37-3.69-7.37-3.69.54-4.81-2.21-6.19-2.21-6.19-8.85,8.7-18.08,6-20.45,5h0a32.45,32.45,0,0,1,1.61-3l0,0a25.38,25.38,0,0,1,2-2.81l.34-.38a21.47,21.47,0,0,1,2-2c.23-.2.46-.41.7-.6a19.08,19.08,0,0,1,2.92-2,18.47,18.47,0,0,1,5.53-1.95s6.92-.93,14.74,5.36a40.3,40.3,0,0,1,9.83,12.29H62.18L41.83,150.05Zm-7.31-7.33v2.53H23.94V134.63H34.52Z" fill="#fff"/>
        <path d="M163.14,123a60.44,60.44,0,0,1,7.36-4.8v-9.64l-20.29,20.36H128.67l.15,6.54.34,14.59-20.35,20.43h10.71a40.18,40.18,0,0,1,9.83-12.29c7.82-6.29,14.74-5.36,14.74-5.36a17.89,17.89,0,0,1,8.45,4c.24.19.47.4.7.6a21.47,21.47,0,0,1,2,2l.34.38a27.41,27.41,0,0,1,2,2.81l0,.05a29.12,29.12,0,0,1,1.61,3h0c-2.37.92-11.6,3.64-20.45-5,0,0-2.75,1.38-2.21,6.19,0,0-5.31.21-7.37,3.69h41.28V132.56c-3.47,2.05-3.68,7.4-3.68,7.4-4.79-.55-6.16,2.21-6.16,2.21a21.7,21.7,0,0,1,5,7.73,18.67,18.67,0,0,1,.83,3,19.17,19.17,0,0,1,.29,2.26c0,.2.05.42.05.62a18,18,0,0,1-.23,3.5h0c-.52-.18-1-.38-1.56-.59-.24-.09-.47-.21-.7-.3l-1.1-.49-.66-.31c-.46-.22-.9-.46-1.33-.71l-.33-.18a17.42,17.42,0,0,1-1.49-1l-.4-.31c-.34-.27-.67-.54-1-.83l-.36-.35a8,8,0,0,1-1-1.25s-.11-.19-.25-.47c-1.2-2.29-6.29-13.37.89-23.57a26,26,0,0,1,5.86-5.93Zm-16.07,22.25H136.49V134.64h10.58Z" fill="#fff"/>
      </g>
    </g>
  </g>
</svg>
