<svg xmlns="http://www.w3.org/2000/svg" width="100%" viewBox="0 0 170.03 170.03">
  <g id="Camada_2" data-name="Camada 2">
    <g id="Camada_1-2" data-name="Camada 1">
      <g id="_1" data-name="1">
        <path d="M43.65,41.24A50.54,50.54,0,0,1,66.56,0H58.19C49.12,11.77,29.68,9.36,29.68,9.36,22.62,6.47,19.6,8,19.6,8c-3.26,2.93,1.47,6.09,5,7.88a17.89,17.89,0,0,1,7,6.17,40.1,40.1,0,0,1,5.76,15.09C22.91,37,18.45,26.36,18.45,26.36c-2.67-8.13-6.38-9.14-8.27-9.06a1.22,1.22,0,0,0-1,1.46C14.35,50.84,0,52,0,52V69.53C4.8,62.61,17.32,48.51,43.65,41.24Z" fill="#231f20"/>
        <path d="M98.89,156s23.18-6.38,16-35.23c0,0-1.3-11.23-12.53-7.28,0,0-6.91,6.07.43,11.08,0,0,4.61,1.52,6.62-.45a10.44,10.44,0,0,1-1.73,7s1.15,7-2,8.05c0,0-.72-4.1-3.74-5.93s-14.77-7.73-11.56-22.46c0,0,6.23-9.26,14.73-6.38,0,0-1.44-14.42,11.52-14.73a19,19,0,0,1,17.2,10.32,50,50,0,0,0,7.13,1.67s-2.45,4.1-9.5,4.1a7.84,7.84,0,0,1-7.06,2.28s3-9.72-6.77-9c0,0-7.78,2.58-4.61,10.47,0,0,20.88,17.92,37.29-5.76,0,0,2.55-13.91,19.73-17.21V80.65c-6.22-.43-17.29-2.31-17.7-10.27,0,0-6.05-24.44-33.41-16.85,0,0-10.66,1.38-6.91,13.21,0,0,5.76,7.29,10.51-.45,0,0,1.44-4.86-.43-7a9.11,9.11,0,0,1,6.62,1.83s6.62-1.22,7.63,2.13c0,0-3.89.75-5.62,3.94s-7.34,15.57-21.31,12.19c0,0-8.78-6.57-6-15.53,0,0-13.68,1.51-14-12.15,0,0-.72-12,9.79-18.13a58.63,58.63,0,0,0,1.58-7.52s3.89,2.58,3.89,10a8.76,8.76,0,0,1,2.16,7.44s-9.22-3.18-8.5,7.14c0,0,2.45,8.2,9.94,4.86,0,0,17-22-5.47-39.32,0,0-10.91-2.19-15.25-16.18H79.65c-.08,5.25-1.33,13.64-8.53,14.05,0,0-23.18,6.38-16,35.23,0,0,1.3,11.24,12.53,7.28,0,0,6.91-6.07-.43-11.08,0,0-4.61-1.52-6.62.46a10.46,10.46,0,0,1,1.73-7s-1.15-7,2-8c0,0,.72,4.1,3.74,5.93s14.77,7.74,11.56,22.46c0,0-6.23,9.26-14.73,6.38,0,0,1.44,14.42-11.52,14.73a19,19,0,0,1-17.2-10.32,51.54,51.54,0,0,0-7.13-1.67s2.45-4.1,9.5-4.1a7.87,7.87,0,0,1,7.06-2.28s-3,9.72,6.77,9c0,0,7.78-2.59,4.61-10.48,0,0-20.88-17.92-37.29,5.76,0,0-2.55,13.91-19.73,17.21v5.06c7.49.38,17.35,2.17,17.7,9,0,0,6.05,24.44,33.41,16.85,0,0,10.66-1.37,6.91-13.21,0,0-5.76-7.28-10.51.45,0,0-1.44,4.86.43,7a9.13,9.13,0,0,1-6.62-1.82s-6.62,1.21-7.63-2.13c0,0,3.89-.76,5.62-3.94S46.66,85.22,60.63,88.6c0,0,8.78,6.57,6.05,15.53,0,0,13.68-1.52,14,12.14,0,0,.72,12-9.79,18.14a58.28,58.28,0,0,0-1.58,7.51s-3.89-2.58-3.89-10a8.76,8.76,0,0,1-2.16-7.44s9.22,3.18,8.5-7.14c0,0-2.45-8.2-9.94-4.86,0,0-17,22,5.47,39.31,0,0,11.92,2.44,15.79,18.24h7.31c.08-5.25,1.33-13.64,8.53-14.05Zm29-74.36s7.86-.85,11.71-6.11a.53.53,0,0,1,.88,0c.87,1.29,3.32,4,8.93,4.86V86.7A10.68,10.68,0,0,0,141,92.11a.8.8,0,0,1-1.3.2c-1.41-1.45-5-4.26-11.9-4.34V81.6Zm-87.26,7s-8.39.91-12.48,6.52a.57.57,0,0,1-.94,0c-.93-1.38-3.54-4.26-9.52-5.19V83.15a11.36,11.36,0,0,0,8.87-5.77.87.87,0,0,1,1.39-.22c1.5,1.55,5.34,4.54,12.69,4.63v6.79ZM73.86,26a.67.67,0,0,1,0-1.05c1.37-1,4.25-3.93,5.18-10.57H85.8a13,13,0,0,0,5.77,9.86,1,1,0,0,1,.22,1.54c-1.55,1.66-4.54,5.93-4.63,14.09H80.38S79.47,30.56,73.86,26Zm4.92,73.7C78.42,99.18,76,98.5,76,98.5a13.42,13.42,0,0,0,3.6-1.59c1.21-1.32,1.51-4.28,1.57-6.46a6.7,6.7,0,0,1-2-2.53,17.38,17.38,0,0,0-5.56,1.38c-.79.45-1.58,4.32-1.58,4.32a9.39,9.39,0,0,0-.79-3.34c-7.56,1.44-8.42-6.38-8.42-6.38.79-7.67,8.21-5.46,8.21-5.46.5-.38,1.15-2.89,1.15-2.89a15,15,0,0,0,1.51,3.79c1.25,1.28,4.06,1.6,6.12,1.66a6.61,6.61,0,0,1,2.4-2.09A19.82,19.82,0,0,0,81,73.05c-.43-.83-4.1-1.67-4.1-1.67A8.18,8.18,0,0,0,80,70.55c-1.37-8,6-8.88,6-8.88,7.27.84,5.18,8.66,5.18,8.66.36.53,2.74,1.21,2.74,1.21a13.75,13.75,0,0,0-3.6,1.59c-1.21,1.32-1.51,4.28-1.57,6.46a6.7,6.7,0,0,1,2,2.53,17.53,17.53,0,0,0,5.56-1.37c.79-.46,1.58-4.33,1.58-4.33a9.39,9.39,0,0,0,.79,3.34c7.56-1.44,8.42,6.38,8.42,6.38C106.38,93.81,99,91.6,99,91.6c-.5.38-1.15,2.89-1.15,2.89A15,15,0,0,0,96.3,90.7c-1.25-1.28-4.06-1.59-6.12-1.66a6.61,6.61,0,0,1-2.4,2.09A19.82,19.82,0,0,0,89.08,97c.43.83,4.1,1.67,4.1,1.67a8.18,8.18,0,0,0-3.17.83c1.37,8-6.05,8.88-6.05,8.88C76.69,107.53,78.78,99.71,78.78,99.71ZM89.85,152H84.28a10.65,10.65,0,0,0-4.74-8.09.85.85,0,0,1-.18-1.27c1.28-1.37,3.73-4.87,3.8-11.58h5.57s.74,7.66,5.35,11.4a.54.54,0,0,1,0,.86c-1.13.84-3.49,3.22-4.25,8.68Z" fill="#231f20"/>
        <path d="M126.39,128.79A50.54,50.54,0,0,1,103.48,170h8.37c9.07-11.76,28.51-9.35,28.51-9.35,7.06,2.89,10.08,1.37,10.08,1.37,3.26-2.93-1.47-6.09-5-7.88a17.89,17.89,0,0,1-7-6.17,40.1,40.1,0,0,1-5.76-15.09c14.4.15,18.86,10.77,18.86,10.77,2.67,8.13,6.38,9.14,8.27,9.05a1.22,1.22,0,0,0,1-1.46C155.69,119.19,170,118,170,118V100.5c-4.78,6.92-17.3,21-43.63,28.29Z" fill="#231f20"/>
        <path d="M43.5,126.57S15.84,124.51,0,100.35v8.33c11.15,9.57,8.87,30.06,8.87,30.06-2.74,7.44-1.3,10.63-1.3,10.63,2.78,3.43,5.78-1.55,7.47-5.26a18.32,18.32,0,0,1,5.86-7.34,35.55,35.55,0,0,1,14.31-6.07C35.09,145.88,25,150.58,25,150.58c-7.71,2.81-8.67,6.73-8.58,8.72a1.17,1.17,0,0,0,1.38,1.08C48.23,154.9,49.35,170,49.35,170H67.28C60.22,163.62,49.45,150.51,43.5,126.57Z" fill="#231f20"/>
        <path d="M126.54,41.4A56,56,0,0,1,170,71.12V61.35c-11.15-9.57-8.87-30.06-8.87-30.06,2.74-7.44,1.3-10.63,1.3-10.63-2.78-3.43-5.78,1.55-7.47,5.26a18.32,18.32,0,0,1-5.86,7.34,35.55,35.55,0,0,1-14.31,6.07C135,24.15,145,19.45,145,19.45c7.71-2.81,8.67-6.73,8.58-8.72a1.17,1.17,0,0,0-1.38-1.08C121.81,15.13,120.69,0,120.69,0H104.9c7,7,16.26,19.77,21.64,41.39Z" fill="#231f20"/>
      </g>
      <g id="_2" data-name="2">
        <path d="M9.15,18.77a1.22,1.22,0,0,1,1-1.46c1.9-.08,5.6.92,8.27,9.06,0,0,4.46,10.62,18.86,10.77a40.31,40.31,0,0,0-5.76-15.09,17.81,17.81,0,0,0-7-6.17c-3.52-1.78-8.26-5-5-7.88,0,0,3-1.52,10.08,1.37,0,0,19.44,2.41,28.51-9.35H0V52s14.33-1.18,9.13-33.25Z" fill="#939598"/>
        <path d="M17.81,160.39a1.17,1.17,0,0,1-1.38-1.08c-.08-2,.87-5.91,8.58-8.72,0,0,10.08-4.7,10.22-19.88a35.72,35.72,0,0,0-14.31,6.07,18.32,18.32,0,0,0-5.86,7.34c-1.69,3.71-4.69,8.7-7.47,5.26,0,0-1.44-3.19,1.3-10.63,0,0,2.28-20.49-8.87-30.06V170H49.35S48.23,154.91,17.81,160.39Z" fill="#939598"/>
        <path d="M160.89,151.26a1.22,1.22,0,0,1-1,1.46c-1.9.08-5.6-.92-8.27-9.05,0,0-4.46-10.62-18.86-10.77A40.31,40.31,0,0,0,138.49,148a17.89,17.89,0,0,0,7,6.17c3.52,1.79,8.26,5,5,7.88,0,0-3,1.52-10.08-1.37,0,0-19.44-2.41-28.51,9.35H170V118S155.69,119.19,160.89,151.26Z" fill="#939598"/>
        <path d="M152.23,9.64a1.17,1.17,0,0,1,1.38,1.08c.08,2-.87,5.91-8.58,8.72,0,0-10.08,4.7-10.22,19.88a35.72,35.72,0,0,0,14.31-6.07A18.32,18.32,0,0,0,155,25.91c1.69-3.71,4.69-8.7,7.47-5.26,0,0,1.44,3.19-1.3,10.63,0,0-2.28,20.49,8.87,30.06V0H120.69s1.12,15.11,31.54,9.63Z" fill="#939598"/>
      </g>
      <g id="_3" data-name="3">
        <path d="M126.39,128.79c26.32-7.28,38.85-21.37,43.63-28.29V93.94c-3.5,4.14-26.46,30.27-47.27,30.4,0,0-5.14,29.6-25.21,45.69h5.93a50.53,50.53,0,0,0,22.91-41.23Z" fill="#d1d3d4"/>
        <path d="M94.08,142.46c-4.61-3.74-5.35-11.4-5.35-11.4H83.16c-.07,6.71-2.53,10.21-3.8,11.58a.84.84,0,0,0,.18,1.27A10.63,10.63,0,0,1,84.28,152h5.57c.76-5.46,3.13-7.84,4.25-8.68a.55.55,0,0,0,0-.86Z" fill="#d1d3d4"/>
        <path d="M141,92.11a10.65,10.65,0,0,1,8.32-5.41V80.33c-5.61-.87-8.06-3.57-8.93-4.86a.52.52,0,0,0-.88,0c-3.84,5.27-11.71,6.11-11.71,6.11V88c6.89.08,10.49,2.89,11.9,4.34a.81.81,0,0,0,1.3-.2Z" fill="#d1d3d4"/>
        <path d="M90,99.48a8,8,0,0,1,3.17-.83s-3.67-.84-4.1-1.67a19.82,19.82,0,0,1-1.3-5.86A6.53,6.53,0,0,0,90.18,89c2.07.06,4.87.39,6.12,1.66a15,15,0,0,1,1.51,3.79S98.46,92,99,91.59c0,0,7.42,2.21,8.21-5.46,0,0-.86-7.82-8.42-6.38A9.17,9.17,0,0,1,98,76.41s-.79,3.87-1.58,4.32a17.38,17.38,0,0,1-5.56,1.38,6.62,6.62,0,0,0-2-2.53c.06-2.19.37-5.14,1.57-6.46A13.42,13.42,0,0,1,94,71.53s-2.38-.68-2.74-1.21c0,0,2.09-7.82-5.18-8.66,0,0-7.42.91-6,8.88a8,8,0,0,1-3.17.83s3.67.84,4.1,1.67a19.82,19.82,0,0,1,1.3,5.86A6.53,6.53,0,0,0,79.87,81c-2.07-.07-4.87-.39-6.12-1.66a15,15,0,0,1-1.51-3.79s-.65,2.51-1.15,2.89c0,0-7.42-2.21-8.21,5.46,0,0,.86,7.82,8.42,6.38a9.17,9.17,0,0,1,.79,3.34s.79-3.87,1.58-4.33a17.53,17.53,0,0,1,5.56-1.37,6.62,6.62,0,0,0,2,2.53c-.06,2.19-.37,5.14-1.57,6.46A13.75,13.75,0,0,1,76,98.49s2.38.68,2.74,1.21c0,0-2.09,7.82,5.18,8.66C84,108.36,91.38,107.45,90,99.48Z" fill="#d1d3d4"/>
        <path d="M43.5,126.57c6,24,16.72,37.05,23.78,43.44h6.43c-7.48-7.53-26.23-28.32-26.33-47.39,0,0-31.09-7.45-47.36-27.82v5.55C15.84,124.52,43.5,126.57,43.5,126.57Z" fill="#d1d3d4"/>
        <path d="M26.5,77.38a11.36,11.36,0,0,1-8.87,5.77v6.79c6,.93,8.59,3.8,9.52,5.19a.56.56,0,0,0,.94,0c4.1-5.61,12.48-6.52,12.48-6.52V81.79c-7.35-.1-11.18-3.08-12.69-4.63a.87.87,0,0,0-1.39.22Z" fill="#d1d3d4"/>
        <path d="M126.54,41.4C121.16,19.78,111.86,7,104.9,0H97.39c8.27,8.63,24.57,27.91,24.66,45.68,0,0,32.62,7.6,48,30.13V71.11a56,56,0,0,0-43.48-29.72Z" fill="#d1d3d4"/>
        <path d="M47.76,45.94S49.37,14.79,73.59,0h-7A50.53,50.53,0,0,0,43.65,41.25C17.32,48.52,4.8,62.61,0,69.53V76.9s25.15-30.83,47.74-31Z" fill="#d1d3d4"/>
        <path d="M87.16,39.87c.09-8.16,3.08-12.43,4.63-14.09a1,1,0,0,0-.22-1.54,13,13,0,0,1-5.77-9.86H79C78.09,21,75.21,23.93,73.84,25a.66.66,0,0,0,0,1.05c5.61,4.55,6.52,13.87,6.52,13.87Z" fill="#d1d3d4"/>
      </g>
      <g id="_4" data-name="4">
        <path d="M68.13,36.84c-3-1.83-3.74-5.93-3.74-5.93-3.17,1.07-2,8-2,8a10.55,10.55,0,0,0-1.73,7c2-2,6.62-.45,6.62-.45,7.34,5,.43,11.08.43,11.08-11.23,3.94-12.53-7.28-12.53-7.28-7.2-28.85,16-35.23,16-35.23,7.2-.41,8.45-8.81,8.53-14H73.58C49.37,14.77,47.75,45.92,47.75,45.92c-22.6.14-47.74,31-47.74,31v6.6c17.17-3.31,19.73-17.21,19.73-17.21C36.16,42.6,57,60.51,57,60.51,60.2,68.41,52.42,71,52.42,71c-9.79.76-6.77-9-6.77-9a7.86,7.86,0,0,0-7.06,2.28c-7.06,0-9.5,4.1-9.5,4.1a50,50,0,0,1,7.13,1.67A19,19,0,0,0,53.42,80.4c13-.31,11.52-14.73,11.52-14.73,8.5,2.89,14.73-6.38,14.73-6.38,3.21-14.73-8.53-20.64-11.56-22.46Z" fill="#fff"/>
        <path d="M47.38,122.62c.1,19.07,18.86,39.86,26.33,47.39H83c-3.87-15.8-15.79-18.24-15.79-18.24-22.46-17.31-5.47-39.31-5.47-39.31,7.49-3.34,9.94,4.86,9.94,4.86.72,10.32-8.5,7.13-8.5,7.13a8.79,8.79,0,0,0,2.16,7.45c0,7.44,3.89,10,3.89,10a58.28,58.28,0,0,1,1.58-7.51c10.51-6.16,9.79-18.14,9.79-18.14-.29-13.66-14-12.14-14-12.14,2.74-9-6.05-15.53-6.05-15.53-14-3.39-19.58,9-21.31,12.19s-5.62,3.94-5.62,3.94c1,3.34,7.63,2.13,7.63,2.13a9.19,9.19,0,0,0,6.62,1.82c-1.87-2.13-.43-7-.43-7C52.26,94,58,101.24,58,101.24c3.74,11.84-6.91,13.21-6.91,13.21C23.75,122,17.7,97.6,17.7,97.6,17.34,90.75,7.48,89,0,88.58v6.24c16.27,20.37,47.36,27.82,47.36,27.82Z" fill="#fff"/>
        <path d="M122.75,124.33c20.81-.13,43.77-26.25,47.27-30.4v-7.4c-17.17,3.31-19.73,17.21-19.73,17.21-16.42,23.68-37.29,5.77-37.29,5.77-3.17-7.9,4.61-10.48,4.61-10.48,9.79-.76,6.77,9,6.77,9a7.86,7.86,0,0,0,7.06-2.28c7.06,0,9.5-4.1,9.5-4.1a50,50,0,0,1-7.13-1.67,19,19,0,0,0-17.2-10.32c-13,.31-11.52,14.73-11.52,14.73-8.5-2.89-14.73,6.38-14.73,6.38-3.21,14.73,8.53,20.64,11.56,22.46s3.74,5.93,3.74,5.93c3.17-1.07,2-8,2-8a10.55,10.55,0,0,0,1.73-7c-2,2-6.62.45-6.62.45-7.34-5-.43-11.08-.43-11.08,11.23-3.94,12.53,7.28,12.53,7.28,7.2,28.85-16,35.23-16,35.23-7.2.41-8.45,8.8-8.53,14.05h7.19c20.07-16.08,25.21-45.69,25.21-45.69Z" fill="#fff"/>
        <path d="M122.06,45.69C122,27.92,105.67,8.64,97.4,0H87.53c4.34,14,15.25,16.18,15.25,16.18,22.46,17.31,5.47,39.32,5.47,39.32-7.49,3.34-9.94-4.86-9.94-4.86-.72-10.32,8.5-7.14,8.5-7.14a8.78,8.78,0,0,0-2.16-7.44c0-7.45-3.89-10-3.89-10a58.63,58.63,0,0,1-1.58,7.52C88.67,39.72,89.39,51.7,89.39,51.7c.29,13.66,14,12.15,14,12.15-2.74,9,6,15.52,6,15.52,14,3.39,19.58-9,21.31-12.18s5.62-3.95,5.62-3.95c-1-3.34-7.63-2.12-7.63-2.12a9.17,9.17,0,0,0-6.62-1.83c1.87,2.13.43,7,.43,7-4.75,7.74-10.51.45-10.51.45-3.74-11.84,6.91-13.21,6.91-13.21,27.36-7.59,33.41,16.85,33.41,16.85.41,8,11.48,9.84,17.7,10.27V75.79c-15.34-22.53-48-30.13-48-30.13Z" fill="#fff"/>
      </g>
    </g>
  </g>
</svg>
