<svg xmlns="http://www.w3.org/2000/svg" width="100%" viewBox="0 0 170 170.29">
  <g id="Camada_2" data-name="Camada 2">
    <g id="Camada_1-2" data-name="Camada 1">
      <g id="_1" data-name="1" fill="#231f20">
        <polygon points="0 170.29 0 0.29 87.72 0.29 129.52 0.29 170 0.29 170 41.8 170 170.29 0 170.29" />
        <polygon points="143.01 0.5 143.16 0.66 143.32 0.5 143.01 0.5" stroke-miterlimit="10"/>
      </g>
      <g id="_2" data-name="2">
        <polygon points="33.26 170.29 0 135.92 0 170.29 33.26 170.29" fill="#939598"/>
        <g>
          <polygon points="143.01 0.5 143.16 0.66 143.32 0.5 143.01 0.5" fill="#939598"/>
          <path d="M170,.29H132.9L170,34.18Z" fill="#939598"/>
        </g>
        <polygon points="0 0.29 38.64 35.62 84.83 34.4 50.51 0.29 0 0.29 0 0.29" fill="#939598"/>
        <polygon points="170 170.28 131.36 134.96 85.17 136.18 119.5 170.29 170 170.29 170 170.28" fill="#939598"/>
      </g>
      <g id="_3" data-name="3">
        <polygon points="40.95 170.29 170 40.82 170 34.18 132.91 0.29 129.52 0.29 125.39 0.29 0 129.57 0 135.92 33.26 170.29 40.95 170.29" fill="#fff"/>
        <polygon points="38.64 35.62 0 0.29 0 50.8 32.01 82.43 38.64 35.62" fill="#fff"/>
        <polygon points="131.36 134.96 170 170.28 170 119.78 137.99 88.15 131.36 134.96" fill="#fff"/>
      </g>
    </g>
  </g>
</svg>
