<svg xmlns="http://www.w3.org/2000/svg" width="100%" viewBox="0 0 170.01 170.01">
  <g id="Camada_2" data-name="Camada 2">
    <g id="Camada_1-2" data-name="Camada 1">
      <g id="_1" data-name="1">
        <path d="M133.42,20.1l-5.68,1.51c-8.17,3.41-27.23,13.9-29.61,38.28h0c0,.08-.79,12.75-.37,23.68.06,1.7.16,3.36.29,4.91a.4.4,0,0,1-.62.4c-.56-.42-1.45-1.1-2.54-2l.06-.06h0l-6.83,7.82h0l0,0c.77.76,1.54,1.52,2.31,2.33a.44.44,0,0,1-.32.76c-.94-.14-2.41-.32-4.26-.49-14.24-1.3-52.38-1.7-67.21,28.63l0,0c-.2.56-5.71,15-14,22.88A19.31,19.31,0,0,1,0,151.29V.44A.42.42,0,0,1,.4,0H155.18c-.86,2.85-3.78,6.26-3.78,6.26C149.69,8.66,142.07,18.7,133.42,20.1Z" fill="#231f20"/>
        <path d="M147.52,145.57a.42.42,0,0,1,.46-.64c4.4,1.68,19.55,6.44,22-6.84v31.47a.42.42,0,0,1-.4.44H142a.35.35,0,0,0,.3-.18c1.1-1.71,9.86-15.81,5.18-24.26Z" fill="#231f20"/>
      </g>
      <g id="_2" data-name="2">
        <path d="M170,.44V138.09c-2.48,13.28-17.62,8.52-22,6.84a.42.42,0,0,0-.46.64c4.68,8.45-4.08,22.55-5.18,24.26a.36.36,0,0,1-.3.18H.4a.42.42,0,0,1-.4-.44V151.3a19.58,19.58,0,0,0,4.7-2.55c8.24-7.86,13.76-22.33,14-22.88a.17.17,0,0,1,0-.05c14.83-30.33,53-29.93,67.21-28.62,1.86.16,3.32.35,4.26.48a.44.44,0,0,0,.32-.76c-.77-.8-1.54-1.57-2.31-2.33l0,0h0L95,86.8h0l-.06.07c1.1.93,2,1.6,2.54,2a.4.4,0,0,0,.62-.39c-.13-1.57-.22-3.22-.29-4.92-.42-10.93.36-23.6.37-23.68h0c2.38-24.38,21.44-34.87,29.61-38.28l5.68-1.51c8.65-1.4,16.27-11.44,18-13.84,0,0,2.92-3.42,3.78-6.26h14.42a.42.42,0,0,1,.4.44Z" fill="#939598"/>
      </g>
      <g id="_3" data-name="3">
        <path d="M169,82.58s-11,1.92-11.59,15.59a.41.41,0,0,1-.4.42c-1.85-.13-9.88-.46-13.81,1.92a.46.46,0,0,0,.07.8c3,1.11,13.63,5.43,15.81,12.33a.45.45,0,0,1-.22.54c-1.57.74-8.17,4.43-7.87,13.85a.4.4,0,0,0,.63.34c2.28-1.79,10.61-7.33,14.18,3.76l0,.13c0,1-.08,13.71-15.48,6.74h0c-.06,0-38.53-19.38-36.08-70.43l0-.1c.47-1.59,13-43.17,40.38-14.56a.36.36,0,0,0,.63-.11c.85-1.88,3.16-8.65-3.63-15.9a.46.46,0,0,1-.08-.51c1.06-2.14,7.71-16.13,4.14-24.07l-3.71-7a.38.38,0,0,0-.66-.06c-1.71,2.4-9.33,12.44-18,13.84l-5.68,1.51C119.55,25,100.49,35.52,98.11,59.9h0c0,.1-1,17-.08,28.61a.4.4,0,0,1-.62.39c-5.32-3.93-38.88-31.1-18.76-78,.15-.34-.14-.72-.47-.6C73.42,12,50.44,21.42,53,47.72c0,.4-.38.66-.65.39L39.73,35.89a.47.47,0,0,1,0-.68l9.53-8,.07-.08c.41-.57,4.91-7-1.69-13.12l-2.07-2.26s-5.69-7-13-.07a.37.37,0,0,1-.48,0l-8.18-6S17.53.59,9.65,8.46c0,0-7.88,6.65-.69,14.37l6.63,7.25a.47.47,0,0,1,0,.63l-2.76,3s-6.48,6.63,1.34,11.92l.07.06,3.7,4s5.79,6.78,11.31-2.09l0-.06L35.35,41a.38.38,0,0,1,.56,0L47.52,53.69a.44.44,0,0,1-.34.74c-5.48-.89-27.72-2.76-37.27,22.94-.14.37.22.74.55.55,6.21-3.44,42-20.51,80,19a.44.44,0,0,1-.32.75C82,96.48,35.4,91.49,18.64,125.79l0,0c-.2.57-5.44,15.39-14,22.88a.46.46,0,0,0-.08.57c1.16,1.91,7.57,11.14,18.62,4.23a.37.37,0,0,1,.47.05c2,2.07,17.87,17.76,31.88,4.7a.43.43,0,0,0,0-.69C52.35,155.14,33,139,53.7,121.31l.07,0c1.53-.8,51.08-26.14,86.59,30.37l0,.1c.26.86,3.35,12.11-8.63,11.67a.41.41,0,0,1-.18,0c-.91-.57-9.27-6.14-1.18-14.31a.45.45,0,0,0-.18-.75c-2.37-.5-9.71-1.08-13.15,10-.11.36-.4.45-.64.18-2-2.12-10.11-10.93-13.76-16.92a.38.38,0,0,0-.71.09c-.74,2.44-2.68,9.77-1.28,15.88.08.36-.1.6-.44.54-2.77-.56-14.15-2-16.18,11.42a.43.43,0,0,0,.39.52H142a.35.35,0,0,0,.3-.18c1.1-1.72,9.86-15.81,5.18-24.26a.42.42,0,0,1,.46-.64c4.4,1.68,19.55,6.44,22-6.84" fill="#fff"/>
      </g>
    </g>
  </g>
</svg>
