<svg xmlns="http://www.w3.org/2000/svg" width="100%" viewBox="0 0 170 170">
  <g id="Camada_2" data-name="Camada 2">
    <g id="Camada_1-2" data-name="Camada 1">
      <g id="_1" data-name="1">
        <path d="M136.94,125.59S130.88,106.28,170,0h-3.5S160.92,31.16,128.63,33c0,0-18.06,6-117.48-32.94H0S32.71,16,34.18,41.45c0,0,6.27,19.76-34.18,128.55H5.71s15.49-34.62,40.05-36.18c0,0,19.1-6.63,124.24,36.18v-3.93s-31.64-15.66-33.06-40.47ZM84.39,103.76c-11,0-19.91-9.22-19.91-20.58s8.91-20.57,19.91-20.57,19.91,9.22,19.91,20.57S95.39,103.76,84.39,103.76Z" fill="#231f20"/>
      </g>
      <g id="_2" data-name="2">
        <path d="M34.18,41.44C32.71,16,0,0,0,0v34.6a6.33,6.33,0,0,1,4.52-2c3.66,0,6.63,3.25,6.63,7.26s-3,7.25-6.63,7.25a6.29,6.29,0,0,1-4.52-2V170C40.45,61.2,34.18,41.44,34.18,41.44Z" fill="#939598"/>
        <path d="M159.87,129c0-4,3-7.25,6.63-7.25a6.14,6.14,0,0,1,3.5,1.11V0c-39.12,106.27-33.06,125.58-33.06,125.58C138.37,150.4,170,166.06,170,166.06V135.15a6.22,6.22,0,0,1-3.5,1.11C162.84,136.26,159.87,133,159.87,129Z" fill="#939598"/>
        <path d="M45.76,133.81C21.2,135.38,5.71,170,5.71,170h29.2a7.7,7.7,0,0,1-1.07-3.93c0-4,3-7.25,6.63-7.25s6.63,3.25,6.63,7.25A7.73,7.73,0,0,1,46,170H170C64.84,127.18,45.74,133.81,45.74,133.81Z" fill="#939598"/>
        <path d="M128.63,32.94C160.92,31.15,166.5,0,166.5,0H135.56a7.71,7.71,0,0,1,1.11,4c0,4-3,7.25-6.63,7.25S123.41,8,123.41,4a7.71,7.71,0,0,1,1.11-4H11.15C110.57,39,128.63,32.94,128.63,32.94Z" fill="#939598"/>
      </g>
      <g id="_3" data-name="3">
        <path d="M11.15,39.9c0-4-3-7.26-6.63-7.26a6.33,6.33,0,0,0-4.52,2V45.19a6.29,6.29,0,0,0,4.52,2c3.66,0,6.63-3.25,6.63-7.25Z" fill="#fff"/>
        <path d="M166.5,121.74c-3.66,0-6.63,3.25-6.63,7.26s3,7.25,6.63,7.25a6.14,6.14,0,0,0,3.5-1.11V122.85a6.23,6.23,0,0,0-3.5-1.12Z" fill="#fff"/>
        <path d="M40.48,158.82c-3.66,0-6.63,3.25-6.63,7.25A7.73,7.73,0,0,0,34.92,170H46.06a7.7,7.7,0,0,0,1.07-3.93c0-4-3-7.25-6.63-7.25Z" fill="#fff"/>
        <path d="M123.41,4c0,4,3,7.25,6.63,7.25S136.67,8,136.67,4a7.71,7.71,0,0,0-1.11-4h-11A7.71,7.71,0,0,0,123.41,4Z" fill="#fff"/>
        <ellipse cx="84.38" cy="83.18" rx="19.91" ry="20.57" fill="#fff"/>
      </g>
    </g>
  </g>
</svg>
