<svg xmlns="http://www.w3.org/2000/svg" width="100%" viewBox="0 0 170.02 170.02">
  <g id="Camada_2" data-name="Camada 2">
    <g id="Camada_1-2" data-name="Camada 1">
      <g id="Camada_2-2" data-name="Camada 2">
        <g id="Camada_1-2-2" data-name="Camada 1-2">
          <g id="_1" data-name=" 1">
            <polygon points="169.98 0 169.98 170.02 82.26 170.02 40.48 170.02 0 170.02 0 128.51 0 0 169.98 0" fill="#231f20"/>
          </g>
          <g id="_2" data-name=" 2">
            <path d="M63.34,156.57s24.35-21.16,50.67,2.9c0,0,19.34,14.32,37.65-11.5,0,0,23.47-13.52,6.56-36.89,0,0-23.61-17.69,1.8-42.43,0,0-19.52-6.31-26.47,24.33a19.19,19.19,0,0,0-14.06,16.17s12.86-8.15,27.82,4.57c0,0,15.73,15.07-2.41,29.85,0,0-14.23,19.49-32.52,4,0,0-11.35-6.22-4.08-26.41,0,0-10.78-2.76-18.16,12.16,0,0-26.76,1-26.76,23.23Z" fill="#939598"/>
          </g>
          <g id="_3" data-name=" 3">
            <ellipse cx="152.79" cy="151.73" rx="10.73" ry="9.81" fill="#6d6e71"/>
          </g>
          <g id="_4" data-name=" 4">
            <path d="M90.82,78.06h0s-1.09,8.76-4.23,8.76L84.7,84.13S88.86,72.32,79.07,71A27.82,27.82,0,0,1,68.7,67.78c-5-2.89-11.43-7.92-14.34-15.81,0,0-1.31-4,3.28-2.59,0,0,12.3,10,15-3.87,0,0,12.2,6,14.11-9.76,0,0,16.63,4.88,25.31-16.42,0,0-11.6,2.67-16.94.28,0,0-19-7.19-42.14,20.8,0,0-9.57,10.41-19.76-9.67,0,0,11.3-.54,8.22-10.43A9,9,0,0,0,36,14.46c-3.1-1.1-7.45-.69-11.5,6.57,0,0-3.28-10.18-11.18-10.47A8.51,8.51,0,0,0,4.5,18.74a5.61,5.61,0,0,0,0,.58c.13,4,2.05,8.57,9.91,9.67,0,0-12.9,8.66-2.92,17.32,0,0,12.4,7.19,14.31-9.4A21.82,21.82,0,0,1,39.32,47.85s3,6.68-5.55,12.82a40.59,40.59,0,0,0-6.72,5.83c-5.56,6.27-14.29,18.74-9.74,31.36a25.81,25.81,0,0,1,1.32,6.57c.31,3.39.43,7.78-.59,10.1a26.88,26.88,0,0,0,13.1-26.17s14.11,1,8.57-12.81c0,0,14-1.7,5.85-16.13,0,0-.1-3.13,3.93-1.09,0,0,7.53,3.5,14.36,12.7a29.51,29.51,0,0,1,5,10.37c.91,3.75,3.9,9.26,13.71,4.29l1.61,3.13S82.25,93.93,68,96.39l-1.09.36c-29.15,6.88-50.72,31.45-50.72,60.71A58.35,58.35,0,0,0,17.51,170H28.89a48.85,48.85,0,0,1-1.64-12.55c0-28.89,25.16-52.31,56.2-52.31a58.63,58.63,0,0,1,34.49,11A51.6,51.6,0,0,1,103.6,80.54c0-29.16,24.46-52.79,54.62-52.79A56.36,56.36,0,0,1,170,29V16.34a71.16,71.16,0,0,0-11.84-1c-36.4,0-66.05,27.88-67.36,62.75Z" fill="#fff"/>
          </g>
        </g>
      </g>
    </g>
  </g>
</svg>
