<svg xmlns="http://www.w3.org/2000/svg" width="100%" viewBox="0 0 170.02 170.02">
  <g id="Camada_2" data-name="Camada 2">
    <g id="Camada_1-2" data-name="Camada 1">
      <g id="_1" data-name="1">
        <ellipse cx="87.41" cy="83.14" rx="18.38" ry="20.11" fill="#231f20"/>
        <path d="M144.87,0H25.15c0,.09,0,.18,0,.27C25,15.4,13.79,27.53,0,27.53v115H.26c13.81.14,24.9,12.44,24.9,27.52H144.87a2.43,2.43,0,0,1,0-.27C145,154.63,156.24,142.5,170,142.5v-115h-.25C156,27.38,144.87,15.09,144.87,0ZM149,102.73v40.68H105.5C104,152.83,96.47,160,87.42,160s-16.55-7.15-18.08-16.57H25.16V101.9C18.28,99,13.4,91.7,13.4,83.15S18.29,67.31,25.16,64.4V21.58H69.58c2-8.78,9.2-15.29,17.83-15.29s15.85,6.51,17.83,15.29H149v42c8.15,2.06,14.24,10,14.24,19.59s-6.08,17.52-14.24,19.59Z" fill="#231f20"/>
      </g>
      <g id="_3" data-name="3">
        <path d="M149,72.58a9.4,9.4,0,0,0-7.56-.28V29H97.62a12,12,0,0,0-.71-7.43,10.11,10.11,0,0,0-19,0,12.27,12.27,0,0,0-1,4.83A13.11,13.11,0,0,0,77.2,29H32.71V71.74a7.3,7.3,0,0,0-.94-.1,9.9,9.9,0,0,0-6.62,2.63,12,12,0,0,0,0,17.73,9.89,9.89,0,0,0,6.62,2.64c.32,0,.62-.08.94-.1V136H77.56a11.67,11.67,0,0,0-.1,7.44c1.37,4.6,5.28,8,9.94,8a10.61,10.61,0,0,0,9.94-8,11.67,11.67,0,0,0-.1-7.44h44.19V94a9.5,9.5,0,0,0,3.41.67A9.74,9.74,0,0,0,149,93.7a11.95,11.95,0,0,0,0-21.12ZM87.41,103.25c-10.15,0-18.38-9-18.38-20.11S77.26,63,87.41,63s18.38,9,18.38,20.12S97.56,103.25,87.41,103.25Z" fill="#939598"/>
        <path d="M16,.18V0H0V17.54C8.79,17.54,16,9.81,16,.18Z" fill="#939598"/>
        <path d="M154,0c0,9.61,7.07,17.46,15.87,17.54H170V0Z" fill="#939598"/>
        <path d="M154,169.84V170h16V152.48C161.23,152.48,154.06,160.21,154,169.84Z" fill="#939598"/>
        <path d="M.17,152.47H0V170H16C16,160.4,9,152.55.17,152.47Z" fill="#939598"/>
      </g>
      <g id="_2" data-name="2">
        <path d="M149,63.55v-42H105.24c-2-8.78-9.2-15.29-17.83-15.29S71.56,12.8,69.58,21.58H25.16v42.8C18.28,67.29,13.4,74.58,13.4,83.13S18.29,99,25.16,101.87v41.51H69.33c1.53,9.43,9,16.58,18.08,16.58s16.55-7.15,18.08-16.58H149V102.71c8.15-2.06,14.24-10,14.24-19.59S157.16,65.6,149,63.53Zm0,30.14a9.67,9.67,0,0,1-4.15.94,9.5,9.5,0,0,1-3.41-.67v42H97.25a12.51,12.51,0,0,1,.66,3.9,12.36,12.36,0,0,1-.56,3.53c-1.37,4.61-5.28,8-9.94,8s-8.58-3.35-9.94-8a12.36,12.36,0,0,1-.56-3.53,12.51,12.51,0,0,1,.66-3.9H32.72V94.53c-.31,0-.62.1-.94.1A9.91,9.91,0,0,1,25.16,92a12,12,0,0,1,0-17.73,9.88,9.88,0,0,1,6.62-2.63c.32,0,.62.07.94.09V29H77.21a12,12,0,0,1,.71-7.43,10.11,10.11,0,0,1,19,0,12.27,12.27,0,0,1,1,4.83,13.11,13.11,0,0,1-.29,2.6h43.82V72.29a9.4,9.4,0,0,1,7.56.28,11.95,11.95,0,0,1,0,21.12Z" fill="#fff"/>
        <ellipse cx="87.41" cy="83.14" rx="10.5" ry="11.49" fill="#fff"/>
        <path d="M73.82,35.7S64.7,42,63.78,49.21c0,0-11-11.39-22.3-12.51,0,0,2.67,14.32,12,22,0,0-11.79,4.54-15.48,10.29H73.82Z" fill="#fff"/>
        <path d="M100.81,35.7s9.12,6.25,10,13.51c0,0,11-11.39,22.3-12.51,0,0-2.67,14.32-12,22,0,0,11.79,4.54,15.48,10.29H100.81Z" fill="#fff"/>
        <path d="M73.82,130.09s-9.12-6.25-10-13.52c0,0-11,11.39-22.3,12.51,0,0,2.67-14.31,12-22,0,0-11.79-4.54-15.48-10.28H73.82Z" fill="#fff"/>
        <path d="M100.81,130.09s9.12-6.25,10-13.52c0,0,11,11.39,22.3,12.51,0,0-2.67-14.31-12-22,0,0,11.79-4.54,15.48-10.28H100.81Z" fill="#fff"/>
        <path d="M25.16.27c0-.08,0-.17,0-.27H16V.18C15.94,9.81,8.78,17.54,0,17.54v10c13.78,0,25-12.13,25.15-27.25Z" fill="#fff"/>
        <path d="M154,0h-9.12c0,15.08,11.09,27.38,24.9,27.52H170v-10h-.16C161.05,17.44,154,9.61,154,0Z" fill="#fff"/>
        <path d="M144.86,169.75V170H154v-.18c.09-9.63,7.25-17.36,16-17.36v-10C156.23,142.5,145,154.63,144.86,169.75Z" fill="#fff"/>
        <path d="M.26,142.49H0v10H.17C9,152.58,16,160.41,16,170h9.12c0-15.08-11.09-27.38-24.9-27.52Z" fill="#fff"/>
      </g>
    </g>
  </g>
</svg>
