<svg xmlns="http://www.w3.org/2000/svg" width="100%" viewBox="0 0 170 170">
  <g id="Camada_2" data-name="Camada 2">
    <g id="Camada_1-2" data-name="Camada 1">
      <g id="_1" data-name="1">
        <polygon points="170 169.98 0 169.98 0 82.26 0 40.48 0 0 41.51 0 170 0 170 169.98" fill="#231f20"/>
      </g>
      <g id="_2" data-name="2">
        <path d="M94.26,0h-78A16.33,16.33,0,0,1,0,14.91V86.5s7.83-1.82,10.6-11.9c0,0,6.63-.78,7.92-1.2,0,0,1.29-15.73-2.21-20,0,0,4.05,1.22,5.71,0,0,0-1.2-9.88-11-20,0,0-4.65-8.27,1.8-11.29,0,0,6.63-4,10.14,8.27,0,0-.37,16.94,8.29,21,0,0,4.24-.81,5.16-3.23,0,0,6.27,6.46,14.56,4.43,0,0,2.95-8.27,0-16.33a19.31,19.31,0,0,0,4.24-2.23S48,20.71,33.09,21.55c0,0-9.77-3-3.87-13.57,0,0,7-5.56,11.43,4.32,0,0,6.08,11.09,14.56,12.9,0,0,3.5-3.26,2.4-7.78,0,0,5.34,9.19,21.56,3.95,0,0,1.84-5.45-.74-9.48,0,0,13.08-.19,15.85-11.89Z" fill="#fff"/>
        <path d="M75.74,170h78A16.35,16.35,0,0,1,170,155.05V83.47s-7.83,1.81-10.6,11.89c0,0-6.63.79-7.92,1.21,0,0-1.29,15.73,2.21,20,0,0-4.05-1.22-5.71,0,0,0,1.2,9.88,11,20,0,0,4.65,8.28-1.8,11.3,0,0-6.63,4-10.14-8.28,0,0,.37-16.93-8.29-21,0,0-4.24.81-5.16,3.23,0,0-6.27-6.46-14.56-4.44,0,0-3,8.28,0,16.34a19.6,19.6,0,0,0-4.24,2.22s7.16,13.36,22.11,12.53c0,0,9.77,3,3.87,13.57,0,0-7,5.56-11.43-4.32,0,0-6.08-11.1-14.56-12.9,0,0-3.5,3.26-2.4,7.78,0,0-5.34-9.19-21.56-4,0,0-1.84,5.45.74,9.47,0,0-13.08.2-15.85,11.9Z" fill="#fff"/>
        <path d="M145.7,20.64V0H130.54V20.46l-8.37-.15L103.58,20l-6.28-.11-4.51,4.78L29,92.2,24.48,97v.21h0v2l-.07,4.61L24.15,119l-.23,15.18v.17H0V151H24.44v19H39.6V151.08l1.37,0,25.59.46,6.28.11,4.51-4.78,63.8-67.56,4.51-4.78.1-6.87.46-30.36v-.11H170V20.63H145.7ZM130.61,67.4,66.81,135l-27.21-.49V104l63.73-67.48,27.21.49V64.82h.11c0,.86,0,1.68,0,2.58Z" fill="#fff"/>
      </g>
    </g>
  </g>
</svg>
