<svg xmlns="http://www.w3.org/2000/svg" width="100%" viewBox="0 0 170.01 170.01">
  <g id="Camada_2" data-name="Camada 2">
    <g id="Camada_1-2" data-name="Camada 1">
      <g id="_1" data-name="1">
        <polygon points="170 170 0 170 0 82.4 0 0.23 170 0.23 170 170" fill="#231f20"/>
      </g>
      <g id="_2" data-name="2">
        <path d="M150.69,34.82a42.11,42.11,0,0,1,4.16-21.51C125.69,23.73,108.35,9.07,101,.23H66.23C48,24.29,24.22,17.88,13.14,13c4,14,3.77,26.56-.63,37.37A44.89,44.89,0,0,1,0,67.6V94.65c21.45,17.07,16.11,46.56,12.94,58.12a133.49,133.49,0,0,1,20.94-1.84c14.17,0,24.69,3.11,31.42,9.34A21.94,21.94,0,0,1,71.51,170H95.67l6.47-.34c2.5-7.54,7-13.07,13.41-16.46,13.85-7.31,33.1-2.61,43,.68-6.62-15.75-7.94-29.4-3.9-40.63A34.39,34.39,0,0,1,170,94.94V68.27c-11.83-10.13-18.33-21.38-19.31-33.44Z" fill="#939598"/>
      </g>
      <g id="_3" data-name="3">
        <ellipse cx="85" cy="83.12" rx="8.31" ry="9.08" fill="#fff"/>
        <path d="M116,94.41c-6.22,0-14.38-5.51-14.38-12.32S109.77,69.78,116,69.78s33.16,9.53,36.64,13.33c1.47,1.61-30.42,11.3-36.64,11.3Z" fill="#fff"/>
        <path d="M96,51.3C96,58.09,91,67,84.77,67S73.5,58.09,73.5,51.3s8.72-36.24,12.2-40C87.17,9.65,96,44.5,96,51.3Z" fill="#fff"/>
        <path d="M55.2,69.79c6.22,0,14.38,5.51,14.38,12.31S61.42,94.42,55.2,94.42,22,84.89,18.56,81.09C17.09,79.48,49,69.79,55.2,69.79Z" fill="#fff"/>
        <path d="M73.5,114.94c0-6.79,5-15.71,11.27-15.71S96,108.15,96,114.94s-8.72,36.24-12.2,40c-1.47,1.61-10.34-33.24-10.34-40Z" fill="#fff"/>
        <g>
          <path d="M170,2V.23h-.45l-8.76,4.24c-27,13.09-43.76,4-52.28-4.24H101c6,7.28,18.85,18.47,39.44,16.42C133.32,22,127.27,28.3,123.91,33.71c-1.12,1.81-7.79,13.57-8.74,15.73-3.07,7-12,13.4-12.06,13.46a3.12,3.12,0,0,0-.79,4.09,2.66,2.66,0,0,0,2.27,1.34,2.46,2.46,0,0,0,1.47-.48c.42-.29,10.26-7.34,14-15.86.76-1.74,7.23-13.19,8.33-15,4-6.36,14-16.43,25.7-22a41.63,41.63,0,0,0-3.39,19.79c1,12.06,7.48,23.31,19.31,33.44v-7.7c-8.47-8.2-13.15-17-13.91-26.19C154.9,20,163.79,9.3,163.88,9.2L170,2Z" fill="#fff"/>
          <path d="M65.3,160.27c-6.73-6.23-17.25-9.34-31.42-9.34-2.08,0-4.25.08-6.5.21,8.07-5.6,15-12.67,18.71-18.61,1.12-1.8,7.79-13.55,8.74-15.73,3.07-7,12-13.4,12.06-13.46a3.12,3.12,0,0,0,.79-4.09,2.56,2.56,0,0,0-3.74-.86c-.42.29-10.26,7.34-14,15.86-.77,1.75-7.24,13.19-8.33,14.95C37.34,136.09,26,147.3,13,152.48c3.17-11.72,8.27-40.89-13-57.83v7.63c19,19.23,7,51.52,6.44,53l-1.89,4.95,4.83-.88.52-.09a2.28,2.28,0,0,0,.78.13,2.18,2.18,0,0,0,.75-.12c.52-.16,1-.36,1.56-.55,29.33-4.78,42.62.48,48.62,5.89a16.76,16.76,0,0,1,4,5.38H71.5a22,22,0,0,0-6.21-9.73Z" fill="#fff"/>
          <path d="M12.51,50.32a50.31,50.31,0,0,0,3.21-23.64c6.06,8.67,13.58,16,19.62,19.52,1.75,1,13.14,7.09,15.21,7.89C57.24,56.72,64,65.73,64,65.83a2.64,2.64,0,0,0,2.11,1.11,2.57,2.57,0,0,0,1.7-.66,3.14,3.14,0,0,0,.41-4.15C68,61.7,60.52,51.72,52.38,48.54,50.72,47.9,39.64,42,37.92,41c-6.51-3.83-17.41-14.53-23.56-27.52,11.53,4.81,34.3,10,51.87-13.25H58.92C37.86,22.93,11,5.49,9.8,4.66L3.17.23,2.83,0l.08.23,3,8c5.6,15.23,6.18,28.55,1.72,39.57A38.35,38.35,0,0,1,0,59.69V67.6A45,45,0,0,0,12.51,50.32Z" fill="#fff"/>
          <path d="M154.64,113.25c-2.47,6.85-2.93,14.61-1.42,23.19-5.8-8.15-12.79-15-18.48-18.42-1.79-1.08-13-7.22-15.13-8.07-6.67-2.7-13.3-11.8-13.37-11.9a2.56,2.56,0,0,0-3.8-.49,3.15,3.15,0,0,0-.45,4.15c.31.42,7.63,10.49,15.74,13.78,1.63.65,12.66,6.67,14.39,7.7,6.83,4.13,18.47,16,24.24,30-10.34-3.18-27.92-6.79-40.81,0-6.4,3.38-10.91,8.91-13.41,16.46l-6.47.34h12.19a21.27,21.27,0,0,1,10-11.46c16.84-8.9,44.74,3.11,45,3.23l6.94,3-3.55-7.18c-8.35-16.9-10.59-31.07-6.65-42.12A28.69,28.69,0,0,1,170,101.82V94.94a34.39,34.39,0,0,0-15.36,18.31Z" fill="#fff"/>
        </g>
      </g>
    </g>
  </g>
</svg>
