<svg xmlns="http://www.w3.org/2000/svg" width="170" height="170" viewBox="0 0 170 170">
  <g id="Camada_2" data-name="Camada 2">
    <g id="Camada_1-2" data-name="Camada 1">
      <path id="_2" data-name="2" d="M0,0C3.18.22,6.36.62,9.54.62q75.32.06,150.63,0H170v168.7h-9.83q-75.31,0-150.63,0c-3.18,0-6.36.4-9.54.62ZM82.11,168.64c12.29,0,24.61-.55,36.86.18,8.62.53,15.18-1.91,21.25-9,7.53-8.83,16.32-16.29,24.1-24.87a17.7,17.7,0,0,0,4.42-10.45q.54-39.31,0-78.64a17.59,17.59,0,0,0-4.23-10.54c-9.36-10.19-19.11-19.95-29-29.46-2.39-2.29-6-4.23-9-4.27C99.75,1.23,73,1.28,46.32,1.51A12.19,12.19,0,0,0,38.6,4.75C27.52,15.5,16.5,26.35,6,37.79A20.48,20.48,0,0,0,1.39,50c-.46,20.54.76,41.18-.5,61.63-1.08,17.44,2,31.28,16,40.89,4.25,2.91,7.29,8,11.46,11.09,3.29,2.46,7.43,4.7,11.26,4.85C53.78,169,68,168.63,82.11,168.64Z"/>
      <path id="_1" data-name="1" d="M82.11,168.64c-14.16,0-28.33.34-42.47-.23-3.83-.15-8-2.39-11.26-4.85-4.17-3.11-7.21-8.18-11.46-11.09-14-9.61-17.11-23.45-16-40.89,1.26-20.45,0-41.09.5-61.63A20.48,20.48,0,0,1,6,37.79c10.5-11.44,21.52-22.29,32.6-33a12.19,12.19,0,0,1,7.72-3.24c26.71-.23,53.43-.28,80.14.05,3.06,0,6.64,2,9,4.27,9.92,9.51,19.67,19.27,29,29.46a17.59,17.59,0,0,1,4.23,10.54q.52,39.32,0,78.64a17.7,17.7,0,0,1-4.42,10.45c-7.78,8.58-16.57,16-24.1,24.87-6.07,7.12-12.63,9.56-21.25,9C106.72,168.09,94.4,168.64,82.11,168.64Z" fill="#fff"/>
    </g>
  </g>
</svg>
