<svg xmlns="http://www.w3.org/2000/svg" width="100%" viewBox="0 0 170 170">
  <g id="Camada_2" data-name="Camada 2">
    <g id="Camada_1-2" data-name="Camada 1">
      <g id="_1" data-name="1">
        <polygon points="170 170 0 170 0 82.28 0 40.48 0 0 41.51 0 170 0 170 170" fill="#231f20"/>
      </g>
      <g id="_2" data-name="2">
        <polygon points="54.64 16.58 54.64 48.8 81.59 69.07 81.59 37.15 54.64 16.58" fill="#939598"/>
        <polygon points="93.89 99.24 93.89 131.46 120.84 151.72 120.84 119.81 93.89 99.24" fill="#939598"/>
        <polygon points="100.44 78.87 134.35 78.76 155.12 53.59 123.34 53.08 100.44 78.87" fill="#939598"/>
        <polygon points="17.02 114.61 50.93 114.5 71.71 89.33 39.93 88.83 17.02 114.61" fill="#939598"/>
      </g>
      <g id="_3" data-name="3">
        <polygon points="41.51 0 0 41.24 0 0 41.51 0" fill="#fff"/>
        <polygon points="170 45.42 132.31 0 170 0 170 45.42" fill="#fff"/>
        <polygon points="128.49 170 170 128.76 170 170 128.49 170" fill="#fff"/>
        <polygon points="0 124.58 37.69 170 0 170 0 124.58" fill="#fff"/>
        <polygon points="119.18 16.58 119.18 48.8 92.23 69.07 92.23 37.15 119.18 16.58" fill="#fff"/>
        <polygon points="81.59 99.24 81.59 131.46 54.64 151.72 54.64 119.81 81.59 99.24" fill="#fff"/>
        <polygon points="156.74 113.38 122.83 113.27 102.06 88.1 133.84 87.59 156.74 113.38" fill="#fff"/>
        <polygon points="71.71 78.87 37.8 78.76 17.02 53.59 48.8 53.08 71.71 78.87" fill="#fff"/>
      </g>
    </g>
  </g>
</svg>
