<svg xmlns="http://www.w3.org/2000/svg" width="170" height="170" viewBox="0 0 170 170">
  <g id="Camada_2" data-name="Camada 2">
    <g id="Camada_1-2" data-name="Camada 1">
      <g id="_1" data-name="1">
        <polygon points="170 170 0 170 0 82.28 0 0 12.35 0 41.65 0 170 0 170 170" fill="#231f20"/>
      </g>
      <g id="_2" data-name="2">
        <path d="M170,24.31V0H144.61L119.88,25.06H52.43L27,0H0V22.76L29.3,51.67v65.18L0,146.54V170H26.22l26-26.36h70.31L149.28,170H170V141L144.23,115.6V50.42Zm-51,93.31H54.52V51.07H119Z" fill="#939598"/>
      </g>
      <g id="_3" data-name="3">
        <path d="M86.77,51.05,54.52,84.34l32.25,33.31,32-34-32-32.57Zm0,40.55a6.64,6.64,0,1,1,6-6.61A6.35,6.35,0,0,1,86.77,91.6Z" fill="#6d6e71"/>
      </g>
      <g id="_4" data-name="4">
        <path d="M92,67.75c0,3.18-2.35,7.33-5.25,7.33s-5.25-4.15-5.25-7.33,4.39-12.7,5.25-12.7S92,64.58,92,67.75Z" fill="#fff"/>
        <path d="M81.52,101.51c0-3.17,2.35-7.33,5.25-7.33S92,98.34,92,101.51s-4.39,12.71-5.25,12.71S81.52,104.69,81.52,101.51Z" fill="#fff"/>
        <path d="M71.06,78.6c2.9,0,6.7,2.57,6.7,5.74s-3.8,5.75-6.7,5.75-11.61-4.81-11.61-5.75S68.16,78.6,71.06,78.6Z" fill="#fff"/>
        <path d="M101.53,89.38c-2.9,0-6.7-2.57-6.7-5.75s3.8-5.74,6.7-5.74,11.61,4.8,11.61,5.74S104.43,89.38,101.53,89.38Z" fill="#fff"/>
      </g>
    </g>
  </g>
</svg>
