<?xml version="1.0" encoding="UTF-8"?>
<svg xmlns="http://www.w3.org/2000/svg" viewBox="0 0 170 170">
  <defs>
    <style>
      .cls-1 {
        fill: #fff;
      }

      .cls-2 {
        fill: #939598;
      }

      .cls-3 {
        fill: #6d6e71;
      }

      .cls-4 {
        fill: #231f20;
      }
    </style>
  </defs>
  <g id="camada_1_preta" data-name="camada 1 preta">
    <path class="cls-4" d="m143.11,8.68l-1.58-1.36h-26.81c-13.82,29.97-61.5,29.85-61.5,29.85,5.53,7.19,4.29,22.93,4.29,22.93-13.13-6.65-25.29-4.54-25.29-4.54-.75,34.91-22.53,51.44-32.2,57.09v25.52l1.45,1.25L143.11,8.68Z"/>
    <path class="cls-4" d="m120.77,133.9c-5.53-7.19-4.29-22.93-4.29-22.93,13.13,6.65,25.29,4.54,25.29,4.54.66-30.68,17.56-47.17,28.22-54.54v-29.14l-.16-.14L28.19,162.43l.28.24h31.33c14.46-28.89,60.97-28.78,60.97-28.78Z"/>
  </g>
  <g id="camada_2_cinza_50_" data-name="camada 2 cinza 50%">
    <path class="cls-2" d="m16.03,35.8s8.85,6.08,18.66,3.46c0,0-.55-9.4-7.05-17,0,0,48.23,9.94,67.33-14.93H0v86.44c7.69-5.41,21.88-20.71,16.03-57.96Z"/>
    <path class="cls-2" d="m157.95,135.28s-8.85-6.08-18.66-3.46c0,0,.55,9.4,7.05,17,0,0-46.82-9.64-66.46,13.85h90.12v-82.05c-7.66,7.43-16.98,23.23-12.05,54.65Z"/>
  </g>
  <g id="camada_3_cinza_70_" data-name="camada 3 cinza 70%">
    <polygon class="cls-3" points="28.19 162.43 1.45 139.41 0 138.17 0 140.75 0 162.67 27.92 162.67 28.47 162.67 28.19 162.43"/>
    <polygon class="cls-3" points="144.58 7.33 141.53 7.33 143.11 8.68 169.84 31.7 170 31.83 170 31.55 170 7.33 144.58 7.33"/>
  </g>
  <g id="camada_4_branca" data-name="camada 4 branca">
    <path class="cls-1" d="m32.2,55.56s12.16-2.11,25.29,4.54c0,0,1.24-15.74-4.29-22.93,0,0,47.68.12,61.5-29.85h-19.74c-19.09,24.86-67.33,14.93-67.33,14.93,6.5,7.6,7.05,17,7.05,17-9.81,2.63-18.66-3.46-18.66-3.46C21.88,73.05,7.69,88.35,0,93.76v18.89c9.68-5.64,31.45-22.18,32.2-57.09Z"/>
    <path class="cls-1" d="m141.78,115.52s-12.16,2.11-25.29-4.54c0,0-1.24,15.74,4.29,22.93,0,0-46.51-.11-60.97,28.78h20.08c19.64-23.49,66.46-13.85,66.46-13.85-6.5-7.6-7.05-17-7.05-17,9.81-2.63,18.66,3.46,18.66,3.46-4.93-31.42,4.39-47.23,12.05-54.65v-19.65c-10.65,7.37-27.56,23.86-28.22,54.54Z"/>
    <polygon class="cls-1" points="1.45 139.41 28.19 162.43 169.84 31.7 143.11 8.68 1.45 139.41"/>
  </g>
</svg>