<?xml version="1.0" encoding="UTF-8"?>
<svg xmlns="http://www.w3.org/2000/svg" viewBox="0 0 170 170">
  <defs>
    <style>
      .cls-1 {
        fill: #fff;
      }

      .cls-2 {
        fill: #939598;
      }

      .cls-3 {
        fill: none;
      }

      .cls-4 {
        fill: #231f20;
      }
    </style>
  </defs>
  <g id="camada_1_preta" data-name="camada 1 preta">
    <polygon class="cls-4" points="155.3 56.61 155.3 30.2 170 30.2 170 7.33 142.4 7.33 142.4 20.53 113.01 20.53 113.01 7.33 55.98 7.33 55.98 20.53 26.58 20.53 26.58 7.33 12.35 7.33 0 7.33 0 30.2 14.7 30.2 14.7 56.61 0 56.61 0 82.51 0 108.89 14.7 108.89 14.7 135.3 0 135.3 0 162.67 26.58 162.67 26.58 149.47 55.98 149.47 55.98 162.67 113.01 162.67 113.01 149.47 142.4 149.47 142.4 162.67 170 162.67 170 135.3 155.3 135.3 155.3 108.89 170 108.89 170 56.61 155.3 56.61"/>
  </g>
  <g id="camada_2_cinza_50_" data-name="camada 2 cinza 50%">
    <rect class="cls-2" x="73.8" y="33.59" width="21.84" height="19.63"/>
    <rect class="cls-2" x="30.36" y="72.57" width="21.84" height="19.63"/>
    <rect class="cls-2" x="116.79" y="72.57" width="21.84" height="19.63"/>
    <rect class="cls-2" x="73.8" y="112.28" width="21.84" height="19.63"/>
    <rect class="cls-2" y="33.59" width="10.92" height="19.63"/>
    <polygon class="cls-2" points="30.36 7.33 30.36 17.14 52.2 17.14 52.2 7.33 41.65 7.33 30.36 7.33"/>
    <rect class="cls-2" x="116.79" y="7.33" width="21.84" height="9.81"/>
    <rect class="cls-2" x="30.36" y="152.86" width="21.84" height="9.81"/>
    <rect class="cls-2" x="116.79" y="152.86" width="21.84" height="9.81"/>
    <rect class="cls-2" x="159.08" y="33.59" width="10.92" height="19.63"/>
    <rect class="cls-2" y="112.28" width="10.92" height="19.63"/>
    <rect class="cls-2" x="159.08" y="112.28" width="10.92" height="19.63"/>
  </g>
  <g id="camada_4_branca" data-name="camada 4 branca">
    <g>
      <polygon class="cls-3" points="42.79 84.82 34.72 92.19 50.62 92.19 42.79 84.82"/>
      <polygon class="cls-3" points="54.22 95.59 31.01 95.59 14.7 110.52 14.7 133.36 28.21 149.47 53.21 149.47 70.03 133.89 70.03 110.49 54.22 95.59"/>
      <polygon class="cls-3" points="73.8 114.06 73.8 130.39 82.54 122.29 73.8 114.06"/>
      <polygon class="cls-3" points="75.84 131.91 92.74 131.91 84.36 124.01 75.84 131.91"/>
      <polygon class="cls-3" points="30.36 73.1 30.36 92.19 31.02 92.19 40.97 83.1 30.36 73.1"/>
      <polygon class="cls-3" points="55.98 69.36 70.03 56.51 70.03 33.44 55.62 20.53 28.56 20.53 14.7 31.81 14.7 54.9 29.84 69.17 55.98 69.17 55.98 69.36"/>
      <polygon class="cls-3" points="52.2 72.82 52.2 72.57 33.44 72.57 42.81 81.4 52.2 72.82"/>
      <polygon class="cls-3" points="127 81.11 136.22 72.57 117.46 72.57 127 81.11"/>
      <polygon class="cls-3" points="138.63 91.53 138.63 73.75 128.87 82.79 138.63 91.53"/>
      <polygon class="cls-3" points="113.04 20.53 99.42 33 99.42 56.41 113.67 69.17 139.88 69.17 155.3 54.89 155.3 31.81 141.47 20.53 113.04 20.53"/>
      <polygon class="cls-3" points="86.2 122.31 95.64 131.21 95.64 113.57 86.2 122.31"/>
      <polygon class="cls-3" points="99.42 110.07 99.42 134.77 115.01 149.47 140.71 149.47 155.3 133.45 155.3 109.82 139.41 95.59 115.05 95.59 99.42 110.07"/>
      <polygon class="cls-3" points="118.71 92.19 135.62 92.19 127.02 84.49 118.71 92.19"/>
      <polygon class="cls-3" points="82.77 44.85 73.8 36.82 73.8 53.05 82.77 44.85"/>
      <polygon class="cls-3" points="84.38 120.59 93.35 112.28 75.57 112.28 84.38 120.59"/>
      <polygon class="cls-3" points="55.98 72.75 55.98 93.81 71.96 108.89 97.01 108.89 113.01 94.07 113.01 71.94 95.9 56.61 73.61 56.61 55.98 72.75"/>
      <polygon class="cls-3" points="84.64 46.52 77.32 53.22 92.11 53.22 84.64 46.52"/>
      <polygon class="cls-3" points="95.64 53.03 95.64 36.46 86.49 44.83 95.64 53.03"/>
      <polygon class="cls-3" points="125.15 82.82 116.79 75.32 116.79 90.57 125.15 82.82"/>
      <polygon class="cls-3" points="95.07 33.59 73.95 33.59 84.62 43.15 95.07 33.59"/>
      <polygon class="cls-3" points="44.64 83.12 52.2 90.25 52.2 76.21 44.64 83.12"/>
      <polygon class="cls-1" points="28.21 149.47 14.7 133.36 14.7 135.3 13.06 135.3 26.58 151.41 26.58 149.47 28.21 149.47"/>
      <polygon class="cls-1" points="14.7 31.81 28.56 20.53 26.58 20.53 26.58 18.92 12.72 30.2 14.7 30.2 14.7 31.81"/>
      <polygon class="cls-1" points="141.47 20.53 155.3 31.81 155.3 30.2 157.28 30.2 142.4 18.07 142.4 20.53 141.47 20.53"/>
      <polygon class="cls-1" points="29.84 69.17 14.7 54.9 14.7 56.61 12.87 56.61 26.58 69.54 26.58 69.17 29.84 69.17"/>
      <polygon class="cls-1" points="52.2 15.79 51.36 16.72 51.83 17.14 52.2 17.14 52.2 15.79"/>
      <polygon class="cls-1" points="55.62 20.53 70.03 33.44 70.03 30.2 70.16 30.2 55.98 17.49 55.98 20.53 55.62 20.53"/>
      <polygon class="cls-1" points="99.42 33 113.04 20.53 113.01 20.53 113.01 17.18 98.78 30.2 99.42 30.2 99.42 33"/>
      <polygon class="cls-1" points="155.3 54.89 139.88 69.17 142.4 69.17 142.4 70.25 157.12 56.61 155.3 56.61 155.3 54.89"/>
      <polygon class="cls-1" points="49.54 152.86 49.53 152.87 51.23 154.7 52.2 153.81 52.2 152.86 49.54 152.86"/>
      <polygon class="cls-1" points="113.01 94.07 97.01 108.89 99.42 108.89 99.42 110.07 115.05 95.59 113.01 95.59 113.01 94.07"/>
      <polygon class="cls-1" points="70.03 133.89 53.21 149.47 55.98 149.47 55.98 150.31 72.18 135.3 70.03 135.3 70.03 133.89"/>
      <polygon class="cls-1" points="95.9 56.61 113.01 71.94 113.01 69.17 113.67 69.17 99.42 56.41 99.42 56.61 95.9 56.61"/>
      <polygon class="cls-1" points="115.01 149.47 99.42 134.77 99.42 135.3 96.34 135.3 113.01 151.02 113.01 149.47 115.01 149.47"/>
      <polygon class="cls-1" points="71.96 108.89 55.98 93.81 55.98 95.59 54.22 95.59 70.03 110.49 70.03 108.89 71.96 108.89"/>
      <polygon class="cls-1" points="14.7 110.52 31.01 95.59 27.31 95.59 12.78 108.89 14.7 108.89 14.7 110.52"/>
      <polygon class="cls-1" points="139.41 95.59 155.3 109.82 155.3 108.89 158 108.89 142.4 94.91 142.4 95.59 139.41 95.59"/>
      <polygon class="cls-1" points="73.61 56.61 70.03 56.61 70.03 56.51 55.98 69.36 55.98 72.75 73.61 56.61"/>
      <polygon class="cls-1" points="155.3 133.45 140.71 149.47 142.4 149.47 142.4 151.32 156.99 135.3 155.3 135.3 155.3 133.45"/>
      <polygon class="cls-1" points="13.23 53.52 14.7 54.9 14.7 31.81 12.16 33.87 10.58 31.93 12.72 30.2 0 30.2 0 33.59 10.92 33.59 10.92 53.22 0 53.22 0 56.61 12.87 56.61 11.52 55.34 13.23 53.52"/>
      <polygon class="cls-1" points="12.16 33.87 14.7 31.81 14.7 30.2 12.72 30.2 10.58 31.93 12.16 33.87"/>
      <polygon class="cls-1" points="14.7 54.9 13.23 53.52 11.52 55.34 12.87 56.61 14.7 56.61 14.7 54.9"/>
      <polygon class="cls-1" points="55.98 17.49 55.98 7.33 52.2 7.33 52.2 15.79 53.03 14.86 55.98 17.49"/>
      <polygon class="cls-1" points="30.38 19.05 28.56 20.53 55.62 20.53 51.83 17.14 30.36 17.14 30.36 7.33 26.58 7.33 26.58 18.92 28.81 17.12 30.38 19.05"/>
      <polygon class="cls-1" points="28.56 20.53 30.38 19.05 28.81 17.12 26.58 18.92 26.58 20.53 28.56 20.53"/>
      <polygon class="cls-1" points="55.98 20.53 55.98 17.49 53.03 14.86 52.2 15.79 52.2 17.14 51.83 17.14 55.62 20.53 55.98 20.53"/>
      <polygon class="cls-1" points="115.99 17.84 113.04 20.53 141.47 20.53 139.66 19.05 141.24 17.12 142.4 18.07 142.4 7.33 138.63 7.33 138.63 17.14 116.79 17.14 116.79 7.33 113.01 7.33 113.01 17.18 114.3 15.99 115.99 17.84"/>
      <polygon class="cls-1" points="139.66 19.05 141.47 20.53 142.4 20.53 142.4 18.07 141.24 17.12 139.66 19.05"/>
      <polygon class="cls-1" points="113.04 20.53 115.99 17.84 114.3 15.99 113.01 17.18 113.01 20.53 113.04 20.53"/>
      <polygon class="cls-1" points="28.21 149.47 29.7 151.24 27.79 152.85 26.58 151.41 26.58 162.67 30.36 162.67 30.36 152.86 49.54 152.86 53.21 149.47 28.21 149.47"/>
      <polygon class="cls-1" points="52.2 162.67 55.98 162.67 55.98 150.31 52.2 153.81 52.2 162.67"/>
      <polygon class="cls-1" points="29.7 151.24 28.21 149.47 26.58 149.47 26.58 151.41 27.79 152.85 29.7 151.24"/>
      <polygon class="cls-1" points="53.21 149.47 49.54 152.86 52.2 152.86 52.2 153.81 55.98 150.31 55.98 149.47 53.21 149.47"/>
      <polygon class="cls-1" points="139.13 151.2 140.71 149.47 115.01 149.47 117.65 151.95 115.93 153.77 113.01 151.02 113.01 162.67 116.79 162.67 116.79 152.86 138.63 152.86 138.63 162.67 142.4 162.67 142.4 151.32 140.98 152.88 139.13 151.2"/>
      <polygon class="cls-1" points="117.65 151.95 115.01 149.47 113.01 149.47 113.01 151.02 115.93 153.77 117.65 151.95"/>
      <polygon class="cls-1" points="140.71 149.47 139.13 151.2 140.98 152.88 142.4 151.32 142.4 149.47 140.71 149.47"/>
      <polygon class="cls-1" points="170 33.59 170 30.2 157.28 30.2 158.5 31.2 156.92 33.13 155.3 31.81 155.3 54.89 156.79 53.51 158.49 55.34 157.12 56.61 170 56.61 170 53.22 159.08 53.22 159.08 33.59 170 33.59"/>
      <polygon class="cls-1" points="155.3 31.81 156.92 33.13 158.5 31.2 157.28 30.2 155.3 30.2 155.3 31.81"/>
      <polygon class="cls-1" points="156.79 53.51 155.3 54.89 155.3 56.61 157.12 56.61 158.49 55.34 156.79 53.51"/>
      <polygon class="cls-1" points="12.78 108.89 0 108.89 0 112.28 10.92 112.28 10.08 111.36 12.78 108.89"/>
      <polygon class="cls-1" points="13.5 131.93 14.7 133.36 14.7 110.52 11.76 113.2 10.92 112.28 10.92 131.91 0 131.91 0 135.3 13.06 135.3 11.58 133.54 13.5 131.93"/>
      <polygon class="cls-1" points="14.7 133.36 13.5 131.93 11.58 133.54 13.06 135.3 14.7 135.3 14.7 133.36"/>
      <polygon class="cls-1" points="14.7 110.52 14.7 108.89 12.78 108.89 10.08 111.36 10.92 112.28 10.92 112.28 10.92 112.28 11.76 113.2 14.7 110.52"/>
      <polygon class="cls-1" points="157.41 111.72 155.3 109.82 155.3 133.45 156.72 131.89 158.57 133.58 156.99 135.3 170 135.3 170 131.91 159.08 131.91 159.08 112.28 170 112.28 170 108.89 158 108.89 159.08 109.85 157.41 111.72"/>
      <polygon class="cls-1" points="155.3 109.82 157.41 111.72 159.08 109.85 158 108.89 155.3 108.89 155.3 109.82"/>
      <polygon class="cls-1" points="156.72 131.89 155.3 133.45 155.3 135.3 156.99 135.3 158.57 133.58 156.72 131.89"/>
      <polygon class="cls-1" points="99.42 56.41 99.42 33 95.64 36.46 95.64 53.03 99.42 56.41"/>
      <polygon class="cls-1" points="73.8 53.05 73.8 36.82 70.03 33.44 70.03 56.51 73.8 53.05"/>
      <polygon class="cls-1" points="95.07 33.59 98.78 30.2 70.16 30.2 73.95 33.59 95.07 33.59"/>
      <polygon class="cls-1" points="95.9 56.61 92.11 53.22 77.32 53.22 73.61 56.61 95.9 56.61"/>
      <polygon class="cls-1" points="95.64 53.22 92.11 53.22 95.9 56.61 99.42 56.61 99.42 56.41 95.64 53.03 95.64 53.22"/>
      <polygon class="cls-1" points="73.61 56.61 77.32 53.22 73.8 53.22 73.8 53.05 70.03 56.51 70.03 56.61 73.61 56.61"/>
      <polygon class="cls-1" points="95.64 33.59 95.64 36.46 99.42 33 99.42 30.2 98.78 30.2 95.07 33.59 95.64 33.59"/>
      <polygon class="cls-1" points="70.03 33.44 73.8 36.82 73.8 33.59 73.95 33.59 70.16 30.2 70.03 30.2 70.03 33.44"/>
      <polygon class="cls-1" points="30.36 92.19 30.36 73.1 26.58 69.54 26.58 95.59 27.31 95.59 31.02 92.19 30.36 92.19"/>
      <polygon class="cls-1" points="55.98 72.75 52.2 76.21 52.2 90.25 55.98 93.81 55.98 72.75"/>
      <polygon class="cls-1" points="50.62 92.19 34.72 92.19 31.01 95.59 54.22 95.59 50.62 92.19"/>
      <polygon class="cls-1" points="52.2 72.82 55.98 69.36 55.98 69.17 29.84 69.17 33.44 72.57 52.2 72.57 52.2 72.82"/>
      <polygon class="cls-1" points="30.36 72.57 33.44 72.57 29.84 69.17 26.58 69.17 26.58 69.54 30.36 73.1 30.36 72.57"/>
      <polygon class="cls-1" points="34.72 92.19 31.02 92.19 27.31 95.59 31.01 95.59 34.72 92.19"/>
      <polygon class="cls-1" points="55.98 93.81 52.2 90.25 52.2 92.19 50.62 92.19 54.22 95.59 55.98 95.59 55.98 93.81"/>
      <polygon class="cls-1" points="55.98 69.36 52.2 72.82 52.2 76.21 55.98 72.75 55.98 69.36"/>
      <polygon class="cls-1" points="115.05 95.59 139.41 95.59 135.62 92.19 118.71 92.19 115.05 95.59"/>
      <polygon class="cls-1" points="138.63 91.53 142.4 94.91 142.4 70.25 138.63 73.75 138.63 91.53"/>
      <polygon class="cls-1" points="117.46 72.57 136.22 72.57 139.88 69.17 113.67 69.17 117.46 72.57"/>
      <polygon class="cls-1" points="113.01 94.07 116.79 90.57 116.79 75.32 113.01 71.94 113.01 94.07"/>
      <polygon class="cls-1" points="113.01 71.94 116.79 75.32 116.79 72.57 117.46 72.57 113.67 69.17 113.01 69.17 113.01 71.94"/>
      <polygon class="cls-1" points="138.63 92.19 135.62 92.19 139.41 95.59 142.4 95.59 142.4 94.91 138.63 91.53 138.63 92.19"/>
      <polygon class="cls-1" points="113.01 95.59 115.05 95.59 118.71 92.19 116.79 92.19 116.79 90.57 113.01 94.07 113.01 95.59"/>
      <polygon class="cls-1" points="139.88 69.17 136.22 72.57 138.63 72.57 138.63 73.75 142.4 70.25 142.4 69.17 139.88 69.17"/>
      <polygon class="cls-1" points="70.03 110.49 70.03 133.89 73.8 130.39 73.8 114.06 70.03 110.49"/>
      <polygon class="cls-1" points="95.64 113.57 95.64 131.21 99.42 134.77 99.42 110.07 95.64 113.57"/>
      <polygon class="cls-1" points="75.84 131.91 72.18 135.3 96.34 135.3 92.74 131.91 75.84 131.91"/>
      <polygon class="cls-1" points="71.96 108.89 75.57 112.28 93.35 112.28 97.01 108.89 71.96 108.89"/>
      <polygon class="cls-1" points="73.8 131.91 73.8 130.39 70.03 133.89 70.03 135.3 72.18 135.3 75.84 131.91 73.8 131.91"/>
      <polygon class="cls-1" points="99.42 134.77 95.64 131.21 95.64 131.91 92.74 131.91 96.34 135.3 99.42 135.3 99.42 134.77"/>
      <polygon class="cls-1" points="70.03 108.89 70.03 110.49 73.8 114.06 73.8 112.28 75.57 112.28 71.96 108.89 70.03 108.89"/>
      <polygon class="cls-1" points="97.01 108.89 93.35 112.28 95.64 112.28 95.64 113.57 99.42 110.07 99.42 108.89 97.01 108.89"/>
    </g>
  </g>
</svg>