<?xml version="1.0" encoding="UTF-8"?>
<svg xmlns="http://www.w3.org/2000/svg" viewBox="0 0 170 170">
  <defs>
    <style>
      .cls-1 {
        fill: none;
        stroke: #231f20;
        stroke-miterlimit: 10;
      }

      .cls-2 {
        fill: #fff;
      }

      .cls-3 {
        fill: #939598;
      }

      .cls-4 {
        fill: #6d6e71;
      }

      .cls-5 {
        fill: #231f20;
      }
    </style>
  </defs>
  <g id="camada_1_preta" data-name="camada 1 preta">
    <path class="cls-5" d="m0,18.44v12.47c12.37-1.61,26.54-1.07,26.54-1.07.52-10.85,3.58-17.97,6.71-22.51H11.12C11.11,13.47,6.14,18.44,0,18.44Z"/>
    <path class="cls-5" d="m158.88,7.34h-12.47c1.6,12.36,1.07,26.51,1.07,26.51,10.87.52,17.99,3.59,22.53,6.73v-22.14c-6.14,0-11.11-4.97-11.12-11.1Z"/>
    <path class="cls-5" d="m22.53,136.15c-10.87-.52-17.99-3.59-22.53-6.73v22.14c6.14,0,11.12,4.98,11.12,11.13h12.47c-1.61-12.37-1.07-26.54-1.07-26.54Z"/>
    <path class="cls-5" d="m143.46,140.16c-.52,10.87-3.59,17.99-6.73,22.53h22.14c0-6.14,4.98-11.13,11.13-11.13v-12.47c-12.37,1.61-26.54,1.07-26.54,1.07Z"/>
    <path class="cls-5" d="m88.23,71.95c-7.21,0-13.06,5.85-13.06,13.06s5.85,13.06,13.06,13.06,13.06-5.85,13.06-13.06-5.85-13.06-13.06-13.06Zm0,21.24c-4.52,0-8.18-3.66-8.18-8.18s3.66-8.18,8.18-8.18,8.18,3.66,8.18,8.18-3.66,8.18-8.18,8.18Z"/>
  </g>
  <g id="camada_2_cinza_50_" data-name="camada 2 cinza 50%">
    <path class="cls-3" d="m105.55,76.83c4.82-6.43.26-9.88.26-9.88-4.29-6.63-12.42-.35-12.42-.35,0-5.39-5.75-6.15-5.75-6.15-6.14-1.8-7.73,5.53-7.73,5.53-5.62-4.01-10.24-.55-10.24-.55-4.43,3.11.33,10.5.33,10.5-11.76.69-9.84,9.61-9.84,9.61-.07,8.64,9.58,9.12,9.58,9.12-5.55,6.98-.53,10.37-.53,10.37,6.61,7.33,11.76-1.93,11.76-1.93.79,4.98,7.27,5.67,7.27,5.67,5.68,1.24,7.53-7.19,7.53-7.19,4.36,5.74,9.98,2.35,9.98,2.35,4.62-4.22.86-12.28.86-12.28,8.46.85,6.87-7.28,6.87-7.28-.26-6.43-7.93-7.53-7.93-7.53Zm-17.32,21.24c-7.21,0-13.06-5.85-13.06-13.06s5.85-13.06,13.06-13.06,13.06,5.85,13.06,13.06-5.85,13.06-13.06,13.06Z"/>
    <path class="cls-3" d="m12.44,39.19c1.52-.18,7.19,4.05,7.19,4.05,1.24,0,.55-7.33.55-7.33,19.76,22.39,32.76,17.69,32.76,17.69.97-16.31-15.76-28.47-15.76-28.47,1.93-1.38,6.08-1.8,6.08-1.8-2.07-1.11-3.18-6.22-3.18-6.22,21.11,2.86,29.14-7.02,30.94-9.79h-37.78c-3.14,4.54-6.19,11.66-6.71,22.51,0,0-14.17-.54-26.54,1.07v39.29c16.59-3.46,12.44-31.01,12.44-31.01Z"/>
    <path class="cls-3" d="m146.41,7.34h-39.28c3.48,16.56,31,12.42,31,12.42.18,1.52-4.05,7.19-4.05,7.19,0,1.24,7.33.55,7.33.55-22.39,19.76-17.69,32.76-17.69,32.76,16.31.97,28.47-15.76,28.47-15.76,1.38,1.93,1.8,6.08,1.8,6.08,1.11-2.07,6.22-3.18,6.22-3.18-2.87,21.16,7.07,29.18,9.81,30.96v-37.78c-4.53-3.14-11.66-6.2-22.53-6.73,0,0,.54-14.15-1.07-26.51Z"/>
    <path class="cls-3" d="m31.88,150.25c-.18-1.52,4.05-7.19,4.05-7.19,0-1.24-7.33-.55-7.33-.55,22.39-19.76,17.69-32.76,17.69-32.76-16.31-.97-28.47,15.76-28.47,15.76-1.38-1.93-1.8-6.08-1.8-6.08-1.11,2.07-6.22,3.18-6.22,3.18C12.68,101.44,2.74,93.43,0,91.65v37.78c4.53,3.14,11.66,6.2,22.53,6.73,0,0-.54,14.17,1.07,26.54h39.29c-3.46-16.59-31.01-12.44-31.01-12.44Z"/>
    <path class="cls-3" d="m157.56,130.81c-1.52.18-7.19-4.05-7.19-4.05-1.24,0-.55,7.33-.55,7.33-19.76-22.39-32.76-17.69-32.76-17.69-.97,16.31,15.76,28.47,15.76,28.47-1.93,1.38-6.08,1.8-6.08,1.8,2.07,1.11,3.18,6.22,3.18,6.22-21.16-2.87-29.18,7.07-30.96,9.81h37.78c3.14-4.53,6.2-11.66,6.73-22.53,0,0,14.17.54,26.54-1.07v-39.29c-16.59,3.46-12.44,31.01-12.44,31.01Z"/>
  </g>
  <g id="camada_3_cinza_70_" data-name="camada 3 cinza 70%">
    <path class="cls-4" d="m11.12,7.34H0v11.1c6.14,0,11.11-4.97,11.12-11.1Z"/>
    <path class="cls-4" d="m170,18.44V7.34h-11.12c.01,6.13,4.99,11.1,11.12,11.1Z"/>
    <path class="cls-4" d="m0,151.56v11.13h11.12c0-6.14-4.98-11.13-11.12-11.13Z"/>
    <path class="cls-4" d="m158.87,162.69h11.13v-11.13c-6.14,0-11.13,4.98-11.13,11.13Z"/>
    <circle class="cls-4" cx="88.23" cy="85.01" r="8.18"/>
  </g>
  <g id="camada_4_branca" data-name="camada 4 branca">
    <path class="cls-2" d="m160.19,47.4s-5.11,1.11-6.22,3.18c0,0-.41-4.15-1.8-6.08,0,0-12.16,16.72-28.47,15.76,0,0-4.7-12.99,17.69-32.76,0,0-7.33.69-7.33-.55,0,0,4.24-5.67,4.05-7.19,0,0-27.52,4.14-31-12.42h-36.1c-1.81,2.77-9.83,12.65-30.94,9.79,0,0,1.11,5.11,3.18,6.22,0,0-4.15.41-6.08,1.8,0,0,16.72,12.16,15.76,28.47,0,0-12.99,4.7-32.76-17.69,0,0,.69,7.33-.55,7.33,0,0-5.67-4.24-7.19-4.05,0,0,4.15,27.55-12.44,31.01v21.45c2.74,1.78,12.68,9.79,9.81,30.96,0,0,5.11-1.11,6.22-3.18,0,0,.41,4.15,1.8,6.08,0,0,12.16-16.72,28.47-15.76,0,0,4.7,12.99-17.69,32.76,0,0,7.33-.69,7.33.55,0,0-4.24,5.67-4.05,7.19,0,0,27.55-4.15,31.01,12.44h36.08c1.78-2.74,9.79-12.68,30.96-9.81,0,0-1.11-5.11-3.18-6.22,0,0,4.15-.41,6.08-1.8,0,0-16.72-12.16-15.76-28.47,0,0,12.99-4.7,32.76,17.69,0,0-.69-7.33.55-7.33,0,0,5.67,4.24,7.19,4.05,0,0-4.15-27.55,12.44-31.01v-21.45c-2.74-1.78-12.68-9.79-9.81-30.96Zm-53.58,44.25s3.77,8.06-.86,12.28c0,0-5.62,3.39-9.98-2.35,0,0-1.85,8.43-7.53,7.19,0,0-6.47-.69-7.27-5.67,0,0-5.15,9.26-11.76,1.93,0,0-5.02-3.39.53-10.37,0,0-9.65-.48-9.58-9.12,0,0-1.92-8.91,9.84-9.61,0,0-4.76-7.39-.33-10.5,0,0,4.62-3.46,10.24.55,0,0,1.59-7.33,7.73-5.53,0,0,5.75.76,5.75,6.15,0,0,8.13-6.29,12.42.35,0,0,4.56,3.46-.26,9.88,0,0,7.66,1.11,7.93,7.53,0,0,1.59,8.14-6.87,7.28Z"/>
    <polygon class="cls-1" points="0 30.91 0 70.2 0 70.2 0 30.91 0 30.91"/>
    <path class="cls-1" d="m71.02,7.34s.01-.01.01-.02h-37.78s0,.01-.01.02h37.78Z"/>
    <path class="cls-1" d="m33.25,7.34s0-.01.01-.02H11.13s0,.01,0,.02h22.12Z"/>
    <polygon class="cls-1" points="0 18.44 0 18.44 0 30.91 0 30.91 0 18.44"/>
    <path class="cls-1" d="m0,7.34h11.12s0-.01,0-.02H0v11.13h0V7.34Z"/>
    <path class="cls-1" d="m146.4,7.31h-39.29s0,.01,0,.02h39.28s0-.01,0-.02Z"/>
    <path class="cls-1" d="m158.88,7.34s0-.01,0-.02h-12.47s0,.01,0,.02h12.47Z"/>
    <path class="cls-1" d="m158.87,7.31s0,.01,0,.02h11.12v-.02h-11.13Z"/>
    <polygon class="cls-1" points="0 91.65 0 91.65 0 129.42 0 129.42 0 91.65"/>
    <polygon class="cls-1" points="0 129.42 0 129.42 0 151.56 0 151.56 0 129.42"/>
    <polygon class="cls-1" points="0 151.56 0 162.69 0 162.69 0 151.56 0 151.56"/>
  </g>
</svg>