<?xml version="1.0" encoding="UTF-8"?>
<svg xmlns="http://www.w3.org/2000/svg" viewBox="0 0 170 170">
  <defs>
    <style>
      .cls-1 {
        fill: #fff;
      }

      .cls-2 {
        fill: #939598;
      }

      .cls-3 {
        fill: #6d6e71;
      }

      .cls-4 {
        fill: #d1d3d4;
      }

      .cls-5 {
        fill: #231f20;
      }
    </style>
  </defs>
  <g id="camada_1_preta" data-name="camada 1 preta">
    <polygon class="cls-5" points="170 170.44 0 170.44 0 82.26 0 40.25 0 -.44 41.51 -.44 170 -.44 170 170.44"/>
  </g>
  <g id="camada_2_cinza_50_" data-name="camada 2 cinza 50%">
    <rect class="cls-2" y="19.76" width="170" height="12.14"/>
    <rect class="cls-2" y="138.11" width="170" height="12.14" transform="translate(170 288.35) rotate(180)"/>
    <path class="cls-2" d="m110.82,115.69c48.39,9.23,39.64-38.9,39.64-38.9.75-41.99-65.46-34.02-65.46-34.02-13.22,1.96-18.53-4.16-19.99-6.31-.29-.42-.93-.37-1.14.09-6.64,14.73,11.28,13.66,11.28,13.66,6.75.59,3.67,5.28,3.67,5.28-3.67,4.55,2.2,6.46,2.2,6.46,13.07,3.38,19.38-10.13,19.38-10.13,2.64-3.82,6.31-1.76,6.31-1.76,1.91.88.59,3.82.59,3.82-3.7,5.06-7.36,4.66-5.55,15.82.14.86.43,1.71.93,2.41,3.34,4.64,8.65,4.58,10.69,4.35.44-.05.68-.5.54-.91-1.47-4.2-.97-7.44.19-9.84,1.74-3.6,5.44-5.77,9.41-6.3,23.22-3.08,21.38,24.12,21.38,24.12.29,27.6-28.92,21.73-28.92,21.73-25.1-5.14-17.76-32.44-17.76-32.44-11.96-.43-22.98-7.93-22.98-7.93-2.2-2.5-4.81-5.62-8.38-7.49-7.78-4.07-16.75-5.33-25.46-4.17-34.55,4.61-26.79,38.52-26.79,38.52,5.43,47.56,66.06,35.62,66.06,35.62,13.21-1.96,17.92,2.54,19.38,4.7.29.42.93.37,1.14-.09,6.63-14.73-11.28-13.66-11.28-13.66-6.75-.59-3.67-5.28-3.67-5.28,3.67-4.55-2.2-6.46-2.2-6.46-13.07-3.38-19.38,10.13-19.38,10.13-2.64,3.82-6.31,1.76-6.31,1.76-1.91-.88-.59-3.82-.59-3.82,3.7-5.06,7.36-4.66,5.55-15.82-.14-.86-.43-1.71-.93-2.41-3.34-4.64-8.65-4.58-10.69-4.35-.44.05-.68.5-.54.91,1.47,4.2.97,7.44-.19,9.84-1.74,3.6-5.44,5.77-9.41,6.3-23.22,3.08-21.38-24.12-21.38-24.12-.29-27.6,28.92-21.73,28.92-21.73,25.1,5.14,17.76,32.44,17.76,32.44,0,0,13.95,2.64,21.43,7.19,0,0,17.19,11.76,22.54,12.78Z"/>
  </g>
  <g id="camada_3_cinza_70_" data-name="camada 3 cinza 70%">
    <rect class="cls-3" y="-.44" width="170" height="20.2"/>
    <rect class="cls-3" y="150.24" width="170" height="20.2" transform="translate(170 320.68) rotate(180)"/>
  </g>
  <g id="camada_4_cinza_20_" data-name="camada 4 cinza 20%">
    <polygon class="cls-4" points="93.76 96.84 76.24 91.17 73.01 74.14 90.82 78.44 93.76 96.84"/>
    <path class="cls-4" d="m0,94.98c5.24,0,9.49-4.25,9.49-9.49S5.24,76,0,76v18.99Z"/>
    <path class="cls-4" d="m160.63,88.34c0,5.2,4.19,9.41,9.37,9.48v-18.96c-5.19.07-9.37,4.28-9.37,9.48Z"/>
  </g>
  <g id="camada_5_branca" data-name="camada 5 branca">
    <path class="cls-1" d="m8.81,123.27c12.14-1.47,6.07-19.48,6.07-19.48-1.57-7.14,5.97-3.91,5.97-3.91,8.91,2.94,16.15,3.43,16.15,3.43.98-1.96-.29-8.91-.29-8.91,8.61-.88,15.86-8.03,15.86-8.03-3.72-4.7-17.03-7.14-17.03-7.14,1.76-4.8-.59-10.86-.59-10.86-3.52-.1-12.82,4.11-12.82,4.11-5.58,3.23-7.34-1.76-7.34-1.76l1.17-9.98c1.57-11.45-8.42-10.08-8.42-10.08C6.78,44.5,2.78,43.06,0,42.82v33.18c5.24,0,9.49,4.25,9.49,9.49S5.24,94.98,0,94.98v36.07c7.36.08,8.81-7.78,8.81-7.78Z"/>
    <path class="cls-1" d="m160.63,88.34c0-5.2,4.19-9.41,9.37-9.48v-36.07c-7.25.01-8.69,7.78-8.69,7.78-12.14,1.47-6.07,19.48-6.07,19.48,1.57,7.14-5.97,3.91-5.97,3.91-8.91-2.94-16.15-3.43-16.15-3.43-.98,1.96.29,8.91.29,8.91-8.61.88-15.85,8.03-15.85,8.03,3.72,4.7,17.03,7.14,17.03,7.14-1.76,4.8.59,10.86.59,10.86,3.52.1,12.82-4.11,12.82-4.11,5.58-3.23,7.34,1.76,7.34,1.76l-1.17,9.98c-1.57,11.45,8.42,10.08,8.42,10.08.74,6.06,4.64,7.54,7.42,7.82v-33.18c-5.19-.07-9.37-4.28-9.37-9.48Z"/>
  </g>
</svg>