<?xml version="1.0" encoding="UTF-8"?>
<svg xmlns="http://www.w3.org/2000/svg" viewBox="0 0 170 170">
  <defs>
    <style>
      .cls-1 {
        fill: #fff;
      }

      .cls-2 {
        fill: #939598;
      }

      .cls-3 {
        fill: #231f20;
      }
    </style>
  </defs>
  <g id="camada_1_preta" data-name="camada 1 preta">
    <path class="cls-3" d="m149.31,154.84c3.32-5.44-2.76-5.99-2.76-5.99l-3.87-.74-.46-10.96,10.78-.92,1.01,3.96c3.13,5.53,7,3.69,7,3.69,3.96-6.45,7.22-4.94,8.98-3.17V28.19c-1.77,1.77-5.03,3.28-8.98-3.17,0,0-3.87-1.84-7,3.69l-1.01,3.96-10.78-.92.46-10.96,3.87-.74s6.08-.55,2.76-5.99c0,0-5.88-3.22-5.38-6.72H26.11c.5,3.5-5.38,6.72-5.38,6.72-3.32,5.44,2.76,5.99,2.76,5.99l3.87.74.46,10.96-10.78.92-1.01-3.96c-3.13-5.53-7-3.69-7-3.69-3.99,6.51-7.27,4.92-9.03,3.13v112.6c1.76-1.79,5.04-3.38,9.03,3.13,0,0,3.87,1.84,7-3.69l1.01-3.96,10.78.92-.46,10.96-3.87.74s-6.08.55-2.76,5.99c0,0,7.09,3.87,5.07,7.74l-.66.1h119.76l-.66-.1c-2.03-3.87,5.07-7.74,5.07-7.74Z"/>
    <path class="cls-3" d="m114.05,58.64c-6.73-23.04-28.24-21.42-28.24-21.42-29.44,2.49-29.16,22.25-29.16,22.25-26.81,8.85-23.36,28.89-23.36,28.89,0,20.73,25.43,23.5,25.43,23.5,6.63,21.56,28.61,20.87,28.61,20.87,25.15,1.66,27.92-21.56,27.92-21.56,23.63-2.07,21.56-25.34,21.56-25.34.14-21.33-22.76-27.19-22.76-27.19Zm-33.81-2.95c-.09-5.73,3.63-11.95,4.56-13.41.1-.15.32-.15.42,0,3.64,5.61,3.87,13.5,3.87,13.5.63,8.64-2.78,11.59-3.8,12.27-.16.11-.38.11-.54,0-4.65-3.29-4.51-12.36-4.51-12.36Zm-13.97,28.7c-2.98,4.85-12.03,5.31-12.03,5.31-5.71.47-12.17-2.83-13.68-3.66-.16-.09-.17-.31-.02-.42,5.35-4,13.21-4.75,13.21-4.75,8.58-1.2,11.75,2.01,12.5,2.98.12.16.13.37.03.54Zm19.27,44.27c-.09.16-.32.16-.42.01-3.88-5.44-4.46-13.31-4.46-13.31-1.01-8.61,2.27-11.7,3.25-12.43.16-.12.37-.12.54-.02,4.79,3.08,5.05,12.15,5.05,12.15.34,5.72-3.1,12.1-3.96,13.6Zm13.95-32.83c0,1.22-.99,2.2-2.2,2.2h-25.17c-1.22,0-2.2-.99-2.2-2.2v-22.27c0-1.22.99-2.2,2.2-2.2h25.17c1.22,0,2.2.99,2.2,2.2v22.27Zm29.49-10.45c-5.52,3.76-13.41,4.16-13.41,4.16-8.63.82-11.65-2.53-12.35-3.53-.11-.16-.12-.38,0-.54,3.19-4.72,12.25-4.78,12.25-4.78,5.73-.22,12.03,3.37,13.51,4.26.16.09.15.32,0,.42Z"/>
  </g>
  <g id="camada_2_cinza_50_" data-name="camada 2 cinza 50%">
    <path class="cls-2" d="m163.18,86.25c.21-32.18-34.34-41.02-34.34-41.02C118.69,10.46,86.22,12.89,86.22,12.89c-44.43,3.75-44.01,33.58-44.01,33.58C1.75,59.82,6.96,90.06,6.96,90.06c0,31.29,38.38,35.46,38.38,35.46,10.01,32.54,43.17,31.49,43.17,31.49,37.96,2.5,42.13-32.54,42.13-32.54,35.67-3.13,32.54-38.23,32.54-38.23Zm-36.84,34.51s-3.78,31.74-38.16,29.47c0,0-30.04.94-39.11-28.53,0,0-34.76-3.78-34.76-32.12,0,0-4.72-27.39,31.93-39.49,0,0-.38-27.02,39.86-30.42,0,0,29.41-2.2,38.6,29.28,0,0,31.3,8.01,31.11,37.16,0,0,2.83,31.8-29.47,34.63Z"/>
    <path class="cls-2" d="m119.26,53.91c-7.93-27.17-33.31-25.27-33.31-25.27-34.72,2.93-34.39,26.24-34.39,26.24-31.62,10.43-27.55,34.07-27.55,34.07,0,24.45,29.99,27.71,29.99,27.71,7.82,25.43,33.74,24.61,33.74,24.61,29.67,1.96,32.93-25.43,32.93-25.43,27.87-2.45,25.43-29.88,25.43-29.88.16-25.15-26.84-32.06-26.84-32.06Zm-4.01,57.25s-2.76,23.22-27.92,21.56c0,0-21.98.69-28.61-20.87,0,0-25.43-2.76-25.43-23.5,0,0-3.46-20.04,23.36-28.89,0,0-.28-19.76,29.16-22.25,0,0,21.51-1.61,28.24,21.42,0,0,22.9,5.86,22.76,27.19,0,0,2.07,23.26-21.56,25.34Z"/>
    <path class="cls-2" d="m97.29,71.36h-25.17c-1.22,0-2.2.99-2.2,2.2v22.27c0,1.22.99,2.2,2.2,2.2h25.17c1.22,0,2.2-.99,2.2-2.2v-22.27c0-1.22-.99-2.2-2.2-2.2Zm-12.59,21.56c-4.27,0-7.74-3.47-7.74-7.74s3.47-7.74,7.74-7.74,7.74,3.47,7.74,7.74-3.47,7.74-7.74,7.74Z"/>
  </g>
  <g id="camada_4_branca" data-name="camada 4 branca">
    <path class="cls-1" d="m9.03,25.01s3.87-1.84,7,3.69l1.01,3.96,10.78-.92-.46-10.96-3.87-.74s-6.08-.55-2.76-5.99c0,0,5.88-3.22,5.38-6.72H0v20.82c1.76,1.79,5.04,3.38,9.03-3.13Z"/>
    <path class="cls-1" d="m149.31,14.05c3.32,5.44-2.76,5.99-2.76,5.99l-3.87.74-.46,10.96,10.78.92,1.01-3.96c3.13-5.53,7-3.69,7-3.69,3.96,6.45,7.22,4.94,8.98,3.17V7.33h-26.07c-.5,3.5,5.38,6.72,5.38,6.72Z"/>
    <path class="cls-1" d="m20.73,154.84c-3.32-5.44,2.76-5.99,2.76-5.99l3.87-.74.46-10.96-10.78-.92-1.01,3.96c-3.13,5.53-7,3.69-7,3.69-3.99-6.51-7.27-4.92-9.03-3.13v21.93h25.14l.66-.1c2.03-3.87-5.07-7.74-5.07-7.74Z"/>
    <path class="cls-1" d="m170,140.7c-1.77-1.77-5.03-3.28-8.98,3.17,0,0-3.87,1.84-7-3.69l-1.01-3.96-10.78.92.46,10.96,3.87.74s6.08.55,2.76,5.99c0,0-7.09,3.87-5.07,7.74l.66.1h25.1v-21.97Z"/>
    <path class="cls-1" d="m124.71,48.97c-9.19-31.49-38.6-29.28-38.6-29.28-40.24,3.4-39.86,30.42-39.86,30.42-36.65,12.09-31.93,39.49-31.93,39.49,0,28.34,34.76,32.12,34.76,32.12,9.07,29.47,39.11,28.53,39.11,28.53,34.38,2.27,38.16-29.47,38.16-29.47,32.31-2.83,29.47-34.63,29.47-34.63.19-29.15-31.11-37.16-31.11-37.16Zm-4.03,66.89s-3.26,27.39-32.93,25.43c0,0-25.92.82-33.74-24.61,0,0-29.99-3.26-29.99-27.71,0,0-4.08-23.64,27.55-34.07,0,0-.33-23.31,34.39-26.24,0,0,25.37-1.9,33.31,25.27,0,0,27,6.91,26.84,32.06,0,0,2.45,27.44-25.43,29.88Z"/>
    <circle class="cls-1" cx="84.7" cy="85.18" r="7.74" transform="translate(-12.55 14.67) rotate(-9.22)"/>
    <path class="cls-1" d="m84.74,68.05c.16.11.37.12.54,0,1.02-.68,4.43-3.63,3.8-12.27,0,0-.23-7.89-3.87-13.5-.1-.15-.32-.16-.42,0-.93,1.46-4.65,7.68-4.56,13.41,0,0-.14,9.06,4.51,12.36Z"/>
    <path class="cls-1" d="m115.47,80.7s-9.06.06-12.25,4.78c-.11.16-.11.38,0,.54.7,1,3.72,4.35,12.35,3.53,0,0,7.88-.4,13.41-4.16.15-.1.15-.33,0-.42-1.48-.89-7.78-4.48-13.51-4.26Z"/>
    <path class="cls-1" d="m84.46,102.92c-.17-.11-.38-.1-.54.02-.99.72-4.26,3.82-3.25,12.43,0,0,.58,7.87,4.46,13.31.11.15.33.14.42-.01.86-1.5,4.3-7.88,3.96-13.6,0,0-.26-9.06-5.05-12.15Z"/>
    <path class="cls-1" d="m53.74,80.87s-7.86.75-13.21,4.75c-.15.11-.14.33.02.42,1.52.83,7.97,4.13,13.68,3.66,0,0,9.05-.46,12.03-5.31.1-.17.09-.38-.03-.54-.75-.97-3.91-4.18-12.5-2.98Z"/>
  </g>
</svg>