<?xml version="1.0" encoding="UTF-8"?>
<svg xmlns="http://www.w3.org/2000/svg" viewBox="0 0 170 170">
  <defs>
    <style>
      .cls-1 {
        fill: #fff;
      }

      .cls-2 {
        fill: #939598;
      }

      .cls-3 {
        fill: #6d6e71;
      }

      .cls-4 {
        fill: #231f20;
      }
    </style>
  </defs>
  <g id="camada_1_preta" data-name="camada 1 preta">
    <polygon class="cls-4" points="170 162.67 0 162.67 0 82.51 0 7.33 12.35 7.33 41.65 7.33 170 7.33 170 162.67"/>
  </g>
  <g id="camada_2_cinza_50_" data-name="camada 2 cinza 50%">
    <path class="cls-2" d="m170,29.54V7.33h-25.39l-24.73,22.9H52.43L27.03,7.33H0v20.8l29.3,26.41v59.56L0,141.23v21.44h26.22l26.02-24.09h70.31l26.73,24.09h20.72v-26.48l-25.77-23.23v-59.56l25.77-23.86Zm-50.98,85.27H54.52v-60.81h64.5v60.81Z"/>
  </g>
  <g id="camada_3_cinza_70_" data-name="camada 3 cinza 70%">
    <path class="cls-3" d="m86.77,53.98l-32.25,30.42,32.25,30.43,31.98-31.08-31.98-29.76Zm0,37.05c-3.33,0-6.04-2.7-6.04-6.04s2.7-6.04,6.04-6.04,6.04,2.7,6.04,6.04-2.7,6.04-6.04,6.04Z"/>
  </g>
  <g id="camada_4_branca" data-name="camada 4 branca">
    <path class="cls-1" d="m92.02,69.24c0,2.9-2.35,6.7-5.25,6.7s-5.25-3.8-5.25-6.7,4.39-11.61,5.25-11.61,5.25,8.71,5.25,11.61Z"/>
    <path class="cls-1" d="m81.52,100.09c0-2.9,2.35-6.7,5.25-6.7s5.25,3.8,5.25,6.7-4.39,11.61-5.25,11.61-5.25-8.71-5.25-11.61Z"/>
    <path class="cls-1" d="m71.06,79.15c2.9,0,6.7,2.35,6.7,5.25s-3.8,5.25-6.7,5.25-11.61-4.39-11.61-5.25c0-.88,8.71-5.25,11.61-5.25Z"/>
    <path class="cls-1" d="m101.53,89c-2.9,0-6.7-2.35-6.7-5.25s3.8-5.25,6.7-5.25,11.61,4.39,11.61,5.25-8.71,5.25-11.61,5.25Z"/>
  </g>
</svg>