<?xml version="1.0" encoding="UTF-8"?>
<svg xmlns="http://www.w3.org/2000/svg" viewBox="0 0 170 170">
  <defs>
    <style>
      .cls-1 {
        fill: #fff;
      }

      .cls-2 {
        fill: #231f20;
      }
    </style>
  </defs>
  <g id="camada_1_preta" data-name="camada 1 preta">
    <polygon class="cls-2" points="170 162.13 0 162.13 0 82.78 0 8.36 12.35 8.36 41.65 8.36 170 8.36 170 162.13"/>
  </g>
  <g id="camada_4_branca" data-name="camada 4 branca">
    <g>
      <g>
        <path class="cls-1" d="m16.41,41.79c2.85-1.56,5.94-3.75,8.99-6.3,5.16-5,9.81-10.69,12.54-15.68h0c1.96-3.58,3.27-7.46,3.92-11.46C18.79,8.66.19,25.44.02,46.17c5.73-.14,11.35-1.63,16.39-4.38h0Z"/>
        <path class="cls-1" d="m57.39,33.06c4.21,3.92,8.67,7.34,12.69,9.53,4.32,2.36,9.17,3.6,14.1,3.6h.82c-.15-20.68-18.66-37.43-41.63-37.84.65,4,1.94,7.88,3.9,11.46,2.29,4.19,5.95,8.88,10.12,13.24Z"/>
        <path class="cls-1" d="m31.11,62.92c.07-.02.14-.03.21-.05-4.81-4.85-10.19-9.16-14.92-11.76-5.03-2.75-10.65-4.24-16.38-4.37.17,20.82,18.93,37.67,42.13,37.84-.4-3.88-1.53-7.65-3.42-11.09-1.83-3.35-4.51-7-7.63-10.57Z"/>
        <path class="cls-1" d="m70.08,50.32c-5.52,3.02-11.88,8.33-17.28,14.12-2.56,3.08-4.76,6.18-6.33,9.05-1.68,3.08-2.77,6.43-3.27,9.88v1.19c23.06-.33,41.65-17.11,41.81-37.85h-.82c-4.93,0-9.78,1.24-14.1,3.6Z"/>
      </g>
      <g>
        <path class="cls-1" d="m101.39,41.79c2.85-1.56,5.94-3.75,8.99-6.3,5.16-5,9.81-10.69,12.54-15.68h0c1.96-3.58,3.27-7.46,3.92-11.46-23.07.31-41.67,17.09-41.84,37.82,5.73-.14,11.35-1.63,16.39-4.38h0Z"/>
        <path class="cls-1" d="m142.37,33.06c4.21,3.92,8.67,7.34,12.69,9.53,4.32,2.36,9.17,3.6,14.1,3.6h.82c-.15-20.68-18.66-37.43-41.63-37.84.65,4,1.94,7.88,3.9,11.46,2.29,4.19,5.95,8.88,10.12,13.24Z"/>
        <path class="cls-1" d="m116.09,62.92c.07-.02.14-.03.21-.05-4.81-4.85-10.19-9.16-14.92-11.76-5.03-2.75-10.65-4.24-16.38-4.37.17,20.82,18.93,37.67,42.13,37.84-.4-3.88-1.53-7.65-3.42-11.09-1.83-3.35-4.51-7-7.63-10.57Z"/>
        <path class="cls-1" d="m155.06,50.32c-5.52,3.02-11.88,8.33-17.28,14.12-2.56,3.08-4.76,6.18-6.33,9.05-1.68,3.08-2.77,6.43-3.27,9.88v1.19c23.06-.33,41.65-17.11,41.81-37.85h-.82c-4.93,0-9.78,1.24-14.1,3.6Z"/>
      </g>
      <g>
        <path class="cls-1" d="m16.41,119.35c2.85-1.56,5.94-3.75,8.99-6.3,5.16-5,9.81-10.69,12.54-15.68h0c1.96-3.58,3.27-7.46,3.92-11.46C18.79,86.22.19,103,.02,123.73c5.73-.14,11.35-1.63,16.39-4.38h0Z"/>
        <path class="cls-1" d="m57.39,110.62c4.21,3.92,8.67,7.34,12.69,9.53,4.32,2.36,9.17,3.6,14.1,3.6h.82c-.15-20.68-18.66-37.43-41.63-37.84.65,4,1.94,7.88,3.9,11.46,2.29,4.19,5.95,8.88,10.12,13.24Z"/>
        <path class="cls-1" d="m31.11,140.48c.07-.02.14-.03.21-.05-4.81-4.85-10.19-9.16-14.92-11.76-5.03-2.75-10.65-4.24-16.38-4.37.17,20.82,18.93,37.67,42.13,37.84-.4-3.88-1.53-7.65-3.42-11.09-1.83-3.35-4.51-7-7.63-10.57Z"/>
        <path class="cls-1" d="m70.08,127.88c-5.52,3.02-11.88,8.33-17.28,14.12-2.56,3.08-4.76,6.18-6.33,9.05-1.68,3.08-2.77,6.43-3.27,9.88v1.19c23.06-.33,41.65-17.11,41.81-37.85h-.82c-4.93,0-9.78,1.24-14.1,3.6Z"/>
      </g>
      <g>
        <path class="cls-1" d="m101.39,119.35c2.85-1.56,5.94-3.75,8.99-6.3,5.16-5,9.81-10.69,12.54-15.68h0c1.96-3.58,3.27-7.46,3.92-11.46-23.07.31-41.67,17.09-41.84,37.82,5.73-.14,11.35-1.63,16.39-4.38h0Z"/>
        <path class="cls-1" d="m142.37,110.62c4.21,3.92,8.67,7.34,12.69,9.53,4.32,2.36,9.17,3.6,14.1,3.6h.82c-.15-20.68-18.66-37.43-41.63-37.84.65,4,1.94,7.88,3.9,11.46,2.29,4.19,5.95,8.88,10.12,13.24Z"/>
        <path class="cls-1" d="m116.09,140.48c.07-.02.14-.03.21-.05-4.81-4.85-10.19-9.16-14.92-11.76-5.03-2.75-10.65-4.24-16.38-4.37.17,20.82,18.93,37.67,42.13,37.84-.4-3.88-1.53-7.65-3.42-11.09-1.83-3.35-4.51-7-7.63-10.57Z"/>
        <path class="cls-1" d="m155.06,127.88c-5.52,3.02-11.88,8.33-17.28,14.12-2.56,3.08-4.76,6.18-6.33,9.05-1.68,3.08-2.77,6.43-3.27,9.88v1.19c23.06-.33,41.65-17.11,41.81-37.85h-.82c-4.93,0-9.78,1.24-14.1,3.6Z"/>
      </g>
    </g>
  </g>
</svg>