<?xml version="1.0" encoding="UTF-8"?>
<svg xmlns="http://www.w3.org/2000/svg" viewBox="0 0 170 170">
  <defs>
    <style>
      .cls-1 {
        fill: #fff;
      }

      .cls-2 {
        fill: #231f20;
      }
    </style>
  </defs>
  <g id="camada_1_preta" data-name="camada 1 preta">
    <polygon class="cls-2" points="170 162.67 0 162.67 0 82.51 0 7.33 170 7.33 170 162.67"/>
  </g>
  <g id="camada_4_branca" data-name="camada 4 branca">
    <path class="cls-1" d="m86.66,10.92s-25.29-.41-25.71,25.02c0,0-23.36-15.48-34.14-8.15,0,0-13.82,10.37,6.63,33.31,0,0-31.1,1.93-29.02,23.08,0,0,13.68-3.95,30.67.82,9.42,2.65,17.8,8.06,24.52,15.17,7.47,7.91,22.37,19.39,31.89-1.76l44.64,39.25s-8.26,5.05-18.61-2.3c-1.99-1.42-4.07-2.72-6.3-3.72-7.35-3.27-22.65-8.01-37.15.49,0,0-6.07,3.17-17.17,3.83-.36.02-.56.42-.36.71,1.29,1.92,5.33,7.31,10.21,7.76,0,0,15.43,2.43,19.52,8.09.96,1.33,2.17,2.45,3.54,3.35,5.57,3.67,18.57,9.71,33.6-.66,0,0,14.79-13.41,17.41-13.41l24.33,20.87h4.84v-6.08l-22.39-20.46s1.63-5.28,7.29-10.4c4.39-3.97,7.38-9.27,8.65-15.04,1.51-6.83,1.81-16.12-2.54-26.67,0,0-11.58-19.01-13.79-25.91-.13-.4-.67-.44-.86-.07-1.15,2.28-3.87,7.53-6.2,10.91-1.34,1.93-2.53,3.96-3.45,6.12-2.74,6.47-6.39,18.89-.3,29.81,0,0,9.67,18.66,6.36,24.74l-42.85-37.73s19.71-10.42,3.73-27.08c-1.11-1.15-2.3-2.21-3.55-3.21-4.68-3.77-25.12-22.32-13.45-50.7Z"/>
  </g>
</svg>