<?xml version="1.0" encoding="UTF-8"?>
<svg xmlns="http://www.w3.org/2000/svg" viewBox="0 0 170 170">
  <defs>
    <style>
      .cls-1 {
        fill: #fff;
      }

      .cls-2 {
        fill: #939598;
      }

      .cls-3 {
        fill: #6d6e71;
      }

      .cls-4 {
        fill: #231f20;
      }
    </style>
  </defs>
  <g id="camada_1_preta" data-name="camada 1 preta">
    <path class="cls-4" d="m170,128.31V41.69c-18.98,0-34.37-15.39-34.37-34.37H34.37C34.37,26.31,18.98,41.69,0,41.69v86.61c18.98,0,34.37,15.39,34.37,34.37h101.26c0-18.98,15.39-34.37,34.37-34.37Z"/>
  </g>
  <g id="camada_2_cinza_50_" data-name="camada 2 cinza 50%">
    <circle class="cls-2" cx="85" cy="85" r="35.24"/>
    <polygon class="cls-2" points="85 141.62 109.19 162.67 60.81 162.67 85 141.62"/>
    <polygon class="cls-2" points="85 28.38 60.81 7.33 109.19 7.33 85 28.38"/>
    <polygon class="cls-2" points="21.05 85.31 0 109.49 0 61.12 21.05 85.31"/>
    <polygon class="cls-2" points="148.67 85.31 169.72 61.12 169.72 109.49 148.67 85.31"/>
  </g>
  <g id="camada_3_cinza_70_" data-name="camada 3 cinza 70%">
    <path class="cls-3" d="m34.37,7.33H0v34.37c18.98,0,34.37-15.39,34.37-34.37Z"/>
    <path class="cls-3" d="m0,128.31v34.37h34.37C34.37,143.69,18.98,128.31,0,128.31Z"/>
    <path class="cls-3" d="m170,41.69V7.33h-34.37c0,18.98,15.39,34.37,34.37,34.37Z"/>
    <path class="cls-3" d="m170,128.31c-18.98,0-34.37,15.39-34.37,34.37h34.37v-34.37Z"/>
  </g>
  <g id="camada_4_branca" data-name="camada 4 branca">
    <path class="cls-1" d="m102.75,74.05c-2.19,2.19-14.27,7.82-14.27,6.78,0-1.94,4.13-12.54,6.32-14.73s5.75-2.19,7.95,0,2.19,5.75,0,7.95Z"/>
    <path class="cls-1" d="m19.44,151.53c-2.19,2.19-14.27,7.82-14.27,6.78,0-1.94,4.13-12.54,6.32-14.73s5.75-2.19,7.95,0,2.19,5.75,0,7.95Z"/>
    <path class="cls-1" d="m149.3,20.1c2.19-2.19,14.27-7.82,14.27-6.78,0,1.94-4.13,12.54-6.32,14.73s-5.75,2.19-7.95,0-2.19-5.75,0-7.95Z"/>
    <path class="cls-1" d="m95.78,102.85c-2.17-2.22-7.68-14.34-6.65-14.33,1.94.02,12.5,4.25,14.67,6.46s2.14,5.77-.08,7.95c-2.22,2.17-5.77,2.14-7.95-.08Z"/>
    <path class="cls-1" d="m11.7,27.76c-2.17-2.22-7.68-14.34-6.65-14.33,1.94.02,12.5,4.25,14.67,6.46s2.14,5.77-.08,7.95-5.77,2.14-7.95-.08Z"/>
    <path class="cls-1" d="m67.05,95.61c2.24-2.15,14.42-7.55,14.4-6.51-.04,1.94-4.36,12.46-6.6,14.61-2.24,2.15-5.79,2.09-7.95-.15-2.15-2.24-2.09-5.79.15-7.95Z"/>
    <path class="cls-1" d="m74.56,66.95c2.13,2.26,7.41,14.49,6.37,14.46-1.94-.06-12.41-4.48-14.55-6.74s-2.03-5.81.23-7.95c2.26-2.13,5.81-2.03,7.95.23Z"/>
    <path class="cls-1" d="m158.37,143.83c2.13,2.26,7.41,14.49,6.37,14.46-1.94-.06-12.41-4.48-14.55-6.74-2.13-2.26-2.03-5.81.23-7.95s5.81-2.03,7.95.23Z"/>
    <rect class="cls-1" x="4.59" y="43.51" width="69.9" height="5.94" transform="translate(-21.04 39.14) rotate(-42.7)"/>
    <rect class="cls-1" x="92.71" y="121.16" width="69.9" height="5.94" transform="translate(-50.34 119.49) rotate(-42.7)"/>
    <rect class="cls-1" x="92.52" y="43.51" width="69.9" height="5.94" transform="translate(66.77 -74.87) rotate(43.39)"/>
    <rect class="cls-1" x="7.71" y="121.16" width="69.9" height="5.94" transform="translate(96.94 4.62) rotate(43.39)"/>
  </g>
</svg>