<?xml version="1.0" encoding="UTF-8"?>
<svg xmlns="http://www.w3.org/2000/svg" viewBox="0 0 170 170">
  <defs>
    <style>
      .cls-1 {
        fill: #fff;
      }

      .cls-2 {
        fill: #939598;
      }

      .cls-3 {
        fill: #231f20;
      }
    </style>
  </defs>
  <g id="camada_1_preta" data-name="camada 1 preta">
    <polygon class="cls-3" points="170 162.67 0 162.67 0 82.51 0 7.33 12.35 7.33 41.65 7.33 170 7.33 170 162.67"/>
  </g>
  <g id="camada_2_cinza_50_" data-name="camada 2 cinza 50%">
    <path class="cls-2" d="m65.55,34.88c-2.76-4.64-6.97-8.44-12.07-10.92-4.1-1.99-8.78-3.13-13.74-3.13-16.22,0-29.37,12.04-29.37,26.88,0,5.21,1.65,10.05,4.45,14.17,4.22-5.53,8.5-10.55,12.74-15.07,3.48-3.7,6.93-7.08,10.3-10.15.62-.09,1.24-.15,1.88-.15,6.75,0,12.23,5.01,12.23,11.2,0,.99-.15,1.95-.42,2.86-3.25,3-6.57,5.71-9.88,8.18-6.29,4.69-12.53,8.44-18.11,11.38,4.64,2.81,10.2,4.46,16.18,4.46,16.22,0,29.37-12.04,29.37-26.88,0-4.65-1.29-9.02-3.56-12.83Z"/>
    <path class="cls-2" d="m154.82,34.88c-2.76-4.64-6.97-8.44-12.07-10.92-4.1-1.99-8.78-3.13-13.74-3.13-16.22,0-29.37,12.04-29.37,26.88,0,5.21,1.65,10.05,4.45,14.17,4.22-5.53,8.5-10.55,12.74-15.07,3.48-3.7,6.93-7.08,10.3-10.15.62-.09,1.24-.15,1.88-.15,6.75,0,12.23,5.01,12.23,11.2,0,.99-.15,1.95-.42,2.86-3.25,3-6.57,5.71-9.88,8.18-6.29,4.69-12.53,8.44-18.11,11.38,4.64,2.81,10.2,4.46,16.18,4.46,16.22,0,29.37-12.04,29.37-26.88,0-4.65-1.29-9.02-3.56-12.83Z"/>
    <path class="cls-2" d="m65.55,115.7c-2.76-4.64-6.97-8.44-12.07-10.92-4.1-1.99-8.78-3.13-13.74-3.13-16.22,0-29.37,12.04-29.37,26.88,0,5.21,1.65,10.05,4.45,14.17,4.22-5.53,8.5-10.55,12.74-15.07,3.48-3.7,6.93-7.08,10.3-10.15.62-.09,1.24-.15,1.88-.15,6.75,0,12.23,5.01,12.23,11.2,0,.99-.15,1.95-.42,2.86-3.25,3-6.57,5.71-9.88,8.18-6.29,4.69-12.53,8.44-18.11,11.38,4.64,2.81,10.2,4.46,16.18,4.46,16.22,0,29.37-12.04,29.37-26.88,0-4.65-1.29-9.02-3.56-12.83Z"/>
    <path class="cls-2" d="m154.82,115.7c-2.76-4.64-6.97-8.44-12.07-10.92-4.1-1.99-8.78-3.13-13.74-3.13-16.22,0-29.37,12.04-29.37,26.88,0,5.21,1.65,10.05,4.45,14.17,4.22-5.53,8.5-10.55,12.74-15.07,3.48-3.7,6.93-7.08,10.3-10.15.62-.09,1.24-.15,1.88-.15,6.75,0,12.23,5.01,12.23,11.2,0,.99-.15,1.95-.42,2.86-3.25,3-6.57,5.71-9.88,8.18-6.29,4.69-12.53,8.44-18.11,11.38,4.64,2.81,10.2,4.46,16.18,4.46,16.22,0,29.37-12.04,29.37-26.88,0-4.65-1.29-9.02-3.56-12.83Z"/>
  </g>
  <g id="camada_4_branca" data-name="camada 4 branca">
    <path class="cls-1" d="m65.55,34.88c5.29-7.32,9.8-15.69,12.91-25.25.02-.05-.02-.11-.07-.09-1.19.47-11.27,4.61-24.91,14.42,5.1,2.48,9.31,6.28,12.07,10.92Z"/>
    <path class="cls-1" d="m39.74,36.51c-.64,0-1.27.06-1.88.15-3.37,3.07-6.82,6.45-10.3,10.15-4.24,4.52-8.52,9.54-12.74,15.07-3.93,5.15-7.8,10.75-11.54,16.84-.03.05,0,.12.06.1,1.19-.37,9.46-3.01,20.23-8.69,5.57-2.94,11.81-6.7,18.11-11.38,3.31-2.47,6.64-5.18,9.88-8.18.26-.92.42-1.87.42-2.86,0-6.18-5.48-11.2-12.23-11.2Z"/>
    <path class="cls-1" d="m154.82,34.88c5.29-7.32,9.8-15.69,12.91-25.25.02-.05-.02-.11-.07-.09-1.19.47-11.27,4.61-24.91,14.42,5.1,2.48,9.31,6.28,12.07,10.92Z"/>
    <path class="cls-1" d="m129.01,36.51c-.64,0-1.27.06-1.88.15-3.37,3.07-6.82,6.45-10.3,10.15-4.24,4.52-8.52,9.54-12.74,15.07-3.93,5.15-7.8,10.75-11.54,16.84-.03.05,0,.12.06.1,1.19-.37,9.46-3.01,20.23-8.69,5.57-2.94,11.81-6.7,18.11-11.38,3.31-2.47,6.64-5.18,9.88-8.18.26-.92.42-1.87.42-2.86,0-6.18-5.48-11.2-12.23-11.2Z"/>
    <path class="cls-1" d="m65.55,115.7c5.29-7.32,9.8-15.69,12.91-25.25.02-.05-.02-.11-.07-.09-1.19.47-11.27,4.61-24.91,14.42,5.1,2.48,9.31,6.28,12.07,10.92Z"/>
    <path class="cls-1" d="m39.74,117.33c-.64,0-1.27.06-1.88.15-3.37,3.07-6.82,6.45-10.3,10.15-4.24,4.52-8.52,9.54-12.74,15.07-3.93,5.15-7.8,10.75-11.54,16.84-.03.05,0,.12.06.1,1.19-.37,9.46-3.01,20.23-8.69,5.57-2.94,11.81-6.7,18.11-11.38,3.31-2.47,6.64-5.18,9.88-8.18.26-.92.42-1.87.42-2.86,0-6.18-5.48-11.2-12.23-11.2Z"/>
    <path class="cls-1" d="m154.82,115.7c5.29-7.32,9.8-15.69,12.91-25.25.02-.05-.02-.11-.07-.09-1.19.47-11.27,4.61-24.91,14.42,5.1,2.48,9.31,6.28,12.07,10.92Z"/>
    <path class="cls-1" d="m129.01,117.33c-.64,0-1.27.06-1.88.15-3.37,3.07-6.82,6.45-10.3,10.15-4.24,4.52-8.52,9.54-12.74,15.07-3.93,5.15-7.8,10.75-11.54,16.84-.03.05,0,.12.06.1,1.19-.37,9.46-3.01,20.23-8.69,5.57-2.94,11.81-6.7,18.11-11.38,3.31-2.47,6.64-5.18,9.88-8.18.26-.92.42-1.87.42-2.86,0-6.18-5.48-11.2-12.23-11.2Z"/>
  </g>
</svg>