<svg xmlns="http://www.w3.org/2000/svg" width="170" height="170" viewBox="0 0 170 170">
  <g id="Camada_2" data-name="Camada 2">
    <g id="Camada_1-2" data-name="Camada 1">
      <g id="Camada_2-2" data-name="Camada 2">
        <g id="Camada_1-2-2" data-name="Camada 1-2">
          <path id="_2" data-name=" 2" d="M16.78,31.12c1.48.74,2.2.87,2.62,1.35,9.78,11,21.63,18.7,33.79,26,4.4,2.63,8.2,6.44,12.45,9.39,1.33.92,3.24.82,4.89,1.19-.5-1.7-.51-4.11-1.56-5C63.33,59.47,57.77,54.52,51.58,51a125.64,125.64,0,0,1-32.74-27.5c-1-1.11-1.77-2.48-3.59-5.07,3.92.21,6.51.22,9.1.5,14.91,1.62,28.92-1.47,40.13-12.54C69.88,1,75.16-.29,81.67.31a9.84,9.84,0,0,0,2,0A28,28,0,0,1,107.2,7.9c8.8,7.88,19.49,11.62,31.26,9.21a25.11,25.11,0,0,1,3.68,0c-1.56,1.8-2.23,2.91-3.18,3.62-8.16,6-14,14.15-19.48,23-4.6,7.43-10,14.25-15,21.46-.81,1.2-.84,3-1.23,4.58,1.33-.31,3.15-.11,3.91-1,5.59-6.59,11.51-13,16.3-20.26,5.84-8.88,11.72-17.63,20-23.93,1.78-1.34,4.13-1.78,6.21-2.64.53,2.22,1.5,4.44,1.51,6.6.07,10.6,2,20.56,7.67,29.35,1.27,2,2.36,4.53,4.13,5.55,7.24,4,7.27,10.91,6.74,18.21a15.45,15.45,0,0,0,0,3.33c.9,6.5-1.08,11.41-5.53,16a44.56,44.56,0,0,0-12.42,34.41,9.68,9.68,0,0,1-.37,2.32c-8.19-6.77-16.12-13.8-24.49-20.11s-17.19-12-27-18.74c1.13,2.65,1.46,5,2.68,6,5.74,4.73,11.25,10.28,17.7,13.38,13.61,6.52,22.95,17.76,31.35,30.43.6.89.52,2.31.75,3.48a12.63,12.63,0,0,1-3.73.75c-9.56-1-19.31-3-28.38,1.75-6.3,3.33-12,8-18,11.8a20.5,20.5,0,0,1-7.51,3.33c-4,.55-8.09,0-12.13.17-7.46.33-13.61-.63-20-7-5.47-5.55-14.45-6.94-22-9.75-2.72-1-5.82-.78-9.31-1.2.67-1.47.78-2.31,1.22-2.63,11-7.9,17.82-20,25.73-31C61.84,113.44,66,109,69.62,104.2c1-1.27,1.2-3.21,1.78-4.86-1.62.54-3.78.51-4.75,1.69-5.41,6.44-10.88,13-15.76,20C43,132.28,34.78,142.87,22.35,148.29c-4.69,2.05-5.71,1.53-5.06-3.77,2.08-18.16-3.61-33-15.51-45.31A7.51,7.51,0,0,1,.2,94.94C0,92,.2,89,.11,86.06-.27,78.16,0,71.56,7,65.57s10-16,9.8-26.39C16.75,36.82,16.78,34.45,16.78,31.12Zm66,120.55,2-.07c3.83-9.58,8.15-19,11.27-28.85,1.27-4,.46-9.12-.31-13.54-.82-4.71-3.87-7.77-8.53-8-4.82-.29-9.46.55-11.26,6.2-1.28,4-2.82,8.88-2,12.74C76.24,130.84,79.74,141.19,82.77,151.67ZM87,20.58l-1.67.22C83.8,25,82.15,29.22,80.7,33.5c-2.26,6.74-4.8,13.42-6.45,20.34a14.3,14.3,0,0,0,5.57,14.43c4.54,2.9,11,2.65,14.85-.58,3.65-3,5.06-8.94,3.37-15.19-.94-3.54-2-7-3.27-10.47C92.26,34.82,89.62,27.72,87,20.58ZM19.56,84,20,86.19c2.86,1,5.69,2,8.6,2.83,8.47,2.33,16.9,5,25.48,6.66,8.09,1.53,15.69-4.44,15.87-11.37a12.15,12.15,0,0,0-15-12.1C42.91,75.07,31.35,80,19.56,84Zm132.5,2.22c-.76-.92-1-1.53-1.4-1.67-10.76-3.64-21.41-7.78-32.33-10.68-3.67-1-8.48.23-12,2.15-4.25,2.19-6.07,7.74-4.08,12.4a9,9,0,0,0,4.08,4.48c3.43,1.83,7.94,3,11.58,2.22,11.35-2.31,22.5-5.73,34.12-8.85Zm-57.78-.33a9,9,0,0,0-8.8-9.29c-4.94-.25-9.14,3.91-9.4,9.33-.09,5.23,3.68,9.55,8.44,9.7,5.14.14,9.6-4.31,9.73-9.69Z"/>
          <g id="_1" data-name=" 1">
            <path d="M.4,63.39V38.14C.4,27.62.52,17.06.4,6.59.32,2.81,2,.78,5.05.74,24.14.59,43.24.67,62.35.67L63,2.05c-2,1.7-3.79,3.74-6,5.06-16,9.74-32,10-47.83-.73-1.59-1.11-3.81-1-5.75-1.46a49.69,49.69,0,0,0,1.27,6.65C6.49,16.91,9.1,22,10.29,27.5c3.12,13.64-.37,25.63-8.19,36.21Z"/>
            <path d="M169.44,63c-5.59-3-8-7.77-10-12.47-5.76-13.53-3.39-26.22,3.88-38.23a17.37,17.37,0,0,0,2-3.19,36.47,36.47,0,0,0,1-5,20.7,20.7,0,0,0-4.72,0A22.59,22.59,0,0,0,157.45,6C141,13.16,124.79,14.31,108.9,4.12a45.69,45.69,0,0,1-4-3.45h26.72c10.26,0,20.53-.07,30.8,0,5.9,0,7.08,1.42,7.08,7.83C169.43,26.22,169.44,44,169.44,63Z"/>
            <path d="M63,169.54H7.16c1.71-6.61,11.12-11,26.51-12.67C45.39,155.63,59.14,161.31,63,169.54Z"/>
            <path d="M.29,164V105.05c7.49,7.44,11.65,15.6,12.85,25.09,1.76,13.62-4,24.41-11.6,34.29Z"/>
            <path d="M169.53,103.35V165.4C154.2,156.77,153.94,114.91,169.53,103.35Z"/>
            <path d="M107.26,169.27c14.16-15.54,43.49-16.18,54,0Z"/>
          </g>
        </g>
      </g>
    </g>
  </g>
</svg>
